# brazo-ttp.obj (EXERSUITE3D, cm)
v 1.041 4.000 -8.286
v 0.551 -4.000 -8.488
v 1.041 -4.000 -8.286
v 0.551 4.000 -8.488
v 1.461 4.000 -7.963
v 1.784 -4.000 -7.542
v 1.784 4.000 -7.542
v 1.461 -4.000 -7.963
v -2.005 -4.000 -6.527
v -1.936 4.000 -6.002
v -1.936 -4.000 -6.002
v -2.005 4.000 -6.527
v -1.733 -4.000 -5.512
v -1.410 4.000 -5.092
v -1.410 -4.000 -5.092
v -1.733 4.000 -5.512
v -1.733 -4.000 -7.542
v -1.936 4.000 -7.053
v -1.936 -4.000 -7.053
v -1.733 4.000 -7.542
v -1.410 -4.000 -7.963
v -1.410 4.000 -7.963
v 0.026 -2.043 -8.558
v -0.500 -4.000 -8.488
v 0.026 -4.000 -8.558
v -0.500 4.000 -8.488
v 0.026 0.000 -8.558
v 0.026 2.043 -8.558
v 0.026 4.000 -8.558
v 0.026 -2.043 -4.497
v 0.551 -4.000 -4.566
v 0.026 -4.000 -4.497
v 0.551 4.000 -4.566
v 0.026 0.000 -4.497
v 0.026 2.043 -4.497
v 0.026 4.000 -4.497
v 1.987 -4.000 -7.053
v 1.987 4.000 -7.053
v 1.784 4.000 -5.512
v 1.461 -4.000 -5.092
v 1.461 4.000 -5.092
v 1.784 -4.000 -5.512
v -0.500 4.000 -4.566
v -0.500 -4.000 -4.566
v 2.056 -4.000 -6.527
v 2.056 4.000 -6.527
v -0.990 -4.000 -8.286
v -0.990 4.000 -8.286
v 1.041 4.000 -4.769
v 1.041 -4.000 -4.769
v 1.987 -4.000 -6.002
v 1.987 4.000 -6.002
v -0.990 4.000 -4.769
v -0.990 -4.000 -4.769
v -2.635 4.000 -5.815
v -2.635 4.000 -7.240
v -2.729 4.000 -6.527
v -2.360 4.000 -5.150
v -2.360 4.000 -7.905
v -1.922 4.000 -4.580
v -1.352 4.000 -4.142
v -0.687 4.000 -3.867
v 0.026 4.000 -3.773
v 0.738 4.000 -3.867
v 1.403 4.000 -4.142
v 1.973 4.000 -4.580
v 2.411 4.000 -5.150
v -1.922 4.000 -8.475
v -1.352 4.000 -8.913
v -0.687 4.000 -9.188
v 0.026 4.000 -9.282
v 0.738 4.000 -9.188
v 1.403 4.000 -8.913
v 1.973 4.000 -8.475
v 2.411 4.000 -7.905
v 2.686 4.000 -5.815
v 2.686 4.000 -7.240
v 2.780 4.000 -6.527
v -2.635 -4.000 -5.815
v -2.729 -4.000 -6.527
v -2.635 -4.000 -7.240
v -2.360 -4.000 -7.905
v -1.922 -4.000 -8.475
v -1.352 -4.000 -8.913
v -0.687 -4.000 -9.188
v 0.026 -4.000 -9.282
v 0.026 -2.043 -9.282
v 0.026 0.000 -9.282
v 0.026 2.043 -9.282
v 0.738 -4.000 -9.188
v 1.403 -4.000 -8.913
v 1.973 -4.000 -8.475
v 2.411 -4.000 -7.905
v 2.686 -4.000 -7.240
v 2.780 -4.000 -6.527
v 2.686 -4.000 -5.815
v 2.411 -4.000 -5.150
v 1.973 -4.000 -4.580
v 1.403 -4.000 -4.142
v 0.738 -4.000 -3.867
v 0.026 -4.000 -3.773
v 0.026 -2.043 -3.773
v 0.026 0.000 -3.773
v 0.026 2.043 -3.773
v -0.687 -4.000 -3.867
v -1.352 -4.000 -4.142
v -1.922 -4.000 -4.580
v -2.360 -4.000 -5.150
v -0.622 -2.415 -43.282
v 0.673 -2.415 -43.282
v 0.026 -2.500 -43.282
v -1.224 -2.165 -43.282
v 1.276 -2.165 -43.282
v 0.026 -2.043 -43.282
v -0.503 -1.974 -43.282
v -1.742 -1.768 -43.282
v -0.996 -1.769 -43.282
v -1.419 -1.445 -43.282
v -2.140 -1.250 -43.282
v -1.744 -1.022 -43.282
v -2.389 -0.647 -43.282
v -1.948 -0.529 -43.282
v -2.474 0.000 -43.282
v -2.018 0.000 -43.282
v -2.389 0.647 -43.282
v -1.948 0.529 -43.282
v -1.744 1.022 -43.282
v -2.140 1.250 -43.282
v -1.419 1.445 -43.282
v -1.742 1.768 -43.282
v -0.996 1.769 -43.282
v -1.224 2.165 -43.282
v -0.503 1.974 -43.282
v 0.026 2.043 -43.282
v 0.554 -1.974 -43.282
v 1.793 -1.768 -43.282
v 1.047 -1.769 -43.282
v 1.470 -1.445 -43.282
v 2.191 -1.250 -43.282
v 1.795 -1.022 -43.282
v 2.440 -0.647 -43.282
v 1.999 -0.529 -43.282
v 2.526 0.000 -43.282
v 2.069 0.000 -43.282
v 1.999 0.529 -43.282
v 2.440 0.647 -43.282
v 1.795 1.022 -43.282
v 2.191 1.250 -43.282
v 1.470 1.445 -43.282
v 1.793 1.768 -43.282
v 1.047 1.769 -43.282
v 1.276 2.165 -43.282
v 0.554 1.974 -43.282
v -0.622 2.415 -43.282
v 0.673 2.415 -43.282
v 0.026 2.500 -43.282
v 0.609 -2.415 43.282
v -0.685 -2.415 43.282
v -0.038 -2.500 43.282
v 1.212 -2.165 43.282
v -1.288 -2.165 43.282
v -0.038 -2.024 43.282
v 0.486 -1.955 43.282
v 1.730 -1.768 43.282
v 0.974 -1.753 43.282
v 2.127 -1.250 43.282
v 1.393 -1.431 43.282
v 1.715 -1.012 43.282
v 2.377 -0.647 43.282
v 1.917 -0.524 43.282
v 2.462 0.000 43.282
v 1.986 0.000 43.282
v 2.377 0.647 43.282
v 1.917 0.524 43.282
v 1.715 1.012 43.282
v 2.127 1.250 43.282
v 1.393 1.431 43.282
v 1.730 1.768 43.282
v 0.974 1.753 43.282
v 0.486 1.955 43.282
v 1.212 2.165 43.282
v -0.038 2.024 43.282
v -0.562 -1.955 43.282
v -1.806 -1.768 43.282
v -1.050 -1.753 43.282
v -2.203 -1.250 43.282
v -1.469 -1.431 43.282
v -1.790 -1.012 43.282
v -2.453 -0.647 43.282
v -1.992 -0.524 43.282
v -2.538 0.000 43.282
v -2.061 0.000 43.282
v -1.992 0.524 43.282
v -2.453 0.647 43.282
v -1.790 1.012 43.282
v -2.203 1.250 43.282
v -1.469 1.431 43.282
v -1.806 1.768 43.282
v -1.050 1.753 43.282
v -0.562 1.955 43.282
v -1.288 2.165 43.282
v 0.609 2.415 43.282
v -0.685 2.415 43.282
v -0.038 2.500 43.282
v -2.474 0.000 -13.282
v -2.389 0.647 -13.282
v -2.140 1.250 -13.282
v -1.742 1.768 -13.282
v -1.224 2.165 -13.282
v -0.622 2.415 -13.282
v 0.026 2.500 -13.282
v 0.673 2.415 -13.282
v 1.276 2.165 -13.282
v 1.793 1.768 -13.282
v 2.191 1.250 -13.282
v 2.440 0.647 -13.282
v 2.526 0.000 -13.282
v 2.440 -0.647 -13.282
v 2.191 -1.250 -13.282
v 1.793 -1.768 -13.282
v 1.276 -2.165 -13.282
v 0.673 -2.415 -13.282
v 0.026 -2.500 -13.282
v -0.622 -2.415 -13.282
v -1.224 -2.165 -13.282
v -1.742 -1.768 -13.282
v -2.140 -1.250 -13.282
v -2.389 -0.647 -13.282
v 2.462 0.000 13.282
v 2.377 0.647 13.282
v 2.127 1.250 13.282
v 1.730 1.768 13.282
v 1.212 2.165 13.282
v 0.609 2.415 13.282
v -0.038 2.500 13.282
v -0.685 2.415 13.282
v -1.288 2.165 13.282
v -1.806 1.768 13.282
v -2.203 1.250 13.282
v -2.453 0.647 13.282
v -2.538 0.000 13.282
v -2.453 -0.647 13.282
v -2.203 -1.250 13.282
v -1.806 -1.768 13.282
v -1.288 -2.165 13.282
v -0.685 -2.415 13.282
v -0.038 -2.500 13.282
v 0.609 -2.415 13.282
v 1.212 -2.165 13.282
v 1.730 -1.768 13.282
v 2.127 -1.250 13.282
v 2.377 -0.647 13.282
v 0.026 -2.043 -12.582
v -0.503 -1.974 -12.582
v 0.026 -2.043 -12.782
v -0.996 -1.769 -12.582
v -1.419 -1.445 -12.582
v -1.744 -1.022 -12.582
v -1.948 -0.529 -12.582
v -2.018 0.000 -12.782
v -2.018 0.000 -12.582
v -1.948 0.529 -12.582
v -1.744 1.022 -12.582
v -1.419 1.445 -12.582
v -0.996 1.769 -12.582
v -0.503 1.974 -12.582
v 0.026 2.043 -12.582
v 0.026 2.043 -12.782
v 0.554 1.974 -12.582
v 1.047 1.769 -12.582
v 1.470 1.445 -12.582
v 1.795 1.022 -12.582
v 1.999 0.529 -12.582
v 2.069 0.000 -12.582
v 2.069 0.000 -12.782
v 1.999 -0.529 -12.582
v 1.795 -1.022 -12.582
v 1.470 -1.445 -12.582
v 1.047 -1.769 -12.582
v 0.554 -1.974 -12.582
v -1.050 -1.753 12.782
v -0.562 -1.955 12.782
v -0.038 -2.024 12.782
v 0.486 -1.955 12.782
v 0.974 -1.753 12.782
v 1.393 -1.431 12.782
v 1.715 -1.012 12.782
v 1.917 -0.524 12.782
v 1.986 0.000 12.782
v 1.917 0.524 12.782
v 1.715 1.012 12.782
v 1.393 1.431 12.782
v 0.974 1.753 12.782
v 0.486 1.955 12.782
v -0.038 2.024 12.782
v -0.562 1.955 12.782
v -1.050 1.753 12.782
v -1.469 1.431 12.782
v -1.790 1.012 12.782
v -1.992 0.524 12.782
v -2.061 0.000 12.782
v -2.018 0.333 12.782
v -1.992 -0.524 12.782
v -2.018 -0.333 12.782
v -1.790 -1.012 12.782
v -1.469 -1.431 12.782
v -0.742 -2.864 -13.282
v 0.793 -2.864 -13.282
v 0.026 -2.965 -13.282
v -1.457 -2.568 -13.282
v 1.508 -2.568 -13.282
v -2.071 -2.097 -13.282
v -2.543 -1.483 -13.282
v -2.839 -0.768 -13.282
v -2.940 0.000 -13.282
v -2.839 0.768 -13.282
v -2.543 1.483 -13.282
v -2.071 2.097 -13.282
v -1.457 2.568 -13.282
v 2.122 -2.097 -13.282
v 2.594 -1.483 -13.282
v 2.890 -0.768 -13.282
v 2.991 0.000 -13.282
v 2.890 0.768 -13.282
v 2.594 1.483 -13.282
v 2.122 2.097 -13.282
v 1.508 2.568 -13.282
v -0.742 2.864 -13.282
v 0.793 2.864 -13.282
v 0.026 2.965 -13.282
v -2.543 -1.483 -12.782
v -2.839 -0.768 -12.782
v -2.071 -2.097 -12.782
v -1.457 -2.568 -12.782
v -0.742 -2.864 -12.782
v 0.026 -2.965 -12.782
v 0.793 -2.864 -12.782
v 1.508 -2.568 -12.782
v 2.122 -2.097 -12.782
v 2.594 -1.483 -12.782
v 2.890 -0.768 -12.782
v 2.991 0.000 -12.782
v 2.890 0.768 -12.782
v 2.594 1.483 -12.782
v 2.122 2.097 -12.782
v 1.508 2.568 -12.782
v 0.793 2.864 -12.782
v 0.026 2.965 -12.782
v -0.742 2.864 -12.782
v -1.457 2.568 -12.782
v -2.071 2.097 -12.782
v -2.543 1.483 -12.782
v -2.839 0.768 -12.782
v -2.940 0.000 -12.782
v 0.727 -2.853 13.282
v -0.802 -2.853 13.282
v -0.038 -2.953 13.282
v 1.439 -2.558 13.282
v -1.514 -2.558 13.282
v 2.050 -2.088 13.282
v 2.520 -1.477 13.282
v 2.815 -0.764 13.282
v 2.915 0.000 13.282
v 2.815 0.764 13.282
v 2.520 1.477 13.282
v 2.050 2.088 13.282
v 1.439 2.558 13.282
v -2.126 -2.088 13.282
v -2.595 -1.477 13.282
v -2.890 -0.764 13.282
v -2.991 0.000 13.282
v -2.890 0.764 13.282
v -2.595 1.477 13.282
v -2.126 2.088 13.282
v -1.514 2.558 13.282
v 0.727 2.853 13.282
v -0.802 2.853 13.282
v -0.038 2.953 13.282
v -0.802 -2.853 12.782
v 0.727 -2.853 12.782
v -0.038 -2.953 12.782
v -1.514 -2.558 12.782
v 1.439 -2.558 12.782
v -2.126 -2.088 12.782
v 2.050 -2.088 12.782
v -2.595 -1.477 12.782
v -2.890 -0.764 12.782
v -2.991 0.000 12.782
v -2.890 0.764 12.782
v -2.595 1.477 12.782
v -2.126 2.088 12.782
v 2.520 -1.477 12.782
v 2.815 -0.764 12.782
v 2.915 0.000 12.782
v 2.815 0.764 12.782
v 2.520 1.477 12.782
v 2.050 2.088 12.782
v -1.514 2.558 12.782
v 1.439 2.558 12.782
v -0.802 2.853 12.782
v 0.727 2.853 12.782
v -0.038 2.953 12.782
v 2.069 -2.043 -12.782
v 2.069 2.043 -12.782
v -2.018 2.043 -12.782
v -2.018 -2.043 -12.782
v 2.069 -2.043 12.782
v 0.026 -2.043 12.782
v 2.069 0.000 12.782
v -2.018 -2.043 12.782
v 2.069 2.043 12.782
v -2.018 2.043 12.782
v 0.026 2.043 12.782
v -2.018 0.000 12.782
v 0.026 2.043 0.800
v 0.233 2.043 0.773
v 0.426 2.043 0.693
v 0.591 2.043 0.566
v 0.718 2.043 0.400
v 0.798 2.043 0.207
v 0.826 2.043 0.000
v 0.233 2.043 -0.773
v 0.026 2.043 -0.800
v 0.426 2.043 -0.693
v 0.591 2.043 -0.566
v 0.718 2.043 -0.400
v 0.798 2.043 -0.207
v -0.774 2.043 0.000
v -0.747 2.043 0.207
v -0.667 2.043 0.400
v -0.540 2.043 0.566
v -0.374 2.043 0.693
v -0.182 2.043 0.773
v -0.747 2.043 -0.207
v -0.667 2.043 -0.400
v -0.540 2.043 -0.566
v -0.374 2.043 -0.693
v -0.182 2.043 -0.773
v -0.374 3.043 0.693
v -0.361 3.043 0.104
v -0.374 3.043 0.000
v -0.182 3.043 0.773
v -0.321 3.043 0.200
v -0.257 3.043 0.283
v -0.174 3.043 0.346
v 0.026 3.043 0.800
v -0.078 3.043 0.386
v 0.026 3.043 0.400
v 0.233 3.043 0.773
v 0.129 3.043 0.386
v 0.226 3.043 0.346
v 0.308 3.043 0.283
v 0.426 3.043 0.693
v 0.372 3.043 0.200
v 0.412 3.043 0.104
v 0.426 3.043 0.000
v 0.426 3.043 -0.693
v 0.591 3.043 -0.566
v 0.591 3.043 0.566
v 0.718 3.043 0.400
v 0.718 3.043 -0.400
v 0.798 3.043 0.207
v 0.798 3.043 -0.207
v 0.826 3.043 0.000
v -0.747 3.043 0.207
v -0.747 3.043 -0.207
v -0.774 3.043 0.000
v -0.667 3.043 0.400
v -0.667 3.043 -0.400
v -0.540 3.043 0.566
v -0.540 3.043 -0.566
v -0.374 3.043 -0.693
v -0.361 3.043 -0.104
v -0.182 3.043 -0.773
v -0.321 3.043 -0.200
v -0.257 3.043 -0.283
v -0.174 3.043 -0.346
v 0.026 3.043 -0.800
v -0.078 3.043 -0.386
v 0.026 3.043 -0.400
v 0.129 3.043 -0.386
v 0.233 3.043 -0.773
v 0.226 3.043 -0.346
v 0.308 3.043 -0.283
v 0.372 3.043 -0.200
v 0.412 3.043 -0.104
v -0.361 2.043 0.104
v -0.361 2.043 -0.104
v -0.374 2.043 0.000
v -0.321 2.043 0.200
v -0.321 2.043 -0.200
v -0.257 2.043 0.283
v -0.257 2.043 -0.283
v -0.174 2.043 0.346
v -0.174 2.043 -0.346
v -0.078 2.043 0.386
v -0.078 2.043 -0.386
v 0.026 2.043 0.400
v 0.026 2.043 -0.400
v 0.129 2.043 0.386
v 0.129 2.043 -0.386
v 0.226 2.043 0.346
v 0.226 2.043 -0.346
v 0.308 2.043 0.283
v 0.308 2.043 -0.283
v 0.372 2.043 0.200
v 0.372 2.043 -0.200
v 0.412 2.043 0.104
v 0.412 2.043 -0.104
v 0.426 2.043 0.000
f 1 2 3
f 2 1 4
f 5 6 7
f 6 5 8
f 9 10 11
f 10 9 12
f 13 14 15
f 14 13 16
f 17 18 19
f 18 17 20
f 21 20 17
f 20 21 22
f 23 24 25
f 24 23 26
f 26 23 27
f 26 27 28
f 26 28 29
f 4 25 2
f 25 4 23
f 23 4 27
f 27 4 28
f 28 4 29
f 30 31 32
f 31 30 33
f 33 30 34
f 33 34 35
f 33 35 36
f 7 37 38
f 37 7 6
f 39 40 41
f 40 39 42
f 43 32 44
f 32 43 30
f 30 43 34
f 34 43 35
f 35 43 36
f 38 45 46
f 45 38 37
f 19 12 9
f 12 19 18
f 26 47 24
f 47 26 48
f 49 40 50
f 40 49 41
f 46 51 52
f 51 46 45
f 52 42 39
f 42 52 51
f 5 3 8
f 3 5 1
f 53 44 54
f 44 53 43
f 33 50 31
f 50 33 49
f 48 21 47
f 21 48 22
f 14 54 15
f 54 14 53
f 11 16 13
f 16 11 10
f 55 56 57
f 56 55 58
f 56 58 59
f 59 58 60
f 59 60 12
f 12 60 10
f 10 60 16
f 16 60 61
f 16 61 14
f 14 61 53
f 53 61 62
f 53 62 43
f 43 62 63
f 43 63 36
f 36 63 64
f 36 64 33
f 33 64 49
f 49 64 65
f 49 65 41
f 41 65 66
f 41 66 39
f 39 66 52
f 52 66 67
f 52 67 46
f 12 68 59
f 68 12 18
f 68 18 20
f 68 20 69
f 69 20 22
f 69 22 48
f 69 48 70
f 70 48 26
f 70 26 71
f 71 26 29
f 71 29 4
f 71 4 72
f 72 4 1
f 72 1 73
f 73 1 5
f 73 5 74
f 74 5 7
f 74 7 38
f 74 38 75
f 75 38 46
f 75 46 67
f 75 67 76
f 75 76 77
f 77 76 78
f 57 79 55
f 79 57 80
f 56 80 57
f 80 56 81
f 59 81 56
f 81 59 82
f 68 82 59
f 82 68 83
f 68 84 83
f 84 68 69
f 69 85 84
f 85 69 70
f 70 86 85
f 86 70 87
f 87 70 88
f 88 70 89
f 89 70 71
f 87 90 86
f 90 87 72
f 72 87 88
f 72 88 89
f 72 89 71
f 72 91 90
f 91 72 73
f 73 92 91
f 92 73 74
f 92 75 93
f 75 92 74
f 93 77 94
f 77 93 75
f 94 78 95
f 78 94 77
f 95 76 96
f 76 95 78
f 96 67 97
f 67 96 76
f 97 66 98
f 66 97 67
f 66 99 98
f 99 66 65
f 65 100 99
f 100 65 64
f 64 101 100
f 101 64 102
f 102 64 103
f 103 64 104
f 104 64 63
f 102 105 101
f 105 102 62
f 62 102 103
f 62 103 104
f 62 104 63
f 62 106 105
f 106 62 61
f 61 107 106
f 107 61 60
f 58 107 60
f 107 58 108
f 55 108 58
f 108 55 79
f 109 110 111
f 110 109 112
f 110 112 113
f 113 112 114
f 114 112 115
f 115 112 116
f 115 116 117
f 117 116 118
f 118 116 119
f 118 119 120
f 120 119 121
f 120 121 122
f 122 121 123
f 122 123 124
f 124 123 125
f 124 125 126
f 126 125 127
f 127 125 128
f 127 128 129
f 129 128 130
f 129 130 131
f 131 130 132
f 131 132 133
f 133 132 134
f 113 135 136
f 135 113 114
f 136 135 137
f 136 137 138
f 136 138 139
f 139 138 140
f 139 140 141
f 141 140 142
f 141 142 143
f 143 142 144
f 143 144 145
f 143 145 146
f 146 145 147
f 146 147 148
f 148 147 149
f 148 149 150
f 150 149 151
f 150 151 152
f 152 151 153
f 152 153 134
f 152 134 132
f 152 132 154
f 152 154 155
f 155 154 156
f 157 158 159
f 158 157 160
f 158 160 161
f 161 160 162
f 162 160 163
f 163 160 164
f 163 164 165
f 165 164 166
f 165 166 167
f 167 166 168
f 168 166 169
f 168 169 170
f 170 169 171
f 170 171 172
f 172 171 173
f 172 173 174
f 174 173 175
f 175 173 176
f 175 176 177
f 177 176 178
f 177 178 179
f 179 178 180
f 180 178 181
f 180 181 182
f 161 183 184
f 183 161 162
f 184 183 185
f 184 185 186
f 186 185 187
f 186 187 188
f 186 188 189
f 189 188 190
f 189 190 191
f 191 190 192
f 191 192 193
f 191 193 194
f 194 193 195
f 194 195 196
f 196 195 197
f 196 197 198
f 198 197 199
f 198 199 200
f 198 200 201
f 201 200 182
f 201 182 181
f 201 181 202
f 201 202 203
f 203 202 204
f 125 205 206
f 205 125 123
f 128 206 207
f 206 128 125
f 130 207 208
f 207 130 128
f 209 130 208
f 130 209 132
f 210 132 209
f 132 210 154
f 211 154 210
f 154 211 156
f 212 156 211
f 156 212 155
f 213 155 212
f 155 213 152
f 214 152 213
f 152 214 150
f 148 214 215
f 214 148 150
f 146 215 216
f 215 146 148
f 143 216 217
f 216 143 146
f 141 217 218
f 217 141 143
f 139 218 219
f 218 139 141
f 136 219 220
f 219 136 139
f 136 221 113
f 221 136 220
f 113 222 110
f 222 113 221
f 110 223 111
f 223 110 222
f 111 224 109
f 224 111 223
f 109 225 112
f 225 109 224
f 112 226 116
f 226 112 225
f 119 226 227
f 226 119 116
f 121 227 228
f 227 121 119
f 123 228 205
f 228 123 121
f 229 173 171
f 173 229 230
f 230 176 173
f 176 230 231
f 231 178 176
f 178 231 232
f 178 233 181
f 233 178 232
f 181 234 202
f 234 181 233
f 202 235 204
f 235 202 234
f 204 236 203
f 236 204 235
f 203 237 201
f 237 203 236
f 201 238 198
f 238 201 237
f 238 196 198
f 196 238 239
f 239 194 196
f 194 239 240
f 240 191 194
f 191 240 241
f 241 189 191
f 189 241 242
f 242 186 189
f 186 242 243
f 243 184 186
f 184 243 244
f 245 184 244
f 184 245 161
f 246 161 245
f 161 246 158
f 247 158 246
f 158 247 159
f 248 159 247
f 159 248 157
f 249 157 248
f 157 249 160
f 250 160 249
f 160 250 164
f 250 166 164
f 166 250 251
f 251 169 166
f 169 251 252
f 252 171 169
f 171 252 229
f 253 115 254
f 115 253 114
f 114 253 255
f 254 117 256
f 117 254 115
f 256 118 257
f 118 256 117
f 118 258 257
f 258 118 120
f 120 259 258
f 259 120 122
f 259 260 261
f 260 259 122
f 260 122 124
f 260 262 261
f 262 260 126
f 126 260 124
f 126 263 262
f 263 126 127
f 127 264 263
f 264 127 129
f 131 264 129
f 264 131 265
f 133 265 131
f 265 133 266
f 134 266 133
f 266 134 267
f 267 134 268
f 153 268 134
f 268 153 267
f 267 153 269
f 151 269 153
f 269 151 270
f 149 270 151
f 270 149 271
f 149 272 271
f 272 149 147
f 147 273 272
f 273 147 145
f 145 274 273
f 274 145 275
f 275 145 144
f 275 276 274
f 276 275 142
f 142 275 144
f 142 277 276
f 277 142 140
f 140 278 277
f 278 140 138
f 278 137 279
f 137 278 138
f 279 135 280
f 135 279 137
f 280 255 253
f 255 280 114
f 114 280 135
f 183 281 185
f 281 183 282
f 162 282 183
f 282 162 283
f 163 283 162
f 283 163 284
f 165 284 163
f 284 165 285
f 167 285 165
f 285 167 286
f 287 167 168
f 167 287 286
f 288 168 170
f 168 288 287
f 289 170 172
f 170 289 288
f 290 172 174
f 172 290 289
f 291 174 175
f 174 291 290
f 292 175 177
f 175 292 291
f 292 179 293
f 179 292 177
f 293 180 294
f 180 293 179
f 294 182 295
f 182 294 180
f 295 200 296
f 200 295 182
f 296 199 297
f 199 296 200
f 297 197 298
f 197 297 199
f 299 197 195
f 197 299 298
f 300 195 193
f 195 300 299
f 301 193 192
f 193 301 302
f 300 193 302
f 303 192 190
f 192 303 304
f 301 192 304
f 305 190 188
f 190 305 303
f 306 188 187
f 188 306 305
f 185 306 187
f 306 185 281
f 307 308 309
f 308 307 310
f 308 310 311
f 311 310 223
f 223 310 224
f 224 310 312
f 224 312 225
f 225 312 226
f 226 312 313
f 226 313 227
f 227 313 314
f 227 314 228
f 228 314 315
f 228 315 205
f 205 315 316
f 205 316 206
f 206 316 207
f 207 316 317
f 207 317 208
f 208 317 318
f 208 318 209
f 209 318 319
f 209 319 210
f 210 319 211
f 311 222 320
f 222 311 223
f 320 222 221
f 320 221 220
f 320 220 321
f 321 220 219
f 321 219 322
f 322 219 218
f 322 218 323
f 323 218 217
f 323 217 216
f 323 216 324
f 324 216 215
f 324 215 325
f 325 215 214
f 325 214 326
f 326 214 213
f 326 213 327
f 327 213 212
f 327 212 211
f 327 211 319
f 327 319 328
f 327 328 329
f 329 328 330
f 314 331 332
f 331 314 313
f 313 333 331
f 333 313 312
f 310 333 312
f 333 310 334
f 307 334 310
f 334 307 335
f 309 335 307
f 335 309 336
f 308 336 309
f 336 308 337
f 311 337 308
f 337 311 338
f 320 338 311
f 338 320 339
f 320 340 339
f 340 320 321
f 321 341 340
f 341 321 322
f 322 342 341
f 342 322 323
f 323 343 342
f 343 323 324
f 324 344 343
f 344 324 325
f 325 345 344
f 345 325 326
f 345 327 346
f 327 345 326
f 346 329 347
f 329 346 327
f 347 330 348
f 330 347 329
f 348 328 349
f 328 348 330
f 349 319 350
f 319 349 328
f 350 318 351
f 318 350 319
f 318 352 351
f 352 318 317
f 317 353 352
f 353 317 316
f 316 354 353
f 354 316 315
f 315 332 354
f 332 315 314
f 355 356 357
f 356 355 358
f 356 358 359
f 359 358 247
f 247 358 248
f 248 358 360
f 248 360 249
f 249 360 250
f 250 360 361
f 250 361 251
f 251 361 362
f 251 362 252
f 252 362 363
f 252 363 229
f 229 363 364
f 229 364 230
f 230 364 231
f 231 364 365
f 231 365 232
f 232 365 366
f 232 366 233
f 233 366 367
f 233 367 234
f 234 367 235
f 359 246 368
f 246 359 247
f 368 246 245
f 368 245 244
f 368 244 369
f 369 244 243
f 369 243 370
f 370 243 242
f 370 242 371
f 371 242 241
f 371 241 240
f 371 240 372
f 372 240 239
f 372 239 373
f 373 239 238
f 373 238 374
f 374 238 237
f 374 237 375
f 375 237 236
f 375 236 235
f 375 235 367
f 375 367 376
f 375 376 377
f 377 376 378
f 379 380 381
f 380 379 382
f 380 382 383
f 383 382 384
f 383 384 385
f 385 384 283
f 283 384 282
f 282 384 386
f 282 386 281
f 281 386 306
f 306 386 387
f 306 387 305
f 305 387 303
f 303 387 388
f 303 388 304
f 304 388 301
f 301 388 389
f 301 389 302
f 302 389 300
f 300 389 299
f 299 389 390
f 299 390 298
f 298 390 297
f 297 390 391
f 297 391 296
f 296 391 295
f 385 284 392
f 284 385 283
f 392 284 285
f 392 285 286
f 392 286 393
f 393 286 287
f 393 287 288
f 393 288 394
f 394 288 289
f 394 289 290
f 394 290 395
f 395 290 291
f 395 291 396
f 396 291 292
f 396 292 293
f 396 293 397
f 397 293 294
f 397 294 295
f 397 295 391
f 397 391 398
f 397 398 399
f 399 398 400
f 399 400 401
f 401 400 402
f 390 372 373
f 372 390 389
f 391 373 374
f 373 391 390
f 375 391 374
f 391 375 398
f 377 398 375
f 398 377 400
f 378 400 377
f 400 378 402
f 376 402 378
f 402 376 401
f 367 401 376
f 401 367 399
f 366 399 367
f 399 366 397
f 396 366 365
f 366 396 397
f 395 365 364
f 365 395 396
f 394 364 363
f 364 394 395
f 393 363 362
f 363 393 394
f 392 362 361
f 362 392 393
f 385 361 360
f 361 385 392
f 385 358 383
f 358 385 360
f 383 355 380
f 355 383 358
f 380 357 381
f 357 380 355
f 381 356 379
f 356 381 357
f 379 359 382
f 359 379 356
f 382 368 384
f 368 382 359
f 386 368 369
f 368 386 384
f 387 369 370
f 369 387 386
f 388 370 371
f 370 388 387
f 389 371 372
f 371 389 388
f 337 335 336
f 335 337 338
f 335 338 334
f 334 338 339
f 334 339 333
f 333 339 403
f 403 339 340
f 403 340 275
f 275 340 341
f 275 341 342
f 275 342 343
f 275 343 404
f 404 343 344
f 404 344 345
f 404 345 268
f 268 345 405
f 333 406 331
f 406 333 403
f 406 403 255
f 331 406 260
f 331 260 332
f 332 260 354
f 354 260 405
f 354 405 353
f 353 405 352
f 352 405 351
f 351 405 345
f 351 345 346
f 351 346 350
f 350 346 347
f 350 347 349
f 349 347 348
f 407 284 408
f 284 407 285
f 285 407 286
f 286 407 287
f 287 407 288
f 288 407 409
f 408 284 283
f 408 283 410
f 288 409 289
f 289 409 290
f 290 409 411
f 290 411 291
f 291 411 292
f 292 411 293
f 293 411 294
f 294 411 295
f 300 412 302
f 412 300 299
f 412 299 298
f 412 298 297
f 412 297 296
f 412 296 295
f 412 295 411
f 412 411 413
f 410 303 304
f 303 410 305
f 305 410 306
f 306 410 281
f 281 410 282
f 282 410 283
f 261 304 414
f 304 406 410
f 406 304 261
f 406 261 260
f 255 410 406
f 410 255 408
f 408 255 253
f 408 253 87
f 408 87 23
f 408 23 30
f 408 30 102
f 403 253 255
f 253 403 87
f 87 403 23
f 23 403 30
f 30 403 102
f 102 403 408
f 408 403 407
f 403 409 407
f 409 403 274
f 274 403 275
f 274 411 409
f 411 274 404
f 404 274 275
f 411 415 413
f 415 411 416
f 416 411 417
f 417 411 418
f 418 411 419
f 419 411 420
f 420 411 421
f 422 104 423
f 104 422 35
f 35 422 28
f 28 422 89
f 89 422 267
f 267 422 268
f 268 422 404
f 404 422 424
f 404 424 425
f 404 425 426
f 404 426 427
f 404 427 421
f 404 421 411
f 413 405 412
f 405 413 428
f 428 413 429
f 429 413 430
f 430 413 431
f 431 413 432
f 432 413 433
f 433 413 415
f 428 268 405
f 268 428 434
f 268 434 435
f 268 435 436
f 268 436 437
f 268 437 438
f 268 438 423
f 268 423 104
f 268 104 35
f 268 35 28
f 268 28 89
f 268 89 267
f 405 302 412
f 302 405 261
f 261 405 260
f 261 414 302
f 284 282 283
f 282 284 285
f 282 285 281
f 281 285 286
f 281 286 306
f 306 286 287
f 306 287 305
f 305 287 288
f 305 288 303
f 303 288 289
f 303 289 304
f 304 289 414
f 414 289 290
f 414 290 302
f 302 290 300
f 300 290 291
f 300 291 299
f 299 291 292
f 299 292 298
f 298 292 293
f 298 293 297
f 297 293 294
f 297 294 296
f 296 294 295
f 439 440 441
f 440 439 442
f 440 442 443
f 443 442 444
f 444 442 445
f 445 442 446
f 445 446 447
f 447 446 448
f 448 446 449
f 448 449 450
f 450 449 451
f 451 449 452
f 452 449 453
f 452 453 454
f 454 453 455
f 455 453 456
f 456 453 457
f 457 453 458
f 458 453 459
f 458 459 460
f 458 460 461
f 461 460 462
f 461 462 463
f 463 462 464
f 465 466 467
f 466 465 468
f 466 468 469
f 469 468 470
f 469 470 471
f 471 470 439
f 471 439 472
f 472 439 441
f 472 441 473
f 472 473 474
f 474 473 475
f 474 475 476
f 474 476 477
f 474 477 478
f 478 477 479
f 478 479 480
f 478 480 481
f 478 481 482
f 482 481 483
f 482 483 484
f 482 484 457
f 457 484 485
f 457 485 486
f 457 486 456
f 478 422 423
f 422 478 482
f 474 423 438
f 423 474 478
f 472 438 437
f 438 472 474
f 471 437 436
f 437 471 472
f 471 435 469
f 435 471 436
f 469 434 466
f 434 469 435
f 466 428 467
f 428 466 434
f 467 429 465
f 429 467 428
f 465 430 468
f 430 465 429
f 468 431 470
f 431 468 430
f 439 431 432
f 431 439 470
f 442 432 433
f 432 442 439
f 446 433 415
f 433 446 442
f 449 415 416
f 415 449 446
f 453 416 417
f 416 453 449
f 459 417 418
f 417 459 453
f 419 459 418
f 459 419 460
f 420 460 419
f 460 420 462
f 421 462 420
f 462 421 464
f 427 464 421
f 464 427 463
f 426 463 427
f 463 426 461
f 425 461 426
f 461 425 458
f 457 425 424
f 425 457 458
f 482 424 422
f 424 482 457
f 487 488 489
f 488 487 490
f 488 490 491
f 491 490 492
f 491 492 493
f 493 492 494
f 493 494 495
f 495 494 496
f 495 496 497
f 497 496 498
f 497 498 499
f 499 498 500
f 499 500 501
f 501 500 502
f 501 502 503
f 503 502 504
f 503 504 505
f 505 504 506
f 505 506 507
f 507 506 508
f 507 508 509
f 509 508 510
f 483 501 503
f 501 483 481
f 481 499 501
f 499 481 480
f 480 497 499
f 497 480 479
f 479 495 497
f 495 479 477
f 477 493 495
f 493 477 476
f 493 475 491
f 475 493 476
f 491 473 488
f 473 491 475
f 488 441 489
f 441 488 473
f 489 440 487
f 440 489 441
f 487 443 490
f 443 487 440
f 490 444 492
f 444 490 443
f 444 494 492
f 494 444 445
f 445 496 494
f 496 445 447
f 447 498 496
f 498 447 448
f 448 500 498
f 500 448 450
f 450 502 500
f 502 450 451
f 451 504 502
f 504 451 452
f 454 504 452
f 504 454 506
f 455 506 454
f 506 455 508
f 456 508 455
f 508 456 510
f 486 510 456
f 510 486 509
f 485 509 486
f 509 485 507
f 484 507 485
f 507 484 505
f 484 503 505
f 503 484 483
