# cadena-eslabones.obj (EXERSUITE3D, cm)
v 0.379 -0.521 -1.013
v 0.306 -0.711 -0.631
v 0.380 -0.613 -0.622
v 0.306 -0.612 -1.048
v 0.424 -0.186 -0.883
v 0.442 -0.378 -0.599
v 0.425 -0.256 -0.588
v 0.441 -0.300 -0.927
v 0.377 -0.081 -0.841
v 0.378 -0.143 -0.577
v 0.426 -0.414 -0.971
v 0.426 -0.500 -0.611
v -0.383 4.198 0.568
v -0.285 4.114 0.338
v -0.383 4.187 0.324
v -0.285 4.124 0.561
v -0.172 4.078 0.557
v -0.051 4.053 0.349
v -0.172 4.068 0.346
v -0.051 4.062 0.555
v 0.070 4.079 0.556
v 0.070 4.070 0.346
v 0.182 4.127 0.561
v 0.182 4.117 0.338
v 0.279 4.202 0.568
v 0.279 4.191 0.324
v 0.352 4.288 0.306
v 0.352 4.300 0.577
v 0.398 4.400 0.285
v 0.398 4.413 0.588
v -0.458 4.295 0.577
v -0.505 4.395 0.286
v -0.505 4.408 0.588
v -0.458 4.283 0.306
v 0.414 4.520 0.263
v 0.414 4.535 0.599
v -0.522 4.515 0.263
v -0.522 4.530 0.599
v 0.397 4.640 0.240
v 0.397 4.657 0.610
v -0.506 4.635 0.241
v -0.506 4.652 0.611
v -0.460 4.747 0.220
v -0.460 4.765 0.622
v -0.057 4.982 0.177
v -0.177 4.818 -0.259
v -0.056 4.833 -0.266
v -0.178 4.965 0.180
v -0.290 4.918 0.188
v -0.386 4.708 -0.205
v -0.290 4.775 -0.238
v -0.387 4.844 0.202
v -0.505 4.299 -0.002
v -0.457 4.197 0.049
v 0.275 4.847 0.202
v 0.350 4.770 0.621
v 0.275 4.867 0.630
v 0.350 4.752 0.220
v -0.051 3.988 0.154
v -0.172 4.002 0.147
v 0.353 4.202 0.049
v 0.279 4.114 0.092
v 0.070 4.003 0.147
v 0.182 4.046 0.126
v -0.460 4.620 -0.161
v 0.178 4.941 0.637
v 0.177 4.921 0.188
v -0.506 4.517 -0.110
v -0.521 4.408 -0.056
v -0.382 4.110 0.093
v -0.285 4.043 0.126
v 0.399 4.304 -0.002
v 0.064 4.987 0.642
v 0.064 4.966 0.180
v -0.057 5.003 0.643
v 0.350 4.624 -0.162
v 0.397 4.523 -0.111
v 0.275 4.711 -0.205
v 0.178 4.778 -0.238
v 0.414 4.413 -0.056
v 0.065 4.820 -0.259
v -0.176 4.557 -0.641
v -0.288 4.521 -0.609
v -0.285 3.917 -0.058
v -0.382 3.972 -0.109
v -0.505 4.308 -0.416
v -0.520 4.218 -0.334
v 0.415 4.223 -0.334
v 0.400 4.133 -0.252
v -0.055 4.569 -0.652
v 0.399 4.313 -0.417
v 0.071 3.884 -0.027
v 0.183 3.920 -0.059
v 0.351 4.397 -0.493
v 0.277 4.469 -0.559
v -0.504 4.128 -0.251
v 0.353 4.048 -0.175
v 0.280 3.976 -0.109
v -0.385 4.465 -0.559
v -0.459 4.393 -0.493
v -0.456 4.044 -0.175
v -0.050 3.871 -0.016
v -0.172 3.883 -0.027
v 0.179 4.524 -0.610
v 0.066 4.558 -0.641
v -0.053 4.210 -0.951
v -0.174 4.201 -0.937
v -0.383 4.135 -0.833
v -0.457 4.083 -0.750
v -0.503 4.023 -0.653
v -0.502 3.895 -0.445
v -0.455 3.835 -0.348
v -0.381 3.784 -0.265
v -0.286 4.175 -0.897
v -0.519 3.959 -0.549
v -0.284 3.745 -0.201
v -0.171 3.721 -0.161
v -0.050 3.713 -0.147
v 0.071 3.722 -0.161
v 0.184 3.748 -0.201
v 0.281 3.788 -0.265
v 0.355 3.840 -0.348
v 0.416 3.964 -0.549
v 0.401 3.900 -0.445
v 0.181 4.178 -0.897
v 0.068 4.202 -0.937
v 0.353 4.088 -0.750
v 0.400 4.028 -0.653
v 0.278 4.139 -0.833
v -0.050 3.782 -1.139
v -0.171 3.775 -1.124
v -0.284 3.757 -1.081
v -0.379 3.474 -0.401
v -0.282 3.446 -0.333
v -0.455 3.690 -0.923
v -0.501 3.647 -0.819
v 0.418 3.606 -0.707
v 0.403 3.559 -0.595
v 0.355 3.695 -0.923
v 0.402 3.652 -0.819
v 0.281 3.732 -1.013
v -0.517 3.600 -0.707
v -0.501 3.554 -0.595
v -0.454 3.511 -0.491
v 0.071 3.777 -1.124
v 0.073 3.431 -0.290
v 0.186 3.449 -0.333
v 0.356 3.516 -0.491
v -0.169 3.429 -0.290
v -0.165 2.680 -1.551
v -0.278 2.662 -1.508
v 0.282 3.478 -0.402
v 0.184 3.760 -1.081
v -0.048 3.424 -0.275
v -0.044 2.686 -1.566
v -0.375 2.634 -1.438
v -0.381 3.728 -1.012
v -0.449 2.599 -1.348
v -0.495 2.558 -1.243
v -0.163 2.352 -0.709
v -0.276 2.368 -0.753
v -0.042 2.347 -0.695
v 0.079 2.353 -0.710
v 0.288 2.398 -0.822
v 0.192 2.371 -0.753
v -0.511 2.514 -1.130
v -0.494 2.470 -1.017
v 0.362 2.434 -0.913
v 0.424 2.519 -1.131
v 0.409 2.475 -1.018
v 0.408 2.563 -1.243
v 0.361 2.604 -1.348
v 0.287 2.638 -1.439
v -0.447 2.429 -0.912
v -0.373 2.394 -0.822
v 0.190 2.665 -1.508
v 0.077 2.681 -1.551
v 0.414 4.458 0.927
v 0.399 4.390 1.294
v 0.398 4.571 0.971
v 0.415 4.293 1.220
v -0.056 4.895 1.098
v -0.178 4.986 0.642
v -0.177 4.879 1.092
v -0.382 4.142 0.806
v -0.457 4.233 0.841
v 0.399 4.344 0.882
v 0.400 4.196 1.146
v -0.506 4.566 0.971
v -0.460 4.672 1.013
v 0.067 4.654 1.496
v 0.065 4.881 1.092
v -0.054 4.667 1.506
v -0.521 4.452 0.927
v -0.050 3.914 0.935
v 0.070 4.031 0.761
v -0.051 4.015 0.755
v 0.071 3.928 0.945
v 0.352 4.481 1.363
v 0.350 4.677 1.012
v 0.183 4.075 0.778
v 0.280 4.026 1.018
v 0.279 4.146 0.805
v 0.183 3.966 0.973
v -0.290 4.938 0.638
v -0.289 4.835 1.075
v 0.354 4.105 1.078
v 0.353 4.237 0.841
v 0.276 4.768 1.048
v 0.180 4.618 1.468
v 0.178 4.837 1.075
v 0.277 4.558 1.422
v -0.386 4.863 0.631
v -0.386 4.764 1.048
v -0.504 4.338 0.883
v -0.172 4.029 0.761
v -0.171 3.926 0.945
v -0.284 3.963 0.973
v -0.285 4.072 0.778
v 0.092 0.074 -0.557
v -0.029 0.099 -0.349
v -0.029 0.090 -0.555
v 0.092 0.074 -0.540
v 0.092 0.080 -0.418
v 0.092 0.084 -0.346
v -0.150 0.073 -0.556
v -0.150 0.082 -0.346
v -0.262 0.025 -0.561
v -0.262 0.035 -0.338
v 0.303 -0.046 -0.568
v 0.378 -0.131 -0.306
v 0.303 -0.035 -0.324
v 0.205 0.038 -0.338
v 0.205 0.028 -0.561
v -0.478 -0.248 -0.285
v -0.432 -0.148 -0.577
v -0.432 -0.136 -0.306
v -0.478 -0.262 -0.588
v -0.359 -0.050 -0.568
v -0.359 -0.039 -0.324
v -0.494 -0.368 -0.263
v -0.494 -0.383 -0.599
v -0.477 -0.488 -0.240
v -0.477 -0.505 -0.610
v 0.097 -0.727 -1.092
v 0.210 -0.786 -0.638
v 0.209 -0.683 -1.075
v 0.098 -0.834 -0.642
v -0.355 -0.696 -0.202
v -0.430 -0.618 -0.621
v -0.430 -0.600 -0.220
v -0.355 -0.715 -0.630
v -0.144 -0.815 -0.180
v -0.023 -0.851 -0.643
v -0.145 -0.835 -0.642
v -0.023 -0.830 -0.177
v -0.258 -0.789 -0.637
v -0.257 -0.769 -0.188
v -0.024 -0.743 -1.098
v 0.092 0.123 -0.761
v -0.029 0.137 -0.755
v 0.092 0.098 -0.659
v 0.423 -0.039 -1.147
v 0.376 0.052 -1.078
v 0.440 -0.136 -1.221
v 0.304 -0.403 -1.422
v 0.378 -0.324 -1.363
v 0.302 0.010 -0.806
v 0.204 0.189 -0.973
v 0.301 0.129 -1.019
v 0.205 0.079 -0.778
v -0.263 0.186 -0.973
v -0.359 0.006 -0.805
v -0.360 0.126 -1.018
v -0.263 0.077 -0.778
v -0.030 0.238 -0.935
v 0.091 0.225 -0.945
v -0.479 -0.192 -0.882
v -0.495 -0.141 -1.220
v -0.480 -0.044 -1.146
v -0.494 -0.306 -0.927
v -0.479 -0.239 -1.294
v -0.478 -0.419 -0.971
v -0.432 -0.329 -1.363
v -0.430 -0.525 -1.012
v -0.433 -0.085 -0.841
v -0.434 0.047 -1.078
v -0.357 -0.406 -1.422
v -0.356 -0.616 -1.048
v -0.258 -0.685 -1.075
v -0.260 -0.466 -1.468
v -0.145 -0.729 -1.092
v -0.147 -0.503 -1.496
v -0.026 -0.515 -1.506
v 0.095 -0.501 -1.496
v 0.206 -0.144 -1.785
v 0.093 -0.173 -1.823
v 0.208 -0.463 -1.468
v -0.151 0.224 -0.945
v -0.150 0.121 -0.761
v 0.302 -0.098 -1.725
v -0.028 -0.183 -1.835
v 0.421 0.505 0.819
v 0.369 1.553 1.348
v 0.415 1.594 1.243
v 0.375 0.462 0.923
v 0.091 0.376 1.124
v -0.036 1.466 1.566
v 0.085 1.472 1.551
v -0.030 0.370 1.139
v 0.376 -0.039 -1.647
v 0.198 1.490 1.508
v 0.204 0.395 1.081
v 0.295 1.517 1.438
v 0.301 0.424 1.012
v 0.196 1.784 0.753
v 0.299 0.678 0.401
v 0.293 1.758 0.822
v 0.202 0.705 0.333
v 0.431 1.638 1.130
v 0.437 0.552 0.707
v 0.374 0.641 0.491
v 0.414 1.682 1.017
v 0.367 1.723 0.912
v 0.421 0.598 0.595
v 0.089 0.723 0.290
v 0.083 1.800 0.709
v -0.038 1.805 0.695
v -0.153 0.721 0.290
v -0.032 0.728 0.275
v -0.159 1.799 0.710
v -0.272 1.781 0.753
v -0.266 0.703 0.333
v -0.442 1.718 0.913
v -0.362 0.674 0.402
v -0.368 1.754 0.822
v -0.436 0.636 0.491
v -0.361 0.420 1.013
v -0.441 1.548 1.348
v -0.367 1.514 1.439
v -0.435 0.457 0.923
v -0.151 0.430 0.161
v -0.264 0.404 0.201
v -0.361 0.364 0.265
v -0.151 0.375 1.124
v -0.157 1.471 1.551
v 0.206 -0.023 0.897
v 0.094 -0.049 0.937
v -0.270 1.487 1.508
v -0.264 0.392 1.081
v 0.439 0.193 0.549
v 0.423 0.129 0.653
v -0.027 -0.058 0.951
v 0.422 0.257 0.445
v -0.483 0.593 0.595
v -0.489 1.677 1.018
v -0.505 1.633 1.131
v -0.498 0.546 0.707
v 0.377 0.069 0.750
v 0.303 0.017 0.833
v 0.301 0.368 0.265
v 0.375 0.317 0.348
v 0.204 0.407 0.201
v 0.091 0.431 0.161
v -0.482 0.500 0.819
v -0.488 1.589 1.243
v 0.096 -0.405 0.641
v -0.025 -0.417 0.652
v -0.433 0.064 0.750
v -0.358 0.013 0.833
v -0.496 0.188 0.549
v -0.480 0.124 0.653
v -0.261 -0.026 0.897
v -0.481 0.252 0.445
v -0.435 0.312 0.348
v -0.030 0.439 0.147
v -0.148 -0.050 0.937
v -0.030 0.280 0.016
v -0.151 0.268 0.027
v 0.208 -0.369 0.609
v 0.302 0.180 0.109
v 0.376 0.108 0.175
v 0.425 -0.156 0.416
v 0.379 -0.241 0.493
v -0.263 0.232 0.059
v 0.204 0.235 0.058
v 0.091 0.269 0.027
v -0.360 0.176 0.109
v 0.440 -0.066 0.334
v 0.424 0.024 0.251
v 0.305 -0.313 0.559
v -0.146 -0.406 0.641
v -0.259 -0.372 0.610
v 0.210 -0.623 0.238
v 0.306 -0.556 0.205
v 0.426 -0.365 0.110
v 0.380 -0.468 0.161
v -0.479 -0.161 0.417
v -0.431 -0.245 0.493
v -0.495 -0.071 0.334
v -0.357 -0.317 0.559
v -0.434 0.104 0.175
v -0.029 0.164 -0.154
v -0.150 0.149 -0.147
v -0.480 0.019 0.252
v 0.441 -0.256 0.056
v 0.092 0.150 -0.147
v 0.097 -0.666 0.259
v -0.024 -0.681 0.266
v -0.262 0.106 -0.126
v 0.377 -0.045 -0.049
v 0.425 -0.147 0.002
v -0.359 0.038 -0.092
v -0.433 -0.050 -0.049
v -0.479 -0.152 0.002
v -0.430 -0.472 0.162
v -0.355 -0.560 0.205
v -0.258 -0.626 0.238
v -0.494 -0.261 0.056
v -0.478 -0.371 0.111
v 0.098 -0.813 -0.180
v 0.210 -0.766 -0.188
v -0.145 -0.668 0.259
v 0.380 -0.595 -0.220
v 0.307 -0.692 -0.202
v 0.302 0.042 -0.093
v 0.205 0.109 -0.126
v 0.425 -0.243 -0.286
v 0.442 -0.363 -0.263
v 0.426 -0.483 -0.241
v -0.365 0.994 -1.352
v -0.270 1.289 -1.173
v -0.268 0.981 -1.278
v -0.367 1.314 -1.243
v -0.440 1.012 -1.448
v -0.488 1.385 -1.440
v -0.441 1.347 -1.334
v -0.486 1.033 -1.560
v -0.159 1.584 -1.978
v -0.269 1.134 -2.081
v -0.157 1.144 -2.128
v -0.272 1.567 -1.934
v -0.155 0.972 -1.232
v -0.036 1.269 -1.114
v -0.034 0.970 -1.216
v -0.157 1.274 -1.129
v 0.431 1.432 -1.554
v 0.417 1.038 -1.560
v 0.415 1.391 -1.440
v 0.433 1.061 -1.680
v -0.369 1.541 -1.864
v -0.366 1.120 -2.008
v 0.083 1.585 -1.978
v -0.038 1.590 -1.993
v 0.196 1.570 -1.934
v 0.293 1.545 -1.865
v 0.367 1.512 -1.774
v 0.087 0.974 -1.232
v 0.198 1.292 -1.173
v 0.199 0.983 -1.278
v 0.085 1.276 -1.129
v -0.503 1.056 -1.680
v -0.489 1.468 -1.667
v -0.505 1.427 -1.553
v -0.487 1.079 -1.800
v 0.370 1.105 -1.912
v 0.295 1.123 -2.008
v 0.198 1.137 -2.082
v 0.368 1.352 -1.334
v 0.296 0.998 -1.352
v 0.294 1.318 -1.243
v 0.370 1.017 -1.448
v 0.414 1.474 -1.668
v -0.456 4.100 1.078
v -0.381 4.023 1.019
v -0.443 1.507 -1.773
v -0.042 2.562 1.993
v -0.163 2.567 1.978
v -0.276 2.582 1.934
v -0.447 2.640 1.774
v -0.373 2.607 1.865
v -0.494 2.678 1.668
v 0.424 -0.233 -1.295
v -0.495 2.761 1.440
v -0.511 2.720 1.554
v -0.374 2.834 1.243
v -0.278 2.860 1.173
v -0.449 2.800 1.334
v -0.165 2.876 1.129
v -0.044 2.883 1.114
v 0.077 2.878 1.129
v 0.190 2.862 1.173
v 0.287 2.838 1.243
v 0.361 2.805 1.334
v 0.075 3.180 1.232
v 0.188 3.171 1.278
v 0.363 2.645 1.773
v 0.288 2.611 1.864
v 0.285 3.158 1.352
v 0.192 2.585 1.934
v 0.079 2.568 1.978
v -0.044 3.004 2.144
v -0.165 3.007 2.128
v -0.278 3.015 2.082
v -0.513 3.090 1.680
v -0.497 3.068 1.800
v -0.497 3.114 1.560
v 0.408 2.766 1.440
v -0.450 3.046 1.912
v -0.375 3.029 2.008
v -0.376 3.154 1.352
v -0.450 3.135 1.448
v -0.280 3.169 1.278
v 0.425 2.725 1.553
v -0.167 3.178 1.232
v -0.046 3.182 1.216
v 0.409 2.683 1.667
v 0.423 3.096 1.680
v 0.407 3.073 1.800
v 0.360 3.140 1.448
v 0.406 3.119 1.560
v 0.286 3.032 2.008
v 0.189 3.018 2.081
v 0.077 3.008 2.128
v -0.168 3.469 2.151
v -0.047 3.471 2.167
v 0.360 3.051 1.912
v 0.074 3.390 1.242
v -0.047 3.388 1.226
v -0.168 3.388 1.242
v -0.281 3.392 1.290
v 0.187 3.394 1.289
v 0.284 3.402 1.364
v -0.499 3.438 1.819
v -0.452 3.448 1.932
v -0.515 3.427 1.697
v -0.281 3.464 2.104
v -0.378 3.398 1.364
v -0.452 3.406 1.462
v -0.499 3.416 1.575
v -0.378 3.457 2.029
v 0.358 3.453 1.932
v 0.284 3.461 2.029
v 0.187 3.467 2.104
v 0.074 3.470 2.151
v 0.358 3.411 1.461
v 0.405 3.421 1.575
v 0.421 3.432 1.696
v 0.405 3.443 1.818
v -0.050 3.926 2.062
v -0.171 3.920 2.047
v -0.283 3.902 2.003
v -0.380 3.875 1.933
v -0.454 3.839 1.841
v -0.501 3.798 1.735
v -0.048 3.588 1.180
v -0.169 3.593 1.195
v 0.073 3.595 1.195
v -0.517 3.755 1.621
v -0.500 3.711 1.507
v -0.379 3.636 1.309
v -0.282 3.609 1.239
v 0.186 3.612 1.239
v 0.282 3.640 1.309
v -0.454 3.670 1.401
v 0.356 3.675 1.400
v 0.403 3.716 1.506
v 0.419 3.760 1.621
v 0.403 3.804 1.735
v 0.356 3.844 1.841
v 0.281 3.879 1.932
v 0.184 3.905 2.002
v 0.071 3.921 2.047
v -0.173 4.325 1.823
v -0.286 4.296 1.785
v -0.456 4.191 1.647
v -0.382 4.250 1.725
v -0.503 4.123 1.556
v -0.518 4.049 1.458
v -0.052 4.335 1.835
v -0.502 3.976 1.360
v -0.455 3.908 1.269
v -0.380 3.849 1.191
v -0.283 3.805 1.131
v -0.170 3.777 1.093
v -0.481 0.024 -1.555
v -0.497 0.097 -1.458
v 0.375 0.244 -1.269
v 0.300 0.302 -1.191
v -0.031 0.384 -1.080
v 0.090 0.375 -1.093
v 0.423 0.029 -1.556
v 0.438 0.103 -1.458
v -0.152 0.373 -1.093
v -0.481 0.171 -1.360
v -0.435 0.239 -1.269
v 0.422 0.176 -1.360
v 0.203 0.347 -1.131
v -0.049 3.768 1.080
v -0.264 0.344 -1.131
v -0.361 0.299 -1.191
v -0.359 -0.102 -1.725
v -0.434 -0.044 -1.646
v 0.072 3.779 1.093
v 0.184 3.808 1.131
v 0.281 3.853 1.191
v 0.355 3.912 1.269
v 0.401 3.981 1.360
v 0.091 0.232 -2.047
v -0.030 0.226 -2.062
v 0.300 0.277 -1.933
v 0.203 0.250 -2.003
v 0.420 0.441 -1.507
v 0.373 0.482 -1.401
v 0.417 4.055 1.458
v 0.354 4.196 1.646
v 0.279 4.254 1.725
v -0.032 0.564 -1.180
v 0.089 0.559 -1.195
v 0.401 4.128 1.555
v -0.436 0.477 -1.400
v -0.362 0.512 -1.309
v -0.153 0.557 -1.195
v 0.069 4.326 1.823
v 0.182 4.299 1.785
v 0.374 0.312 -1.841
v -0.266 0.540 -1.239
v 0.437 0.397 -1.621
v 0.202 0.542 -1.239
v 0.299 0.516 -1.309
v -0.483 0.436 -1.506
v -0.262 -0.147 -1.785
v -0.149 -0.174 -1.823
v -0.361 0.273 -1.932
v -0.264 0.247 -2.002
v -0.175 4.653 1.496
v 0.421 0.353 -1.735
v -0.436 0.308 -1.841
v -0.483 0.348 -1.735
v -0.499 0.392 -1.621
v -0.288 4.615 1.468
v -0.384 4.554 1.422
v -0.504 4.385 1.295
v -0.458 4.476 1.363
v -0.520 4.288 1.221
v -0.503 4.190 1.147
v -0.151 0.231 -2.047
v 0.201 0.760 -1.290
v 0.298 0.754 -1.364
v 0.419 0.714 -1.819
v 0.435 0.725 -1.697
v 0.088 0.683 -2.151
v 0.201 0.688 -2.104
v -0.033 0.681 -2.167
v -0.501 0.720 -1.696
v -0.485 0.731 -1.575
v -0.485 0.709 -1.818
v -0.267 0.757 -1.289
v -0.154 0.762 -1.242
v -0.438 0.699 -1.932
v 0.419 0.736 -1.575
v 0.298 0.695 -2.029
v 0.372 0.704 -1.932
v 0.372 0.746 -1.462
v -0.364 0.691 -2.029
v -0.438 0.741 -1.461
v -0.364 0.750 -1.364
v 0.088 0.764 -1.242
v -0.033 0.764 -1.226
v -0.154 0.681 -2.151
v 0.085 1.145 -2.128
v 0.417 1.084 -1.800
v -0.267 0.685 -2.104
v -0.036 1.147 -2.144
v -0.440 1.101 -1.911
v 0.017 -4.892 -0.615
v -0.382 -4.747 -0.529
v 0.016 -4.800 -0.533
v -0.408 -4.835 -0.610
v -0.319 -4.526 -0.448
v 0.014 -4.447 -0.457
v 0.015 -4.570 -0.452
v -0.286 -4.407 -0.454
v 0.014 -4.330 -0.495
v -0.255 -4.294 -0.492
v 0.016 -4.691 -0.477
v -0.351 -4.642 -0.473
v 0.209 0.139 -0.769
v 0.453 0.122 -0.868
v 0.229 0.219 -0.859
v 0.414 0.050 -0.776
v 0.505 0.145 -0.128
v 0.287 0.358 -0.063
v 0.564 0.238 -0.073
v 0.256 0.253 -0.119
v 0.196 0.085 -0.660
v 0.389 0.001 -0.667
v 0.563 0.312 -0.974
v 0.713 0.039 -0.949
v 0.797 0.120 -0.990
v 0.504 0.211 -0.935
v 0.587 -0.130 -0.322
v 0.389 -0.019 -0.426
v 0.414 0.012 -0.310
v 0.552 -0.152 -0.437
v 0.319 0.474 -0.038
v 0.628 0.340 -0.049
v 0.802 0.689 -0.821
v 1.061 0.358 -0.923
v 1.133 0.418 -0.844
v 0.751 0.612 -0.902
v 0.255 0.319 -0.926
v 0.381 -0.023 -0.548
v 0.552 -0.132 -0.678
v 0.540 -0.153 -0.559
v 0.841 0.745 -0.720
v 1.223 0.483 -0.628
v 0.866 0.776 -0.604
v 1.188 0.460 -0.743
v 0.197 0.065 -0.419
v 0.192 0.059 -0.541
v 0.454 0.068 -0.209
v 0.230 0.165 -0.200
v 0.641 -0.033 -0.881
v 0.977 0.285 -0.976
v 0.691 0.519 -0.957
v 0.887 0.204 -0.999
v 0.627 0.417 -0.981
v 0.642 -0.087 -0.221
v 0.714 -0.027 -0.142
v 0.586 -0.091 -0.788
v 0.802 0.635 -0.162
v 0.383 0.706 -0.082
v 0.409 0.806 -0.148
v 0.751 0.546 -0.095
v 0.352 0.593 -0.044
v 0.692 0.445 -0.056
v 0.209 0.101 -0.303
v 0.319 0.551 -0.970
v 0.286 0.432 -0.963
v 0.351 0.667 -0.944
v 0.382 0.772 -0.889
v 0.874 0.780 -0.482
v 1.235 0.484 -0.507
v 0.841 0.707 -0.254
v 0.429 0.886 -0.239
v 0.978 0.211 -0.076
v 1.062 0.292 -0.116
v 1.223 0.463 -0.387
v 0.866 0.756 -0.363
v 1.189 0.422 -0.277
v 0.798 0.046 -0.089
v 0.888 0.127 -0.067
v 0.780 -0.233 -0.897
v 0.713 -0.274 -0.803
v 1.134 0.364 -0.185
v 0.970 -0.202 -0.110
v 1.079 -0.149 -0.090
v 1.189 -0.093 -0.101
v 1.486 0.104 -0.660
v 1.444 0.092 -0.774
v 1.289 0.028 -0.951
v 1.377 0.066 -0.873
v 0.868 -0.183 -0.968
v 0.969 -0.128 -1.010
v 0.671 -0.305 -0.693
v 0.672 -0.325 -0.451
v 0.657 -0.322 -0.573
v 0.868 -0.249 -0.160
v 1.078 -0.072 -1.022
v 1.188 -0.019 -1.001
v 1.290 -0.038 -0.144
v 1.501 0.101 -0.539
v 0.714 -0.313 -0.337
v 1.378 0.012 -0.214
v 0.781 -0.287 -0.238
v 0.442 0.940 -0.347
v 0.446 0.966 -0.467
v 1.419 -0.417 -0.175
v 1.515 -0.393 -0.247
v 1.588 -0.333 -0.809
v 1.658 -0.796 -0.734
v 1.635 -0.333 -0.696
v 1.611 -0.788 -0.846
v 0.956 -0.505 -0.182
v 1.067 -0.488 -0.133
v 1.307 -0.368 -1.030
v 1.419 -0.351 -0.982
v 0.723 -0.516 -0.589
v 0.739 -0.503 -0.709
v 0.955 -0.439 -0.989
v 1.067 -0.414 -1.034
v 1.187 -0.390 -1.048
v 0.785 -0.485 -0.821
v 0.801 -0.810 -0.847
v 0.859 -0.463 -0.916
v 0.875 -0.800 -0.944
v 1.327 -0.778 -1.064
v 1.440 -0.779 -1.017
v 1.086 -0.858 -0.164
v 1.187 -0.466 -0.116
v 1.207 -0.856 -0.148
v 1.515 -0.339 -0.907
v 1.486 0.084 -0.419
v 1.651 -0.340 -0.575
v 0.739 -0.523 -0.468
v 0.786 -0.524 -0.355
v 1.444 0.053 -0.308
v 1.589 -0.371 -0.343
v 1.635 -0.353 -0.455
v 1.674 -0.805 -0.613
v 0.859 -0.518 -0.257
v 1.308 -0.442 -0.130
v 1.658 -0.816 -0.493
v 0.755 -0.840 -0.494
v 0.739 -0.831 -0.614
v 1.328 -0.852 -0.164
v 1.334 -1.943 -1.160
v 1.446 -1.946 -1.113
v 0.761 -1.973 -0.830
v 0.755 -0.821 -0.735
v 0.808 -1.964 -0.942
v 0.745 -1.983 -0.709
v 1.441 -0.845 -0.210
v 1.537 -0.782 -0.943
v 0.761 -1.993 -0.588
v 0.883 -2.009 -0.380
v 0.802 -0.848 -0.381
v 0.876 -0.854 -0.285
v 0.808 -2.002 -0.476
v 1.085 -0.784 -1.064
v 1.213 -1.942 -1.175
v 1.206 -0.780 -1.080
v 1.092 -1.944 -1.159
v 0.973 -0.858 -0.211
v 0.980 -2.015 -0.306
v 1.092 -2.018 -0.259
v 1.214 -2.019 -0.243
v 1.335 -2.017 -0.259
v 1.665 -1.968 -0.830
v 1.618 -1.959 -0.943
v 1.537 -0.836 -0.284
v 1.612 -0.826 -0.380
v 1.681 -1.978 -0.710
v 1.543 -1.951 -1.039
v 0.972 -0.791 -1.018
v -0.216 0.057 -0.541
v -0.012 0.093 -0.416
v -0.012 0.086 -0.538
v -0.220 0.062 -0.419
v 1.618 -1.997 -0.476
v 1.665 -1.988 -0.589
v -0.016 0.825 -0.884
v -0.016 0.716 -0.940
v 0.429 0.924 -0.705
v -0.017 1.021 -0.583
v -0.017 0.984 -0.699
v 0.441 0.960 -0.588
v -0.012 0.197 -0.198
v -0.281 0.250 -0.118
v -0.013 0.289 -0.115
v -0.254 0.162 -0.200
v -0.013 0.398 -0.060
v -0.313 0.355 -0.063
v -0.347 0.470 -0.037
v -0.015 0.642 -0.040
v -0.014 0.519 -0.034
v -0.381 0.589 -0.044
v -0.017 0.945 -0.233
v -0.475 0.935 -0.347
v -0.017 1.002 -0.342
v -0.462 0.881 -0.238
v -0.413 0.701 -0.081
v -0.016 0.759 -0.077
v 0.979 -1.949 -1.113
v 0.882 -1.955 -1.039
v -0.017 1.028 -0.461
v -0.015 0.595 -0.966
v 1.447 -2.012 -0.306
v 1.544 -2.006 -0.380
v -0.016 0.863 -0.143
v -0.441 0.801 -0.147
v -0.012 0.130 -0.300
v -0.233 0.098 -0.303
v 0.408 0.860 -0.807
v -0.017 0.917 -0.802
v -0.014 0.472 -0.960
v -0.480 0.960 -0.466
v -0.013 0.251 -0.857
v -0.014 0.355 -0.923
v -0.234 0.137 -0.769
v -0.012 0.112 -0.658
v -0.013 0.169 -0.766
v -0.220 0.082 -0.660
v -0.192 -4.034 -0.877
v -0.389 -3.976 -0.750
v -0.381 -3.952 -0.870
v -0.196 -4.060 -0.757
v -0.197 -4.040 -0.998
v -0.389 -3.956 -0.991
v -0.209 -4.076 -1.115
v -0.414 -3.987 -1.107
v -0.229 -4.194 -0.558
v -0.504 -4.186 -0.482
v -0.453 -4.097 -0.550
v -0.209 -4.114 -0.649
v -0.414 -4.025 -0.641
v -0.505 -4.120 -1.290
v -0.287 -4.333 -1.354
v -0.256 -4.228 -1.299
v -0.564 -4.213 -1.344
v -0.230 -4.140 -1.217
v -0.454 -4.043 -1.209
v -0.319 -4.449 -1.380
v -0.628 -4.315 -1.368
v -0.352 -4.568 -1.373
v -0.692 -4.420 -1.361
v -0.429 -4.899 -0.713
v 0.017 -4.996 -0.834
v -0.441 -4.935 -0.829
v 0.017 -4.959 -0.718
v -0.383 -4.681 -1.336
v -0.751 -4.521 -1.322
v 0.017 -5.003 -0.956
v -0.446 -4.941 -0.951
v 0.012 -4.061 -0.879
v 0.012 -4.087 -0.760
v 0.314 -4.404 -0.454
v 0.348 -4.522 -0.448
v 0.414 -4.743 -0.529
v 0.441 -4.830 -0.611
v 0.255 -4.191 -0.558
v 0.012 -4.144 -0.651
v 0.234 -4.111 -0.649
v 0.013 -4.226 -0.561
v 0.017 -4.920 -1.184
v 0.475 -4.910 -1.071
v 0.462 -4.856 -1.179
v 0.017 -4.977 -1.076
v -0.802 -4.610 -1.255
v -0.409 -4.781 -1.269
v 0.347 -4.445 -1.380
v 0.015 -4.617 -1.378
v 0.381 -4.564 -1.374
v 0.014 -4.494 -1.384
v 0.216 -4.032 -0.877
v 0.012 -4.068 -1.001
v 0.220 -4.037 -0.999
v 0.480 -4.935 -0.951
v 0.281 -4.225 -1.299
v 0.013 -4.373 -1.358
v 0.313 -4.330 -1.355
v 0.013 -4.264 -1.302
v 0.282 -4.291 -0.492
v 0.016 -4.734 -1.341
v 0.441 -4.776 -1.270
v 0.413 -4.676 -1.336
v 0.016 -4.838 -1.275
v 0.475 -4.930 -0.829
v 0.873 -4.710 -0.699
v 0.898 -4.741 -0.814
v 0.462 -4.894 -0.713
v 0.220 -4.057 -0.757
v 0.833 -4.655 -0.597
v -0.841 -4.682 -1.164
v -0.429 -4.861 -1.179
v 0.233 -4.073 -1.115
v 0.012 -4.172 -1.220
v 0.254 -4.137 -1.217
v 0.012 -4.105 -1.117
v -0.866 -4.731 -1.055
v -0.442 -4.915 -1.070
v -0.874 -4.755 -0.935
v 0.906 -4.745 -0.936
v -1.635 -3.642 -0.722
v -1.674 -3.170 -0.804
v -1.658 -3.179 -0.684
v -1.651 -3.635 -0.842
v -1.092 -1.957 -1.158
v -1.207 -3.119 -1.270
v -1.086 -3.117 -1.254
v -1.214 -1.956 -1.174
v 0.781 -4.578 -0.516
v -0.972 -3.184 -0.400
v -1.092 -2.031 -0.258
v -0.979 -2.026 -0.305
v -1.085 -3.190 -0.353
v -0.876 -3.121 -1.133
v -0.786 -3.451 -1.063
v -0.802 -3.127 -1.036
v -0.859 -3.457 -1.160
v -1.440 -3.196 -0.400
v -1.334 -2.032 -0.258
v -1.327 -3.197 -0.354
v -1.446 -2.029 -0.304
v -1.612 -3.149 -1.037
v -1.544 -1.969 -1.037
v -1.618 -1.978 -0.941
v -1.537 -3.139 -1.134
v -1.515 -3.636 -0.511
v -1.419 -3.624 -0.435
v -1.537 -3.193 -0.474
v -1.681 -1.997 -0.708
v -1.665 -2.007 -0.587
v -0.761 -1.982 -0.829
v -0.739 -3.144 -0.803
v -0.745 -1.992 -0.708
v -0.755 -3.134 -0.924
v -1.187 -3.585 -0.370
v -1.067 -3.561 -0.384
v -1.206 -3.195 -0.338
v -1.618 -2.016 -0.475
v -1.543 -2.023 -0.378
v -1.611 -3.187 -0.571
v -0.808 -2.011 -0.475
v -0.875 -3.175 -0.474
v -0.882 -2.020 -0.379
v -0.801 -3.165 -0.570
v -1.441 -3.130 -1.207
v -1.447 -1.963 -1.112
v -0.808 -1.973 -0.941
v -1.665 -1.987 -0.829
v -1.658 -3.159 -0.925
v -1.213 -2.033 -0.242
v -1.588 -3.642 -0.608
v -1.307 -3.607 -0.387
v -0.755 -3.154 -0.682
v -0.761 -2.002 -0.588
v -0.739 -3.452 -0.950
v -0.980 -1.960 -1.112
v -0.883 -1.966 -1.038
v -0.973 -3.117 -1.207
v -1.486 -4.079 -0.758
v -1.501 -4.076 -0.879
v -0.955 -3.536 -0.429
v -0.859 -3.512 -0.501
v -0.956 -3.470 -1.236
v -1.328 -3.123 -1.254
v -1.419 -3.558 -1.243
v -1.308 -3.533 -1.288
v -0.739 -3.472 -0.708
v -0.723 -3.459 -0.829
v -0.713 -3.700 -0.614
v -0.785 -3.490 -0.597
v -0.671 -3.670 -0.725
v -0.714 -3.662 -1.080
v -0.781 -3.688 -1.179
v -1.289 -4.003 -0.467
v -1.188 -3.956 -0.416
v -1.635 -3.622 -0.963
v -0.969 -3.847 -0.407
v -0.868 -3.792 -0.450
v -1.377 -4.041 -0.544
v -1.444 -4.067 -0.643
v -0.780 -3.742 -0.520
v -1.335 -1.958 -1.158
v -1.078 -3.903 -0.396
v -0.672 -3.650 -0.966
v -1.589 -3.604 -1.075
v -1.515 -3.582 -1.170
v -1.187 -3.509 -1.302
v -0.657 -3.653 -0.845
v -1.067 -3.487 -1.284
v -1.486 -4.059 -0.999
v -1.444 -4.028 -1.110
v -1.378 -3.987 -1.203
v -0.868 -3.726 -1.257
v -0.798 -4.021 -1.328
v -0.714 -3.948 -1.275
v -0.970 -3.773 -1.308
v -1.079 -3.826 -1.328
v -0.978 -4.186 -1.342
v -0.888 -4.102 -1.351
v -1.189 -3.882 -1.316
v -1.062 -4.267 -1.301
v -1.290 -3.937 -1.274
v -1.223 -4.438 -1.030
v -1.189 -4.397 -1.140
v -1.133 -4.393 -0.573
v -1.061 -4.333 -0.494
v -0.540 -3.822 -0.859
v -0.552 -3.823 -0.980
v -0.977 -4.260 -0.441
v -0.887 -4.179 -0.419
v -1.223 -4.458 -0.789
v -1.235 -4.459 -0.910
v -0.802 -4.664 -0.596
v -0.751 -4.587 -0.515
v -0.552 -3.843 -0.739
v -1.188 -4.435 -0.674
v -0.797 -4.095 -0.428
v -0.713 -4.014 -0.468
v -0.642 -3.888 -1.196
v -0.587 -3.845 -1.095
v -1.134 -4.339 -1.232
v -0.841 -4.720 -0.698
v -0.866 -4.751 -0.813
v -0.641 -3.942 -0.537
v -0.586 -3.884 -0.629
v -0.563 -4.287 -0.444
v -0.691 -4.494 -0.461
v -0.627 -4.392 -0.436
v 0.756 -3.443 -0.950
v 0.814 -3.117 -1.037
v 0.768 -3.126 -0.924
v 0.802 -3.442 -1.064
v 1.625 -3.168 -0.573
v 1.672 -3.160 -0.685
v 1.551 -3.175 -0.476
v 1.454 -3.180 -0.402
v 1.341 -3.182 -0.355
v -0.282 0.316 -0.926
v -0.255 0.216 -0.859
v 0.752 -3.135 -0.804
v 0.985 -3.106 -1.208
v 1.084 -3.475 -1.285
v 1.098 -3.104 -1.255
v 0.972 -3.458 -1.237
v 1.534 -3.618 -0.512
v 1.438 -3.607 -0.437
v 1.608 -3.624 -0.610
v 0.756 -3.463 -0.709
v 0.768 -3.145 -0.683
v 0.740 -3.450 -0.830
v 1.550 -3.121 -1.135
v 1.607 -3.585 -1.076
v 1.625 -3.130 -1.039
v 1.533 -3.564 -1.171
v 0.803 -3.480 -0.597
v 0.815 -3.155 -0.571
v 0.889 -3.110 -1.134
v 1.099 -3.178 -0.354
v 1.220 -3.181 -0.339
v 1.340 -3.108 -1.255
v 1.219 -3.105 -1.271
v 1.654 -3.603 -0.964
v 1.671 -3.140 -0.926
v 0.876 -3.447 -1.161
v 1.687 -3.150 -0.806
v 0.973 -3.525 -0.430
v 0.889 -3.165 -0.474
v 0.986 -3.172 -0.401
v 0.877 -3.502 -0.502
v 1.205 -3.571 -0.371
v 1.085 -3.549 -0.385
v 1.325 -3.517 -1.289
v 1.204 -3.495 -1.303
v -1.551 -0.800 -0.941
v -1.625 -0.807 -0.845
v 0.382 -4.638 -0.473
v -1.454 -0.795 -1.016
v -1.672 -0.815 -0.732
v -1.341 -0.793 -1.063
v 1.453 -3.113 -1.209
v -1.687 -0.825 -0.612
v -0.756 -0.532 -0.467
v -0.814 -0.858 -0.381
v -0.802 -0.533 -0.354
v -0.768 -0.849 -0.493
v -1.220 -0.794 -1.079
v -0.889 -0.810 -0.943
v -0.986 -0.803 -1.017
v -1.671 -0.835 -0.491
v -1.608 -0.351 -0.807
v -1.654 -0.352 -0.694
v -0.889 -0.864 -0.284
v -0.986 -0.869 -0.210
v -1.098 -0.871 -0.163
v -1.219 -0.870 -0.147
v -1.085 -0.426 -1.033
v -0.973 -0.450 -0.988
v -1.099 -0.797 -1.063
v -0.756 -0.512 -0.708
v -0.752 -0.840 -0.614
v -0.740 -0.525 -0.588
v -0.768 -0.829 -0.734
v -1.326 -0.384 -1.029
v -1.205 -0.404 -1.047
v -0.803 -0.495 -0.820
v -0.815 -0.819 -0.847
v -1.625 -0.845 -0.379
v -1.438 -0.368 -0.981
v -1.670 -0.359 -0.573
v -0.877 -0.473 -0.915
v -1.534 -0.356 -0.905
v -1.550 -0.854 -0.282
v -1.453 -0.862 -0.208
v -0.876 -0.528 -0.256
v -1.607 -0.390 -0.341
v -1.533 -0.411 -0.246
v -1.510 0.086 -0.658
v -1.525 0.083 -0.537
v -1.340 -0.867 -0.162
v -1.437 -0.434 -0.173
v -1.325 -0.458 -0.129
v -1.654 -0.372 -0.453
v -1.313 0.013 -0.949
v -1.211 -0.033 -1.000
v -0.889 -0.193 -0.967
v -0.801 -0.242 -0.896
v -0.733 -0.321 -0.337
v -0.800 -0.296 -0.237
v -1.101 -0.085 -1.021
v -0.991 -0.140 -1.009
v -0.733 -0.283 -0.803
v -0.972 -0.517 -0.181
v -0.691 -0.313 -0.692
v -1.401 0.050 -0.872
v -1.204 -0.480 -0.115
v -1.468 0.075 -0.773
v -0.676 -0.330 -0.572
v -1.400 -0.004 -0.213
v -1.312 -0.053 -0.142
v -0.690 -0.333 -0.451
v -1.510 0.066 -0.417
v -1.468 0.037 -0.306
v -0.990 -0.214 -0.109
v -0.888 -0.260 -0.160
v -1.084 -0.500 -0.132
v -1.210 -0.107 -0.100
v -1.100 -0.161 -0.088
v -0.821 0.037 -0.088
v -0.736 -0.035 -0.141
v -1.088 0.345 -0.922
v -1.004 0.273 -0.975
v -0.822 0.111 -0.989
v -0.737 0.031 -0.949
v -0.573 -0.139 -0.678
v -0.561 -0.159 -0.558
v -1.087 0.279 -0.115
v -1.003 0.199 -0.075
v -1.217 0.447 -0.742
v -1.252 0.469 -0.627
v -1.251 0.449 -0.386
v -1.216 0.408 -0.276
v -0.664 -0.094 -0.221
v -0.608 -0.136 -0.322
v -0.912 0.117 -0.066
v -0.873 0.735 -0.719
v -0.898 0.766 -0.603
v -0.833 0.680 -0.821
v -0.781 0.604 -0.902
v -1.161 0.405 -0.843
v -0.573 -0.159 -0.437
v -0.608 -0.098 -0.788
v -0.664 -0.040 -0.880
v -1.263 0.470 -0.506
v -1.160 0.350 -0.184
v -0.913 0.193 -0.998
v 0.530 -4.180 -0.483
v 0.477 -4.091 -0.550
v 0.655 -4.384 -0.437
v 0.720 -4.486 -0.461
v 0.529 -4.114 -1.290
v 0.589 -4.206 -1.345
v 0.477 -4.037 -1.209
v 0.832 -4.601 -1.256
v 0.780 -4.512 -1.323
v -0.404 -0.027 -0.547
v -0.412 -0.004 -0.667
v 0.412 -3.951 -0.992
v 0.437 -3.982 -1.108
v -0.437 0.045 -0.776
v -0.477 0.116 -0.867
v -0.655 0.409 -0.980
v -0.590 0.305 -0.973
v 0.404 -3.948 -0.870
v -0.906 0.770 -0.481
v 0.654 -4.308 -1.369
v -0.412 -0.024 -0.426
v 0.437 -4.020 -0.641
v 0.590 -4.280 -0.444
v -0.529 0.139 -0.127
v -0.477 0.062 -0.208
v -0.589 0.231 -0.073
v -0.437 0.007 -0.310
v 1.252 -4.444 -0.790
v 1.263 -4.445 -0.912
v 0.412 -3.971 -0.751
v -0.720 0.511 -0.956
v -0.530 0.205 -0.934
v 0.719 -4.412 -1.362
v -0.719 0.437 -0.056
v -0.654 0.333 -0.048
v 1.160 -4.325 -1.234
v 1.087 -4.254 -1.302
v 1.161 -4.379 -0.574
v 1.217 -4.422 -0.675
v -0.897 0.746 -0.362
v 1.004 -4.248 -0.442
v 1.088 -4.320 -0.495
v 0.872 -4.672 -1.165
v 0.561 -3.815 -0.859
v 0.573 -3.816 -0.981
v 0.573 -3.836 -0.740
v 0.822 -4.086 -0.429
v 0.913 -4.168 -0.419
v 0.608 -3.838 -1.096
v -0.780 0.537 -0.094
v 0.664 -3.935 -0.537
v 0.608 -3.877 -0.630
v -0.832 0.626 -0.162
v -0.872 0.697 -0.253
v 0.737 -4.006 -0.469
v 0.664 -3.881 -1.197
v 0.736 -3.940 -1.276
v 0.821 -4.012 -1.329
v 0.897 -4.721 -1.056
v 1.216 -4.383 -1.141
v 1.003 -4.174 -1.342
v -0.475 0.955 -0.588
v 0.912 -4.092 -1.352
v 0.733 -3.654 -1.081
v 0.800 -3.679 -1.180
v 1.210 -3.868 -1.318
v 1.312 -3.922 -1.275
v 0.690 -3.642 -0.967
v -0.462 0.919 -0.704
v -0.441 0.855 -0.807
v 1.100 -3.814 -1.329
v 0.889 -3.782 -0.451
v 0.991 -3.835 -0.408
v -0.382 0.663 -0.944
v -0.348 0.547 -0.969
v -0.314 0.429 -0.963
v 1.510 -4.061 -0.759
v 1.468 -4.050 -0.645
v 0.888 -3.715 -1.258
v 1.101 -3.890 -0.397
v 1.525 -4.058 -0.880
v 1.251 -4.424 -1.031
v 0.801 -3.733 -0.521
v 0.676 -3.645 -0.846
v 0.691 -3.662 -0.725
v 0.733 -3.692 -0.615
v -0.414 0.768 -0.888
v 1.211 -3.942 -0.417
v 1.313 -3.988 -0.468
v 1.400 -3.971 -1.205
v 0.990 -3.761 -1.309
v 1.401 -4.025 -0.546
v 1.654 -3.623 -0.723
v 1.670 -3.616 -0.844
v 1.326 -3.591 -0.388
v 1.468 -4.012 -1.111
v 1.510 -4.041 -1.000
v 1.437 -3.541 -1.244
f 1 2 3
f 2 1 4
f 5 6 7
f 6 5 8
f 9 7 10
f 7 9 5
f 11 3 12
f 3 11 1
f 8 12 6
f 12 8 11
f 13 14 15
f 14 13 16
f 17 18 19
f 18 17 20
f 18 21 22
f 21 18 20
f 22 23 24
f 23 22 21
f 24 25 26
f 25 24 23
f 27 25 28
f 25 27 26
f 29 28 30
f 28 29 27
f 31 32 33
f 32 31 34
f 35 30 36
f 30 35 29
f 33 37 38
f 37 33 32
f 39 36 40
f 36 39 35
f 38 41 42
f 41 38 37
f 42 43 44
f 43 42 41
f 13 34 31
f 34 13 15
f 16 19 14
f 19 16 17
f 45 46 47
f 46 45 48
f 49 50 51
f 50 49 52
f 34 53 32
f 53 34 54
f 55 56 57
f 56 55 58
f 19 59 60
f 59 19 18
f 61 26 27
f 26 61 62
f 59 22 63
f 22 59 18
f 63 24 64
f 24 63 22
f 43 50 52
f 50 43 65
f 64 26 62
f 26 64 24
f 55 66 67
f 66 55 57
f 48 51 46
f 51 48 49
f 37 68 41
f 68 37 69
f 15 54 34
f 54 15 70
f 41 65 43
f 65 41 68
f 32 69 37
f 69 32 53
f 14 60 71
f 60 14 19
f 15 71 70
f 71 15 14
f 72 27 29
f 27 72 61
f 67 73 74
f 73 67 66
f 74 75 45
f 75 74 73
f 58 40 56
f 40 58 39
f 76 39 58
f 39 76 77
f 78 67 79
f 67 78 55
f 77 35 39
f 35 77 80
f 78 58 55
f 58 78 76
f 79 74 81
f 74 79 67
f 80 29 35
f 29 80 72
f 51 82 46
f 82 51 83
f 84 70 71
f 70 84 85
f 69 86 68
f 86 69 87
f 88 72 80
f 72 88 89
f 46 90 47
f 90 46 82
f 91 80 77
f 80 91 88
f 92 64 93
f 64 92 63
f 94 77 76
f 77 94 91
f 95 76 78
f 76 95 94
f 53 87 69
f 87 53 96
f 97 62 61
f 62 97 98
f 65 99 50
f 99 65 100
f 54 96 53
f 96 54 101
f 70 101 54
f 101 70 85
f 102 60 59
f 60 102 103
f 81 45 47
f 45 81 74
f 68 100 65
f 100 68 86
f 103 71 60
f 71 103 84
f 92 59 63
f 59 92 102
f 93 62 98
f 62 93 64
f 89 61 72
f 61 89 97
f 50 83 51
f 83 50 99
f 79 95 78
f 95 79 104
f 79 105 104
f 105 79 81
f 82 106 90
f 106 82 107
f 100 108 99
f 108 100 109
f 86 109 100
f 109 86 110
f 101 111 96
f 111 101 112
f 85 112 101
f 112 85 113
f 47 105 81
f 105 47 90
f 99 114 83
f 114 99 108
f 83 107 82
f 107 83 114
f 87 110 86
f 110 87 115
f 96 115 87
f 115 96 111
f 116 85 84
f 85 116 113
f 116 103 117
f 103 116 84
f 118 92 119
f 92 118 102
f 120 92 93
f 92 120 119
f 120 98 121
f 98 120 93
f 117 102 118
f 102 117 103
f 122 98 97
f 98 122 121
f 123 89 88
f 89 123 124
f 124 97 89
f 97 124 122
f 105 125 104
f 125 105 126
f 127 91 94
f 91 127 128
f 128 88 91
f 88 128 123
f 129 94 95
f 94 129 127
f 90 126 105
f 126 90 106
f 104 129 95
f 129 104 125
f 107 130 106
f 130 107 131
f 114 131 107
f 131 114 132
f 133 116 134
f 116 133 113
f 110 135 109
f 135 110 136
f 137 124 123
f 124 137 138
f 139 128 127
f 128 139 140
f 141 127 129
f 127 141 139
f 115 136 110
f 136 115 142
f 112 143 111
f 143 112 144
f 106 145 126
f 145 106 130
f 146 120 147
f 120 146 119
f 138 122 124
f 122 138 148
f 134 117 149
f 117 134 116
f 132 150 131
f 150 132 151
f 111 142 115
f 142 111 143
f 147 121 152
f 121 147 120
f 129 153 141
f 153 129 125
f 126 153 125
f 153 126 145
f 154 119 146
f 119 154 118
f 131 155 130
f 155 131 150
f 132 156 151
f 156 132 157
f 135 156 157
f 156 135 158
f 140 123 128
f 123 140 137
f 108 132 114
f 132 108 157
f 109 157 108
f 157 109 135
f 149 118 154
f 118 149 117
f 148 121 122
f 121 148 152
f 113 144 112
f 144 113 133
f 136 158 135
f 158 136 159
f 160 134 149
f 134 160 161
f 160 154 162
f 154 160 149
f 163 154 146
f 154 163 162
f 164 147 152
f 147 164 165
f 143 166 142
f 166 143 167
f 168 152 148
f 152 168 164
f 169 138 137
f 138 169 170
f 171 137 140
f 137 171 169
f 172 140 139
f 140 172 171
f 173 139 141
f 139 173 172
f 163 147 165
f 147 163 146
f 144 167 143
f 167 144 174
f 175 134 161
f 134 175 133
f 170 148 138
f 148 170 168
f 153 173 141
f 173 153 176
f 142 159 136
f 159 142 166
f 133 174 144
f 174 133 175
f 130 177 145
f 177 130 155
f 145 176 153
f 176 145 177
f 150 177 155
f 177 150 151
f 177 151 176
f 176 151 173
f 173 151 156
f 173 156 158
f 173 158 172
f 172 158 171
f 171 158 159
f 171 159 169
f 169 159 166
f 169 166 170
f 170 166 167
f 170 167 174
f 170 174 168
f 168 174 175
f 168 175 164
f 164 175 161
f 164 161 165
f 165 161 160
f 165 160 163
f 163 160 162
f 178 179 180
f 179 178 181
f 182 183 75
f 183 182 184
f 185 31 186
f 31 185 13
f 187 181 178
f 181 187 188
f 189 44 190
f 44 189 42
f 191 182 192
f 182 191 193
f 194 42 189
f 42 194 38
f 195 196 197
f 196 195 198
f 180 199 200
f 199 180 179
f 201 202 203
f 202 201 204
f 184 205 183
f 205 184 206
f 203 207 208
f 207 203 202
f 208 188 187
f 188 208 207
f 209 210 211
f 210 209 212
f 200 212 209
f 212 200 199
f 210 192 211
f 192 210 191
f 196 204 201
f 204 196 198
f 206 213 205
f 213 206 214
f 190 213 214
f 213 190 44
f 215 38 194
f 38 215 33
f 216 195 197
f 195 216 217
f 186 33 215
f 33 186 31
f 218 216 219
f 216 218 217
f 219 17 16
f 17 219 216
f 216 20 17
f 20 216 197
f 185 16 13
f 16 185 219
f 23 203 25
f 203 23 201
f 36 187 178
f 187 36 30
f 40 178 180
f 178 40 36
f 56 180 200
f 180 56 40
f 28 203 208
f 203 28 25
f 30 208 187
f 208 30 28
f 20 196 21
f 196 20 197
f 21 201 23
f 201 21 196
f 57 200 209
f 200 57 56
f 57 211 66
f 211 57 209
f 66 192 73
f 192 66 211
f 73 182 75
f 182 73 192
f 75 48 45
f 48 75 183
f 183 49 48
f 49 183 205
f 205 52 49
f 52 205 213
f 44 52 213
f 52 44 43
f 220 221 222
f 221 220 223
f 221 223 224
f 221 224 225
f 221 226 222
f 226 221 227
f 227 228 226
f 228 227 229
f 230 231 232
f 231 230 10
f 230 233 234
f 233 230 232
f 234 223 220
f 223 234 233
f 223 233 224
f 224 233 225
f 235 236 237
f 236 235 238
f 229 239 228
f 239 229 240
f 241 238 235
f 238 241 242
f 243 242 241
f 242 243 244
f 237 239 240
f 239 237 236
f 245 246 247
f 246 245 248
f 249 250 251
f 250 249 252
f 253 254 255
f 254 253 256
f 249 257 252
f 257 249 258
f 258 255 257
f 255 258 253
f 246 4 247
f 4 246 2
f 251 244 243
f 244 251 250
f 254 245 259
f 245 254 248
f 260 222 261
f 222 260 262
f 222 262 220
f 263 9 264
f 9 263 5
f 265 5 263
f 5 265 8
f 266 1 267
f 1 266 4
f 268 269 270
f 269 268 271
f 272 273 274
f 273 272 275
f 260 276 277
f 276 260 261
f 278 279 280
f 279 278 281
f 271 277 269
f 277 271 260
f 234 260 271
f 260 234 262
f 262 234 220
f 281 282 279
f 282 281 283
f 283 284 282
f 284 283 285
f 286 280 287
f 280 286 278
f 285 288 284
f 288 285 289
f 288 290 291
f 290 288 289
f 291 292 293
f 292 291 290
f 293 259 294
f 259 293 292
f 295 296 297
f 296 295 298
f 299 275 272
f 275 299 300
f 298 301 296
f 301 298 266
f 294 297 302
f 297 294 295
f 273 287 274
f 287 273 286
f 276 300 299
f 300 276 261
f 303 304 305
f 304 303 306
f 268 10 230
f 10 268 9
f 230 271 268
f 271 230 234
f 307 308 309
f 308 307 310
f 301 267 311
f 267 301 266
f 307 312 313
f 312 307 309
f 306 314 304
f 314 306 315
f 313 314 315
f 314 313 312
f 316 317 318
f 317 316 319
f 320 303 305
f 303 320 321
f 322 323 324
f 323 322 325
f 325 320 323
f 320 325 321
f 317 324 318
f 324 317 322
f 316 326 319
f 326 316 327
f 328 329 330
f 329 328 331
f 332 329 331
f 329 332 333
f 334 335 336
f 335 334 337
f 328 326 327
f 326 328 330
f 336 333 332
f 333 336 335
f 338 339 340
f 339 338 341
f 333 342 329
f 342 333 343
f 335 343 333
f 343 335 344
f 345 308 310
f 308 345 346
f 347 307 313
f 307 347 348
f 338 349 350
f 349 338 340
f 351 303 321
f 303 351 352
f 353 307 348
f 307 353 310
f 350 346 345
f 346 350 349
f 354 321 325
f 321 354 351
f 355 334 356
f 334 355 337
f 357 355 356
f 355 357 358
f 359 315 306
f 315 359 360
f 352 306 303
f 306 352 359
f 361 322 317
f 322 361 362
f 317 363 361
f 363 317 319
f 319 364 363
f 364 319 326
f 365 357 366
f 357 365 358
f 367 353 348
f 353 367 368
f 338 369 341
f 369 338 370
f 360 313 315
f 313 360 347
f 365 371 358
f 371 365 372
f 370 350 373
f 350 370 338
f 358 374 355
f 374 358 371
f 337 344 335
f 344 337 375
f 362 325 322
f 325 362 354
f 341 372 365
f 372 341 369
f 330 342 376
f 342 330 329
f 355 375 337
f 375 355 374
f 353 345 310
f 345 353 377
f 373 345 377
f 345 373 350
f 326 376 364
f 376 326 330
f 339 365 366
f 365 339 341
f 342 378 376
f 378 342 379
f 367 347 380
f 347 367 348
f 381 362 361
f 362 381 382
f 383 359 352
f 359 383 384
f 342 385 379
f 385 342 343
f 364 386 363
f 386 364 387
f 344 385 343
f 385 344 388
f 389 352 351
f 352 389 383
f 382 354 362
f 354 382 390
f 391 347 360
f 347 391 380
f 390 351 354
f 351 390 389
f 363 381 361
f 381 363 386
f 392 373 377
f 373 392 393
f 394 391 395
f 391 394 380
f 396 384 383
f 384 396 397
f 369 398 372
f 398 369 399
f 392 353 368
f 353 392 377
f 384 360 359
f 360 384 391
f 372 400 371
f 400 372 398
f 397 391 384
f 391 397 395
f 393 370 373
f 370 393 401
f 375 388 344
f 388 375 402
f 379 403 378
f 403 379 404
f 371 405 374
f 405 371 400
f 406 383 389
f 383 406 396
f 378 407 387
f 407 378 403
f 370 399 369
f 399 370 401
f 376 387 364
f 387 376 378
f 374 402 375
f 402 374 405
f 408 368 367
f 368 408 409
f 394 367 380
f 367 394 408
f 385 404 379
f 404 385 410
f 411 390 382
f 390 411 412
f 402 413 388
f 413 402 414
f 405 414 402
f 414 405 415
f 401 416 399
f 416 401 417
f 418 401 393
f 401 418 417
f 398 419 400
f 419 398 420
f 399 420 398
f 420 399 416
f 421 394 422
f 394 421 408
f 400 415 405
f 415 400 419
f 423 393 392
f 393 423 418
f 424 395 397
f 395 424 425
f 426 382 381
f 382 426 411
f 412 389 390
f 389 412 406
f 386 426 381
f 426 386 427
f 387 427 386
f 427 387 407
f 388 410 385
f 410 388 413
f 428 406 412
f 406 428 429
f 231 412 411
f 412 231 428
f 232 411 426
f 411 232 231
f 232 427 233
f 427 232 426
f 233 407 225
f 407 233 427
f 403 227 221
f 227 403 404
f 422 395 425
f 395 422 394
f 225 403 221
f 403 225 407
f 423 368 409
f 368 423 392
f 430 397 396
f 397 430 424
f 429 396 406
f 396 429 430
f 256 408 421
f 408 256 409
f 404 229 227
f 229 404 410
f 414 240 413
f 240 414 237
f 415 237 414
f 237 415 235
f 419 235 415
f 235 419 241
f 410 240 229
f 240 410 413
f 417 251 416
f 251 417 249
f 417 258 249
f 258 417 418
f 254 421 248
f 421 254 256
f 10 428 231
f 428 10 7
f 3 425 424
f 425 3 2
f 248 422 246
f 422 248 421
f 246 425 2
f 425 246 422
f 423 256 253
f 256 423 409
f 6 430 429
f 430 6 12
f 416 243 420
f 243 416 251
f 418 253 258
f 253 418 423
f 420 241 419
f 241 420 243
f 12 424 430
f 424 12 3
f 7 429 428
f 429 7 6
f 431 432 433
f 432 431 434
f 435 436 437
f 436 435 438
f 439 440 441
f 440 439 442
f 443 444 445
f 444 443 446
f 443 432 446
f 432 443 433
f 447 448 449
f 448 447 450
f 451 440 442
f 440 451 452
f 155 453 177
f 453 155 454
f 173 455 456
f 455 173 176
f 456 172 173
f 172 456 457
f 176 453 455
f 453 176 177
f 458 459 460
f 459 458 461
f 462 463 464
f 463 462 465
f 456 466 457
f 466 456 467
f 456 468 467
f 468 456 455
f 458 444 461
f 444 458 445
f 431 437 434
f 437 431 435
f 469 470 471
f 470 469 472
f 461 165 459
f 165 461 163
f 457 171 172
f 171 457 473
f 461 162 163
f 162 461 444
f 166 463 159
f 463 166 464
f 474 185 186
f 185 474 475
f 446 162 444
f 162 446 160
f 434 161 432
f 161 434 175
f 169 449 170
f 449 169 447
f 475 219 185
f 219 475 218
f 436 166 167
f 166 436 464
f 434 174 175
f 174 434 437
f 158 451 156
f 451 158 476
f 463 158 159
f 158 463 476
f 459 164 471
f 164 459 165
f 151 451 442
f 451 151 156
f 331 327 328
f 327 331 316
f 316 331 332
f 316 332 336
f 316 336 318
f 318 336 334
f 318 334 324
f 324 334 356
f 324 356 323
f 323 356 320
f 320 356 357
f 320 357 305
f 305 357 366
f 305 366 339
f 305 339 304
f 304 339 314
f 314 339 340
f 314 340 349
f 314 349 312
f 312 349 346
f 312 346 309
f 309 346 308
f 473 169 171
f 169 473 447
f 469 164 168
f 164 469 471
f 346 477 308
f 477 346 478
f 174 436 167
f 436 174 437
f 432 160 446
f 160 432 161
f 170 469 168
f 469 170 449
f 346 479 478
f 479 346 349
f 340 480 481
f 480 340 339
f 339 482 480
f 482 339 366
f 340 479 349
f 479 340 481
f 150 454 155
f 454 150 439
f 259 295 294
f 295 259 245
f 267 11 483
f 11 267 1
f 151 439 150
f 439 151 442
f 244 281 242
f 281 244 283
f 264 268 270
f 268 264 9
f 242 278 238
f 278 242 281
f 292 254 259
f 254 292 255
f 250 283 244
f 283 250 285
f 252 290 289
f 290 252 257
f 236 273 239
f 273 236 286
f 261 226 300
f 226 261 222
f 252 285 250
f 285 252 289
f 245 298 295
f 298 245 247
f 238 286 236
f 286 238 278
f 257 292 290
f 292 257 255
f 275 239 273
f 239 275 228
f 483 8 265
f 8 483 11
f 357 484 485
f 484 357 356
f 486 332 487
f 332 486 336
f 334 486 488
f 486 334 336
f 366 485 482
f 485 366 357
f 356 488 484
f 488 356 334
f 487 331 489
f 331 487 332
f 489 328 490
f 328 489 331
f 490 327 491
f 327 490 328
f 491 316 492
f 316 491 327
f 493 324 494
f 324 493 318
f 492 318 493
f 318 492 316
f 495 492 496
f 492 495 491
f 497 314 498
f 314 497 304
f 496 493 499
f 493 496 492
f 312 498 314
f 498 312 500
f 309 477 501
f 477 309 308
f 478 502 477
f 502 478 503
f 312 501 500
f 501 312 309
f 479 503 478
f 503 479 504
f 482 505 506
f 505 482 485
f 485 507 505
f 507 485 484
f 494 323 508
f 323 494 324
f 481 509 510
f 509 481 480
f 480 506 509
f 506 480 482
f 488 511 512
f 511 488 486
f 511 487 513
f 487 511 486
f 508 320 514
f 320 508 323
f 484 512 507
f 512 484 488
f 513 489 515
f 489 513 487
f 515 490 516
f 490 515 489
f 516 491 495
f 491 516 490
f 517 304 497
f 304 517 305
f 481 504 479
f 504 481 510
f 514 305 517
f 305 514 320
f 518 517 519
f 517 518 514
f 520 508 521
f 508 520 494
f 500 522 498
f 522 500 523
f 477 524 501
f 524 477 502
f 502 525 526
f 525 502 503
f 527 498 522
f 498 527 497
f 521 514 518
f 514 521 508
f 499 494 520
f 494 499 493
f 519 497 527
f 497 519 517
f 501 523 500
f 523 501 524
f 528 516 495
f 516 528 529
f 530 513 515
f 513 530 531
f 532 495 496
f 495 532 528
f 532 499 533
f 499 532 496
f 509 534 535
f 534 509 506
f 506 536 534
f 536 506 505
f 504 525 503
f 525 504 537
f 512 538 539
f 538 512 511
f 507 539 540
f 539 507 512
f 531 511 513
f 511 531 538
f 510 537 504
f 537 510 541
f 505 540 536
f 540 505 507
f 510 535 541
f 535 510 509
f 529 515 516
f 515 529 530
f 542 522 543
f 522 542 527
f 524 544 523
f 544 524 545
f 546 521 547
f 521 546 520
f 548 519 549
f 519 548 518
f 502 545 524
f 545 502 526
f 525 550 526
f 550 525 551
f 547 518 548
f 518 547 521
f 537 551 525
f 551 537 552
f 541 552 537
f 552 541 553
f 541 554 553
f 554 541 535
f 535 555 554
f 555 535 534
f 549 527 542
f 527 549 519
f 523 543 522
f 543 523 544
f 533 520 546
f 520 533 499
f 556 530 529
f 530 556 557
f 558 529 528
f 529 558 556
f 534 559 555
f 559 534 536
f 536 560 559
f 560 536 540
f 561 531 562
f 531 561 538
f 557 531 530
f 531 557 562
f 558 532 563
f 532 558 528
f 563 533 564
f 533 563 532
f 226 275 300
f 275 226 228
f 540 565 560
f 565 540 539
f 539 561 565
f 561 539 538
f 564 546 566
f 546 564 533
f 566 547 567
f 547 566 546
f 567 548 568
f 548 567 547
f 568 549 569
f 549 568 548
f 247 266 298
f 266 247 4
f 569 542 570
f 542 569 549
f 570 543 571
f 543 570 542
f 544 571 543
f 571 544 572
f 545 572 544
f 572 545 573
f 574 552 575
f 552 574 551
f 553 576 577
f 576 553 554
f 545 550 573
f 550 545 526
f 554 578 576
f 578 554 555
f 555 579 578
f 579 555 559
f 580 551 574
f 551 580 550
f 575 553 577
f 553 575 552
f 559 581 579
f 581 559 560
f 560 582 581
f 582 560 565
f 565 583 582
f 583 565 561
f 584 557 585
f 557 584 562
f 583 562 584
f 562 583 561
f 279 586 587
f 586 279 282
f 588 270 589
f 270 588 264
f 277 590 591
f 590 277 276
f 592 265 593
f 265 592 483
f 590 299 594
f 299 590 276
f 287 595 596
f 595 287 280
f 597 264 588
f 264 597 263
f 270 598 589
f 598 270 269
f 585 556 599
f 556 585 557
f 594 272 600
f 272 594 299
f 274 596 601
f 596 274 287
f 311 483 592
f 483 311 267
f 280 587 595
f 587 280 279
f 593 263 597
f 263 593 265
f 600 274 601
f 274 600 272
f 284 602 603
f 602 284 288
f 556 604 599
f 604 556 558
f 269 591 598
f 591 269 277
f 558 605 604
f 605 558 563
f 606 566 607
f 566 606 564
f 607 567 608
f 567 607 566
f 563 606 605
f 606 563 564
f 302 609 610
f 609 302 297
f 296 611 612
f 611 296 301
f 613 588 614
f 588 613 597
f 608 568 615
f 568 608 567
f 616 571 617
f 571 616 570
f 591 618 619
f 618 591 590
f 615 569 620
f 569 615 568
f 620 570 616
f 570 620 569
f 601 621 622
f 621 601 596
f 618 594 623
f 594 618 590
f 572 624 625
f 624 572 573
f 573 580 624
f 580 573 550
f 611 311 626
f 311 611 301
f 623 600 627
f 600 623 594
f 571 625 617
f 625 571 572
f 627 601 622
f 601 627 600
f 628 597 613
f 597 628 593
f 589 629 630
f 629 589 598
f 596 631 621
f 631 596 595
f 632 293 633
f 293 632 291
f 633 294 302
f 294 633 293
f 282 603 586
f 603 282 284
f 634 632 635
f 632 634 602
f 193 574 636
f 574 193 580
f 614 589 630
f 589 614 588
f 637 593 628
f 593 637 592
f 598 619 629
f 619 598 591
f 586 638 639
f 638 586 603
f 587 639 640
f 639 587 586
f 603 634 638
f 634 603 602
f 626 592 637
f 592 626 311
f 602 291 632
f 291 602 288
f 297 612 609
f 612 297 296
f 636 575 641
f 575 636 574
f 641 577 642
f 577 641 575
f 576 643 644
f 643 576 578
f 578 645 643
f 645 578 579
f 579 646 645
f 646 579 581
f 581 474 646
f 474 581 582
f 635 633 647
f 633 635 632
f 595 640 631
f 640 595 587
f 577 644 642
f 644 577 576
f 630 648 649
f 648 630 629
f 650 628 651
f 628 650 637
f 652 612 653
f 612 652 609
f 654 609 652
f 609 654 610
f 631 655 656
f 655 631 640
f 640 657 655
f 657 640 639
f 623 658 659
f 658 623 627
f 639 660 657
f 660 639 638
f 651 613 661
f 613 651 628
f 662 626 663
f 626 662 611
f 661 614 664
f 614 661 613
f 638 665 660
f 665 638 634
f 622 666 667
f 666 622 621
f 582 475 474
f 475 582 583
f 218 585 217
f 585 218 584
f 475 584 218
f 584 475 583
f 664 630 649
f 630 664 614
f 618 668 619
f 668 618 669
f 647 302 610
f 302 647 633
f 663 637 650
f 637 663 626
f 629 668 648
f 668 629 619
f 618 659 669
f 659 618 623
f 627 667 658
f 667 627 622
f 621 656 666
f 656 621 631
f 653 611 662
f 611 653 612
f 448 664 472
f 664 448 661
f 654 647 610
f 647 654 670
f 468 662 467
f 662 468 653
f 671 653 468
f 653 671 652
f 472 649 470
f 649 472 664
f 466 650 672
f 650 466 663
f 672 651 450
f 651 672 650
f 450 661 448
f 661 450 651
f 648 470 649
f 470 648 460
f 217 599 195
f 599 217 585
f 599 198 195
f 198 599 604
f 665 635 673
f 635 665 634
f 673 647 670
f 647 673 635
f 674 652 671
f 652 674 654
f 467 663 466
f 663 467 662
f 604 204 198
f 204 604 605
f 207 608 188
f 608 207 607
f 605 202 204
f 202 605 606
f 188 615 181
f 615 188 608
f 181 620 179
f 620 181 615
f 648 458 460
f 458 648 668
f 202 607 207
f 607 202 606
f 441 654 674
f 654 441 670
f 658 443 659
f 443 658 433
f 440 670 441
f 670 440 673
f 184 641 206
f 641 184 636
f 454 671 453
f 671 454 674
f 658 431 433
f 431 658 667
f 669 458 668
f 458 669 445
f 624 193 191
f 193 624 580
f 667 435 431
f 435 667 666
f 666 438 435
f 438 666 656
f 659 445 669
f 445 659 443
f 657 675 465
f 675 657 660
f 655 465 462
f 465 655 657
f 452 673 440
f 673 452 665
f 660 452 675
f 452 660 665
f 199 617 212
f 617 199 616
f 617 210 212
f 210 617 625
f 656 462 438
f 462 656 655
f 625 191 210
f 191 625 624
f 206 642 214
f 642 206 641
f 453 468 455
f 468 453 671
f 460 471 470
f 471 460 459
f 179 616 199
f 616 179 620
f 193 184 182
f 184 193 636
f 457 672 473
f 672 457 466
f 438 464 436
f 464 438 462
f 465 476 463
f 476 465 675
f 675 451 476
f 451 675 452
f 642 190 214
f 190 642 644
f 645 215 194
f 215 645 646
f 646 186 215
f 186 646 474
f 473 450 447
f 450 473 672
f 454 441 674
f 441 454 439
f 449 472 469
f 472 449 448
f 644 189 190
f 189 644 643
f 643 194 189
f 194 643 645
f 676 677 678
f 677 676 679
f 680 681 682
f 681 680 683
f 683 684 681
f 684 683 685
f 677 686 678
f 686 677 687
f 687 682 686
f 682 687 680
f 688 689 690
f 689 688 691
f 692 693 694
f 693 692 695
f 696 691 688
f 691 696 697
f 698 699 700
f 699 698 701
f 702 703 704
f 703 702 705
f 694 706 707
f 706 694 693
f 708 709 710
f 709 708 711
f 690 701 712
f 701 690 689
f 713 714 697
f 714 713 715
f 716 717 718
f 717 716 719
f 720 713 721
f 713 720 703
f 722 695 692
f 695 722 723
f 689 699 701
f 699 689 724
f 711 725 709
f 725 711 726
f 726 727 725
f 727 726 728
f 729 692 730
f 692 729 722
f 728 700 727
f 700 728 698
f 697 731 691
f 731 697 714
f 691 724 689
f 724 691 731
f 732 733 734
f 733 732 735
f 716 710 719
f 710 716 708
f 702 722 729
f 722 702 704
f 707 736 737
f 736 707 706
f 704 723 722
f 723 704 738
f 721 697 696
f 697 721 713
f 739 698 728
f 698 739 740
f 738 703 720
f 703 738 704
f 740 701 698
f 701 740 712
f 741 728 726
f 728 741 739
f 742 726 711
f 726 742 741
f 717 743 718
f 743 717 744
f 703 715 713
f 715 703 705
f 745 734 746
f 734 745 732
f 747 735 748
f 735 747 737
f 749 745 750
f 745 749 751
f 752 707 753
f 707 752 694
f 731 754 724
f 754 731 755
f 751 732 745
f 732 751 756
f 757 753 758
f 753 757 752
f 758 747 759
f 747 758 753
f 756 735 732
f 735 756 748
f 719 760 717
f 760 719 761
f 710 762 763
f 762 710 709
f 700 764 765
f 764 700 699
f 744 750 743
f 750 744 749
f 766 731 714
f 731 766 755
f 767 715 705
f 715 767 768
f 769 752 757
f 752 769 730
f 725 770 771
f 770 725 727
f 730 694 752
f 694 730 692
f 753 737 747
f 737 753 707
f 759 748 772
f 748 759 747
f 717 773 744
f 773 717 760
f 774 705 702
f 705 774 767
f 719 763 761
f 763 719 710
f 727 765 770
f 765 727 700
f 772 756 775
f 756 772 748
f 699 754 764
f 754 699 724
f 768 714 715
f 714 768 766
f 737 733 735
f 733 737 736
f 776 730 769
f 730 776 729
f 709 771 762
f 771 709 725
f 774 729 776
f 729 774 702
f 743 777 778
f 777 743 750
f 750 746 777
f 746 750 745
f 779 775 780
f 775 779 772
f 781 782 783
f 782 781 784
f 785 757 786
f 757 785 769
f 762 787 788
f 787 762 771
f 789 766 768
f 766 789 790
f 765 791 792
f 791 765 764
f 771 793 787
f 793 771 770
f 790 755 766
f 755 790 794
f 795 796 794
f 796 795 797
f 764 796 791
f 796 764 754
f 788 798 799
f 798 788 787
f 800 801 802
f 801 800 786
f 763 788 803
f 788 763 762
f 744 804 749
f 804 744 773
f 760 805 773
f 805 760 783
f 761 783 760
f 783 761 781
f 770 792 793
f 792 770 765
f 806 768 767
f 768 806 789
f 786 758 801
f 758 786 757
f 807 767 774
f 767 807 806
f 808 756 751
f 756 808 775
f 804 809 808
f 809 804 810
f 773 810 804
f 810 773 805
f 783 811 805
f 811 783 782
f 749 808 751
f 808 749 804
f 812 774 776
f 774 812 807
f 763 781 761
f 781 763 803
f 812 769 785
f 769 812 776
f 755 796 754
f 796 755 794
f 813 772 779
f 772 813 759
f 801 759 813
f 759 801 758
f 809 775 808
f 775 809 780
f 805 814 810
f 814 805 811
f 815 789 806
f 789 815 816
f 802 813 817
f 813 802 801
f 799 818 819
f 818 799 798
f 820 795 821
f 795 820 822
f 823 821 816
f 821 823 820
f 817 779 824
f 779 817 813
f 803 799 825
f 799 803 788
f 803 784 781
f 784 803 825
f 826 816 815
f 816 826 823
f 827 828 829
f 828 827 830
f 831 832 833
f 832 831 834
f 827 835 836
f 835 827 829
f 837 802 838
f 802 837 800
f 835 786 800
f 786 835 785
f 821 794 790
f 794 821 795
f 838 817 839
f 817 838 802
f 829 785 835
f 785 829 812
f 784 840 782
f 840 784 841
f 829 807 812
f 807 829 828
f 824 780 842
f 780 824 779
f 793 831 833
f 831 793 792
f 810 843 809
f 843 810 814
f 782 844 811
f 844 782 840
f 787 833 798
f 833 787 793
f 799 845 825
f 845 799 819
f 809 842 780
f 842 809 843
f 828 806 807
f 806 828 815
f 825 841 784
f 841 825 845
f 816 790 789
f 790 816 821
f 791 797 846
f 797 791 796
f 792 846 831
f 846 792 791
f 847 848 849
f 848 847 850
f 814 851 843
f 851 814 852
f 853 741 742
f 741 853 854
f 855 856 857
f 856 855 858
f 859 860 861
f 860 859 862
f 860 863 861
f 863 860 864
f 865 866 867
f 866 865 868
f 869 870 871
f 870 869 872
f 866 873 874
f 873 866 868
f 846 834 831
f 834 846 875
f 822 797 795
f 797 822 876
f 858 877 856
f 877 858 778
f 864 867 863
f 867 864 865
f 854 739 741
f 739 854 878
f 846 876 875
f 876 846 797
f 879 842 880
f 842 879 824
f 881 872 869
f 872 881 882
f 839 824 879
f 824 839 817
f 874 882 881
f 882 874 873
f 850 883 848
f 883 850 884
f 857 885 855
f 885 857 886
f 886 742 885
f 742 886 853
f 878 740 739
f 740 878 887
f 811 852 814
f 852 811 844
f 871 888 877
f 888 871 870
f 836 800 837
f 800 836 835
f 883 862 859
f 862 883 884
f 833 818 798
f 818 833 832
f 889 712 890
f 712 889 690
f 830 815 828
f 815 830 826
f 843 880 842
f 880 843 851
f 891 892 893
f 892 891 894
f 734 874 881
f 874 734 733
f 746 881 869
f 881 746 734
f 892 688 893
f 688 892 696
f 696 892 262
f 778 871 877
f 871 778 777
f 855 708 716
f 708 855 885
f 885 711 708
f 711 885 742
f 895 896 897
f 896 895 898
f 899 897 900
f 897 899 895
f 893 690 889
f 690 893 688
f 848 223 849
f 223 848 721
f 721 848 224
f 721 224 720
f 736 874 733
f 874 736 866
f 894 849 892
f 849 894 847
f 695 863 693
f 863 695 861
f 716 858 855
f 858 716 718
f 901 900 902
f 900 901 899
f 903 904 905
f 904 903 685
f 693 867 706
f 867 693 863
f 906 905 907
f 905 906 903
f 908 909 910
f 909 908 911
f 902 912 901
f 912 902 913
f 898 907 896
f 907 898 906
f 706 866 736
f 866 706 867
f 911 914 909
f 914 911 915
f 738 859 723
f 859 738 883
f 718 778 858
f 778 718 743
f 777 869 871
f 869 777 746
f 915 916 914
f 916 915 917
f 883 224 848
f 224 883 720
f 720 883 738
f 849 262 892
f 262 849 696
f 696 849 223
f 696 223 721
f 887 712 740
f 712 887 890
f 723 861 695
f 861 723 859
f 918 919 920
f 919 918 921
f 917 922 916
f 922 917 923
f 920 924 925
f 924 920 919
f 926 898 895
f 898 926 927
f 682 928 929
f 928 682 681
f 676 930 931
f 930 676 678
f 932 933 934
f 933 932 935
f 936 937 938
f 937 936 939
f 940 922 923
f 922 940 941
f 942 943 944
f 943 942 945
f 946 947 948
f 947 946 926
f 939 949 937
f 949 939 924
f 950 951 952
f 951 950 953
f 681 954 928
f 954 681 684
f 955 956 957
f 956 955 958
f 918 676 921
f 676 918 679
f 952 945 942
f 945 952 951
f 958 938 956
f 938 958 936
f 959 960 961
f 960 959 962
f 963 926 946
f 926 963 927
f 962 964 960
f 964 962 931
f 965 941 940
f 941 965 966
f 967 968 969
f 968 967 970
f 971 966 965
f 966 971 972
f 934 927 963
f 927 934 933
f 927 906 898
f 906 927 933
f 973 972 971
f 972 973 925
f 944 955 957
f 955 944 943
f 948 970 967
f 970 948 947
f 949 961 974
f 961 949 959
f 969 953 950
f 953 969 968
f 913 910 912
f 910 913 908
f 975 976 977
f 976 975 978
f 979 980 981
f 980 979 982
f 931 983 964
f 983 931 930
f 984 985 986
f 985 984 987
f 988 989 990
f 989 988 991
f 992 993 994
f 993 992 995
f 996 997 998
f 997 996 999
f 1000 992 1001
f 992 1000 1002
f 977 1003 1004
f 1003 977 976
f 1005 1006 1007
f 1006 1005 1008
f 1009 987 1010
f 987 1009 1011
f 1002 1012 1013
f 1012 1002 1014
f 1015 1016 1017
f 1016 1015 1018
f 935 685 903
f 685 935 684
f 1014 1004 1012
f 1004 1014 977
f 997 1019 1020
f 1019 997 999
f 933 903 906
f 903 933 935
f 1021 1008 1005
f 1008 1021 990
f 976 1022 1003
f 1022 976 1023
f 987 1024 985
f 1024 987 1011
f 992 1013 995
f 1013 992 1002
f 1025 977 1014
f 977 1025 975
f 1011 993 1024
f 993 1011 994
f 1026 1011 1009
f 1011 1026 994
f 984 1017 1016
f 1017 984 986
f 1007 1027 1028
f 1027 1007 1006
f 990 1029 1008
f 1029 990 989
f 1023 998 1022
f 998 1023 996
f 1030 988 1031
f 988 1030 1032
f 1031 990 1021
f 990 1031 988
f 979 1032 1030
f 1032 979 981
f 1028 1018 1015
f 1018 1028 1027
f 1033 978 975
f 978 1033 1034
f 1035 1016 1036
f 1016 1035 984
f 988 1037 991
f 1037 988 1032
f 1038 1039 1040
f 1039 1038 1019
f 1006 1041 1027
f 1041 1006 1042
f 1041 1043 1044
f 1043 1041 1045
f 991 1046 989
f 1046 991 1047
f 1048 1026 1049
f 1026 1048 1001
f 978 1023 976
f 1023 978 1050
f 1001 994 1026
f 994 1001 992
f 1051 1035 1052
f 1035 1051 1010
f 1053 1025 1000
f 1025 1053 1054
f 1008 1042 1006
f 1042 1008 1029
f 1044 1055 1036
f 1055 1044 1043
f 1020 1038 1056
f 1038 1020 1019
f 1052 1036 1055
f 1036 1052 1035
f 1057 1010 1051
f 1010 1057 1009
f 989 1058 1029
f 1058 989 1046
f 1059 999 996
f 999 1059 1060
f 980 1040 1061
f 1040 980 1038
f 1027 1044 1018
f 1044 1027 1041
f 1019 1060 1039
f 1060 1019 999
f 1050 996 1023
f 996 1050 1059
f 1029 1062 1042
f 1062 1029 1058
f 1056 980 982
f 980 1056 1038
f 1049 1009 1057
f 1009 1049 1026
f 1000 1014 1002
f 1014 1000 1025
f 1032 1063 1037
f 1063 1032 981
f 1054 975 1025
f 975 1054 1033
f 1018 1036 1016
f 1036 1018 1044
f 1010 984 1035
f 984 1010 987
f 981 1061 1063
f 1061 981 980
f 1064 1059 1050
f 1059 1064 1065
f 1042 1045 1041
f 1045 1042 1062
f 1065 1060 1059
f 1060 1065 1066
f 1067 1068 1069
f 1068 1067 1070
f 1071 1072 1073
f 1072 1071 1074
f 1074 1075 1072
f 1075 1074 1076
f 1077 1065 1064
f 1065 1077 1078
f 1079 1048 1080
f 1048 1079 1053
f 1053 1001 1048
f 1001 1053 1000
f 1058 1081 1062
f 1081 1058 1082
f 1063 1071 1070
f 1071 1063 1061
f 1083 1057 1084
f 1057 1083 1049
f 1085 1034 1033
f 1034 1085 1086
f 1034 1050 978
f 1050 1034 1064
f 1087 1080 1088
f 1080 1087 1079
f 1039 1066 1076
f 1066 1039 1060
f 1061 1074 1071
f 1074 1061 1040
f 1040 1076 1074
f 1076 1040 1039
f 1062 1089 1045
f 1089 1062 1081
f 1080 1049 1083
f 1049 1080 1048
f 1090 1053 1079
f 1053 1090 1054
f 1037 1070 1067
f 1070 1037 1063
f 1091 1052 1092
f 1052 1091 1051
f 1047 1069 1093
f 1069 1047 1067
f 1046 1082 1058
f 1082 1046 1094
f 1065 1095 1066
f 1095 1065 1078
f 1096 1085 1090
f 1085 1096 1097
f 1070 1073 1068
f 1073 1070 1071
f 1076 1095 1075
f 1095 1076 1066
f 1092 1055 1098
f 1055 1092 1052
f 991 1067 1047
f 1067 991 1037
f 1090 1033 1054
f 1033 1090 1085
f 1069 911 908
f 911 1069 1068
f 1095 923 1075
f 923 1095 940
f 905 1092 1098
f 1092 905 904
f 679 1088 677
f 1088 679 1087
f 1045 1099 1043
f 1099 1045 1089
f 1100 1092 904
f 1092 1100 1091
f 897 1089 1081
f 1089 897 896
f 1094 913 902
f 913 1094 1093
f 1101 1084 1102
f 1084 1101 1083
f 907 1098 1099
f 1098 907 905
f 1094 900 1082
f 900 1094 902
f 1099 1055 1043
f 1055 1099 1098
f 1068 915 911
f 915 1068 1073
f 1078 940 1095
f 940 1078 965
f 1097 925 973
f 925 1097 920
f 1096 920 1097
f 920 1096 918
f 918 1087 679
f 1087 918 1096
f 683 904 685
f 904 683 1100
f 1086 971 1077
f 971 1086 973
f 687 1102 680
f 1102 687 1101
f 1072 923 917
f 923 1072 1075
f 1084 1051 1091
f 1051 1084 1057
f 1102 1091 1100
f 1091 1102 1084
f 1077 965 1078
f 965 1077 971
f 1046 1093 1094
f 1093 1046 1047
f 1088 1083 1101
f 1083 1088 1080
f 896 1099 1089
f 1099 896 907
f 900 1081 1082
f 1081 900 897
f 1096 1079 1087
f 1079 1096 1090
f 1086 1064 1034
f 1064 1086 1077
f 1085 973 1086
f 973 1085 1097
f 1093 908 913
f 908 1093 1069
f 1103 1104 1105
f 1104 1103 1106
f 852 1107 851
f 1107 852 1108
f 1109 879 880
f 879 1109 1110
f 1110 839 879
f 839 1110 1111
f 1112 889 890
f 889 1112 1113
f 1114 820 823
f 820 1114 1105
f 1115 1116 1117
f 1116 1115 1118
f 1119 1110 1109
f 1110 1119 1120
f 1107 1119 1109
f 1119 1107 1121
f 1122 1114 1123
f 1114 1122 1124
f 1124 1105 1114
f 1105 1124 1103
f 1125 1126 1127
f 1126 1125 1128
f 1129 1123 1130
f 1123 1129 1122
f 1104 876 822
f 876 1104 1131
f 1132 838 1133
f 838 1132 837
f 832 1134 818
f 1134 832 1135
f 834 1135 832
f 1135 834 1117
f 677 1101 687
f 1101 677 1088
f 1123 823 826
f 823 1123 1114
f 876 1115 875
f 1115 876 1131
f 1073 917 915
f 917 1073 1072
f 1130 826 830
f 826 1130 1123
f 1113 893 889
f 893 1113 891
f 1127 1136 1137
f 1136 1127 1126
f 1106 1131 1104
f 1131 1106 1138
f 844 1108 852
f 1108 844 1139
f 680 1100 683
f 1100 680 1102
f 1140 1141 1142
f 1141 1140 1143
f 1144 1132 1133
f 1132 1144 1145
f 1135 1146 1134
f 1146 1135 1147
f 851 1109 880
f 1109 851 1107
f 1131 1118 1115
f 1118 1131 1138
f 998 1148 1149
f 1148 998 997
f 1105 822 820
f 822 1105 1104
f 916 955 943
f 955 916 922
f 912 953 968
f 953 912 910
f 910 951 953
f 951 910 909
f 678 1150 930
f 1150 678 686
f 972 936 966
f 936 972 939
f 970 912 968
f 912 970 901
f 1142 827 836
f 827 1142 1141
f 841 1137 840
f 1137 841 1127
f 840 1139 844
f 1139 840 1137
f 924 959 949
f 959 924 919
f 834 1115 1117
f 1115 834 875
f 1151 997 1020
f 997 1151 1148
f 1022 1149 1152
f 1149 1022 998
f 1133 839 1111
f 839 1133 838
f 954 935 932
f 935 954 684
f 925 939 972
f 939 925 924
f 966 958 941
f 958 966 936
f 1141 830 827
f 830 1141 1130
f 1132 836 837
f 836 1132 1142
f 1153 1020 1056
f 1020 1153 1151
f 818 1154 819
f 1154 818 1134
f 947 895 899
f 895 947 926
f 941 955 922
f 955 941 958
f 845 1154 1125
f 1154 845 819
f 919 962 959
f 962 919 921
f 845 1127 841
f 1127 845 1125
f 914 943 945
f 943 914 916
f 1003 1152 1155
f 1152 1003 1022
f 951 914 945
f 914 951 909
f 1156 1157 1158
f 1157 1156 1159
f 1160 1056 982
f 1056 1160 1153
f 1161 1030 1031
f 1030 1161 1162
f 1004 1155 1163
f 1155 1004 1003
f 1152 1164 1165
f 1164 1152 1149
f 986 1166 1017
f 1166 986 1167
f 1024 1168 985
f 1168 1024 1169
f 1170 1162 1171
f 1162 1170 1172
f 1173 1174 1175
f 1174 1173 1176
f 1176 1007 1174
f 1007 1176 1005
f 1174 1028 1159
f 1028 1174 1007
f 1177 1160 1178
f 1160 1177 1153
f 1179 1176 1173
f 1176 1179 1180
f 1012 1163 1181
f 1163 1012 1004
f 1175 1159 1156
f 1159 1175 1174
f 1182 1153 1177
f 1153 1182 1151
f 985 1167 986
f 1167 985 1168
f 1155 1165 1183
f 1165 1155 1152
f 1162 979 1030
f 979 1162 1172
f 1178 1172 1170
f 1172 1178 1160
f 1172 982 979
f 982 1172 1160
f 1159 1015 1157
f 1015 1159 1028
f 1171 1161 1184
f 1161 1171 1162
f 686 929 1150
f 929 686 682
f 1185 1151 1182
f 1151 1185 1148
f 1184 1180 1179
f 1180 1184 1161
f 1161 1021 1180
f 1021 1161 1031
f 995 1186 1187
f 1186 995 1013
f 1013 1181 1186
f 1181 1013 1012
f 1180 1005 1176
f 1005 1180 1021
f 1157 1017 1166
f 1017 1157 1015
f 1158 1166 1188
f 1166 1158 1157
f 1186 1189 1190
f 1189 1186 1181
f 1149 1185 1164
f 1185 1149 1148
f 1183 1191 1192
f 1191 1183 1165
f 1193 1194 1195
f 1194 1193 1187
f 995 1193 993
f 1193 995 1187
f 1163 1183 1196
f 1183 1163 1155
f 1181 1196 1189
f 1196 1181 1163
f 1197 1177 1198
f 1177 1197 1182
f 1199 1184 1200
f 1184 1199 1171
f 1201 1188 1202
f 1188 1201 1158
f 1198 1178 1203
f 1178 1198 1177
f 1204 1171 1199
f 1171 1204 1170
f 1184 1205 1200
f 1205 1184 1179
f 1203 1170 1204
f 1170 1203 1178
f 1166 1206 1188
f 1206 1166 1167
f 1205 1173 1207
f 1173 1205 1179
f 1208 1182 1197
f 1182 1208 1185
f 1169 1195 1209
f 1195 1169 1193
f 1165 1210 1191
f 1210 1165 1164
f 1207 1175 1211
f 1175 1207 1173
f 1194 1212 1213
f 1212 1194 1190
f 1214 1158 1201
f 1158 1214 1156
f 1189 1215 1216
f 1215 1189 1196
f 1206 1217 1218
f 1217 1206 1219
f 1211 1156 1214
f 1156 1211 1175
f 1209 1220 1221
f 1220 1209 1195
f 1196 1192 1215
f 1192 1196 1183
f 1167 1219 1206
f 1219 1167 1168
f 1187 1190 1194
f 1190 1187 1186
f 993 1169 1024
f 1169 993 1193
f 1168 1209 1219
f 1209 1168 1169
f 1164 1208 1210
f 1208 1164 1185
f 1218 1222 1223
f 1222 1218 1217
f 1224 1198 1225
f 1198 1224 1197
f 1188 1218 1202
f 1218 1188 1206
f 1226 1199 1227
f 1199 1226 1204
f 921 931 962
f 931 921 676
f 1228 1211 1229
f 1211 1228 1207
f 1220 1230 1231
f 1230 1220 1213
f 1191 1232 1233
f 1232 1191 1210
f 1216 1234 1235
f 1234 1216 1215
f 1201 1236 1237
f 1236 1201 1202
f 1217 1238 1222
f 1238 1217 1221
f 1233 1239 1240
f 1239 1233 1232
f 1241 1224 1242
f 1224 1241 1243
f 1202 1223 1236
f 1223 1202 1218
f 1219 1221 1217
f 1221 1219 1209
f 1229 1214 1244
f 1214 1229 1211
f 1200 1245 1246
f 1245 1200 1205
f 970 899 901
f 899 970 947
f 1245 1207 1228
f 1207 1245 1205
f 1192 1233 1247
f 1233 1192 1191
f 1212 1189 1216
f 1189 1212 1190
f 1213 1248 1230
f 1248 1213 1212
f 1248 1216 1235
f 1216 1248 1212
f 1215 1247 1234
f 1247 1215 1192
f 1195 1213 1220
f 1213 1195 1194
f 1232 1208 1243
f 1208 1232 1210
f 1243 1197 1224
f 1197 1243 1208
f 1225 1203 1249
f 1203 1225 1198
f 1249 1204 1226
f 1204 1249 1203
f 1244 1201 1237
f 1201 1244 1214
f 1227 1200 1246
f 1200 1227 1199
f 1221 1231 1238
f 1231 1221 1220
f 1250 932 1251
f 932 1250 954
f 1150 1252 1253
f 1252 1150 929
f 1254 952 1255
f 952 1254 950
f 1256 950 1254
f 950 1256 969
f 957 1257 1258
f 1257 957 956
f 1228 1259 1260
f 1259 1228 1229
f 1261 967 1262
f 967 1261 948
f 1246 1263 1264
f 1263 1246 1245
f 1265 1226 1266
f 1226 1265 1249
f 930 1253 983
f 1253 930 1150
f 1267 948 1261
f 948 1267 946
f 1268 1233 1240
f 1233 1268 1247
f 1255 942 1269
f 942 1255 952
f 1229 1270 1259
f 1270 1229 1244
f 1239 1243 1241
f 1243 1239 1232
f 1251 934 1271
f 934 1251 932
f 929 1272 1252
f 1272 929 928
f 1236 1273 1274
f 1273 1236 1223
f 1223 1275 1273
f 1275 1223 1222
f 1270 1237 1276
f 1237 1270 1244
f 1237 1274 1276
f 1274 1237 1236
f 974 1277 1278
f 1277 974 961
f 1279 946 1267
f 946 1279 963
f 1262 969 1256
f 969 1262 967
f 1271 963 1279
f 963 1271 934
f 928 1250 1272
f 1250 928 954
f 1242 1225 1280
f 1225 1242 1224
f 1266 1227 1281
f 1227 1266 1226
f 1280 1249 1265
f 1249 1280 1225
f 1227 1264 1281
f 1264 1227 1246
f 1245 1260 1263
f 1260 1245 1228
f 1269 944 1282
f 944 1269 942
f 1238 1283 1284
f 1283 1238 1231
f 1258 1285 1286
f 1285 1258 1257
f 960 1287 1288
f 1287 960 964
f 1289 1247 1268
f 1247 1289 1234
f 983 1290 1291
f 1290 983 1253
f 956 1292 1257
f 1292 956 938
f 1277 960 1288
f 960 1277 961
f 1293 1261 1294
f 1261 1293 1267
f 1295 1267 1293
f 1267 1295 1279
f 1282 957 1258
f 957 1282 944
f 1252 1296 1297
f 1296 1252 1272
f 1261 1298 1294
f 1298 1261 1262
f 1231 1299 1283
f 1299 1231 1230
f 1300 1271 1301
f 1271 1300 1251
f 1302 1235 1303
f 1235 1302 1248
f 1253 1297 1290
f 1297 1253 1252
f 964 1291 1287
f 1291 964 983
f 1301 1279 1295
f 1279 1301 1271
f 1299 1248 1302
f 1248 1299 1230
f 1303 1234 1289
f 1234 1303 1235
f 1272 1304 1296
f 1304 1272 1250
f 1298 1256 1305
f 1256 1298 1262
f 1306 1255 1307
f 1255 1306 1254
f 937 974 1308
f 974 937 949
f 938 1308 1292
f 1308 938 937
f 1304 1251 1300
f 1251 1304 1250
f 1222 1284 1275
f 1284 1222 1238
f 1257 1309 1285
f 1309 1257 1292
f 1310 1258 1286
f 1258 1310 1282
f 888 1240 1311
f 1240 888 1268
f 1312 1282 1310
f 1282 1312 1269
f 1305 1254 1306
f 1254 1305 1256
f 1313 1305 1314
f 1305 1313 1298
f 1315 1286 1316
f 1286 1315 1310
f 1294 1313 1317
f 1313 1294 1298
f 1318 1241 1319
f 1241 1318 1239
f 1320 1310 1315
f 1310 1320 1312
f 1296 1321 1322
f 1321 1296 1304
f 1323 1265 1324
f 1265 1323 1280
f 1324 1266 1325
f 1266 1324 1265
f 1326 1288 1327
f 1288 1326 1277
f 1314 1306 1328
f 1306 1314 1305
f 1297 1322 1329
f 1322 1297 1296
f 1330 1277 1326
f 1277 1330 1278
f 1311 1239 1318
f 1239 1311 1240
f 1263 894 891
f 894 1263 1260
f 1292 1331 1309
f 1331 1292 1308
f 1264 891 1113
f 891 1264 1263
f 1304 1332 1321
f 1332 1304 1300
f 1295 1333 1334
f 1333 1295 1293
f 1308 1278 1331
f 1278 1308 974
f 1332 1301 1335
f 1301 1332 1300
f 1336 1280 1323
f 1280 1336 1242
f 1291 1337 1338
f 1337 1291 1290
f 1316 1285 1339
f 1285 1316 1286
f 1290 1329 1337
f 1329 1290 1297
f 1319 1242 1336
f 1242 1319 1241
f 1340 1312 1320
f 1312 1340 1307
f 1281 1113 1112
f 1113 1281 1264
f 1287 1338 1341
f 1338 1287 1291
f 1301 1334 1335
f 1334 1301 1295
f 1325 1281 1112
f 1281 1325 1266
f 1307 1269 1312
f 1269 1307 1255
f 1293 1317 1333
f 1317 1293 1294
f 1270 884 850
f 884 1270 1276
f 1139 1342 1108
f 1342 1139 1343
f 1338 1344 1120
f 1344 1338 1337
f 1313 1138 1106
f 1138 1313 1314
f 870 1268 888
f 1268 870 1289
f 1334 1124 1122
f 1124 1334 1333
f 1284 868 865
f 868 1284 1283
f 1260 847 894
f 847 1260 1259
f 1322 1140 1145
f 1140 1322 1321
f 1321 1143 1140
f 1143 1321 1332
f 1285 1345 1339
f 1345 1285 1309
f 1343 1326 1342
f 1326 1343 1330
f 1273 864 860
f 864 1273 1275
f 1341 1120 1119
f 1120 1341 1338
f 1276 862 884
f 862 1276 1274
f 1346 1278 1330
f 1278 1346 1331
f 1329 1145 1144
f 1145 1329 1322
f 1259 850 847
f 850 1259 1270
f 1275 865 864
f 865 1275 1284
f 1274 860 862
f 860 1274 1273
f 1328 1307 1340
f 1307 1328 1306
f 1342 1327 1121
f 1327 1342 1326
f 1332 1129 1143
f 1129 1332 1335
f 1317 1106 1103
f 1106 1317 1313
f 1337 1144 1344
f 1144 1337 1329
f 856 1318 857
f 1318 856 1311
f 1121 1341 1119
f 1341 1121 1327
f 1345 1331 1346
f 1331 1345 1309
f 1288 1341 1327
f 1341 1288 1287
f 1126 1346 1136
f 1346 1126 1345
f 1136 1330 1343
f 1330 1136 1346
f 1335 1122 1129
f 1122 1335 1334
f 1138 1328 1118
f 1328 1138 1314
f 1118 1340 1116
f 1340 1118 1328
f 1333 1103 1124
f 1103 1333 1317
f 1146 1316 1347
f 1316 1146 1315
f 1347 1339 1128
f 1339 1347 1316
f 873 1302 882
f 1302 873 1299
f 1147 1315 1146
f 1315 1147 1320
f 1128 1345 1126
f 1345 1128 1339
f 1324 887 878
f 887 1324 1325
f 854 1324 878
f 1324 854 1323
f 882 1303 872
f 1303 882 1302
f 1145 1142 1132
f 1142 1145 1140
f 1117 1147 1135
f 1147 1117 1116
f 1154 1128 1125
f 1128 1154 1347
f 1318 886 857
f 886 1318 1319
f 877 1311 856
f 1311 877 888
f 1120 1111 1110
f 1111 1120 1344
f 1336 854 853
f 854 1336 1323
f 1137 1343 1139
f 1343 1137 1136
f 887 1112 890
f 1112 887 1325
f 886 1336 853
f 1336 886 1319
f 1344 1133 1111
f 1133 1344 1144
f 1143 1130 1141
f 1130 1143 1129
f 1116 1320 1147
f 1320 1116 1340
f 872 1289 870
f 1289 872 1303
f 1283 873 868
f 873 1283 1299
f 1108 1121 1107
f 1121 1108 1342
f 1134 1347 1154
f 1347 1134 1146
f 834 818 832
f 818 834 875
f 818 875 819
f 819 875 845
f 845 875 876
f 845 876 841
f 841 876 822
f 841 822 820
f 841 820 840
f 840 820 844
f 844 820 823
f 844 823 826
f 844 826 852
f 852 826 830
f 852 830 851
f 851 830 880
f 880 830 827
f 880 827 836
f 880 836 879
f 879 836 839
f 839 836 837
f 839 837 838
f 1056 979 982
f 979 1056 1020
f 979 1020 1030
f 1030 1020 1031
f 1031 1020 997
f 1031 997 1021
f 1021 997 998
f 1021 998 1022
f 1021 1022 1005
f 1005 1022 1003
f 1005 1003 1007
f 1007 1003 1028
f 1028 1003 1004
f 1028 1004 1015
f 1015 1004 1012
f 1015 1012 1013
f 1015 1013 1017
f 1017 1013 986
f 986 1013 995
f 986 995 985
f 985 995 993
f 985 993 1024
