# j-hook.obj (EXERSUITE3D, cm)
v -4.043 -8.000 -6.564
v -1.492 -4.357 -6.564
v -4.043 8.000 -6.564
v -1.337 -4.729 -6.564
v -1.092 -5.049 -6.564
v -0.772 -5.294 -6.564
v 4.043 -8.000 -6.564
v -1.544 -3.957 -6.564
v -0.400 -5.448 -6.564
v -0.000 -5.501 -6.564
v 0.400 -5.448 -6.564
v 0.772 -5.294 -6.564
v 1.092 -5.049 -6.564
v 1.337 -4.729 -6.564
v 1.492 -4.357 -6.564
v 1.544 -3.957 -6.564
v 1.544 -0.676 -6.564
v 1.544 7.410 -6.564
v -1.544 7.410 -6.564
v 4.043 8.000 -6.564
v -1.544 -0.676 -6.564
v -1.492 -3.557 -6.564
v -1.337 -3.185 -6.564
v -1.092 -2.865 -6.564
v -0.772 -2.620 -6.564
v -0.400 -2.465 -6.564
v -0.000 -2.413 -6.564
v 0.400 -2.465 -6.564
v 0.772 -2.620 -6.564
v 1.092 -2.865 -6.564
v 1.337 -3.185 -6.564
v 1.492 -3.557 -6.564
v 3.498 12.000 -7.109
v 3.498 -12.000 -12.109
v 3.498 -12.000 -7.109
v 3.498 12.000 -12.109
v -4.043 -8.000 -12.654
v -4.043 8.000 -12.654
v 4.526 -8.000 -13.136
v 4.526 -12.000 -6.081
v 4.526 -12.000 -13.136
v 4.526 -8.000 -6.081
v -4.526 -12.000 -13.136
v -3.498 -12.000 -7.109
v -3.498 -12.000 -12.109
v -4.526 -12.000 -6.081
v -4.526 -8.000 -6.081
v -4.526 -8.000 -13.136
v -3.498 12.000 -12.109
v -3.498 12.000 -7.109
v 4.043 8.000 -12.654
v 4.043 -8.000 -12.654
v 4.526 8.000 -6.081
v -4.526 12.000 -6.081
v -4.526 8.000 -6.081
v 4.526 12.000 -6.081
v -4.526 8.000 -13.136
v -4.526 12.000 -13.136
v 4.526 12.000 -13.136
v 4.526 8.000 -13.136
v -2.169 -2.705 -2.564
v -2.419 -3.309 -4.064
v -2.419 -3.309 -2.564
v -2.169 -2.705 -4.064
v -2.505 -3.957 -2.564
v -2.419 -4.605 -4.064
v -2.419 -4.605 -2.564
v -2.505 -3.957 -4.064
v 1.544 -0.676 13.136
v -1.544 8.910 13.136
v -1.544 -0.676 13.136
v 1.544 8.910 13.136
v 0.648 -6.376 -2.564
v -0.000 -6.462 -4.064
v 0.648 -6.376 -4.064
v -0.000 -6.462 -2.564
v 1.252 -6.126 -2.564
v 1.252 -6.126 -4.064
v -1.252 -1.788 -2.564
v -0.648 -1.538 -4.064
v -1.252 -1.788 -4.064
v -0.648 -1.538 -2.564
v -1.492 -4.357 -2.664
v -1.492 -3.557 -2.664
v -1.544 -3.957 -2.664
v -1.337 -4.729 -2.664
v -1.337 -3.185 -2.664
v -1.092 -5.049 -2.664
v -1.092 -2.865 -2.664
v -0.772 -5.294 -2.664
v -0.772 -2.620 -2.664
v -0.400 -5.448 -2.664
v -0.400 -2.465 -2.664
v -0.000 -5.501 -2.664
v -0.000 -2.413 -2.664
v 0.400 -5.448 -2.664
v 0.400 -2.465 -2.664
v 0.772 -5.294 -2.664
v 0.772 -2.620 -2.664
v 1.092 -5.049 -2.664
v 1.092 -2.865 -2.664
v 1.337 -4.729 -2.664
v 1.337 -3.185 -2.664
v 1.492 -4.357 -2.664
v 1.492 -3.557 -2.664
v 1.544 -3.957 -2.664
v 1.771 -5.728 -2.564
v 1.771 -5.728 -4.064
v 2.169 -5.209 -4.064
v 2.169 -5.209 -2.564
v -0.400 -2.465 -4.064
v -0.000 -2.413 -4.064
v -0.772 -2.620 -4.064
v -2.169 -5.209 -4.064
v -1.771 -2.186 -4.064
v -1.771 -5.728 -4.064
v -1.544 -3.957 -4.064
v -1.492 -3.557 -4.064
v -1.337 -3.185 -4.064
v -1.092 -2.865 -4.064
v -0.000 -1.452 -4.064
v 0.648 -1.538 -4.064
v 0.400 -2.465 -4.064
v 0.772 -2.620 -4.064
v 1.252 -1.788 -4.064
v 1.092 -2.865 -4.064
v 1.337 -3.185 -4.064
v 1.771 -2.186 -4.064
v 1.492 -3.557 -4.064
v 1.544 -3.957 -4.064
v -1.492 -4.357 -4.064
v -1.252 -6.126 -4.064
v -1.337 -4.729 -4.064
v -1.092 -5.049 -4.064
v -0.648 -6.376 -4.064
v -0.772 -5.294 -4.064
v -0.400 -5.448 -4.064
v -0.000 -5.501 -4.064
v 0.400 -5.448 -4.064
v 0.772 -5.294 -4.064
v 1.092 -5.049 -4.064
v 1.337 -4.729 -4.064
v 1.492 -4.357 -4.064
v 2.169 -2.705 -4.064
v 2.419 -3.309 -4.064
v 2.419 -4.605 -4.064
v 2.505 -3.957 -4.064
v -1.544 7.410 12.587
v 1.544 7.410 12.587
v 2.169 -2.705 -2.564
v 1.771 -2.186 -2.564
v -0.000 -1.452 -2.564
v -2.169 -5.209 -2.564
v 2.419 -3.309 -2.564
v -1.771 -5.728 -2.564
v -1.544 8.910 12.587
v -1.771 -2.186 -2.564
v -1.544 -3.957 -2.564
v -1.492 -4.357 -2.564
v -1.252 -6.126 -2.564
v -1.337 -4.729 -2.564
v -1.092 -5.049 -2.564
v -0.648 -6.376 -2.564
v -0.772 -5.294 -2.564
v -0.400 -5.448 -2.564
v -0.000 -5.501 -2.564
v 0.400 -5.448 -2.564
v 0.772 -5.294 -2.564
v 1.092 -5.049 -2.564
v 1.337 -4.729 -2.564
v 1.492 -4.357 -2.564
v 1.544 -3.957 -2.564
v -1.492 -3.557 -2.564
v -1.337 -3.185 -2.564
v -1.092 -2.865 -2.564
v -0.772 -2.620 -2.564
v -0.400 -2.465 -2.564
v -0.000 -2.413 -2.564
v 0.400 -2.465 -2.564
v 0.648 -1.538 -2.564
v 0.772 -2.620 -2.564
v 1.252 -1.788 -2.564
v 1.092 -2.865 -2.564
v 1.337 -3.185 -2.564
v 1.492 -3.557 -2.564
v 2.419 -4.605 -2.564
v 2.505 -3.957 -2.564
v 1.544 8.910 12.587
f 1 2 3
f 2 1 4
f 4 1 5
f 5 1 6
f 6 1 7
f 3 2 8
f 6 7 9
f 9 7 10
f 10 7 11
f 11 7 12
f 12 7 13
f 13 7 14
f 14 7 15
f 15 7 16
f 16 7 17
f 17 7 18
f 3 19 20
f 19 3 8
f 19 8 21
f 20 19 18
f 20 18 7
f 22 21 8
f 21 22 23
f 21 23 24
f 21 24 17
f 17 24 25
f 17 25 26
f 17 26 27
f 17 27 28
f 17 28 29
f 17 29 30
f 17 30 31
f 17 31 32
f 17 32 16
f 33 34 35
f 34 33 36
f 3 37 1
f 37 3 38
f 39 40 41
f 40 39 42
f 41 34 43
f 34 41 40
f 34 40 35
f 35 40 44
f 43 45 46
f 45 43 34
f 46 45 44
f 46 44 40
f 47 43 46
f 43 47 48
f 34 49 45
f 49 34 36
f 40 47 46
f 47 40 42
f 49 44 45
f 44 49 50
f 51 7 52
f 7 51 20
f 39 43 48
f 43 39 41
f 33 44 50
f 44 33 35
f 51 37 38
f 37 51 52
f 48 37 39
f 37 48 47
f 37 47 1
f 1 47 7
f 39 52 42
f 52 39 37
f 42 52 7
f 42 7 47
f 53 54 55
f 54 53 56
f 54 57 55
f 57 54 58
f 58 49 59
f 49 58 54
f 49 54 50
f 50 54 33
f 59 36 56
f 36 59 49
f 56 36 33
f 56 33 54
f 60 51 57
f 51 60 53
f 51 53 20
f 20 53 3
f 57 38 55
f 38 57 51
f 55 38 3
f 55 3 53
f 59 53 60
f 53 59 56
f 59 57 58
f 57 59 60
f 61 62 63
f 62 61 64
f 65 66 67
f 66 65 68
f 69 70 71
f 70 69 72
f 73 74 75
f 74 73 76
f 77 75 78
f 75 77 73
f 79 80 81
f 80 79 82
f 83 84 85
f 84 83 86
f 84 86 87
f 87 86 88
f 87 88 89
f 89 88 90
f 89 90 91
f 91 90 92
f 91 92 93
f 93 92 94
f 93 94 95
f 95 94 96
f 95 96 97
f 97 96 98
f 97 98 99
f 99 98 100
f 99 100 101
f 101 100 102
f 101 102 103
f 103 102 104
f 103 104 105
f 105 104 106
f 69 21 17
f 21 69 71
f 107 78 108
f 78 107 77
f 109 107 108
f 107 109 110
f 95 111 112
f 111 95 93
f 93 113 111
f 113 93 91
f 62 66 68
f 66 62 64
f 66 64 114
f 114 64 115
f 114 115 116
f 116 115 117
f 117 115 118
f 118 115 81
f 118 81 119
f 119 81 120
f 120 81 80
f 120 80 113
f 113 80 111
f 111 80 121
f 111 121 112
f 112 121 122
f 112 122 123
f 123 122 124
f 124 122 125
f 124 125 126
f 126 125 127
f 127 125 128
f 127 128 129
f 129 128 130
f 116 131 132
f 131 116 117
f 132 131 133
f 132 133 134
f 132 134 135
f 135 134 136
f 135 136 137
f 135 137 74
f 74 137 138
f 74 138 139
f 74 139 75
f 75 139 140
f 75 140 78
f 78 140 141
f 78 141 142
f 78 142 108
f 108 142 143
f 108 143 130
f 108 130 128
f 108 128 144
f 108 144 109
f 109 144 145
f 109 145 146
f 146 145 147
f 148 18 19
f 18 148 149
f 128 150 144
f 150 128 151
f 82 121 80
f 121 82 152
f 67 114 153
f 114 67 66
f 144 154 145
f 154 144 150
f 63 68 65
f 68 63 62
f 153 116 155
f 116 153 114
f 112 28 27
f 28 112 123
f 111 27 26
f 27 111 112
f 71 148 21
f 148 71 70
f 148 70 156
f 19 21 148
f 113 26 25
f 26 113 111
f 67 63 65
f 63 67 153
f 63 153 61
f 61 153 155
f 61 155 157
f 157 155 158
f 158 155 159
f 159 155 160
f 159 160 161
f 161 160 162
f 162 160 163
f 162 163 164
f 164 163 165
f 165 163 76
f 165 76 166
f 166 76 73
f 166 73 167
f 167 73 168
f 168 73 77
f 168 77 169
f 169 77 170
f 170 77 107
f 170 107 171
f 171 107 172
f 157 173 79
f 173 157 158
f 79 173 174
f 79 174 175
f 79 175 82
f 82 175 176
f 82 176 177
f 82 177 152
f 152 177 178
f 152 178 179
f 152 179 180
f 180 179 181
f 180 181 182
f 182 181 183
f 182 183 184
f 182 184 151
f 151 184 185
f 151 185 172
f 151 172 107
f 151 107 110
f 151 110 150
f 150 110 186
f 150 186 154
f 154 186 187
f 182 128 125
f 128 182 151
f 157 81 115
f 81 157 79
f 120 25 24
f 25 120 113
f 120 23 119
f 23 120 24
f 119 22 118
f 22 119 23
f 157 64 61
f 64 157 115
f 118 8 117
f 8 118 22
f 180 125 122
f 125 180 182
f 160 116 132
f 116 160 155
f 163 132 135
f 132 163 160
f 76 135 74
f 135 76 163
f 18 69 17
f 69 18 149
f 69 149 72
f 72 149 188
f 97 112 123
f 112 97 95
f 152 122 121
f 122 152 180
f 178 93 95
f 93 178 177
f 118 85 117
f 85 118 84
f 131 86 133
f 86 131 83
f 168 100 98
f 100 168 169
f 138 9 10
f 9 138 137
f 185 106 172
f 106 185 105
f 86 162 88
f 162 86 161
f 136 5 6
f 5 136 134
f 171 102 170
f 102 171 104
f 133 5 134
f 5 133 4
f 166 96 94
f 96 166 167
f 167 98 96
f 98 167 168
f 32 130 16
f 130 32 129
f 117 2 131
f 2 117 8
f 146 110 109
f 110 146 186
f 172 104 171
f 104 172 106
f 91 120 113
f 120 91 89
f 124 30 29
f 30 124 126
f 165 94 92
f 94 165 166
f 162 90 88
f 90 162 164
f 85 159 83
f 159 85 158
f 16 143 15
f 143 16 130
f 14 141 13
f 141 14 142
f 120 87 119
f 87 120 89
f 179 95 97
f 95 179 178
f 183 103 184
f 103 183 101
f 119 84 118
f 84 119 87
f 141 12 13
f 12 141 140
f 89 174 87
f 174 89 175
f 15 142 14
f 142 15 143
f 117 83 131
f 83 117 85
f 133 88 134
f 88 133 86
f 176 89 91
f 89 176 175
f 139 10 11
f 10 139 138
f 137 6 9
f 6 137 136
f 183 99 101
f 99 183 181
f 84 158 85
f 158 84 173
f 177 91 93
f 91 177 176
f 88 136 134
f 136 88 90
f 90 137 136
f 137 90 92
f 30 127 31
f 127 30 126
f 164 92 90
f 92 164 165
f 96 140 139
f 140 96 98
f 98 141 140
f 141 98 100
f 181 97 99
f 97 181 179
f 104 142 102
f 142 104 143
f 92 138 137
f 138 92 94
f 106 143 104
f 143 106 130
f 145 187 147
f 187 145 154
f 83 161 86
f 161 83 159
f 105 130 106
f 130 105 129
f 131 4 133
f 4 131 2
f 31 129 32
f 129 31 127
f 184 105 185
f 105 184 103
f 94 139 138
f 139 94 96
f 103 129 105
f 129 103 127
f 102 141 100
f 141 102 142
f 170 100 169
f 100 170 102
f 140 11 12
f 11 140 139
f 147 186 146
f 186 147 187
f 87 173 84
f 173 87 174
f 123 29 28
f 29 123 124
f 70 188 156
f 188 70 72
f 101 127 103
f 127 101 126
f 101 124 126
f 124 101 99
f 99 123 124
f 123 99 97
f 188 148 156
f 148 188 149
