# jota-pr.obj (EXERSUITE3D, cm)
v -5.600 2.532 -3.502
v -5.600 6.509 -0.522
v -5.600 2.532 -0.522
v -5.600 6.509 -3.502
v -6.600 0.585 0.944
v -6.600 0.067 0.944
v -6.600 0.326 0.979
v -6.600 0.826 0.845
v -6.600 -0.174 0.845
v -6.600 1.033 0.686
v -6.600 -0.381 0.686
v -6.600 1.192 0.479
v -6.600 -0.540 0.479
v -6.600 1.292 0.237
v -6.600 -0.640 0.237
v -6.600 1.326 -0.021
v -6.600 -0.674 -0.021
v -6.600 1.292 -0.280
v -6.600 -0.640 -0.280
v -6.600 1.192 -0.521
v -6.600 -0.540 -0.521
v -6.600 1.033 -0.729
v -6.600 -0.381 -0.729
v -6.600 0.826 -0.887
v -6.600 -0.174 -0.887
v -6.600 0.585 -0.987
v -6.600 0.067 -0.987
v -6.600 0.326 -1.021
v -5.797 6.509 -3.697
v -5.797 2.532 -0.522
v -5.797 6.509 -0.522
v -5.797 2.532 -3.697
v 1.600 2.532 -3.697
v 1.600 6.509 -3.697
v 2.850 6.509 -1.752
v 1.600 6.509 -1.950
v 1.600 6.509 -1.752
v 2.850 6.509 -1.950
v 1.400 6.509 -3.502
v 1.600 6.509 -3.502
v 1.600 6.509 1.748
v 1.600 6.509 3.498
v 1.400 6.509 3.498
v 1.600 6.509 1.945
v 2.850 6.509 1.748
v 2.850 6.509 1.945
v 1.600 -2.516 3.697
v -5.796 -6.509 3.697
v 1.600 -6.509 3.697
v -5.796 -2.516 3.697
v -5.600 -6.509 0.503
v -5.600 -6.509 3.498
v -5.796 -6.509 0.503
v 1.400 -6.509 3.498
v 1.400 -6.509 -3.502
v 1.600 -6.509 1.748
v 1.600 -6.509 -1.752
v 1.600 -6.509 -3.502
v 1.600 -6.509 -1.950
v 1.600 -6.509 1.945
v 1.600 -6.509 3.498
v -5.796 -2.516 0.503
v -5.600 -2.516 3.498
v 1.400 -2.516 3.498
v 1.600 -2.516 3.498
v -5.600 -2.516 0.503
v 1.400 2.532 -3.502
v 1.400 -0.540 -0.521
v 1.400 -0.640 -0.280
v 1.400 -0.381 -0.729
v 1.400 -0.174 -0.887
v 1.400 0.067 -0.987
v 1.400 0.326 -1.021
v 1.400 0.585 -0.987
v 1.400 0.826 -0.887
v 1.400 1.033 -0.729
v 1.400 1.192 -0.521
v 1.400 1.292 -0.280
v 1.400 1.326 -0.021
v 1.400 1.292 0.237
v 1.400 1.192 0.479
v 1.400 1.033 0.686
v 1.400 0.826 0.845
v 1.400 0.585 0.944
v 1.400 0.326 0.979
v 1.400 0.067 0.944
v 1.400 -0.174 0.845
v 1.400 -0.381 0.686
v 1.400 -0.540 0.479
v 1.400 -0.640 0.237
v 1.400 -0.674 -0.021
v 1.600 2.532 -3.502
v 6.600 -1.509 1.748
v 6.600 1.509 1.945
v 6.600 -1.509 1.945
v 6.600 1.509 1.748
v 2.850 -6.509 1.945
v 2.850 -6.509 1.748
v 6.600 -1.509 -1.950
v 6.600 1.509 -1.752
v 6.600 -1.509 -1.752
v 6.600 1.509 -1.950
v 4.359 -0.966 -1.752
v 4.100 -1.000 -1.752
v 4.600 -0.866 -1.752
v 4.807 -0.707 -1.752
v 4.966 -0.500 -1.752
v 5.066 -0.259 -1.752
v 5.100 -0.000 -1.752
v 5.066 0.259 -1.752
v 4.966 0.500 -1.752
v 4.807 0.707 -1.752
v 4.600 0.866 -1.752
v 4.359 0.966 -1.752
v 4.100 1.000 -1.752
v 2.850 -6.509 -1.752
v 3.841 -0.966 -1.752
v 3.600 -0.866 -1.752
v 3.393 -0.707 -1.752
v 3.234 -0.500 -1.752
v 3.134 -0.259 -1.752
v 3.100 -0.000 -1.752
v 3.134 0.259 -1.752
v 3.234 0.500 -1.752
v 3.393 0.707 -1.752
v 3.600 0.866 -1.752
v 3.841 0.966 -1.752
v 2.850 -6.509 -1.950
v 3.134 -0.259 1.748
v 3.234 -0.500 1.748
v 3.393 -0.707 1.748
v 3.600 -0.866 1.748
v 3.841 -0.966 1.748
v 4.100 -1.000 1.748
v 3.100 -0.000 1.748
v 3.134 0.259 1.748
v 3.234 0.500 1.748
v 3.393 0.707 1.748
v 3.600 0.866 1.748
v 3.841 0.966 1.748
v 4.100 1.000 1.748
v 4.807 -0.707 1.748
v 4.600 -0.866 1.748
v 4.359 -0.966 1.748
v 4.966 -0.500 1.748
v 5.066 -0.259 1.748
v 5.100 -0.000 1.748
v 5.066 0.259 1.748
v 4.966 0.500 1.748
v 4.807 0.707 1.748
v 4.600 0.866 1.748
v 4.359 0.966 1.748
f 1 2 3
f 2 1 4
f 5 6 7
f 6 5 8
f 6 8 9
f 9 8 10
f 9 10 11
f 11 10 12
f 11 12 13
f 13 12 14
f 13 14 15
f 15 14 16
f 15 16 17
f 17 16 18
f 17 18 19
f 19 18 20
f 19 20 21
f 21 20 22
f 21 22 23
f 23 22 24
f 23 24 25
f 25 24 26
f 25 26 27
f 27 26 28
f 29 30 31
f 30 29 32
f 2 30 3
f 30 2 31
f 29 33 32
f 33 29 34
f 35 36 37
f 36 35 38
f 2 29 31
f 29 2 4
f 29 4 34
f 34 4 39
f 34 39 40
f 40 39 36
f 36 39 41
f 36 41 37
f 42 39 43
f 39 42 41
f 41 42 44
f 44 45 41
f 45 44 46
f 47 48 49
f 48 47 50
f 51 52 53
f 48 52 49
f 52 48 53
f 49 52 54
f 49 54 55
f 49 55 56
f 56 55 57
f 57 55 58
f 57 58 59
f 49 56 60
f 49 60 61
f 62 48 50
f 48 62 53
f 50 63 62
f 63 50 47
f 63 47 64
f 64 47 65
f 66 62 63
f 62 51 53
f 51 62 66
f 39 1 67
f 1 39 4
f 63 54 52
f 54 63 64
f 68 19 21
f 19 68 69
f 70 21 23
f 21 70 68
f 23 71 70
f 71 23 25
f 25 72 71
f 72 25 27
f 27 73 72
f 73 27 28
f 28 74 73
f 74 28 26
f 26 75 74
f 75 26 24
f 24 76 75
f 76 24 22
f 20 76 22
f 76 20 77
f 78 20 18
f 20 78 77
f 79 18 16
f 18 79 78
f 80 16 14
f 16 80 79
f 81 14 12
f 14 81 80
f 82 12 10
f 12 82 81
f 82 8 83
f 8 82 10
f 83 5 84
f 5 83 8
f 84 7 85
f 7 84 5
f 85 6 86
f 6 85 7
f 86 9 87
f 9 86 6
f 87 11 88
f 11 87 9
f 13 88 11
f 88 13 89
f 90 13 15
f 13 90 89
f 91 15 17
f 15 91 90
f 69 17 19
f 17 69 91
f 52 66 63
f 66 52 51
f 32 1 30
f 1 32 33
f 1 33 67
f 67 33 92
f 3 30 1
f 55 64 54
f 64 55 87
f 64 87 86
f 64 86 43
f 43 86 85
f 87 55 88
f 88 55 89
f 89 55 90
f 90 55 91
f 91 55 69
f 69 55 68
f 68 55 70
f 70 55 71
f 71 55 72
f 72 55 73
f 43 83 39
f 83 43 84
f 84 43 85
f 39 83 82
f 39 82 81
f 39 81 80
f 39 80 79
f 39 79 78
f 39 78 77
f 39 77 76
f 39 76 75
f 39 75 74
f 39 74 73
f 39 73 55
f 39 55 67
f 43 65 64
f 65 43 42
f 67 58 55
f 58 67 92
f 33 40 92
f 40 33 34
f 61 47 49
f 47 61 65
f 60 65 61
f 65 60 42
f 42 60 44
f 93 94 95
f 94 93 96
f 95 60 97
f 60 95 44
f 44 95 94
f 44 94 46
f 98 60 56
f 60 98 97
f 99 100 101
f 100 99 102
f 101 103 104
f 103 101 105
f 105 101 106
f 106 101 100
f 106 100 107
f 107 100 108
f 108 100 109
f 109 100 110
f 110 100 111
f 111 100 112
f 112 100 113
f 113 100 114
f 114 100 115
f 101 57 116
f 57 101 117
f 57 117 118
f 57 118 119
f 57 119 120
f 57 120 121
f 57 121 37
f 117 101 104
f 37 121 122
f 37 122 123
f 37 123 124
f 37 124 125
f 37 125 126
f 37 126 127
f 37 127 115
f 37 115 100
f 37 100 35
f 128 57 59
f 57 128 116
f 57 41 56
f 41 57 37
f 58 36 59
f 36 58 40
f 40 58 92
f 59 99 128
f 99 59 36
f 99 36 102
f 102 36 38
f 41 98 56
f 98 41 129
f 98 129 130
f 98 130 131
f 98 131 132
f 98 132 133
f 98 133 93
f 93 133 134
f 129 41 135
f 135 41 136
f 136 41 137
f 137 41 138
f 138 41 139
f 139 41 140
f 140 41 141
f 141 41 96
f 96 41 45
f 93 142 96
f 142 93 143
f 143 93 144
f 144 93 134
f 96 142 145
f 96 145 146
f 96 146 147
f 96 147 148
f 96 148 149
f 96 149 150
f 96 150 151
f 96 151 152
f 96 152 141
f 94 45 46
f 45 94 96
f 98 95 97
f 95 98 93
f 102 35 100
f 35 102 38
f 128 101 116
f 101 128 99
f 109 148 147
f 148 109 110
f 108 147 146
f 147 108 109
f 107 146 145
f 146 107 108
f 106 145 142
f 145 106 107
f 106 143 105
f 143 106 142
f 105 144 103
f 144 105 143
f 103 134 104
f 134 103 144
f 104 133 117
f 133 104 134
f 117 132 118
f 132 117 133
f 118 131 119
f 131 118 132
f 120 131 130
f 131 120 119
f 121 130 129
f 130 121 120
f 122 129 135
f 129 122 121
f 123 135 136
f 135 123 122
f 124 136 137
f 136 124 123
f 125 137 138
f 137 125 124
f 138 126 125
f 126 138 139
f 139 127 126
f 127 139 140
f 140 115 127
f 115 140 141
f 141 114 115
f 114 141 152
f 152 113 114
f 113 152 151
f 151 112 113
f 112 151 150
f 111 150 149
f 150 111 112
f 110 149 148
f 149 110 111
