# larguero-pr.obj (EXERSUITE3D, cm)
v -3.500 3.500 -53.000
v -3.295 3.295 -53.000
v -3.500 -3.500 -53.000
v 3.500 3.500 -53.000
v 3.295 3.295 -53.000
v 3.295 -3.295 -53.000
v -3.295 -3.295 -53.000
v 3.500 -3.500 -53.000
v -1.617 3.500 -49.893
v 1.743 3.500 -49.903
v -1.752 3.500 -49.905
v 1.610 3.500 -49.879
v -1.490 3.500 -49.846
v 1.487 3.500 -49.822
v -1.379 3.500 -49.768
v 1.384 3.500 -49.734
v -1.292 3.500 -49.664
v 1.307 3.500 -49.623
v -1.235 3.500 -49.540
v 1.261 3.500 -49.496
v -1.212 3.500 -49.407
v 1.250 3.500 -49.361
v -1.225 3.500 -49.272
v 1.274 3.500 -49.228
v -1.271 3.500 -49.144
v 1.332 3.500 -49.106
v -1.350 3.500 -49.033
v 1.419 3.500 -49.002
v -1.454 3.500 -48.947
v 1.530 3.500 -48.925
v -1.577 3.500 -48.890
v 1.658 3.500 -48.880
v -1.711 3.500 -48.867
v 1.792 3.500 -48.868
v -2.009 3.500 -49.825
v -2.114 3.500 -49.739
v -2.192 3.500 -49.628
v -2.239 3.500 -49.500
v -2.251 3.500 -49.365
v -3.500 3.500 53.000
v -1.886 3.500 -49.882
v -2.228 3.500 -49.231
v -2.171 3.500 -49.108
v -2.084 3.500 -49.004
v -1.973 3.500 -48.926
v -1.846 3.500 -48.879
v -2.227 3.500 49.300
v -2.178 3.500 49.186
v -2.102 3.500 49.090
v -2.003 3.500 49.016
v -1.888 3.500 48.970
v -1.766 3.500 48.956
v 1.784 3.500 48.918
v 1.656 3.500 48.930
v -2.245 3.500 49.422
v -2.231 3.500 49.544
v -2.185 3.500 49.659
v -2.112 3.500 49.758
v -2.015 3.500 49.835
v -1.902 3.500 49.884
v -1.780 3.500 49.902
v 1.751 3.500 49.902
v 2.285 3.500 -49.411
v 3.500 3.500 53.000
v 2.261 3.500 -49.544
v 2.203 3.500 -49.666
v 2.116 3.500 -49.769
v 2.005 3.500 -49.847
v 1.878 3.500 -49.892
v 2.274 3.500 -49.276
v 2.228 3.500 -49.149
v 2.151 3.500 -49.037
v 2.048 3.500 -48.950
v 1.926 3.500 -48.892
v 2.247 3.500 49.298
v 2.202 3.500 49.178
v 2.127 3.500 49.073
v 2.028 3.500 48.992
v 1.911 3.500 48.939
v 2.260 3.500 49.426
v 2.239 3.500 49.553
v 2.186 3.500 49.670
v 2.104 3.500 49.769
v 1.999 3.500 49.844
v 1.879 3.500 49.889
v 1.536 3.500 48.975
v -1.643 3.500 48.974
v -1.530 3.500 49.023
v 1.431 3.500 49.050
v -1.433 3.500 49.100
v 1.350 3.500 49.149
v -1.360 3.500 49.199
v 1.297 3.500 49.266
v -1.314 3.500 49.313
v 1.275 3.500 49.393
v -1.300 3.500 49.436
v 1.288 3.500 49.521
v -1.318 3.500 49.558
v 1.333 3.500 49.641
v -1.367 3.500 49.671
v 1.408 3.500 49.746
v -1.443 3.500 49.768
v 1.507 3.500 49.828
v -1.542 3.500 49.842
v 1.624 3.500 49.881
v -1.657 3.500 49.887
v 1.504 -3.500 48.962
v -1.753 -3.500 48.922
v 1.627 -3.500 48.912
v -1.629 -3.500 48.942
v -1.514 -3.500 48.992
v 1.399 -3.500 49.043
v -1.417 -3.500 49.070
v 1.318 -3.500 49.148
v -1.342 -3.500 49.171
v 1.268 -3.500 49.271
v -1.297 -3.500 49.288
v 1.250 -3.500 49.402
v -1.283 -3.500 49.413
v 1.267 -3.500 49.534
v -1.302 -3.500 49.537
v 1.318 -3.500 49.656
v -1.353 -3.500 49.652
v -1.431 -3.500 49.749
v 1.399 -3.500 49.762
v -1.532 -3.500 49.824
v 1.504 -3.500 49.843
v -1.649 -3.500 49.869
v 1.627 -3.500 49.893
v -1.774 -3.500 49.883
v 1.995 -3.500 -49.851
v 2.099 -3.500 -49.775
v 2.179 -3.500 -49.675
v 2.231 -3.500 -49.557
v 2.250 -3.500 -49.431
v 3.500 -3.500 53.000
v 1.876 -3.500 -49.898
v 1.748 -3.500 -49.912
v -1.750 -3.500 -49.914
v 2.236 -3.500 -49.303
v 2.190 -3.500 -49.183
v 2.113 -3.500 -49.080
v 2.013 -3.500 -48.999
v 1.896 -3.500 -48.948
v 1.769 -3.500 -48.928
v -1.553 -3.500 -48.927
v -1.682 -3.500 -48.883
v -1.817 -3.500 -48.874
v 2.249 -3.500 49.271
v 2.198 -3.500 49.149
v 2.118 -3.500 49.043
v 2.013 -3.500 48.963
v 1.890 -3.500 48.912
v 1.758 -3.500 48.894
v 2.266 -3.500 49.403
v 2.249 -3.500 49.534
v 2.198 -3.500 49.657
v 2.117 -3.500 49.762
v 2.012 -3.500 49.843
v 1.890 -3.500 49.893
v 1.758 -3.500 49.911
v -2.304 -3.500 -49.428
v -3.500 -3.500 53.000
v -2.277 -3.500 -49.561
v -2.217 -3.500 -49.683
v -2.127 -3.500 -49.785
v -2.014 -3.500 -49.861
v -1.886 -3.500 -49.905
v -2.295 -3.500 -49.292
v -2.251 -3.500 -49.163
v -2.175 -3.500 -49.050
v -2.073 -3.500 -48.961
v -1.951 -3.500 -48.901
v -2.224 -3.500 49.268
v -2.174 -3.500 49.154
v -2.096 -3.500 49.056
v -1.995 -3.500 48.982
v -1.878 -3.500 48.936
v -2.244 -3.500 49.392
v -2.230 -3.500 49.517
v -2.184 -3.500 49.634
v -2.110 -3.500 49.735
v -2.012 -3.500 49.813
v -1.898 -3.500 49.864
v -1.617 -3.500 -49.887
v 1.621 -3.500 -49.893
v 1.503 -3.500 -49.841
v -1.495 -3.500 -49.827
v 1.403 -3.500 -49.761
v -1.392 -3.500 -49.738
v 1.327 -3.500 -49.657
v -1.317 -3.500 -49.625
v 1.280 -3.500 -49.537
v -1.273 -3.500 -49.496
v 1.266 -3.500 -49.410
v -1.264 -3.500 -49.360
v 1.286 -3.500 -49.283
v -1.290 -3.500 -49.227
v 1.337 -3.500 -49.165
v -1.350 -3.500 -49.105
v 1.418 -3.500 -49.065
v -1.440 -3.500 -49.003
v 1.521 -3.500 -48.989
v 1.641 -3.500 -48.942
v -3.295 -3.295 53.000
v 3.295 -3.295 53.000
v 3.295 3.295 53.000
v -3.295 3.295 53.000
v 1.536 3.295 48.975
v -1.766 3.295 48.956
v 1.656 3.295 48.930
v -1.643 3.295 48.974
v -1.530 3.295 49.023
v 1.431 3.295 49.050
v -1.433 3.295 49.100
v 1.350 3.295 49.149
v -1.360 3.295 49.199
v 1.297 3.295 49.266
v -1.314 3.295 49.313
v 1.275 3.295 49.393
v -1.300 3.295 49.436
v 1.288 3.295 49.521
v -1.318 3.295 49.558
v 1.333 3.295 49.641
v -1.367 3.295 49.671
v 1.408 3.295 49.746
v -1.443 3.295 49.768
v 1.507 3.295 49.828
v -1.542 3.295 49.842
v 1.624 3.295 49.881
v -1.657 3.295 49.887
v 1.751 3.295 49.902
v -1.780 3.295 49.902
v 2.005 3.295 -49.847
v 2.116 3.295 -49.769
v 2.203 3.295 -49.666
v 2.261 3.295 -49.544
v 2.285 3.295 -49.411
v 1.878 3.295 -49.892
v 1.743 3.295 -49.903
v -1.752 3.295 -49.905
v 2.274 3.295 -49.276
v 2.228 3.295 -49.149
v 2.151 3.295 -49.037
v 2.048 3.295 -48.950
v 1.926 3.295 -48.892
v 1.792 3.295 -48.868
v -1.711 3.295 -48.867
v 2.247 3.295 49.298
v 2.202 3.295 49.178
v 2.127 3.295 49.073
v 2.028 3.295 48.992
v 1.911 3.295 48.939
v 1.784 3.295 48.918
v 2.260 3.295 49.426
v 2.239 3.295 49.553
v 2.186 3.295 49.670
v 2.104 3.295 49.769
v 1.999 3.295 49.844
v 1.879 3.295 49.889
v -2.251 3.295 -49.365
v -2.239 3.295 -49.500
v -2.192 3.295 -49.628
v -2.114 3.295 -49.739
v -2.009 3.295 -49.825
v -1.886 3.295 -49.882
v -2.228 3.295 -49.231
v -2.171 3.295 -49.108
v -2.084 3.295 -49.004
v -1.973 3.295 -48.926
v -1.846 3.295 -48.879
v -2.227 3.295 49.300
v -2.178 3.295 49.186
v -2.102 3.295 49.090
v -2.003 3.295 49.016
v -1.888 3.295 48.970
v -2.245 3.295 49.422
v -2.231 3.295 49.544
v -2.185 3.295 49.659
v -2.112 3.295 49.758
v -2.015 3.295 49.835
v -1.902 3.295 49.884
v -1.617 3.295 -49.893
v 1.610 3.295 -49.879
v -1.490 3.295 -49.846
v 1.487 3.295 -49.822
v -1.379 3.295 -49.768
v 1.384 3.295 -49.734
v -1.292 3.295 -49.664
v 1.307 3.295 -49.623
v -1.235 3.295 -49.540
v 1.261 3.295 -49.496
v -1.212 3.295 -49.407
v 1.250 3.295 -49.361
v -1.225 3.295 -49.272
v 1.274 3.295 -49.228
v -1.271 3.295 -49.144
v 1.332 3.295 -49.106
v -1.350 3.295 -49.033
v 1.419 3.295 -49.002
v -1.454 3.295 -48.947
v 1.530 3.295 -48.925
v -1.577 3.295 -48.890
v 1.658 3.295 -48.880
v -2.014 -3.295 -49.861
v -2.127 -3.295 -49.785
v -2.217 -3.295 -49.683
v -2.277 -3.295 -49.561
v -2.304 -3.295 -49.428
v -1.886 -3.295 -49.905
v -1.750 -3.295 -49.914
v -2.295 -3.295 -49.292
v -2.251 -3.295 -49.163
v -2.175 -3.295 -49.050
v -2.073 -3.295 -48.961
v -1.951 -3.295 -48.901
v -1.817 -3.295 -48.874
v -2.224 -3.295 49.268
v -2.174 -3.295 49.154
v -2.096 -3.295 49.056
v -1.995 -3.295 48.982
v -1.878 -3.295 48.936
v -1.753 -3.295 48.922
v 1.758 -3.295 48.894
v 1.627 -3.295 48.912
v -2.244 -3.295 49.392
v -2.230 -3.295 49.517
v -2.184 -3.295 49.634
v -2.110 -3.295 49.735
v -2.012 -3.295 49.813
v -1.898 -3.295 49.864
v -1.774 -3.295 49.883
v 1.627 -3.295 49.893
v 1.758 -3.295 49.911
v 2.250 -3.295 -49.431
v 2.231 -3.295 -49.557
v 2.179 -3.295 -49.675
v 2.099 -3.295 -49.775
v 1.995 -3.295 -49.851
v 1.876 -3.295 -49.898
v 1.748 -3.295 -49.912
v 2.236 -3.295 -49.303
v 2.190 -3.295 -49.183
v 2.113 -3.295 -49.080
v 2.013 -3.295 -48.999
v 1.896 -3.295 -48.948
v 1.769 -3.295 -48.928
v -1.553 -3.295 -48.927
v -1.682 -3.295 -48.883
v 2.249 -3.295 49.271
v 2.198 -3.295 49.149
v 2.118 -3.295 49.043
v 2.013 -3.295 48.963
v 1.890 -3.295 48.912
v 2.266 -3.295 49.403
v 2.249 -3.295 49.534
v 2.198 -3.295 49.657
v 2.117 -3.295 49.762
v 2.012 -3.295 49.843
v 1.890 -3.295 49.893
v 1.504 -3.295 48.962
v -1.629 -3.295 48.942
v -1.514 -3.295 48.992
v 1.399 -3.295 49.043
v -1.417 -3.295 49.070
v 1.318 -3.295 49.148
v -1.342 -3.295 49.171
v 1.268 -3.295 49.271
v -1.297 -3.295 49.288
v 1.250 -3.295 49.402
v -1.283 -3.295 49.413
v 1.267 -3.295 49.534
v -1.302 -3.295 49.537
v 1.318 -3.295 49.656
v -1.353 -3.295 49.652
v -1.431 -3.295 49.749
v 1.399 -3.295 49.762
v -1.532 -3.295 49.824
v 1.504 -3.295 49.843
v -1.649 -3.295 49.869
v -1.617 -3.295 -49.887
v 1.621 -3.295 -49.893
v 1.503 -3.295 -49.841
v -1.495 -3.295 -49.827
v 1.403 -3.295 -49.761
v -1.392 -3.295 -49.738
v 1.327 -3.295 -49.657
v -1.317 -3.295 -49.625
v 1.280 -3.295 -49.537
v -1.273 -3.295 -49.496
v 1.266 -3.295 -49.410
v -1.264 -3.295 -49.360
v 1.286 -3.295 -49.283
v -1.290 -3.295 -49.227
v 1.337 -3.295 -49.165
v -1.350 -3.295 -49.105
v 1.418 -3.295 -49.065
v -1.440 -3.295 -49.003
v 1.521 -3.295 -48.989
v 1.641 -3.295 -48.942
f 1 2 3
f 2 1 4
f 2 4 5
f 5 4 6
f 3 7 8
f 7 3 2
f 8 7 6
f 8 6 4
f 9 10 11
f 10 9 12
f 12 9 13
f 12 13 14
f 14 13 15
f 14 15 16
f 16 15 17
f 16 17 18
f 18 17 19
f 18 19 20
f 20 19 21
f 20 21 22
f 22 21 23
f 22 23 24
f 24 23 25
f 24 25 26
f 26 25 27
f 26 27 28
f 28 27 29
f 28 29 30
f 30 29 31
f 30 31 32
f 32 31 33
f 32 33 34
f 1 35 4
f 35 1 36
f 36 1 37
f 37 1 38
f 38 1 39
f 39 1 40
f 4 35 41
f 4 41 11
f 39 40 42
f 42 40 43
f 43 40 44
f 44 40 45
f 45 40 46
f 46 40 33
f 33 40 47
f 33 47 48
f 33 48 49
f 33 49 50
f 33 50 51
f 33 51 52
f 33 52 53
f 53 52 54
f 47 40 55
f 55 40 56
f 56 40 57
f 57 40 58
f 58 40 59
f 59 40 60
f 60 40 61
f 61 40 62
f 4 63 64
f 63 4 65
f 65 4 66
f 66 4 67
f 67 4 68
f 68 4 69
f 69 4 10
f 10 4 11
f 64 63 70
f 64 70 71
f 64 71 72
f 64 72 73
f 64 73 74
f 64 74 34
f 64 34 33
f 64 33 75
f 75 33 76
f 76 33 77
f 77 33 78
f 78 33 79
f 79 33 53
f 64 75 80
f 64 80 81
f 64 81 82
f 64 82 83
f 64 83 84
f 64 84 85
f 64 85 62
f 64 62 40
f 52 86 54
f 86 52 87
f 86 87 88
f 86 88 89
f 89 88 90
f 89 90 91
f 91 90 92
f 91 92 93
f 93 92 94
f 93 94 95
f 95 94 96
f 95 96 97
f 97 96 98
f 97 98 99
f 99 98 100
f 99 100 101
f 101 100 102
f 101 102 103
f 103 102 104
f 103 104 105
f 105 104 106
f 105 106 62
f 62 106 61
f 107 108 109
f 108 107 110
f 110 107 111
f 111 107 112
f 111 112 113
f 113 112 114
f 113 114 115
f 115 114 116
f 115 116 117
f 117 116 118
f 117 118 119
f 119 118 120
f 119 120 121
f 121 120 122
f 121 122 123
f 123 122 124
f 124 122 125
f 124 125 126
f 126 125 127
f 126 127 128
f 128 127 129
f 128 129 130
f 8 131 3
f 131 8 132
f 132 8 133
f 133 8 134
f 134 8 135
f 135 8 136
f 3 131 137
f 3 137 138
f 3 138 139
f 135 136 140
f 140 136 141
f 141 136 142
f 142 136 143
f 143 136 144
f 144 136 145
f 145 136 146
f 146 136 147
f 147 136 148
f 148 136 149
f 148 149 150
f 148 150 151
f 148 151 152
f 148 152 153
f 148 153 154
f 149 136 155
f 155 136 156
f 156 136 157
f 157 136 158
f 158 136 159
f 159 136 160
f 160 136 161
f 3 162 163
f 162 3 164
f 164 3 165
f 165 3 166
f 166 3 167
f 167 3 168
f 168 3 139
f 163 162 169
f 163 169 170
f 163 170 171
f 163 171 172
f 163 172 173
f 163 173 148
f 163 148 174
f 174 148 175
f 175 148 176
f 176 148 177
f 177 148 178
f 178 148 108
f 108 148 154
f 108 154 109
f 163 174 179
f 163 179 180
f 163 180 181
f 163 181 182
f 163 182 183
f 163 183 184
f 163 184 130
f 163 130 129
f 163 129 161
f 163 161 136
f 138 185 139
f 185 138 186
f 185 186 187
f 185 187 188
f 188 187 189
f 188 189 190
f 190 189 191
f 190 191 192
f 192 191 193
f 192 193 194
f 194 193 195
f 194 195 196
f 196 195 197
f 196 197 198
f 198 197 199
f 198 199 200
f 200 199 201
f 200 201 202
f 202 201 203
f 202 203 146
f 146 203 204
f 146 204 145
f 163 1 3
f 1 163 40
f 4 136 8
f 136 4 64
f 163 205 40
f 205 163 136
f 205 136 206
f 206 136 207
f 40 208 64
f 208 40 205
f 64 208 207
f 64 207 136
f 207 6 206
f 6 207 5
f 209 210 211
f 210 209 212
f 212 209 213
f 213 209 214
f 213 214 215
f 215 214 216
f 215 216 217
f 217 216 218
f 217 218 219
f 219 218 220
f 219 220 221
f 221 220 222
f 221 222 223
f 223 222 224
f 223 224 225
f 225 224 226
f 225 226 227
f 227 226 228
f 227 228 229
f 229 228 230
f 229 230 231
f 231 230 232
f 231 232 233
f 5 234 2
f 234 5 235
f 235 5 236
f 236 5 237
f 237 5 238
f 238 5 207
f 2 234 239
f 2 239 240
f 2 240 241
f 238 207 242
f 242 207 243
f 243 207 244
f 244 207 245
f 245 207 246
f 246 207 247
f 247 207 248
f 248 207 249
f 248 249 250
f 248 250 251
f 248 251 252
f 248 252 253
f 248 253 254
f 249 207 255
f 255 207 256
f 256 207 257
f 257 207 258
f 258 207 259
f 259 207 260
f 260 207 232
f 2 261 208
f 261 2 262
f 262 2 263
f 263 2 264
f 264 2 265
f 265 2 266
f 266 2 241
f 208 261 267
f 208 267 268
f 208 268 269
f 208 269 270
f 208 270 271
f 208 271 248
f 208 248 272
f 272 248 273
f 273 248 274
f 274 248 275
f 275 248 276
f 276 248 210
f 210 248 254
f 210 254 211
f 208 272 277
f 208 277 278
f 208 278 279
f 208 279 280
f 208 280 281
f 208 281 282
f 208 282 233
f 208 233 232
f 208 232 207
f 240 283 241
f 283 240 284
f 283 284 285
f 285 284 286
f 285 286 287
f 287 286 288
f 287 288 289
f 289 288 290
f 289 290 291
f 291 290 292
f 291 292 293
f 293 292 294
f 293 294 295
f 295 294 296
f 295 296 297
f 297 296 298
f 297 298 299
f 299 298 300
f 299 300 301
f 301 300 302
f 301 302 303
f 303 302 304
f 303 304 248
f 248 304 247
f 7 208 205
f 208 7 2
f 7 305 6
f 305 7 306
f 306 7 307
f 307 7 308
f 308 7 309
f 309 7 205
f 6 305 310
f 6 310 311
f 309 205 312
f 312 205 313
f 313 205 314
f 314 205 315
f 315 205 316
f 316 205 317
f 317 205 318
f 317 318 319
f 317 319 320
f 317 320 321
f 317 321 322
f 317 322 323
f 317 323 324
f 324 323 325
f 318 205 326
f 326 205 327
f 327 205 328
f 328 205 329
f 329 205 330
f 330 205 331
f 331 205 332
f 332 205 333
f 333 205 334
f 6 335 206
f 335 6 336
f 336 6 337
f 337 6 338
f 338 6 339
f 339 6 340
f 340 6 341
f 341 6 311
f 206 335 342
f 206 342 343
f 206 343 344
f 206 344 345
f 206 345 346
f 206 346 347
f 206 347 348
f 206 348 349
f 206 349 317
f 206 317 350
f 350 317 351
f 351 317 352
f 352 317 353
f 353 317 354
f 354 317 324
f 206 350 355
f 206 355 356
f 206 356 357
f 206 357 358
f 206 358 359
f 206 359 360
f 206 360 334
f 206 334 205
f 323 361 325
f 361 323 362
f 361 362 363
f 361 363 364
f 364 363 365
f 364 365 366
f 366 365 367
f 366 367 368
f 368 367 369
f 368 369 370
f 370 369 371
f 370 371 372
f 372 371 373
f 372 373 374
f 374 373 375
f 374 375 376
f 374 376 377
f 377 376 378
f 377 378 379
f 379 378 380
f 379 380 333
f 333 380 332
f 381 341 311
f 341 381 382
f 382 381 383
f 383 381 384
f 383 384 385
f 385 384 386
f 385 386 387
f 387 386 388
f 387 388 389
f 389 388 390
f 389 390 391
f 391 390 392
f 391 392 393
f 393 392 394
f 393 394 395
f 395 394 396
f 395 396 397
f 397 396 398
f 397 398 399
f 399 398 348
f 399 348 400
f 400 348 347
f 26 300 298
f 300 26 28
f 30 300 28
f 300 30 302
f 32 302 30
f 302 32 304
f 34 304 32
f 304 34 247
f 74 247 34
f 247 74 246
f 73 246 74
f 246 73 245
f 72 245 73
f 245 72 244
f 72 243 244
f 243 72 71
f 71 242 243
f 242 71 70
f 70 238 242
f 238 70 63
f 63 237 238
f 237 63 65
f 237 66 236
f 66 237 65
f 66 235 236
f 235 66 67
f 235 68 234
f 68 235 67
f 234 69 239
f 69 234 68
f 239 10 240
f 10 239 69
f 240 12 284
f 12 240 10
f 284 14 286
f 14 284 12
f 286 16 288
f 16 286 14
f 288 18 290
f 18 288 16
f 18 292 290
f 292 18 20
f 292 22 294
f 22 292 20
f 22 296 294
f 296 22 24
f 24 298 296
f 298 24 26
f 283 11 241
f 11 283 9
f 241 41 266
f 41 241 11
f 266 35 265
f 35 266 41
f 265 36 264
f 36 265 35
f 264 37 263
f 37 264 36
f 37 262 263
f 262 37 38
f 38 261 262
f 261 38 39
f 261 42 267
f 42 261 39
f 42 268 267
f 268 42 43
f 43 269 268
f 269 43 44
f 45 269 44
f 269 45 270
f 46 270 45
f 270 46 271
f 33 271 46
f 271 33 248
f 31 248 33
f 248 31 303
f 29 303 31
f 303 29 301
f 27 301 29
f 301 27 299
f 27 297 299
f 297 27 25
f 297 23 295
f 23 297 25
f 23 293 295
f 293 23 21
f 21 291 293
f 291 21 19
f 19 289 291
f 289 19 17
f 17 287 289
f 287 17 15
f 287 13 285
f 13 287 15
f 285 9 283
f 9 285 13
f 385 191 189
f 191 385 387
f 189 383 385
f 383 189 187
f 187 382 383
f 382 187 186
f 186 341 382
f 341 186 138
f 138 340 341
f 340 138 137
f 137 339 340
f 339 137 131
f 131 338 339
f 338 131 132
f 337 132 133
f 132 337 338
f 134 337 133
f 337 134 336
f 335 134 135
f 134 335 336
f 140 335 135
f 335 140 342
f 343 140 141
f 140 343 342
f 344 141 142
f 141 344 343
f 344 143 345
f 143 344 142
f 345 144 346
f 144 345 143
f 346 145 347
f 145 346 144
f 347 204 400
f 204 347 145
f 400 203 399
f 203 400 204
f 399 201 397
f 201 399 203
f 199 397 201
f 397 199 395
f 393 199 197
f 199 393 395
f 391 197 195
f 197 391 393
f 389 195 193
f 195 389 391
f 191 389 193
f 389 191 387
f 398 146 348
f 146 398 202
f 348 147 349
f 147 348 146
f 349 148 317
f 148 349 147
f 317 173 316
f 173 317 148
f 316 172 315
f 172 316 173
f 315 171 314
f 171 315 172
f 313 171 170
f 171 313 314
f 169 313 170
f 313 169 312
f 309 169 162
f 169 309 312
f 164 309 162
f 309 164 308
f 307 164 165
f 164 307 308
f 306 165 166
f 165 306 307
f 167 306 166
f 306 167 305
f 168 305 167
f 305 168 310
f 139 310 168
f 310 139 311
f 185 311 139
f 311 185 381
f 188 381 185
f 381 188 384
f 190 384 188
f 384 190 386
f 192 386 190
f 386 192 388
f 390 192 194
f 192 390 388
f 196 390 194
f 390 196 392
f 394 196 198
f 196 394 392
f 396 198 200
f 198 396 394
f 202 396 200
f 396 202 398
f 278 57 279
f 57 278 56
f 57 280 279
f 280 57 58
f 59 280 58
f 280 59 281
f 60 281 59
f 281 60 282
f 61 282 60
f 282 61 233
f 106 233 61
f 233 106 231
f 104 231 106
f 231 104 229
f 102 229 104
f 229 102 227
f 102 225 227
f 225 102 100
f 100 223 225
f 223 100 98
f 223 96 221
f 96 223 98
f 96 219 221
f 219 96 94
f 94 217 219
f 217 94 92
f 217 90 215
f 90 217 92
f 215 88 213
f 88 215 90
f 213 87 212
f 87 213 88
f 212 52 210
f 52 212 87
f 210 51 276
f 51 210 52
f 276 50 275
f 50 276 51
f 275 49 274
f 49 275 50
f 274 48 273
f 48 274 49
f 48 272 273
f 272 48 47
f 47 277 272
f 277 47 55
f 55 278 277
f 278 55 56
f 85 232 62
f 232 85 260
f 84 260 85
f 260 84 259
f 83 259 84
f 259 83 258
f 83 257 258
f 257 83 82
f 257 81 256
f 81 257 82
f 256 80 255
f 80 256 81
f 80 249 255
f 249 80 75
f 75 250 249
f 250 75 76
f 76 251 250
f 251 76 77
f 251 78 252
f 78 251 77
f 252 79 253
f 79 252 78
f 253 53 254
f 53 253 79
f 254 54 211
f 54 254 53
f 211 86 209
f 86 211 54
f 209 89 214
f 89 209 86
f 214 91 216
f 91 214 89
f 91 218 216
f 218 91 93
f 93 220 218
f 220 93 95
f 95 222 220
f 222 95 97
f 97 224 222
f 224 97 99
f 224 101 226
f 101 224 99
f 103 226 101
f 226 103 228
f 105 228 103
f 228 105 230
f 62 230 105
f 230 62 232
f 327 181 180
f 181 327 328
f 326 180 179
f 180 326 327
f 318 179 174
f 179 318 326
f 319 174 175
f 174 319 318
f 320 175 176
f 175 320 319
f 177 320 176
f 320 177 321
f 178 321 177
f 321 178 322
f 108 322 178
f 322 108 323
f 110 323 108
f 323 110 362
f 111 362 110
f 362 111 363
f 113 363 111
f 363 113 365
f 367 113 115
f 113 367 365
f 369 115 117
f 115 369 367
f 119 369 117
f 369 119 371
f 373 119 121
f 119 373 371
f 123 373 121
f 373 123 375
f 376 123 124
f 123 376 375
f 376 126 378
f 126 376 124
f 378 128 380
f 128 378 126
f 380 130 332
f 130 380 128
f 332 184 331
f 184 332 130
f 331 183 330
f 183 331 184
f 330 182 329
f 182 330 183
f 181 329 182
f 329 181 328
f 109 361 107
f 361 109 325
f 154 325 109
f 325 154 324
f 153 324 154
f 324 153 354
f 152 354 153
f 354 152 353
f 151 353 152
f 353 151 352
f 150 352 151
f 352 150 351
f 350 150 149
f 150 350 351
f 355 149 155
f 149 355 350
f 356 155 156
f 155 356 355
f 357 156 157
f 156 357 356
f 158 357 157
f 357 158 358
f 358 159 359
f 159 358 158
f 359 160 360
f 160 359 159
f 360 161 334
f 161 360 160
f 334 129 333
f 129 334 161
f 333 127 379
f 127 333 129
f 379 125 377
f 125 379 127
f 374 125 122
f 125 374 377
f 120 374 122
f 374 120 372
f 118 372 120
f 372 118 370
f 368 118 116
f 118 368 370
f 366 116 114
f 116 366 368
f 364 114 112
f 114 364 366
f 107 364 112
f 364 107 361
