# manguito-guia-ttp.obj (EXERSUITE3D, cm)
v -2.030 -26.050 0.003
v -1.961 -27.050 0.529
v -2.030 -27.050 0.003
v -1.961 -26.050 0.529
v 2.030 -26.050 0.003
v 1.961 -27.050 -0.522
v 2.030 -27.050 0.003
v 1.961 -26.050 -0.522
v 0.525 -27.050 -1.958
v 0.000 -26.050 -2.027
v 0.000 -27.050 -2.027
v 0.525 -26.050 -1.958
v 0.000 -26.050 2.034
v -0.525 -27.050 1.964
v -0.525 -26.050 1.964
v 0.000 -27.050 2.034
v 0.525 -26.050 1.964
v 0.525 -27.050 1.964
v 1.015 -26.050 1.762
v 1.015 -27.050 1.762
v 1.436 -26.050 1.439
v 1.758 -27.050 1.019
v 1.436 -27.050 1.439
v 1.758 -26.050 1.019
v -1.758 -27.050 1.019
v -1.758 -26.050 1.019
v 1.758 -26.050 -1.012
v 1.436 -27.050 -1.432
v 1.758 -27.050 -1.012
v 1.436 -26.050 -1.432
v 1.961 -26.050 0.529
v 1.961 -27.050 0.529
v 1.015 -26.050 -1.755
v 1.015 -27.050 -1.755
v -0.525 -26.050 -1.958
v -0.525 -27.050 -1.958
v -1.015 -26.050 1.762
v -1.436 -27.050 1.439
v -1.436 -26.050 1.439
v -1.015 -27.050 1.762
v 0.776 -27.050 -2.894
v -0.776 -27.050 -2.894
v 0.000 -27.050 -2.997
v 1.500 -27.050 -2.595
v -1.500 -27.050 -2.595
v 2.121 -27.050 -2.118
v -2.121 -27.050 -2.118
v 2.598 -27.050 -1.497
v 2.898 -27.050 -0.773
v 3.000 -27.050 0.003
v 2.898 -27.050 0.780
v 2.598 -27.050 1.503
v 2.121 -27.050 2.125
v -2.598 -27.050 -1.497
v -1.015 -27.050 -1.755
v -1.436 -27.050 -1.432
v -2.898 -27.050 -0.773
v -1.758 -27.050 -1.012
v -1.961 -27.050 -0.522
v -3.000 -27.050 0.003
v -2.898 -27.050 0.780
v -2.598 -27.050 1.503
v -2.121 -27.050 2.125
v 1.500 -27.050 2.601
v -1.500 -27.050 2.601
v 0.776 -27.050 2.901
v -0.776 -27.050 2.901
v 0.000 -27.050 3.003
v -1.436 -26.050 -1.432
v -1.758 -26.050 -1.012
v -1.961 -26.050 -0.522
v -1.015 -26.050 -1.755
v 2.121 -26.050 -2.118
v 1.500 -26.050 -2.595
v -1.500 -26.050 2.601
v -0.776 -26.050 2.901
v 0.776 -26.050 -2.894
v -2.898 -26.050 -0.773
v -2.598 -26.050 -1.497
v -0.776 -26.050 -2.894
v 0.000 -26.050 -2.997
v -1.500 -26.050 -2.595
v -2.121 -26.050 -2.118
v -3.000 -26.050 0.003
v -2.898 -26.050 0.780
v -2.598 -26.050 1.503
v -2.121 -26.050 2.125
v 2.598 -26.050 -1.497
v 2.898 -26.050 -0.773
v 3.000 -26.050 0.003
v 2.898 -26.050 0.780
v 2.598 -26.050 1.503
v 2.121 -26.050 2.125
v 1.500 -26.050 2.601
v 0.776 -26.050 2.901
v 0.000 -26.050 3.003
v -2.030 27.050 -0.003
v -1.961 26.050 0.522
v -2.030 26.050 -0.003
v -1.961 27.050 0.522
v 2.030 27.050 -0.003
v 1.961 26.050 -0.529
v 2.030 26.050 -0.003
v 1.961 27.050 -0.529
v 0.525 26.050 -1.964
v 0.000 27.050 -2.034
v 0.000 26.050 -2.034
v 0.525 27.050 -1.964
v 0.000 27.050 2.027
v -0.525 26.050 1.958
v -0.525 27.050 1.958
v 0.000 26.050 2.027
v 0.525 27.050 1.958
v 0.525 26.050 1.958
v 1.015 27.050 1.755
v 1.015 26.050 1.755
v 1.436 27.050 1.432
v 1.758 26.050 1.012
v 1.436 26.050 1.432
v 1.758 27.050 1.012
v -1.758 26.050 1.012
v -1.758 27.050 1.012
v 1.758 27.050 -1.019
v 1.436 26.050 -1.439
v 1.758 26.050 -1.019
v 1.436 27.050 -1.439
v 1.961 27.050 0.522
v 1.961 26.050 0.522
v 1.015 27.050 -1.762
v 1.015 26.050 -1.762
v -0.525 27.050 -1.964
v -0.525 26.050 -1.964
v -1.015 27.050 1.755
v -1.436 26.050 1.432
v -1.436 27.050 1.432
v -1.015 26.050 1.755
v 0.776 26.050 -2.901
v -0.776 26.050 -2.901
v 0.000 26.050 -3.003
v 1.500 26.050 -2.601
v -1.500 26.050 -2.601
v 2.121 26.050 -2.125
v -2.121 26.050 -2.125
v 2.598 26.050 -1.503
v 2.898 26.050 -0.780
v 3.000 26.050 -0.003
v 2.898 26.050 0.773
v 2.598 26.050 1.497
v 2.121 26.050 2.118
v -2.598 26.050 -1.503
v -1.015 26.050 -1.762
v -1.436 26.050 -1.439
v -2.898 26.050 -0.780
v -1.758 26.050 -1.019
v -1.961 26.050 -0.529
v -3.000 26.050 -0.003
v -2.898 26.050 0.773
v -2.598 26.050 1.497
v -2.121 26.050 2.118
v 1.500 26.050 2.595
v -1.500 26.050 2.595
v 0.776 26.050 2.894
v -0.776 26.050 2.894
v 0.000 26.050 2.997
v -1.436 27.050 -1.439
v -1.758 27.050 -1.019
v -1.961 27.050 -0.529
v -1.015 27.050 -1.762
v 2.121 27.050 -2.125
v 1.500 27.050 -2.601
v -1.500 27.050 2.595
v -0.776 27.050 2.894
v 0.776 27.050 -2.901
v -2.898 27.050 -0.780
v -2.598 27.050 -1.503
v -0.776 27.050 -2.901
v 0.000 27.050 -3.003
v -1.500 27.050 -2.601
v -2.121 27.050 -2.125
v -3.000 27.050 -0.003
v -2.898 27.050 0.773
v -2.598 27.050 1.497
v -2.121 27.050 2.118
v 2.598 27.050 -1.503
v 2.898 27.050 -0.780
v 3.000 27.050 -0.003
v 2.898 27.050 0.773
v 2.598 27.050 1.497
v 2.121 27.050 2.118
v 1.500 27.050 2.595
v 0.776 27.050 2.894
v 0.000 27.050 2.997
v 0.776 -21.850 2.901
v 0.000 -21.650 3.003
v 0.000 -21.850 3.003
v 0.776 -21.650 2.901
v 2.598 -21.650 -1.497
v 2.898 -21.850 -0.773
v 2.598 -21.850 -1.497
v 2.898 -21.650 -0.773
v 0.569 -21.650 2.128
v 0.000 -21.850 2.203
v 0.000 -21.650 2.203
v 0.569 -21.850 2.128
v 2.125 -21.650 0.573
v 2.200 -21.850 0.003
v 2.125 -21.850 0.573
v 2.200 -21.650 0.003
v -2.125 -21.650 0.573
v -1.905 -21.850 1.103
v -2.125 -21.850 0.573
v -1.905 -21.650 1.103
v 1.500 -21.850 2.601
v 1.500 -21.650 2.601
v -0.569 -21.850 2.128
v -0.569 -21.650 2.128
v -1.100 -21.850 -1.902
v -1.556 -21.650 -1.552
v -1.556 -21.850 -1.552
v -1.100 -21.650 -1.902
v 1.100 -21.850 -1.902
v 0.569 -21.650 -2.122
v 0.569 -21.850 -2.122
v 1.100 -21.650 -1.902
v -0.569 -21.850 -2.122
v -0.569 -21.650 -2.122
v -0.478 -21.850 -1.939
v 0.557 -21.850 -1.918
v 0.041 -21.850 -1.996
v -0.965 -21.850 -1.749
v 1.035 -21.850 -1.708
v -1.385 -21.850 -1.439
v 1.443 -21.850 -1.382
v -1.711 -21.850 -1.032
v 1.752 -21.850 -0.961
v -1.921 -21.850 -0.553
v 1.942 -21.850 -0.475
v -2.000 -21.850 -0.037
v 2.000 -21.850 0.044
v -1.942 -21.850 0.482
v 1.921 -21.850 0.560
v -1.752 -21.850 0.968
v 1.711 -21.850 1.038
v -1.443 -21.850 1.389
v 1.385 -21.850 1.446
v -1.035 -21.850 1.715
v 0.965 -21.850 1.755
v -0.557 -21.850 1.924
v 0.478 -21.850 1.945
v -0.041 -21.850 2.003
v -2.121 -21.650 2.125
v -2.598 -21.850 1.503
v -2.121 -21.850 2.125
v -2.598 -21.650 1.503
v 2.125 -21.650 -0.566
v 1.905 -21.850 -1.097
v 2.125 -21.850 -0.566
v 1.905 -21.650 -1.097
v 0.776 -21.650 -2.894
v 0.000 -21.850 -2.997
v 0.000 -21.650 -2.997
v 0.776 -21.850 -2.894
v -2.598 -21.650 -1.497
v -2.121 -21.850 -2.118
v -2.598 -21.850 -1.497
v -2.121 -21.650 -2.118
v -1.500 -21.850 2.601
v -1.500 -21.650 2.601
v 1.905 -21.650 1.103
v 1.905 -21.850 1.103
v 2.121 -21.650 -2.118
v 1.500 -21.850 -2.595
v 1.500 -21.650 -2.595
v 2.121 -21.850 -2.118
v 1.556 -21.650 1.559
v 1.556 -21.850 1.559
v -1.556 -21.850 1.559
v -1.556 -21.650 1.559
v -1.100 -21.650 1.909
v -1.100 -21.850 1.909
v -2.125 -21.650 -0.566
v -2.200 -21.850 0.003
v -2.125 -21.850 -0.566
v -2.200 -21.650 0.003
v 3.000 -21.650 0.003
v 2.898 -21.850 0.780
v 3.000 -21.850 0.003
v 2.898 -21.650 0.780
v -3.000 -21.650 0.003
v -2.898 -21.850 -0.773
v -3.000 -21.850 0.003
v -2.898 -21.650 -0.773
v 1.100 -21.850 1.909
v 1.100 -21.650 1.909
v -1.905 -21.850 -1.097
v -1.905 -21.650 -1.097
v -0.776 -21.650 -2.894
v -1.500 -21.850 -2.595
v -1.500 -21.650 -2.595
v -0.776 -21.850 -2.894
v 0.000 -21.650 -2.197
v 0.000 -21.850 -2.197
v -2.898 -21.650 0.780
v 1.556 -21.650 -1.552
v 2.598 -21.650 1.503
v 2.121 -21.650 2.125
v -0.776 -21.650 2.901
v -2.898 -21.850 0.780
v -0.776 -21.850 2.901
v 2.121 -21.850 2.125
v 2.598 -21.850 1.503
v 1.556 -21.850 -1.552
v 0.041 23.350 -1.996
v 0.557 23.350 -1.918
v 2.000 23.350 0.044
v 1.942 23.350 -0.475
v 0.478 23.350 1.945
v -0.041 23.350 2.003
v -0.478 23.350 -1.939
v -1.385 23.350 -1.439
v -0.965 23.350 -1.749
v -1.921 23.350 -0.553
v -2.000 23.350 -0.037
v -1.942 23.350 0.482
v -1.711 23.350 -1.032
v 1.035 23.350 -1.708
v 1.385 23.350 1.446
v 1.711 23.350 1.038
v -0.557 23.350 1.924
v -1.035 23.350 1.715
v -1.443 23.350 1.389
v -1.752 23.350 0.968
v 0.965 23.350 1.755
v 1.752 23.350 -0.961
v 1.443 23.350 -1.382
v 1.921 23.350 0.560
v 2.125 23.150 -0.566
v 2.200 23.150 0.003
v 1.556 23.150 -1.552
v 1.905 23.150 -1.097
v -1.556 23.150 1.559
v -1.100 23.150 1.909
v -0.569 23.150 -2.122
v -1.100 23.150 -1.902
v 0.000 23.150 2.203
v 0.569 23.150 2.128
v 1.905 23.150 1.103
v 1.556 23.150 1.559
v -0.569 23.150 2.128
v 1.100 23.150 -1.902
v 0.569 23.150 -2.122
v 2.125 23.150 0.573
v 1.100 23.150 1.909
v 0.000 23.150 -2.197
v -1.905 23.150 1.103
v -2.125 23.150 0.573
v -2.200 23.150 0.003
v -2.125 23.150 -0.566
v -1.556 23.150 -1.552
v -1.905 23.150 -1.097
v 0.775 23.150 -2.888
v -0.775 23.150 -2.888
v 0.000 23.150 -2.990
v 1.497 23.150 -2.589
v -1.497 23.150 -2.589
v 2.116 23.150 -2.113
v 2.592 23.150 -1.493
v 2.891 23.150 -0.771
v 2.993 23.150 0.003
v 2.891 23.150 0.778
v 2.592 23.150 1.500
v 2.116 23.150 2.120
v 1.497 23.150 2.596
v -2.116 23.150 -2.113
v -2.592 23.150 -1.493
v -2.891 23.150 -0.771
v -2.993 23.150 0.003
v -2.891 23.150 0.778
v -2.592 23.150 1.500
v -2.116 23.150 2.120
v -1.497 23.150 2.596
v 0.775 23.150 2.895
v -0.775 23.150 2.895
v 0.000 23.150 2.997
v 2.592 23.350 -1.493
v 2.891 23.350 -0.771
v 2.116 23.350 -2.113
v -2.592 23.350 -1.493
v -2.116 23.350 -2.113
v 1.497 23.350 -2.589
v 0.775 23.350 -2.888
v 0.000 23.350 -2.990
v -0.775 23.350 -2.888
v -1.497 23.350 -2.589
v -2.891 23.350 -0.771
v -2.993 23.350 0.003
v -2.891 23.350 0.778
v -2.592 23.350 1.500
v -2.116 23.350 2.120
v 2.993 23.350 0.003
v 2.891 23.350 0.778
v 2.592 23.350 1.500
v 2.116 23.350 2.120
v -1.497 23.350 2.596
v 1.497 23.350 2.596
v -0.775 23.350 2.895
v 0.775 23.350 2.895
v 0.000 23.350 2.997
f 1 2 3
f 2 1 4
f 5 6 7
f 6 5 8
f 9 10 11
f 10 9 12
f 13 14 15
f 14 13 16
f 17 16 13
f 16 17 18
f 19 18 17
f 18 19 20
f 21 22 23
f 22 21 24
f 4 25 2
f 25 4 26
f 27 28 29
f 28 27 30
f 31 7 32
f 7 31 5
f 21 20 19
f 20 21 23
f 24 32 22
f 32 24 31
f 28 33 34
f 33 28 30
f 11 35 36
f 35 11 10
f 37 38 39
f 38 37 40
f 41 42 43
f 42 41 44
f 42 44 45
f 45 44 46
f 45 46 47
f 47 46 11
f 11 46 9
f 9 46 48
f 9 48 34
f 34 48 28
f 28 48 49
f 28 49 29
f 29 49 6
f 6 49 50
f 6 50 7
f 7 50 51
f 7 51 32
f 32 51 22
f 22 51 52
f 22 52 23
f 23 52 20
f 20 52 53
f 20 53 18
f 18 53 16
f 47 36 54
f 36 47 11
f 54 36 55
f 54 55 56
f 54 56 57
f 57 56 58
f 57 58 59
f 57 59 60
f 60 59 3
f 60 3 2
f 60 2 61
f 61 2 25
f 61 25 62
f 62 25 38
f 62 38 40
f 62 40 63
f 63 40 14
f 63 14 16
f 63 16 53
f 63 53 64
f 63 64 65
f 65 64 66
f 65 66 67
f 67 66 68
f 69 58 56
f 58 69 70
f 71 3 59
f 3 71 1
f 8 29 6
f 29 8 27
f 36 72 55
f 72 36 35
f 55 69 56
f 69 55 72
f 70 59 58
f 59 70 71
f 26 38 25
f 38 26 39
f 15 40 37
f 40 15 14
f 34 12 9
f 12 34 33
f 73 44 74
f 44 73 46
f 67 75 65
f 75 67 76
f 74 41 77
f 41 74 44
f 78 54 57
f 54 78 79
f 80 77 81
f 77 80 82
f 77 82 74
f 74 82 83
f 74 83 73
f 73 83 10
f 10 83 35
f 35 83 79
f 35 79 72
f 72 79 69
f 69 79 78
f 69 78 70
f 70 78 71
f 71 78 84
f 71 84 1
f 1 84 85
f 1 85 4
f 4 85 26
f 26 85 86
f 26 86 39
f 39 86 37
f 37 86 87
f 37 87 15
f 15 87 13
f 73 12 88
f 12 73 10
f 88 12 33
f 88 33 30
f 88 30 89
f 89 30 27
f 89 27 8
f 89 8 90
f 90 8 5
f 90 5 31
f 90 31 91
f 91 31 24
f 91 24 92
f 92 24 21
f 92 21 19
f 92 19 93
f 93 19 17
f 93 17 13
f 93 13 87
f 93 87 75
f 93 75 94
f 94 75 76
f 94 76 95
f 95 76 96
f 79 47 54
f 47 79 83
f 84 57 60
f 57 84 78
f 87 62 63
f 62 87 86
f 65 87 63
f 87 65 75
f 82 47 83
f 47 82 45
f 85 60 61
f 60 85 84
f 86 61 62
f 61 86 85
f 64 95 66
f 95 64 94
f 53 94 64
f 94 53 93
f 89 50 49
f 50 89 90
f 77 43 81
f 43 77 41
f 92 53 52
f 53 92 93
f 88 49 48
f 49 88 89
f 66 96 68
f 96 66 95
f 81 42 80
f 42 81 43
f 91 52 51
f 52 91 92
f 80 45 82
f 45 80 42
f 68 76 67
f 76 68 96
f 73 48 46
f 48 73 88
f 90 51 50
f 51 90 91
f 97 98 99
f 98 97 100
f 101 102 103
f 102 101 104
f 105 106 107
f 106 105 108
f 109 110 111
f 110 109 112
f 113 112 109
f 112 113 114
f 115 114 113
f 114 115 116
f 117 118 119
f 118 117 120
f 100 121 98
f 121 100 122
f 123 124 125
f 124 123 126
f 127 103 128
f 103 127 101
f 117 116 115
f 116 117 119
f 120 128 118
f 128 120 127
f 124 129 130
f 129 124 126
f 107 131 132
f 131 107 106
f 133 134 135
f 134 133 136
f 137 138 139
f 138 137 140
f 138 140 141
f 141 140 142
f 141 142 143
f 143 142 107
f 107 142 105
f 105 142 144
f 105 144 130
f 130 144 124
f 124 144 145
f 124 145 125
f 125 145 102
f 102 145 146
f 102 146 103
f 103 146 147
f 103 147 128
f 128 147 118
f 118 147 148
f 118 148 119
f 119 148 116
f 116 148 149
f 116 149 114
f 114 149 112
f 143 132 150
f 132 143 107
f 150 132 151
f 150 151 152
f 150 152 153
f 153 152 154
f 153 154 155
f 153 155 156
f 156 155 99
f 156 99 98
f 156 98 157
f 157 98 121
f 157 121 158
f 158 121 134
f 158 134 136
f 158 136 159
f 159 136 110
f 159 110 112
f 159 112 149
f 159 149 160
f 159 160 161
f 161 160 162
f 161 162 163
f 163 162 164
f 165 154 152
f 154 165 166
f 167 99 155
f 99 167 97
f 104 125 102
f 125 104 123
f 132 168 151
f 168 132 131
f 151 165 152
f 165 151 168
f 166 155 154
f 155 166 167
f 122 134 121
f 134 122 135
f 111 136 133
f 136 111 110
f 130 108 105
f 108 130 129
f 169 140 170
f 140 169 142
f 163 171 161
f 171 163 172
f 170 137 173
f 137 170 140
f 174 150 153
f 150 174 175
f 176 173 177
f 173 176 178
f 173 178 170
f 170 178 179
f 170 179 169
f 169 179 106
f 106 179 131
f 131 179 175
f 131 175 168
f 168 175 165
f 165 175 174
f 165 174 166
f 166 174 167
f 167 174 180
f 167 180 97
f 97 180 181
f 97 181 100
f 100 181 122
f 122 181 182
f 122 182 135
f 135 182 133
f 133 182 183
f 133 183 111
f 111 183 109
f 169 108 184
f 108 169 106
f 184 108 129
f 184 129 126
f 184 126 185
f 185 126 123
f 185 123 104
f 185 104 186
f 186 104 101
f 186 101 127
f 186 127 187
f 187 127 120
f 187 120 188
f 188 120 117
f 188 117 115
f 188 115 189
f 189 115 113
f 189 113 109
f 189 109 183
f 189 183 171
f 189 171 190
f 190 171 172
f 190 172 191
f 191 172 192
f 175 143 150
f 143 175 179
f 180 153 156
f 153 180 174
f 183 158 159
f 158 183 182
f 161 183 159
f 183 161 171
f 178 143 179
f 143 178 141
f 181 156 157
f 156 181 180
f 182 157 158
f 157 182 181
f 160 191 162
f 191 160 190
f 149 190 160
f 190 149 189
f 185 146 145
f 146 185 186
f 173 139 177
f 139 173 137
f 188 149 148
f 149 188 189
f 184 145 144
f 145 184 185
f 162 192 164
f 192 162 191
f 177 138 176
f 138 177 139
f 187 148 147
f 148 187 188
f 176 141 178
f 141 176 138
f 164 172 163
f 172 164 192
f 169 144 142
f 144 169 184
f 186 147 146
f 147 186 187
f 193 194 195
f 194 193 196
f 197 198 199
f 198 197 200
f 201 202 203
f 202 201 204
f 205 206 207
f 206 205 208
f 209 210 211
f 210 209 212
f 213 196 193
f 196 213 214
f 203 215 216
f 215 203 202
f 217 218 219
f 218 217 220
f 221 222 223
f 222 221 224
f 225 220 217
f 220 225 226
f 227 228 229
f 228 227 230
f 228 230 231
f 231 230 232
f 231 232 233
f 233 232 234
f 233 234 235
f 235 234 236
f 235 236 237
f 237 236 238
f 237 238 239
f 239 238 240
f 239 240 241
f 241 240 242
f 241 242 243
f 243 242 244
f 243 244 245
f 245 244 246
f 245 246 247
f 247 246 248
f 247 248 249
f 249 248 250
f 251 252 253
f 252 251 254
f 255 256 257
f 256 255 258
f 259 260 261
f 260 259 262
f 263 264 265
f 264 263 266
f 267 251 253
f 251 267 268
f 208 257 206
f 257 208 255
f 269 207 270
f 207 269 205
f 271 272 273
f 272 271 274
f 275 270 276
f 270 275 269
f 212 277 210
f 277 212 278
f 279 277 278
f 277 279 280
f 281 282 283
f 282 281 284
f 285 286 287
f 286 285 288
f 289 290 291
f 290 289 292
f 275 293 294
f 293 275 276
f 218 295 219
f 295 218 296
f 297 298 299
f 298 297 300
f 223 301 302
f 301 223 222
f 302 226 225
f 226 302 301
f 297 259 261
f 259 297 299
f 259 299 273
f 273 299 266
f 273 266 301
f 301 266 226
f 226 266 220
f 220 266 263
f 220 263 218
f 218 263 296
f 296 263 292
f 296 292 281
f 281 292 289
f 281 289 284
f 284 289 303
f 284 303 209
f 209 303 212
f 212 303 254
f 212 254 278
f 278 254 251
f 278 251 279
f 279 251 216
f 216 251 268
f 216 268 203
f 301 271 273
f 271 301 222
f 271 222 224
f 271 224 197
f 197 224 304
f 197 304 258
f 197 258 200
f 200 258 255
f 200 255 285
f 285 255 208
f 285 208 205
f 285 205 288
f 288 205 269
f 288 269 305
f 305 269 275
f 305 275 306
f 306 275 294
f 306 294 201
f 306 201 214
f 214 201 203
f 214 203 268
f 214 268 307
f 214 307 196
f 196 307 194
f 200 287 198
f 287 200 285
f 254 308 252
f 308 254 303
f 271 199 274
f 199 271 197
f 299 264 266
f 264 299 298
f 261 300 297
f 300 261 260
f 303 291 308
f 291 303 289
f 284 211 282
f 211 284 209
f 296 283 295
f 283 296 281
f 195 307 309
f 307 195 194
f 310 214 213
f 214 310 306
f 305 310 311
f 310 305 306
f 288 311 286
f 311 288 305
f 294 204 201
f 204 294 293
f 258 312 256
f 312 258 304
f 309 268 267
f 268 309 307
f 216 280 279
f 280 216 215
f 262 300 260
f 300 262 272
f 300 272 298
f 298 272 274
f 298 274 302
f 302 274 223
f 223 274 221
f 221 274 199
f 221 199 312
f 312 199 256
f 256 199 198
f 256 198 257
f 257 198 287
f 257 287 206
f 206 287 286
f 206 286 207
f 207 286 270
f 270 286 311
f 270 311 276
f 276 311 310
f 276 310 293
f 293 310 204
f 204 310 213
f 204 213 202
f 302 264 298
f 264 302 225
f 264 225 217
f 264 217 265
f 265 217 219
f 265 219 295
f 265 295 290
f 290 295 283
f 290 283 291
f 291 283 282
f 291 282 211
f 291 211 308
f 308 211 210
f 308 210 252
f 252 210 277
f 252 277 253
f 253 277 280
f 253 280 215
f 253 215 267
f 267 215 202
f 267 202 213
f 267 213 193
f 267 193 309
f 309 193 195
f 273 262 259
f 262 273 272
f 292 265 290
f 265 292 263
f 312 224 221
f 224 312 304
f 228 313 229
f 313 228 314
f 315 237 239
f 237 315 316
f 317 250 318
f 250 317 249
f 229 319 227
f 319 229 313
f 230 320 232
f 320 230 321
f 322 238 236
f 238 322 323
f 323 240 238
f 240 323 324
f 325 236 234
f 236 325 322
f 231 314 228
f 314 231 326
f 327 243 245
f 243 327 328
f 329 246 330
f 246 329 248
f 330 244 331
f 244 330 246
f 324 242 240
f 242 324 332
f 327 247 333
f 247 327 245
f 334 233 235
f 233 334 335
f 332 244 242
f 244 332 331
f 320 234 232
f 234 320 325
f 233 326 231
f 326 233 335
f 333 249 317
f 249 333 247
f 227 321 230
f 321 227 319
f 316 235 237
f 235 316 334
f 318 248 329
f 248 318 250
f 336 239 241
f 239 336 315
f 328 241 243
f 241 328 336
f 337 208 255
f 208 337 338
f 339 258 304
f 258 339 340
f 279 341 278
f 341 279 342
f 343 220 344
f 220 343 226
f 201 345 203
f 345 201 346
f 347 275 269
f 275 347 348
f 216 342 279
f 342 216 349
f 350 222 351
f 222 350 224
f 352 269 205
f 269 352 347
f 275 353 294
f 353 275 348
f 351 301 354
f 301 351 222
f 354 226 343
f 226 354 301
f 339 224 350
f 224 339 304
f 355 209 212
f 209 355 356
f 357 281 284
f 281 357 358
f 344 218 359
f 218 344 220
f 360 218 296
f 218 360 359
f 338 205 208
f 205 338 352
f 358 296 281
f 296 358 360
f 203 349 216
f 349 203 345
f 341 212 278
f 212 341 355
f 294 346 201
f 346 294 353
f 340 255 258
f 255 340 337
f 356 284 209
f 284 356 357
f 361 362 363
f 362 361 364
f 362 364 365
f 365 364 366
f 365 366 354
f 354 366 351
f 351 366 350
f 350 366 367
f 350 367 339
f 339 367 340
f 340 367 368
f 340 368 337
f 337 368 369
f 337 369 338
f 338 369 370
f 338 370 352
f 352 370 347
f 347 370 371
f 347 371 348
f 348 371 372
f 348 372 353
f 353 372 346
f 346 372 373
f 346 373 345
f 354 374 365
f 374 354 343
f 374 343 344
f 374 344 375
f 375 344 359
f 375 359 360
f 375 360 376
f 376 360 358
f 376 358 377
f 377 358 357
f 377 357 356
f 377 356 378
f 378 356 355
f 378 355 379
f 379 355 341
f 379 341 380
f 380 341 342
f 380 342 349
f 380 349 381
f 381 349 345
f 381 345 373
f 381 373 382
f 381 382 383
f 383 382 384
f 385 368 367
f 368 385 386
f 387 367 366
f 367 387 385
f 388 374 375
f 374 388 389
f 390 361 391
f 361 390 364
f 391 363 392
f 363 391 361
f 392 362 393
f 362 392 363
f 394 374 389
f 374 394 365
f 395 375 376
f 375 395 388
f 396 376 377
f 376 396 395
f 397 377 378
f 377 397 396
f 393 391 392
f 391 393 394
f 391 394 390
f 390 394 389
f 390 389 387
f 387 389 313
f 313 389 319
f 319 389 388
f 319 388 321
f 321 388 320
f 320 388 395
f 320 395 325
f 325 395 322
f 322 395 396
f 322 396 323
f 323 396 324
f 324 396 397
f 324 397 332
f 332 397 398
f 332 398 331
f 331 398 330
f 330 398 399
f 330 399 329
f 329 399 318
f 387 314 385
f 314 387 313
f 385 314 326
f 385 326 335
f 385 335 386
f 386 335 334
f 386 334 316
f 386 316 400
f 400 316 315
f 400 315 401
f 401 315 336
f 401 336 328
f 401 328 402
f 402 328 327
f 402 327 333
f 402 333 403
f 403 333 317
f 403 317 318
f 403 318 399
f 403 399 404
f 403 404 405
f 405 404 406
f 405 406 407
f 407 406 408
f 387 364 390
f 364 387 366
f 393 365 394
f 365 393 362
f 399 379 380
f 379 399 398
f 381 399 380
f 399 381 404
f 383 404 381
f 404 383 406
f 382 408 384
f 408 382 407
f 373 407 382
f 407 373 405
f 398 378 379
f 378 398 397
f 384 406 383
f 406 384 408
f 372 405 373
f 405 372 403
f 400 370 369
f 370 400 401
f 386 369 368
f 369 386 400
f 402 372 371
f 372 402 403
f 401 371 370
f 371 401 402
