# bastidor-sup-ttp.obj (EXERSUITE3D, cm)
v 10.992 4.787 31.708
v -10.992 4.719 31.190
v -10.992 4.787 31.708
v 9.742 4.719 31.190
v 10.992 4.719 31.190
v 10.992 4.719 32.226
v -10.992 4.719 32.226
v -10.992 4.519 32.708
v -10.992 4.704 32.263
v 10.992 4.519 32.708
v 10.992 4.704 32.263
v 10.992 4.704 31.153
v -10.992 4.519 30.708
v -10.992 4.704 31.153
v 8.578 4.519 30.708
v 10.992 4.519 30.708
v -10.992 4.201 30.294
v 7.578 4.201 30.294
v 10.992 4.201 30.294
v 6.810 3.787 29.976
v -10.992 3.787 29.976
v 10.992 3.787 29.976
v 11.509 0.936 34.423
v 10.474 0.936 34.423
v 10.992 0.871 34.413
v 11.992 1.128 34.451
v 9.992 1.128 34.451
v 12.406 1.432 34.495
v 9.578 1.432 34.495
v 12.724 1.829 34.553
v 9.260 1.829 34.553
v 12.924 2.291 34.621
v 9.060 2.291 34.621
v 12.992 2.787 34.693
v 8.992 2.787 34.693
v 12.924 3.283 34.765
v 9.060 3.283 34.765
v 12.724 3.745 34.833
v 9.260 3.745 34.833
v 12.406 4.142 34.891
v 9.578 4.142 34.891
v 11.992 4.447 34.935
v 9.992 4.447 34.935
v 11.509 4.638 34.963
v 10.474 4.638 34.963
v 10.992 4.704 34.973
v -9.060 3.283 34.765
v -12.992 2.787 34.693
v -8.992 2.787 34.693
v -12.924 3.283 34.765
v -9.260 3.745 34.833
v -12.724 3.745 34.833
v -9.578 4.142 34.891
v -12.406 4.142 34.891
v -9.992 4.447 34.935
v -11.992 4.447 34.935
v -10.474 4.638 34.963
v -11.509 4.638 34.963
v -10.992 4.704 34.973
v 9.742 0.855 31.190
v -10.992 0.787 31.708
v -10.992 0.855 31.190
v 10.992 0.787 31.708
v 10.992 0.855 31.190
v -10.992 1.055 30.708
v -10.992 0.871 31.153
v 8.578 1.055 30.708
v 10.992 1.055 30.708
v 10.992 0.871 31.153
v 7.578 1.373 30.294
v -10.992 1.373 30.294
v 10.992 1.373 30.294
v -10.992 1.787 29.976
v 10.992 1.787 29.976
v 6.810 1.787 29.976
v -10.992 0.855 32.226
v 10.992 0.855 32.226
v 10.992 3.787 33.440
v -10.992 3.305 33.640
v 10.992 3.305 33.640
v -10.992 3.787 33.440
v 8.992 2.787 33.708
v 10.992 2.787 33.708
v -8.992 2.787 33.708
v -10.992 2.787 33.708
v -10.992 2.270 33.640
v 10.992 2.270 33.640
v -10.992 1.787 33.440
v 10.992 1.787 33.440
v -10.992 1.373 33.122
v 10.992 1.373 33.122
v 10.992 1.055 32.708
v -10.992 1.055 32.708
v -10.992 0.871 32.263
v 10.992 0.871 32.263
v 10.992 4.201 33.122
v -10.992 4.201 33.122
v -10.474 0.936 34.423
v -11.509 0.936 34.423
v -10.992 0.871 34.413
v -9.992 1.128 34.451
v -11.992 1.128 34.451
v -9.578 1.432 34.495
v -12.406 1.432 34.495
v -9.260 1.829 34.553
v -12.724 1.829 34.553
v -9.060 2.291 34.621
v -12.924 2.291 34.621
v -11.509 0.936 -30.273
v -11.510 0.935 -10.707
v -10.992 0.871 -30.273
v -10.992 0.871 10.184
v -9.992 1.128 -30.273
v -10.474 0.936 -30.273
v -9.578 1.432 -30.273
v -9.260 1.829 -30.273
v -9.060 2.291 -30.273
v -8.992 2.787 29.708
v -8.992 2.787 14.553
v -8.992 2.787 8.896
v -8.992 2.787 -30.273
v -9.060 3.283 -30.273
v -11.992 1.128 -30.273
v -9.578 4.142 -30.273
v -9.260 3.745 -30.273
v -10.474 4.638 -30.273
v -9.992 4.447 -30.273
v -10.992 4.704 -30.273
v -10.992 2.787 29.708
v 6.328 2.270 29.776
v -10.992 2.270 29.776
v 10.992 2.270 29.776
v 10.992 2.787 29.708
v 6.163 2.787 29.708
v 8.992 2.787 29.708
v -10.992 3.305 29.776
v 10.992 3.305 29.776
v 6.328 3.305 29.776
v -11.992 4.447 -30.273
v -11.509 4.638 -30.273
v 15.992 0.194 51.921
v -15.964 0.194 51.721
v -15.964 0.194 51.921
v -10.992 0.194 51.721
v 10.992 0.194 51.721
v 15.992 0.194 51.721
v -12.924 -1.779 51.721
v -12.992 -2.592 52.711
v -12.924 -2.117 52.853
v -12.992 -2.296 51.721
v -12.724 -1.296 51.721
v -12.724 -1.674 52.985
v -10.992 0.194 -51.795
v -15.992 0.194 -51.995
v -15.992 0.194 -51.795
v 15.992 0.194 -51.995
v 10.992 0.194 -51.795
v 15.992 0.194 -51.795
v 15.992 -4.787 -51.995
v -15.992 -4.787 -51.795
v -15.992 -4.787 -51.995
v 15.992 -4.787 -51.795
v 10.992 -4.296 -51.795
v 11.509 -4.228 -51.795
v 11.992 -4.028 -51.795
v 12.158 -3.901 -51.795
v 12.406 -3.711 -51.795
v 12.724 -3.296 -51.795
v 12.924 -2.814 -51.795
v 12.992 -2.296 -51.795
v 12.924 -1.779 -51.795
v 12.724 -1.296 -51.795
v 12.406 -0.882 -51.795
v 11.992 -0.564 -51.795
v 11.509 -0.365 -51.795
v 10.992 -0.296 -51.795
v -12.406 -3.711 -51.795
v -11.992 -4.028 -51.795
v -11.509 -4.228 -51.795
v -10.992 -4.296 -51.795
v -12.724 -3.296 -51.795
v -12.924 -2.814 -51.795
v -12.992 -2.296 -51.795
v -12.924 -1.779 -51.795
v -12.724 -1.296 -51.795
v -12.406 -0.882 -51.795
v -11.992 -0.564 -51.795
v -11.509 -0.365 -51.795
v -10.992 -0.296 -51.795
v 10.474 -4.228 -51.795
v -10.474 -4.228 -51.795
v 9.992 -4.028 -51.795
v -9.992 -4.028 -51.795
v 9.825 -3.901 -51.795
v -9.578 -3.711 -51.795
v 9.578 -3.711 -51.795
v 9.260 -3.296 -51.795
v -9.260 -3.296 -51.795
v 9.060 -2.814 -51.795
v -9.060 -2.814 -51.795
v 8.992 -2.296 -51.795
v -8.992 -2.296 -51.795
v 9.060 -1.779 -51.795
v -9.060 -1.779 -51.795
v 9.260 -1.296 -51.795
v -9.260 -1.296 -51.795
v 9.578 -0.882 -51.795
v -9.578 -0.882 -51.795
v 9.992 -0.564 -51.795
v -9.992 -0.564 -51.795
v 10.474 -0.365 -51.795
v -10.474 -0.365 -51.795
v -11.992 -1.002 53.186
v -12.406 -0.882 51.721
v -12.406 -1.294 53.099
v -11.992 -0.564 51.721
v -12.724 3.745 -30.273
v -12.924 3.283 -30.273
v -12.992 2.787 10.553
v -12.992 2.787 -30.273
v -12.924 2.291 -30.273
v -9.578 -3.891 52.323
v -9.260 -3.296 51.721
v -9.260 -3.510 52.437
v -9.578 -3.711 51.721
v -9.260 -1.674 52.985
v -9.578 -0.882 51.721
v -9.578 -1.294 53.099
v -9.260 -1.296 51.721
v -11.992 -4.028 51.721
v -12.406 -3.891 52.323
v -12.406 -3.711 51.721
v -11.992 -4.182 52.236
v -9.060 -2.814 51.721
v -9.060 -3.067 52.569
v -12.724 1.829 -30.273
v -12.406 1.432 -30.273
v -12.924 -3.067 52.569
v -12.924 -2.814 51.721
v -10.992 -4.296 51.721
v -11.509 -4.366 52.182
v -11.509 -4.228 51.721
v -10.992 -4.428 52.163
v -10.474 -4.228 51.721
v -10.474 -4.366 52.182
v -9.992 -4.028 51.721
v -9.992 -4.182 52.236
v -12.724 -3.296 51.721
v -12.724 -3.510 52.437
v -9.060 -2.117 52.853
v -9.060 -1.779 51.721
v -10.992 -0.756 53.259
v -11.509 -0.365 51.721
v -11.509 -0.818 53.241
v -10.992 -0.296 51.721
v -12.406 4.142 -30.273
v -9.992 -0.564 51.721
v -9.992 -1.002 53.186
v -10.474 -0.365 51.721
v -10.474 -0.818 53.241
v -8.992 -2.592 52.711
v -8.992 -2.296 51.721
v 15.992 -4.787 51.721
v 15.992 -4.787 51.921
v -15.964 -4.787 51.721
v 12.406 -3.711 51.721
v 11.992 -4.028 51.721
v 11.509 -4.228 51.721
v 10.992 -4.296 51.721
v 12.724 -3.296 51.721
v 12.924 -2.814 51.721
v 12.992 -2.296 51.721
v 12.924 -1.779 51.721
v 12.724 -1.296 51.721
v 12.406 -0.882 51.721
v 11.992 -0.564 51.721
v 11.509 -0.365 51.721
v 10.992 -0.296 51.721
v 10.474 -4.228 51.721
v 9.992 -4.028 51.721
v 9.578 -3.711 51.721
v 9.260 -3.296 51.721
v 9.060 -2.814 51.721
v 8.992 -2.296 51.721
v 9.060 -1.779 51.721
v 9.260 -1.296 51.721
v 9.578 -0.882 51.721
v 9.992 -0.564 51.721
v 10.474 -0.365 51.721
v -15.964 -4.787 51.921
v 10.992 0.871 31.708
v 10.992 4.704 31.708
v 9.742 4.635 -31.403
v -10.992 4.704 -31.921
v -10.992 4.635 -31.403
v 10.992 4.704 -31.921
v 10.992 4.635 -31.403
v 10.992 3.704 -30.189
v 6.328 3.221 -29.989
v 10.992 3.221 -29.989
v -10.992 3.221 -29.989
v -10.992 3.704 -30.189
v 6.810 3.704 -30.189
v -10.992 4.620 -32.475
v -10.992 4.620 -31.366
v -10.992 4.635 -32.438
v -10.992 2.704 -33.921
v 10.992 2.186 -33.852
v -10.992 2.186 -33.852
v 10.992 2.704 -33.921
v 10.992 1.704 -33.653
v -10.992 1.704 -33.653
v 10.992 1.289 -33.335
v -10.992 0.972 -32.921
v -10.992 1.289 -33.335
v 10.992 0.972 -32.921
v -10.992 3.221 -33.852
v 10.992 3.221 -33.852
v 10.992 2.704 -29.921
v 6.328 2.186 -29.989
v 10.992 2.186 -29.989
v -10.992 2.186 -29.989
v -10.992 2.704 -29.921
v 6.163 2.704 -29.921
v 10.992 4.635 -32.438
v 10.992 1.704 -30.189
v 7.578 1.289 -30.506
v 10.992 1.289 -30.506
v -10.992 1.289 -30.506
v -10.992 1.704 -30.189
v 6.810 1.704 -30.189
v -10.992 0.870 -32.676
v -10.992 0.772 -32.438
v -10.992 0.787 -32.475
v 10.992 0.787 -32.475
v 10.992 0.870 -32.675
v 10.992 0.772 -32.438
v 10.992 4.436 -32.921
v -10.992 4.118 -33.335
v -10.992 4.436 -32.921
v 10.992 4.118 -33.335
v -10.992 0.772 -31.403
v -10.992 0.787 -31.366
v -10.992 0.704 -31.921
v -10.992 3.704 -33.653
v 10.992 3.704 -33.653
v -10.992 0.871 -31.164
v 7.578 4.118 -30.506
v -10.992 4.436 -30.921
v -10.992 4.118 -30.506
v 8.578 4.436 -30.921
v 10.992 4.118 -30.506
v 10.992 4.436 -30.921
v 10.992 0.772 -31.403
v 10.992 0.787 -31.366
v 9.742 0.772 -31.403
v -10.992 0.972 -30.921
v 8.578 0.972 -30.921
v 10.992 0.972 -30.921
v 10.992 0.870 -31.166
v 10.992 4.620 -31.366
v 10.992 4.620 -31.921
v 10.992 4.620 -32.475
v 10.992 0.787 -31.921
v 10.992 0.704 -31.921
v 9.767 3.787 32.933
v 9.626 3.305 33.074
v -11.987 3.787 11.179
v -12.128 3.305 11.320
v 11.358 0.855 31.342
v 10.626 0.855 32.074
v 11.384 0.871 31.316
v 10.599 0.871 32.100
v -11.128 0.855 10.320
v -10.396 0.855 9.588
v -10.762 0.787 9.954
v -11.154 0.871 10.347
v -10.370 0.871 9.562
v -10.762 4.787 9.954
v -11.128 4.719 10.320
v 10.626 4.719 32.074
v -9.537 1.787 8.730
v 12.358 2.270 30.342
v 12.217 1.787 30.483
v -9.396 2.270 8.588
v -11.762 1.373 10.954
v -11.987 1.787 11.179
v 9.767 1.787 32.933
v 9.992 1.373 32.708
v 11.699 4.519 31.001
v -9.762 4.201 8.954
v -10.055 4.519 9.247
v 11.992 4.201 30.708
v -11.469 4.519 10.661
v -11.762 4.201 10.954
v 9.992 4.201 32.708
v 10.285 4.519 32.415
v -10.055 1.055 9.247
v 11.699 1.055 31.001
v -10.396 4.719 9.588
v 11.358 4.719 31.342
v 12.358 3.305 30.342
v -9.537 3.787 8.730
v 12.217 3.787 30.483
v -9.396 3.305 8.588
v -11.469 1.055 10.661
v 10.285 1.055 32.415
v 11.992 1.373 30.708
v 9.626 2.270 33.074
v 12.406 2.787 30.294
v 9.578 2.787 33.122
v 11.384 4.704 31.316
v 10.599 4.704 32.100
v -10.370 4.704 9.562
v -9.762 1.373 8.954
v -12.128 2.270 11.320
v -12.176 2.787 11.368
v -9.348 2.787 8.540
v -11.154 4.704 10.347
v 8.992 2.787 26.880
v 8.992 2.787 32.536
v 11.509 -4.366 52.182
v 10.474 -4.366 52.182
v 10.992 -4.428 52.163
v 11.992 -4.182 52.236
v 9.992 -4.182 52.236
v 12.406 -3.891 52.323
v 9.578 -3.891 52.323
v 12.724 -3.510 52.437
v 9.260 -3.510 52.437
v 12.924 -3.067 52.569
v 9.060 -3.067 52.569
v 12.992 -2.592 52.711
v 8.992 -2.592 52.711
v 12.924 -2.117 52.853
v 9.060 -2.117 52.853
v 12.724 -1.674 52.985
v 9.260 -1.674 52.985
v 12.406 -1.294 53.099
v 9.578 -1.294 53.099
v 11.992 -1.002 53.186
v 9.992 -1.002 53.186
v 11.509 -0.818 53.241
v 10.474 -0.818 53.241
v 10.992 -0.756 53.259
v -12.992 2.787 -34.715
v -12.924 2.291 -34.643
v -12.406 1.431 -34.518
v -11.992 1.127 -34.473
v -11.509 0.935 -34.445
v -12.724 1.828 -34.575
v 10.992 0.870 -34.436
v 10.474 0.936 29.414
v 10.474 0.935 -34.445
v 10.992 0.871 29.414
v 9.578 -1.270 -53.099
v 9.992 -0.978 -53.186
v 11.509 -4.344 -52.184
v 10.992 -4.407 -52.166
v 12.406 -3.869 -52.326
v 12.158 -4.043 -52.274
v -11.509 -0.795 -53.241
v -10.992 -0.732 -53.259
v -12.406 -1.270 -53.099
v -11.992 -0.978 -53.186
v -10.474 -0.795 -53.241
v -9.992 -0.978 -53.186
v -9.992 -4.161 -52.239
v -10.474 -4.344 -52.184
v -12.924 -3.045 -52.571
v -12.992 -2.570 -52.713
v -12.724 -3.488 -52.439
v -12.406 4.142 -34.912
v -12.724 3.745 -34.855
v 9.578 -3.869 -52.326
v 9.260 -3.488 -52.439
v 9.060 -3.045 -52.571
v 8.992 -2.570 -52.713
v 10.474 -0.795 -53.241
v 11.509 -0.795 -53.241
v 11.992 -0.978 -53.186
v -12.724 -1.651 -52.986
v -9.060 -2.094 -52.854
v -9.260 -1.651 -52.986
v 12.724 -3.488 -52.439
v 12.924 -3.045 -52.571
v -9.260 -3.488 -52.439
v -9.060 -3.045 -52.571
v -9.578 -1.270 -53.099
v 9.825 -4.043 -52.274
v -9.578 -3.869 -52.326
v -10.992 -4.407 -52.166
v -11.509 -4.344 -52.184
v -11.992 -4.161 -52.239
v -12.406 -3.869 -52.326
v 10.474 -4.344 -52.184
v 9.992 -4.161 -52.239
v 9.060 -2.094 -52.854
v 10.992 -0.732 -53.259
v -12.924 -2.094 -52.854
v 9.260 -1.651 -52.986
v 12.724 1.828 -34.575
v 12.924 2.291 29.414
v 12.724 1.829 29.414
v 12.924 2.291 -34.643
v 12.406 1.431 -34.518
v 12.406 1.432 29.414
v -12.924 3.283 -34.787
v -11.992 4.447 -34.957
v -11.509 4.638 -34.985
v -10.992 4.704 -34.994
v -10.474 4.638 -34.985
v 11.992 -4.161 -52.239
v 12.406 -1.270 -53.099
v 12.724 -1.651 -52.986
v 12.924 -2.094 -52.854
v 11.992 1.128 29.414
v 11.992 1.127 -34.473
v 11.509 0.936 29.414
v 11.509 0.935 -34.445
v -8.992 -2.570 -52.713
v 12.992 -2.570 -52.713
v -9.578 1.431 -34.518
v -9.260 1.828 -34.575
v 9.992 1.127 -34.473
v 9.578 1.432 29.414
v 9.578 1.431 -34.518
v 9.992 1.128 29.414
v -9.060 3.283 -34.787
v -9.260 3.745 -34.855
v 9.060 2.291 -34.643
v 9.260 1.829 29.414
v 9.060 2.291 29.414
v 9.260 1.828 -34.575
v -9.992 4.447 -34.957
v -9.578 4.142 -34.912
v 11.992 4.447 29.414
v 11.509 4.638 -34.985
v 11.509 4.638 29.414
v 11.992 4.447 -34.957
v 12.924 3.283 -34.787
v 12.724 3.745 29.414
v 12.924 3.283 29.414
v 12.724 3.745 -34.855
v 12.992 2.787 -34.715
v 12.992 2.787 29.414
v -10.474 0.935 -34.445
v -10.992 0.870 -34.436
v 10.992 4.704 29.414
v 10.474 4.638 -34.985
v 10.474 4.638 29.414
v 10.992 4.704 -34.994
v 12.406 4.142 29.414
v 12.406 4.142 -34.912
v 8.992 2.787 29.414
v 8.992 2.787 -34.715
v 9.578 4.142 -34.912
v 9.260 3.745 29.414
v 9.578 4.142 29.414
v 9.260 3.745 -34.855
v 9.060 3.283 29.414
v 9.060 3.283 -34.787
v 9.992 4.447 -34.957
v 9.992 4.447 29.414
v -8.992 2.787 -34.715
v -9.060 2.291 -34.643
v -9.992 1.127 -34.473
v -9.866 4.118 -9.063
v 11.699 4.436 -31.213
v -10.159 4.436 -9.356
v 11.992 4.118 -30.921
v 11.358 0.772 -31.555
v -10.474 0.787 -9.670
v -10.500 0.772 -9.697
v -10.159 0.972 -9.356
v 11.384 0.787 -31.528
v 11.699 0.972 -31.213
v -11.866 4.118 -11.063
v -12.091 3.704 -11.287
v 9.767 3.704 -33.145
v 9.992 4.118 -32.921
v 10.626 0.772 -32.287
v 10.599 0.787 -32.313
v -11.573 0.972 -10.770
v -11.866 1.289 -11.063
v 9.992 1.289 -32.921
v 10.285 0.972 -32.628
v -12.232 2.186 -11.429
v -12.091 1.704 -11.287
v 9.626 2.186 -33.287
v 9.767 1.704 -33.145
v -11.232 0.772 -10.429
v -10.866 0.704 -10.063
v -11.259 0.787 -10.455
v -10.474 4.620 -9.670
v 11.358 4.635 -31.555
v -10.500 4.635 -9.697
v 11.384 4.620 -31.528
v 12.406 2.704 -30.506
v -9.500 3.221 -8.697
v -9.452 2.704 -8.648
v 12.358 3.221 -30.555
v -9.500 2.186 -8.697
v -9.641 3.704 -8.838
v -9.641 1.704 -8.838
v -9.866 1.289 -9.063
v -11.259 4.620 -10.455
v -11.573 4.436 -10.770
v -12.232 3.221 -11.429
v -12.280 2.704 -11.477
v 10.599 4.620 -32.313
v 10.626 4.635 -32.287
v -11.232 4.635 -10.429
v 10.285 4.436 -32.628
v 11.992 1.289 -30.921
v 12.217 1.704 -30.696
v 12.358 2.186 -30.555
v 9.578 2.704 -33.335
v 9.626 3.221 -33.287
v 12.217 3.704 -30.696
v -10.866 4.704 -10.063
f 1 2 3
f 2 1 4
f 4 1 5
f 6 3 7
f 3 6 1
f 8 7 9
f 7 8 10
f 7 10 11
f 6 7 11
f 5 12 4
f 2 13 14
f 13 2 4
f 13 4 15
f 15 4 16
f 16 4 12
f 15 17 13
f 17 15 18
f 18 15 19
f 19 15 16
f 17 20 21
f 20 17 22
f 22 17 19
f 19 17 18
f 23 24 25
f 24 23 26
f 24 26 27
f 27 26 28
f 27 28 29
f 29 28 30
f 29 30 31
f 31 30 32
f 31 32 33
f 33 32 34
f 33 34 35
f 36 35 34
f 35 36 37
f 37 36 38
f 37 38 39
f 39 38 40
f 39 40 41
f 41 40 42
f 41 42 43
f 43 42 44
f 43 44 45
f 45 44 46
f 47 48 49
f 48 47 50
f 50 47 51
f 50 51 52
f 52 51 53
f 52 53 54
f 54 53 55
f 54 55 56
f 56 55 57
f 56 57 58
f 58 57 59
f 60 61 62
f 61 60 63
f 63 60 64
f 65 62 66
f 62 65 67
f 62 67 60
f 60 67 68
f 60 68 69
f 64 60 69
f 70 65 71
f 65 70 67
f 67 70 72
f 67 72 68
f 73 70 71
f 70 73 72
f 72 73 74
f 74 73 75
f 63 76 61
f 76 63 77
f 78 79 80
f 79 78 81
f 80 82 83
f 82 80 84
f 84 80 85
f 85 80 79
f 83 86 87
f 86 83 85
f 85 83 82
f 85 82 84
f 87 88 89
f 88 87 86
f 89 90 91
f 90 89 88
f 92 90 93
f 90 92 91
f 76 93 94
f 93 76 77
f 93 77 95
f 92 93 95
f 96 8 97
f 8 96 10
f 96 81 78
f 81 96 97
f 98 99 100
f 99 98 101
f 99 101 102
f 102 101 103
f 102 103 104
f 104 103 105
f 104 105 106
f 106 105 107
f 106 107 108
f 108 107 49
f 108 49 48
f 7 14 9
f 14 7 3
f 14 3 2
f 109 99 110
f 99 109 111
f 99 111 100
f 100 111 112
f 100 112 94
f 94 112 66
f 113 98 114
f 98 113 101
f 115 101 113
f 101 115 103
f 103 116 105
f 116 103 115
f 105 117 107
f 117 105 116
f 114 112 111
f 112 114 66
f 66 114 94
f 94 98 100
f 98 94 114
f 107 84 49
f 84 107 117
f 84 117 118
f 118 117 119
f 119 117 120
f 120 117 121
f 49 122 47
f 122 49 84
f 122 84 118
f 122 118 119
f 122 119 120
f 122 120 121
f 109 102 123
f 102 109 110
f 99 102 110
f 51 124 53
f 124 51 125
f 55 126 57
f 126 55 127
f 57 9 59
f 9 57 14
f 14 126 128
f 126 14 57
f 129 130 131
f 130 129 132
f 132 129 133
f 133 129 118
f 133 118 134
f 133 134 135
f 53 127 55
f 127 53 124
f 131 75 73
f 75 131 74
f 74 131 132
f 132 131 130
f 136 118 129
f 118 136 134
f 134 136 135
f 135 136 133
f 133 136 137
f 137 136 138
f 58 139 56
f 139 58 140
f 21 138 136
f 138 21 137
f 137 21 22
f 22 21 20
f 47 125 51
f 125 47 122
f 59 140 58
f 140 59 128
f 128 59 9
f 128 9 14
f 141 142 143
f 142 141 144
f 144 141 145
f 145 141 146
f 147 148 149
f 148 147 150
f 151 149 152
f 149 151 147
f 153 154 155
f 154 153 156
f 156 153 157
f 156 157 158
f 159 160 161
f 160 159 162
f 154 159 161
f 159 154 156
f 162 163 160
f 163 162 164
f 164 162 165
f 165 162 166
f 166 162 167
f 167 162 158
f 167 158 168
f 168 158 169
f 169 158 170
f 170 158 171
f 171 158 172
f 172 158 173
f 173 158 174
f 174 158 175
f 175 158 176
f 176 158 157
f 160 177 155
f 177 160 178
f 178 160 179
f 179 160 180
f 180 160 163
f 155 177 181
f 155 181 182
f 155 182 183
f 155 183 184
f 155 184 185
f 155 185 186
f 155 186 187
f 155 187 188
f 155 188 189
f 155 189 153
f 190 180 163
f 180 190 191
f 191 190 192
f 191 192 193
f 193 192 194
f 193 194 195
f 195 194 196
f 195 196 197
f 195 197 198
f 198 197 199
f 198 199 200
f 200 199 201
f 200 201 202
f 202 201 203
f 202 203 204
f 204 203 205
f 204 205 206
f 206 205 207
f 206 207 208
f 208 207 209
f 208 209 210
f 210 209 211
f 210 211 212
f 212 211 176
f 212 176 189
f 189 176 157
f 189 157 153
f 159 158 162
f 158 159 156
f 155 161 160
f 161 155 154
f 213 214 215
f 214 213 216
f 214 152 215
f 152 214 151
f 217 50 52
f 50 217 218
f 218 48 50
f 48 218 219
f 219 218 220
f 219 108 48
f 108 219 221
f 221 219 220
f 222 223 224
f 223 222 225
f 226 227 228
f 227 226 229
f 230 231 232
f 231 230 233
f 224 234 235
f 234 224 223
f 221 106 108
f 106 221 236
f 236 104 106
f 104 236 237
f 150 238 148
f 238 150 239
f 240 241 242
f 241 240 243
f 244 243 240
f 243 244 245
f 242 233 230
f 233 242 241
f 246 245 244
f 245 246 247
f 248 231 249
f 231 248 232
f 250 229 226
f 229 250 251
f 252 253 254
f 253 252 255
f 56 256 54
f 256 56 139
f 123 104 237
f 104 123 102
f 225 247 246
f 247 225 222
f 239 249 238
f 249 239 248
f 228 257 258
f 257 228 227
f 258 259 260
f 259 258 257
f 261 251 250
f 251 261 262
f 260 255 252
f 255 260 259
f 235 262 261
f 262 235 234
f 254 216 213
f 216 254 253
f 256 52 54
f 52 256 217
f 263 141 264
f 141 263 146
f 265 240 263
f 240 265 242
f 242 265 230
f 230 265 232
f 232 265 142
f 232 142 248
f 248 142 239
f 239 142 150
f 150 142 147
f 147 142 151
f 151 142 214
f 214 142 216
f 216 142 253
f 253 142 255
f 255 142 144
f 263 266 146
f 266 263 267
f 267 263 268
f 268 263 269
f 269 263 240
f 146 266 270
f 146 270 271
f 146 271 272
f 146 272 273
f 146 273 274
f 146 274 275
f 146 275 276
f 146 276 277
f 146 277 278
f 146 278 145
f 244 269 240
f 269 244 279
f 279 244 246
f 279 246 280
f 280 246 225
f 280 225 281
f 281 225 223
f 281 223 282
f 282 223 234
f 282 234 283
f 283 234 262
f 283 262 284
f 284 262 251
f 284 251 285
f 285 251 229
f 285 229 286
f 286 229 227
f 286 227 287
f 287 227 257
f 287 257 288
f 288 257 259
f 288 259 289
f 289 259 255
f 289 255 278
f 278 255 144
f 278 144 145
f 263 290 265
f 290 263 264
f 142 290 143
f 290 142 265
f 87 80 83
f 80 87 89
f 80 89 78
f 78 89 91
f 78 91 96
f 96 91 92
f 96 92 10
f 10 92 95
f 10 95 11
f 11 95 291
f 11 291 292
f 292 291 12
f 12 291 69
f 12 69 16
f 16 69 68
f 16 68 72
f 16 72 19
f 19 72 74
f 19 74 22
f 22 74 132
f 22 132 137
f 137 132 133
f 79 86 85
f 86 79 81
f 86 81 88
f 88 81 97
f 88 97 90
f 90 97 93
f 93 97 8
f 93 8 94
f 94 8 9
f 94 9 66
f 66 9 14
f 66 14 13
f 66 13 65
f 65 13 71
f 71 13 17
f 71 17 21
f 71 21 73
f 73 21 136
f 73 136 131
f 131 136 129
f 66 76 94
f 76 66 61
f 61 66 62
f 292 6 11
f 6 292 1
f 1 292 5
f 5 292 12
f 77 291 95
f 291 77 63
f 291 63 64
f 291 64 69
f 293 294 295
f 294 293 296
f 296 293 297
f 298 299 300
f 299 298 301
f 301 298 302
f 302 298 303
f 295 304 305
f 304 295 294
f 304 294 306
f 307 308 309
f 308 307 310
f 309 311 312
f 311 309 308
f 313 314 315
f 314 313 316
f 317 310 307
f 310 317 318
f 319 320 321
f 320 319 322
f 322 319 323
f 323 319 324
f 296 306 294
f 306 296 325
f 326 327 328
f 327 326 329
f 329 326 330
f 330 326 331
f 332 333 334
f 333 332 314
f 333 314 316
f 333 316 335
f 335 316 336
f 337 333 335
f 338 339 340
f 339 338 341
f 334 342 343
f 342 334 344
f 344 334 333
f 345 318 317
f 318 345 346
f 321 331 326
f 331 321 330
f 330 321 322
f 322 321 320
f 332 343 347
f 343 332 334
f 348 349 350
f 349 348 351
f 351 348 352
f 351 352 353
f 354 355 356
f 342 347 343
f 347 342 357
f 357 342 356
f 357 356 358
f 358 356 359
f 359 356 355
f 359 355 360
f 321 300 319
f 300 321 326
f 300 326 298
f 298 326 328
f 298 328 352
f 352 328 359
f 352 359 353
f 353 359 360
f 353 360 361
f 361 360 336
f 361 336 362
f 362 336 363
f 363 336 338
f 338 336 316
f 338 316 313
f 338 313 341
f 341 313 311
f 341 311 346
f 346 311 308
f 346 308 318
f 318 308 310
f 339 346 345
f 346 339 341
f 312 313 315
f 313 312 311
f 358 329 357
f 329 358 327
f 327 358 328
f 328 358 359
f 354 364 355
f 364 354 365
f 364 365 335
f 335 365 337
f 352 303 298
f 303 352 302
f 302 352 350
f 350 352 348
f 349 295 305
f 295 349 351
f 295 351 293
f 293 351 353
f 293 353 361
f 297 293 361
f 300 324 319
f 324 300 323
f 323 300 301
f 301 300 299
f 362 297 361
f 297 362 296
f 296 362 363
f 296 363 325
f 306 340 304
f 340 306 325
f 340 325 363
f 338 340 363
f 365 342 344
f 342 365 356
f 356 365 354
f 337 344 333
f 344 337 365
f 366 138 367
f 138 366 20
f 138 20 368
f 138 368 369
f 370 371 63
f 371 370 372
f 371 372 373
f 373 372 291
f 374 375 376
f 375 374 377
f 375 377 378
f 378 377 112
f 355 336 360
f 336 355 364
f 336 364 335
f 4 379 380
f 379 4 1
f 1 4 381
f 382 383 384
f 383 382 385
f 386 75 387
f 75 386 70
f 75 70 388
f 388 70 389
f 390 391 392
f 391 390 393
f 18 394 395
f 394 18 15
f 15 18 396
f 15 396 397
f 378 370 375
f 370 378 398
f 370 398 372
f 372 398 399
f 1 400 379
f 400 1 401
f 402 403 404
f 403 402 405
f 377 67 406
f 67 377 374
f 67 374 60
f 67 60 407
f 407 60 373
f 373 60 371
f 399 291 372
f 291 399 373
f 373 399 407
f 407 399 408
f 407 408 389
f 389 408 384
f 389 384 388
f 388 384 383
f 388 383 409
f 409 383 410
f 409 410 411
f 411 410 402
f 411 402 367
f 367 402 404
f 367 404 366
f 366 404 393
f 366 393 396
f 396 393 390
f 396 390 397
f 397 390 412
f 397 412 413
f 413 412 292
f 401 414 400
f 414 401 392
f 392 401 412
f 392 412 390
f 382 408 415
f 408 382 384
f 20 395 368
f 395 20 18
f 18 20 366
f 18 366 396
f 406 112 377
f 112 406 378
f 378 406 398
f 398 406 386
f 398 386 415
f 415 386 387
f 415 387 382
f 382 387 416
f 382 416 385
f 385 416 417
f 385 417 418
f 418 417 369
f 418 369 405
f 405 369 368
f 405 368 403
f 403 368 395
f 403 395 391
f 391 395 394
f 391 394 392
f 392 394 419
f 392 419 414
f 414 419 380
f 414 380 400
f 400 380 379
f 410 405 402
f 405 410 420
f 405 420 120
f 405 120 418
f 421 409 411
f 409 421 130
f 130 421 134
f 130 134 416
f 416 134 119
f 416 119 417
f 130 388 409
f 388 130 75
f 75 130 387
f 387 130 416
f 367 421 411
f 421 367 138
f 421 138 134
f 134 138 369
f 134 369 119
f 119 369 417
f 415 399 398
f 399 415 408
f 393 403 391
f 403 393 404
f 406 70 386
f 70 406 67
f 70 67 389
f 389 67 407
f 401 292 412
f 292 401 413
f 413 401 381
f 381 401 1
f 301 322 323
f 322 301 302
f 322 302 330
f 330 302 350
f 330 350 329
f 329 350 349
f 329 349 357
f 357 349 305
f 357 305 347
f 347 305 332
f 332 305 304
f 332 304 340
f 332 340 314
f 314 340 339
f 314 339 315
f 315 339 345
f 315 345 312
f 312 345 317
f 312 317 309
f 309 317 307
f 376 60 374
f 60 376 63
f 60 63 371
f 15 419 394
f 419 15 380
f 380 15 4
f 4 15 397
f 4 397 413
f 4 413 381
f 375 63 376
f 63 375 370
f 410 383 420
f 418 383 385
f 383 418 120
f 383 120 420
f 422 423 424
f 423 422 425
f 423 425 426
f 426 425 427
f 426 427 428
f 428 427 429
f 428 429 430
f 430 429 431
f 430 431 432
f 432 431 433
f 432 433 434
f 434 433 435
f 434 435 436
f 436 435 437
f 436 437 438
f 438 437 439
f 438 439 440
f 440 439 441
f 440 441 442
f 442 441 443
f 442 443 444
f 444 443 445
f 446 182 447
f 182 446 183
f 178 448 177
f 448 178 449
f 179 449 178
f 449 179 450
f 451 177 448
f 177 451 181
f 447 181 451
f 181 447 182
f 216 54 214
f 54 216 56
f 24 280 27
f 280 24 279
f 48 239 150
f 239 48 108
f 245 241 243
f 241 245 247
f 241 247 233
f 233 247 222
f 233 222 231
f 231 222 224
f 231 224 249
f 249 224 235
f 249 235 238
f 238 235 261
f 238 261 148
f 148 261 250
f 148 250 149
f 149 250 226
f 149 226 152
f 152 226 228
f 152 228 215
f 215 228 258
f 215 258 213
f 213 258 260
f 213 260 254
f 254 260 252
f 108 248 239
f 248 108 106
f 35 283 284
f 283 35 33
f 31 281 282
f 281 31 29
f 23 269 25
f 269 23 268
f 28 270 266
f 270 28 30
f 54 151 214
f 151 54 52
f 52 147 151
f 147 52 50
f 27 281 29
f 281 27 280
f 25 279 24
f 279 25 269
f 50 150 147
f 150 50 48
f 30 271 270
f 271 30 32
f 32 272 271
f 272 32 34
f 26 268 23
f 268 26 267
f 28 267 26
f 267 28 266
f 33 282 283
f 282 33 31
f 253 56 216
f 56 253 58
f 141 290 264
f 290 141 143
f 289 43 288
f 43 289 45
f 288 41 287
f 41 288 43
f 34 273 272
f 273 34 36
f 36 274 273
f 274 36 38
f 41 286 287
f 286 41 39
f 39 285 286
f 285 39 37
f 37 284 285
f 284 37 35
f 278 45 289
f 45 278 46
f 38 275 274
f 275 38 40
f 275 42 276
f 42 275 40
f 276 44 277
f 44 276 42
f 277 46 278
f 46 277 44
f 452 453 454
f 453 452 336
f 453 360 455
f 360 453 336
f 209 456 207
f 456 209 457
f 458 163 459
f 163 458 164
f 460 166 461
f 166 460 167
f 189 462 188
f 462 189 463
f 187 464 186
f 464 187 465
f 210 466 212
f 466 210 467
f 468 191 469
f 191 468 193
f 183 470 182
f 470 183 471
f 470 181 182
f 181 470 472
f 473 217 256
f 217 473 474
f 197 475 196
f 475 197 476
f 201 477 199
f 477 201 478
f 211 457 209
f 457 211 479
f 174 480 175
f 480 174 481
f 186 482 185
f 482 186 464
f 212 463 189
f 463 212 466
f 483 206 204
f 206 483 484
f 485 169 168
f 169 485 486
f 487 200 198
f 200 487 488
f 208 467 210
f 467 208 489
f 490 196 475
f 196 490 194
f 477 197 199
f 197 477 476
f 491 198 195
f 198 491 487
f 492 179 493
f 179 492 180
f 494 177 495
f 177 494 178
f 496 192 497
f 192 496 190
f 203 478 201
f 478 203 498
f 175 499 176
f 499 175 480
f 184 471 183
f 471 184 500
f 501 203 205
f 203 501 498
f 502 503 504
f 503 502 505
f 506 504 507
f 504 506 502
f 493 178 494
f 178 493 179
f 474 218 217
f 218 474 508
f 140 509 139
f 509 140 510
f 128 510 140
f 510 128 511
f 511 128 294
f 126 294 128
f 294 512 511
f 512 294 126
f 484 208 206
f 208 484 489
f 460 168 167
f 168 460 485
f 513 164 458
f 164 513 165
f 256 509 473
f 509 256 139
f 459 190 496
f 190 459 163
f 207 501 205
f 501 207 456
f 188 465 187
f 465 188 462
f 173 481 174
f 481 173 514
f 515 173 172
f 173 515 514
f 516 172 171
f 172 516 515
f 506 517 518
f 517 506 507
f 518 519 520
f 519 518 517
f 482 184 185
f 184 482 500
f 521 204 202
f 204 521 483
f 522 171 170
f 171 522 516
f 491 193 468
f 193 491 195
f 452 360 336
f 360 452 455
f 455 452 520
f 455 520 519
f 469 180 492
f 180 469 191
f 486 170 169
f 170 486 522
f 181 495 177
f 495 181 472
f 176 479 211
f 479 176 499
f 488 202 200
f 202 488 521
f 523 116 115
f 116 523 524
f 450 123 449
f 123 450 109
f 525 526 527
f 526 525 528
f 529 125 122
f 125 529 530
f 531 532 533
f 532 531 534
f 124 535 127
f 535 124 536
f 530 124 125
f 124 530 536
f 446 221 220
f 221 446 447
f 537 538 539
f 538 537 540
f 541 542 543
f 542 541 544
f 127 512 126
f 512 127 535
f 454 528 525
f 528 454 453
f 545 543 546
f 543 545 541
f 547 332 548
f 332 547 347
f 347 547 111
f 111 547 114
f 549 550 551
f 550 549 552
f 552 549 296
f 505 546 503
f 546 505 545
f 447 236 221
f 236 447 451
f 544 553 542
f 553 544 554
f 534 526 532
f 526 534 527
f 420 533 555
f 533 420 531
f 531 420 556
f 557 558 559
f 558 557 560
f 560 561 558
f 561 560 562
f 551 563 564
f 563 551 550
f 539 296 549
f 296 539 552
f 552 539 538
f 564 557 559
f 557 564 563
f 553 540 537
f 540 553 554
f 548 109 450
f 109 548 111
f 111 548 332
f 111 332 347
f 565 122 121
f 122 565 529
f 562 555 561
f 555 562 420
f 420 562 556
f 524 117 116
f 117 524 566
f 451 237 236
f 237 451 448
f 567 114 547
f 114 567 113
f 566 121 117
f 121 566 565
f 449 237 448
f 237 449 123
f 523 113 567
f 113 523 115
f 508 220 218
f 220 508 446
f 255 58 253
f 58 255 59
f 259 59 255
f 59 259 57
f 99 230 102
f 230 99 242
f 98 240 100
f 240 98 244
f 101 244 98
f 244 101 246
f 103 246 101
f 246 103 225
f 103 223 225
f 223 103 105
f 105 234 223
f 234 105 107
f 107 262 234
f 262 107 49
f 49 251 262
f 251 49 47
f 47 229 251
f 229 47 51
f 106 232 248
f 232 106 104
f 51 227 229
f 227 51 53
f 227 55 257
f 55 227 53
f 257 57 259
f 57 257 55
f 102 232 104
f 232 102 230
f 100 242 99
f 242 100 240
f 552 211 550
f 211 552 176
f 538 176 552
f 176 538 175
f 531 197 534
f 197 531 199
f 497 194 490
f 194 497 192
f 169 545 505
f 545 169 170
f 167 502 506
f 502 167 168
f 534 196 527
f 196 534 197
f 556 199 531
f 199 556 201
f 461 165 513
f 165 461 166
f 562 201 556
f 201 562 203
f 560 203 562
f 203 560 205
f 557 205 560
f 205 557 207
f 563 207 557
f 207 563 209
f 168 505 502
f 505 168 169
f 550 209 563
f 209 550 211
f 427 270 429
f 270 427 266
f 40 537 42
f 537 40 553
f 444 288 442
f 288 444 289
f 283 430 432
f 430 283 282
f 268 424 269
f 424 268 422
f 267 422 268
f 422 267 425
f 269 423 279
f 423 269 424
f 287 438 440
f 438 287 286
f 280 428 281
f 428 280 426
f 445 289 444
f 289 445 278
f 285 434 436
f 434 285 284
f 284 432 434
f 432 284 283
f 282 428 430
f 428 282 281
f 442 287 440
f 287 442 288
f 279 426 280
f 426 279 423
f 266 425 267
f 425 266 427
f 429 271 431
f 271 429 270
f 433 273 435
f 273 433 272
f 36 542 38
f 542 36 543
f 431 272 433
f 272 431 271
f 38 553 40
f 553 38 542
f 286 436 438
f 436 286 285
f 82 33 35
f 33 82 533
f 533 82 421
f 533 421 135
f 533 135 555
f 561 35 37
f 35 561 82
f 82 561 421
f 421 561 135
f 135 561 555
f 559 39 41
f 39 559 558
f 558 37 39
f 37 558 561
f 533 31 33
f 31 533 532
f 532 29 31
f 29 532 526
f 507 26 517
f 26 507 28
f 28 504 30
f 504 28 507
f 30 503 32
f 503 30 504
f 32 546 34
f 546 32 503
f 46 551 45
f 551 46 549
f 549 46 11
f 549 11 12
f 12 11 292
f 34 543 36
f 543 34 546
f 455 24 453
f 24 455 25
f 25 455 69
f 25 69 95
f 95 69 291
f 453 27 528
f 27 453 24
f 42 539 44
f 539 42 537
f 43 559 41
f 559 43 564
f 44 11 46
f 11 44 292
f 292 44 12
f 12 539 549
f 539 12 44
f 45 564 43
f 564 45 551
f 528 29 526
f 29 528 27
f 519 69 455
f 69 519 291
f 291 519 95
f 95 23 25
f 23 95 519
f 517 23 519
f 23 517 26
f 441 277 443
f 277 441 276
f 435 274 437
f 274 435 273
f 437 275 439
f 275 437 274
f 443 278 445
f 278 443 277
f 439 276 441
f 276 439 275
f 166 518 165
f 518 166 506
f 506 166 167
f 164 452 163
f 452 164 520
f 496 458 459
f 458 496 497
f 458 497 513
f 513 497 490
f 513 490 461
f 461 490 475
f 461 475 460
f 460 475 476
f 460 476 485
f 485 476 477
f 485 477 486
f 486 477 478
f 486 478 522
f 522 478 498
f 522 498 516
f 516 498 501
f 516 501 515
f 515 501 456
f 515 456 514
f 514 456 457
f 514 457 481
f 481 457 479
f 481 479 480
f 480 479 499
f 171 544 541
f 544 171 172
f 170 541 545
f 541 170 171
f 165 520 164
f 520 165 518
f 190 525 192
f 525 190 454
f 194 527 196
f 527 194 525
f 525 194 192
f 554 174 540
f 174 554 173
f 163 454 190
f 454 163 452
f 493 469 492
f 469 493 494
f 469 494 468
f 468 494 495
f 468 495 491
f 491 495 472
f 491 472 487
f 487 472 470
f 487 470 488
f 488 470 471
f 488 471 521
f 521 471 500
f 521 500 483
f 483 500 482
f 483 482 484
f 484 482 464
f 484 464 489
f 489 464 465
f 489 465 467
f 467 465 462
f 467 462 466
f 466 462 463
f 540 175 538
f 175 540 174
f 172 554 544
f 554 172 173
f 568 569 570
f 569 568 571
f 572 573 574
f 573 572 575
f 575 572 576
f 575 576 577
f 578 303 579
f 303 578 348
f 303 348 580
f 580 348 581
f 582 572 365
f 572 582 583
f 572 583 576
f 576 583 364
f 327 584 585
f 584 327 358
f 358 327 586
f 358 586 587
f 588 331 589
f 331 588 320
f 331 320 590
f 331 590 591
f 574 592 593
f 592 574 573
f 592 573 594
f 595 596 597
f 596 595 570
f 596 570 598
f 598 570 569
f 599 600 601
f 600 599 602
f 600 603 601
f 603 600 604
f 603 604 605
f 605 604 568
f 605 568 606
f 606 568 570
f 606 570 575
f 575 570 595
f 575 595 573
f 573 595 594
f 594 595 607
f 594 607 608
f 594 608 110
f 110 608 584
f 584 608 578
f 584 578 585
f 585 578 579
f 585 579 589
f 589 579 609
f 589 609 588
f 588 609 610
f 611 598 362
f 598 611 612
f 598 612 596
f 596 612 296
f 607 351 608
f 351 607 613
f 351 613 293
f 351 293 614
f 614 293 611
f 611 293 612
f 608 348 578
f 348 608 351
f 348 351 581
f 581 351 614
f 587 364 583
f 364 587 576
f 576 587 577
f 577 587 586
f 577 586 615
f 615 586 591
f 615 591 616
f 616 591 590
f 616 590 617
f 617 590 618
f 617 618 599
f 599 618 619
f 599 619 602
f 602 619 580
f 602 580 620
f 620 580 581
f 620 581 571
f 571 581 614
f 571 614 569
f 569 614 611
f 569 611 362
f 598 569 362
f 303 609 579
f 609 303 299
f 299 303 619
f 619 303 580
f 577 606 575
f 606 577 615
f 602 604 600
f 604 602 620
f 299 610 609
f 610 299 324
f 324 299 618
f 618 299 619
f 603 599 601
f 599 603 617
f 605 617 603
f 617 605 616
f 604 571 568
f 571 604 620
f 610 320 588
f 320 610 324
f 320 324 618
f 320 618 590
f 621 293 613
f 293 621 296
f 293 296 612
f 331 585 589
f 585 331 327
f 327 331 591
f 327 591 586
f 358 110 584
f 110 358 594
f 594 358 592
f 592 358 356
f 356 358 587
f 356 587 583
f 356 583 582
f 597 296 621
f 296 597 596
f 597 607 595
f 607 597 613
f 613 597 621
f 615 605 606
f 605 615 616
f 356 593 592
f 593 356 365
f 365 356 582
f 365 574 593
f 574 365 572
f 191 548 180
f 548 191 547
f 180 450 179
f 450 180 548
f 473 185 474
f 185 473 186
f 508 183 446
f 183 508 184
f 536 210 535
f 210 536 208
f 195 524 523
f 524 195 198
f 510 187 509
f 187 510 188
f 512 189 511
f 189 512 212
f 509 186 473
f 186 509 187
f 511 188 510
f 188 511 189
f 474 184 508
f 184 474 185
f 535 212 512
f 212 535 210
f 206 536 530
f 536 206 208
f 202 529 565
f 529 202 204
f 204 530 529
f 530 204 206
f 198 566 524
f 566 198 200
f 200 565 566
f 565 200 202
f 195 567 193
f 567 195 523
f 193 547 191
f 547 193 567
