# pie-ttp.obj (EXERSUITE3D, cm)
v -3.507 2.500 -51.758
v -3.507 -2.500 51.758
v -3.507 2.500 51.758
v -3.507 -2.500 -51.758
v -7.507 2.500 -51.758
v 7.507 2.500 -51.958
v -7.507 2.500 -51.958
v 3.507 2.500 -51.727
v 7.507 2.500 -51.727
v 7.507 2.500 51.958
v -7.507 2.500 51.758
v -7.507 2.500 51.958
v 3.507 2.500 51.758
v 7.507 2.500 51.758
v -3.327 2.320 51.758
v 3.327 -2.320 51.758
v -3.327 -2.320 51.758
v 3.327 2.320 51.758
v -7.507 -2.500 -51.958
v -3.327 -2.320 -51.958
v 7.507 -2.500 -51.958
v -3.327 2.320 -51.958
v 3.327 2.320 -51.958
v 3.327 -2.320 -51.958
v 3.507 -2.500 51.958
v 7.507 -2.500 51.958
v -7.507 -2.500 51.958
v -7.507 -2.500 -51.758
v 3.507 -2.500 -51.727
v 7.507 -2.500 -51.727
v -7.507 -2.500 51.758
v 3.507 -2.500 51.758
v 7.507 -2.500 51.758
f 1 2 3
f 2 1 4
f 5 6 7
f 6 5 1
f 6 1 8
f 8 1 3
f 6 8 9
f 10 11 12
f 11 10 3
f 3 10 13
f 3 13 8
f 13 10 14
f 15 16 17
f 16 15 18
f 19 20 21
f 20 19 7
f 20 7 22
f 22 7 23
f 21 24 6
f 24 21 20
f 6 24 23
f 6 23 7
f 23 16 18
f 16 23 24
f 23 15 22
f 15 23 18
f 20 15 17
f 15 20 22
f 10 25 26
f 25 10 27
f 27 10 12
f 21 28 19
f 28 21 4
f 4 21 29
f 4 29 2
f 29 21 30
f 2 27 31
f 27 2 25
f 25 2 29
f 25 29 32
f 25 32 33
f 25 33 26
f 16 20 17
f 20 16 24
f 29 13 32
f 13 29 8
f 33 10 26
f 10 33 14
f 11 27 12
f 27 11 31
f 11 2 31
f 2 11 3
f 9 29 30
f 29 9 8
f 21 9 30
f 9 21 6
f 13 33 32
f 33 13 14
f 7 28 5
f 28 7 19
f 1 28 4
f 28 1 5
