# puente-carro-ttp.obj (EXERSUITE3D, cm)
v -1.536 -10.200 -0.000
v -1.757 -10.077 -0.934
v -1.536 -10.077 -0.934
v -1.757 -10.200 -0.000
v -1.757 -9.717 -1.804
v -1.536 -9.717 -1.804
v 1.757 -6.593 -3.607
v 1.536 -7.527 -3.484
v 1.536 -6.593 -3.607
v 1.757 -7.527 -3.484
v 1.757 -9.144 2.551
v 1.536 -8.396 3.124
v 1.536 -9.144 2.551
v 1.757 -8.396 3.124
v -1.536 -9.144 2.551
v -1.757 -9.717 1.804
v -1.536 -9.717 1.804
v -1.757 -9.144 2.551
v -1.536 -10.077 0.934
v -1.536 -9.144 -2.551
v -1.536 -8.396 -3.124
v -1.536 -8.396 3.124
v -1.536 -7.527 -3.484
v -1.536 -7.527 3.484
v -1.536 -6.593 3.607
v -1.536 -6.593 -3.607
v -1.536 -0.200 -3.607
v -1.536 -0.200 3.607
v 1.536 -10.077 0.934
v 1.536 -10.077 -0.934
v 1.536 -10.200 -0.000
v 1.536 -9.717 -1.804
v 1.536 -9.717 1.804
v 1.536 -9.144 -2.551
v 1.536 -8.396 -3.124
v 1.536 -7.527 3.484
v 1.536 -6.593 3.607
v 1.536 -0.200 3.607
v 1.536 -0.200 -3.607
v -1.757 -10.077 0.934
v -1.757 -9.144 -2.551
v -1.757 -8.396 -3.124
v -1.757 -8.396 3.124
v -1.757 -7.527 -3.484
v -1.757 -7.527 3.484
v -1.757 -6.593 3.607
v -1.757 -6.593 -3.607
v -1.757 6.593 -3.607
v -1.757 6.593 3.607
v -1.757 7.527 -3.484
v -1.757 7.527 3.484
v -1.757 8.396 -3.124
v -1.757 8.396 3.124
v -1.757 9.144 -2.551
v -1.757 9.144 2.551
v -1.757 9.717 -1.804
v -1.757 9.717 1.804
v -1.757 10.077 -0.934
v -1.757 10.077 0.934
v -1.757 10.200 0.000
v 1.757 -8.396 -3.124
v 1.757 -10.077 -0.934
v 1.757 -9.717 -1.804
v 1.757 -7.527 3.484
v 1.757 -6.593 3.607
v 1.757 -9.717 1.804
v 1.757 -10.077 0.934
v -1.536 0.200 3.607
v 1.536 0.200 3.607
v 1.536 6.593 3.607
v 1.757 6.593 3.607
v -1.536 6.593 3.607
v 1.757 -10.200 -0.000
v 1.757 -9.144 -2.551
v 1.757 6.593 -3.607
v 1.757 7.527 -3.484
v 1.757 7.527 3.484
v 1.757 8.396 -3.124
v 1.757 8.396 3.124
v 1.757 9.144 2.551
v 1.757 9.144 -2.551
v 1.757 9.717 -1.804
v 1.757 9.717 1.804
v 1.757 10.077 -0.934
v 1.757 10.077 0.934
v 1.757 10.200 0.000
v -1.536 6.593 -3.607
v -1.536 0.200 -3.607
v 1.536 0.200 -3.607
v 1.536 6.593 -3.607
v -1.536 7.527 -3.484
v -1.536 7.527 3.484
v -1.536 8.396 -3.124
v -1.536 8.396 3.124
v -1.536 9.144 -2.551
v -1.536 9.144 2.551
v -1.536 9.717 -1.804
v -1.536 9.717 1.804
v -1.536 10.077 -0.934
v -1.536 10.077 0.934
v -1.536 10.200 0.000
v 1.536 7.527 3.484
v 1.536 7.527 -3.484
v 1.536 8.396 3.124
v 1.536 8.396 -3.124
v 1.536 9.144 2.551
v 1.536 9.144 -2.551
v 1.536 9.717 -1.804
v 1.536 9.717 1.804
v 1.536 10.077 -0.934
v 1.536 10.077 0.934
v 1.536 10.200 0.000
f 1 2 3
f 2 1 4
f 3 5 6
f 5 3 2
f 7 8 9
f 8 7 10
f 11 12 13
f 12 11 14
f 15 16 17
f 16 15 18
f 3 19 1
f 19 3 17
f 17 3 6
f 17 6 20
f 17 20 15
f 15 20 21
f 15 21 22
f 22 21 23
f 22 23 24
f 24 23 25
f 25 23 26
f 25 26 27
f 25 27 28
f 29 30 31
f 30 29 32
f 32 29 33
f 32 33 34
f 34 33 13
f 34 13 35
f 35 13 12
f 35 12 36
f 35 36 8
f 8 36 37
f 8 37 9
f 9 37 38
f 9 38 39
f 40 2 4
f 2 40 16
f 2 16 5
f 5 16 41
f 41 16 18
f 41 18 42
f 42 18 43
f 42 43 44
f 44 43 45
f 44 45 46
f 44 46 47
f 47 46 48
f 48 46 49
f 48 49 50
f 50 49 51
f 50 51 52
f 52 51 53
f 52 53 54
f 54 53 55
f 54 55 56
f 56 55 57
f 56 57 58
f 58 57 59
f 58 59 60
f 38 27 39
f 27 38 28
f 10 35 8
f 35 10 61
f 19 4 1
f 4 19 40
f 62 32 63
f 32 62 30
f 64 37 36
f 37 64 65
f 24 46 45
f 46 24 25
f 66 29 67
f 29 66 33
f 38 68 28
f 68 38 69
f 69 38 37
f 69 37 70
f 70 37 65
f 70 65 71
f 25 49 46
f 49 25 28
f 49 28 72
f 72 28 68
f 6 41 20
f 41 6 5
f 18 22 43
f 22 18 15
f 23 42 44
f 42 23 21
f 17 40 19
f 40 17 16
f 62 67 73
f 67 62 63
f 67 63 66
f 66 63 74
f 66 74 11
f 11 74 61
f 11 61 14
f 14 61 64
f 64 61 10
f 64 10 65
f 65 10 7
f 65 7 71
f 71 7 75
f 71 75 76
f 71 76 77
f 77 76 78
f 77 78 79
f 79 78 80
f 80 78 81
f 80 81 82
f 80 82 83
f 83 82 84
f 83 84 85
f 85 84 86
f 73 30 62
f 30 73 31
f 87 27 48
f 27 87 88
f 27 88 39
f 39 88 89
f 39 89 9
f 9 89 90
f 9 90 7
f 7 90 75
f 48 26 47
f 26 48 27
f 26 44 47
f 44 26 23
f 12 64 36
f 64 12 14
f 11 33 66
f 33 11 13
f 35 74 34
f 74 35 61
f 63 34 74
f 34 63 32
f 22 45 43
f 45 22 24
f 67 31 73
f 31 67 29
f 21 41 42
f 41 21 20
f 87 68 88
f 68 87 72
f 72 87 91
f 72 91 92
f 92 91 93
f 92 93 94
f 94 93 95
f 94 95 96
f 96 95 97
f 96 97 98
f 98 97 99
f 98 99 100
f 100 99 101
f 68 89 88
f 89 68 69
f 70 89 69
f 89 70 90
f 90 70 102
f 90 102 103
f 103 102 104
f 103 104 105
f 105 104 106
f 105 106 107
f 107 106 108
f 108 106 109
f 108 109 110
f 110 109 111
f 110 111 112
f 57 100 59
f 100 57 98
f 77 104 102
f 104 77 79
f 60 99 58
f 99 60 101
f 81 105 107
f 105 81 78
f 59 101 60
f 101 59 100
f 71 102 70
f 102 71 77
f 56 95 54
f 95 56 97
f 93 50 52
f 50 93 91
f 106 83 109
f 83 106 80
f 105 76 103
f 76 105 78
f 76 90 103
f 90 76 75
f 109 85 111
f 85 109 83
f 104 80 106
f 80 104 79
f 55 98 57
f 98 55 96
f 112 84 110
f 84 112 86
f 54 93 52
f 93 54 95
f 72 51 49
f 51 72 92
f 94 55 53
f 55 94 96
f 91 48 50
f 48 91 87
f 92 53 51
f 53 92 94
f 110 82 108
f 82 110 84
f 58 97 56
f 97 58 99
f 108 81 107
f 81 108 82
f 111 86 112
f 86 111 85
