# riel-base-pr.obj (EXERSUITE3D, cm)
v 59.000 -2.500 1.500
v 59.000 -2.296 1.296
v 59.000 2.500 1.500
v 59.000 -2.500 -5.500
v 59.000 -2.296 -5.296
v 59.000 2.296 -5.296
v 59.000 2.296 1.296
v 59.000 2.500 -5.500
v 42.124 2.500 -0.482
v 42.087 2.500 -3.753
v 42.074 2.500 -0.355
v 42.100 2.500 -3.625
v 42.146 2.500 -3.505
v 42.204 2.500 -0.591
v 42.222 2.500 -3.401
v 42.310 2.500 -0.676
v 42.322 2.500 -3.321
v 42.435 2.500 -0.730
v 42.440 2.500 -3.268
v 42.569 2.500 -0.750
v 42.567 2.500 -3.248
v 42.694 2.500 -3.262
v 42.704 2.500 -0.735
v 42.814 2.500 -3.308
v 42.830 2.500 -0.686
v 42.918 2.500 -3.384
v 42.939 2.500 -0.605
v 42.999 2.500 -3.484
v 43.024 2.500 -0.499
v 43.051 2.500 -3.601
v 43.078 2.500 -0.375
v 43.071 2.500 -3.728
v -59.000 2.500 1.500
v -47.353 2.500 0.157
v -59.000 2.500 -5.500
v -47.231 2.500 0.206
v -47.100 2.500 0.221
v -47.458 2.500 0.078
v -47.539 2.500 -0.025
v -47.590 2.500 -0.146
v -47.609 2.500 -0.276
v -46.970 2.500 0.203
v -46.849 2.500 0.151
v -34.415 2.500 0.245
v -46.746 2.500 0.070
v -46.667 2.500 -0.035
v -46.618 2.500 -0.157
v -46.603 2.500 -0.287
v -34.543 2.500 0.227
v -46.599 2.500 -3.780
v -34.661 2.500 0.178
v -34.763 2.500 0.100
v -34.841 2.500 -0.002
v -34.889 2.500 -0.121
v -34.906 2.500 -0.248
v -34.911 2.500 -3.742
v -34.288 2.500 0.228
v -34.170 2.500 0.179
v -34.068 2.500 0.101
v -33.989 2.500 -0.000
v -33.940 2.500 -0.119
v -33.923 2.500 -0.246
v 28.419 2.500 0.245
v -33.918 2.500 -3.742
v 28.292 2.500 0.227
v 28.174 2.500 0.177
v 28.073 2.500 0.098
v 27.995 2.500 -0.004
v 27.947 2.500 -0.123
v 27.931 2.500 -0.250
v 27.910 2.500 -3.747
v 27.926 2.500 -3.614
v 28.547 2.500 0.229
v 28.665 2.500 0.180
v 28.768 2.500 0.103
v 28.846 2.500 0.001
v 28.896 2.500 -0.117
v 28.914 2.500 -0.244
v 42.589 2.500 0.289
v 42.454 2.500 0.274
v 28.915 2.500 -3.603
v 28.934 2.500 -3.735
v 42.328 2.500 0.225
v 42.219 2.500 0.144
v 42.134 2.500 0.038
v 42.079 2.500 -0.086
v 42.059 2.500 -0.221
v 42.723 2.500 0.269
v 42.848 2.500 0.214
v 42.954 2.500 0.130
v 43.034 2.500 0.020
v 43.084 2.500 -0.106
v 43.099 2.500 -0.241
v -47.069 2.500 -4.280
v -47.195 2.500 -4.268
v -47.314 2.500 -4.223
v -47.417 2.500 -4.149
v -47.497 2.500 -4.051
v -47.550 2.500 -3.935
v -47.570 2.500 -3.810
v -47.593 2.500 -0.407
v -46.944 2.500 -4.260
v -46.828 2.500 -4.208
v -46.730 2.500 -4.128
v -34.414 2.500 -4.238
v -46.656 2.500 -4.025
v -46.611 2.500 -3.906
v -34.543 2.500 -4.221
v -34.662 2.500 -4.172
v -34.765 2.500 -4.093
v -34.844 2.500 -3.990
v -34.894 2.500 -3.870
v -34.286 2.500 -4.221
v -34.166 2.500 -4.172
v -34.063 2.500 -4.093
v -33.984 2.500 -3.990
v -33.935 2.500 -3.870
v 28.428 2.500 -4.253
v 28.296 2.500 -4.237
v 28.172 2.500 -4.187
v 28.065 2.500 -4.107
v 27.982 2.500 -4.002
v 27.929 2.500 -3.879
v 28.561 2.500 -4.234
v 28.683 2.500 -4.181
v 28.788 2.500 -4.099
v 28.869 2.500 -3.992
v 28.918 2.500 -3.868
v 42.591 2.500 -4.233
v 42.463 2.500 -4.220
v 42.343 2.500 -4.173
v 42.239 2.500 -4.098
v 42.159 2.500 -3.998
v 42.107 2.500 -3.880
v 42.718 2.500 -4.213
v 42.836 2.500 -4.161
v 42.936 2.500 -4.080
v 43.011 2.500 -3.976
v 43.058 2.500 -3.856
v 27.976 2.500 -3.490
v 27.948 2.500 -0.377
v 27.998 2.500 -0.495
v 28.056 2.500 -3.383
v 28.077 2.500 -0.597
v 28.161 2.500 -3.300
v 28.179 2.500 -0.674
v 28.284 2.500 -3.248
v 28.298 2.500 -0.723
v 28.416 2.500 -3.229
v 28.425 2.500 -0.739
v 28.549 2.500 -3.245
v 28.552 2.500 -0.721
v 28.673 2.500 -3.295
v 28.671 2.500 -0.671
v 28.772 2.500 -0.592
v 28.780 2.500 -3.375
v 28.850 2.500 -0.490
v 28.863 2.500 -3.480
v 28.898 2.500 -0.371
v -34.894 2.500 -3.613
v -34.889 2.500 -0.375
v -34.844 2.500 -3.494
v -34.839 2.500 -0.494
v -34.765 2.500 -3.391
v -34.761 2.500 -0.595
v -34.662 2.500 -3.312
v -34.659 2.500 -0.673
v -34.543 2.500 -3.262
v -34.540 2.500 -0.722
v -34.414 2.500 -3.245
v -34.413 2.500 -0.739
v -34.286 2.500 -3.262
v -34.286 2.500 -0.721
v -34.167 2.500 -0.672
v -34.166 2.500 -3.312
v -34.066 2.500 -0.594
v -34.063 2.500 -3.391
v -33.988 2.500 -0.492
v -33.984 2.500 -3.494
v -33.939 2.500 -0.373
v -33.935 2.500 -3.613
v -47.544 2.500 -0.529
v -47.557 2.500 -3.684
v -47.512 2.500 -3.565
v -47.466 2.500 -0.634
v -47.438 2.500 -3.462
v -47.362 2.500 -0.715
v -47.340 2.500 -3.382
v -47.241 2.500 -0.766
v -47.225 2.500 -3.330
v -47.111 2.500 -0.785
v -47.099 2.500 -3.309
v -46.981 2.500 -0.769
v -46.973 2.500 -3.322
v -46.859 2.500 -0.720
v -46.855 2.500 -3.367
v -46.754 2.500 -0.642
v -46.752 2.500 -3.441
v -46.673 2.500 -0.538
v -46.671 2.500 -3.539
v -46.621 2.500 -0.417
v -46.619 2.500 -3.655
v -59.000 -2.500 1.500
v -59.000 -2.500 -5.500
v -34.000 -2.500 1.500
v -30.000 -2.500 1.500
v -32.252 -2.500 3.063
v -32.356 -2.500 3.144
v -32.437 -2.500 3.248
v -34.000 -2.500 5.500
v -32.487 -2.500 3.370
v -32.504 -2.500 3.500
v -32.130 -2.500 3.013
v -32.000 -2.500 2.996
v -31.870 -2.500 3.013
v -31.748 -2.500 3.063
v -31.644 -2.500 3.144
v -31.563 -2.500 3.248
v -31.513 -2.500 3.370
v -31.496 -2.500 3.500
v 46.000 -2.500 1.500
v 47.748 -2.500 3.063
v 47.643 -2.500 3.143
v 47.563 -2.500 3.248
v 46.000 -2.500 5.500
v 47.513 -2.500 3.369
v 47.495 -2.500 3.500
v 47.869 -2.500 3.013
v 48.000 -2.500 2.996
v 50.000 -2.500 1.500
v 48.131 -2.500 3.013
v 48.252 -2.500 3.063
v 48.357 -2.500 3.143
v 48.437 -2.500 3.248
v 48.487 -2.500 3.369
v 48.505 -2.500 3.500
v 47.748 -2.500 3.937
v 50.000 -2.500 5.500
v 47.643 -2.500 3.857
v 47.563 -2.500 3.752
v 47.513 -2.500 3.631
v 47.869 -2.500 3.987
v 48.000 -2.500 4.004
v 48.131 -2.500 3.987
v 48.252 -2.500 3.937
v 48.357 -2.500 3.857
v 48.437 -2.500 3.752
v 48.487 -2.500 3.631
v -32.252 -2.500 3.937
v -30.000 -2.500 5.500
v -32.356 -2.500 3.856
v -32.437 -2.500 3.752
v -32.487 -2.500 3.630
v -32.130 -2.500 3.987
v -32.000 -2.500 4.004
v -31.870 -2.500 3.987
v -31.748 -2.500 3.937
v -31.644 -2.500 3.856
v -31.563 -2.500 3.752
v -31.513 -2.500 3.630
v -59.000 2.296 1.296
v -59.000 2.296 -5.296
v -59.000 -2.296 -5.296
v -59.000 -2.296 1.296
v 30.675 -1.732 -5.500
v 40.570 -1.737 -5.500
v 30.553 -1.742 -5.500
v 40.450 -1.721 -5.500
v 30.790 -1.691 -5.500
v 40.339 -1.675 -5.500
v 30.890 -1.622 -5.500
v 40.243 -1.602 -5.500
v 30.970 -1.529 -5.500
v 40.170 -1.506 -5.500
v 31.022 -1.419 -5.500
v 40.124 -1.395 -5.500
v 31.044 -1.299 -5.500
v 40.108 -1.275 -5.500
v 31.034 -1.177 -5.500
v 40.124 -1.156 -5.500
v 30.993 -1.062 -5.500
v 40.170 -1.045 -5.500
v 30.923 -0.962 -5.500
v 40.243 -0.949 -5.500
v 30.830 -0.883 -5.500
v 40.339 -0.876 -5.500
v 30.720 -0.830 -5.500
v 40.450 -0.830 -5.500
v 30.600 -0.808 -5.500
v 40.570 -0.814 -5.500
v -46.500 -1.732 -5.500
v -36.595 -1.721 -5.500
v -36.476 -1.735 -5.500
v -46.377 -1.717 -5.500
v -36.707 -1.678 -5.500
v -46.261 -1.671 -5.500
v -36.804 -1.606 -5.500
v -46.161 -1.596 -5.500
v -36.878 -1.513 -5.500
v -46.084 -1.498 -5.500
v -36.926 -1.403 -5.500
v -46.035 -1.383 -5.500
v -36.944 -1.284 -5.500
v -46.017 -1.260 -5.500
v -36.931 -1.165 -5.500
v -46.032 -1.136 -5.500
v -36.887 -1.053 -5.500
v -46.078 -1.020 -5.500
v -36.816 -0.957 -5.500
v -46.153 -0.920 -5.500
v -36.722 -0.882 -5.500
v -46.251 -0.843 -5.500
v -36.612 -0.834 -5.500
v -46.366 -0.794 -5.500
v -36.494 -0.816 -5.500
v 30.433 -1.721 -5.500
v -36.358 -1.717 -5.500
v 30.323 -1.668 -5.500
v -36.248 -1.669 -5.500
v -36.154 -1.594 -5.500
v 30.230 -1.589 -5.500
v -36.083 -1.497 -5.500
v 30.161 -1.489 -5.500
v -36.039 -1.386 -5.500
v 30.120 -1.374 -5.500
v -36.026 -1.267 -5.500
v 30.110 -1.252 -5.500
v -36.044 -1.148 -5.500
v 30.132 -1.132 -5.500
v -36.092 -1.038 -5.500
v 30.184 -1.022 -5.500
v -36.167 -0.944 -5.500
v 30.263 -0.929 -5.500
v -36.263 -0.873 -5.500
v 30.363 -0.859 -5.500
v -36.375 -0.829 -5.500
v 30.478 -0.818 -5.500
v -36.248 0.866 -5.500
v 30.573 0.827 -5.500
v -36.363 0.819 -5.500
v 30.453 0.843 -5.500
v 30.341 0.891 -5.500
v -36.148 0.942 -5.500
v 30.246 0.965 -5.500
v -36.072 1.041 -5.500
v 30.173 1.062 -5.500
v -36.023 1.156 -5.500
v 30.127 1.174 -5.500
v -36.006 1.280 -5.500
v 30.112 1.295 -5.500
v -36.022 1.404 -5.500
v 30.129 1.415 -5.500
v -36.069 1.520 -5.500
v 30.176 1.526 -5.500
v -36.145 1.619 -5.500
v 30.251 1.622 -5.500
v -36.244 1.696 -5.500
v 30.348 1.695 -5.500
v 30.460 1.740 -5.500
v -36.359 1.744 -5.500
v 30.580 1.755 -5.500
v -36.483 1.761 -5.500
v -46.624 -1.714 -5.500
v -46.739 -1.665 -5.500
v -46.837 -1.588 -5.500
v -46.911 -1.488 -5.500
v -46.958 -1.372 -5.500
v -46.973 -1.249 -5.500
v -46.955 -1.125 -5.500
v -46.906 -1.010 -5.500
v -46.829 -0.912 -5.500
v -46.729 -0.838 -5.500
v -46.613 -0.791 -5.500
v -46.489 -0.776 -5.500
v -46.496 0.805 -5.500
v -36.487 0.803 -5.500
v 40.561 0.798 -5.500
v -46.614 0.823 -5.500
v -46.724 0.871 -5.500
v -46.818 0.946 -5.500
v -46.889 1.043 -5.500
v -46.933 1.154 -5.500
v -46.946 1.274 -5.500
v -46.928 1.392 -5.500
v -46.880 1.502 -5.500
v -46.805 1.596 -5.500
v -46.708 1.667 -5.500
v -46.596 1.711 -5.500
v -46.477 1.724 -5.500
v -36.607 1.745 -5.500
v 40.561 1.766 -5.500
v 40.689 -1.721 -5.500
v 40.800 -1.675 -5.500
v 40.896 -1.602 -5.500
v 40.969 -1.506 -5.500
v 41.016 -1.395 -5.500
v 41.031 -1.275 -5.500
v 41.016 -1.156 -5.500
v 40.969 -1.045 -5.500
v 40.896 -0.949 -5.500
v 40.800 -0.876 -5.500
v 40.689 -0.830 -5.500
v 40.686 0.815 -5.500
v 40.803 0.863 -5.500
v 40.903 0.940 -5.500
v 40.980 1.040 -5.500
v 41.028 1.157 -5.500
v 41.045 1.282 -5.500
v 41.028 1.408 -5.500
v 40.980 1.524 -5.500
v 40.903 1.624 -5.500
v 40.803 1.701 -5.500
v 40.686 1.750 -5.500
v 40.436 0.815 -5.500
v 40.319 0.863 -5.500
v 30.693 0.842 -5.500
v 30.806 0.887 -5.500
v 40.219 0.940 -5.500
v 30.902 0.960 -5.500
v 40.142 1.040 -5.500
v 30.977 1.056 -5.500
v 40.093 1.157 -5.500
v 31.024 1.167 -5.500
v 40.077 1.282 -5.500
v 31.041 1.287 -5.500
v 40.093 1.408 -5.500
v 31.026 1.407 -5.500
v 30.981 1.520 -5.500
v 40.142 1.524 -5.500
v 30.908 1.617 -5.500
v 40.219 1.624 -5.500
v 30.812 1.691 -5.500
v 40.319 1.701 -5.500
v 30.700 1.738 -5.500
v 40.436 1.750 -5.500
v -36.611 0.820 -5.500
v -46.376 0.818 -5.500
v -46.265 0.862 -5.500
v -36.726 0.869 -5.500
v -46.168 0.933 -5.500
v -36.825 0.945 -5.500
v -46.093 1.027 -5.500
v -36.901 1.045 -5.500
v -46.045 1.136 -5.500
v -36.948 1.160 -5.500
v -46.027 1.255 -5.500
v -36.964 1.284 -5.500
v -46.040 1.374 -5.500
v -36.947 1.408 -5.500
v -46.084 1.486 -5.500
v -36.899 1.523 -5.500
v -46.155 1.583 -5.500
v -36.822 1.622 -5.500
v -46.248 1.658 -5.500
v -36.723 1.698 -5.500
v -46.358 1.706 -5.500
v -36.557 0.806 1.500
v -46.440 0.818 1.500
v -46.563 0.802 1.500
v -36.685 0.827 1.500
v -46.324 0.866 1.500
v -36.803 0.880 1.500
v -46.225 0.942 1.500
v -36.904 0.963 1.500
v -46.149 1.040 1.500
v -36.979 1.069 1.500
v -46.101 1.156 1.500
v -37.025 1.190 1.500
v -46.085 1.279 1.500
v -37.037 1.320 1.500
v -46.101 1.403 1.500
v -37.016 1.448 1.500
v -46.148 1.518 1.500
v -36.962 1.566 1.500
v -46.224 1.618 1.500
v -36.880 1.666 1.500
v -46.323 1.694 1.500
v -36.774 1.742 1.500
v -46.438 1.742 1.500
v -46.562 1.758 1.500
v -36.653 1.788 1.500
v 40.510 0.824 1.500
v 30.624 0.841 1.500
v 30.502 0.823 1.500
v 40.385 0.841 1.500
v 30.737 0.890 1.500
v 40.268 0.889 1.500
v 40.168 0.966 1.500
v 30.834 0.966 1.500
v 30.907 1.065 1.500
v 40.091 1.066 1.500
v 30.953 1.179 1.500
v 40.043 1.183 1.500
v 30.967 1.302 1.500
v 40.026 1.308 1.500
v 30.950 1.424 1.500
v 40.043 1.434 1.500
v 30.901 1.537 1.500
v 40.091 1.550 1.500
v 30.825 1.634 1.500
v 40.168 1.651 1.500
v 30.726 1.708 1.500
v 40.268 1.728 1.500
v 30.611 1.753 1.500
v 40.385 1.776 1.500
v 30.489 1.768 1.500
v 50.000 -1.500 1.500
v 46.000 -1.500 1.500
v 40.929 -1.469 1.500
v 40.978 -1.352 1.500
v 40.994 -1.227 1.500
v 40.978 -1.102 1.500
v 40.929 -0.985 1.500
v 40.852 -0.885 1.500
v 40.752 -0.808 1.500
v 40.636 -0.760 1.500
v 40.510 -0.744 1.500
v -46.446 -0.742 1.500
v -46.577 -0.726 1.500
v -36.427 0.818 1.500
v 40.636 0.841 1.500
v 40.752 0.889 1.500
v 40.853 0.966 1.500
v 40.930 1.066 1.500
v 40.978 1.183 1.500
v 40.994 1.308 1.500
v 40.978 1.434 1.500
v 40.930 1.550 1.500
v 40.853 1.651 1.500
v 40.752 1.728 1.500
v 40.636 1.776 1.500
v 40.510 1.792 1.500
v -36.523 1.800 1.500
v -46.701 -1.719 1.500
v -46.570 -1.735 1.500
v -46.823 -1.669 1.500
v -46.928 -1.590 1.500
v -47.009 -1.486 1.500
v -47.060 -1.364 1.500
v -47.078 -1.234 1.500
v -47.062 -1.103 1.500
v -47.012 -0.981 1.500
v -46.933 -0.876 1.500
v -46.829 -0.795 1.500
v -46.707 -0.744 1.500
v -46.687 0.818 1.500
v -46.802 0.866 1.500
v -46.901 0.943 1.500
v -46.977 1.042 1.500
v -47.025 1.157 1.500
v -47.041 1.281 1.500
v -47.024 1.404 1.500
v -46.976 1.520 1.500
v -46.900 1.619 1.500
v -46.801 1.694 1.500
v -46.686 1.742 1.500
v -36.306 0.864 1.500
v 30.379 0.838 1.500
v 30.265 0.883 1.500
v -36.200 0.939 1.500
v 30.166 0.957 1.500
v -36.118 1.040 1.500
v 30.089 1.054 1.500
v -36.064 1.158 1.500
v 30.041 1.167 1.500
v -36.043 1.286 1.500
v 30.023 1.289 1.500
v -36.055 1.416 1.500
v 30.037 1.411 1.500
v 30.083 1.526 1.500
v -36.101 1.537 1.500
v 30.157 1.625 1.500
v -36.177 1.643 1.500
v 30.254 1.701 1.500
v -36.277 1.725 1.500
v 30.367 1.750 1.500
v -36.395 1.779 1.500
v 30.498 -1.711 1.500
v -30.000 -1.500 1.500
v 30.373 -1.694 1.500
v 30.257 -1.646 1.500
v 30.156 -1.569 1.500
v 30.080 -1.469 1.500
v -34.000 -1.500 1.500
v -36.130 -1.499 1.500
v -36.079 -1.384 1.500
v 30.031 -1.352 1.500
v -36.060 -1.260 1.500
v 30.015 -1.227 1.500
v -36.074 -1.135 1.500
v 30.031 -1.102 1.500
v -36.120 -1.017 1.500
v 30.080 -0.985 1.500
v -36.194 -0.916 1.500
v 30.156 -0.885 1.500
v -36.292 -0.837 1.500
v 30.257 -0.808 1.500
v -36.407 -0.786 1.500
v 30.373 -0.760 1.500
v -36.531 -0.767 1.500
v 40.510 -1.711 1.500
v 30.623 -1.694 1.500
v 40.385 -1.694 1.500
v 30.740 -1.646 1.500
v 40.269 -1.646 1.500
v 30.840 -1.569 1.500
v 40.169 -1.569 1.500
v 30.917 -1.469 1.500
v 40.092 -1.469 1.500
v 30.965 -1.352 1.500
v 40.043 -1.352 1.500
v 30.982 -1.227 1.500
v 40.027 -1.227 1.500
v 30.965 -1.102 1.500
v 40.043 -1.102 1.500
v 30.917 -0.985 1.500
v 40.092 -0.985 1.500
v 30.840 -0.885 1.500
v 40.169 -0.885 1.500
v 30.740 -0.808 1.500
v 40.269 -0.808 1.500
v 30.623 -0.760 1.500
v 40.385 -0.760 1.500
v 30.498 -0.744 1.500
v -36.553 -1.731 1.500
v -46.440 -1.717 1.500
v -36.677 -1.712 1.500
v -46.318 -1.666 1.500
v -36.792 -1.661 1.500
v -46.214 -1.585 1.500
v -36.890 -1.582 1.500
v -46.135 -1.480 1.500
v -36.964 -1.481 1.500
v -37.010 -1.363 1.500
v -46.085 -1.358 1.500
v -37.024 -1.238 1.500
v -46.069 -1.227 1.500
v -37.005 -1.114 1.500
v -46.087 -1.097 1.500
v -36.954 -0.999 1.500
v -46.138 -0.975 1.500
v -36.875 -0.901 1.500
v -46.219 -0.871 1.500
v -36.774 -0.827 1.500
v -46.324 -0.792 1.500
v -36.656 -0.781 1.500
v -36.428 -1.717 1.500
v -36.310 -1.672 1.500
v -36.209 -1.597 1.500
v 40.636 -1.694 1.500
v 40.752 -1.646 1.500
v 40.852 -1.569 1.500
v -30.000 -1.500 5.500
v -34.000 -1.500 5.500
v -32.437 -1.500 3.752
v -32.356 -1.500 3.856
v -32.252 -1.500 3.937
v -32.487 -1.500 3.630
v -32.504 -1.500 3.500
v -32.130 -1.500 3.987
v -32.000 -1.500 4.004
v -31.870 -1.500 3.987
v -31.748 -1.500 3.937
v -31.644 -1.500 3.856
v -31.563 -1.500 3.752
v -31.513 -1.500 3.630
v -31.496 -1.500 3.500
v -32.252 -1.500 3.063
v -32.356 -1.500 3.144
v -32.437 -1.500 3.248
v -32.487 -1.500 3.370
v -32.130 -1.500 3.013
v -32.000 -1.500 2.996
v -31.870 -1.500 3.013
v -31.748 -1.500 3.063
v -31.644 -1.500 3.144
v -31.563 -1.500 3.248
v -31.513 -1.500 3.370
v 50.000 -1.500 5.500
v 46.000 -1.500 5.500
v 47.563 -1.500 3.752
v 47.643 -1.500 3.857
v 47.748 -1.500 3.937
v 47.513 -1.500 3.631
v 47.495 -1.500 3.500
v 47.869 -1.500 3.987
v 48.000 -1.500 4.004
v 48.131 -1.500 3.987
v 48.252 -1.500 3.937
v 48.357 -1.500 3.857
v 48.437 -1.500 3.752
v 48.487 -1.500 3.631
v 48.505 -1.500 3.500
v 47.748 -1.500 3.063
v 47.643 -1.500 3.143
v 47.563 -1.500 3.248
v 47.513 -1.500 3.369
v 47.869 -1.500 3.013
v 48.000 -1.500 2.996
v 48.131 -1.500 3.013
v 48.252 -1.500 3.063
v 48.357 -1.500 3.143
v 48.437 -1.500 3.248
v 48.487 -1.500 3.369
v -36.611 0.820 -5.296
v -46.496 0.805 -5.296
v -36.487 0.803 -5.296
v -46.376 0.818 -5.296
v -46.265 0.862 -5.296
v -36.726 0.869 -5.296
v -46.168 0.933 -5.296
v -36.825 0.945 -5.296
v -46.093 1.027 -5.296
v -36.901 1.045 -5.296
v -46.045 1.136 -5.296
v -36.948 1.160 -5.296
v -46.027 1.255 -5.296
v -36.964 1.284 -5.296
v -46.040 1.374 -5.296
v -36.947 1.408 -5.296
v -46.084 1.486 -5.296
v -36.899 1.523 -5.296
v -46.155 1.583 -5.296
v -36.822 1.622 -5.296
v -46.248 1.658 -5.296
v -36.723 1.698 -5.296
v -46.358 1.706 -5.296
v -36.607 1.745 -5.296
v -46.477 1.724 -5.296
v 40.436 0.815 -5.296
v 40.561 0.798 -5.296
v -36.363 0.819 -5.296
v 30.573 0.827 -5.296
v 40.319 0.863 -5.296
v 30.693 0.842 -5.296
v 30.806 0.887 -5.296
v 40.219 0.940 -5.296
v 30.902 0.960 -5.296
v 40.142 1.040 -5.296
v 30.977 1.056 -5.296
v 40.093 1.157 -5.296
v 31.024 1.167 -5.296
v 40.077 1.282 -5.296
v 31.041 1.287 -5.296
v 40.093 1.408 -5.296
v 31.026 1.407 -5.296
v 30.981 1.520 -5.296
v 40.142 1.524 -5.296
v 30.908 1.617 -5.296
v 40.219 1.624 -5.296
v 30.812 1.691 -5.296
v 40.319 1.701 -5.296
v 30.700 1.738 -5.296
v 40.436 1.750 -5.296
v 30.580 1.755 -5.296
v 40.561 1.766 -5.296
v -36.483 1.761 -5.296
v 40.570 -1.737 -5.296
v 40.689 -1.721 -5.296
v 30.553 -1.742 -5.296
v 40.800 -1.675 -5.296
v 40.896 -1.602 -5.296
v 40.969 -1.506 -5.296
v 41.016 -1.395 -5.296
v 41.031 -1.275 -5.296
v 41.016 -1.156 -5.296
v 40.969 -1.045 -5.296
v 40.896 -0.949 -5.296
v 40.800 -0.876 -5.296
v 40.689 -0.830 -5.296
v 40.570 -0.814 -5.296
v 30.600 -0.808 -5.296
v -46.366 -0.794 -5.296
v -46.489 -0.776 -5.296
v 40.686 0.815 -5.296
v 40.803 0.863 -5.296
v 40.903 0.940 -5.296
v 40.980 1.040 -5.296
v 41.028 1.157 -5.296
v 41.045 1.282 -5.296
v 41.028 1.408 -5.296
v 40.980 1.524 -5.296
v 40.903 1.624 -5.296
v 40.803 1.701 -5.296
v 40.686 1.750 -5.296
v -46.624 -1.714 -5.296
v -46.500 -1.732 -5.296
v -36.476 -1.735 -5.296
v -46.739 -1.665 -5.296
v -46.837 -1.588 -5.296
v -46.911 -1.488 -5.296
v -46.958 -1.372 -5.296
v -46.973 -1.249 -5.296
v -46.955 -1.125 -5.296
v -46.906 -1.010 -5.296
v -46.829 -0.912 -5.296
v -46.729 -0.838 -5.296
v -46.613 -0.791 -5.296
v -46.614 0.823 -5.296
v -46.724 0.871 -5.296
v -46.818 0.946 -5.296
v -46.889 1.043 -5.296
v -46.933 1.154 -5.296
v -46.946 1.274 -5.296
v -46.928 1.392 -5.296
v -46.880 1.502 -5.296
v -46.805 1.596 -5.296
v -46.708 1.667 -5.296
v -46.596 1.711 -5.296
v -36.248 0.866 -5.296
v 30.453 0.843 -5.296
v 30.341 0.891 -5.296
v -36.148 0.942 -5.296
v 30.246 0.965 -5.296
v -36.072 1.041 -5.296
v 30.173 1.062 -5.296
v -36.023 1.156 -5.296
v 30.127 1.174 -5.296
v -36.006 1.280 -5.296
v 30.112 1.295 -5.296
v -36.022 1.404 -5.296
v 30.129 1.415 -5.296
v -36.069 1.520 -5.296
v 30.176 1.526 -5.296
v -36.145 1.619 -5.296
v 30.251 1.622 -5.296
v -36.244 1.696 -5.296
v 30.348 1.695 -5.296
v 30.460 1.740 -5.296
v -36.359 1.744 -5.296
v 30.433 -1.721 -5.296
v -36.358 -1.717 -5.296
v 30.323 -1.668 -5.296
v -36.248 -1.669 -5.296
v -36.154 -1.594 -5.296
v 30.230 -1.589 -5.296
v -36.083 -1.497 -5.296
v 30.161 -1.489 -5.296
v -36.039 -1.386 -5.296
v 30.120 -1.374 -5.296
v -36.026 -1.267 -5.296
v 30.110 -1.252 -5.296
v -36.044 -1.148 -5.296
v 30.132 -1.132 -5.296
v -36.092 -1.038 -5.296
v 30.184 -1.022 -5.296
v -36.167 -0.944 -5.296
v 30.263 -0.929 -5.296
v -36.263 -0.873 -5.296
v 30.363 -0.859 -5.296
v -36.375 -0.829 -5.296
v 30.478 -0.818 -5.296
v -36.494 -0.816 -5.296
v -36.595 -1.721 -5.296
v -46.377 -1.717 -5.296
v -36.707 -1.678 -5.296
v -46.261 -1.671 -5.296
v -36.804 -1.606 -5.296
v -46.161 -1.596 -5.296
v -36.878 -1.513 -5.296
v -46.084 -1.498 -5.296
v -36.926 -1.403 -5.296
v -46.035 -1.383 -5.296
v -36.944 -1.284 -5.296
v -46.017 -1.260 -5.296
v -36.931 -1.165 -5.296
v -46.032 -1.136 -5.296
v -36.887 -1.053 -5.296
v -46.078 -1.020 -5.296
v -36.816 -0.957 -5.296
v -46.153 -0.920 -5.296
v -36.722 -0.882 -5.296
v -46.251 -0.843 -5.296
v -36.612 -0.834 -5.296
v 30.675 -1.732 -5.296
v 40.450 -1.721 -5.296
v 30.790 -1.691 -5.296
v 40.339 -1.675 -5.296
v 30.890 -1.622 -5.296
v 40.243 -1.602 -5.296
v 30.970 -1.529 -5.296
v 40.170 -1.506 -5.296
v 31.022 -1.419 -5.296
v 40.124 -1.395 -5.296
v 31.044 -1.299 -5.296
v 40.108 -1.275 -5.296
v 31.034 -1.177 -5.296
v 40.124 -1.156 -5.296
v 30.993 -1.062 -5.296
v 40.170 -1.045 -5.296
v 30.923 -0.962 -5.296
v 40.243 -0.949 -5.296
v 30.830 -0.883 -5.296
v 40.339 -0.876 -5.296
v 30.720 -0.830 -5.296
v 40.450 -0.830 -5.296
v -47.314 2.296 -4.223
v -47.195 2.296 -4.268
v -47.069 2.296 -4.280
v -47.417 2.296 -4.149
v -47.497 2.296 -4.051
v -47.550 2.296 -3.935
v -47.570 2.296 -3.810
v -47.609 2.296 -0.276
v -47.593 2.296 -0.407
v -46.944 2.296 -4.260
v -46.828 2.296 -4.208
v -46.730 2.296 -4.128
v -34.414 2.296 -4.238
v -46.656 2.296 -4.025
v -46.611 2.296 -3.906
v -46.599 2.296 -3.780
v -34.543 2.296 -4.221
v -34.662 2.296 -4.172
v -34.765 2.296 -4.093
v -34.844 2.296 -3.990
v -34.894 2.296 -3.870
v -34.911 2.296 -3.742
v -34.286 2.296 -4.221
v -34.166 2.296 -4.172
v -34.063 2.296 -4.093
v -33.984 2.296 -3.990
v -33.935 2.296 -3.870
v -33.918 2.296 -3.742
v 28.428 2.296 -4.253
v 28.296 2.296 -4.237
v 28.172 2.296 -4.187
v 28.065 2.296 -4.107
v 27.982 2.296 -4.002
v 27.929 2.296 -3.879
v 27.910 2.296 -3.747
v 28.561 2.296 -4.234
v 28.683 2.296 -4.181
v 28.788 2.296 -4.099
v 28.869 2.296 -3.992
v 28.918 2.296 -3.868
v 28.934 2.296 -3.735
v 42.591 2.296 -4.233
v 42.463 2.296 -4.220
v 42.343 2.296 -4.173
v 42.239 2.296 -4.098
v 42.159 2.296 -3.998
v 42.107 2.296 -3.880
v 42.087 2.296 -3.753
v 42.059 2.296 -0.221
v 42.074 2.296 -0.355
v 42.718 2.296 -4.213
v 42.836 2.296 -4.161
v 42.936 2.296 -4.080
v 43.011 2.296 -3.976
v 43.058 2.296 -3.856
v 43.071 2.296 -3.728
v 43.078 2.296 -0.375
v 43.099 2.296 -0.241
v -47.100 2.296 0.221
v -47.231 2.296 0.206
v -47.353 2.296 0.157
v -47.458 2.296 0.078
v -47.539 2.296 -0.025
v -47.590 2.296 -0.146
v -46.970 2.296 0.203
v -46.849 2.296 0.151
v -34.415 2.296 0.245
v -46.746 2.296 0.070
v -46.667 2.296 -0.035
v -46.618 2.296 -0.157
v -46.603 2.296 -0.287
v -34.543 2.296 0.227
v -34.661 2.296 0.178
v -34.763 2.296 0.100
v -34.841 2.296 -0.002
v -34.889 2.296 -0.121
v -34.906 2.296 -0.248
v -34.288 2.296 0.228
v -34.170 2.296 0.179
v -34.068 2.296 0.101
v -33.989 2.296 -0.000
v -33.940 2.296 -0.119
v -33.923 2.296 -0.246
v 28.419 2.296 0.245
v 28.292 2.296 0.227
v 28.174 2.296 0.177
v 28.073 2.296 0.098
v 27.995 2.296 -0.004
v 27.947 2.296 -0.123
v 27.931 2.296 -0.250
v 27.926 2.296 -3.614
v 28.547 2.296 0.229
v 28.665 2.296 0.180
v 28.768 2.296 0.103
v 28.846 2.296 0.001
v 28.896 2.296 -0.117
v 28.914 2.296 -0.244
v 42.589 2.296 0.289
v 42.454 2.296 0.274
v 28.915 2.296 -3.603
v 42.328 2.296 0.225
v 42.219 2.296 0.144
v 42.134 2.296 0.038
v 42.079 2.296 -0.086
v 42.723 2.296 0.269
v 42.848 2.296 0.214
v 42.954 2.296 0.130
v 43.034 2.296 0.020
v 43.084 2.296 -0.106
v 42.124 2.296 -0.482
v 42.100 2.296 -3.625
v 42.146 2.296 -3.505
v 42.204 2.296 -0.591
v 42.222 2.296 -3.401
v 42.310 2.296 -0.676
v 42.322 2.296 -3.321
v 42.435 2.296 -0.730
v 42.440 2.296 -3.268
v 42.569 2.296 -0.750
v 42.567 2.296 -3.248
v 42.694 2.296 -3.262
v 42.704 2.296 -0.735
v 42.814 2.296 -3.308
v 42.830 2.296 -0.686
v 42.918 2.296 -3.384
v 42.939 2.296 -0.605
v 42.999 2.296 -3.484
v 43.024 2.296 -0.499
v 43.051 2.296 -3.601
v -47.544 2.296 -0.529
v -47.557 2.296 -3.684
v -47.512 2.296 -3.565
v -47.466 2.296 -0.634
v -47.438 2.296 -3.462
v -47.362 2.296 -0.715
v -47.340 2.296 -3.382
v -47.241 2.296 -0.766
v -47.225 2.296 -3.330
v -47.111 2.296 -0.785
v -47.099 2.296 -3.309
v -46.981 2.296 -0.769
v -46.973 2.296 -3.322
v -46.859 2.296 -0.720
v -46.855 2.296 -3.367
v -46.754 2.296 -0.642
v -46.752 2.296 -3.441
v -46.673 2.296 -0.538
v -46.671 2.296 -3.539
v -46.621 2.296 -0.417
v -46.619 2.296 -3.655
v -34.894 2.296 -3.613
v -34.889 2.296 -0.375
v -34.844 2.296 -3.494
v -34.839 2.296 -0.494
v -34.765 2.296 -3.391
v -34.761 2.296 -0.595
v -34.662 2.296 -3.312
v -34.659 2.296 -0.673
v -34.543 2.296 -3.262
v -34.540 2.296 -0.722
v -34.414 2.296 -3.245
v -34.413 2.296 -0.739
v -34.286 2.296 -3.262
v -34.286 2.296 -0.721
v -34.167 2.296 -0.672
v -34.166 2.296 -3.312
v -34.066 2.296 -0.594
v -34.063 2.296 -3.391
v -33.988 2.296 -0.492
v -33.984 2.296 -3.494
v -33.939 2.296 -0.373
v -33.935 2.296 -3.613
v 27.976 2.296 -3.490
v 27.948 2.296 -0.377
v 27.998 2.296 -0.495
v 28.056 2.296 -3.383
v 28.077 2.296 -0.597
v 28.161 2.296 -3.300
v 28.179 2.296 -0.674
v 28.284 2.296 -3.248
v 28.298 2.296 -0.723
v 28.416 2.296 -3.229
v 28.425 2.296 -0.739
v 28.549 2.296 -3.245
v 28.552 2.296 -0.721
v 28.673 2.296 -3.295
v 28.671 2.296 -0.671
v 28.772 2.296 -0.592
v 28.780 2.296 -3.375
v 28.850 2.296 -0.490
v 28.863 2.296 -3.480
v 28.898 2.296 -0.371
v -46.440 -1.717 1.296
v -36.553 -1.731 1.296
v -46.570 -1.735 1.296
v -36.677 -1.712 1.296
v -46.318 -1.666 1.296
v -36.792 -1.661 1.296
v -46.214 -1.585 1.296
v -36.890 -1.582 1.296
v -46.135 -1.480 1.296
v -36.964 -1.481 1.296
v -37.010 -1.363 1.296
v -46.085 -1.358 1.296
v -37.024 -1.238 1.296
v -46.069 -1.227 1.296
v -37.005 -1.114 1.296
v -46.087 -1.097 1.296
v -36.954 -0.999 1.296
v -46.138 -0.975 1.296
v -36.875 -0.901 1.296
v -46.219 -0.871 1.296
v -36.774 -0.827 1.296
v -46.324 -0.792 1.296
v -36.656 -0.781 1.296
v -46.446 -0.742 1.296
v -36.531 -0.767 1.296
v 30.373 -0.760 1.296
v 30.498 -0.744 1.296
v 40.510 -0.744 1.296
v -36.306 0.864 1.296
v 30.502 0.823 1.296
v -36.427 0.818 1.296
v 30.379 0.838 1.296
v 30.265 0.883 1.296
v -36.200 0.939 1.296
v 30.166 0.957 1.296
v -36.118 1.040 1.296
v 30.089 1.054 1.296
v -36.064 1.158 1.296
v 30.041 1.167 1.296
v -36.043 1.286 1.296
v 30.023 1.289 1.296
v -36.055 1.416 1.296
v 30.037 1.411 1.296
v 30.083 1.526 1.296
v -36.101 1.537 1.296
v 30.157 1.625 1.296
v -36.177 1.643 1.296
v 30.254 1.701 1.296
v -36.277 1.725 1.296
v 30.367 1.750 1.296
v -36.395 1.779 1.296
v 30.489 1.768 1.296
v 40.385 1.776 1.296
v 40.510 1.792 1.296
v -36.523 1.800 1.296
v -46.701 -1.719 1.296
v -46.823 -1.669 1.296
v -46.928 -1.590 1.296
v -47.009 -1.486 1.296
v -47.060 -1.364 1.296
v -47.078 -1.234 1.296
v -47.062 -1.103 1.296
v -47.012 -0.981 1.296
v -46.933 -0.876 1.296
v -46.829 -0.795 1.296
v -46.707 -0.744 1.296
v -46.577 -0.726 1.296
v -46.563 0.802 1.296
v -46.687 0.818 1.296
v -46.802 0.866 1.296
v -46.901 0.943 1.296
v -46.977 1.042 1.296
v -47.025 1.157 1.296
v -47.041 1.281 1.296
v -47.024 1.404 1.296
v -46.976 1.520 1.296
v -46.900 1.619 1.296
v -46.801 1.694 1.296
v -46.686 1.742 1.296
v -46.562 1.758 1.296
v -36.653 1.788 1.296
v 40.636 -1.694 1.296
v 40.510 -1.711 1.296
v -36.428 -1.717 1.296
v 30.498 -1.711 1.296
v 40.752 -1.646 1.296
v 40.852 -1.569 1.296
v 40.929 -1.469 1.296
v 40.978 -1.352 1.296
v 40.994 -1.227 1.296
v 40.978 -1.102 1.296
v 40.929 -0.985 1.296
v 40.852 -0.885 1.296
v 40.752 -0.808 1.296
v 40.636 -0.760 1.296
v 40.510 0.824 1.296
v -36.557 0.806 1.296
v 40.636 0.841 1.296
v 40.752 0.889 1.296
v 40.853 0.966 1.296
v 40.930 1.066 1.296
v 40.978 1.183 1.296
v 40.994 1.308 1.296
v 40.978 1.434 1.296
v 40.930 1.550 1.296
v 40.853 1.651 1.296
v 40.752 1.728 1.296
v 40.636 1.776 1.296
v 30.624 0.841 1.296
v 40.385 0.841 1.296
v 30.737 0.890 1.296
v 40.268 0.889 1.296
v 40.168 0.966 1.296
v 30.834 0.966 1.296
v 30.907 1.065 1.296
v 40.091 1.066 1.296
v 30.953 1.179 1.296
v 40.043 1.183 1.296
v 30.967 1.302 1.296
v 40.026 1.308 1.296
v 30.950 1.424 1.296
v 40.043 1.434 1.296
v 30.901 1.537 1.296
v 40.091 1.550 1.296
v 30.825 1.634 1.296
v 40.168 1.651 1.296
v 30.726 1.708 1.296
v 40.268 1.728 1.296
v 30.611 1.753 1.296
v -46.440 0.818 1.296
v -36.685 0.827 1.296
v -46.324 0.866 1.296
v -36.803 0.880 1.296
v -46.225 0.942 1.296
v -36.904 0.963 1.296
v -46.149 1.040 1.296
v -36.979 1.069 1.296
v -46.101 1.156 1.296
v -37.025 1.190 1.296
v -46.085 1.279 1.296
v -37.037 1.320 1.296
v -46.101 1.403 1.296
v -37.016 1.448 1.296
v -46.148 1.518 1.296
v -36.962 1.566 1.296
v -46.224 1.618 1.296
v -36.880 1.666 1.296
v -46.323 1.694 1.296
v -36.774 1.742 1.296
v -46.438 1.742 1.296
v 30.623 -1.694 1.296
v 40.385 -1.694 1.296
v 30.740 -1.646 1.296
v 40.269 -1.646 1.296
v 30.840 -1.569 1.296
v 40.169 -1.569 1.296
v 30.917 -1.469 1.296
v 40.092 -1.469 1.296
v 30.965 -1.352 1.296
v 40.043 -1.352 1.296
v 30.982 -1.227 1.296
v 40.027 -1.227 1.296
v 30.965 -1.102 1.296
v 40.043 -1.102 1.296
v 30.917 -0.985 1.296
v 40.092 -0.985 1.296
v 30.840 -0.885 1.296
v 40.169 -0.885 1.296
v 30.740 -0.808 1.296
v 40.269 -0.808 1.296
v 30.623 -0.760 1.296
v 40.385 -0.760 1.296
v -36.310 -1.672 1.296
v 30.373 -1.694 1.296
v 30.257 -1.646 1.296
v -36.209 -1.597 1.296
v 30.156 -1.569 1.296
v -36.130 -1.499 1.296
v 30.080 -1.469 1.296
v -36.079 -1.384 1.296
v 30.031 -1.352 1.296
v -36.060 -1.260 1.296
v 30.015 -1.227 1.296
v -36.074 -1.135 1.296
v 30.031 -1.102 1.296
v -36.120 -1.017 1.296
v 30.080 -0.985 1.296
v -36.194 -0.916 1.296
v 30.156 -0.885 1.296
v -36.292 -0.837 1.296
v 30.257 -0.808 1.296
v -36.407 -0.786 1.296
f 1 2 3
f 2 1 4
f 2 4 5
f 5 4 6
f 3 7 8
f 7 3 2
f 8 7 6
f 8 6 4
f 9 10 11
f 10 9 12
f 12 9 13
f 13 9 14
f 13 14 15
f 15 14 16
f 15 16 17
f 17 16 18
f 17 18 19
f 19 18 20
f 19 20 21
f 21 20 22
f 22 20 23
f 22 23 24
f 24 23 25
f 24 25 26
f 26 25 27
f 26 27 28
f 28 27 29
f 28 29 30
f 30 29 31
f 30 31 32
f 33 34 35
f 34 33 36
f 36 33 37
f 37 33 3
f 35 34 38
f 35 38 39
f 35 39 40
f 35 40 41
f 37 3 42
f 42 3 43
f 43 3 44
f 43 44 45
f 45 44 46
f 46 44 47
f 47 44 48
f 48 44 49
f 48 49 50
f 50 49 51
f 50 51 52
f 50 52 53
f 50 53 54
f 50 54 55
f 50 55 56
f 44 3 57
f 57 3 58
f 58 3 59
f 59 3 60
f 60 3 61
f 61 3 62
f 62 3 63
f 62 63 64
f 64 63 65
f 64 65 66
f 64 66 67
f 64 67 68
f 64 68 69
f 64 69 70
f 64 70 71
f 71 70 72
f 63 3 73
f 73 3 74
f 74 3 75
f 75 3 76
f 76 3 77
f 77 3 78
f 78 3 79
f 78 79 80
f 78 80 81
f 81 80 82
f 82 80 83
f 82 83 84
f 82 84 85
f 82 85 86
f 82 86 87
f 79 3 88
f 88 3 89
f 89 3 90
f 90 3 91
f 91 3 92
f 92 3 93
f 35 94 8
f 94 35 95
f 95 35 96
f 96 35 97
f 97 35 98
f 98 35 99
f 99 35 100
f 100 35 41
f 100 41 101
f 8 94 102
f 8 102 103
f 8 103 104
f 8 104 105
f 105 104 106
f 105 106 107
f 105 107 50
f 105 50 108
f 108 50 109
f 109 50 110
f 110 50 111
f 111 50 112
f 112 50 56
f 8 105 113
f 8 113 114
f 8 114 115
f 8 115 116
f 8 116 117
f 8 117 64
f 8 64 118
f 118 64 119
f 119 64 120
f 120 64 121
f 121 64 122
f 122 64 123
f 123 64 71
f 8 118 124
f 8 124 125
f 8 125 126
f 8 126 127
f 8 127 128
f 8 128 82
f 8 82 129
f 129 82 130
f 130 82 131
f 131 82 132
f 132 82 133
f 133 82 134
f 134 82 10
f 10 82 87
f 10 87 11
f 8 129 135
f 8 135 136
f 8 136 137
f 8 137 138
f 8 138 139
f 8 139 32
f 8 32 31
f 8 31 93
f 8 93 3
f 70 140 72
f 140 70 141
f 140 141 142
f 140 142 143
f 143 142 144
f 143 144 145
f 145 144 146
f 145 146 147
f 147 146 148
f 147 148 149
f 149 148 150
f 149 150 151
f 151 150 152
f 151 152 153
f 153 152 154
f 153 154 155
f 153 155 156
f 156 155 157
f 156 157 158
f 158 157 159
f 158 159 81
f 81 159 78
f 55 160 56
f 160 55 161
f 160 161 162
f 162 161 163
f 162 163 164
f 164 163 165
f 164 165 166
f 166 165 167
f 166 167 168
f 168 167 169
f 168 169 170
f 170 169 171
f 170 171 172
f 172 171 173
f 172 173 174
f 172 174 175
f 175 174 176
f 175 176 177
f 177 176 178
f 177 178 179
f 179 178 180
f 179 180 181
f 181 180 62
f 181 62 64
f 182 100 101
f 100 182 183
f 183 182 184
f 184 182 185
f 184 185 186
f 186 185 187
f 186 187 188
f 188 187 189
f 188 189 190
f 190 189 191
f 190 191 192
f 192 191 193
f 192 193 194
f 194 193 195
f 194 195 196
f 196 195 197
f 196 197 198
f 198 197 199
f 198 199 200
f 200 199 201
f 200 201 202
f 202 201 48
f 202 48 50
f 4 203 204
f 203 4 205
f 205 4 206
f 205 206 207
f 205 207 208
f 205 208 209
f 205 209 210
f 210 209 211
f 210 211 212
f 207 206 213
f 213 206 214
f 214 206 215
f 215 206 216
f 216 206 217
f 217 206 218
f 218 206 219
f 219 206 220
f 206 4 221
f 221 4 222
f 221 222 223
f 221 223 224
f 221 224 225
f 225 224 226
f 225 226 227
f 222 4 228
f 228 4 229
f 229 4 230
f 229 230 231
f 231 230 232
f 232 230 233
f 233 230 234
f 234 230 235
f 235 230 236
f 230 4 1
f 225 237 238
f 237 225 239
f 239 225 240
f 240 225 241
f 241 225 227
f 238 237 242
f 238 242 243
f 238 243 244
f 238 244 245
f 238 245 246
f 238 246 247
f 238 247 248
f 238 248 236
f 238 236 230
f 210 249 250
f 249 210 251
f 251 210 252
f 252 210 253
f 253 210 212
f 250 249 254
f 250 254 255
f 250 255 256
f 250 256 257
f 250 257 258
f 250 258 259
f 250 259 260
f 250 260 220
f 250 220 206
f 33 261 203
f 261 33 35
f 261 35 262
f 262 35 263
f 203 264 204
f 264 203 261
f 204 264 263
f 204 263 35
f 265 266 267
f 266 265 268
f 268 265 269
f 268 269 270
f 270 269 271
f 270 271 272
f 272 271 273
f 272 273 274
f 274 273 275
f 274 275 276
f 276 275 277
f 276 277 278
f 278 277 279
f 278 279 280
f 280 279 281
f 280 281 282
f 282 281 283
f 282 283 284
f 284 283 285
f 284 285 286
f 286 285 287
f 286 287 288
f 288 287 289
f 288 289 290
f 291 292 293
f 292 291 294
f 292 294 295
f 295 294 296
f 295 296 297
f 297 296 298
f 297 298 299
f 299 298 300
f 299 300 301
f 301 300 302
f 301 302 303
f 303 302 304
f 303 304 305
f 305 304 306
f 305 306 307
f 307 306 308
f 307 308 309
f 309 308 310
f 309 310 311
f 311 310 312
f 311 312 313
f 313 312 314
f 313 314 315
f 315 314 289
f 293 316 267
f 316 293 317
f 316 317 318
f 318 317 319
f 318 319 320
f 318 320 321
f 321 320 322
f 321 322 323
f 323 322 324
f 323 324 325
f 325 324 326
f 325 326 327
f 327 326 328
f 327 328 329
f 329 328 330
f 329 330 331
f 331 330 332
f 331 332 333
f 333 332 334
f 333 334 335
f 335 334 336
f 335 336 337
f 337 336 315
f 337 315 289
f 338 339 340
f 339 338 341
f 341 338 342
f 342 338 343
f 342 343 344
f 344 343 345
f 344 345 346
f 346 345 347
f 346 347 348
f 348 347 349
f 348 349 350
f 350 349 351
f 350 351 352
f 352 351 353
f 352 353 354
f 354 353 355
f 354 355 356
f 356 355 357
f 356 357 358
f 358 357 359
f 359 357 360
f 359 360 361
f 361 360 362
f 204 291 4
f 291 204 363
f 363 204 35
f 4 291 293
f 4 293 267
f 363 35 364
f 364 35 365
f 365 35 366
f 366 35 367
f 367 35 368
f 368 35 369
f 369 35 370
f 370 35 371
f 371 35 372
f 372 35 373
f 373 35 374
f 374 35 375
f 374 375 376
f 374 376 377
f 375 35 378
f 378 35 379
f 379 35 380
f 380 35 381
f 381 35 382
f 382 35 383
f 383 35 384
f 384 35 385
f 385 35 386
f 386 35 387
f 387 35 388
f 388 35 389
f 389 35 390
f 390 35 362
f 362 35 391
f 4 392 8
f 392 4 266
f 266 4 267
f 8 392 393
f 8 393 394
f 8 394 395
f 8 395 396
f 8 396 397
f 8 397 398
f 8 398 399
f 8 399 400
f 8 400 401
f 8 401 402
f 8 402 290
f 8 290 289
f 8 289 377
f 377 289 314
f 377 314 374
f 8 377 403
f 8 403 404
f 8 404 405
f 8 405 406
f 8 406 407
f 8 407 408
f 8 408 409
f 8 409 410
f 8 410 411
f 8 411 412
f 8 412 413
f 8 413 391
f 8 391 35
f 376 414 377
f 414 376 340
f 414 340 339
f 414 339 415
f 415 339 416
f 415 416 417
f 415 417 418
f 418 417 419
f 418 419 420
f 420 419 421
f 420 421 422
f 422 421 423
f 422 423 424
f 424 423 425
f 424 425 426
f 426 425 427
f 426 427 428
f 426 428 429
f 429 428 430
f 429 430 431
f 431 430 432
f 431 432 433
f 433 432 434
f 433 434 435
f 435 434 361
f 435 361 391
f 391 361 362
f 375 436 376
f 436 375 437
f 436 437 438
f 436 438 439
f 439 438 440
f 439 440 441
f 441 440 442
f 441 442 443
f 443 442 444
f 443 444 445
f 445 444 446
f 445 446 447
f 447 446 448
f 447 448 449
f 449 448 450
f 449 450 451
f 451 450 452
f 451 452 453
f 453 452 454
f 453 454 455
f 455 454 456
f 455 456 390
f 390 456 389
f 457 458 459
f 458 457 460
f 458 460 461
f 461 460 462
f 461 462 463
f 463 462 464
f 463 464 465
f 465 464 466
f 465 466 467
f 467 466 468
f 467 468 469
f 469 468 470
f 469 470 471
f 471 470 472
f 471 472 473
f 473 472 474
f 473 474 475
f 475 474 476
f 475 476 477
f 477 476 478
f 477 478 479
f 479 478 480
f 480 478 481
f 482 483 484
f 483 482 485
f 483 485 486
f 486 485 487
f 486 487 488
f 486 488 489
f 489 488 490
f 490 488 491
f 490 491 492
f 492 491 493
f 492 493 494
f 494 493 495
f 494 495 496
f 496 495 497
f 496 497 498
f 498 497 499
f 498 499 500
f 500 499 501
f 500 501 502
f 502 501 503
f 502 503 504
f 504 503 505
f 504 505 506
f 3 230 1
f 230 3 507
f 507 3 508
f 508 3 509
f 509 3 510
f 510 3 511
f 511 3 512
f 512 3 513
f 513 3 514
f 514 3 515
f 515 3 516
f 516 3 517
f 517 3 482
f 517 482 518
f 518 482 519
f 519 482 459
f 459 482 457
f 457 482 484
f 457 484 520
f 482 3 521
f 521 3 522
f 522 3 523
f 523 3 524
f 524 3 525
f 525 3 526
f 526 3 527
f 527 3 528
f 528 3 529
f 529 3 530
f 530 3 531
f 531 3 532
f 532 3 533
f 203 534 33
f 534 203 535
f 33 534 536
f 33 536 537
f 33 537 538
f 33 538 539
f 33 539 540
f 33 540 541
f 33 541 542
f 33 542 543
f 33 543 544
f 33 544 545
f 33 545 519
f 33 519 546
f 546 519 459
f 33 546 547
f 33 547 548
f 33 548 549
f 33 549 550
f 33 550 551
f 33 551 552
f 33 552 553
f 33 553 554
f 33 554 555
f 33 555 556
f 33 556 480
f 33 480 481
f 33 481 533
f 33 533 3
f 484 557 520
f 557 484 558
f 557 558 559
f 557 559 560
f 560 559 561
f 560 561 562
f 562 561 563
f 562 563 564
f 564 563 565
f 564 565 566
f 566 565 567
f 566 567 568
f 568 567 569
f 568 569 570
f 568 570 571
f 571 570 572
f 571 572 573
f 573 572 574
f 573 574 575
f 575 574 576
f 575 576 577
f 577 576 506
f 577 506 505
f 577 505 532
f 577 532 533
f 578 579 206
f 579 578 580
f 579 580 581
f 579 581 582
f 579 582 583
f 579 583 584
f 584 583 585
f 585 583 586
f 586 583 587
f 586 587 588
f 588 587 589
f 588 589 590
f 590 589 591
f 590 591 592
f 592 591 593
f 592 593 594
f 594 593 595
f 594 595 596
f 596 595 597
f 596 597 598
f 598 597 599
f 598 599 600
f 601 602 578
f 602 601 603
f 602 603 604
f 604 603 605
f 604 605 606
f 606 605 607
f 606 607 608
f 608 607 609
f 608 609 610
f 610 609 611
f 610 611 612
f 612 611 613
f 612 613 614
f 614 613 615
f 614 615 616
f 616 615 617
f 616 617 618
f 618 617 619
f 618 619 620
f 620 619 621
f 620 621 622
f 622 621 623
f 622 623 624
f 624 623 517
f 625 626 535
f 626 625 627
f 626 627 628
f 628 627 629
f 628 629 630
f 630 629 631
f 630 631 632
f 632 631 633
f 632 633 634
f 632 634 635
f 635 634 636
f 635 636 637
f 637 636 638
f 637 638 639
f 639 638 640
f 639 640 641
f 641 640 642
f 641 642 643
f 643 642 644
f 643 644 645
f 645 644 646
f 645 646 518
f 518 646 600
f 518 600 599
f 518 599 624
f 518 624 517
f 205 625 203
f 625 205 584
f 203 625 535
f 625 584 647
f 647 584 648
f 648 584 649
f 649 584 585
f 221 601 206
f 601 221 508
f 206 601 578
f 601 508 650
f 650 508 651
f 651 508 652
f 652 508 509
f 653 210 250
f 210 653 654
f 206 653 250
f 653 206 579
f 654 655 584
f 655 654 656
f 656 654 657
f 657 654 653
f 584 655 658
f 584 658 659
f 657 653 660
f 660 653 661
f 661 653 662
f 662 653 663
f 663 653 664
f 664 653 665
f 665 653 666
f 666 653 667
f 584 668 579
f 668 584 669
f 669 584 670
f 670 584 671
f 671 584 659
f 579 668 672
f 579 672 673
f 579 673 674
f 579 674 675
f 579 675 676
f 579 676 677
f 579 677 678
f 579 678 667
f 579 667 653
f 584 210 654
f 210 584 205
f 679 225 238
f 225 679 680
f 230 679 238
f 679 230 507
f 680 681 508
f 681 680 682
f 682 680 683
f 683 680 679
f 508 681 684
f 508 684 685
f 683 679 686
f 686 679 687
f 687 679 688
f 688 679 689
f 689 679 690
f 690 679 691
f 691 679 692
f 692 679 693
f 508 694 507
f 694 508 695
f 695 508 696
f 696 508 697
f 697 508 685
f 507 694 698
f 507 698 699
f 507 699 700
f 507 700 701
f 507 701 702
f 507 702 703
f 507 703 704
f 507 704 693
f 507 693 679
f 508 225 680
f 225 508 221
f 208 670 209
f 670 208 669
f 209 671 211
f 671 209 670
f 211 659 212
f 659 211 671
f 212 658 253
f 658 212 659
f 253 655 252
f 655 253 658
f 252 656 251
f 656 252 655
f 656 249 251
f 249 656 657
f 657 254 249
f 254 657 660
f 660 255 254
f 255 660 661
f 661 256 255
f 256 661 662
f 662 257 256
f 257 662 663
f 663 258 257
f 258 663 664
f 665 258 664
f 258 665 259
f 666 259 665
f 259 666 260
f 667 260 666
f 260 667 220
f 678 220 667
f 220 678 219
f 677 219 678
f 219 677 218
f 676 218 677
f 218 676 217
f 676 216 217
f 216 676 675
f 675 215 216
f 215 675 674
f 674 214 215
f 214 674 673
f 673 213 214
f 213 673 672
f 672 207 213
f 207 672 668
f 668 208 207
f 208 668 669
f 702 232 233
f 232 702 701
f 701 231 232
f 231 701 700
f 700 229 231
f 229 700 699
f 699 228 229
f 228 699 698
f 698 222 228
f 222 698 694
f 694 223 222
f 223 694 695
f 223 696 224
f 696 223 695
f 224 697 226
f 697 224 696
f 226 685 227
f 685 226 697
f 227 684 241
f 684 227 685
f 241 681 240
f 681 241 684
f 240 682 239
f 682 240 681
f 682 237 239
f 237 682 683
f 683 242 237
f 242 683 686
f 686 243 242
f 243 686 687
f 687 244 243
f 244 687 688
f 688 245 244
f 245 688 689
f 689 246 245
f 246 689 690
f 691 246 690
f 246 691 247
f 692 247 691
f 247 692 248
f 693 248 692
f 248 693 236
f 704 236 693
f 236 704 235
f 703 235 704
f 235 703 234
f 702 234 703
f 234 702 233
f 2 263 264
f 263 2 5
f 705 706 707
f 706 705 708
f 708 705 709
f 709 705 710
f 709 710 711
f 711 710 712
f 711 712 713
f 713 712 714
f 713 714 715
f 715 714 716
f 715 716 717
f 717 716 718
f 717 718 719
f 719 718 720
f 719 720 721
f 721 720 722
f 721 722 723
f 723 722 724
f 723 724 725
f 725 724 726
f 725 726 727
f 727 726 728
f 727 728 729
f 730 707 731
f 707 730 732
f 732 730 733
f 733 730 734
f 733 734 735
f 735 734 736
f 736 734 737
f 736 737 738
f 738 737 739
f 738 739 740
f 740 739 741
f 740 741 742
f 742 741 743
f 742 743 744
f 744 743 745
f 744 745 746
f 746 745 747
f 747 745 748
f 747 748 749
f 749 748 750
f 749 750 751
f 751 750 752
f 751 752 753
f 753 752 754
f 753 754 755
f 755 754 756
f 755 756 757
f 5 758 263
f 758 5 759
f 759 5 6
f 263 758 760
f 759 6 761
f 761 6 762
f 762 6 763
f 763 6 764
f 764 6 765
f 765 6 766
f 766 6 767
f 767 6 768
f 768 6 769
f 769 6 770
f 770 6 771
f 771 6 772
f 772 6 731
f 772 731 773
f 773 731 774
f 731 6 775
f 775 6 776
f 776 6 777
f 777 6 778
f 778 6 779
f 779 6 780
f 780 6 781
f 781 6 782
f 782 6 783
f 783 6 784
f 784 6 785
f 785 6 756
f 263 786 262
f 786 263 787
f 787 263 788
f 788 263 760
f 262 786 789
f 262 789 790
f 262 790 791
f 262 791 792
f 262 792 793
f 262 793 794
f 262 794 795
f 262 795 796
f 262 796 797
f 262 797 798
f 262 798 774
f 262 774 706
f 706 774 707
f 707 774 731
f 262 706 799
f 262 799 800
f 262 800 801
f 262 801 802
f 262 802 803
f 262 803 804
f 262 804 805
f 262 805 806
f 262 806 807
f 262 807 808
f 262 808 809
f 262 809 729
f 262 729 728
f 262 728 757
f 262 757 756
f 262 756 6
f 733 810 732
f 810 733 811
f 810 811 812
f 810 812 813
f 813 812 814
f 813 814 815
f 815 814 816
f 815 816 817
f 817 816 818
f 817 818 819
f 819 818 820
f 819 820 821
f 821 820 822
f 821 822 823
f 823 822 824
f 823 824 825
f 825 824 826
f 825 826 827
f 827 826 828
f 827 828 829
f 827 829 830
f 830 829 755
f 830 755 757
f 831 788 760
f 788 831 832
f 832 831 833
f 832 833 834
f 834 833 835
f 835 833 836
f 835 836 837
f 837 836 838
f 837 838 839
f 839 838 840
f 839 840 841
f 841 840 842
f 841 842 843
f 843 842 844
f 843 844 845
f 845 844 846
f 845 846 847
f 847 846 848
f 847 848 849
f 849 848 850
f 849 850 851
f 851 850 852
f 851 852 853
f 853 852 772
f 854 787 788
f 787 854 855
f 855 854 856
f 855 856 857
f 857 856 858
f 857 858 859
f 859 858 860
f 859 860 861
f 861 860 862
f 861 862 863
f 863 862 864
f 863 864 865
f 865 864 866
f 865 866 867
f 867 866 868
f 867 868 869
f 869 868 870
f 869 870 871
f 871 870 872
f 871 872 873
f 873 872 874
f 873 874 773
f 773 874 853
f 773 853 772
f 758 875 760
f 875 758 876
f 875 876 877
f 877 876 878
f 877 878 879
f 879 878 880
f 879 880 881
f 881 880 882
f 881 882 883
f 883 882 884
f 883 884 885
f 885 884 886
f 885 886 887
f 887 886 888
f 887 888 889
f 889 888 890
f 889 890 891
f 891 890 892
f 891 892 893
f 893 892 894
f 893 894 895
f 895 894 896
f 895 896 772
f 772 896 771
f 262 897 261
f 897 262 898
f 898 262 899
f 899 262 6
f 261 897 900
f 261 900 901
f 261 901 902
f 261 902 903
f 261 903 904
f 904 903 905
f 899 6 906
f 906 6 907
f 907 6 908
f 908 6 909
f 908 909 910
f 910 909 911
f 911 909 912
f 912 909 913
f 912 913 914
f 912 914 915
f 912 915 916
f 912 916 917
f 912 917 918
f 909 6 919
f 919 6 920
f 920 6 921
f 921 6 922
f 922 6 923
f 923 6 924
f 924 6 925
f 924 925 926
f 924 926 927
f 924 927 928
f 924 928 929
f 924 929 930
f 924 930 931
f 925 6 932
f 932 6 933
f 933 6 934
f 934 6 935
f 935 6 936
f 936 6 937
f 937 6 938
f 937 938 939
f 937 939 940
f 937 940 941
f 937 941 942
f 937 942 943
f 937 943 944
f 937 944 945
f 945 944 946
f 938 6 947
f 947 6 948
f 948 6 949
f 949 6 950
f 950 6 951
f 951 6 952
f 952 6 953
f 953 6 954
f 261 955 7
f 955 261 956
f 956 261 957
f 957 261 958
f 958 261 959
f 959 261 960
f 960 261 904
f 7 955 961
f 7 961 962
f 7 962 963
f 963 962 964
f 963 964 965
f 963 965 966
f 963 966 967
f 963 967 968
f 968 967 912
f 968 912 969
f 969 912 970
f 970 912 971
f 971 912 972
f 972 912 973
f 973 912 918
f 7 963 974
f 7 974 975
f 7 975 976
f 7 976 977
f 7 977 978
f 7 978 979
f 7 979 980
f 980 979 924
f 980 924 981
f 981 924 982
f 982 924 983
f 983 924 984
f 984 924 985
f 985 924 986
f 986 924 931
f 986 931 987
f 7 980 988
f 7 988 989
f 7 989 990
f 7 990 991
f 7 991 992
f 7 992 993
f 7 993 994
f 994 993 995
f 995 993 996
f 995 996 937
f 995 937 997
f 997 937 998
f 998 937 999
f 999 937 1000
f 1000 937 945
f 7 994 1001
f 7 1001 1002
f 7 1002 1003
f 7 1003 1004
f 7 1004 1005
f 7 1005 954
f 7 954 6
f 944 1006 946
f 1006 944 1007
f 1006 1007 1008
f 1006 1008 1009
f 1009 1008 1010
f 1009 1010 1011
f 1011 1010 1012
f 1011 1012 1013
f 1013 1012 1014
f 1013 1014 1015
f 1015 1014 1016
f 1015 1016 1017
f 1015 1017 1018
f 1018 1017 1019
f 1018 1019 1020
f 1020 1019 1021
f 1020 1021 1022
f 1022 1021 1023
f 1022 1023 1024
f 1024 1023 1025
f 1024 1025 953
f 953 1025 952
f 903 1026 905
f 1026 903 1027
f 1026 1027 1028
f 1026 1028 1029
f 1029 1028 1030
f 1029 1030 1031
f 1031 1030 1032
f 1031 1032 1033
f 1033 1032 1034
f 1033 1034 1035
f 1035 1034 1036
f 1035 1036 1037
f 1037 1036 1038
f 1037 1038 1039
f 1039 1038 1040
f 1039 1040 1041
f 1041 1040 1042
f 1041 1042 1043
f 1043 1042 1044
f 1043 1044 1045
f 1045 1044 1046
f 1045 1046 967
f 967 1046 912
f 1047 973 918
f 973 1047 1048
f 1048 1047 1049
f 1048 1049 1050
f 1050 1049 1051
f 1050 1051 1052
f 1052 1051 1053
f 1052 1053 1054
f 1054 1053 1055
f 1054 1055 1056
f 1056 1055 1057
f 1056 1057 1058
f 1058 1057 1059
f 1058 1059 1060
f 1060 1059 1061
f 1061 1059 1062
f 1061 1062 1063
f 1063 1062 1064
f 1063 1064 1065
f 1065 1064 1066
f 1065 1066 1067
f 1067 1066 1068
f 1067 1068 979
f 979 1068 924
f 1069 986 987
f 986 1069 1070
f 1070 1069 1071
f 1071 1069 1072
f 1071 1072 1073
f 1073 1072 1074
f 1073 1074 1075
f 1075 1074 1076
f 1075 1076 1077
f 1077 1076 1078
f 1077 1078 1079
f 1079 1078 1080
f 1079 1080 1081
f 1081 1080 1082
f 1081 1082 1083
f 1083 1082 1084
f 1084 1082 1085
f 1084 1085 1086
f 1086 1085 1087
f 1086 1087 1088
f 1088 1087 996
f 1088 996 993
f 1089 1090 1091
f 1090 1089 1092
f 1092 1089 1093
f 1092 1093 1094
f 1094 1093 1095
f 1094 1095 1096
f 1096 1095 1097
f 1096 1097 1098
f 1098 1097 1099
f 1099 1097 1100
f 1099 1100 1101
f 1101 1100 1102
f 1101 1102 1103
f 1103 1102 1104
f 1103 1104 1105
f 1105 1104 1106
f 1105 1106 1107
f 1107 1106 1108
f 1107 1108 1109
f 1109 1108 1110
f 1109 1110 1111
f 1111 1110 1112
f 1111 1112 1113
f 1113 1112 1114
f 1114 1112 1115
f 1115 1112 1116
f 1117 1118 1119
f 1118 1117 1120
f 1120 1117 1121
f 1121 1117 1122
f 1121 1122 1123
f 1123 1122 1124
f 1123 1124 1125
f 1125 1124 1126
f 1125 1126 1127
f 1127 1126 1128
f 1127 1128 1129
f 1129 1128 1130
f 1129 1130 1131
f 1131 1130 1132
f 1132 1130 1133
f 1132 1133 1134
f 1134 1133 1135
f 1134 1135 1136
f 1136 1135 1137
f 1136 1137 1138
f 1138 1137 1139
f 1138 1139 1140
f 1140 1139 1141
f 1141 1139 1142
f 1142 1139 1143
f 264 1091 2
f 1091 264 1144
f 1144 264 261
f 1144 261 1145
f 1145 261 1146
f 1146 261 1147
f 1147 261 1148
f 1148 261 1149
f 1149 261 1150
f 1150 261 1151
f 1151 261 1152
f 1152 261 1153
f 1153 261 1154
f 1154 261 1155
f 1155 261 1156
f 1156 261 1157
f 1157 261 1158
f 1158 261 1159
f 1159 261 1160
f 1160 261 1161
f 1161 261 1162
f 1162 261 1163
f 1163 261 1164
f 1164 261 1165
f 1165 261 1166
f 1166 261 1167
f 1167 261 1168
f 1168 261 1169
f 1169 261 1143
f 2 1170 7
f 1170 2 1171
f 1171 2 1091
f 1171 1091 1090
f 1171 1090 1172
f 1171 1172 1173
f 7 1170 1174
f 7 1174 1175
f 7 1175 1176
f 7 1176 1177
f 7 1177 1178
f 7 1178 1179
f 7 1179 1180
f 7 1180 1181
f 7 1181 1182
f 7 1182 1183
f 7 1183 1116
f 7 1116 1184
f 1184 1116 1112
f 1184 1112 1155
f 1184 1155 1156
f 1184 1156 1185
f 1184 1185 1118
f 1118 1185 1119
f 7 1184 1186
f 7 1186 1187
f 7 1187 1188
f 7 1188 1189
f 7 1189 1190
f 7 1190 1191
f 7 1191 1192
f 7 1192 1193
f 7 1193 1194
f 7 1194 1195
f 7 1195 1196
f 7 1196 1142
f 7 1142 1143
f 7 1143 261
f 1197 1184 1118
f 1184 1197 1198
f 1198 1197 1199
f 1198 1199 1200
f 1200 1199 1201
f 1201 1199 1202
f 1201 1202 1203
f 1201 1203 1204
f 1204 1203 1205
f 1204 1205 1206
f 1206 1205 1207
f 1206 1207 1208
f 1208 1207 1209
f 1208 1209 1210
f 1210 1209 1211
f 1210 1211 1212
f 1212 1211 1213
f 1212 1213 1214
f 1214 1213 1215
f 1214 1215 1216
f 1216 1215 1217
f 1216 1217 1141
f 1141 1217 1140
f 1218 1185 1156
f 1185 1218 1219
f 1219 1218 1220
f 1219 1220 1221
f 1221 1220 1222
f 1221 1222 1223
f 1223 1222 1224
f 1223 1224 1225
f 1225 1224 1226
f 1225 1226 1227
f 1227 1226 1228
f 1227 1228 1229
f 1229 1228 1230
f 1229 1230 1231
f 1231 1230 1232
f 1231 1232 1233
f 1233 1232 1234
f 1233 1234 1235
f 1235 1234 1236
f 1235 1236 1237
f 1237 1236 1238
f 1237 1238 1168
f 1237 1168 1169
f 1239 1171 1173
f 1171 1239 1240
f 1240 1239 1241
f 1240 1241 1242
f 1242 1241 1243
f 1242 1243 1244
f 1244 1243 1245
f 1244 1245 1246
f 1246 1245 1247
f 1246 1247 1248
f 1248 1247 1249
f 1248 1249 1250
f 1250 1249 1251
f 1250 1251 1252
f 1252 1251 1253
f 1252 1253 1254
f 1254 1253 1255
f 1254 1255 1256
f 1256 1255 1257
f 1256 1257 1258
f 1258 1257 1259
f 1258 1259 1260
f 1260 1259 1115
f 1260 1115 1116
f 1261 1173 1172
f 1173 1261 1262
f 1262 1261 1263
f 1263 1261 1264
f 1263 1264 1265
f 1265 1264 1266
f 1265 1266 1267
f 1267 1266 1268
f 1267 1268 1269
f 1269 1268 1270
f 1269 1270 1271
f 1271 1270 1272
f 1271 1272 1273
f 1273 1272 1274
f 1273 1274 1275
f 1275 1274 1276
f 1275 1276 1277
f 1277 1276 1278
f 1277 1278 1279
f 1279 1278 1280
f 1279 1280 1114
f 1114 1280 1113
f 196 1042 1040
f 1042 196 198
f 200 1042 198
f 1042 200 1044
f 202 1044 200
f 1044 202 1046
f 50 1046 202
f 1046 50 912
f 107 912 50
f 912 107 911
f 106 911 107
f 911 106 910
f 104 910 106
f 910 104 908
f 104 907 908
f 907 104 103
f 103 906 907
f 906 103 102
f 102 899 906
f 899 102 94
f 94 898 899
f 898 94 95
f 95 897 898
f 897 95 96
f 96 900 897
f 900 96 97
f 900 98 901
f 98 900 97
f 901 99 902
f 99 901 98
f 902 100 903
f 100 902 99
f 903 183 1027
f 183 903 100
f 1027 184 1028
f 184 1027 183
f 1028 186 1030
f 186 1028 184
f 186 1032 1030
f 1032 186 188
f 188 1034 1032
f 1034 188 190
f 190 1036 1034
f 1036 190 192
f 192 1038 1036
f 1038 192 194
f 194 1040 1038
f 1040 194 196
f 905 41 904
f 41 905 101
f 904 40 960
f 40 904 41
f 960 39 959
f 39 960 40
f 959 38 958
f 38 959 39
f 38 957 958
f 957 38 34
f 34 956 957
f 956 34 36
f 36 955 956
f 955 36 37
f 37 961 955
f 961 37 42
f 42 962 961
f 962 42 43
f 43 964 962
f 964 43 45
f 46 964 45
f 964 46 965
f 47 965 46
f 965 47 966
f 48 966 47
f 966 48 967
f 201 967 48
f 967 201 1045
f 199 1045 201
f 1045 199 1043
f 197 1043 199
f 1043 197 1041
f 197 1039 1041
f 1039 197 195
f 195 1037 1039
f 1037 195 193
f 193 1035 1037
f 1035 193 191
f 191 1033 1035
f 1033 191 189
f 189 1031 1033
f 1031 189 187
f 187 1029 1031
f 1029 187 185
f 1029 182 1026
f 182 1029 185
f 1026 101 905
f 101 1026 182
f 105 913 909
f 913 105 108
f 108 914 913
f 914 108 109
f 109 915 914
f 915 109 110
f 915 111 916
f 111 915 110
f 916 112 917
f 112 916 111
f 917 56 918
f 56 917 112
f 918 160 1047
f 160 918 56
f 1047 162 1049
f 162 1047 160
f 1049 164 1051
f 164 1049 162
f 164 1053 1051
f 1053 164 166
f 166 1055 1053
f 1055 166 168
f 168 1057 1055
f 1057 168 170
f 170 1059 1057
f 1059 170 172
f 172 1062 1059
f 1062 172 175
f 175 1064 1062
f 1064 175 177
f 179 1064 177
f 1064 179 1066
f 181 1066 179
f 1066 181 1068
f 64 1068 181
f 1068 64 924
f 117 924 64
f 924 117 923
f 116 923 117
f 923 116 922
f 115 922 116
f 922 115 921
f 115 920 921
f 920 115 114
f 114 919 920
f 919 114 113
f 113 909 919
f 909 113 105
f 973 54 972
f 54 973 55
f 972 53 971
f 53 972 54
f 971 52 970
f 52 971 53
f 52 969 970
f 969 52 51
f 51 968 969
f 968 51 49
f 49 963 968
f 963 49 44
f 44 974 963
f 974 44 57
f 57 975 974
f 975 57 58
f 58 976 975
f 976 58 59
f 60 976 59
f 976 60 977
f 61 977 60
f 977 61 978
f 62 978 61
f 978 62 979
f 180 979 62
f 979 180 1067
f 178 1067 180
f 1067 178 1065
f 176 1065 178
f 1065 176 1063
f 176 1061 1063
f 1061 176 174
f 174 1060 1061
f 1060 174 173
f 173 1058 1060
f 1058 173 171
f 171 1056 1058
f 1056 171 169
f 169 1054 1056
f 1054 169 167
f 167 1052 1054
f 1052 167 165
f 1052 163 1050
f 163 1052 165
f 1050 161 1048
f 161 1050 163
f 1048 55 973
f 55 1048 161
f 93 1005 92
f 1005 93 954
f 31 954 93
f 954 31 953
f 29 953 31
f 953 29 1024
f 27 1024 29
f 1024 27 1022
f 27 1020 1022
f 1020 27 25
f 25 1018 1020
f 1018 25 23
f 23 1015 1018
f 1015 23 20
f 20 1013 1015
f 1013 20 18
f 18 1011 1013
f 1011 18 16
f 16 1009 1011
f 1009 16 14
f 1009 9 1006
f 9 1009 14
f 1006 11 946
f 11 1006 9
f 946 87 945
f 87 946 11
f 945 86 1000
f 86 945 87
f 1000 85 999
f 85 1000 86
f 999 84 998
f 84 999 85
f 84 997 998
f 997 84 83
f 83 995 997
f 995 83 80
f 80 994 995
f 994 80 79
f 79 1001 994
f 1001 79 88
f 88 1002 1001
f 1002 88 89
f 89 1003 1002
f 1003 89 90
f 91 1003 90
f 1003 91 1004
f 92 1004 91
f 1004 92 1005
f 28 1021 26
f 1021 28 1023
f 30 1023 28
f 1023 30 1025
f 32 1025 30
f 1025 32 952
f 139 952 32
f 952 139 951
f 138 951 139
f 951 138 950
f 137 950 138
f 950 137 949
f 137 948 949
f 948 137 136
f 136 947 948
f 947 136 135
f 135 938 947
f 938 135 129
f 129 939 938
f 939 129 130
f 130 940 939
f 940 130 131
f 131 941 940
f 941 131 132
f 941 133 942
f 133 941 132
f 942 134 943
f 134 942 133
f 943 10 944
f 10 943 134
f 944 12 1007
f 12 944 10
f 1007 13 1008
f 13 1007 12
f 1008 15 1010
f 15 1008 13
f 15 1012 1010
f 1012 15 17
f 17 1014 1012
f 1014 17 19
f 19 1016 1014
f 1016 19 21
f 21 1017 1016
f 1017 21 22
f 22 1019 1017
f 1019 22 24
f 24 1021 1019
f 1021 24 26
f 76 990 75
f 990 76 991
f 77 991 76
f 991 77 992
f 78 992 77
f 992 78 993
f 159 993 78
f 993 159 1088
f 157 1088 159
f 1088 157 1086
f 155 1086 157
f 1086 155 1084
f 155 1083 1084
f 1083 155 154
f 154 1081 1083
f 1081 154 152
f 152 1079 1081
f 1079 152 150
f 150 1077 1079
f 1077 150 148
f 148 1075 1077
f 1075 148 146
f 146 1073 1075
f 1073 146 144
f 1073 142 1071
f 142 1073 144
f 1071 141 1070
f 141 1071 142
f 1070 70 986
f 70 1070 141
f 986 69 985
f 69 986 70
f 985 68 984
f 68 985 69
f 984 67 983
f 67 984 68
f 67 982 983
f 982 67 66
f 66 981 982
f 981 66 65
f 65 980 981
f 980 65 63
f 63 988 980
f 988 63 73
f 73 989 988
f 989 73 74
f 74 990 989
f 990 74 75
f 127 936 128
f 936 127 935
f 126 935 127
f 935 126 934
f 126 933 934
f 933 126 125
f 125 932 933
f 932 125 124
f 124 925 932
f 925 124 118
f 118 926 925
f 926 118 119
f 119 927 926
f 927 119 120
f 120 928 927
f 928 120 121
f 928 122 929
f 122 928 121
f 929 123 930
f 123 929 122
f 930 71 931
f 71 930 123
f 931 72 987
f 72 931 71
f 987 140 1069
f 140 987 72
f 1069 143 1072
f 143 1069 140
f 143 1074 1072
f 1074 143 145
f 145 1076 1074
f 1076 145 147
f 147 1078 1076
f 1078 147 149
f 149 1080 1078
f 1080 149 151
f 151 1082 1080
f 1082 151 153
f 153 1085 1082
f 1085 153 156
f 158 1085 156
f 1085 158 1087
f 81 1087 158
f 1087 81 996
f 82 996 81
f 996 82 937
f 128 937 82
f 937 128 936
f 458 1156 459
f 1156 458 1218
f 461 1218 458
f 1218 461 1220
f 463 1220 461
f 1220 463 1222
f 1224 463 465
f 463 1224 1222
f 1226 465 467
f 465 1226 1224
f 1228 467 469
f 467 1228 1226
f 1230 469 471
f 469 1230 1228
f 1232 471 473
f 471 1232 1230
f 1234 473 475
f 473 1234 1232
f 1234 477 1236
f 477 1234 475
f 1236 479 1238
f 479 1236 477
f 1238 480 1168
f 480 1238 479
f 1168 556 1167
f 556 1168 480
f 1167 555 1166
f 555 1167 556
f 1166 554 1165
f 554 1166 555
f 1164 554 553
f 554 1164 1165
f 1163 553 552
f 553 1163 1164
f 1162 552 551
f 552 1162 1163
f 1161 551 550
f 551 1161 1162
f 1160 550 549
f 550 1160 1161
f 1159 549 548
f 549 1159 1160
f 547 1159 548
f 1159 547 1158
f 546 1158 547
f 1158 546 1157
f 459 1157 546
f 1157 459 1156
f 535 1144 534
f 1144 535 1091
f 626 1091 535
f 1091 626 1089
f 628 1089 626
f 1089 628 1093
f 630 1093 628
f 1093 630 1095
f 1097 630 632
f 630 1097 1095
f 1100 632 635
f 632 1100 1097
f 1102 635 637
f 635 1102 1100
f 1104 637 639
f 637 1104 1102
f 1106 639 641
f 639 1106 1104
f 1108 641 643
f 641 1108 1106
f 1108 645 1110
f 645 1108 643
f 1110 518 1112
f 518 1110 645
f 1112 519 1155
f 519 1112 518
f 1155 545 1154
f 545 1155 519
f 1154 544 1153
f 544 1154 545
f 1153 543 1152
f 543 1153 544
f 1151 543 542
f 543 1151 1152
f 1150 542 541
f 542 1150 1151
f 1149 541 540
f 541 1149 1150
f 1148 540 539
f 540 1148 1149
f 1147 539 538
f 539 1147 1148
f 1146 538 537
f 538 1146 1147
f 536 1146 537
f 1146 536 1145
f 534 1145 536
f 1145 534 1144
f 520 1185 457
f 1185 520 1119
f 557 1119 520
f 1119 557 1117
f 560 1117 557
f 1117 560 1122
f 1124 560 562
f 560 1124 1122
f 1126 562 564
f 562 1126 1124
f 1128 564 566
f 564 1128 1126
f 1130 566 568
f 566 1130 1128
f 1133 568 571
f 568 1133 1130
f 1135 571 573
f 571 1135 1133
f 1135 575 1137
f 575 1135 573
f 1137 577 1139
f 577 1137 575
f 1139 533 1143
f 533 1139 577
f 1143 481 1169
f 481 1143 533
f 1169 478 1237
f 478 1169 481
f 1237 476 1235
f 476 1237 478
f 1233 476 474
f 476 1233 1235
f 1231 474 472
f 474 1231 1233
f 1229 472 470
f 472 1229 1231
f 1227 470 468
f 470 1227 1229
f 1225 468 466
f 468 1225 1227
f 1223 466 464
f 466 1223 1225
f 462 1223 464
f 1223 462 1221
f 460 1221 462
f 1221 460 1219
f 457 1219 460
f 1219 457 1185
f 649 1261 648
f 1261 649 1264
f 1266 649 585
f 649 1266 1264
f 1268 585 586
f 585 1268 1266
f 1270 586 588
f 586 1270 1268
f 1272 588 590
f 588 1272 1270
f 1274 590 592
f 590 1274 1272
f 1276 592 594
f 592 1276 1274
f 1276 596 1278
f 596 1276 594
f 1278 598 1280
f 598 1278 596
f 1280 600 1113
f 600 1280 598
f 1113 646 1111
f 646 1113 600
f 1111 644 1109
f 644 1111 646
f 1109 642 1107
f 642 1109 644
f 1105 642 640
f 642 1105 1107
f 1103 640 638
f 640 1103 1105
f 1101 638 636
f 638 1101 1103
f 1099 636 634
f 636 1099 1101
f 1098 634 633
f 634 1098 1099
f 1096 633 631
f 633 1096 1098
f 629 1096 631
f 1096 629 1094
f 627 1094 629
f 1094 627 1092
f 625 1092 627
f 1092 625 1090
f 647 1090 625
f 1090 647 1172
f 648 1172 647
f 1172 648 1261
f 558 1121 559
f 1121 558 1120
f 484 1120 558
f 1120 484 1118
f 483 1118 484
f 1118 483 1197
f 486 1197 483
f 1197 486 1199
f 489 1199 486
f 1199 489 1202
f 1203 489 490
f 489 1203 1202
f 1205 490 492
f 490 1205 1203
f 1207 492 494
f 492 1207 1205
f 1209 494 496
f 494 1209 1207
f 1211 496 498
f 496 1211 1209
f 1213 498 500
f 498 1213 1211
f 1213 502 1215
f 502 1213 500
f 1215 504 1217
f 504 1215 502
f 1217 506 1140
f 506 1217 504
f 1140 576 1138
f 576 1140 506
f 1138 574 1136
f 574 1138 576
f 1136 572 1134
f 572 1136 574
f 1132 572 570
f 572 1132 1134
f 1131 570 569
f 570 1131 1132
f 1129 569 567
f 569 1129 1131
f 1127 567 565
f 567 1127 1129
f 1125 565 563
f 565 1125 1127
f 1123 563 561
f 563 1123 1125
f 559 1123 561
f 1123 559 1121
f 578 1262 580
f 1262 578 1173
f 602 1173 578
f 1173 602 1239
f 604 1239 602
f 1239 604 1241
f 606 1241 604
f 1241 606 1243
f 1245 606 608
f 606 1245 1243
f 1247 608 610
f 608 1247 1245
f 1249 610 612
f 610 1249 1247
f 1251 612 614
f 612 1251 1249
f 1253 614 616
f 614 1253 1251
f 1255 616 618
f 616 1255 1253
f 1255 620 1257
f 620 1255 618
f 1257 622 1259
f 622 1257 620
f 1259 624 1115
f 624 1259 622
f 1115 599 1114
f 599 1115 624
f 1114 597 1279
f 597 1114 599
f 1279 595 1277
f 595 1279 597
f 1275 595 593
f 595 1275 1277
f 1273 593 591
f 593 1273 1275
f 1271 591 589
f 591 1271 1273
f 1269 589 587
f 589 1269 1271
f 1267 587 583
f 587 1267 1269
f 1265 583 582
f 583 1265 1267
f 581 1265 582
f 1265 581 1263
f 580 1263 581
f 1263 580 1262
f 1204 493 491
f 493 1204 1206
f 1201 491 488
f 491 1201 1204
f 487 1201 488
f 1201 487 1200
f 485 1200 487
f 1200 485 1198
f 482 1198 485
f 1198 482 1184
f 521 1184 482
f 1184 521 1186
f 522 1186 521
f 1186 522 1187
f 523 1187 522
f 1187 523 1188
f 1189 523 524
f 523 1189 1188
f 1190 524 525
f 524 1190 1189
f 1191 525 526
f 525 1191 1190
f 1192 526 527
f 526 1192 1191
f 1193 527 528
f 527 1193 1192
f 1194 528 529
f 528 1194 1193
f 1194 530 1195
f 530 1194 529
f 1195 531 1196
f 531 1195 530
f 1196 532 1142
f 532 1196 531
f 1142 505 1141
f 505 1142 532
f 1141 503 1216
f 503 1141 505
f 1216 501 1214
f 501 1216 503
f 1212 501 499
f 501 1212 1214
f 1210 499 497
f 499 1210 1212
f 1208 497 495
f 497 1208 1210
f 1206 495 493
f 495 1206 1208
f 1250 615 613
f 615 1250 1252
f 1248 613 611
f 613 1248 1250
f 1246 611 609
f 611 1246 1248
f 1244 609 607
f 609 1244 1246
f 605 1244 607
f 1244 605 1242
f 603 1242 605
f 1242 603 1240
f 601 1240 603
f 1240 601 1171
f 650 1171 601
f 1171 650 1170
f 651 1170 650
f 1170 651 1174
f 652 1174 651
f 1174 652 1175
f 1176 652 509
f 652 1176 1175
f 1177 509 510
f 509 1177 1176
f 1178 510 511
f 510 1178 1177
f 1179 511 512
f 511 1179 1178
f 1180 512 513
f 512 1180 1179
f 1181 513 514
f 513 1181 1180
f 1181 515 1182
f 515 1181 514
f 1182 516 1183
f 516 1182 515
f 1183 517 1116
f 517 1183 516
f 1116 623 1260
f 623 1116 517
f 1260 621 1258
f 621 1260 623
f 1258 619 1256
f 619 1258 621
f 1254 619 617
f 619 1254 1256
f 1252 617 615
f 617 1252 1254
f 731 414 730
f 414 731 377
f 730 415 734
f 415 730 414
f 734 418 737
f 418 734 415
f 418 739 737
f 739 418 420
f 420 741 739
f 741 420 422
f 422 743 741
f 743 422 424
f 424 745 743
f 745 424 426
f 426 748 745
f 748 426 429
f 429 750 748
f 750 429 431
f 433 750 431
f 750 433 752
f 435 752 433
f 752 435 754
f 391 754 435
f 754 391 756
f 413 756 391
f 756 413 785
f 412 785 413
f 785 412 784
f 411 784 412
f 784 411 783
f 411 782 783
f 782 411 410
f 410 781 782
f 781 410 409
f 409 780 781
f 780 409 408
f 408 779 780
f 779 408 407
f 407 778 779
f 778 407 406
f 406 777 778
f 777 406 405
f 777 404 776
f 404 777 405
f 776 403 775
f 403 776 404
f 775 377 731
f 377 775 403
f 759 266 758
f 266 759 392
f 758 268 876
f 268 758 266
f 876 270 878
f 270 876 268
f 878 272 880
f 272 878 270
f 272 882 880
f 882 272 274
f 274 884 882
f 884 274 276
f 276 886 884
f 886 276 278
f 278 888 886
f 888 278 280
f 280 890 888
f 890 280 282
f 282 892 890
f 892 282 284
f 286 892 284
f 892 286 894
f 288 894 286
f 894 288 896
f 290 896 288
f 896 290 771
f 402 771 290
f 771 402 770
f 401 770 402
f 770 401 769
f 400 769 401
f 769 400 768
f 400 767 768
f 767 400 399
f 399 766 767
f 766 399 398
f 398 765 766
f 765 398 397
f 397 764 765
f 764 397 396
f 396 763 764
f 763 396 395
f 395 762 763
f 762 395 394
f 762 393 761
f 393 762 394
f 761 392 759
f 392 761 393
f 430 747 749
f 747 430 428
f 428 746 747
f 746 428 427
f 427 744 746
f 744 427 425
f 425 742 744
f 742 425 423
f 423 740 742
f 740 423 421
f 421 738 740
f 738 421 419
f 738 417 736
f 417 738 419
f 736 416 735
f 416 736 417
f 735 339 733
f 339 735 416
f 733 341 811
f 341 733 339
f 811 342 812
f 342 811 341
f 812 344 814
f 344 812 342
f 344 816 814
f 816 344 346
f 346 818 816
f 818 346 348
f 348 820 818
f 820 348 350
f 350 822 820
f 822 350 352
f 352 824 822
f 824 352 354
f 354 826 824
f 826 354 356
f 358 826 356
f 826 358 828
f 359 828 358
f 828 359 829
f 361 829 359
f 829 361 755
f 434 755 361
f 755 434 753
f 432 753 434
f 753 432 751
f 430 751 432
f 751 430 749
f 760 316 831
f 316 760 267
f 831 318 833
f 318 831 316
f 833 321 836
f 321 833 318
f 321 838 836
f 838 321 323
f 323 840 838
f 840 323 325
f 325 842 840
f 842 325 327
f 327 844 842
f 844 327 329
f 329 846 844
f 846 329 331
f 331 848 846
f 848 331 333
f 335 848 333
f 848 335 850
f 337 850 335
f 850 337 852
f 289 852 337
f 852 289 772
f 287 772 289
f 772 287 895
f 285 895 287
f 895 285 893
f 283 893 285
f 893 283 891
f 283 889 891
f 889 283 281
f 281 887 889
f 887 281 279
f 279 885 887
f 885 279 277
f 277 883 885
f 883 277 275
f 275 881 883
f 881 275 273
f 273 879 881
f 879 273 271
f 879 269 877
f 269 879 271
f 877 265 875
f 265 877 269
f 875 267 760
f 267 875 265
f 448 717 719
f 717 448 446
f 446 715 717
f 715 446 444
f 444 713 715
f 713 444 442
f 442 711 713
f 711 442 440
f 711 438 709
f 438 711 440
f 709 437 708
f 437 709 438
f 708 375 706
f 375 708 437
f 706 378 799
f 378 706 375
f 799 379 800
f 379 799 378
f 800 380 801
f 380 800 379
f 380 802 801
f 802 380 381
f 381 803 802
f 803 381 382
f 382 804 803
f 804 382 383
f 383 805 804
f 805 383 384
f 384 806 805
f 806 384 385
f 385 807 806
f 807 385 386
f 387 807 386
f 807 387 808
f 388 808 387
f 808 388 809
f 389 809 388
f 809 389 729
f 456 729 389
f 729 456 727
f 454 727 456
f 727 454 725
f 452 725 454
f 725 452 723
f 452 721 723
f 721 452 450
f 450 719 721
f 719 450 448
f 859 296 857
f 296 859 298
f 857 294 855
f 294 857 296
f 855 291 787
f 291 855 294
f 787 363 786
f 363 787 291
f 786 364 789
f 364 786 363
f 789 365 790
f 365 789 364
f 365 791 790
f 791 365 366
f 366 792 791
f 792 366 367
f 367 793 792
f 793 367 368
f 368 794 793
f 794 368 369
f 369 795 794
f 795 369 370
f 370 796 795
f 796 370 371
f 372 796 371
f 796 372 797
f 373 797 372
f 797 373 798
f 374 798 373
f 798 374 774
f 314 774 374
f 774 314 773
f 312 773 314
f 773 312 873
f 310 873 312
f 873 310 871
f 310 869 871
f 869 310 308
f 308 867 869
f 867 308 306
f 306 865 867
f 865 306 304
f 304 863 865
f 863 304 302
f 302 861 863
f 861 302 300
f 300 859 861
f 859 300 298
f 345 813 815
f 813 345 343
f 813 338 810
f 338 813 343
f 810 340 732
f 340 810 338
f 732 376 707
f 376 732 340
f 707 436 705
f 436 707 376
f 705 439 710
f 439 705 436
f 710 441 712
f 441 710 439
f 441 714 712
f 714 441 443
f 443 716 714
f 716 443 445
f 445 718 716
f 718 445 447
f 447 720 718
f 720 447 449
f 449 722 720
f 722 449 451
f 451 724 722
f 724 451 453
f 455 724 453
f 724 455 726
f 390 726 455
f 726 390 728
f 362 728 390
f 728 362 757
f 360 757 362
f 757 360 830
f 357 830 360
f 830 357 827
f 355 827 357
f 827 355 825
f 355 823 825
f 823 355 353
f 353 821 823
f 821 353 351
f 351 819 821
f 819 351 349
f 349 817 819
f 817 349 347
f 347 815 817
f 815 347 345
f 788 292 854
f 292 788 293
f 854 295 856
f 295 854 292
f 856 297 858
f 297 856 295
f 297 860 858
f 860 297 299
f 299 862 860
f 862 299 301
f 301 864 862
f 864 301 303
f 303 866 864
f 866 303 305
f 305 868 866
f 868 305 307
f 307 870 868
f 870 307 309
f 311 870 309
f 870 311 872
f 313 872 311
f 872 313 874
f 315 874 313
f 874 315 853
f 336 853 315
f 853 336 851
f 334 851 336
f 851 334 849
f 332 849 334
f 849 332 847
f 332 845 847
f 845 332 330
f 330 843 845
f 843 330 328
f 328 841 843
f 841 328 326
f 326 839 841
f 839 326 324
f 324 837 839
f 837 324 322
f 322 835 837
f 835 322 320
f 835 319 834
f 319 835 320
f 834 317 832
f 317 834 319
f 832 293 788
f 293 832 317
