# soporte-polea-ttp.obj (EXERSUITE3D, cm)
v 9.497 -1.650 3.407
v -9.497 -1.650 -3.607
v 9.497 -1.650 -3.607
v -9.497 -1.650 3.407
v 9.497 -1.450 -3.607
v 9.497 -6.650 3.607
v 9.497 -6.650 3.407
v 9.497 -1.450 3.607
v -9.497 -1.450 3.607
v -9.497 -6.650 3.407
v -9.497 -6.650 3.607
v -9.497 -1.450 -3.607
v -1.534 3.043 3.607
v -1.755 3.043 3.607
v -1.755 -1.450 3.607
v -1.534 -1.250 3.607
v 1.759 -1.450 3.607
v 1.538 -1.250 3.607
v 1.538 3.043 3.607
v 1.759 3.043 3.607
v -1.534 3.043 -3.607
v -1.755 -1.450 -3.607
v -1.755 3.043 -3.607
v 1.759 3.043 -3.607
v 1.759 -1.450 -3.607
v 1.538 3.043 -3.607
v -1.534 -1.250 -3.607
v 1.538 -1.250 -3.607
v 1.538 6.650 0.000
v 1.759 6.527 -0.934
v 1.538 6.527 -0.934
v 1.759 6.650 0.000
v -1.534 3.977 -3.484
v -1.755 3.977 -3.484
v 1.759 3.977 -3.484
v 1.538 3.977 -3.484
v 1.538 6.527 0.934
v 1.759 6.527 0.934
v 1.759 6.167 -1.804
v 1.538 6.167 -1.804
v 1.759 5.594 -2.551
v 1.538 4.846 -3.124
v 1.538 5.594 -2.551
v 1.759 4.846 -3.124
v -1.534 4.846 -3.124
v -1.755 4.846 -3.124
v -1.755 6.167 -1.804
v -1.534 5.594 -2.551
v -1.755 5.594 -2.551
v -1.534 6.167 -1.804
v 1.759 3.977 3.484
v 1.759 4.846 3.124
v 1.759 5.594 2.551
v 1.759 6.167 1.804
v -1.755 6.527 -0.934
v -1.534 6.527 -0.934
v -1.755 6.650 0.000
v -1.534 6.650 0.000
v 1.538 4.846 3.124
v 1.538 3.977 3.484
v 1.538 5.594 2.551
v 1.538 6.167 1.804
v -1.534 3.977 3.484
v -1.755 3.977 3.484
v -1.755 6.527 0.934
v -1.534 6.527 0.934
v -1.755 5.594 2.551
v -1.534 6.167 1.804
v -1.755 6.167 1.804
v -1.534 5.594 2.551
v -1.534 4.846 3.124
v -1.755 4.846 3.124
f 1 2 3
f 2 1 4
f 5 1 3
f 1 6 7
f 6 1 8
f 8 1 5
f 9 10 11
f 10 9 4
f 4 9 2
f 2 9 12
f 6 10 7
f 10 6 11
f 13 14 15
f 6 9 11
f 9 6 15
f 15 6 16
f 15 16 13
f 16 6 17
f 16 17 18
f 18 17 19
f 17 6 8
f 20 19 17
f 21 22 23
f 24 25 26
f 22 2 12
f 2 22 3
f 3 22 25
f 25 22 27
f 27 22 21
f 25 27 28
f 25 28 26
f 3 25 5
f 1 10 4
f 10 1 7
f 29 30 31
f 30 29 32
f 33 23 34
f 23 33 21
f 35 26 36
f 26 35 24
f 37 32 29
f 32 37 38
f 31 39 40
f 39 31 30
f 41 42 43
f 42 41 44
f 45 34 46
f 34 45 33
f 47 48 49
f 48 47 50
f 48 46 49
f 46 48 45
f 24 17 25
f 17 24 20
f 20 24 35
f 20 35 51
f 51 35 44
f 51 44 52
f 52 44 41
f 52 41 53
f 53 41 39
f 53 39 54
f 54 39 38
f 38 39 30
f 38 30 32
f 55 50 47
f 50 55 56
f 57 56 55
f 56 57 58
f 40 41 43
f 41 40 39
f 51 59 60
f 59 51 52
f 52 61 59
f 61 52 53
f 44 36 42
f 36 44 35
f 20 60 19
f 60 20 51
f 62 38 37
f 38 62 54
f 61 54 62
f 54 61 53
f 14 63 64
f 63 14 13
f 65 58 57
f 58 65 66
f 67 68 69
f 68 67 70
f 71 67 72
f 67 71 70
f 64 71 72
f 71 64 63
f 69 66 65
f 66 69 68
f 17 5 25
f 5 17 8
f 9 22 12
f 22 9 15
f 14 22 15
f 22 14 23
f 23 14 34
f 34 14 64
f 34 64 46
f 46 64 72
f 46 72 49
f 49 72 67
f 49 67 47
f 47 67 69
f 47 69 55
f 55 69 65
f 55 65 57
f 16 28 27
f 28 16 18
f 21 16 27
f 16 21 13
f 13 21 33
f 13 33 63
f 63 33 45
f 63 45 71
f 71 45 48
f 71 48 70
f 70 48 50
f 70 50 68
f 68 50 56
f 68 56 66
f 66 56 58
f 19 28 18
f 28 19 26
f 26 19 60
f 26 60 36
f 36 60 59
f 36 59 42
f 42 59 61
f 42 61 43
f 43 61 62
f 43 62 40
f 40 62 37
f 40 37 31
f 31 37 29
