# travesano-pr.obj (EXERSUITE3D, cm)
v -3.500 6.000 52.798
v -2.268 4.500 52.798
v -3.500 -6.000 52.798
v -2.251 4.630 52.798
v -2.201 4.750 52.798
v -2.121 4.854 52.798
v -2.018 4.934 52.798
v -1.897 4.984 52.798
v 3.500 6.000 52.798
v -1.767 5.001 52.798
v -1.638 4.984 52.798
v -1.517 4.934 52.798
v -1.413 4.854 52.798
v -1.334 4.750 52.798
v -1.283 4.630 52.798
v -1.266 4.500 52.798
v 1.500 4.934 52.798
v 1.396 4.854 52.798
v 1.316 4.750 52.798
v -1.061 1.061 52.798
v -0.750 1.299 52.798
v -0.388 1.449 52.798
v 1.266 4.630 52.798
v -0.000 1.500 52.798
v 0.388 1.449 52.798
v 0.750 1.299 52.798
v 1.249 4.500 52.798
v 1.061 1.061 52.798
v 1.620 4.984 52.798
v 1.750 5.001 52.798
v 1.880 4.984 52.798
v 2.000 4.934 52.798
v 2.104 4.854 52.798
v 2.184 4.750 52.798
v 2.234 4.630 52.798
v 2.251 4.500 52.798
v 2.251 -4.370 52.798
v 2.268 -4.500 52.798
v -1.880 -4.984 52.798
v 3.500 -6.000 52.798
v -2.000 -4.934 52.798
v -2.104 -4.854 52.798
v -2.184 -4.750 52.798
v -2.234 -4.630 52.798
v -2.251 -4.500 52.798
v -2.251 4.370 52.798
v -1.750 -5.001 52.798
v -1.620 -4.984 52.798
v -1.500 -4.934 52.798
v -1.396 -4.854 52.798
v -1.316 -4.750 52.798
v -1.266 -4.630 52.798
v -1.249 -4.500 52.798
v 1.517 -4.934 52.798
v 1.413 -4.854 52.798
v 1.334 -4.750 52.798
v -1.061 -1.061 52.798
v -0.750 -1.299 52.798
v -0.388 -1.449 52.798
v 1.283 -4.630 52.798
v -0.000 -1.500 52.798
v 0.388 -1.449 52.798
v 0.750 -1.299 52.798
v 1.266 -4.500 52.798
v 1.061 -1.061 52.798
v 1.638 -4.984 52.798
v 1.767 -5.001 52.798
v 1.897 -4.984 52.798
v 2.018 -4.934 52.798
v 2.121 -4.854 52.798
v 2.201 -4.750 52.798
v 2.251 -4.630 52.798
v 1.299 0.750 52.798
v 1.266 4.370 52.798
v 1.316 4.250 52.798
v 1.449 0.388 52.798
v 1.396 4.146 52.798
v 1.500 4.066 52.798
v 1.500 -0.000 52.798
v 1.620 4.016 52.798
v 1.517 -4.066 52.798
v 1.638 -4.016 52.798
v 1.750 3.999 52.798
v 1.767 -3.999 52.798
v 1.880 4.016 52.798
v 1.897 -4.016 52.798
v 2.000 4.066 52.798
v 2.018 -4.066 52.798
v 2.104 4.146 52.798
v 2.121 -4.146 52.798
v 2.184 4.250 52.798
v 2.201 -4.250 52.798
v 2.234 4.370 52.798
v 1.299 -0.750 52.798
v 1.283 -4.370 52.798
v 1.334 -4.250 52.798
v 1.449 -0.388 52.798
v 1.413 -4.146 52.798
v -2.201 4.250 52.798
v -2.234 -4.370 52.798
v -2.184 -4.250 52.798
v -2.121 4.146 52.798
v -2.104 -4.146 52.798
v -2.018 4.066 52.798
v -2.000 -4.066 52.798
v -1.897 4.016 52.798
v -1.880 -4.016 52.798
v -1.767 3.999 52.798
v -1.750 -3.999 52.798
v -1.638 4.016 52.798
v -1.620 -4.016 52.798
v -1.517 4.066 52.798
v -1.500 -4.066 52.798
v -1.500 -0.000 52.798
v -1.449 -0.388 52.798
v -1.396 -4.146 52.798
v -1.299 -0.750 52.798
v -1.316 -4.250 52.798
v -1.266 -4.370 52.798
v -1.413 4.146 52.798
v -1.449 0.388 52.798
v -1.299 0.750 52.798
v -1.334 4.250 52.798
v -1.283 4.370 52.798
v 3.500 -6.000 53.000
v -3.500 -6.000 53.000
v 3.500 6.000 53.000
v -3.500 6.000 -52.798
v -3.500 -6.000 -53.000
v -3.500 -6.000 -52.798
v -3.500 6.000 -53.000
v 3.500 6.000 -52.798
v 3.500 6.000 -53.000
v 3.500 -6.000 -52.798
v 3.500 -6.000 -53.000
v -1.449 -0.388 -52.798
v -1.500 0.000 -52.798
v -1.449 0.388 -52.798
v -1.299 0.750 -52.798
v -1.061 1.061 -52.798
v -0.905 1.180 -52.798
v -0.750 1.299 -52.798
v 1.500 0.000 -52.798
v 1.449 0.388 -52.798
v 1.449 -0.388 -52.798
v 1.299 -0.750 -52.798
v 1.061 -1.061 -52.798
v 0.750 -1.299 -52.798
v 0.388 -1.449 -52.798
v -0.000 -1.500 -52.798
v -0.388 -1.449 -52.798
v -0.750 -1.299 -52.798
v -1.061 -1.061 -52.798
v -1.299 -0.750 -52.798
v 1.251 -4.500 -52.798
v 1.268 -4.371 -52.798
v 1.318 -4.250 -52.798
v 1.397 -4.147 -52.798
v 1.500 -4.068 -52.798
v -2.252 -4.500 -52.798
v -2.235 -4.630 -52.798
v -2.185 -4.751 -52.798
v -2.105 -4.855 -52.798
v -2.001 -4.935 -52.798
v -1.880 -4.985 -52.798
v -2.254 4.500 -52.798
v -1.750 -5.002 -52.798
v -1.620 -4.985 -52.798
v -1.499 -4.935 -52.798
v -1.395 -4.855 -52.798
v -1.315 -4.751 -52.798
v -1.265 -4.630 -52.798
v -1.248 -4.500 -52.798
v 1.500 -4.932 -52.798
v 1.397 -4.853 -52.798
v 1.318 -4.750 -52.798
v 1.268 -4.629 -52.798
v 1.621 -4.982 -52.798
v 1.750 -4.999 -52.798
v 1.879 -4.982 -52.798
v 2.000 -4.932 -52.798
v 2.103 -4.853 -52.798
v 2.182 -4.750 -52.798
v 2.232 -4.629 -52.798
v 2.249 -4.500 -52.798
v 2.251 4.500 -52.798
v -1.880 4.986 -52.798
v -2.002 4.936 -52.798
v -2.106 4.856 -52.798
v -2.186 4.752 -52.798
v -2.236 4.630 -52.798
v -1.750 5.004 -52.798
v -1.620 4.986 -52.798
v -1.498 4.936 -52.798
v -1.394 4.856 -52.798
v -1.314 4.752 -52.798
v -1.264 4.630 -52.798
v -1.246 4.500 -52.798
v 1.499 4.934 -52.798
v 1.396 4.854 -52.798
v 1.316 4.751 -52.798
v -0.388 1.449 -52.798
v 1.266 4.630 -52.798
v -0.000 1.500 -52.798
v 0.388 1.449 -52.798
v 0.750 1.299 -52.798
v 1.249 4.500 -52.798
v 1.061 1.061 -52.798
v 1.620 4.984 -52.798
v 1.750 5.001 -52.798
v 1.880 4.984 -52.798
v 2.001 4.934 -52.798
v 2.104 4.854 -52.798
v 2.184 4.751 -52.798
v 2.234 4.630 -52.798
v 1.299 0.750 -52.798
v 1.266 4.370 -52.798
v 1.316 4.249 -52.798
v 1.396 4.146 -52.798
v 1.499 4.066 -52.798
v 1.620 4.016 -52.798
v 1.621 -4.018 -52.798
v 1.750 3.999 -52.798
v 1.750 -4.001 -52.798
v 1.879 -4.018 -52.798
v 1.880 4.016 -52.798
v 2.000 -4.068 -52.798
v 2.001 4.066 -52.798
v 2.103 -4.147 -52.798
v 2.104 4.146 -52.798
v 2.182 -4.250 -52.798
v 2.184 4.249 -52.798
v 2.232 -4.371 -52.798
v 2.234 4.370 -52.798
v -1.498 4.064 -52.798
v -1.620 4.014 -52.798
v -1.394 4.144 -52.798
v -1.314 4.248 -52.798
v -1.264 4.370 -52.798
v -2.236 4.370 -52.798
v -2.235 -4.370 -52.798
v -2.186 4.248 -52.798
v -2.185 -4.249 -52.798
v -2.106 4.144 -52.798
v -2.105 -4.145 -52.798
v -2.002 4.064 -52.798
v -2.001 -4.065 -52.798
v -1.880 4.014 -52.798
v -1.880 -4.015 -52.798
v -1.750 3.996 -52.798
v -1.750 -3.998 -52.798
v -1.620 -4.015 -52.798
v -1.499 -4.065 -52.798
v -1.395 -4.145 -52.798
v -1.315 -4.249 -52.798
v -1.265 -4.370 -52.798
v -1.620 4.014 -53.000
v -1.750 3.996 -53.000
v -1.498 4.064 -53.000
v -1.394 4.144 -53.000
v -1.314 4.248 -53.000
v -1.264 4.370 -53.000
v -1.246 4.500 -53.000
v -1.264 4.630 -53.000
v -1.314 4.752 -53.000
v -1.394 4.856 -53.000
v -1.498 4.936 -53.000
v -1.620 4.986 -53.000
v -1.750 5.004 -53.000
v -1.880 4.986 -53.000
v -2.002 4.936 -53.000
v -2.106 4.856 -53.000
v -2.186 4.752 -53.000
v -2.236 4.630 -53.000
v -2.254 4.500 -53.000
v -2.236 4.370 -53.000
v -2.186 4.248 -53.000
v -2.106 4.144 -53.000
v -2.002 4.064 -53.000
v -1.880 4.014 -53.000
v 1.750 5.001 -53.000
v 1.620 4.984 -53.000
v 1.499 4.934 -53.000
v 1.396 4.854 -53.000
v 1.316 4.751 -53.000
v 1.266 4.630 -53.000
v 1.249 4.500 -53.000
v 1.266 4.370 -53.000
v 1.316 4.249 -53.000
v 1.396 4.146 -53.000
v 1.499 4.066 -53.000
v 1.620 4.016 -53.000
v 1.750 3.999 -53.000
v 1.880 4.016 -53.000
v 2.001 4.066 -53.000
v 2.104 4.146 -53.000
v 2.184 4.249 -53.000
v 2.234 4.370 -53.000
v 2.251 4.500 -53.000
v 2.234 4.630 -53.000
v 2.184 4.751 -53.000
v 2.104 4.854 -53.000
v 2.001 4.934 -53.000
v 1.880 4.984 -53.000
v 1.397 -4.147 -53.000
v 1.500 -4.068 -53.000
v 1.318 -4.250 -53.000
v 1.268 -4.371 -53.000
v 1.251 -4.500 -53.000
v 1.268 -4.629 -53.000
v 1.318 -4.750 -53.000
v 1.397 -4.853 -53.000
v 1.500 -4.932 -53.000
v 1.621 -4.982 -53.000
v 1.750 -4.999 -53.000
v 1.879 -4.982 -53.000
v 2.000 -4.932 -53.000
v 2.103 -4.853 -53.000
v 2.182 -4.750 -53.000
v 2.232 -4.629 -53.000
v 2.249 -4.500 -53.000
v 2.232 -4.371 -53.000
v 2.182 -4.250 -53.000
v 2.103 -4.147 -53.000
v 2.000 -4.068 -53.000
v 1.879 -4.018 -53.000
v 1.750 -4.001 -53.000
v 1.621 -4.018 -53.000
v -1.880 -4.015 -53.000
v -2.001 -4.065 -53.000
v -2.105 -4.145 -53.000
v -2.185 -4.249 -53.000
v -2.235 -4.370 -53.000
v -2.252 -4.500 -53.000
v -2.235 -4.630 -53.000
v -2.185 -4.751 -53.000
v -2.105 -4.855 -53.000
v -2.001 -4.935 -53.000
v -1.880 -4.985 -53.000
v -1.750 -5.002 -53.000
v -1.620 -4.985 -53.000
v -1.499 -4.935 -53.000
v -1.395 -4.855 -53.000
v -1.315 -4.751 -53.000
v -1.265 -4.630 -53.000
v -1.248 -4.500 -53.000
v -1.265 -4.370 -53.000
v -1.315 -4.249 -53.000
v -1.395 -4.145 -53.000
v -1.499 -4.065 -53.000
v -1.620 -4.015 -53.000
v -1.750 -3.998 -53.000
v -1.767 3.999 53.000
v -1.638 4.016 53.000
v -1.897 4.016 53.000
v -2.018 4.066 53.000
v -2.121 4.146 53.000
v -2.201 4.250 53.000
v -2.251 4.370 53.000
v -2.268 4.500 53.000
v -2.251 4.630 53.000
v -2.201 4.750 53.000
v -2.121 4.854 53.000
v -2.018 4.934 53.000
v -1.897 4.984 53.000
v -1.767 5.001 53.000
v -1.638 4.984 53.000
v -1.517 4.934 53.000
v -1.413 4.854 53.000
v -1.334 4.750 53.000
v -1.283 4.630 53.000
v -1.266 4.500 53.000
v -1.283 4.370 53.000
v -1.334 4.250 53.000
v -1.413 4.146 53.000
v -1.517 4.066 53.000
v 1.750 3.999 53.000
v 1.880 4.016 53.000
v 1.620 4.016 53.000
v 1.500 4.066 53.000
v 1.396 4.146 53.000
v 1.316 4.250 53.000
v 1.266 4.370 53.000
v 1.249 4.500 53.000
v 1.266 4.630 53.000
v 1.316 4.750 53.000
v 1.396 4.854 53.000
v 1.500 4.934 53.000
v 1.620 4.984 53.000
v 1.750 5.001 53.000
v 1.880 4.984 53.000
v 2.000 4.934 53.000
v 2.104 4.854 53.000
v 2.184 4.750 53.000
v 2.234 4.630 53.000
v 2.251 4.500 53.000
v 2.234 4.370 53.000
v 2.184 4.250 53.000
v 2.104 4.146 53.000
v 2.000 4.066 53.000
v 1.767 -5.001 53.000
v 1.897 -4.984 53.000
v 1.638 -4.984 53.000
v 1.517 -4.934 53.000
v 1.413 -4.854 53.000
v 1.334 -4.750 53.000
v 1.283 -4.630 53.000
v 1.266 -4.500 53.000
v 1.283 -4.370 53.000
v 1.334 -4.250 53.000
v 1.413 -4.146 53.000
v 1.517 -4.066 53.000
v 1.638 -4.016 53.000
v 1.767 -3.999 53.000
v 1.897 -4.016 53.000
v 2.018 -4.066 53.000
v 2.121 -4.146 53.000
v 2.201 -4.250 53.000
v 2.251 -4.370 53.000
v 2.268 -4.500 53.000
v 2.251 -4.630 53.000
v 2.201 -4.750 53.000
v 2.121 -4.854 53.000
v 2.018 -4.934 53.000
v -3.500 6.000 53.000
v 1.254 0.336 -53.000
v 1.124 0.649 -53.000
v 1.298 0.000 -53.000
v 1.254 -0.336 -53.000
v 1.124 -0.649 -53.000
v -1.124 0.649 -53.000
v -0.918 0.918 -53.000
v -0.783 1.021 -53.000
v -0.649 1.124 -53.000
v -0.336 1.254 -53.000
v -0.000 1.298 -53.000
v 0.336 1.254 -53.000
v 0.649 1.124 -53.000
v 0.918 0.918 -53.000
v -1.124 -0.649 -53.000
v -0.918 -0.918 -53.000
v -0.649 -1.124 -53.000
v -0.336 -1.254 -53.000
v -0.000 -1.298 -53.000
v 0.336 -1.254 -53.000
v 0.649 -1.124 -53.000
v 0.918 -0.918 -53.000
v -1.298 0.000 -53.000
v -1.254 -0.336 -53.000
v -1.254 0.336 -53.000
v -2.104 -4.854 53.000
v -2.000 -4.934 53.000
v -1.750 -5.001 53.000
v -1.620 -4.984 53.000
v -2.234 -4.630 53.000
v -2.251 -4.500 53.000
v -2.234 -4.370 53.000
v -1.880 -4.984 53.000
v -2.184 -4.750 53.000
v -1.316 -4.750 53.000
v -1.266 -4.630 53.000
v -1.396 -4.854 53.000
v -1.249 -4.500 53.000
v -1.266 -4.370 53.000
v -1.316 -4.250 53.000
v -1.396 -4.146 53.000
v -1.500 -4.066 53.000
v -2.184 -4.250 53.000
v -1.620 -4.016 53.000
v -1.750 -3.999 53.000
v -2.104 -4.146 53.000
v -2.000 -4.066 53.000
v -1.880 -4.016 53.000
v -1.500 -4.934 53.000
v 1.297 -0.000 53.000
v 1.253 -0.336 53.000
v -1.123 -0.648 53.000
v -0.917 -0.917 53.000
v -0.648 -1.123 53.000
v -0.336 -1.253 53.000
v -0.000 -1.297 53.000
v 0.336 -1.253 53.000
v 0.648 -1.123 53.000
v 0.917 -0.917 53.000
v 1.123 -0.648 53.000
v -1.123 0.648 53.000
v -1.253 0.336 53.000
v -0.917 0.917 53.000
v -0.648 1.123 53.000
v -0.336 1.253 53.000
v -0.000 1.297 53.000
v 0.336 1.253 53.000
v 0.648 1.123 53.000
v 0.917 0.917 53.000
v 1.123 0.648 53.000
v 1.253 0.336 53.000
v -1.297 -0.000 53.000
v -1.253 -0.336 53.000
v -0.648 1.123 -52.798
v -0.783 1.021 -52.798
v -0.917 0.917 -52.798
v 0.917 0.917 -52.798
v 1.123 0.648 -52.798
v 1.253 0.336 -52.798
v -0.336 1.253 -52.798
v 1.297 0.000 -52.798
v 0.336 1.253 -52.798
v 0.648 1.123 -52.798
v -0.000 1.297 -52.798
v -0.917 -0.917 -52.798
v -1.123 -0.648 -52.798
v -1.123 0.648 -52.798
v -1.253 0.336 -52.798
v -1.253 -0.336 -52.798
v -1.297 0.000 -52.798
v -0.648 -1.123 -52.798
v 0.336 -1.253 -52.798
v -0.000 -1.297 -52.798
v 0.917 -0.917 -52.798
v 0.648 -1.123 -52.798
v 1.123 -0.648 -52.798
v -0.336 -1.253 -52.798
v 1.253 -0.336 -52.798
f 1 2 3
f 2 1 4
f 4 1 5
f 5 1 6
f 6 1 7
f 7 1 8
f 8 1 9
f 8 9 10
f 10 9 11
f 11 9 12
f 12 9 13
f 13 9 14
f 14 9 15
f 15 9 16
f 16 9 17
f 16 17 18
f 16 18 19
f 16 19 20
f 20 19 21
f 21 19 22
f 22 19 23
f 22 23 24
f 24 23 25
f 25 23 26
f 26 23 27
f 26 27 28
f 17 9 29
f 29 9 30
f 30 9 31
f 31 9 32
f 32 9 33
f 33 9 34
f 34 9 35
f 35 9 36
f 36 9 37
f 37 9 38
f 3 39 40
f 39 3 41
f 41 3 42
f 42 3 43
f 43 3 44
f 44 3 45
f 45 3 2
f 45 2 46
f 40 39 47
f 40 47 48
f 40 48 49
f 40 49 50
f 40 50 51
f 40 51 52
f 40 52 53
f 40 53 54
f 54 53 55
f 55 53 56
f 56 53 57
f 56 57 58
f 56 58 59
f 56 59 60
f 60 59 61
f 60 61 62
f 60 62 63
f 60 63 64
f 64 63 65
f 40 54 66
f 40 66 67
f 40 67 68
f 40 68 69
f 40 69 70
f 40 70 71
f 40 71 72
f 40 72 38
f 40 38 9
f 27 73 28
f 73 27 74
f 73 74 75
f 73 75 76
f 76 75 77
f 76 77 78
f 76 78 79
f 79 78 80
f 79 80 81
f 81 80 82
f 82 80 83
f 82 83 84
f 84 83 85
f 84 85 86
f 86 85 87
f 86 87 88
f 88 87 89
f 88 89 90
f 90 89 91
f 90 91 92
f 92 91 93
f 92 93 37
f 37 93 36
f 94 64 65
f 64 94 95
f 95 94 96
f 96 94 97
f 96 97 98
f 98 97 81
f 81 97 79
f 99 45 46
f 45 99 100
f 100 99 101
f 101 99 102
f 101 102 103
f 103 102 104
f 103 104 105
f 105 104 106
f 105 106 107
f 107 106 108
f 107 108 109
f 109 108 110
f 109 110 111
f 111 110 112
f 111 112 113
f 113 112 114
f 113 114 115
f 113 115 116
f 116 115 117
f 116 117 118
f 118 117 119
f 119 117 57
f 119 57 53
f 120 114 112
f 114 120 121
f 121 120 122
f 122 120 123
f 122 123 124
f 122 124 20
f 20 124 16
f 125 3 40
f 3 125 126
f 9 125 40
f 125 9 127
f 128 129 130
f 129 128 131
f 131 132 133
f 132 131 128
f 133 134 135
f 134 133 132
f 134 129 135
f 129 134 130
f 114 136 115
f 136 114 137
f 121 137 114
f 137 121 138
f 122 138 121
f 138 122 139
f 20 139 122
f 139 20 140
f 141 21 142
f 21 141 140
f 21 140 20
f 143 76 79
f 76 143 144
f 145 79 97
f 79 145 143
f 146 97 94
f 97 146 145
f 147 94 65
f 94 147 146
f 147 63 148
f 63 147 65
f 148 62 149
f 62 148 63
f 62 150 149
f 150 62 61
f 61 151 150
f 151 61 59
f 151 58 152
f 58 151 59
f 58 153 152
f 153 58 57
f 117 153 57
f 153 117 154
f 115 154 117
f 154 115 136
f 155 146 147
f 146 155 156
f 146 156 157
f 146 157 145
f 145 157 158
f 145 158 159
f 145 159 143
f 130 160 128
f 160 130 161
f 161 130 162
f 162 130 163
f 163 130 164
f 164 130 165
f 165 130 134
f 128 160 166
f 165 134 167
f 167 134 168
f 168 134 169
f 169 134 170
f 170 134 171
f 171 134 172
f 172 134 173
f 173 134 174
f 173 174 175
f 173 175 176
f 173 176 153
f 153 176 152
f 152 176 151
f 151 176 177
f 151 177 150
f 150 177 149
f 149 177 148
f 148 177 155
f 148 155 147
f 174 134 178
f 178 134 179
f 179 134 180
f 180 134 181
f 181 134 182
f 182 134 183
f 183 134 184
f 184 134 185
f 185 134 186
f 128 187 132
f 187 128 188
f 188 128 189
f 189 128 190
f 190 128 191
f 191 128 166
f 132 187 192
f 132 192 193
f 132 193 194
f 132 194 195
f 132 195 196
f 132 196 197
f 132 197 198
f 132 198 199
f 199 198 200
f 200 198 201
f 201 198 140
f 201 140 141
f 201 141 142
f 201 142 202
f 201 202 203
f 203 202 204
f 203 204 205
f 203 205 206
f 203 206 207
f 207 206 208
f 132 199 209
f 132 209 210
f 132 210 211
f 132 211 212
f 132 212 213
f 132 213 214
f 132 214 215
f 132 215 186
f 132 186 134
f 216 207 208
f 207 216 217
f 217 216 218
f 218 216 144
f 218 144 219
f 219 144 220
f 220 144 143
f 220 143 221
f 221 143 159
f 221 159 222
f 221 222 223
f 223 222 224
f 223 224 225
f 223 225 226
f 226 225 227
f 226 227 228
f 228 227 229
f 228 229 230
f 230 229 231
f 230 231 232
f 232 231 233
f 232 233 234
f 234 233 185
f 234 185 186
f 137 235 236
f 235 137 138
f 235 138 237
f 237 138 139
f 237 139 238
f 238 139 239
f 239 139 140
f 239 140 198
f 160 240 166
f 240 160 241
f 240 241 242
f 242 241 243
f 242 243 244
f 244 243 245
f 244 245 246
f 246 245 247
f 246 247 248
f 248 247 249
f 248 249 250
f 250 249 251
f 250 251 252
f 250 252 236
f 236 252 253
f 236 253 137
f 137 253 136
f 136 253 254
f 136 254 154
f 154 254 255
f 154 255 256
f 154 256 153
f 153 256 173
f 250 257 258
f 257 250 236
f 257 235 259
f 235 257 236
f 235 260 259
f 260 235 237
f 238 260 237
f 260 238 261
f 239 261 238
f 261 239 262
f 198 262 239
f 262 198 263
f 197 263 198
f 263 197 264
f 196 264 197
f 264 196 265
f 195 265 196
f 265 195 266
f 266 194 267
f 194 266 195
f 194 268 267
f 268 194 193
f 268 192 269
f 192 268 193
f 192 270 269
f 270 192 187
f 270 188 271
f 188 270 187
f 188 272 271
f 272 188 189
f 272 190 273
f 190 272 189
f 273 191 274
f 191 273 190
f 274 166 275
f 166 274 191
f 275 240 276
f 240 275 166
f 276 242 277
f 242 276 240
f 277 244 278
f 244 277 242
f 278 246 279
f 246 278 244
f 246 280 279
f 280 246 248
f 248 258 280
f 258 248 250
f 281 209 282
f 209 281 210
f 209 283 282
f 283 209 199
f 199 284 283
f 284 199 200
f 284 201 285
f 201 284 200
f 285 203 286
f 203 285 201
f 286 207 287
f 207 286 203
f 287 217 288
f 217 287 207
f 288 218 289
f 218 288 217
f 289 219 290
f 219 289 218
f 219 291 290
f 291 219 220
f 291 221 292
f 221 291 220
f 221 293 292
f 293 221 223
f 293 226 294
f 226 293 223
f 226 295 294
f 295 226 228
f 295 230 296
f 230 295 228
f 232 296 230
f 296 232 297
f 234 297 232
f 297 234 298
f 186 298 234
f 298 186 299
f 215 299 186
f 299 215 300
f 214 300 215
f 300 214 301
f 213 301 214
f 301 213 302
f 213 303 302
f 303 213 212
f 212 304 303
f 304 212 211
f 211 281 304
f 281 211 210
f 159 305 306
f 305 159 158
f 305 157 307
f 157 305 158
f 307 156 308
f 156 307 157
f 308 155 309
f 155 308 156
f 309 177 310
f 177 309 155
f 310 176 311
f 176 310 177
f 311 175 312
f 175 311 176
f 175 313 312
f 313 175 174
f 313 178 314
f 178 313 174
f 178 315 314
f 315 178 179
f 315 180 316
f 180 315 179
f 180 317 316
f 317 180 181
f 317 182 318
f 182 317 181
f 183 318 182
f 318 183 319
f 184 319 183
f 319 184 320
f 185 320 184
f 320 185 321
f 233 321 185
f 321 233 322
f 231 322 233
f 322 231 323
f 229 323 231
f 323 229 324
f 229 325 324
f 325 229 227
f 227 326 325
f 326 227 225
f 225 327 326
f 327 225 224
f 327 222 328
f 222 327 224
f 222 306 328
f 306 222 159
f 329 247 330
f 247 329 249
f 247 331 330
f 331 247 245
f 331 243 332
f 243 331 245
f 332 241 333
f 241 332 243
f 333 160 334
f 160 333 241
f 334 161 335
f 161 334 160
f 335 162 336
f 162 335 161
f 336 163 337
f 163 336 162
f 337 164 338
f 164 337 163
f 164 339 338
f 339 164 165
f 339 167 340
f 167 339 165
f 167 341 340
f 341 167 168
f 341 169 342
f 169 341 168
f 169 343 342
f 343 169 170
f 171 343 170
f 343 171 344
f 172 344 171
f 344 172 345
f 173 345 172
f 345 173 346
f 256 346 173
f 346 256 347
f 255 347 256
f 347 255 348
f 254 348 255
f 348 254 349
f 349 253 350
f 253 349 254
f 253 351 350
f 351 253 252
f 351 251 352
f 251 351 252
f 251 329 352
f 329 251 249
f 353 110 108
f 110 353 354
f 106 353 108
f 353 106 355
f 356 106 104
f 106 356 355
f 357 104 102
f 104 357 356
f 99 357 102
f 357 99 358
f 46 358 99
f 358 46 359
f 2 359 46
f 359 2 360
f 4 360 2
f 360 4 361
f 5 361 4
f 361 5 362
f 6 362 5
f 362 6 363
f 7 363 6
f 363 7 364
f 8 364 7
f 364 8 365
f 366 8 10
f 8 366 365
f 367 10 11
f 10 367 366
f 12 367 11
f 367 12 368
f 369 12 13
f 12 369 368
f 369 14 370
f 14 369 13
f 370 15 371
f 15 370 14
f 371 16 372
f 16 371 15
f 372 124 373
f 124 372 16
f 373 123 374
f 123 373 124
f 374 120 375
f 120 374 123
f 112 375 120
f 375 112 376
f 354 112 110
f 112 354 376
f 377 85 83
f 85 377 378
f 379 83 80
f 83 379 377
f 380 80 78
f 80 380 379
f 77 380 78
f 380 77 381
f 75 381 77
f 381 75 382
f 74 382 75
f 382 74 383
f 27 383 74
f 383 27 384
f 23 384 27
f 384 23 385
f 19 385 23
f 385 19 386
f 18 386 19
f 386 18 387
f 388 18 17
f 18 388 387
f 389 17 29
f 17 389 388
f 30 389 29
f 389 30 390
f 391 30 31
f 30 391 390
f 392 31 32
f 31 392 391
f 393 32 33
f 32 393 392
f 393 34 394
f 34 393 33
f 394 35 395
f 35 394 34
f 395 36 396
f 36 395 35
f 396 93 397
f 93 396 36
f 397 91 398
f 91 397 93
f 398 89 399
f 89 398 91
f 400 89 87
f 89 400 399
f 85 400 87
f 400 85 378
f 401 68 67
f 68 401 402
f 403 67 66
f 67 403 401
f 404 66 54
f 66 404 403
f 55 404 54
f 404 55 405
f 55 406 405
f 406 55 56
f 56 407 406
f 407 56 60
f 60 408 407
f 408 60 64
f 64 409 408
f 409 64 95
f 95 410 409
f 410 95 96
f 96 411 410
f 411 96 98
f 412 98 81
f 98 412 411
f 413 81 82
f 81 413 412
f 414 82 84
f 82 414 413
f 86 414 84
f 414 86 415
f 416 86 88
f 86 416 415
f 417 88 90
f 88 417 416
f 417 92 418
f 92 417 90
f 418 37 419
f 37 418 92
f 419 38 420
f 38 419 37
f 420 72 421
f 72 420 38
f 421 71 422
f 71 421 72
f 422 70 423
f 70 422 71
f 424 70 69
f 70 424 423
f 68 424 69
f 424 68 402
f 21 202 142
f 202 21 22
f 22 204 202
f 204 22 24
f 204 25 205
f 25 204 24
f 25 206 205
f 206 25 26
f 206 28 208
f 28 206 26
f 216 28 73
f 28 216 208
f 144 73 76
f 73 144 216
f 425 3 126
f 3 425 1
f 1 127 9
f 127 1 425
f 287 426 427
f 426 287 288
f 426 288 428
f 428 288 289
f 429 309 430
f 309 429 308
f 308 429 428
f 308 428 307
f 307 428 289
f 307 289 290
f 307 290 305
f 305 290 291
f 305 291 306
f 306 291 292
f 306 292 328
f 328 292 293
f 328 293 327
f 327 293 326
f 326 293 294
f 326 294 325
f 325 294 295
f 325 295 324
f 324 295 296
f 324 296 323
f 323 296 297
f 323 297 322
f 322 297 298
f 322 298 321
f 321 298 299
f 131 275 129
f 275 131 274
f 274 131 273
f 273 131 272
f 272 131 271
f 271 131 270
f 270 131 133
f 270 133 269
f 269 133 268
f 268 133 267
f 267 133 266
f 266 133 265
f 265 133 264
f 264 133 263
f 263 133 283
f 263 283 284
f 263 284 285
f 263 285 431
f 431 285 432
f 432 285 433
f 433 285 434
f 434 285 435
f 435 285 286
f 435 286 436
f 436 286 437
f 437 286 438
f 438 286 287
f 438 287 439
f 439 287 427
f 283 133 282
f 282 133 281
f 281 133 304
f 304 133 303
f 303 133 302
f 302 133 301
f 301 133 300
f 300 133 299
f 129 339 135
f 339 129 338
f 338 129 337
f 337 129 336
f 336 129 335
f 335 129 334
f 334 129 275
f 135 339 340
f 135 340 341
f 135 341 342
f 135 342 343
f 135 343 344
f 135 344 345
f 135 345 346
f 135 346 313
f 313 346 312
f 312 346 311
f 311 346 440
f 311 440 441
f 311 441 442
f 311 442 443
f 311 443 310
f 310 443 444
f 310 444 445
f 310 445 446
f 310 446 309
f 309 446 447
f 309 447 430
f 135 313 314
f 135 314 315
f 135 315 316
f 135 316 317
f 135 317 318
f 135 318 319
f 135 319 320
f 135 320 321
f 135 321 299
f 135 299 133
f 276 334 275
f 334 276 333
f 333 276 277
f 333 277 332
f 332 277 278
f 332 278 331
f 331 278 279
f 331 279 330
f 330 279 280
f 330 280 329
f 329 280 258
f 329 258 352
f 352 258 351
f 351 258 257
f 351 257 350
f 350 257 259
f 350 259 349
f 349 259 260
f 349 260 348
f 348 260 261
f 348 261 448
f 348 448 347
f 347 448 449
f 347 449 346
f 346 449 440
f 262 448 261
f 448 262 450
f 450 262 263
f 450 263 431
f 451 41 42
f 41 451 452
f 453 48 47
f 48 453 454
f 45 455 44
f 455 45 456
f 100 456 45
f 456 100 457
f 41 458 39
f 458 41 452
f 458 47 39
f 47 458 453
f 43 451 42
f 451 43 459
f 44 459 43
f 459 44 455
f 460 52 51
f 52 460 461
f 462 51 50
f 51 462 460
f 463 119 53
f 119 463 464
f 465 116 118
f 116 465 466
f 461 53 52
f 53 461 463
f 466 113 116
f 113 466 467
f 101 457 100
f 457 101 468
f 469 109 111
f 109 469 470
f 103 468 101
f 468 103 471
f 105 471 103
f 471 105 472
f 473 105 107
f 105 473 472
f 109 473 107
f 473 109 470
f 113 469 111
f 469 113 467
f 464 118 119
f 118 464 465
f 49 462 50
f 462 49 474
f 454 49 48
f 49 454 474
f 408 475 476
f 475 408 409
f 475 409 410
f 475 410 382
f 382 410 381
f 381 410 411
f 381 411 380
f 380 411 412
f 380 412 379
f 379 412 413
f 379 413 377
f 377 413 414
f 377 414 378
f 378 414 415
f 378 415 400
f 400 415 416
f 400 416 399
f 399 416 417
f 399 417 398
f 398 417 418
f 398 418 397
f 397 418 419
f 397 419 396
f 126 456 425
f 456 126 455
f 455 126 459
f 459 126 451
f 451 126 452
f 452 126 458
f 458 126 125
f 425 456 360
f 360 456 359
f 458 125 453
f 453 125 454
f 454 125 474
f 474 125 462
f 462 125 460
f 460 125 461
f 461 125 463
f 463 125 404
f 463 404 405
f 463 405 406
f 463 406 477
f 477 406 478
f 478 406 479
f 479 406 480
f 480 406 407
f 480 407 481
f 481 407 482
f 482 407 483
f 483 407 408
f 483 408 484
f 484 408 485
f 485 408 476
f 404 125 403
f 403 125 401
f 401 125 402
f 402 125 424
f 424 125 423
f 423 125 422
f 422 125 421
f 421 125 420
f 425 365 127
f 365 425 364
f 364 425 363
f 363 425 362
f 362 425 361
f 361 425 360
f 127 365 366
f 127 366 367
f 127 367 368
f 127 368 369
f 127 369 370
f 127 370 371
f 127 371 372
f 127 372 388
f 388 372 387
f 387 372 386
f 386 372 486
f 486 372 487
f 386 486 488
f 386 488 489
f 386 489 490
f 386 490 385
f 385 490 491
f 385 491 492
f 385 492 493
f 385 493 384
f 384 493 494
f 384 494 495
f 127 388 389
f 127 389 390
f 127 390 391
f 127 391 392
f 127 392 393
f 127 393 394
f 127 394 395
f 127 395 396
f 127 396 419
f 127 419 420
f 127 420 125
f 496 384 495
f 384 496 383
f 383 496 475
f 383 475 382
f 456 358 359
f 358 456 457
f 358 457 468
f 358 468 357
f 357 468 471
f 357 471 356
f 356 471 472
f 356 472 355
f 355 472 473
f 355 473 353
f 353 473 470
f 353 470 354
f 354 470 469
f 354 469 376
f 376 469 467
f 376 467 375
f 375 467 466
f 375 466 374
f 374 466 465
f 374 465 373
f 373 465 497
f 373 497 487
f 373 487 372
f 464 497 465
f 497 464 498
f 498 464 463
f 498 463 477
f 499 433 434
f 433 499 500
f 499 501 500
f 501 499 488
f 488 499 489
f 500 432 433
f 432 500 501
f 502 427 503
f 427 502 439
f 494 503 495
f 503 494 502
f 503 426 504
f 426 503 427
f 495 504 496
f 504 495 503
f 505 434 435
f 434 505 499
f 490 499 505
f 499 490 489
f 506 426 428
f 426 506 504
f 496 506 475
f 506 496 504
f 438 507 437
f 507 438 508
f 508 492 507
f 492 508 493
f 507 436 437
f 436 507 509
f 492 509 507
f 509 492 491
f 502 438 439
f 438 502 508
f 494 508 502
f 508 494 493
f 509 435 436
f 435 509 505
f 509 490 505
f 490 509 491
f 440 510 441
f 510 440 511
f 510 477 478
f 477 510 511
f 431 501 512
f 501 431 432
f 512 488 486
f 488 512 501
f 450 512 513
f 512 450 431
f 513 486 487
f 486 513 512
f 448 514 449
f 514 448 515
f 514 497 498
f 497 514 515
f 450 515 448
f 515 450 513
f 515 487 497
f 487 515 513
f 449 511 440
f 511 449 514
f 511 498 477
f 498 511 514
f 441 516 442
f 516 441 510
f 510 479 516
f 479 510 478
f 444 517 445
f 517 444 518
f 518 482 517
f 482 518 481
f 446 519 447
f 519 446 520
f 520 484 519
f 484 520 483
f 519 430 447
f 430 519 521
f 485 519 484
f 519 485 521
f 516 443 442
f 443 516 522
f 479 522 516
f 522 479 480
f 521 429 430
f 429 521 523
f 476 521 485
f 521 476 523
f 523 428 429
f 428 523 506
f 475 523 476
f 523 475 506
f 522 444 443
f 444 522 518
f 480 518 522
f 518 480 481
f 517 446 445
f 446 517 520
f 517 483 520
f 483 517 482
