# barra-lat-ttp.obj (EXERSUITE3D, cm)
v 37.071 -2.620 0.900
v 26.855 2.742 0.871
v 26.801 2.515 0.900
v 37.172 -2.417 0.871
v 26.751 2.302 -0.871
v 36.881 -3.000 -0.783
v 26.701 2.090 -0.783
v 36.976 -2.811 -0.871
v 36.695 -3.371 0.226
v 26.596 1.647 -0.007
v 36.683 -3.397 -0.007
v 26.603 1.675 0.226
v 27.010 3.397 0.007
v 37.453 -1.856 -0.226
v 27.003 3.368 -0.226
v 37.465 -1.831 0.007
v 36.970 -2.822 0.868
v 26.748 2.289 0.868
v 26.948 3.136 0.641
v 37.411 -1.939 0.456
v 26.981 3.276 0.456
v 37.349 -2.065 0.641
v 26.643 1.842 -0.036
v 36.784 -3.193 -0.216
v 26.650 1.874 -0.216
v 36.770 -3.222 -0.036
v 36.799 -3.163 -0.641
v 26.658 1.908 -0.641
v 37.168 -2.427 -0.666
v 26.890 2.892 -0.588
v 26.852 2.731 -0.666
v 37.239 -2.283 -0.588
v 26.922 3.027 -0.469
v 37.300 -2.162 -0.469
v 26.754 2.312 0.666
v 36.909 -2.945 0.588
v 26.716 2.152 0.588
v 36.980 -2.801 0.666
v 36.734 -3.295 0.444
v 26.623 1.760 0.444
v 37.372 -2.019 -0.146
v 26.946 3.128 -0.319
v 37.345 -2.072 -0.319
v 26.960 3.187 -0.146
v 26.646 1.856 0.146
v 36.776 -3.209 0.146
v 37.364 -2.035 0.216
v 26.963 3.201 0.036
v 37.378 -2.006 0.036
v 26.956 3.169 0.216
v 37.329 -2.103 0.381
v 26.938 3.093 0.381
v 37.278 -2.206 0.520
v 26.911 2.978 0.520
v 36.795 -3.172 0.632
v 26.656 1.898 0.632
v 37.213 -2.337 0.623
v 26.876 2.831 0.623
v 37.138 -2.487 0.685
v 26.837 2.664 0.685
v 37.267 -2.228 0.783
v 26.905 2.953 0.783
v 36.737 -3.289 -0.456
v 36.819 -3.125 -0.381
v 36.870 -3.022 -0.520
v 36.936 -2.891 -0.623
v 37.010 -2.741 -0.685
v 37.077 -2.608 -0.900
v 37.090 -2.583 -0.699
v 37.178 -2.406 -0.868
v 37.272 -2.217 -0.776
v 37.353 -2.056 -0.632
v 37.414 -1.933 -0.444
v 37.451 -1.860 0.240
v 36.697 -3.368 -0.240
v 36.803 -3.156 0.319
v 36.876 -3.010 0.776
v 36.848 -3.066 0.469
v 37.058 -2.645 0.699
v 26.805 2.528 -0.900
v 27.002 3.365 0.240
v 26.795 2.487 0.699
v 26.730 2.212 -0.623
v 26.695 2.066 -0.520
v 26.698 2.078 0.776
v 26.684 2.016 0.469
v 26.811 2.556 -0.699
v 26.769 2.379 -0.685
v 26.668 1.950 -0.381
v 26.983 3.283 -0.444
v 26.950 3.145 -0.632
v 26.908 2.965 -0.776
v 26.858 2.755 -0.868
v 26.625 1.767 -0.456
v 26.604 1.678 -0.240
v 26.660 1.916 0.319
v -26.623 1.760 0.444
v -36.695 -3.371 0.226
v -26.603 1.675 0.226
v -36.734 -3.295 0.444
v -36.876 -3.010 0.776
v -26.748 2.289 0.868
v -36.970 -2.822 0.868
v -26.698 2.078 0.776
v -26.656 1.898 0.632
v -36.795 -3.172 0.632
v -26.801 2.515 0.900
v -37.071 -2.620 0.900
v -37.172 -2.417 0.871
v -26.905 2.953 0.783
v -37.267 -2.228 0.783
v -26.855 2.742 0.871
v -26.948 3.136 0.641
v -37.349 -2.065 0.641
v -26.981 3.276 0.456
v -37.411 -1.939 0.456
v -27.002 3.365 0.240
v -37.451 -1.860 0.240
v -37.453 -1.856 -0.226
v -26.983 3.283 -0.444
v -37.414 -1.933 -0.444
v -27.003 3.368 -0.226
v -26.837 2.664 0.685
v -37.058 -2.645 0.699
v -37.138 -2.487 0.685
v -26.795 2.487 0.699
v -36.980 -2.801 0.666
v -26.754 2.312 0.666
v -36.909 -2.945 0.588
v -26.716 2.152 0.588
v -36.848 -3.066 0.469
v -26.660 1.916 0.319
v -36.803 -3.156 0.319
v -26.684 2.016 0.469
v -26.625 1.767 -0.456
v -36.799 -3.163 -0.641
v -26.658 1.908 -0.641
v -36.737 -3.289 -0.456
v -26.646 1.856 0.146
v -36.776 -3.209 0.146
v -26.643 1.842 -0.036
v -36.770 -3.222 -0.036
v -26.650 1.874 -0.216
v -36.784 -3.193 -0.216
v -27.010 3.397 0.007
v -37.465 -1.831 0.007
v -26.668 1.950 -0.381
v -36.819 -3.125 -0.381
v -26.695 2.066 -0.520
v -36.870 -3.022 -0.520
v -26.730 2.212 -0.623
v -36.936 -2.891 -0.623
v -26.769 2.379 -0.685
v -37.010 -2.741 -0.685
v -26.811 2.556 -0.699
v -37.090 -2.583 -0.699
v -26.852 2.731 -0.666
v -37.168 -2.427 -0.666
v -26.890 2.892 -0.588
v -37.239 -2.283 -0.588
v -26.858 2.755 -0.868
v -37.077 -2.608 -0.900
v -37.178 -2.406 -0.868
v -26.805 2.528 -0.900
v -26.701 2.090 -0.783
v -36.881 -3.000 -0.783
v -26.950 3.145 -0.632
v -37.353 -2.056 -0.632
v -37.272 -2.217 -0.776
v -26.908 2.965 -0.776
v -36.976 -2.811 -0.871
v -26.751 2.302 -0.871
v -26.604 1.678 -0.240
v -36.697 -3.368 -0.240
v -26.596 1.647 -0.007
v -36.683 -3.397 -0.007
v 6.200 2.302 -0.871
v 6.200 2.090 -0.783
v -26.946 3.128 -0.319
v -37.300 -2.162 -0.469
v -26.922 3.027 -0.469
v -37.345 -2.072 -0.319
v 6.200 3.397 0.007
v 6.200 3.365 0.240
v -26.938 3.093 0.381
v -37.364 -2.035 0.216
v -26.956 3.169 0.216
v -37.329 -2.103 0.381
v 6.200 2.755 -0.868
v 6.200 2.528 -0.900
v 6.200 2.965 -0.776
v 6.200 2.664 0.685
v 6.200 2.487 0.699
v 6.200 2.078 0.776
v 6.200 1.898 0.632
v 6.200 1.916 0.319
v 6.200 2.016 0.469
v 6.200 1.647 -0.007
v 6.200 1.675 0.226
v 6.200 2.556 -0.699
v 6.200 2.379 -0.685
v 6.200 1.678 -0.240
v 6.200 1.767 -0.456
v -26.911 2.978 0.520
v -37.213 -2.337 0.623
v -37.278 -2.206 0.520
v -26.876 2.831 0.623
v 6.200 1.950 -0.381
v 6.200 1.874 -0.216
v 6.200 2.312 0.666
v 6.200 1.908 -0.641
v 6.200 3.276 0.456
v 6.200 3.136 0.641
v 6.200 2.289 0.868
v 6.200 1.760 0.444
v 6.200 2.953 0.783
v 6.200 2.742 0.871
v -37.378 -2.006 0.036
v -37.372 -2.019 -0.146
v 6.200 3.128 -0.319
v -26.960 3.187 -0.146
v 6.200 3.187 -0.146
v 6.200 2.152 0.588
v -26.963 3.201 0.036
v 6.200 3.201 0.036
v 6.200 3.368 -0.226
v 6.200 2.831 0.623
v 6.200 3.027 -0.469
v 6.200 2.731 -0.666
v 6.200 1.842 -0.036
v 6.200 1.856 0.146
v 6.200 2.212 -0.623
v 6.200 2.515 0.900
v 6.200 3.169 0.216
v 6.200 3.093 0.381
v 6.200 2.978 0.520
v 6.200 2.892 -0.588
v 6.200 3.283 -0.444
v 6.200 2.066 -0.520
v 6.200 3.145 -0.632
f 1 2 3
f 2 1 4
f 5 6 7
f 6 5 8
f 9 10 11
f 10 9 12
f 13 14 15
f 14 13 16
f 17 3 18
f 3 17 1
f 19 20 21
f 20 19 22
f 23 24 25
f 24 23 26
f 7 27 28
f 27 7 6
f 29 30 31
f 30 29 32
f 32 33 30
f 33 32 34
f 35 36 37
f 36 35 38
f 39 12 9
f 12 39 40
f 41 42 43
f 42 41 44
f 45 26 23
f 26 45 46
f 47 48 49
f 48 47 50
f 51 50 47
f 50 51 52
f 53 52 51
f 52 53 54
f 55 40 39
f 40 55 56
f 54 57 58
f 57 54 53
f 58 59 60
f 59 58 57
f 61 19 62
f 19 61 22
f 27 26 63
f 26 27 24
f 24 27 64
f 64 27 6
f 64 6 65
f 65 6 66
f 66 6 8
f 66 8 67
f 67 8 68
f 67 68 69
f 69 68 70
f 69 70 29
f 29 70 32
f 32 70 71
f 32 71 34
f 34 71 72
f 34 72 43
f 43 72 41
f 41 72 73
f 41 73 49
f 49 73 20
f 20 73 74
f 74 73 14
f 74 14 16
f 75 9 11
f 9 75 39
f 39 75 63
f 39 63 55
f 55 63 46
f 46 63 26
f 55 46 76
f 55 76 77
f 77 76 78
f 77 78 36
f 77 36 17
f 17 36 38
f 17 38 1
f 1 38 79
f 1 79 59
f 1 59 4
f 4 59 57
f 4 57 61
f 61 57 53
f 61 53 22
f 22 53 51
f 22 51 47
f 22 47 20
f 20 47 49
f 4 62 2
f 62 4 61
f 80 8 5
f 8 80 68
f 21 74 81
f 74 21 20
f 82 38 35
f 38 82 79
f 65 83 84
f 83 65 66
f 81 16 13
f 16 81 74
f 77 18 85
f 18 77 17
f 60 79 82
f 79 60 59
f 37 78 86
f 78 37 36
f 67 87 88
f 87 67 69
f 25 64 89
f 64 25 24
f 49 44 41
f 44 49 48
f 90 72 91
f 72 90 73
f 91 71 92
f 71 91 72
f 93 68 80
f 68 93 70
f 55 85 56
f 85 55 77
f 15 73 90
f 73 15 14
f 75 94 63
f 94 75 95
f 86 76 96
f 76 86 78
f 66 88 83
f 88 66 67
f 69 31 87
f 31 69 29
f 96 46 45
f 46 96 76
f 43 33 34
f 33 43 42
f 89 65 84
f 65 89 64
f 92 70 93
f 70 92 71
f 63 28 27
f 28 63 94
f 11 95 75
f 95 11 10
f 97 98 99
f 98 97 100
f 101 102 103
f 102 101 104
f 105 100 97
f 100 105 106
f 103 107 108
f 107 103 102
f 109 110 111
f 110 109 112
f 108 112 109
f 112 108 107
f 111 113 114
f 113 111 110
f 114 115 116
f 115 114 113
f 116 117 118
f 117 116 115
f 119 120 121
f 120 119 122
f 123 124 125
f 124 123 126
f 126 127 124
f 127 126 128
f 106 104 101
f 104 106 105
f 128 129 127
f 129 128 130
f 131 132 133
f 132 131 134
f 135 136 137
f 136 135 138
f 133 139 140
f 139 133 132
f 140 141 142
f 141 140 139
f 142 143 144
f 143 142 141
f 118 145 146
f 145 118 117
f 144 147 148
f 147 144 143
f 148 149 150
f 149 148 147
f 130 131 129
f 131 130 134
f 150 151 152
f 151 150 149
f 152 153 154
f 153 152 151
f 154 155 156
f 155 154 153
f 156 157 158
f 157 156 155
f 158 159 160
f 159 158 157
f 161 162 163
f 162 161 164
f 165 136 166
f 136 165 137
f 121 167 168
f 167 121 120
f 146 122 119
f 122 146 145
f 167 169 168
f 169 167 170
f 164 171 162
f 171 164 172
f 170 163 169
f 163 170 161
f 172 166 171
f 166 172 165
f 173 138 135
f 138 173 174
f 175 174 173
f 174 175 176
f 99 176 175
f 176 99 98
f 177 165 172
f 165 177 178
f 178 177 5
f 178 5 7
f 179 180 181
f 180 179 182
f 117 183 145
f 183 117 13
f 13 117 81
f 81 117 184
f 185 186 187
f 186 185 188
f 189 164 161
f 164 189 190
f 190 189 93
f 190 93 80
f 191 161 170
f 161 191 189
f 189 191 92
f 189 92 93
f 192 126 123
f 126 192 193
f 193 192 60
f 193 60 82
f 105 194 104
f 194 105 195
f 194 195 56
f 194 56 85
f 134 196 132
f 196 134 96
f 96 134 86
f 86 134 197
f 12 198 10
f 198 12 175
f 175 12 99
f 99 12 199
f 153 200 155
f 200 153 201
f 200 201 88
f 200 88 87
f 10 202 95
f 202 10 173
f 173 10 175
f 175 10 198
f 95 203 94
f 203 95 135
f 135 95 173
f 173 95 202
f 204 205 206
f 205 204 207
f 143 208 147
f 208 143 89
f 89 143 25
f 25 143 209
f 193 128 126
f 128 193 210
f 210 193 82
f 210 82 35
f 178 137 165
f 137 178 211
f 211 178 7
f 211 7 28
f 113 212 115
f 212 113 21
f 21 113 19
f 19 113 213
f 104 214 102
f 214 104 194
f 214 194 85
f 214 85 18
f 40 199 12
f 199 40 99
f 99 40 97
f 97 40 215
f 112 216 110
f 216 112 217
f 216 217 2
f 216 2 62
f 98 174 176
f 174 98 100
f 174 100 138
f 138 100 106
f 138 106 140
f 138 140 142
f 140 106 133
f 133 106 101
f 133 101 131
f 131 101 129
f 129 101 103
f 129 103 127
f 127 103 108
f 127 108 124
f 124 108 125
f 125 108 109
f 125 109 205
f 205 109 111
f 205 111 206
f 206 111 114
f 206 114 188
f 188 114 186
f 186 114 116
f 186 116 218
f 142 136 138
f 136 142 144
f 136 144 148
f 136 148 166
f 166 148 150
f 166 150 152
f 166 152 171
f 171 152 154
f 171 154 162
f 162 154 156
f 162 156 163
f 163 156 158
f 163 158 160
f 163 160 169
f 169 160 180
f 169 180 168
f 168 180 182
f 168 182 219
f 168 219 121
f 121 219 218
f 121 218 116
f 121 116 118
f 121 118 119
f 119 118 146
f 44 220 42
f 220 44 179
f 179 44 221
f 221 44 222
f 210 130 128
f 130 210 223
f 223 210 35
f 223 35 37
f 48 222 44
f 222 48 221
f 221 48 224
f 224 48 225
f 110 213 113
f 213 110 216
f 213 216 62
f 213 62 19
f 145 226 122
f 226 145 15
f 15 145 13
f 13 145 183
f 160 181 180
f 181 160 159
f 190 172 164
f 172 190 177
f 177 190 80
f 177 80 5
f 227 123 207
f 123 227 192
f 192 227 58
f 192 58 60
f 42 228 33
f 228 42 181
f 181 42 179
f 179 42 220
f 155 229 157
f 229 155 200
f 229 200 87
f 229 87 31
f 139 230 141
f 230 139 23
f 23 139 45
f 45 139 231
f 187 218 224
f 218 187 186
f 94 211 28
f 211 94 137
f 137 94 135
f 135 94 203
f 151 201 153
f 201 151 232
f 201 232 83
f 201 83 88
f 221 182 179
f 182 221 219
f 132 231 139
f 231 132 45
f 45 132 96
f 96 132 196
f 102 233 107
f 233 102 214
f 233 214 18
f 233 18 3
f 50 225 48
f 225 50 224
f 224 50 187
f 187 50 234
f 52 234 50
f 234 52 187
f 187 52 185
f 185 52 235
f 54 235 52
f 235 54 185
f 185 54 204
f 204 54 236
f 236 207 204
f 207 236 227
f 227 236 54
f 227 54 58
f 159 228 181
f 228 159 237
f 228 237 30
f 228 30 33
f 141 209 143
f 209 141 25
f 25 141 23
f 23 141 230
f 204 188 185
f 188 204 206
f 207 125 205
f 125 207 123
f 107 217 112
f 217 107 233
f 217 233 3
f 217 3 2
f 115 184 117
f 184 115 81
f 81 115 21
f 21 115 212
f 223 134 130
f 134 223 197
f 197 223 37
f 197 37 86
f 122 238 120
f 238 122 90
f 90 122 15
f 15 122 226
f 149 232 151
f 232 149 239
f 232 239 84
f 232 84 83
f 224 219 221
f 219 224 218
f 157 237 159
f 237 157 229
f 237 229 31
f 237 31 30
f 147 239 149
f 239 147 84
f 84 147 89
f 89 147 208
f 120 240 167
f 240 120 91
f 91 120 90
f 90 120 238
f 56 215 40
f 215 56 97
f 97 56 105
f 105 56 195
f 240 170 167
f 170 240 191
f 191 240 91
f 191 91 92
