o barra-olimpica
v 0.720 -70.006 -2.394
v 0.076 -110.000 -2.498
v 0.076 -70.006 -2.498
v 0.720 -110.000 -2.394
v -0.573 -110.000 -2.433
v -0.573 -70.006 -2.433
v 1.820 -70.006 -1.713
v 2.202 -110.000 -1.184
v 1.820 -110.000 -1.713
v 2.202 -70.006 -1.184
v -2.126 -70.006 -1.315
v -1.713 -110.000 -1.820
v -2.126 -110.000 -1.315
v -1.713 -70.006 -1.820
v 1.315 -110.000 -2.126
v 1.315 -70.006 -2.126
v -2.394 -70.006 -0.720
v -2.394 -110.000 -0.720
v -1.184 -110.000 -2.202
v -1.184 -70.006 -2.202
v 2.433 -110.000 -0.573
v 2.433 -70.006 -0.573
v 0.068 -110.000 -2.231
v 0.643 -110.000 -2.137
v 1.174 -110.000 -1.898
v 1.625 -110.000 -1.530
v 1.966 -110.000 -1.057
v 2.172 -110.000 -0.512
v 2.498 -110.000 0.076
v 2.231 -110.000 0.068
v 2.137 -110.000 0.643
v 2.394 -110.000 0.720
v 1.898 -110.000 1.174
v 2.126 -110.000 1.315
v 1.530 -110.000 1.625
v 1.713 -110.000 1.820
v 1.057 -110.000 1.966
v 1.184 -110.000 2.202
v 0.512 -110.000 2.172
v -0.068 -110.000 2.231
v 0.573 -110.000 2.433
v -0.720 -110.000 2.394
v -0.076 -110.000 2.498
v -0.512 -110.000 -2.172
v -1.057 -110.000 -1.966
v -1.530 -110.000 -1.625
v -1.898 -110.000 -1.174
v -2.137 -110.000 -0.643
v -2.498 -110.000 -0.076
v -2.231 -110.000 -0.068
v -2.433 -110.000 0.573
v -2.172 -110.000 0.512
v -1.966 -110.000 1.057
v -2.202 -110.000 1.184
v -1.625 -110.000 1.530
v -1.820 -110.000 1.713
v -1.174 -110.000 1.898
v -1.315 -110.000 2.126
v -0.643 -110.000 2.137
v -0.486 109.800 -2.061
v 0.610 109.800 -2.028
v 0.064 109.800 -2.116
v -1.003 109.800 -1.865
v 1.114 109.800 -1.801
v -1.451 109.800 -1.542
v 1.542 109.800 -1.451
v -1.801 109.800 -1.114
v 1.865 109.800 -1.003
v -2.028 109.800 -0.610
v 2.061 109.800 -0.486
v -2.116 109.800 -0.064
v 2.116 109.800 0.064
v -2.061 109.800 0.486
v 2.028 109.800 0.610
v -1.865 109.800 1.003
v 1.801 109.800 1.114
v -1.542 109.800 1.451
v 1.451 109.800 1.542
v -1.114 109.800 1.801
v 1.003 109.800 1.865
v -0.610 109.800 2.028
v 0.486 109.800 2.061
v -0.064 109.800 2.116
v 1.153 70.006 2.145
v 0.558 110.000 2.370
v 0.558 70.006 2.370
v 1.153 110.000 2.145
v -1.114 110.000 1.801
v -1.542 110.000 1.451
v -2.145 110.000 1.153
v -2.370 70.006 0.558
v -2.145 70.006 1.153
v -2.370 110.000 0.558
v -1.773 110.000 1.669
v -1.773 70.006 1.669
v -1.801 110.000 -1.114
v -2.028 110.000 -0.610
v -0.064 110.000 2.116
v -0.610 110.000 2.028
v 2.116 110.000 0.064
v 2.061 110.000 -0.486
v -1.865 110.000 1.003
v -0.558 110.000 -2.370
v -1.153 70.006 -2.145
v -1.153 110.000 -2.145
v -0.558 70.006 -2.370
v 0.074 110.000 -2.434
v 0.074 70.006 -2.434
v 1.003 110.000 1.865
v 0.486 110.000 2.061
v 1.451 110.000 1.542
v -0.074 110.000 2.434
v -0.074 70.006 2.434
v 1.669 70.006 1.773
v 1.669 110.000 1.773
v 2.145 110.000 -1.153
v 2.370 70.006 -0.558
v 2.145 70.006 -1.153
v 2.370 110.000 -0.558
v 1.801 110.000 1.114
v 2.028 110.000 0.610
v -2.061 110.000 0.486
v 1.865 110.000 -1.003
v 1.542 110.000 -1.451
v 1.114 110.000 -1.801
v -1.281 70.006 2.071
v -1.281 110.000 2.071
v -0.701 70.006 2.332
v -0.701 110.000 2.332
v -2.116 110.000 -0.064
v 0.064 110.000 -2.116
v 0.610 110.000 -2.028
v 2.071 110.000 1.281
v 2.071 70.006 1.281
v -0.486 110.000 -2.061
v -1.003 110.000 -1.865
v -1.451 110.000 -1.542
v 2.332 110.000 0.701
v 2.332 70.006 0.701
v 2.434 110.000 0.074
v 2.434 70.006 0.074
v 1.773 110.000 -1.669
v 1.773 70.006 -1.669
v 1.281 70.006 -2.071
v 1.281 110.000 -2.071
v 0.701 110.000 -2.332
v 0.701 70.006 -2.332
v -0.643 -109.800 2.137
v -1.174 -109.800 1.898
v 2.172 -109.800 -0.512
v 1.966 -109.800 -1.057
v 0.643 -109.800 -2.137
v 1.174 -109.800 -1.898
v -0.512 -109.800 -2.172
v 0.068 -109.800 -2.231
v 1.057 -109.800 1.966
v 0.512 -109.800 2.172
v -1.898 -109.800 -1.174
v -2.137 -109.800 -0.643
v 1.898 -109.800 1.174
v 2.137 -109.800 0.643
v 2.231 -109.800 0.068
v -0.068 -109.800 2.231
v -1.530 -109.800 -1.625
v -1.057 -109.800 -1.966
v -2.172 -109.800 0.512
v -1.966 -109.800 1.057
v -1.625 -109.800 1.530
v -2.231 -109.800 -0.068
v 1.625 -109.800 -1.530
v 1.530 -109.800 1.625
v 1.000 -69.006 -3.326
v 0.105 -70.006 -3.471
v 0.105 -69.006 -3.471
v 1.000 -70.006 -3.326
v -3.326 -69.006 -1.000
v -2.954 -70.006 -1.827
v -3.326 -70.006 -1.000
v -2.954 -69.006 -1.827
v 1.827 -69.006 -2.954
v 1.827 -70.006 -2.954
v -2.380 -70.006 -2.529
v -2.380 -69.006 -2.529
v -0.797 -69.006 -3.380
v -1.644 -70.006 -3.059
v -1.644 -69.006 -3.059
v -0.797 -70.006 -3.380
v 2.529 -69.006 -2.380
v 2.529 -70.006 -2.380
v 2.498 -70.006 0.076
v 2.394 -70.006 0.720
v 3.059 -70.006 -1.644
v 3.380 -70.006 -0.797
v 3.471 -70.006 0.105
v 3.326 -70.006 1.000
v 2.126 -70.006 1.315
v 2.954 -70.006 1.827
v 1.713 -70.006 1.820
v 1.184 -70.006 2.202
v 2.380 -70.006 2.529
v 0.573 -70.006 2.433
v -0.076 -70.006 2.498
v -3.471 -70.006 -0.105
v -2.498 -70.006 -0.076
v -3.380 -70.006 0.797
v -2.433 -70.006 0.573
v -2.202 -70.006 1.184
v -3.059 -70.006 1.644
v -1.820 -70.006 1.713
v -2.529 -70.006 2.380
v -1.315 -70.006 2.126
v -0.720 -70.006 2.394
v -1.827 -70.006 2.954
v 1.644 -70.006 3.059
v -1.000 -70.006 3.326
v 0.797 -70.006 3.380
v -0.105 -70.006 3.471
v 3.059 -69.006 -1.644
v 0.043 -69.006 -1.426
v -0.327 -69.006 -1.389
v -0.675 -69.006 -1.257
v -0.978 -69.006 -1.039
v -1.213 -69.006 -0.751
v -3.471 -69.006 -0.105
v -1.366 -69.006 -0.411
v -1.426 -69.006 -0.043
v -3.380 -69.006 0.797
v -1.389 -69.006 0.327
v -1.257 -69.006 0.675
v -1.039 -69.006 0.978
v -3.059 -69.006 1.644
v -0.751 -69.006 1.213
v -0.411 -69.006 1.366
v -0.043 -69.006 1.426
v 0.411 -69.006 -1.366
v 3.380 -69.006 -0.797
v 0.751 -69.006 -1.213
v 1.039 -69.006 -0.978
v 1.257 -69.006 -0.675
v 3.471 -69.006 0.105
v 1.389 -69.006 -0.327
v 1.426 -69.006 0.043
v 1.366 -69.006 0.411
v 3.326 -69.006 1.000
v 1.213 -69.006 0.751
v 0.978 -69.006 1.039
v 2.954 -69.006 1.827
v 0.675 -69.006 1.257
v 0.327 -69.006 1.389
v -2.529 -69.006 2.380
v 2.380 -69.006 2.529
v -1.827 -69.006 2.954
v 1.644 -69.006 3.059
v -1.000 -69.006 3.326
v 0.797 -69.006 3.380
v -0.105 -69.006 3.471
v -1.426 69.006 -0.043
v -1.366 69.006 -0.411
v 2.983 70.006 -1.603
v 3.296 69.006 -0.777
v 2.983 69.006 -1.603
v 3.296 70.006 -0.777
v 3.385 69.006 0.103
v 3.385 70.006 0.103
v -1.257 69.006 0.675
v -1.389 69.006 0.327
v -1.603 70.006 -2.983
v -2.321 69.006 -2.466
v -2.321 70.006 -2.466
v -1.603 69.006 -2.983
v -2.880 70.006 -1.781
v -2.880 69.006 -1.781
v -3.243 70.006 -0.975
v -3.243 69.006 -0.975
v -0.411 69.006 1.366
v -0.043 69.006 1.426
v 1.389 69.006 -0.327
v 1.426 69.006 0.043
v 0.411 69.006 -1.366
v 0.043 69.006 -1.426
v -1.669 70.006 -1.773
v -2.071 70.006 -1.281
v -2.332 70.006 -0.701
v -3.385 70.006 -0.103
v -2.434 70.006 -0.074
v -3.296 70.006 0.777
v -2.983 70.006 1.603
v -2.466 70.006 2.321
v -1.781 70.006 2.880
v 2.321 70.006 2.466
v 1.603 70.006 2.983
v -0.975 70.006 3.243
v 0.777 70.006 3.296
v -0.103 70.006 3.385
v -0.777 70.006 -3.296
v 0.975 70.006 -3.243
v 0.103 70.006 -3.385
v 1.781 70.006 -2.880
v 2.466 70.006 -2.321
v 3.243 70.006 0.975
v 2.880 70.006 1.781
v -1.213 69.006 -0.751
v -0.751 69.006 1.213
v -0.103 69.006 3.385
v -0.975 69.006 3.243
v 1.257 69.006 -0.675
v 1.039 69.006 -0.978
v 0.751 69.006 -1.213
v 0.777 69.006 3.296
v 2.321 69.006 2.466
v 2.880 69.006 1.781
v 3.243 69.006 0.975
v 2.466 69.006 -2.321
v 1.603 69.006 2.983
v 0.103 69.006 -3.385
v 0.975 69.006 -3.243
v -0.777 69.006 -3.296
v -0.327 69.006 -1.389
v 1.781 69.006 -2.880
v -0.978 69.006 -1.039
v -1.039 69.006 0.978
v -0.675 69.006 -1.257
v 1.366 69.006 0.411
v 1.213 69.006 0.751
v 0.978 69.006 1.039
v 0.675 69.006 1.257
v 0.327 69.006 1.389
v -2.983 69.006 1.603
v -2.466 69.006 2.321
v -1.781 69.006 2.880
v -3.385 69.006 -0.103
v -3.296 69.006 0.777
v -2.332 110.000 -0.701
v -2.071 110.000 -1.281
v -2.434 110.000 -0.074
v -1.669 110.000 -1.773
f 1 2 3
f 2 1 4
f 3 5 6
f 5 3 2
f 7 8 9
f 8 7 10
f 11 12 13
f 12 11 14
f 7 15 16
f 15 7 9
f 16 4 1
f 4 16 15
f 17 13 18
f 13 17 11
f 6 19 20
f 19 6 5
f 20 12 14
f 12 20 19
f 10 21 8
f 21 10 22
f 15 23 4
f 23 15 24
f 24 15 25
f 25 15 9
f 25 9 26
f 26 9 8
f 26 8 27
f 27 8 21
f 27 21 28
f 28 21 29
f 28 29 30
f 30 29 31
f 31 29 32
f 31 32 33
f 33 32 34
f 33 34 35
f 35 34 36
f 35 36 37
f 37 36 38
f 37 38 39
f 39 38 40
f 40 38 41
f 40 41 42
f 42 41 43
f 4 5 2
f 5 4 19
f 19 4 23
f 19 23 44
f 19 44 12
f 12 44 45
f 12 45 46
f 12 46 13
f 13 46 47
f 13 47 18
f 18 47 48
f 18 48 49
f 49 48 50
f 49 50 51
f 51 50 52
f 51 52 53
f 51 53 54
f 54 53 55
f 54 55 56
f 56 55 57
f 56 57 58
f 58 57 59
f 58 59 42
f 42 59 40
f 60 61 62
f 61 60 63
f 61 63 64
f 64 63 65
f 64 65 66
f 66 65 67
f 66 67 68
f 68 67 69
f 68 69 70
f 70 69 71
f 70 71 72
f 72 71 73
f 72 73 74
f 74 73 75
f 74 75 76
f 76 75 77
f 76 77 78
f 78 77 79
f 78 79 80
f 80 79 81
f 80 81 82
f 82 81 83
f 84 85 86
f 85 84 87
f 88 77 89
f 77 88 79
f 90 91 92
f 91 90 93
f 94 92 95
f 92 94 90
f 96 69 67
f 69 96 97
f 98 81 99
f 81 98 83
f 100 70 72
f 70 100 101
f 102 77 75
f 77 102 89
f 103 104 105
f 104 103 106
f 107 106 103
f 106 107 108
f 109 82 110
f 82 109 80
f 111 80 109
f 80 111 78
f 86 112 113
f 112 86 85
f 114 87 84
f 87 114 115
f 116 117 118
f 117 116 119
f 120 74 76
f 74 120 121
f 122 75 73
f 75 122 102
f 121 72 74
f 72 121 100
f 111 76 78
f 76 111 120
f 101 68 70
f 68 101 123
f 123 66 68
f 66 123 124
f 66 125 64
f 125 66 124
f 126 94 95
f 94 126 127
f 128 127 126
f 127 128 129
f 97 71 69
f 71 97 130
f 110 83 98
f 83 110 82
f 61 131 62
f 131 61 132
f 99 79 88
f 79 99 81
f 133 114 134
f 114 133 115
f 64 132 61
f 132 64 125
f 62 135 60
f 135 62 131
f 60 136 63
f 136 60 135
f 130 73 71
f 73 130 122
f 63 137 65
f 137 63 136
f 138 134 139
f 134 138 133
f 140 139 141
f 139 140 138
f 119 141 117
f 141 119 140
f 142 118 143
f 118 142 116
f 142 144 145
f 144 142 143
f 146 108 107
f 108 146 147
f 145 147 146
f 147 145 144
f 113 129 128
f 129 113 112
f 148 57 149
f 57 148 59
f 150 27 28
f 27 150 151
f 25 152 24
f 152 25 153
f 23 154 44
f 154 23 155
f 156 39 157
f 39 156 37
f 158 48 47
f 48 158 159
f 160 31 33
f 31 160 161
f 161 30 31
f 30 161 162
f 157 40 163
f 40 157 39
f 45 164 46
f 164 45 165
f 166 53 52
f 53 166 167
f 137 67 65
f 67 137 96
f 149 55 168
f 55 149 57
f 169 52 50
f 52 169 166
f 152 154 155
f 154 152 165
f 165 152 153
f 165 153 164
f 164 153 170
f 164 170 158
f 158 170 151
f 158 151 159
f 159 151 150
f 159 150 169
f 169 150 162
f 169 162 166
f 166 162 161
f 166 161 167
f 167 161 160
f 167 160 168
f 168 160 171
f 168 171 149
f 149 171 156
f 149 156 148
f 148 156 157
f 148 157 163
f 164 47 46
f 47 164 158
f 44 165 45
f 165 44 154
f 151 26 27
f 26 151 170
f 171 33 35
f 33 171 160
f 162 28 30
f 28 162 150
f 167 55 53
f 55 167 168
f 171 37 156
f 37 171 35
f 26 153 25
f 153 26 170
f 159 50 48
f 50 159 169
f 24 155 23
f 155 24 152
f 163 59 148
f 59 163 40
f 172 173 174
f 173 172 175
f 176 177 178
f 177 176 179
f 180 175 172
f 175 180 181
f 179 182 177
f 182 179 183
f 184 185 186
f 185 184 187
f 174 187 184
f 187 174 173
f 188 181 180
f 181 188 189
f 186 182 183
f 182 186 185
f 190 32 29
f 32 190 191
f 22 29 21
f 29 22 190
f 175 187 173
f 187 175 185
f 185 175 181
f 185 181 182
f 182 181 3
f 3 181 189
f 3 189 1
f 1 189 16
f 16 189 192
f 16 192 7
f 7 192 10
f 10 192 193
f 10 193 22
f 22 193 194
f 22 194 190
f 190 194 191
f 191 194 195
f 191 195 196
f 196 195 197
f 196 197 198
f 198 197 199
f 199 197 200
f 199 200 201
f 201 200 202
f 182 6 177
f 6 182 3
f 177 6 20
f 177 20 14
f 177 14 178
f 178 14 11
f 178 11 17
f 178 17 203
f 203 17 204
f 203 204 205
f 205 204 206
f 205 206 207
f 205 207 208
f 208 207 209
f 208 209 210
f 210 209 211
f 210 211 212
f 210 212 213
f 213 212 202
f 213 202 200
f 213 200 214
f 213 214 215
f 215 214 216
f 215 216 217
f 184 172 174
f 172 184 186
f 172 186 180
f 180 186 183
f 180 183 188
f 188 183 179
f 188 179 218
f 218 179 219
f 219 179 220
f 220 179 176
f 220 176 221
f 221 176 222
f 222 176 223
f 223 176 224
f 223 224 225
f 225 224 226
f 226 224 227
f 226 227 228
f 228 227 229
f 229 227 230
f 230 227 231
f 230 231 232
f 232 231 233
f 233 231 234
f 218 235 236
f 235 218 219
f 236 235 237
f 236 237 238
f 236 238 239
f 236 239 240
f 240 239 241
f 240 241 242
f 240 242 243
f 240 243 244
f 244 243 245
f 244 245 246
f 244 246 247
f 247 246 248
f 247 248 249
f 247 249 234
f 247 234 231
f 247 231 250
f 247 250 251
f 251 250 252
f 251 252 253
f 253 252 254
f 253 254 255
f 255 254 256
f 191 34 32
f 34 191 196
f 227 203 205
f 203 227 224
f 213 250 210
f 250 213 252
f 224 178 203
f 178 224 176
f 231 205 208
f 205 231 227
f 250 208 210
f 208 250 231
f 257 225 226
f 225 257 258
f 259 260 261
f 260 259 262
f 262 263 260
f 263 262 264
f 265 228 229
f 228 265 266
f 267 268 269
f 268 267 270
f 271 268 272
f 268 271 269
f 273 272 274
f 272 273 271
f 266 226 228
f 226 266 257
f 234 275 233
f 275 234 276
f 277 242 241
f 242 277 278
f 279 219 280
f 219 279 235
f 269 106 108
f 106 269 271
f 106 271 104
f 104 271 281
f 281 271 273
f 281 273 282
f 282 273 283
f 283 273 284
f 283 284 285
f 285 284 286
f 285 286 91
f 91 286 92
f 92 286 287
f 92 287 95
f 95 287 288
f 95 288 126
f 126 288 128
f 128 288 289
f 128 289 113
f 113 289 290
f 290 289 291
f 291 289 292
f 291 292 293
f 293 292 294
f 295 296 297
f 296 295 267
f 296 267 298
f 298 267 269
f 298 269 108
f 298 108 299
f 299 108 147
f 299 147 144
f 299 144 259
f 259 144 143
f 259 143 118
f 259 118 262
f 262 118 117
f 262 117 264
f 264 117 141
f 264 141 139
f 264 139 300
f 300 139 134
f 300 134 301
f 301 134 114
f 301 114 84
f 301 84 290
f 290 84 86
f 290 86 113
f 258 223 225
f 223 258 302
f 233 303 232
f 303 233 275
f 304 292 305
f 292 304 294
f 306 241 239
f 241 306 277
f 307 237 308
f 237 307 238
f 309 294 304
f 294 309 293
f 301 310 311
f 310 301 290
f 300 311 312
f 311 300 301
f 299 261 313
f 261 299 259
f 310 291 314
f 291 310 290
f 264 312 263
f 312 264 300
f 296 315 297
f 315 296 316
f 307 239 238
f 239 307 306
f 297 317 295
f 317 297 315
f 280 220 318
f 220 280 219
f 299 319 298
f 319 299 313
f 302 222 223
f 222 302 320
f 321 229 230
f 229 321 265
f 322 222 320
f 222 322 221
f 314 293 309
f 293 314 291
f 308 235 279
f 235 308 237
f 323 245 243
f 245 323 324
f 261 279 280
f 279 261 260
f 279 260 308
f 308 260 307
f 307 260 306
f 306 260 263
f 306 263 277
f 277 263 278
f 278 263 323
f 323 263 312
f 323 312 324
f 324 312 325
f 325 312 311
f 325 311 326
f 326 311 327
f 327 311 276
f 276 311 328
f 328 311 329
f 329 311 310
f 329 310 330
f 330 310 314
f 330 314 305
f 305 314 309
f 305 309 304
f 316 317 315
f 317 316 270
f 270 316 319
f 270 319 268
f 268 319 313
f 268 313 272
f 272 313 261
f 272 261 280
f 272 280 318
f 272 318 274
f 274 318 322
f 274 322 320
f 274 320 302
f 274 302 331
f 331 302 258
f 331 258 257
f 331 257 332
f 332 257 266
f 332 266 265
f 332 265 321
f 332 321 328
f 328 321 303
f 328 303 275
f 328 275 276
f 324 246 245
f 246 324 325
f 298 316 296
f 316 298 319
f 295 270 267
f 270 295 317
f 246 326 248
f 326 246 325
f 318 221 322
f 221 318 220
f 248 327 249
f 327 248 326
f 249 276 234
f 276 249 327
f 232 321 230
f 321 232 303
f 278 243 242
f 243 278 323
f 284 274 331
f 274 284 273
f 286 331 332
f 331 286 284
f 333 282 283
f 282 333 334
f 335 283 285
f 283 335 333
f 305 289 330
f 289 305 292
f 105 135 131
f 135 105 336
f 135 336 136
f 136 336 137
f 137 336 334
f 137 334 96
f 96 334 333
f 96 333 97
f 97 333 335
f 97 335 130
f 130 335 93
f 130 93 122
f 122 93 102
f 102 93 90
f 102 90 89
f 89 90 94
f 89 94 88
f 88 94 127
f 88 127 99
f 99 127 98
f 98 127 129
f 98 129 87
f 87 129 85
f 85 129 112
f 103 146 107
f 146 103 105
f 146 105 131
f 146 131 145
f 145 131 132
f 145 132 142
f 142 132 125
f 142 125 124
f 142 124 116
f 116 124 123
f 116 123 119
f 119 123 101
f 119 101 140
f 140 101 100
f 140 100 121
f 140 121 138
f 138 121 120
f 138 120 133
f 133 120 111
f 133 111 115
f 115 111 109
f 115 109 87
f 87 109 110
f 87 110 98
f 105 281 336
f 281 105 104
f 334 281 282
f 281 334 336
f 287 332 328
f 332 287 286
f 288 328 329
f 328 288 287
f 330 288 329
f 288 330 289
f 93 285 91
f 285 93 335
f 206 49 51
f 49 206 204
f 209 54 56
f 54 209 207
f 41 202 43
f 202 41 201
f 38 201 41
f 201 38 199
f 207 51 54
f 51 207 206
f 204 18 49
f 18 204 17
f 36 199 38
f 199 36 198
f 42 211 58
f 211 42 212
f 58 209 56
f 209 58 211
f 196 36 34
f 36 196 198
f 43 212 42
f 212 43 202
f 244 197 195
f 197 244 247
f 214 255 216
f 255 214 253
f 247 200 197
f 200 247 251
f 218 193 192
f 193 218 236
f 200 253 214
f 253 200 251
f 236 194 193
f 194 236 240
f 215 252 213
f 252 215 254
f 240 195 194
f 195 240 244
f 217 254 215
f 254 217 256
f 188 192 189
f 192 188 218
f 216 256 217
f 256 216 255
