# riel-discos-ttp.obj (EXERSUITE3D, cm)
v -4.054 -8.000 -46.486
v -1.503 -4.357 -46.486
v -4.054 8.000 -46.486
v -1.348 -4.729 -46.486
v -1.103 -5.049 -46.486
v -0.783 -5.294 -46.486
v 4.032 -8.000 -46.486
v -1.555 -3.957 -46.486
v -0.411 -5.448 -46.486
v -0.011 -5.501 -46.486
v 0.389 -5.448 -46.486
v 0.761 -5.294 -46.486
v 1.081 -5.049 -46.486
v 1.326 -4.729 -46.486
v 1.480 -4.357 -46.486
v 1.533 -3.957 -46.486
v 1.533 -0.676 -46.486
v 1.533 7.410 -46.486
v -1.555 7.410 -46.486
v 4.032 8.000 -46.486
v -1.555 -0.676 -46.486
v -1.503 -3.557 -46.486
v -1.348 -3.185 -46.486
v -1.103 -2.865 -46.486
v -0.783 -2.620 -46.486
v -0.411 -2.465 -46.486
v -0.011 -2.413 -46.486
v 0.389 -2.465 -46.486
v 0.761 -2.620 -46.486
v 1.081 -2.865 -46.486
v 1.326 -3.185 -46.486
v 1.480 -3.557 -46.486
v 3.487 12.000 -47.031
v 3.487 -12.000 -52.031
v 3.487 -12.000 -47.031
v 3.487 12.000 -52.031
v -4.054 -8.000 -52.576
v -4.054 8.000 -52.576
v 4.515 -8.000 -53.058
v 4.515 -12.000 -46.004
v 4.515 -12.000 -53.058
v 4.515 -8.000 -46.004
v -4.537 -12.000 -53.058
v -3.509 -12.000 -47.031
v -3.509 -12.000 -52.031
v -4.537 -12.000 -46.004
v -4.537 -8.000 -46.004
v -4.537 -8.000 -53.058
v -3.509 12.000 -52.031
v -3.509 12.000 -47.031
v 4.032 8.000 -52.576
v 4.032 -8.000 -52.576
v 4.515 8.000 -46.004
v -4.537 12.000 -46.004
v -4.537 8.000 -46.004
v 4.515 12.000 -46.004
v -4.537 8.000 -53.058
v -4.537 12.000 -53.058
v 4.515 12.000 -53.058
v 4.515 8.000 -53.058
v -2.180 -2.705 -42.486
v -2.430 -3.309 -43.986
v -2.430 -3.309 -42.486
v -2.180 -2.705 -43.986
v -2.516 -3.957 -42.486
v -2.430 -4.605 -43.986
v -2.430 -4.605 -42.486
v -2.516 -3.957 -43.986
v 0.637 -6.376 -42.486
v -0.011 -6.462 -43.986
v 0.637 -6.376 -43.986
v -0.011 -6.462 -42.486
v 1.241 -6.126 -43.986
v 1.241 -6.126 -42.486
v -1.263 -1.788 -43.986
v -0.659 -1.538 -42.486
v -0.659 -1.538 -43.986
v -1.263 -1.788 -42.486
v -1.503 -4.357 -42.586
v -1.503 -3.557 -42.586
v -1.555 -3.957 -42.586
v -1.348 -4.729 -42.586
v -1.348 -3.185 -42.586
v -1.103 -5.049 -42.586
v -1.103 -2.865 -42.586
v -0.783 -5.294 -42.586
v -0.783 -2.620 -42.586
v -0.411 -5.448 -42.586
v -0.411 -2.465 -42.586
v -0.011 -5.501 -42.586
v -0.011 -2.413 -42.586
v 0.389 -5.448 -42.586
v 0.389 -2.465 -42.586
v 0.761 -5.294 -42.586
v 0.761 -2.620 -42.586
v 1.081 -5.049 -42.586
v 1.081 -2.865 -42.586
v 1.326 -4.729 -42.586
v 1.326 -3.185 -42.586
v 1.480 -4.357 -42.586
v 1.480 -3.557 -42.586
v 1.533 -3.957 -42.586
v 1.760 -5.728 -42.486
v 1.760 -5.728 -43.986
v 2.158 -5.209 -43.986
v 2.158 -5.209 -42.486
v -0.011 -2.413 -43.986
v -0.411 -2.465 -43.986
v -0.783 -2.620 -43.986
v -2.180 -5.209 -43.986
v -1.782 -2.186 -43.986
v -1.782 -5.728 -43.986
v -1.555 -3.957 -43.986
v -1.503 -3.557 -43.986
v -1.348 -3.185 -43.986
v -1.103 -2.865 -43.986
v -0.011 -1.452 -43.986
v 0.637 -1.538 -43.986
v 0.389 -2.465 -43.986
v 0.761 -2.620 -43.986
v 1.241 -1.788 -43.986
v 1.081 -2.865 -43.986
v 1.326 -3.185 -43.986
v 1.760 -2.186 -43.986
v 1.480 -3.557 -43.986
v 1.533 -3.957 -43.986
v -1.503 -4.357 -43.986
v -1.263 -6.126 -43.986
v -1.348 -4.729 -43.986
v -1.103 -5.049 -43.986
v -0.659 -6.376 -43.986
v -0.783 -5.294 -43.986
v -0.411 -5.448 -43.986
v -0.011 -5.501 -43.986
v 0.389 -5.448 -43.986
v 0.761 -5.294 -43.986
v 1.081 -5.049 -43.986
v 1.326 -4.729 -43.986
v 1.480 -4.357 -43.986
v 2.158 -2.705 -43.986
v 2.408 -3.309 -43.986
v 2.408 -4.605 -43.986
v 2.494 -3.957 -43.986
v 2.158 -2.705 -42.486
v 1.760 -2.186 -42.486
v -0.011 -1.452 -42.486
v -2.180 -5.209 -42.486
v 2.408 -3.309 -42.486
v -1.782 -5.728 -42.486
v -1.782 -2.186 -42.486
v -1.555 -3.957 -42.486
v -1.503 -4.357 -42.486
v -1.263 -6.126 -42.486
v -1.348 -4.729 -42.486
v -1.103 -5.049 -42.486
v -0.659 -6.376 -42.486
v -0.783 -5.294 -42.486
v -0.411 -5.448 -42.486
v -0.011 -5.501 -42.486
v 0.389 -5.448 -42.486
v 0.761 -5.294 -42.486
v 1.081 -5.049 -42.486
v 1.326 -4.729 -42.486
v 1.480 -4.357 -42.486
v 1.533 -3.957 -42.486
v -1.503 -3.557 -42.486
v -1.348 -3.185 -42.486
v -1.103 -2.865 -42.486
v -0.783 -2.620 -42.486
v -0.411 -2.465 -42.486
v -0.011 -2.413 -42.486
v 0.389 -2.465 -42.486
v 0.637 -1.538 -42.486
v 0.761 -2.620 -42.486
v 1.241 -1.788 -42.486
v 1.081 -2.865 -42.486
v 1.326 -3.185 -42.486
v 1.480 -3.557 -42.486
v 2.408 -4.605 -42.486
v 2.494 -3.957 -42.486
v 3.509 -12.000 47.031
v -3.487 12.000 47.031
v -3.487 -12.000 47.031
v 3.509 12.000 47.031
v -4.515 -8.000 53.058
v -4.032 -8.000 46.486
v -4.515 -8.000 46.004
v -4.032 -8.000 52.576
v 4.537 -8.000 46.004
v 4.054 -8.000 46.486
v 4.537 -8.000 53.058
v 4.054 -8.000 52.576
v 4.537 12.000 46.004
v 4.537 8.000 53.058
v 4.537 8.000 46.004
v 4.537 12.000 53.058
v -4.515 12.000 46.004
v -4.515 12.000 53.058
v -3.487 12.000 52.031
v 3.509 12.000 52.031
v -4.515 8.000 53.058
v -4.515 -12.000 46.004
v -4.515 -12.000 53.058
v -3.487 -12.000 52.031
v 3.509 -12.000 52.031
v 2.180 -2.705 42.486
v 2.430 -3.309 43.986
v 2.430 -3.309 42.486
v 2.180 -2.705 43.986
v 2.516 -3.957 42.486
v 2.430 -4.605 43.986
v 2.430 -4.605 42.486
v 2.516 -3.957 43.986
v -4.032 8.000 52.576
v -4.032 8.000 46.486
v 4.537 -12.000 53.058
v 0.011 -6.462 43.986
v -0.637 -6.376 42.486
v 0.011 -6.462 42.486
v -0.637 -6.376 43.986
v -1.533 7.410 46.486
v 4.054 8.000 46.486
v 1.555 7.410 46.486
v 1.555 -0.676 46.486
v 1.555 -3.957 46.486
v -0.761 -5.294 46.486
v -1.081 -5.049 46.486
v -1.326 -4.729 46.486
v -1.480 -4.357 46.486
v -1.533 -3.957 46.486
v -1.533 -0.676 46.486
v -0.389 -5.448 46.486
v 0.011 -5.501 46.486
v 0.411 -5.448 46.486
v 0.783 -5.294 46.486
v 1.103 -5.049 46.486
v 1.348 -4.729 46.486
v 1.503 -4.357 46.486
v -1.480 -3.557 46.486
v -1.326 -3.185 46.486
v -1.081 -2.865 46.486
v -0.761 -2.620 46.486
v -0.389 -2.465 46.486
v 0.011 -2.413 46.486
v 0.411 -2.465 46.486
v 0.783 -2.620 46.486
v 1.103 -2.865 46.486
v 1.348 -3.185 46.486
v 1.503 -3.557 46.486
v 4.537 -12.000 46.004
v 4.054 8.000 52.576
v 0.659 -1.538 42.486
v 1.263 -1.788 43.986
v 1.263 -1.788 42.486
v 0.659 -1.538 43.986
v -1.480 -3.557 42.586
v -1.480 -4.357 42.586
v -1.533 -3.957 42.586
v -1.326 -3.185 42.586
v -1.326 -4.729 42.586
v -1.081 -2.865 42.586
v -1.081 -5.049 42.586
v -0.761 -2.620 42.586
v -0.761 -5.294 42.586
v -0.389 -2.465 42.586
v -0.389 -5.448 42.586
v 0.011 -2.413 42.586
v 0.011 -5.501 42.586
v 0.411 -2.465 42.586
v 0.411 -5.448 42.586
v 0.783 -2.620 42.586
v 0.783 -5.294 42.586
v 1.103 -2.865 42.586
v 1.103 -5.049 42.586
v 1.348 -3.185 42.586
v 1.348 -4.729 42.586
v 1.503 -3.557 42.586
v 1.503 -4.357 42.586
v 1.555 -3.957 42.586
v 1.544 -0.676 -26.786
v 1.555 -0.676 -26.786
v -1.241 -6.126 43.986
v -1.241 -6.126 42.486
v -1.760 -5.728 42.486
v -1.760 -5.728 43.986
v -4.515 8.000 46.004
v -0.389 -2.465 43.986
v 0.011 -2.413 43.986
v 0.659 -6.376 42.486
v 0.659 -6.376 43.986
v 1.103 -5.049 42.486
v 1.348 -4.729 42.486
v -1.533 -3.957 42.486
v -1.480 -4.357 42.486
v -1.480 -4.357 43.986
v -1.533 -3.957 43.986
v -2.408 -4.605 43.986
v -2.408 -3.309 43.986
v -2.494 -3.957 43.986
v -2.158 -5.209 43.986
v -2.158 -2.705 43.986
v -1.760 -2.186 43.986
v -1.326 -4.729 43.986
v -1.081 -5.049 43.986
v -0.761 -5.294 43.986
v -0.389 -5.448 43.986
v 0.011 -5.501 43.986
v 0.411 -5.448 43.986
v 0.783 -5.294 43.986
v 1.263 -6.126 43.986
v 1.103 -5.049 43.986
v 1.348 -4.729 43.986
v 1.782 -5.728 43.986
v 1.503 -4.357 43.986
v 1.555 -3.957 43.986
v -1.480 -3.557 43.986
v -1.241 -1.788 43.986
v -1.326 -3.185 43.986
v -1.081 -2.865 43.986
v -0.637 -1.538 43.986
v -0.761 -2.620 43.986
v 0.011 -1.452 43.986
v 0.411 -2.465 43.986
v 0.783 -2.620 43.986
v 1.103 -2.865 43.986
v 1.348 -3.185 43.986
v 1.782 -2.186 43.986
v 1.503 -3.557 43.986
v 2.180 -5.209 43.986
v -0.389 -2.465 42.486
v 0.011 -2.413 42.486
v -0.637 -1.538 42.486
v -1.241 -1.788 42.486
v -0.389 -5.448 42.486
v -0.761 -5.294 42.486
v -2.158 -5.209 42.486
v -1.081 -2.865 42.486
v -1.326 -3.185 42.486
v -2.408 -4.605 42.486
v 1.782 -2.186 42.486
v -2.408 -3.309 42.486
v -2.494 -3.957 42.486
v -2.158 -2.705 42.486
v -1.760 -2.186 42.486
v -1.480 -3.557 42.486
v -0.761 -2.620 42.486
v 0.011 -1.452 42.486
v 0.411 -2.465 42.486
v 0.783 -2.620 42.486
v 1.103 -2.865 42.486
v 1.348 -3.185 42.486
v 1.503 -3.557 42.486
v 1.555 -3.957 42.486
v -1.326 -4.729 42.486
v -1.081 -5.049 42.486
v 0.011 -5.501 42.486
v 0.411 -5.448 42.486
v 0.783 -5.294 42.486
v 1.263 -6.126 42.486
v 1.782 -5.728 42.486
v 1.503 -4.357 42.486
v 2.180 -5.209 42.486
v 1.555 7.410 -26.786
v 1.544 7.410 -26.786
v 1.533 7.410 -26.786
v -1.544 7.410 -26.786
v -1.555 7.410 -26.786
v 1.533 -0.676 -26.786
v -1.555 -0.676 -26.786
v -1.544 -0.676 -26.786
v -1.533 7.410 -26.786
v -1.533 -0.676 -26.786
f 1 2 3
f 2 1 4
f 4 1 5
f 5 1 6
f 6 1 7
f 3 2 8
f 6 7 9
f 9 7 10
f 10 7 11
f 11 7 12
f 12 7 13
f 13 7 14
f 14 7 15
f 15 7 16
f 16 7 17
f 17 7 18
f 3 19 20
f 19 3 8
f 19 8 21
f 20 19 18
f 20 18 7
f 22 21 8
f 21 22 23
f 21 23 24
f 21 24 17
f 17 24 25
f 17 25 26
f 17 26 27
f 17 27 28
f 17 28 29
f 17 29 30
f 17 30 31
f 17 31 32
f 17 32 16
f 33 34 35
f 34 33 36
f 3 37 1
f 37 3 38
f 39 40 41
f 40 39 42
f 41 34 43
f 34 41 40
f 34 40 35
f 35 40 44
f 43 45 46
f 45 43 34
f 46 45 44
f 46 44 40
f 47 43 46
f 43 47 48
f 34 49 45
f 49 34 36
f 40 47 46
f 47 40 42
f 49 44 45
f 44 49 50
f 51 7 52
f 7 51 20
f 39 43 48
f 43 39 41
f 33 44 50
f 44 33 35
f 51 37 38
f 37 51 52
f 48 37 39
f 37 48 47
f 37 47 1
f 1 47 7
f 39 52 42
f 52 39 37
f 42 52 7
f 42 7 47
f 53 54 55
f 54 53 56
f 54 57 55
f 57 54 58
f 58 49 59
f 49 58 54
f 49 54 50
f 59 36 56
f 36 59 49
f 56 36 33
f 56 33 50
f 56 50 54
f 60 51 57
f 51 60 53
f 51 53 20
f 20 53 3
f 57 38 55
f 38 57 51
f 55 38 3
f 55 3 53
f 59 53 60
f 53 59 56
f 59 57 58
f 57 59 60
f 61 62 63
f 62 61 64
f 65 66 67
f 66 65 68
f 69 70 71
f 70 69 72
f 73 69 71
f 69 73 74
f 75 76 77
f 76 75 78
f 79 80 81
f 80 79 82
f 80 82 83
f 83 82 84
f 83 84 85
f 85 84 86
f 85 86 87
f 87 86 88
f 87 88 89
f 89 88 90
f 89 90 91
f 91 90 92
f 91 92 93
f 93 92 94
f 93 94 95
f 95 94 96
f 95 96 97
f 97 96 98
f 97 98 99
f 99 98 100
f 99 100 101
f 101 100 102
f 103 73 104
f 73 103 74
f 105 103 104
f 103 105 106
f 107 89 108
f 89 107 91
f 89 109 108
f 109 89 87
f 62 66 68
f 66 62 64
f 66 64 110
f 110 64 111
f 110 111 112
f 112 111 113
f 113 111 114
f 114 111 75
f 114 75 115
f 115 75 116
f 116 75 77
f 116 77 109
f 109 77 108
f 108 77 117
f 108 117 107
f 107 117 118
f 107 118 119
f 119 118 120
f 120 118 121
f 120 121 122
f 122 121 123
f 123 121 124
f 123 124 125
f 125 124 126
f 112 127 128
f 127 112 113
f 128 127 129
f 128 129 130
f 128 130 131
f 131 130 132
f 131 132 133
f 131 133 70
f 70 133 134
f 70 134 135
f 70 135 71
f 71 135 136
f 71 136 73
f 73 136 137
f 73 137 138
f 73 138 104
f 104 138 139
f 104 139 126
f 104 126 124
f 104 124 140
f 104 140 105
f 105 140 141
f 105 141 142
f 142 141 143
f 124 144 140
f 144 124 145
f 77 146 117
f 146 77 76
f 67 110 147
f 110 67 66
f 140 148 141
f 148 140 144
f 63 68 65
f 68 63 62
f 147 112 149
f 112 147 110
f 107 28 27
f 28 107 119
f 26 107 27
f 107 26 108
f 25 108 26
f 108 25 109
f 67 63 65
f 63 67 147
f 63 147 61
f 61 147 149
f 61 149 150
f 150 149 151
f 151 149 152
f 152 149 153
f 152 153 154
f 154 153 155
f 155 153 156
f 155 156 157
f 157 156 158
f 158 156 72
f 158 72 159
f 159 72 69
f 159 69 160
f 160 69 161
f 161 69 74
f 161 74 162
f 162 74 163
f 163 74 103
f 163 103 164
f 164 103 165
f 150 166 78
f 166 150 151
f 78 166 167
f 78 167 168
f 78 168 76
f 76 168 169
f 76 169 170
f 76 170 146
f 146 170 171
f 146 171 172
f 146 172 173
f 173 172 174
f 173 174 175
f 175 174 176
f 175 176 177
f 175 177 145
f 145 177 178
f 145 178 165
f 145 165 103
f 145 103 106
f 145 106 144
f 144 106 179
f 144 179 148
f 148 179 180
f 121 145 124
f 145 121 175
f 150 75 111
f 75 150 78
f 116 25 24
f 25 116 109
f 116 23 115
f 23 116 24
f 115 22 114
f 22 115 23
f 150 64 61
f 64 150 111
f 114 8 113
f 8 114 22
f 173 121 118
f 121 173 175
f 128 149 112
f 149 128 153
f 156 128 131
f 128 156 153
f 72 131 70
f 131 72 156
f 119 91 107
f 91 119 93
f 117 173 118
f 173 117 146
f 91 170 89
f 170 91 171
f 114 81 113
f 81 114 80
f 127 82 129
f 82 127 79
f 161 96 94
f 96 161 162
f 134 9 10
f 9 134 133
f 178 102 165
f 102 178 101
f 82 155 84
f 155 82 154
f 6 130 5
f 130 6 132
f 164 98 163
f 98 164 100
f 129 5 130
f 5 129 4
f 159 92 90
f 92 159 160
f 160 94 92
f 94 160 161
f 32 126 16
f 126 32 125
f 113 2 127
f 2 113 8
f 142 106 105
f 106 142 179
f 165 100 164
f 100 165 102
f 87 116 109
f 116 87 85
f 29 122 30
f 122 29 120
f 158 90 88
f 90 158 159
f 84 157 86
f 157 84 155
f 81 152 79
f 152 81 151
f 16 139 15
f 139 16 126
f 14 137 13
f 137 14 138
f 116 83 115
f 83 116 85
f 93 171 91
f 171 93 172
f 176 99 177
f 99 176 97
f 115 80 114
f 80 115 83
f 137 12 13
f 12 137 136
f 85 167 83
f 167 85 168
f 15 138 14
f 138 15 139
f 113 79 127
f 79 113 81
f 129 84 130
f 84 129 82
f 169 85 87
f 85 169 168
f 11 134 10
f 134 11 135
f 133 6 9
f 6 133 132
f 97 174 95
f 174 97 176
f 80 151 81
f 151 80 166
f 170 87 89
f 87 170 169
f 130 86 132
f 86 130 84
f 132 88 133
f 88 132 86
f 30 123 31
f 123 30 122
f 86 158 88
f 158 86 157
f 92 136 135
f 136 92 94
f 94 137 136
f 137 94 96
f 95 172 93
f 172 95 174
f 100 138 98
f 138 100 139
f 88 134 133
f 134 88 90
f 102 139 100
f 139 102 126
f 141 180 143
f 180 141 148
f 79 154 82
f 154 79 152
f 101 126 102
f 126 101 125
f 127 4 129
f 4 127 2
f 31 125 32
f 125 31 123
f 177 101 178
f 101 177 99
f 90 135 134
f 135 90 92
f 99 125 101
f 125 99 123
f 98 137 96
f 137 98 138
f 163 96 162
f 96 163 98
f 12 135 11
f 135 12 136
f 143 179 142
f 179 143 180
f 83 166 80
f 166 83 167
f 119 29 28
f 29 119 120
f 97 123 99
f 123 97 122
f 122 95 120
f 95 122 97
f 120 93 119
f 93 120 95
f 181 182 183
f 182 181 184
f 185 186 187
f 186 185 188
f 189 190 191
f 190 189 187
f 190 187 186
f 191 190 192
f 191 192 188
f 191 188 185
f 193 194 195
f 194 193 196
f 197 182 184
f 182 197 198
f 182 198 199
f 193 184 196
f 184 193 197
f 196 184 200
f 196 200 199
f 196 199 198
f 194 198 201
f 198 194 196
f 185 202 203
f 202 185 187
f 200 204 199
f 204 200 205
f 206 207 208
f 207 206 209
f 210 211 212
f 211 210 213
f 214 186 188
f 186 214 215
f 216 185 203
f 185 216 191
f 217 218 219
f 218 217 220
f 215 221 186
f 221 215 222
f 221 222 223
f 223 222 224
f 224 222 225
f 186 226 190
f 226 186 227
f 227 186 228
f 228 186 229
f 229 186 230
f 230 186 221
f 230 221 231
f 190 226 232
f 190 232 233
f 190 233 234
f 190 234 235
f 190 235 236
f 190 236 237
f 190 237 238
f 190 238 225
f 190 225 222
f 231 239 230
f 239 231 240
f 240 231 241
f 241 231 224
f 241 224 242
f 242 224 243
f 243 224 244
f 244 224 245
f 245 224 246
f 246 224 247
f 247 224 248
f 248 224 249
f 249 224 225
f 189 216 250
f 216 189 191
f 189 202 187
f 202 189 250
f 192 214 188
f 214 192 251
f 252 253 254
f 253 252 255
f 250 181 202
f 181 250 216
f 181 216 205
f 205 216 204
f 202 183 203
f 183 202 181
f 203 183 204
f 203 204 216
f 200 181 205
f 181 200 184
f 256 257 258
f 257 256 259
f 257 259 260
f 260 259 261
f 260 261 262
f 262 261 263
f 262 263 264
f 264 263 265
f 264 265 266
f 266 265 267
f 266 267 268
f 268 267 269
f 268 269 270
f 270 269 271
f 270 271 272
f 272 271 273
f 272 273 274
f 274 273 275
f 274 275 276
f 276 275 277
f 276 277 278
f 278 277 279
f 224 280 281
f 218 282 283
f 282 218 220
f 282 284 283
f 284 282 285
f 193 286 197
f 286 193 195
f 195 222 286
f 222 195 194
f 286 222 215
f 222 194 251
f 251 194 214
f 215 201 286
f 201 215 214
f 201 214 194
f 182 204 183
f 204 182 199
f 222 192 190
f 192 222 251
f 198 286 201
f 286 198 197
f 287 244 288
f 244 287 243
f 289 217 219
f 217 289 290
f 276 291 274
f 291 276 292
f 293 257 294
f 257 293 258
f 230 295 229
f 295 230 296
f 297 298 299
f 298 297 300
f 298 300 301
f 301 300 285
f 301 285 302
f 302 285 296
f 296 285 295
f 295 285 282
f 295 282 303
f 303 282 304
f 304 282 220
f 304 220 305
f 305 220 306
f 306 220 217
f 306 217 307
f 307 217 290
f 307 290 308
f 308 290 309
f 309 290 310
f 309 310 311
f 311 310 312
f 312 310 313
f 312 313 314
f 314 313 315
f 302 316 317
f 316 302 296
f 317 316 318
f 317 318 319
f 317 319 320
f 320 319 321
f 320 321 287
f 320 287 322
f 322 287 288
f 322 288 323
f 322 323 255
f 255 323 324
f 255 324 253
f 253 324 325
f 253 325 326
f 253 326 327
f 327 326 328
f 327 328 315
f 327 315 313
f 327 313 329
f 327 329 209
f 209 329 211
f 209 211 207
f 207 211 213
f 239 296 230
f 296 239 316
f 312 236 311
f 236 312 237
f 267 330 331
f 330 267 265
f 317 332 333
f 332 317 320
f 315 238 314
f 238 315 225
f 244 323 288
f 323 244 245
f 264 334 335
f 334 264 266
f 300 284 285
f 284 300 336
f 319 242 321
f 242 319 241
f 337 259 338
f 259 337 261
f 297 336 300
f 336 297 339
f 326 277 328
f 277 326 275
f 208 213 210
f 213 208 207
f 340 209 206
f 209 340 327
f 314 276 312
f 276 314 278
f 341 339 342
f 339 341 343
f 339 343 336
f 336 343 344
f 336 344 284
f 284 344 293
f 293 344 345
f 345 344 333
f 345 333 338
f 338 333 337
f 337 333 332
f 337 332 346
f 346 332 330
f 330 332 347
f 330 347 331
f 331 347 252
f 331 252 348
f 348 252 349
f 349 252 254
f 349 254 350
f 350 254 351
f 351 254 340
f 351 340 352
f 352 340 353
f 284 294 283
f 294 284 293
f 283 294 354
f 283 354 355
f 283 355 218
f 218 355 335
f 218 335 334
f 218 334 219
f 219 334 356
f 219 356 357
f 219 357 289
f 289 357 358
f 289 358 359
f 359 358 291
f 359 291 292
f 359 292 360
f 360 292 361
f 360 361 353
f 360 353 340
f 360 340 206
f 360 206 362
f 362 206 208
f 362 208 212
f 212 208 210
f 212 329 362
f 329 212 211
f 362 313 360
f 313 362 329
f 360 310 359
f 310 360 313
f 234 307 308
f 307 234 233
f 323 246 324
f 246 323 245
f 355 264 335
f 264 355 262
f 273 324 271
f 324 273 325
f 302 343 301
f 343 302 344
f 322 252 347
f 252 322 255
f 344 317 333
f 317 344 302
f 268 357 356
f 357 268 270
f 228 304 227
f 304 228 303
f 311 235 309
f 235 311 236
f 226 304 305
f 304 226 227
f 334 268 356
f 268 334 266
f 253 340 254
f 340 253 327
f 325 275 326
f 275 325 273
f 279 361 278
f 361 279 353
f 272 291 358
f 291 272 274
f 273 351 275
f 351 273 350
f 328 225 315
f 225 328 249
f 229 303 228
f 303 229 295
f 315 278 314
f 278 315 279
f 312 274 311
f 274 312 276
f 310 289 359
f 289 310 290
f 345 258 293
f 258 345 256
f 350 271 349
f 271 350 273
f 325 248 326
f 248 325 247
f 323 267 269
f 267 323 288
f 301 341 298
f 341 301 343
f 267 287 265
f 287 267 288
f 294 260 354
f 260 294 257
f 324 269 271
f 269 324 323
f 320 347 332
f 347 320 322
f 328 279 315
f 279 328 277
f 326 249 328
f 249 326 248
f 246 325 324
f 325 246 247
f 348 267 331
f 267 348 269
f 264 306 266
f 306 264 305
f 258 295 257
f 295 258 296
f 278 292 276
f 292 278 361
f 277 353 279
f 353 277 352
f 256 296 258
f 296 256 316
f 233 306 307
f 306 233 232
f 275 352 277
f 352 275 351
f 261 318 259
f 318 261 319
f 259 316 256
f 316 259 318
f 271 348 349
f 348 271 269
f 263 337 346
f 337 263 261
f 223 363 364
f 287 263 265
f 263 287 321
f 241 318 240
f 318 241 319
f 314 237 312
f 237 314 238
f 260 304 262
f 304 260 303
f 357 272 358
f 272 357 270
f 306 268 266
f 268 306 307
f 242 287 321
f 287 242 243
f 354 262 355
f 262 354 260
f 330 263 346
f 263 330 265
f 240 316 239
f 316 240 318
f 338 256 345
f 256 338 259
f 235 308 309
f 308 235 234
f 257 303 260
f 303 257 295
f 299 339 297
f 339 299 342
f 306 226 305
f 226 306 232
f 263 319 261
f 319 263 321
f 304 264 262
f 264 304 305
f 298 342 299
f 342 298 341
f 270 309 272
f 309 270 308
f 309 274 272
f 274 309 311
f 307 270 268
f 270 307 308
f 17 19 21
f 19 17 18
f 223 231 221
f 231 223 224
f 365 364 18
f 366 19 367
f 368 17 280
f 369 21 370
f 366 18 19
f 18 366 365
f 365 366 371
f 365 371 221
f 365 223 364
f 223 365 221
f 231 370 372
f 368 21 17
f 21 368 370
f 370 368 372
f 224 368 280
f 368 224 372
f 372 224 231
f 221 371 366
f 18 280 17
f 18 223 280
f 223 18 364
f 223 224 280
f 19 370 21
f 19 221 370
f 221 19 366
f 221 231 370
