# cadena-eslabones.obj (EXERSUITE3D, cm)
v -14.834 2.338 -7.939
v -16.745 1.210 -6.810
v -16.954 2.338 -7.233
v -14.749 1.210 -7.475
v 23.890 4.517 2.999
v 23.170 4.050 -0.000
v 24.309 4.517 -0.000
v 22.795 4.050 2.686
v -14.970 3.307 -8.676
v -17.722 4.050 -8.781
v -15.148 4.050 -9.638
v -17.287 3.307 -7.905
v -16.673 -0.000 -6.666
v -14.719 -0.000 -7.316
v -21.133 -2.338 -2.213
v -20.866 -3.307 -4.652
v -21.854 -3.307 -2.418
v -20.229 -2.338 -4.256
v -20.679 1.210 -2.083
v -19.691 -0.000 -3.922
v -20.524 -0.000 -2.039
v -19.828 1.210 -4.007
v -21.854 3.307 -2.418
v -20.229 2.338 -4.256
v -21.133 2.338 -2.213
v -20.866 3.307 -4.652
v -20.728 4.517 -8.095
v -18.227 4.517 -9.802
v -19.962 4.050 -7.252
v -20.586 2.338 -14.560
v -23.796 3.307 -11.469
v -24.301 2.338 -12.025
v -20.253 3.307 -13.888
v -19.818 -4.050 -13.012
v -15.798 -4.517 -13.162
v -16.005 -4.050 -14.281
v -19.313 -4.517 -11.992
v 28.276 3.307 4.249
v 27.892 4.050 -0.000
v 28.870 3.307 -0.000
v 27.336 4.050 3.981
v 29.451 -1.210 -4.584
v 27.178 -2.338 -8.568
v 28.998 -2.338 -4.454
v 27.579 -1.210 -8.816
v 20.867 -0.000 -15.127
v 24.618 1.210 -12.374
v 20.795 1.210 -14.983
v 24.726 -0.000 -12.493
v 18.227 -4.517 -9.802
v 21.550 -4.676 -8.999
v 18.770 -4.676 -10.897
v 20.728 -4.517 -8.095
v -18.799 2.338 -5.973
v -19.304 3.307 -6.528
v -16.745 -1.210 -6.810
v -14.834 -2.338 -7.939
v -16.954 -2.338 -7.233
v -14.749 -1.210 -7.475
v -14.970 -3.307 -8.676
v -17.287 -3.307 -7.905
v -20.795 1.210 -14.983
v -24.618 1.210 -12.374
v -20.795 -1.210 -14.983
v -16.433 -0.000 -16.603
v -20.867 -0.000 -15.127
v -16.404 -1.210 -16.445
v 26.753 4.517 -0.000
v 26.240 4.517 3.669
v 25.065 4.676 3.334
v 25.531 4.676 -0.000
v 24.301 2.338 -12.025
v 20.586 2.338 -14.560
v 19.304 3.307 -6.528
v 20.229 2.338 -4.256
v 18.799 2.338 -5.973
v 20.866 3.307 -4.652
v -20.253 -3.307 -13.888
v -16.182 -3.307 -15.243
v -23.796 -3.307 -11.469
v -20.586 -2.338 -14.560
v -24.301 -2.338 -12.025
v -19.828 -1.210 -4.007
v -20.679 -1.210 -2.083
v 22.372 -4.517 -9.903
v 19.313 -4.517 -11.992
v 16.404 1.210 -16.445
v 16.318 2.338 -15.981
v 14.970 3.307 -8.676
v 16.954 2.338 -7.233
v 14.834 2.338 -7.939
v 17.287 3.307 -7.905
v 24.301 -2.338 -12.025
v 24.618 -1.210 -12.374
v 23.138 -4.050 -10.746
v 19.818 -4.050 -13.012
v -29.451 -1.210 4.584
v -27.178 -2.338 8.568
v -28.998 -2.338 4.454
v -27.579 -1.210 8.816
v 19.828 1.210 -4.007
v 18.482 1.210 -5.624
v 25.709 4.050 -7.657
v 22.372 4.517 -9.903
v 23.138 4.050 -10.746
v 24.742 4.517 -7.056
v 18.799 -2.338 -5.973
v 20.866 -3.307 -4.652
v 19.304 -3.307 -6.528
v 20.229 -2.338 -4.256
v 20.795 -1.210 -14.983
v 20.586 -2.338 -14.560
v -29.606 -0.000 4.628
v -27.716 -0.000 8.901
v -27.178 2.338 8.568
v -24.618 1.210 12.374
v -27.579 1.210 8.816
v -24.301 2.338 12.025
v 17.287 -3.307 -7.905
v 16.954 -2.338 -7.233
v -19.828 1.210 4.007
v -20.524 -0.000 2.039
v -19.691 -0.000 3.922
v -20.679 1.210 2.083
v -20.866 3.307 4.652
v -21.133 2.338 2.213
v -20.229 2.338 4.256
v -21.854 3.307 2.418
v 20.728 4.517 -8.095
v 17.722 4.050 -8.781
v 18.227 4.517 -9.802
v 19.962 4.050 -7.252
v 18.374 -0.000 -5.505
v 16.745 -1.210 -6.810
v 16.673 -0.000 -6.666
v 18.482 -1.210 -5.624
v 25.709 -4.050 -7.657
v 24.742 -4.517 -7.056
v -24.726 -0.000 12.493
v 21.697 -4.050 -5.167
v 19.962 -4.050 -7.252
v -23.703 4.676 6.412
v -26.240 4.517 3.669
v -25.065 4.676 3.334
v -24.742 4.517 7.056
v -22.795 4.050 2.686
v -21.697 4.050 5.167
v 16.433 -0.000 -16.603
v 16.404 -1.210 -16.445
v 16.745 1.210 -6.810
v 14.749 1.210 -7.475
v 26.540 3.307 -8.172
v 23.796 3.307 -11.469
v 23.703 -4.676 -6.412
v 22.665 -4.517 -5.768
v -26.540 -3.307 8.172
v -28.276 -3.307 4.249
v -23.138 4.050 10.746
v -26.540 3.307 8.172
v -25.709 4.050 7.657
v -23.796 3.307 11.469
v 19.313 4.517 -11.992
v 19.818 4.050 -13.012
v 27.178 2.338 -8.568
v 27.579 1.210 -8.816
v 27.336 -4.050 -3.981
v 26.240 -4.517 -3.669
v 21.697 4.050 -5.167
v 23.703 4.676 -6.412
v 21.550 4.676 -8.999
v 22.665 4.517 -5.768
v 20.253 3.307 -13.888
v 15.798 4.517 -13.162
v 16.005 4.050 -14.281
v 27.716 -0.000 -8.901
v 18.770 4.676 -10.897
v 19.828 -1.210 -4.007
v 19.691 -0.000 -3.922
v -27.336 -4.050 3.981
v -24.742 -4.517 7.056
v -26.240 -4.517 3.669
v -25.709 -4.050 7.657
v 23.796 -3.307 -11.469
v 26.540 -3.307 -8.172
v -23.890 -4.517 2.999
v -21.697 -4.050 5.167
v -22.795 -4.050 2.686
v -22.665 -4.517 5.768
v -21.550 4.676 8.999
v -22.372 4.517 9.903
v 17.722 -4.050 -8.781
v -20.229 -2.338 4.256
v -21.854 -3.307 2.418
v -20.866 -3.307 4.652
v -21.133 -2.338 2.213
v 28.276 -3.307 -4.249
v 29.606 -0.000 -4.628
v -25.065 -4.676 3.334
v -23.703 -4.676 6.412
v 15.148 4.050 -9.638
v -19.828 -1.210 4.007
v -20.679 -1.210 2.083
v 26.240 4.517 -3.669
v 25.065 4.676 -3.334
v -18.482 1.210 5.624
v -18.374 -0.000 5.505
v 20.679 1.210 -2.083
v 21.133 2.338 -2.213
v -22.372 -4.517 9.903
v -23.138 -4.050 10.746
v 15.576 4.676 -11.960
v 21.854 -3.307 -2.418
v 21.133 -2.338 -2.213
v 15.355 4.517 -10.758
v 20.253 -3.307 -13.888
v -24.618 -1.210 12.374
v -20.728 -4.517 8.095
v -21.550 -4.676 8.999
v -23.796 -3.307 11.469
v -24.301 -2.338 12.025
v 20.679 -1.210 -2.083
v -19.962 4.050 7.252
v -22.665 4.517 5.768
v -20.728 4.517 8.095
v -23.890 4.517 2.999
v -20.586 2.338 14.560
v -20.253 3.307 13.888
v -19.962 -4.050 7.252
v -17.722 4.050 8.781
v -18.227 4.517 9.802
v 16.182 3.307 -15.243
v 20.524 -0.000 -2.039
v -20.795 1.210 14.983
v -18.799 -2.338 5.973
v -19.304 -3.307 6.528
v 14.834 -2.338 -7.939
v 14.749 -1.210 -7.475
v -20.867 -0.000 15.127
v 23.890 -4.517 -2.999
v 22.795 -4.050 -2.686
v 23.890 4.517 -2.999
v 25.065 -4.676 -3.334
v 22.795 4.050 -2.686
v 21.854 3.307 -2.418
v 14.970 -3.307 -8.676
v -19.818 4.050 13.012
v -18.482 -1.210 5.624
v 14.719 -0.000 -7.316
v -19.304 3.307 6.528
v -18.770 4.676 10.897
v -18.799 2.338 5.973
v -19.313 4.517 11.992
v -30.092 -1.210 -0.000
v -29.620 -2.338 -0.000
v 16.318 -2.338 -15.981
v 11.765 -0.000 -16.807
v 11.761 1.210 -16.648
v 28.998 2.338 -4.454
v 29.620 2.338 -0.000
v 28.276 3.307 -4.249
v -19.304 -3.307 -6.528
v -18.799 -2.338 -5.973
v -23.890 -4.517 -2.999
v -21.697 -4.050 -5.167
v -22.665 -4.517 -5.768
v -22.795 -4.050 -2.686
v -24.726 -0.000 -12.493
v -27.579 -1.210 -8.816
v -24.618 -1.210 -12.374
v -27.716 -0.000 -8.901
v -25.709 4.050 -7.657
v -28.276 3.307 -4.249
v -26.540 3.307 -8.172
v -27.336 4.050 -3.981
v -27.579 1.210 -8.816
v -27.178 2.338 -8.568
v -29.451 1.210 -4.584
v -28.998 2.338 -4.454
v -29.606 -0.000 -4.628
v -22.372 -4.517 -9.903
v -18.770 -4.676 -10.897
v -21.550 -4.676 -8.999
v -22.665 4.517 -5.768
v -25.065 4.676 -3.334
v -23.703 4.676 -6.412
v -23.890 4.517 -2.999
v -24.742 4.517 -7.056
v -26.240 4.517 -3.669
v -21.550 4.676 -8.999
v -26.540 -3.307 -8.172
v -27.178 -2.338 -8.568
v 27.336 4.050 -3.981
v -22.795 4.050 -2.686
v -21.697 4.050 -5.167
v -18.227 -4.517 -9.802
v -15.148 -4.050 -9.638
v -15.355 -4.517 -10.758
v -17.722 -4.050 -8.781
v -18.770 4.676 -10.897
v -22.372 4.517 -9.903
v -19.313 4.517 -11.992
v -26.240 -4.517 -3.669
v -23.703 -4.676 -6.412
v -24.742 -4.517 -7.056
v -25.065 -4.676 -3.334
v -23.138 4.050 -10.746
v -16.318 -2.338 -15.981
v -25.709 -4.050 -7.657
v -23.138 -4.050 -10.746
v -18.482 -1.210 -5.624
v -18.374 -0.000 -5.505
v -19.818 4.050 -13.012
v 0.000 1.210 -7.614
v -11.561 -0.000 -7.454
v -11.564 1.210 -7.614
v 11.561 -0.000 -7.454
v 11.564 1.210 -7.614
v 0.000 3.307 -8.824
v -11.612 4.050 -9.793
v 0.000 4.050 -9.793
v -11.591 3.307 -8.824
v -18.482 1.210 -5.624
v -19.962 -4.050 -7.252
v -20.728 -4.517 -8.095
v -15.576 -4.676 -11.960
v -11.574 2.338 -8.081
v 0.000 2.338 -8.081
v -27.336 -4.050 -3.981
v 0.000 4.517 -10.920
v -11.663 4.676 -12.131
v 0.000 4.676 -12.131
v -11.636 4.517 -10.920
v -11.663 -4.676 -12.131
v -11.689 -4.517 -13.341
v -16.404 1.210 -16.445
v -11.689 4.517 -13.341
v 0.000 4.517 -13.341
v -17.287 -3.307 7.905
v -17.722 -4.050 8.781
v -11.714 4.050 14.469
v -16.182 3.307 15.243
v -16.005 4.050 14.281
v -11.735 3.307 15.437
v -11.591 -3.307 -8.824
v -11.574 -2.338 -8.081
v -11.714 -4.050 -14.469
v 0.000 -3.307 -15.437
v -11.735 -3.307 -15.437
v 0.000 -4.050 -14.469
v -11.765 -0.000 -16.807
v -11.761 -1.210 -16.648
v -16.745 -1.210 6.810
v -16.673 -0.000 6.666
v -16.404 1.210 16.445
v -16.318 2.338 15.981
v -11.751 -2.338 -16.180
v -11.636 -4.517 -10.920
v 0.000 -4.676 -12.131
v 0.000 -4.517 -10.920
v -11.612 -4.050 -9.793
v -14.970 -3.307 8.676
v -16.954 -2.338 7.233
v -14.834 -2.338 7.939
v -18.770 -4.676 10.897
v -15.355 -4.517 10.758
v -18.227 -4.517 9.802
v -15.576 -4.676 11.960
v -16.433 -0.000 16.603
v -20.795 -1.210 14.983
v -16.404 -1.210 16.445
v 0.000 -2.338 -16.180
v 0.000 -3.307 -8.824
v 0.000 -2.338 -8.081
v -19.818 -4.050 13.012
v -20.253 -3.307 13.888
v -11.564 -1.210 -7.614
v -16.005 -4.050 14.281
v -16.182 -3.307 15.243
v -15.798 4.517 -13.162
v -15.576 4.676 -11.960
v -11.761 1.210 -16.648
v -11.714 4.050 -14.469
v -16.182 3.307 -15.243
v -11.735 3.307 -15.437
v -16.005 4.050 -14.281
v -20.586 -2.338 14.560
v -17.287 3.307 7.905
v -16.954 2.338 7.233
v 0.000 -1.210 -16.648
v 11.761 -1.210 -16.648
v 0.000 -4.517 -13.341
v -15.798 -4.517 13.162
v -19.313 -4.517 11.992
v 0.000 -1.210 -7.614
v -16.745 1.210 6.810
v -14.749 1.210 7.475
v -14.719 -0.000 7.316
v -16.318 -2.338 15.981
v 0.000 -4.050 -9.793
v -16.318 2.338 -15.981
v -15.355 4.517 -10.758
v -14.749 -1.210 7.475
v 0.000 4.050 -14.469
v -11.761 1.210 16.648
v -11.751 2.338 16.180
v 0.000 3.307 -15.437
v -11.751 2.338 -16.180
v -11.591 3.307 8.824
v -15.148 4.050 9.638
v -14.970 3.307 8.676
v -11.612 4.050 9.793
v -14.834 2.338 7.939
v -15.148 -4.050 9.638
v 23.890 -4.517 2.999
v 25.531 -4.676 -0.000
v 24.309 -4.517 -0.000
v 25.065 -4.676 3.334
v 15.355 -4.517 -10.758
v 15.576 -4.676 -11.960
v 11.714 -4.050 -14.469
v 11.689 -4.517 -13.341
v 22.192 3.307 -0.000
v -11.636 4.517 10.920
v -15.576 4.676 11.960
v -15.355 4.517 10.758
v -11.663 4.676 12.131
v 0.000 2.338 -16.180
v 0.000 1.210 -16.648
v 11.751 2.338 -16.180
v -27.892 -4.050 -0.000
v -28.870 -3.307 -0.000
v -15.798 4.517 13.162
v 20.970 -1.210 -0.000
v 21.133 -2.338 2.213
v 21.442 -2.338 -0.000
v 20.679 -1.210 2.083
v -30.253 -0.000 -0.000
v 11.735 3.307 -15.437
v 16.005 -4.050 -14.281
v 16.182 -3.307 -15.243
v -28.998 2.338 4.454
v -29.451 1.210 4.584
v 11.689 4.517 -13.341
v 11.714 4.050 -14.469
v 26.240 -4.517 3.669
v 27.892 -4.050 -0.000
v 26.753 -4.517 -0.000
v 27.336 -4.050 3.981
v 11.663 4.676 -12.131
v 15.148 -4.050 -9.638
v 15.798 -4.517 -13.162
v 29.606 -0.000 4.628
v 30.092 -1.210 -0.000
v 29.451 -1.210 4.584
v 30.253 -0.000 -0.000
v -28.276 3.307 4.249
v -27.336 4.050 3.981
v -23.170 -4.050 -0.000
v -24.309 -4.517 -0.000
v -26.753 -4.517 -0.000
v 11.612 4.050 -9.793
v 11.636 4.517 -10.920
v -25.531 -4.676 -0.000
v 11.591 3.307 -8.824
v 11.574 2.338 -8.081
v 11.735 -3.307 -15.437
v 0.000 -2.338 16.180
v -11.735 -3.307 15.437
v -11.751 -2.338 16.180
v 0.000 -3.307 15.437
v 30.092 1.210 -0.000
v 29.451 1.210 -4.584
v 11.636 -4.517 -10.920
v 11.663 -4.676 -12.131
v 11.591 -3.307 -8.824
v 11.612 -4.050 -9.793
v -11.689 4.517 13.341
v 11.612 -4.050 9.793
v 15.355 -4.517 10.758
v 15.148 -4.050 9.638
v 11.636 -4.517 10.920
v 11.765 -0.000 16.807
v 16.404 -1.210 16.445
v 11.761 -1.210 16.648
v 16.433 -0.000 16.603
v 18.227 -4.517 9.802
v 21.550 -4.676 8.999
v 20.728 -4.517 8.095
v 18.770 -4.676 10.897
v 16.745 1.210 6.810
v 14.834 2.338 7.939
v 14.749 1.210 7.475
v 16.954 2.338 7.233
v 18.770 4.676 10.897
v 15.355 4.517 10.758
v 18.227 4.517 9.802
v 15.576 4.676 11.960
v 14.970 3.307 8.676
v 17.287 3.307 7.905
v 15.576 -4.676 11.960
v 11.751 -2.338 -16.180
v 14.970 -3.307 8.676
v 16.954 -2.338 7.233
v 14.834 -2.338 7.939
v 17.287 -3.307 7.905
v 14.749 -1.210 7.475
v 16.673 -0.000 6.666
v 14.719 -0.000 7.316
v 16.745 -1.210 6.810
v 20.795 -1.210 14.983
v 20.867 -0.000 15.127
v 20.586 2.338 14.560
v 16.404 1.210 16.445
v 16.318 2.338 15.981
v 20.795 1.210 14.983
v 19.313 4.517 11.992
v 15.798 4.517 13.162
v 28.998 -2.338 4.454
v 28.870 -3.307 -0.000
v 28.276 -3.307 4.249
v 29.620 -2.338 -0.000
v -11.714 -4.050 14.469
v 0.000 -4.517 13.341
v -11.689 -4.517 13.341
v 0.000 -4.050 14.469
v -22.192 -3.307 -0.000
v -21.442 -2.338 -0.000
v 16.318 -2.338 15.981
v 20.253 -3.307 13.888
v 16.182 -3.307 15.243
v 20.586 -2.338 14.560
v 16.005 -4.050 14.281
v 19.818 -4.050 13.012
v 23.138 4.050 10.746
v 22.372 4.517 9.903
v 19.818 4.050 13.012
v 11.564 -1.210 -7.614
v 0.000 -1.210 16.648
v -11.761 -1.210 16.648
v 17.722 -4.050 8.781
v 23.796 -3.307 11.469
v 24.301 -2.338 12.025
v 24.301 2.338 12.025
v 24.618 1.210 12.374
v 23.138 -4.050 10.746
v 11.574 -2.338 -8.081
v 18.374 -0.000 5.505
v 18.482 -1.210 5.624
v 0.000 -4.517 10.920
v 0.000 -4.676 12.131
v 0.000 -4.050 9.793
v 0.000 -3.307 8.824
v 0.000 -2.338 8.081
v 0.000 -1.210 7.614
v 0.000 1.210 16.648
v 0.000 1.210 7.614
v 0.000 2.338 16.180
v 0.000 2.338 8.081
v 0.000 3.307 15.437
v 0.000 3.307 8.824
v 0.000 4.050 14.469
v 0.000 4.050 9.793
v 0.000 4.517 13.341
v 0.000 4.517 10.920
v 0.000 4.676 12.131
v 22.372 -4.517 9.903
v 19.313 -4.517 11.992
v 27.579 1.210 8.816
v 27.178 2.338 8.568
v 17.722 4.050 8.781
v 15.148 4.050 9.638
v 11.564 1.210 7.614
v 11.561 -0.000 7.454
v 23.796 3.307 11.469
v 20.253 3.307 13.888
v 16.005 4.050 14.281
v 16.182 3.307 15.243
v 15.798 -4.517 13.162
v 21.550 4.676 8.999
v 24.726 -0.000 12.493
v 11.689 -4.517 13.341
v 11.714 -4.050 14.469
v 19.962 -4.050 7.252
v 19.304 -3.307 6.528
v 11.612 4.050 9.793
v 11.636 4.517 10.920
v 11.751 -2.338 16.180
v 11.689 4.517 13.341
v 11.663 4.676 12.131
v 11.591 -3.307 8.824
v 11.591 3.307 8.824
v 11.574 2.338 8.081
v 11.714 4.050 14.469
v 11.574 -2.338 8.081
v 11.564 -1.210 7.614
v 11.735 -3.307 15.437
v 21.133 2.338 2.213
v 21.442 2.338 -0.000
v 21.854 3.307 2.418
v 11.751 2.338 16.180
v 11.761 1.210 16.648
v 18.799 -2.338 5.973
v 11.735 3.307 15.437
v 11.663 -4.676 12.131
v 20.728 4.517 8.095
v 19.962 4.050 7.252
v -11.765 -0.000 16.807
v 18.482 1.210 5.624
v 23.703 -4.676 6.412
v 24.742 -4.517 7.056
v -11.612 -4.050 9.793
v -11.591 -3.307 8.824
v -11.564 -1.210 7.614
v -11.574 -2.338 8.081
v -28.998 -2.338 -4.454
v -29.451 -1.210 -4.584
v -28.276 -3.307 -4.249
v -11.663 -4.676 12.131
v -11.574 2.338 8.081
v 20.866 3.307 4.652
v 21.697 4.050 5.167
v 20.229 2.338 4.256
v 20.125 1.209 3.358
v 20.679 1.210 2.083
v 20.229 -2.338 4.256
v 19.828 -1.210 4.007
v -11.564 1.210 7.614
v 28.998 2.338 4.454
v 29.451 1.210 4.584
v 22.665 -4.517 5.768
v 23.170 -4.050 -0.000
v 20.866 -3.307 4.652
v 22.795 -4.050 2.686
v 21.854 -3.307 2.418
v 21.697 -4.050 5.167
v 22.192 -3.307 -0.000
v 27.579 -1.210 8.816
v 27.178 -2.338 8.568
v 20.970 1.210 -0.000
v 26.540 -3.307 8.172
v 19.691 -0.000 3.922
v 20.524 -0.000 2.039
v 27.716 -0.000 8.901
v 20.809 -0.000 -0.000
v 25.709 -4.050 7.657
v 19.828 1.210 4.007
v -20.970 -1.210 -0.000
v -20.809 -0.000 -0.000
v -30.092 1.210 -0.000
v -20.970 1.210 -0.000
v -21.442 2.338 -0.000
v -22.192 3.307 -0.000
v -11.636 -4.517 10.920
v -29.620 2.338 -0.000
v -28.870 3.307 -0.000
v -27.892 4.050 -0.000
v -11.561 -0.000 7.454
v -24.309 4.517 -0.000
v -23.170 4.050 -0.000
v -25.531 4.676 -0.000
v -26.753 4.517 -0.000
v 24.618 -1.210 12.374
v 25.709 4.050 7.657
v 26.540 3.307 8.172
v 22.665 4.517 5.768
v 23.703 4.676 6.412
v 24.742 4.517 7.056
v 18.799 2.338 5.973
v 19.304 3.307 6.528
f 1 2 3
f 2 1 4
f 5 6 7
f 6 5 8
f 9 10 11
f 10 9 12
f 4 13 2
f 13 4 14
f 15 16 17
f 16 15 18
f 19 20 21
f 20 19 22
f 23 24 25
f 24 23 26
f 10 27 28
f 27 10 29
f 30 31 32
f 31 30 33
f 34 35 36
f 35 34 37
f 38 39 40
f 39 38 41
f 42 43 44
f 43 42 45
f 46 47 48
f 47 46 49
f 50 51 52
f 51 50 53
f 12 54 55
f 54 12 3
f 56 57 58
f 57 56 59
f 58 60 61
f 60 58 57
f 62 32 63
f 32 62 30
f 64 65 66
f 65 64 67
f 9 3 12
f 3 9 1
f 41 68 39
f 68 41 69
f 70 7 71
f 7 70 5
f 48 72 73
f 72 48 47
f 74 75 76
f 75 74 77
f 13 59 56
f 59 13 14
f 78 36 79
f 36 78 34
f 80 81 82
f 81 80 78
f 21 83 84
f 83 21 20
f 25 22 19
f 22 25 24
f 52 85 86
f 85 52 51
f 69 71 68
f 71 69 70
f 87 73 88
f 73 87 48
f 89 90 91
f 90 89 92
f 45 93 43
f 93 45 94
f 86 95 96
f 95 86 85
f 97 98 99
f 98 97 100
f 76 101 102
f 101 76 75
f 103 104 105
f 104 103 106
f 107 108 109
f 108 107 110
f 93 111 112
f 111 93 94
f 113 100 97
f 100 113 114
f 115 116 117
f 116 115 118
f 107 119 120
f 119 107 109
f 121 122 123
f 122 121 124
f 125 126 127
f 126 125 128
f 129 130 131
f 130 129 132
f 133 134 135
f 134 133 136
f 85 137 95
f 137 85 138
f 117 139 114
f 139 117 116
f 109 140 141
f 140 109 108
f 142 143 144
f 143 142 145
f 125 146 128
f 146 125 147
f 111 148 149
f 148 111 46
f 91 150 151
f 150 91 90
f 152 105 153
f 105 152 103
f 53 154 51
f 154 53 155
f 99 156 157
f 156 99 98
f 158 159 160
f 159 158 161
f 105 162 163
f 162 105 104
f 164 47 165
f 47 164 72
f 138 166 137
f 166 138 167
f 168 74 132
f 74 168 77
f 169 129 170
f 129 169 171
f 73 153 172
f 153 73 72
f 163 173 174
f 173 163 162
f 175 94 45
f 94 175 49
f 104 176 162
f 176 104 170
f 159 118 115
f 118 159 161
f 133 177 136
f 177 133 178
f 102 178 133
f 178 102 101
f 179 180 181
f 180 179 182
f 43 183 184
f 183 43 93
f 106 170 104
f 170 106 169
f 141 155 53
f 155 141 140
f 185 186 187
f 186 185 188
f 189 145 142
f 145 189 190
f 191 53 50
f 53 191 141
f 192 193 194
f 193 192 195
f 44 184 196
f 184 44 43
f 95 184 183
f 184 95 137
f 136 120 134
f 120 136 107
f 190 160 145
f 160 190 158
f 51 138 85
f 138 51 154
f 136 110 107
f 110 136 177
f 157 182 179
f 182 157 156
f 92 76 90
f 76 92 74
f 94 46 111
f 46 94 49
f 170 131 176
f 131 170 129
f 148 48 87
f 48 148 46
f 197 45 42
f 45 197 175
f 198 188 185
f 188 198 199
f 181 199 198
f 199 181 180
f 130 89 200
f 89 130 92
f 119 141 191
f 141 119 109
f 201 195 192
f 195 201 202
f 203 169 106
f 169 203 204
f 205 123 206
f 123 205 121
f 75 207 101
f 207 75 208
f 182 209 180
f 209 182 210
f 162 211 173
f 211 162 176
f 110 212 108
f 212 110 213
f 131 200 214
f 200 131 130
f 96 183 215
f 183 96 95
f 114 216 100
f 216 114 139
f 199 217 188
f 217 199 218
f 98 219 156
f 219 98 220
f 180 218 199
f 218 180 209
f 187 194 193
f 194 187 186
f 177 213 110
f 213 177 221
f 222 223 147
f 223 222 224
f 147 225 146
f 225 147 223
f 161 226 118
f 226 161 227
f 156 210 182
f 210 156 219
f 188 228 186
f 228 188 217
f 229 224 222
f 224 229 230
f 172 174 231
f 174 172 163
f 101 232 178
f 232 101 207
f 118 233 116
f 233 118 226
f 234 194 235
f 194 234 192
f 134 236 237
f 236 134 120
f 116 238 139
f 238 116 233
f 140 239 155
f 239 140 240
f 153 163 172
f 163 153 105
f 176 214 211
f 214 176 131
f 204 171 169
f 171 204 241
f 155 242 154
f 242 155 239
f 243 77 168
f 77 243 244
f 223 144 225
f 144 223 142
f 127 124 121
f 124 127 126
f 186 235 194
f 235 186 228
f 100 220 98
f 220 100 216
f 183 112 215
f 112 183 93
f 120 245 236
f 245 120 119
f 90 102 150
f 102 90 76
f 246 161 158
f 161 246 227
f 171 132 129
f 132 171 168
f 178 221 177
f 221 178 232
f 206 201 247
f 201 206 123
f 151 135 248
f 135 151 150
f 241 168 171
f 168 241 243
f 137 196 184
f 196 137 166
f 132 92 130
f 92 132 74
f 77 208 75
f 208 77 244
f 249 147 125
f 147 249 222
f 230 189 224
f 189 230 250
f 251 121 205
f 121 251 127
f 150 133 135
f 133 150 102
f 250 190 189
f 190 250 252
f 253 99 254
f 99 253 97
f 112 149 255
f 149 112 111
f 108 240 140
f 240 108 212
f 88 172 231
f 172 88 73
f 154 167 138
f 167 154 242
f 123 202 201
f 202 123 122
f 252 158 190
f 158 252 246
f 224 142 223
f 142 224 189
f 256 87 257
f 87 256 148
f 40 258 259
f 258 40 260
f 247 192 234
f 192 247 201
f 18 261 16
f 261 18 262
f 263 264 265
f 264 263 266
f 267 268 269
f 268 267 270
f 271 272 273
f 272 271 274
f 249 127 251
f 127 249 125
f 84 18 15
f 18 84 83
f 32 275 63
f 275 32 276
f 276 277 275
f 277 276 278
f 275 279 270
f 279 275 277
f 66 63 267
f 63 66 62
f 280 281 37
f 281 280 282
f 283 284 285
f 284 283 286
f 287 274 271
f 274 287 288
f 273 278 276
f 278 273 272
f 26 54 24
f 54 26 55
f 27 285 289
f 285 27 283
f 82 290 80
f 290 82 291
f 292 106 103
f 106 292 203
f 26 293 294
f 293 26 23
f 295 296 297
f 296 295 298
f 299 300 301
f 300 299 289
f 302 303 304
f 303 302 305
f 300 271 306
f 271 300 287
f 81 67 64
f 67 81 307
f 266 16 264
f 16 266 17
f 308 280 309
f 280 308 304
f 304 282 280
f 282 304 303
f 269 291 82
f 291 269 268
f 55 294 29
f 294 55 26
f 269 66 267
f 66 269 64
f 294 286 283
f 286 294 293
f 20 310 83
f 310 20 311
f 83 262 18
f 262 83 310
f 29 283 27
f 283 29 294
f 301 306 312
f 306 301 300
f 313 314 315
f 314 313 316
f 316 313 317
f 306 273 31
f 273 306 271
f 82 64 269
f 64 82 81
f 318 319 320
f 319 318 321
f 285 288 287
f 288 285 284
f 3 322 54
f 322 3 2
f 265 323 324
f 323 265 264
f 289 287 300
f 287 289 285
f 305 265 303
f 265 305 263
f 262 61 261
f 61 262 58
f 281 297 325
f 297 281 295
f 303 324 282
f 324 303 265
f 264 261 323
f 261 264 16
f 290 309 80
f 309 290 308
f 31 276 32
f 276 31 273
f 37 325 35
f 325 37 281
f 318 326 321
f 326 318 327
f 328 304 308
f 304 328 302
f 24 322 22
f 322 24 54
f 165 49 175
f 49 165 47
f 22 311 20
f 311 22 322
f 298 60 296
f 60 298 61
f 329 330 331
f 330 329 332
f 35 333 334
f 333 35 325
f 65 62 66
f 62 65 335
f 331 336 337
f 336 331 330
f 152 72 164
f 72 152 153
f 28 289 299
f 289 28 27
f 78 307 81
f 307 78 79
f 228 338 235
f 338 228 339
f 340 341 342
f 341 340 343
f 57 344 60
f 344 57 345
f 346 347 348
f 347 346 349
f 327 315 326
f 315 327 313
f 67 350 65
f 350 67 351
f 352 206 247
f 206 352 353
f 226 354 233
f 354 226 355
f 79 356 307
f 356 79 348
f 357 358 333
f 358 357 359
f 36 334 346
f 334 36 35
f 297 360 357
f 360 297 296
f 361 362 338
f 362 361 363
f 364 365 366
f 365 364 367
f 368 369 238
f 369 368 370
f 217 339 228
f 339 217 366
f 348 371 356
f 371 348 347
f 345 372 344
f 372 345 373
f 219 374 210
f 374 219 375
f 59 345 57
f 345 59 376
f 14 376 59
f 376 14 314
f 375 377 374
f 377 375 378
f 330 379 336
f 379 330 380
f 350 335 65
f 335 350 381
f 382 383 384
f 383 382 385
f 238 216 139
f 216 238 369
f 369 220 216
f 220 369 386
f 251 387 249
f 387 251 388
f 351 256 350
f 256 351 389
f 256 389 390
f 315 14 4
f 14 315 314
f 334 349 346
f 349 334 391
f 326 4 1
f 4 326 315
f 374 392 393
f 392 374 377
f 321 1 9
f 1 321 326
f 385 33 383
f 33 385 312
f 376 373 345
f 373 376 394
f 205 388 251
f 388 205 395
f 393 367 364
f 367 393 392
f 325 357 333
f 357 325 297
f 336 385 382
f 385 336 379
f 307 351 67
f 351 307 356
f 210 393 209
f 393 210 374
f 353 396 395
f 396 353 397
f 79 346 348
f 346 79 36
f 370 386 369
f 386 370 398
f 387 222 249
f 222 387 229
f 360 359 357
f 359 360 399
f 356 389 351
f 389 356 371
f 400 33 30
f 33 400 383
f 332 380 330
f 380 332 401
f 363 352 362
f 352 363 402
f 337 382 403
f 382 337 336
f 355 404 354
f 404 355 405
f 403 384 406
f 384 403 382
f 407 383 400
f 383 407 384
f 408 409 410
f 409 408 411
f 380 301 379
f 301 380 299
f 321 11 319
f 11 321 9
f 402 353 352
f 353 402 397
f 381 400 335
f 400 381 407
f 388 410 387
f 410 388 412
f 296 344 360
f 344 296 60
f 339 361 338
f 361 339 413
f 319 401 332
f 401 319 11
f 209 364 218
f 364 209 393
f 414 415 416
f 415 414 417
f 218 366 217
f 366 218 364
f 418 52 419
f 52 418 50
f 391 420 349
f 420 391 421
f 6 244 243
f 244 6 422
f 362 247 234
f 247 362 352
f 423 424 425
f 424 423 426
f 257 427 428
f 427 257 429
f 157 430 431
f 430 157 179
f 257 88 429
f 88 257 87
f 432 246 252
f 246 432 342
f 433 434 435
f 434 433 436
f 437 97 253
f 97 437 113
f 429 231 438
f 231 429 88
f 439 215 440
f 215 439 96
f 317 248 316
f 248 317 151
f 39 203 292
f 203 39 68
f 441 117 442
f 117 441 115
f 174 443 444
f 443 174 173
f 338 234 235
f 234 338 362
f 445 446 447
f 446 445 448
f 173 449 443
f 449 173 211
f 206 395 205
f 395 206 353
f 245 191 450
f 191 245 119
f 451 96 439
f 96 451 86
f 429 406 427
f 406 429 438
f 452 453 454
f 453 452 455
f 160 456 457
f 456 160 159
f 185 458 459
f 458 185 187
f 386 219 220
f 219 386 375
f 179 460 430
f 460 179 181
f 395 412 388
f 412 395 396
f 366 413 339
f 413 366 365
f 214 461 462
f 461 214 200
f 442 114 113
f 114 442 117
f 342 227 246
f 227 342 341
f 456 115 441
f 115 456 159
f 181 463 460
f 463 181 198
f 450 50 418
f 50 450 191
f 464 91 465
f 91 464 89
f 254 157 431
f 157 254 99
f 145 457 143
f 457 145 160
f 420 440 466
f 440 420 439
f 135 237 248
f 237 135 134
f 200 464 461
f 464 200 89
f 467 468 469
f 468 467 470
f 471 197 455
f 197 471 472
f 410 229 387
f 229 410 409
f 215 255 440
f 255 215 112
f 398 375 386
f 375 398 378
f 419 86 451
f 86 419 52
f 462 331 449
f 331 462 329
f 409 230 229
f 230 409 425
f 473 419 474
f 419 473 418
f 475 450 476
f 450 475 245
f 233 368 238
f 368 233 354
f 424 252 250
f 252 424 432
f 227 355 226
f 355 227 341
f 149 256 390
f 256 149 148
f 198 459 463
f 459 198 185
f 425 250 230
f 250 425 424
f 421 439 420
f 439 421 451
f 477 342 432
f 342 477 340
f 478 479 480
f 479 478 481
f 482 483 484
f 483 482 485
f 486 487 488
f 487 486 489
f 474 451 421
f 451 474 419
f 490 491 492
f 491 490 493
f 494 495 496
f 495 494 497
f 493 498 491
f 498 493 499
f 464 320 461
f 320 464 318
f 479 489 486
f 489 479 500
f 359 474 358
f 474 359 473
f 466 371 347
f 371 466 501
f 502 503 504
f 503 502 505
f 506 507 508
f 507 506 509
f 485 510 483
f 510 485 511
f 512 513 514
f 513 512 515
f 516 497 494
f 497 516 517
f 465 313 327
f 313 465 317
f 518 519 520
f 519 518 521
f 522 523 524
f 523 522 525
f 195 526 193
f 526 195 527
f 372 476 399
f 476 372 475
f 468 525 522
f 525 468 470
f 528 529 530
f 529 528 531
f 532 529 533
f 529 532 530
f 534 516 535
f 516 534 536
f 314 394 376
f 394 314 316
f 394 316 537
f 538 469 539
f 469 538 467
f 504 509 506
f 509 504 503
f 502 540 505
f 540 502 480
f 531 541 529
f 541 531 542
f 543 515 512
f 515 543 544
f 533 541 545
f 541 533 529
f 483 531 528
f 531 483 510
f 546 372 373
f 372 546 475
f 464 327 318
f 327 464 465
f 509 547 507
f 547 509 548
f 523 549 550
f 549 523 525
f 549 525 551
f 551 525 470
f 551 470 552
f 552 470 467
f 552 467 553
f 553 467 538
f 553 538 554
f 554 538 555
f 554 555 556
f 556 555 557
f 556 557 558
f 558 557 559
f 558 559 560
f 560 559 561
f 560 561 562
f 562 561 563
f 562 563 564
f 564 563 565
f 489 566 487
f 566 489 567
f 543 568 544
f 568 543 569
f 443 403 444
f 403 443 337
f 570 498 499
f 498 570 571
f 508 572 573
f 572 508 492
f 574 512 575
f 512 574 543
f 358 421 391
f 421 358 474
f 444 406 438
f 406 444 403
f 575 576 536
f 576 575 577
f 417 447 415
f 447 417 445
f 507 492 508
f 492 507 490
f 578 533 567
f 533 578 532
f 449 337 443
f 337 449 331
f 465 151 317
f 151 465 91
f 501 389 371
f 389 501 390
f 535 494 579
f 494 535 516
f 349 466 347
f 466 349 420
f 544 511 515
f 511 544 580
f 525 581 523
f 581 525 582
f 187 526 458
f 526 187 193
f 500 567 489
f 567 500 578
f 505 583 584
f 583 505 540
f 399 473 359
f 473 399 476
f 231 444 438
f 444 231 174
f 537 373 394
f 373 537 546
f 461 329 462
f 329 461 320
f 575 514 577
f 514 575 512
f 495 585 571
f 585 495 586
f 484 528 587
f 528 484 483
f 11 28 401
f 28 11 10
f 588 565 589
f 565 588 563
f 590 480 502
f 480 590 478
f 574 536 534
f 536 574 575
f 581 532 578
f 532 581 582
f 401 299 380
f 299 401 28
f 496 571 570
f 571 496 495
f 491 591 592
f 591 491 498
f 576 588 517
f 588 576 593
f 536 517 516
f 517 536 576
f 594 554 553
f 554 594 595
f 590 504 594
f 504 590 502
f 587 530 596
f 530 587 528
f 310 58 262
f 58 310 56
f 422 597 598
f 597 422 599
f 8 422 6
f 422 8 599
f 600 555 557
f 555 600 601
f 503 548 509
f 548 503 602
f 379 312 385
f 312 379 301
f 492 592 572
f 592 492 491
f 587 470 467
f 470 587 596
f 497 586 495
f 586 497 589
f 517 589 497
f 589 517 588
f 586 562 585
f 562 586 564
f 549 478 551
f 478 549 481
f 577 600 603
f 600 577 514
f 603 561 593
f 561 603 559
f 540 488 583
f 488 540 486
f 513 482 601
f 482 513 485
f 595 508 573
f 508 595 506
f 592 560 558
f 560 592 591
f 604 578 500
f 578 604 581
f 323 61 298
f 61 323 261
f 311 56 310
f 56 311 13
f 590 553 552
f 553 590 594
f 571 591 498
f 591 571 585
f 335 30 62
f 30 335 400
f 585 560 591
f 560 585 562
f 484 467 538
f 467 484 587
f 480 486 540
f 486 480 479
f 594 506 595
f 506 594 504
f 515 485 513
f 485 515 511
f 481 500 479
f 500 481 604
f 550 481 549
f 481 550 604
f 589 564 586
f 564 589 565
f 582 530 532
f 530 582 596
f 605 570 606
f 570 605 496
f 603 557 559
f 557 603 600
f 470 582 525
f 582 470 596
f 577 593 576
f 593 577 603
f 572 558 556
f 558 572 592
f 514 601 600
f 601 514 513
f 324 298 295
f 298 324 323
f 309 37 34
f 37 309 280
f 12 29 10
f 29 12 55
f 282 295 281
f 295 282 324
f 260 103 152
f 103 260 292
f 482 539 607
f 539 482 538
f 538 482 484
f 547 490 507
f 490 547 608
f 523 604 550
f 604 523 581
f 551 590 552
f 590 551 478
f 567 545 566
f 545 567 533
f 609 445 417
f 445 609 610
f 611 552 612
f 552 611 551
f 553 613 614
f 613 553 554
f 268 615 291
f 615 268 616
f 80 34 78
f 34 80 309
f 260 164 258
f 164 260 152
f 291 617 290
f 617 291 615
f 40 292 260
f 292 40 39
f 524 550 618
f 550 524 523
f 619 560 408
f 560 619 558
f 8 620 599
f 620 8 621
f 622 623 624
f 436 625 434
f 625 436 626
f 343 557 405
f 557 343 559
f 396 619 412
f 619 396 627
f 455 42 453
f 42 455 197
f 628 471 629
f 471 628 259
f 63 270 267
f 270 63 275
f 630 417 414
f 417 630 609
f 593 563 588
f 563 593 561
f 240 416 239
f 416 240 631
f 632 633 634
f 633 632 635
f 166 519 196
f 519 166 446
f 617 308 290
f 308 617 328
f 434 632 634
f 632 434 625
f 213 636 212
f 636 213 435
f 635 414 633
f 414 635 630
f 637 518 638
f 518 637 454
f 472 175 197
f 175 472 165
f 208 639 207
f 639 208 598
f 258 165 472
f 165 258 164
f 638 520 640
f 520 638 518
f 624 641 642
f 599 622 597
f 622 599 620
f 244 598 208
f 598 244 422
f 539 398 370
f 398 539 469
f 629 455 452
f 455 629 471
f 643 454 637
f 454 643 452
f 71 241 204
f 241 71 7
f 232 433 221
f 433 232 644
f 622 624 597
f 624 623 641
f 598 624 639
f 624 598 597
f 642 626 436
f 626 642 641
f 639 642 644
f 642 639 624
f 167 446 166
f 446 167 447
f 563 426 565
f 426 563 477
f 239 415 242
f 415 239 416
f 645 520 448
f 520 645 640
f 521 196 519
f 196 521 44
f 7 243 241
f 243 7 6
f 207 644 232
f 644 207 639
f 426 432 424
f 432 426 477
f 453 44 521
f 44 453 42
f 2 311 322
f 311 2 13
f 221 435 213
f 435 221 433
f 378 522 377
f 522 378 468
f 610 448 445
f 448 610 645
f 212 631 240
f 631 212 636
f 38 259 628
f 259 38 40
f 454 521 518
f 521 454 453
f 312 31 33
f 31 312 306
f 242 447 167
f 447 242 415
f 623 646 641
f 646 623 622
f 607 370 368
f 370 607 539
f 427 384 407
f 384 427 406
f 122 647 202
f 647 122 648
f 565 423 564
f 423 565 426
f 354 607 368
f 607 354 404
f 561 477 563
f 477 561 340
f 277 437 279
f 437 277 649
f 126 650 124
f 650 126 651
f 431 328 617
f 328 431 430
f 128 651 126
f 651 128 652
f 412 408 410
f 408 412 619
f 562 408 560
f 408 562 411
f 367 653 365
f 653 367 618
f 278 649 277
f 649 278 654
f 457 655 656
f 655 457 456
f 612 363 361
f 363 612 614
f 654 442 649
f 442 654 441
f 627 558 619
f 558 627 556
f 613 397 402
f 397 613 657
f 411 425 409
f 425 411 423
f 435 634 636
f 634 435 434
f 616 254 615
f 254 616 253
f 404 482 607
f 482 404 555
f 482 555 601
f 293 658 286
f 658 293 659
f 469 378 398
f 378 469 468
f 458 17 266
f 17 458 526
f 430 302 328
f 302 430 460
f 202 527 195
f 527 202 647
f 614 402 363
f 402 614 613
f 650 21 648
f 21 650 19
f 651 19 650
f 19 651 25
f 225 660 658
f 660 225 144
f 448 519 446
f 519 448 520
f 341 405 355
f 405 341 343
f 655 441 654
f 441 655 456
f 657 556 627
f 556 657 573
f 556 573 572
f 413 612 361
f 612 413 611
f 68 204 203
f 204 68 71
f 653 551 611
f 551 653 549
f 648 84 647
f 84 648 21
f 652 25 651
f 25 652 23
f 365 611 413
f 611 365 653
f 128 659 652
f 659 128 146
f 552 614 612
f 614 552 553
f 124 648 122
f 648 124 650
f 286 660 284
f 660 286 658
f 284 661 288
f 661 284 660
f 392 618 367
f 618 392 524
f 634 631 636
f 631 634 633
f 259 472 471
f 472 259 258
f 633 416 631
f 416 633 414
f 270 616 268
f 616 270 279
f 615 431 617
f 431 615 254
f 554 657 613
f 657 554 573
f 573 554 595
f 647 15 527
f 15 647 84
f 274 655 272
f 655 274 656
f 397 627 396
f 627 397 657
f 405 555 404
f 555 405 557
f 559 340 561
f 340 559 343
f 618 549 653
f 549 618 550
f 564 411 562
f 411 564 423
f 377 524 392
f 524 377 522
f 359 391 358
f 391 359 399
f 391 399 349
f 349 399 372
f 349 372 347
f 347 372 373
f 347 373 371
f 371 373 394
f 371 394 389
f 389 394 313
f 389 313 428
f 428 313 327
f 428 327 427
f 427 327 318
f 427 318 406
f 406 318 320
f 406 320 403
f 403 320 329
f 403 329 337
f 337 329 331
f 644 436 433
f 436 644 642
f 146 658 659
f 658 146 225
f 649 113 437
f 113 649 442
f 510 542 531
f 542 510 662
f 38 663 41
f 663 38 664
f 545 640 645
f 640 545 541
f 662 638 542
f 638 662 637
f 568 452 643
f 452 568 629
f 211 462 449
f 462 211 214
f 5 621 8
f 621 5 665
f 487 610 609
f 610 487 566
f 320 332 329
f 332 320 319
f 23 659 293
f 659 23 652
f 279 253 616
f 253 279 437
f 256 381 350
f 381 256 428
f 428 256 257
f 144 661 660
f 661 144 143
f 460 305 302
f 305 460 463
f 143 656 661
f 656 143 457
f 428 407 381
f 407 428 427
f 542 640 541
f 640 542 638
f 236 475 546
f 475 236 245
f 666 605 665
f 605 666 579
f 663 535 667
f 535 663 534
f 459 266 263
f 266 459 458
f 255 390 501
f 390 255 149
f 527 17 526
f 17 527 15
f 333 391 334
f 391 333 358
f 272 654 278
f 654 272 655
f 511 662 510
f 662 511 580
f 463 263 305
f 263 463 459
f 248 537 316
f 537 248 237
f 583 630 635
f 630 583 488
f 579 496 605
f 496 579 494
f 620 668 622
f 668 620 669
f 237 546 537
f 546 237 236
f 344 399 360
f 399 344 372
f 574 569 543
f 569 574 664
f 288 656 274
f 656 288 661
f 621 669 620
f 669 621 606
f 664 628 569
f 628 664 38
f 664 534 663
f 534 664 574
f 569 629 568
f 629 569 628
f 41 667 69
f 667 41 663
f 440 501 466
f 501 440 255
f 668 499 493
f 499 668 669
f 606 499 669
f 499 606 570
f 505 602 503
f 602 505 584
f 580 637 662
f 637 580 643
f 584 635 632
f 635 584 583
f 667 579 666
f 579 667 535
f 488 609 630
f 609 488 487
f 641 548 626
f 548 641 547
f 476 418 473
f 418 476 450
f 544 643 580
f 643 544 568
f 625 584 632
f 584 625 602
f 646 547 641
f 547 646 608
f 626 602 625
f 602 626 548
f 665 606 621
f 606 665 605
f 608 493 490
f 493 608 668
f 622 608 646
f 608 622 668
f 70 665 5
f 665 70 666
f 566 645 610
f 645 566 545
f 69 666 70
f 666 69 667
