# columna-sup-ttp.obj (EXERSUITE3D, cm)
v 46.802 5.009 -3.523
v 46.802 -9.991 3.523
v 46.802 5.009 3.523
v 46.802 -9.991 -3.523
v 47.005 -9.991 -3.523
v 47.005 -9.991 3.523
v 47.005 9.820 -3.352
v -46.805 9.820 3.352
v -46.805 9.820 -3.352
v 47.005 9.820 3.352
v -46.805 5.180 -3.352
v 47.005 5.180 -3.352
v -47.005 9.991 -3.523
v -46.805 -9.991 -3.523
v -47.005 -9.991 -3.523
v -46.805 5.009 -3.523
v 47.005 9.991 -3.523
v -46.805 5.180 3.352
v 47.005 9.991 3.523
v -46.805 5.009 3.523
v -47.005 -9.991 3.523
v -46.805 -9.991 3.523
v -47.005 9.991 3.523
v 47.005 5.180 3.352
f 1 2 3
f 2 1 4
f 5 2 4
f 2 5 6
f 7 8 9
f 8 7 10
f 7 11 12
f 11 7 9
f 13 14 15
f 14 13 16
f 1 5 4
f 5 1 17
f 17 1 16
f 17 16 13
f 11 8 18
f 8 11 9
f 19 2 6
f 2 19 3
f 3 19 20
f 20 21 22
f 21 20 23
f 23 20 19
f 6 24 19
f 24 6 5
f 24 5 12
f 12 5 7
f 19 10 17
f 10 19 24
f 17 10 7
f 17 7 5
f 24 11 18
f 11 24 12
f 13 21 23
f 21 13 15
f 8 24 18
f 24 8 10
f 19 13 23
f 13 19 17
f 1 20 16
f 20 1 3
f 22 16 20
f 16 22 14
f 14 21 15
f 21 14 22
