# jota con rodillo POWERRACK (cm, centrado; reorientada como j-hook: brazo a lo largo de Z)
v -3.5020 2.5320 6.7000
v -0.5220 6.5090 6.7000
v -0.5220 2.5320 6.7000
v -3.5020 6.5090 6.7000
v 0.9440 0.5850 7.7000
v 0.9440 0.0670 7.7000
v 0.9790 0.3260 7.7000
v 0.8450 0.8260 7.7000
v 0.8450 -0.1740 7.7000
v 0.6860 1.0330 7.7000
v 0.6860 -0.3810 7.7000
v 0.4790 1.1920 7.7000
v 0.4790 -0.5400 7.7000
v 0.2370 1.2920 7.7000
v 0.2370 -0.6400 7.7000
v -0.0210 1.3260 7.7000
v -0.0210 -0.6740 7.7000
v -0.2800 1.2920 7.7000
v -0.2800 -0.6400 7.7000
v -0.5210 1.1920 7.7000
v -0.5210 -0.5400 7.7000
v -0.7290 1.0330 7.7000
v -0.7290 -0.3810 7.7000
v -0.8870 0.8260 7.7000
v -0.8870 -0.1740 7.7000
v -0.9870 0.5850 7.7000
v -0.9870 0.0670 7.7000
v -1.0210 0.3260 7.7000
v -3.6970 6.5090 6.8970
v -0.5220 2.5320 6.8970
v -0.5220 6.5090 6.8970
v -3.6970 2.5320 6.8970
v -3.6970 2.5320 -0.5000
v -3.6970 6.5090 -0.5000
v 3.4980 6.5090 -0.5000
v -3.5020 6.5090 -0.3000
v 3.4980 6.5090 -0.3000
v 3.6970 -2.5160 -0.5000
v 3.6970 -6.5090 6.8960
v 3.6970 -6.5090 -0.5000
v 3.6970 -2.5160 6.8960
v -3.5020 -6.5090 -0.5000
v 3.4980 -6.5090 -0.3000
v -3.5020 -6.5090 -0.3000
v 0.5030 -6.5090 6.7000
v 0.5030 -6.5090 6.8960
v 3.4980 -6.5090 6.7000
v 1.9460 -6.5090 -0.5000
v -1.7520 -6.5090 -0.5000
v -1.9510 -6.5090 -0.5000
v 1.7480 -6.5090 -0.5000
v 0.5030 -2.5160 6.8960
v 3.4980 -2.5160 6.7000
v 3.4980 -2.5160 -0.3000
v 3.4980 -2.5160 -0.5000
v 0.5030 -2.5160 6.7000
v -3.5020 2.5320 -0.3000
v 3.4980 -1.6860 -0.5000
v 3.4980 -1.3880 -0.5000
v 3.4980 -1.4910 -0.6050
v 3.4980 -1.6860 -6.5000
v 3.4980 -1.4910 -6.4980
v 3.4980 -1.4910 -6.7000
v 3.4980 2.5090 -7.4980
v 3.4980 2.5090 -7.7000
v -0.5210 -0.5400 -0.3000
v -0.2800 -0.6400 -0.3000
v -0.7290 -0.3810 -0.3000
v -0.8870 -0.1740 -0.3000
v -0.9870 0.0670 -0.3000
v -1.0210 0.3260 -0.3000
v -0.9870 0.5850 -0.3000
v -0.8870 0.8260 -0.3000
v -0.7290 1.0330 -0.3000
v -0.5210 1.1920 -0.3000
v -0.2800 1.2920 -0.3000
v -0.0210 1.3260 -0.3000
v 0.2370 1.2920 -0.3000
v 0.4790 1.1920 -0.3000
v 0.6860 1.0330 -0.3000
v 0.8450 0.8260 -0.3000
v 0.9440 0.5850 -0.3000
v 0.9790 0.3260 -0.3000
v 0.9440 0.0670 -0.3000
v 0.8450 -0.1740 -0.3000
v 0.6860 -0.3810 -0.3000
v 0.4790 -0.5400 -0.3000
v 0.2370 -0.6400 -0.3000
v -0.0210 -0.6740 -0.3000
v 1.9460 -1.6860 -0.5000
v -3.5020 -1.4910 -6.7000
v -1.9510 -1.6860 -6.5000
v -3.5020 -1.6860 -6.5000
v -1.7520 -1.6860 -6.5000
v 1.7480 -1.6860 -6.5000
v 1.9460 -1.6860 -6.5000
v -3.5020 2.5090 -7.4980
v -3.5020 2.5090 -7.7000
v -3.5020 -1.4910 -6.4980
v -1.9510 -1.6860 -0.5000
v -3.5020 -1.6860 -0.5000
v 1.7480 -1.6860 -0.5000
v -1.7520 -1.6860 -0.5000
v -3.5020 2.5320 -0.5000
v -3.5020 -1.3880 -0.5000
v -3.5020 -1.4910 -0.6050
f 1 2 3
f 2 1 4
f 5 6 7
f 6 5 8
f 6 8 9
f 9 8 10
f 9 10 11
f 11 10 12
f 11 12 13
f 13 12 14
f 13 14 15
f 15 14 16
f 15 16 17
f 17 16 18
f 17 18 19
f 19 18 20
f 19 20 21
f 21 20 22
f 21 22 23
f 23 22 24
f 23 24 25
f 25 24 26
f 25 26 27
f 27 26 28
f 29 30 31
f 30 29 32
f 2 30 3
f 30 2 31
f 29 33 32
f 33 29 34
f 35 36 37
f 2 29 31
f 29 2 4
f 29 4 34
f 34 4 36
f 34 36 35
f 38 39 40
f 39 38 41
f 42 43 44
f 45 39 46
f 39 45 47
f 39 47 40
f 40 47 43
f 40 43 48
f 48 43 42
f 48 42 49
f 49 42 50
f 48 49 51
f 52 39 41
f 39 52 46
f 41 53 52
f 53 41 38
f 53 38 54
f 54 38 55
f 56 52 53
f 52 45 46
f 45 52 56
f 36 1 57
f 1 36 4
f 53 43 47
f 43 53 54
f 37 55 54
f 55 37 58
f 58 37 59
f 58 59 60
f 58 60 61
f 59 37 35
f 61 62 63
f 62 61 60
f 63 62 64
f 63 64 65
f 66 19 21
f 19 66 67
f 68 21 23
f 21 68 66
f 23 69 68
f 69 23 25
f 25 70 69
f 70 25 27
f 27 71 70
f 71 27 28
f 28 72 71
f 72 28 26
f 26 73 72
f 73 26 24
f 24 74 73
f 74 24 22
f 75 22 20
f 22 75 74
f 76 20 18
f 20 76 75
f 77 18 16
f 18 77 76
f 78 16 14
f 16 78 77
f 79 14 12
f 14 79 78
f 80 12 10
f 12 80 79
f 80 8 81
f 8 80 10
f 81 5 82
f 5 81 8
f 82 7 83
f 7 82 5
f 83 6 84
f 6 83 7
f 84 9 85
f 9 84 6
f 85 11 86
f 11 85 9
f 87 11 13
f 11 87 86
f 88 13 15
f 13 88 87
f 89 15 17
f 15 89 88
f 67 17 19
f 17 67 89
f 47 56 53
f 56 47 45
f 90 55 58
f 55 40 38
f 40 55 48
f 48 55 90
f 91 92 93
f 92 91 94
f 94 91 95
f 95 91 96
f 96 91 61
f 61 91 63
f 58 96 90
f 96 58 61
f 65 97 64
f 97 65 98
f 97 62 64
f 62 97 99
f 91 65 63
f 65 91 98
f 42 100 50
f 100 42 101
f 102 48 90
f 48 102 51
f 51 102 103
f 51 103 49
f 49 103 100
f 49 100 50
f 96 102 90
f 102 96 103
f 103 96 100
f 100 96 92
f 92 96 95
f 92 95 94
f 95 51 102
f 93 100 101
f 100 93 92
f 94 103 49
f 92 50 100
f 92 49 50
f 49 92 94
f 96 90 48
f 95 48 51
f 48 95 96
f 32 1 30
f 1 32 33
f 1 33 57
f 57 33 104
f 3 30 1
f 105 35 59
f 35 105 104
f 104 34 35
f 34 104 33
f 62 106 60
f 106 62 99
f 44 54 43
f 54 44 85
f 54 85 84
f 54 84 37
f 37 84 83
f 85 44 86
f 86 44 87
f 87 44 88
f 88 44 89
f 89 44 67
f 67 44 66
f 66 44 68
f 68 44 69
f 69 44 70
f 70 44 71
f 37 81 36
f 81 37 82
f 82 37 83
f 36 81 80
f 36 80 79
f 36 79 78
f 36 78 77
f 36 77 76
f 36 76 75
f 36 75 74
f 36 74 73
f 36 73 72
f 36 72 71
f 36 71 44
f 36 44 57
f 60 105 59
f 105 60 106
f 57 42 44
f 42 57 101
f 101 57 105
f 101 105 106
f 101 106 93
f 105 57 104
f 93 99 91
f 99 93 106
f 91 99 97
f 91 97 98
