# liston-pr.obj (EXERSUITE3D, cm)
v -3.500 -2.500 53.000
v -3.304 -2.304 53.000
v -3.500 2.500 53.000
v 3.500 -2.500 53.000
v 3.304 -2.304 53.000
v 3.304 2.304 53.000
v -3.304 2.304 53.000
v 3.500 2.500 53.000
v -1.769 2.500 -51.000
v 1.621 2.500 -50.980
v 1.753 2.500 -51.003
v -1.638 2.500 -50.982
v -1.515 2.500 -50.932
v 1.500 2.500 -50.924
v -1.410 2.500 -50.851
v 1.397 2.500 -50.839
v -1.329 2.500 -50.745
v 1.320 2.500 -50.730
v -1.278 2.500 -50.623
v 1.274 2.500 -50.604
v -1.261 2.500 -50.491
v 1.261 2.500 -50.471
v -1.278 2.500 -50.359
v 1.284 2.500 -50.339
v -1.329 2.500 -50.237
v 1.340 2.500 -50.218
v -1.410 2.500 -50.131
v 1.425 2.500 -50.115
v -1.515 2.500 -50.051
v 1.535 2.500 -50.038
v -1.638 2.500 -50.000
v 1.660 2.500 -49.992
v -1.769 2.500 -49.982
v 1.793 2.500 -49.979
v -1.764 2.500 50.033
v 1.605 2.500 50.038
v 1.732 2.500 50.010
v -1.637 2.500 50.046
v 1.490 2.500 50.097
v -1.518 2.500 50.091
v -1.415 2.500 50.166
v 1.394 2.500 50.184
v -1.335 2.500 50.264
v 1.324 2.500 50.293
v -1.283 2.500 50.380
v 1.285 2.500 50.417
v -1.262 2.500 50.506
v 1.279 2.500 50.546
v -1.275 2.500 50.633
v 1.306 2.500 50.673
v -1.321 2.500 50.752
v 1.365 2.500 50.788
v -1.395 2.500 50.855
v 1.453 2.500 50.884
v -1.494 2.500 50.935
v 1.562 2.500 50.954
v -1.610 2.500 50.987
v 1.685 2.500 50.993
v -1.736 2.500 51.008
v 1.814 2.500 50.999
v -3.500 2.500 -53.000
v -1.901 2.500 -50.982
v -2.024 2.500 -50.932
v -2.129 2.500 -50.851
v -2.210 2.500 -50.745
v -2.261 2.500 -50.623
v -2.278 2.500 -50.491
v -2.261 2.500 -50.359
v -2.210 2.500 -50.237
v -2.129 2.500 -50.131
v -2.024 2.500 -50.051
v -1.901 2.500 -50.000
v -2.179 2.500 50.289
v -2.105 2.500 50.186
v -2.006 2.500 50.105
v -1.890 2.500 50.053
v -2.224 2.500 50.408
v -2.237 2.500 50.534
v -2.217 2.500 50.660
v -2.165 2.500 50.776
v -2.084 2.500 50.875
v -1.981 2.500 50.949
v -1.862 2.500 50.995
v 3.500 2.500 -53.000
v 2.285 2.500 -50.511
v 2.262 2.500 -50.643
v 2.206 2.500 -50.764
v 2.121 2.500 -50.867
v 2.012 2.500 -50.944
v 1.886 2.500 -50.991
v 2.273 2.500 -50.378
v 2.226 2.500 -50.253
v 2.149 2.500 -50.143
v 2.046 2.500 -50.058
v 1.925 2.500 -50.002
v 2.240 2.500 50.337
v 2.181 2.500 50.222
v 2.094 2.500 50.126
v 1.985 2.500 50.056
v 1.861 2.500 50.016
v 2.268 2.500 50.463
v 2.262 2.500 50.593
v 2.222 2.500 50.716
v 2.152 2.500 50.825
v 2.056 2.500 50.912
v 1.941 2.500 50.972
v -3.500 -2.500 -53.000
v 3.500 -2.500 -53.000
v -3.304 2.304 -53.000
v 3.304 2.304 -53.000
v 3.304 -2.304 -53.000
v -3.304 -2.304 -53.000
v 1.621 2.304 -50.980
v -1.769 2.304 -51.000
v 1.753 2.304 -51.003
v -1.638 2.304 -50.982
v -1.515 2.304 -50.932
v 1.500 2.304 -50.924
v -1.410 2.304 -50.851
v 1.397 2.304 -50.839
v -1.329 2.304 -50.745
v 1.320 2.304 -50.730
v -1.278 2.304 -50.623
v 1.274 2.304 -50.604
v -1.261 2.304 -50.491
v 1.261 2.304 -50.471
v -1.278 2.304 -50.359
v 1.284 2.304 -50.339
v -1.329 2.304 -50.237
v 1.340 2.304 -50.218
v -1.410 2.304 -50.131
v 1.425 2.304 -50.115
v -1.515 2.304 -50.051
v 1.535 2.304 -50.038
v -1.638 2.304 -50.000
v 1.660 2.304 -49.992
v -1.769 2.304 -49.982
v 1.793 2.304 -49.979
v 2.012 2.304 -50.944
v 2.121 2.304 -50.867
v 2.206 2.304 -50.764
v 2.262 2.304 -50.643
v 2.285 2.304 -50.511
v 1.886 2.304 -50.991
v 2.273 2.304 -50.378
v 2.226 2.304 -50.253
v 2.149 2.304 -50.143
v 2.046 2.304 -50.058
v 1.925 2.304 -50.002
v 2.240 2.304 50.337
v 2.181 2.304 50.222
v 2.094 2.304 50.126
v 1.985 2.304 50.056
v 1.861 2.304 50.016
v 1.732 2.304 50.010
v 2.268 2.304 50.463
v 2.262 2.304 50.593
v 2.222 2.304 50.716
v 2.152 2.304 50.825
v 2.056 2.304 50.912
v 1.941 2.304 50.972
v 1.814 2.304 50.999
v -1.736 2.304 51.008
v -2.278 2.304 -50.491
v -2.261 2.304 -50.623
v -2.210 2.304 -50.745
v -2.129 2.304 -50.851
v -2.024 2.304 -50.932
v -1.901 2.304 -50.982
v -2.261 2.304 -50.359
v -2.210 2.304 -50.237
v -2.129 2.304 -50.131
v -2.024 2.304 -50.051
v -1.901 2.304 -50.000
v -2.179 2.304 50.289
v -2.105 2.304 50.186
v -2.006 2.304 50.105
v -1.890 2.304 50.053
v -1.764 2.304 50.033
v -2.224 2.304 50.408
v -2.237 2.304 50.534
v -2.217 2.304 50.660
v -2.165 2.304 50.776
v -2.084 2.304 50.875
v -1.981 2.304 50.949
v -1.862 2.304 50.995
v 1.605 2.304 50.038
v -1.637 2.304 50.046
v 1.490 2.304 50.097
v -1.518 2.304 50.091
v -1.415 2.304 50.166
v 1.394 2.304 50.184
v -1.335 2.304 50.264
v 1.324 2.304 50.293
v -1.283 2.304 50.380
v 1.285 2.304 50.417
v -1.262 2.304 50.506
v 1.279 2.304 50.546
v -1.275 2.304 50.633
v 1.306 2.304 50.673
v -1.321 2.304 50.752
v 1.365 2.304 50.788
v -1.395 2.304 50.855
v 1.453 2.304 50.884
v -1.494 2.304 50.935
v 1.562 2.304 50.954
v -1.610 2.304 50.987
v 1.685 2.304 50.993
f 1 2 3
f 2 1 4
f 2 4 5
f 5 4 6
f 3 7 8
f 7 3 2
f 8 7 6
f 8 6 4
f 9 10 11
f 10 9 12
f 10 12 13
f 10 13 14
f 14 13 15
f 14 15 16
f 16 15 17
f 16 17 18
f 18 17 19
f 18 19 20
f 20 19 21
f 20 21 22
f 22 21 23
f 22 23 24
f 24 23 25
f 24 25 26
f 26 25 27
f 26 27 28
f 28 27 29
f 28 29 30
f 30 29 31
f 30 31 32
f 32 31 33
f 32 33 34
f 35 36 37
f 36 35 38
f 36 38 39
f 39 38 40
f 39 40 41
f 39 41 42
f 42 41 43
f 42 43 44
f 44 43 45
f 44 45 46
f 46 45 47
f 46 47 48
f 48 47 49
f 48 49 50
f 50 49 51
f 50 51 52
f 52 51 53
f 52 53 54
f 54 53 55
f 54 55 56
f 56 55 57
f 56 57 58
f 58 57 59
f 58 59 60
f 61 9 11
f 9 61 62
f 62 61 63
f 63 61 64
f 64 61 65
f 65 61 66
f 66 61 67
f 67 61 3
f 67 3 68
f 68 3 69
f 69 3 70
f 70 3 71
f 71 3 72
f 72 3 33
f 33 3 34
f 34 3 73
f 34 73 74
f 34 74 75
f 34 75 76
f 34 76 35
f 34 35 37
f 73 3 77
f 77 3 78
f 78 3 79
f 79 3 80
f 80 3 81
f 81 3 82
f 82 3 83
f 83 3 59
f 84 85 8
f 85 84 86
f 86 84 87
f 87 84 88
f 88 84 89
f 89 84 61
f 89 61 90
f 90 61 11
f 8 85 91
f 8 91 92
f 8 92 93
f 8 93 94
f 8 94 95
f 8 95 34
f 8 34 96
f 96 34 97
f 97 34 98
f 98 34 99
f 99 34 100
f 100 34 37
f 8 96 101
f 8 101 102
f 8 102 103
f 8 103 104
f 8 104 105
f 8 105 106
f 8 106 60
f 8 60 59
f 8 59 3
f 3 107 1
f 107 3 61
f 4 107 108
f 107 4 1
f 61 109 107
f 109 61 84
f 109 84 110
f 110 84 111
f 107 112 108
f 112 107 109
f 108 112 111
f 108 111 84
f 84 4 108
f 4 84 8
f 113 114 115
f 114 113 116
f 116 113 117
f 117 113 118
f 117 118 119
f 119 118 120
f 119 120 121
f 121 120 122
f 121 122 123
f 123 122 124
f 123 124 125
f 125 124 126
f 125 126 127
f 127 126 128
f 127 128 129
f 129 128 130
f 129 130 131
f 131 130 132
f 131 132 133
f 133 132 134
f 133 134 135
f 135 134 136
f 135 136 137
f 137 136 138
f 110 139 109
f 139 110 140
f 140 110 141
f 141 110 142
f 142 110 143
f 143 110 6
f 109 139 144
f 109 144 115
f 143 6 145
f 145 6 146
f 146 6 147
f 147 6 148
f 148 6 149
f 149 6 138
f 138 6 150
f 138 150 151
f 138 151 152
f 138 152 153
f 138 153 154
f 138 154 155
f 150 6 156
f 156 6 157
f 157 6 158
f 158 6 159
f 159 6 160
f 160 6 161
f 161 6 162
f 162 6 163
f 109 164 7
f 164 109 165
f 165 109 166
f 166 109 167
f 167 109 168
f 168 109 169
f 169 109 114
f 114 109 115
f 7 164 170
f 7 170 171
f 7 171 172
f 7 172 173
f 7 173 174
f 7 174 137
f 7 137 138
f 7 138 175
f 175 138 176
f 176 138 177
f 177 138 178
f 178 138 179
f 179 138 155
f 7 175 180
f 7 180 181
f 7 181 182
f 7 182 183
f 7 183 184
f 7 184 185
f 7 185 186
f 7 186 163
f 7 163 6
f 187 179 155
f 179 187 188
f 188 187 189
f 188 189 190
f 190 189 191
f 191 189 192
f 191 192 193
f 193 192 194
f 193 194 195
f 195 194 196
f 195 196 197
f 197 196 198
f 197 198 199
f 199 198 200
f 199 200 201
f 201 200 202
f 201 202 203
f 203 202 204
f 203 204 205
f 205 204 206
f 205 206 207
f 207 206 208
f 207 208 163
f 163 208 162
f 109 2 112
f 2 109 7
f 112 5 111
f 5 112 2
f 6 111 5
f 111 6 110
f 57 163 59
f 163 57 207
f 55 207 57
f 207 55 205
f 53 205 55
f 205 53 203
f 53 201 203
f 201 53 51
f 51 199 201
f 199 51 49
f 49 197 199
f 197 49 47
f 47 195 197
f 195 47 45
f 45 193 195
f 193 45 43
f 43 191 193
f 191 43 41
f 191 40 190
f 40 191 41
f 190 38 188
f 38 190 40
f 188 35 179
f 35 188 38
f 179 76 178
f 76 179 35
f 178 75 177
f 75 178 76
f 177 74 176
f 74 177 75
f 74 175 176
f 175 74 73
f 73 180 175
f 180 73 77
f 77 181 180
f 181 77 78
f 78 182 181
f 182 78 79
f 79 183 182
f 183 79 80
f 80 184 183
f 184 80 81
f 82 184 81
f 184 82 185
f 83 185 82
f 185 83 186
f 59 186 83
f 186 59 163
f 152 99 153
f 99 152 98
f 153 100 154
f 100 153 99
f 154 37 155
f 37 154 100
f 155 36 187
f 36 155 37
f 187 39 189
f 39 187 36
f 189 42 192
f 42 189 39
f 42 194 192
f 194 42 44
f 44 196 194
f 196 44 46
f 46 198 196
f 198 46 48
f 48 200 198
f 200 48 50
f 50 202 200
f 202 50 52
f 52 204 202
f 204 52 54
f 56 204 54
f 204 56 206
f 58 206 56
f 206 58 208
f 60 208 58
f 208 60 162
f 106 162 60
f 162 106 161
f 105 161 106
f 161 105 160
f 104 160 105
f 160 104 159
f 104 158 159
f 158 104 103
f 103 157 158
f 157 103 102
f 102 156 157
f 156 102 101
f 101 150 156
f 150 101 96
f 96 151 150
f 151 96 97
f 97 152 151
f 152 97 98
f 144 11 115
f 11 144 90
f 115 10 113
f 10 115 11
f 113 14 118
f 14 113 10
f 118 16 120
f 16 118 14
f 16 122 120
f 122 16 18
f 18 124 122
f 124 18 20
f 20 126 124
f 126 20 22
f 22 128 126
f 128 22 24
f 24 130 128
f 130 24 26
f 26 132 130
f 132 26 28
f 30 132 28
f 132 30 134
f 32 134 30
f 134 32 136
f 34 136 32
f 136 34 138
f 95 138 34
f 138 95 149
f 94 149 95
f 149 94 148
f 93 148 94
f 148 93 147
f 93 146 147
f 146 93 92
f 92 145 146
f 145 92 91
f 91 143 145
f 143 91 85
f 85 142 143
f 142 85 86
f 86 141 142
f 141 86 87
f 87 140 141
f 140 87 88
f 140 89 139
f 89 140 88
f 139 90 144
f 90 139 89
f 116 9 114
f 9 116 12
f 114 62 169
f 62 114 9
f 169 63 168
f 63 169 62
f 168 64 167
f 64 168 63
f 64 166 167
f 166 64 65
f 65 165 166
f 165 65 66
f 66 164 165
f 164 66 67
f 67 170 164
f 170 67 68
f 68 171 170
f 171 68 69
f 69 172 171
f 172 69 70
f 71 172 70
f 172 71 173
f 72 173 71
f 173 72 174
f 33 174 72
f 174 33 137
f 31 137 33
f 137 31 135
f 29 135 31
f 135 29 133
f 27 133 29
f 133 27 131
f 27 129 131
f 129 27 25
f 25 127 129
f 127 25 23
f 23 125 127
f 125 23 21
f 21 123 125
f 123 21 19
f 19 121 123
f 121 19 17
f 17 119 121
f 119 17 15
f 119 13 117
f 13 119 15
f 117 12 116
f 12 117 13
