# placa-polea-ttp.obj (EXERSUITE3D, cm)
v 9.512 -3.500 -12.756
v -9.512 -3.500 -13.000
v 9.512 -3.500 -13.000
v -3.527 -3.500 -12.767
v 3.497 -3.500 -12.756
v -3.527 -3.500 12.800
v 3.497 -3.500 12.800
v 3.497 -3.500 13.000
v -3.527 -3.500 13.000
v -9.512 -3.500 -12.767
v -9.512 -3.500 12.800
v -9.512 -3.500 13.000
v 9.512 -3.500 13.000
v 9.512 -3.500 12.800
v -3.527 1.500 12.800
v -9.512 1.500 12.800
v -3.527 1.500 -12.767
v -0.200 1.500 -9.107
v 3.497 1.500 -12.756
v -0.200 1.500 -7.107
v 0.200 1.500 -7.107
v 0.200 1.500 -9.107
v 3.497 1.500 12.800
v -3.527 1.500 13.000
v 3.497 1.500 13.000
v -9.512 1.500 -12.767
v 9.512 1.500 -13.000
v -9.512 1.500 -13.000
v 9.512 1.500 -12.756
v -9.512 1.500 13.000
v 9.512 1.500 12.800
v 9.512 1.500 13.000
v 3.311 1.314 12.800
v -3.341 -3.314 12.800
v -3.341 1.314 12.800
v 3.311 -3.314 12.800
v -3.341 1.314 -13.000
v 3.311 1.314 -13.000
v 3.311 -3.314 -13.000
v -3.341 -3.314 -13.000
v -0.200 2.500 -9.107
v 0.200 2.500 -9.107
v -0.200 2.067 -7.857
v -0.200 2.500 -7.107
v -0.200 2.017 -7.978
v -0.200 2.000 -8.107
v -0.200 2.146 -7.754
v -0.200 2.250 -7.674
v -0.200 2.371 -7.624
v -0.200 2.500 -7.607
v -0.200 2.629 -7.624
v -0.200 2.759 -7.141
v -0.200 2.750 -7.674
v -0.200 2.854 -7.754
v -0.200 3.000 -7.241
v -0.200 2.933 -7.857
v -0.200 2.983 -7.978
v -0.200 3.000 -8.107
v -0.200 3.207 -7.400
v -0.200 3.207 -8.814
v -0.200 3.366 -8.607
v -0.200 3.366 -7.607
v -0.200 3.466 -8.366
v -0.200 3.466 -7.848
v -0.200 3.500 -8.107
v -0.200 2.067 -8.357
v -0.200 2.017 -8.236
v -0.200 2.146 -8.461
v -0.200 2.250 -8.540
v -0.200 2.371 -8.590
v -0.200 2.500 -8.607
v -0.200 2.759 -9.073
v -0.200 2.629 -8.590
v -0.200 2.750 -8.540
v -0.200 2.854 -8.461
v -0.200 3.000 -8.973
v -0.200 2.933 -8.357
v -0.200 2.983 -8.236
v 0.200 2.500 -7.107
v 0.200 2.067 -8.357
v 0.200 2.017 -8.236
v 0.200 2.000 -8.107
v 0.200 2.146 -8.461
v 0.200 2.250 -8.540
v 0.200 2.371 -8.590
v 0.200 2.500 -8.607
v 0.200 2.759 -9.073
v 0.200 2.629 -8.590
v 0.200 2.750 -8.540
v 0.200 2.854 -8.461
v 0.200 3.000 -8.973
v 0.200 2.933 -8.357
v 0.200 2.983 -8.236
v 0.200 3.000 -8.107
v 0.200 3.207 -8.814
v 0.200 2.067 -7.857
v 0.200 2.017 -7.978
v 0.200 2.146 -7.754
v 0.200 2.250 -7.674
v 0.200 2.371 -7.624
v 0.200 2.500 -7.607
v 0.200 2.629 -7.624
v 0.200 2.759 -7.141
v 0.200 2.750 -7.674
v 0.200 2.854 -7.754
v 0.200 3.000 -7.241
v 0.200 2.933 -7.857
v 0.200 2.983 -7.978
v 0.200 3.207 -7.400
v 0.200 3.366 -8.607
v 0.200 3.366 -7.607
v 0.200 3.466 -8.366
v 0.200 3.466 -7.848
v 0.200 3.500 -8.107
f 1 2 3
f 2 1 4
f 4 1 5
f 4 5 6
f 6 5 7
f 6 7 8
f 6 8 9
f 10 2 4
f 9 11 6
f 11 9 12
f 13 7 14
f 7 13 8
f 15 11 16
f 11 15 6
f 17 18 19
f 18 17 15
f 18 15 20
f 20 15 21
f 19 22 23
f 22 19 18
f 23 22 21
f 23 21 15
f 23 15 24
f 23 24 25
f 26 27 28
f 27 26 17
f 27 17 29
f 29 17 19
f 30 11 12
f 11 30 16
f 30 15 16
f 15 30 24
f 31 7 23
f 7 31 14
f 25 31 23
f 31 25 32
f 31 13 14
f 13 31 32
f 33 34 35
f 34 33 36
f 33 37 38
f 37 33 35
f 28 37 2
f 37 28 27
f 37 27 38
f 38 27 39
f 2 40 3
f 40 2 37
f 3 40 39
f 3 39 27
f 37 34 40
f 34 37 35
f 33 39 36
f 39 33 38
f 15 4 6
f 4 15 17
f 26 2 10
f 2 26 28
f 4 26 10
f 26 4 17
f 34 39 40
f 39 34 36
f 1 19 5
f 19 1 29
f 27 1 3
f 1 27 29
f 19 7 5
f 7 19 23
f 9 30 12
f 30 9 24
f 41 22 18
f 22 41 42
f 20 43 18
f 43 20 44
f 18 43 45
f 18 45 46
f 43 44 47
f 47 44 48
f 48 44 49
f 49 44 50
f 50 44 51
f 51 44 52
f 51 52 53
f 53 52 54
f 54 52 55
f 54 55 56
f 56 55 57
f 57 55 58
f 58 55 59
f 58 59 60
f 60 59 61
f 61 59 62
f 61 62 63
f 63 62 64
f 63 64 65
f 18 66 41
f 66 18 67
f 67 18 46
f 41 66 68
f 41 68 69
f 41 69 70
f 41 70 71
f 41 71 72
f 72 71 73
f 72 73 74
f 72 74 75
f 72 75 76
f 76 75 77
f 76 77 78
f 76 78 58
f 76 58 60
f 21 44 20
f 44 21 79
f 22 80 21
f 80 22 42
f 21 80 81
f 21 81 82
f 80 42 83
f 83 42 84
f 84 42 85
f 85 42 86
f 86 42 87
f 86 87 88
f 88 87 89
f 89 87 90
f 90 87 91
f 90 91 92
f 92 91 93
f 93 91 94
f 94 91 95
f 21 96 79
f 96 21 97
f 97 21 82
f 79 96 98
f 79 98 99
f 79 99 100
f 79 100 101
f 79 101 102
f 79 102 103
f 103 102 104
f 103 104 105
f 103 105 106
f 106 105 107
f 106 107 108
f 106 108 94
f 106 94 109
f 109 94 95
f 109 95 110
f 109 110 111
f 111 110 112
f 111 112 113
f 113 112 114
f 79 52 44
f 52 79 103
f 103 55 52
f 55 103 106
f 106 59 55
f 59 106 109
f 59 111 62
f 111 59 109
f 62 113 64
f 113 62 111
f 64 114 65
f 114 64 113
f 65 112 63
f 112 65 114
f 63 110 61
f 110 63 112
f 61 95 60
f 95 61 110
f 95 76 60
f 76 95 91
f 91 72 76
f 72 91 87
f 87 41 72
f 41 87 42
f 83 69 68
f 69 83 84
f 84 70 69
f 70 84 85
f 85 71 70
f 71 85 86
f 86 73 71
f 73 86 88
f 88 74 73
f 74 88 89
f 89 75 74
f 75 89 90
f 92 75 90
f 75 92 77
f 93 77 92
f 77 93 78
f 94 78 93
f 78 94 58
f 108 58 94
f 58 108 57
f 107 57 108
f 57 107 56
f 105 56 107
f 56 105 54
f 105 53 54
f 53 105 104
f 104 51 53
f 51 104 102
f 102 50 51
f 50 102 101
f 101 49 50
f 49 101 100
f 100 48 49
f 48 100 99
f 99 47 48
f 47 99 98
f 47 96 43
f 96 47 98
f 43 97 45
f 97 43 96
f 45 82 46
f 82 45 97
f 46 81 67
f 81 46 82
f 67 80 66
f 80 67 81
f 66 83 68
f 83 66 80
