# pletina-ttp.obj (EXERSUITE3D, cm)
v 22.500 2.500 -3.500
v -22.500 -2.500 -3.500
v -22.500 2.500 -3.500
v 22.500 -2.500 -3.500
v 22.500 2.302 -3.302
v 6.504 2.300 -2.000
v -22.500 2.302 -3.302
v 7.022 2.300 -1.932
v 22.500 2.302 3.302
v -6.519 2.300 -2.000
v 7.504 2.300 -1.732
v 7.919 2.300 -1.414
v 8.236 2.300 -1.000
v 8.436 2.300 -0.518
v 8.504 2.300 -0.000
v 8.436 2.300 0.518
v 8.236 2.300 1.000
v 7.919 2.300 1.414
v 7.504 2.300 1.732
v 7.022 2.300 1.932
v 6.504 2.300 2.000
v -6.519 2.300 2.000
v -7.037 2.300 -1.932
v -22.500 2.302 3.302
v -7.519 2.300 -1.732
v -7.933 2.300 -1.414
v -8.251 2.300 -1.000
v -8.451 2.300 -0.518
v -8.519 2.300 -0.000
v -8.451 2.300 0.518
v -8.251 2.300 1.000
v -7.933 2.300 1.414
v -7.519 2.300 1.732
v -7.037 2.300 1.932
v -6.002 2.300 -1.932
v 5.987 2.300 -1.932
v 5.504 2.300 -1.732
v -5.519 2.300 -1.732
v 5.090 2.300 -1.414
v -5.105 2.300 -1.414
v -4.787 2.300 -1.000
v 4.772 2.300 -1.000
v -4.587 2.300 -0.518
v 4.572 2.300 -0.518
v 4.504 2.300 -0.000
v -4.519 2.300 -0.000
v 4.572 2.300 0.518
v -4.587 2.300 0.518
v 4.772 2.300 1.000
v -4.787 2.300 1.000
v 5.090 2.300 1.414
v -5.105 2.300 1.414
v 5.504 2.300 1.732
v -5.519 2.300 1.732
v 5.987 2.300 1.932
v -6.002 2.300 1.932
v 22.500 -2.302 -3.302
v -22.500 -2.302 -3.302
v -22.500 -2.500 3.500
v -22.500 -2.302 3.302
v -22.500 2.500 3.500
v 22.500 -2.302 3.302
v -6.002 2.500 -1.932
v 6.504 2.500 -2.000
v -6.519 2.500 -2.000
v 5.987 2.500 -1.932
v -5.519 2.500 -1.732
v 5.504 2.500 -1.732
v -5.105 2.500 -1.414
v 5.090 2.500 -1.414
v -4.787 2.500 -1.000
v 4.772 2.500 -1.000
v -4.587 2.500 -0.518
v 4.572 2.500 -0.518
v -4.519 2.500 -0.000
v 4.504 2.500 -0.000
v -4.587 2.500 0.518
v 4.572 2.500 0.518
v -4.787 2.500 1.000
v 4.772 2.500 1.000
v -5.105 2.500 1.414
v 5.090 2.500 1.414
v 5.504 2.500 1.732
v -5.519 2.500 1.732
v -6.002 2.500 1.932
v 5.987 2.500 1.932
v -6.519 2.500 2.000
v 6.504 2.500 2.000
v -7.037 2.500 -1.932
v -7.519 2.500 -1.732
v -7.933 2.500 -1.414
v -8.251 2.500 -1.000
v -8.451 2.500 -0.518
v -8.519 2.500 -0.000
v -8.451 2.500 0.518
v -8.251 2.500 1.000
v -7.933 2.500 1.414
v -7.519 2.500 1.732
v -7.037 2.500 1.932
v 7.022 2.500 -1.932
v 22.500 2.500 3.500
v 7.504 2.500 -1.732
v 7.919 2.500 -1.414
v 8.236 2.500 -1.000
v 8.436 2.500 -0.518
v 8.504 2.500 -0.000
v 8.436 2.500 0.518
v 8.236 2.500 1.000
v 7.919 2.500 1.414
v 7.504 2.500 1.732
v 7.022 2.500 1.932
v -6.519 2.500 3.500
v 6.504 2.500 3.500
v 22.500 -2.500 3.500
f 1 2 3
f 2 1 4
f 5 6 7
f 6 5 8
f 8 5 9
f 7 6 10
f 8 9 11
f 11 9 12
f 12 9 13
f 13 9 14
f 14 9 15
f 15 9 16
f 16 9 17
f 17 9 18
f 18 9 19
f 19 9 20
f 20 9 21
f 21 9 22
f 7 23 24
f 23 7 10
f 24 23 25
f 24 25 26
f 24 26 27
f 24 27 28
f 24 28 29
f 24 29 30
f 24 30 31
f 24 31 32
f 24 32 33
f 24 33 34
f 24 34 22
f 24 22 9
f 6 35 10
f 35 6 36
f 35 36 37
f 35 37 38
f 38 37 39
f 38 39 40
f 40 39 41
f 41 39 42
f 41 42 43
f 43 42 44
f 43 44 45
f 43 45 46
f 46 45 47
f 46 47 48
f 48 47 49
f 48 49 50
f 50 49 51
f 50 51 52
f 52 51 53
f 52 53 54
f 54 53 55
f 54 55 56
f 56 55 21
f 56 21 22
f 57 7 58
f 7 57 5
f 59 60 2
f 60 59 61
f 60 61 24
f 24 61 7
f 2 58 3
f 58 2 60
f 3 58 7
f 3 7 61
f 60 57 58
f 57 60 62
f 63 64 65
f 64 63 66
f 66 63 67
f 66 67 68
f 68 67 69
f 68 69 70
f 70 69 71
f 70 71 72
f 72 71 73
f 72 73 74
f 74 73 75
f 74 75 76
f 76 75 77
f 76 77 78
f 78 77 79
f 78 79 80
f 80 79 81
f 80 81 82
f 82 81 83
f 83 81 84
f 83 84 85
f 83 85 86
f 86 85 87
f 86 87 88
f 3 65 1
f 65 3 89
f 89 3 61
f 89 61 90
f 90 61 91
f 91 61 92
f 92 61 93
f 93 61 94
f 94 61 95
f 95 61 96
f 96 61 97
f 97 61 98
f 98 61 99
f 99 61 87
f 1 100 101
f 100 1 64
f 64 1 65
f 101 100 102
f 101 102 103
f 101 103 104
f 101 104 105
f 101 105 106
f 101 106 107
f 101 107 108
f 101 108 109
f 101 109 110
f 101 110 111
f 101 111 88
f 101 88 87
f 101 87 61
f 101 61 112
f 101 112 113
f 114 2 4
f 2 114 59
f 9 60 24
f 60 9 62
f 114 61 59
f 61 114 112
f 112 114 113
f 113 114 101
f 4 57 114
f 57 4 1
f 57 1 5
f 5 1 9
f 114 62 101
f 62 114 57
f 101 62 9
f 101 9 1
f 88 55 86
f 55 88 21
f 111 21 88
f 21 111 20
f 110 20 111
f 20 110 19
f 109 19 110
f 19 109 18
f 104 12 13
f 12 104 103
f 105 13 14
f 13 105 104
f 36 68 37
f 68 36 66
f 83 51 82
f 51 83 53
f 11 100 8
f 100 11 102
f 6 66 36
f 66 6 64
f 108 16 17
f 16 108 107
f 8 64 6
f 64 8 100
f 76 47 45
f 47 76 78
f 109 17 18
f 17 109 108
f 78 49 47
f 49 78 80
f 106 14 15
f 14 106 105
f 37 70 39
f 70 37 68
f 80 51 49
f 51 80 82
f 70 42 39
f 42 70 72
f 107 15 16
f 15 107 106
f 12 102 11
f 102 12 103
f 72 44 42
f 44 72 74
f 74 45 44
f 45 74 76
f 86 53 83
f 53 86 55
f 85 22 87
f 22 85 56
f 81 50 52
f 50 81 79
f 79 48 50
f 48 79 77
f 77 46 48
f 46 77 75
f 87 34 99
f 34 87 22
f 40 67 38
f 67 40 69
f 38 63 35
f 63 38 67
f 10 89 23
f 89 10 65
f 91 27 26
f 27 91 92
f 84 56 85
f 56 84 54
f 75 43 46
f 43 75 73
f 71 40 41
f 40 71 69
f 35 65 10
f 65 35 63
f 23 90 25
f 90 23 89
f 25 91 26
f 91 25 90
f 92 28 27
f 28 92 93
f 81 54 84
f 54 81 52
f 73 41 43
f 41 73 71
f 93 29 28
f 29 93 94
f 95 31 30
f 31 95 96
f 94 30 29
f 30 94 95
f 99 33 98
f 33 99 34
f 98 32 97
f 32 98 33
f 96 32 31
f 32 96 97
