# WEIGHTCARRIER_1 oficial (cm, centrado, HORIZONTAL: pin a lo largo de Z, collarin hacia -Z)
v -2.4813 -0.6579 44.0075
v -2.4813 0.6579 44.0075
v -2.5679 0.0000 44.0075
v -2.2273 -1.2710 44.0075
v -2.4813 -0.6579 13.5044
v -2.2273 -1.2710 13.5044
v -2.2273 1.2710 44.0075
v -2.4813 0.6579 13.5044
v -2.5679 0.0000 13.5044
v -2.6372 -1.5076 13.5044
v -2.1580 -2.1321 13.5044
v -1.8234 -1.7974 13.5044
v -2.1034 0.0000 44.0075
v -2.0326 -0.5377 44.0075
v -1.8234 -1.7974 44.0075
v -2.0326 0.5377 44.0075
v -1.8234 1.7974 44.0075
v -2.2273 1.2710 13.5044
v -2.6372 1.5076 13.5044
v -2.1580 2.1321 13.5044
v -2.9384 0.7804 13.5044
v -2.9384 -0.7804 13.5044
v -2.1580 -2.1321 12.9960
v -2.6372 -1.5076 12.9960
v -1.5336 -2.6112 13.5044
v -1.2969 -2.2014 44.0075
v -1.2969 -2.2014 13.5044
v -1.8251 -1.0387 44.0075
v -1.4949 -1.4690 44.0075
v -2.1034 0.0000 12.7927
v -2.0326 -0.5377 12.7927
v -2.1034 0.0000 12.9960
v -2.0326 0.5377 12.7927
v -1.8251 1.0387 44.0075
v -1.8251 1.0387 12.7927
v -1.4949 1.4690 44.0075
v -1.2969 2.2014 44.0075
v -1.2969 2.2014 13.5044
v -1.8234 1.7974 13.5044
v -1.5336 2.6112 13.5044
v -2.6372 1.5076 12.9960
v -2.1580 2.1321 12.9960
v -1.5336 2.6112 12.9960
v -2.9384 0.7804 12.9960
v -3.0412 0.0000 13.5044
v -3.0412 0.0000 12.9960
v -2.9384 -0.7804 12.9960
v -1.5336 -2.6112 12.9960
v -2.1034 2.0774 12.9960
v -2.1034 -2.0774 12.9960
v -0.8064 -2.9124 13.5044
v -0.6839 -2.4553 44.0075
v -0.6839 -2.4553 13.5044
v -1.0647 -1.7991 44.0075
v -0.5637 -2.0066 44.0075
v -0.0260 -2.5419 44.0075
v -0.0260 -2.5419 13.5044
v -0.0260 -3.0152 13.5044
v -0.8064 -2.9124 12.9960
v 2.0515 -2.0774 12.9960
v -0.0260 -3.0152 12.9960
v 0.7544 -2.9124 13.5044
v 0.6319 -2.4553 44.0075
v 0.6319 -2.4553 13.5044
v -0.0260 -2.0774 44.0075
v -0.5637 -2.0066 12.7927
v -0.0260 -2.0774 12.7927
v -0.0260 -2.0774 12.9960
v -1.0647 -1.7991 12.7927
v -1.4949 -1.4690 12.7927
v -1.8251 -1.0387 12.7927
v 0.5117 -2.0066 44.0075
v 0.5117 -2.0066 12.7927
v 1.0127 -1.7991 44.0075
v 1.2450 -2.2014 44.0075
v 1.2450 -2.2014 13.5044
v 1.4816 -2.6112 13.5044
v 0.7544 -2.9124 12.9960
v 1.4816 -2.6112 12.9960
v 1.7714 -1.7974 13.5044
v 2.1061 -2.1321 13.5044
v 1.7714 -1.7974 44.0075
v 1.4430 -1.4690 44.0075
v 1.0127 -1.7991 12.7927
v 1.4430 -1.4690 12.7927
v 1.7731 -1.0387 44.0075
v 2.1754 -1.2710 44.0075
v 2.1754 -1.2710 13.5044
v 2.5853 -1.5076 13.5044
v 2.5853 -1.5076 12.9960
v 2.1061 -2.1321 12.9960
v 2.1061 2.1321 12.9960
v 2.5853 1.5076 12.9960
v 2.8865 -0.7804 12.9960
v 2.8865 0.7804 12.9960
v 2.4293 -0.6579 13.5044
v 2.5160 0.0000 13.5044
v 2.5853 1.5076 13.5044
v 2.8865 -0.7804 13.5044
v 1.9807 -0.5377 44.0075
v 2.0515 0.0000 44.0075
v 2.1754 1.2710 44.0075
v 2.4293 -0.6579 44.0075
v 1.7731 -1.0387 12.7927
v 1.9807 -0.5377 12.7927
v 1.9807 0.5377 44.0075
v 2.0515 0.0000 12.7927
v 2.0515 0.0000 12.9960
v 1.7714 1.7974 44.0075
v 1.7731 1.0387 44.0075
v 2.4293 0.6579 44.0075
v 2.1754 1.2710 13.5044
v 1.7714 1.7974 13.5044
v 2.5160 0.0000 44.0075
v 2.4293 0.6579 13.5044
v 2.1061 2.1321 13.5044
v 2.8865 0.7804 13.5044
v 2.9892 0.0000 13.5044
v 2.9892 0.0000 12.9960
v 1.4816 2.6112 13.5044
v 0.7544 2.9124 13.5044
v 1.2450 2.2014 13.5044
v 1.4816 2.6112 12.9960
v 1.2450 2.2014 44.0075
v 1.4430 1.4690 44.0075
v 1.9807 0.5377 12.7927
v 1.7731 1.0387 12.7927
v 2.0515 2.0774 12.9960
v 2.0515 -0.3382 -12.9960
v 2.0515 0.3382 -12.9960
v 0.7544 2.9124 12.9960
v -0.0260 3.0152 13.5044
v 0.6319 2.4553 13.5044
v 0.6319 2.4553 44.0075
v 1.0127 1.7991 44.0075
v 1.4430 1.4690 12.7927
v 1.0127 1.7991 12.7927
v 0.5117 2.0066 44.0075
v 0.5117 2.0066 12.7927
v -0.0260 2.5419 44.0075
v -0.0260 2.5419 13.5044
v -0.8064 2.9124 13.5044
v -0.6839 2.4553 13.5044
v -0.0260 3.0152 12.9960
v -0.0260 2.0774 12.9960
v -0.8064 2.9124 12.9960
v -0.6839 2.4553 44.0075
v -0.5637 2.0066 44.0075
v -0.0260 2.0774 44.0075
v -0.0260 2.0774 12.7927
v -0.5637 2.0066 12.7927
v -2.1034 2.0774 -12.9960
v -2.0595 2.0774 -6.6514
v -1.9902 2.0774 -6.1251
v -2.0595 2.0774 6.6368
v -1.9902 2.0774 7.1632
v -1.7871 2.0774 7.6536
v -1.4639 2.0774 8.0748
v -1.0427 2.0774 8.3979
v -0.5523 2.0774 8.6011
v -0.0260 2.0774 8.6704
v -0.0260 2.0774 8.7011
v -0.0260 2.0774 9.4373
v -0.0260 4.0671 9.4373
v -0.0260 -2.0774 9.4373
v 0.6988 -4.0671 9.3419
v -0.0260 -4.0671 8.7011
v -0.0260 4.0671 8.7011
v -0.0260 -2.0774 8.7011
v 0.5083 4.0671 8.6308
v -0.5523 -2.0774 8.6011
v -0.0260 -2.0774 8.6704
v 0.5003 2.0774 8.6011
v -1.0427 -2.0774 8.3979
v -1.4639 -2.0774 8.0748
v -1.7871 -2.0774 7.6536
v -1.9902 -2.0774 7.1632
v 0.5003 -2.0774 8.6011
v -0.0260 -4.0671 9.4373
v 0.6988 4.0671 9.3419
v -0.7508 4.0671 9.3419
v 1.3743 -4.0671 9.0621
v -0.7508 -4.0671 9.3419
v 1.3743 4.0671 9.0621
v -1.4262 4.0671 9.0621
v 1.9543 -4.0671 8.6171
v 0.5083 -4.0671 8.6308
v -1.4262 -4.0671 9.0621
v -0.5603 -4.0671 8.6308
v 1.9543 4.0671 8.6171
v 1.0062 4.0671 8.4246
v -0.5603 4.0671 8.6308
v -2.0062 4.0671 8.6171
v -2.0062 -4.0671 8.6171
v -1.0581 -4.0671 8.4246
v -1.0581 4.0671 8.4246
v -1.4857 4.0671 8.0965
v -2.4513 4.0671 8.0371
v -2.4513 -4.0671 8.0371
v -1.4857 -4.0671 8.0965
v -1.8137 4.0671 7.6690
v -2.7310 4.0671 7.3617
v -2.7310 -4.0671 7.3617
v -1.8137 -4.0671 7.6690
v -2.0199 4.0671 7.1711
v -2.0903 4.0671 6.6368
v -2.8265 4.0671 6.6368
v -2.8265 -4.0671 6.6368
v -2.0903 -4.0671 6.6368
v -2.0199 -4.0671 7.1711
v -2.0199 4.0671 6.1026
v -2.7310 4.0671 5.9120
v -2.7310 -4.0671 5.9120
v -2.0199 -4.0671 6.1026
v -1.8137 4.0671 5.6047
v -2.4513 4.0671 5.2366
v -2.4513 -4.0671 5.2366
v -1.8137 -4.0671 5.6047
v -1.4857 4.0671 5.1772
v -1.0581 4.0671 4.8491
v -2.0062 4.0671 4.6566
v -2.0062 -4.0671 4.6566
v -1.0581 -4.0671 4.8491
v -1.4857 -4.0671 5.1772
v -0.5603 4.0671 4.6429
v -0.5603 -4.0671 4.6429
v 1.3743 4.0671 4.2115
v -1.4262 4.0671 4.2115
v -0.0260 4.0671 4.5725
v -1.4262 -4.0671 4.2115
v 1.3743 -4.0671 4.2115
v -0.0260 -4.0671 4.5725
v 1.9543 4.0671 4.6566
v 0.5083 4.0671 4.6429
v -0.0260 -2.0774 4.5725
v -0.0260 2.0774 4.5725
v 0.5083 -4.0671 4.6429
v 0.6988 4.0671 3.9318
v 0.6988 -4.0671 3.9318
v -0.7508 4.0671 3.9318
v -0.7508 -4.0671 3.9318
v 1.9543 -4.0671 4.6566
v -0.5523 -2.0774 4.6726
v -0.0260 -2.0774 3.8364
v -0.0260 -2.0774 4.6033
v 0.5003 -2.0774 4.6726
v 1.0062 -4.0671 4.8491
v 1.0062 4.0671 4.8491
v 2.3993 4.0671 5.2366
v 2.3993 -4.0671 5.2366
v 1.4337 -4.0671 5.1772
v 1.4337 4.0671 5.1772
v 1.7618 4.0671 5.6047
v 2.6791 4.0671 5.9120
v 2.6791 -4.0671 5.9120
v 1.7618 -4.0671 5.6047
v 1.9680 4.0671 6.1026
v 2.7745 4.0671 6.6368
v 2.7745 -4.0671 6.6368
v 1.9680 -4.0671 6.1026
v 2.0383 4.0671 6.6368
v 1.9680 4.0671 7.1711
v 2.6791 4.0671 7.3617
v 2.6791 -4.0671 7.3617
v 2.0383 -4.0671 6.6368
v 1.9680 -4.0671 7.1711
v 1.7618 4.0671 7.6690
v 2.3993 4.0671 8.0371
v 2.3993 -4.0671 8.0371
v 1.7618 -4.0671 7.6690
v 1.4337 4.0671 8.0965
v 1.4337 -4.0671 8.0965
v 1.0062 -4.0671 8.4246
v -0.5523 2.0774 4.6726
v -0.0260 2.0774 4.6033
v -1.0427 2.0774 4.8757
v -0.0260 2.0774 -4.6178
v -1.0427 -2.0774 4.8757
v -1.4639 2.0774 5.1989
v -0.5523 -2.0774 -4.6871
v -0.5523 2.0774 -4.6871
v -0.0260 -2.0774 -4.6178
v 0.5003 2.0774 -4.6871
v -1.9902 2.0774 6.1105
v -1.7871 2.0774 5.6201
v 1.9383 2.0774 6.1105
v 1.7351 2.0774 5.6201
v 1.4120 2.0774 5.1989
v 0.9908 2.0774 4.8757
v 0.5003 2.0774 4.6726
v 0.9908 -2.0774 4.8757
v -0.0260 2.0774 3.8364
v -0.0260 -4.0671 3.8364
v -1.4639 -2.0774 5.1989
v 1.4120 -2.0774 5.1989
v -1.7871 -2.0774 5.6201
v -1.9902 -2.0774 6.1105
v -2.0595 -2.0774 6.6368
v -1.0427 2.0774 -4.8903
v -1.0427 -2.0774 -4.8903
v 0.5003 -2.0774 -4.6871
v 1.9383 -2.0774 6.1105
v 1.7351 -2.0774 5.6201
v 0.9908 2.0774 -4.8903
v 2.0076 2.0774 6.6368
v 0.9908 -2.0774 -4.8903
v 1.4120 2.0774 -5.2134
v 2.0076 -2.0774 6.6368
v 1.9383 2.0774 7.1632
v 1.9383 2.0774 -6.1251
v 1.7351 2.0774 -5.6346
v 1.4120 -2.0774 -5.2134
v 1.7351 -2.0774 -5.6346
v 1.9383 -2.0774 7.1632
v 1.9383 -2.0774 -6.1251
v 1.7351 2.0774 7.6536
v 2.0515 2.0774 -12.9960
v 2.0076 2.0774 -6.6514
v 1.4120 2.0774 8.0748
v 0.9908 2.0774 8.3979
v 2.0076 -2.0774 -6.6514
v 2.0515 -2.0774 -12.9960
v 1.7351 -2.0774 7.6536
v 1.4120 -2.0774 8.0748
v 0.9908 -2.0774 8.3979
v -2.1034 -2.0774 -12.9960
v 0.0384 -2.0575 -12.9960
v 0.5710 -1.9874 -12.9960
v 1.0672 -1.7819 -12.9960
v 1.4933 -1.4549 -12.9960
v 1.8203 -1.0288 -12.9960
v 2.0259 -0.5325 -12.9960
v 1.9383 -2.0774 -7.1777
v -0.0260 -2.0774 -12.9960
v 1.9383 2.0774 -7.1777
v 1.7351 -2.0774 -7.6681
v -0.0260 -2.0774 -8.6849
v 1.4120 -2.0774 -8.0893
v 0.9908 -2.0774 -8.4125
v 0.5003 -2.0774 -8.6156
v 1.7351 2.0774 -7.6681
v 1.4120 2.0774 -8.0893
v 0.9908 2.0774 -8.4125
v 0.5003 2.0774 -8.6156
v -0.0260 2.0774 -8.6849
v -0.5523 -2.0774 -8.6156
v -0.5523 2.0774 -8.6156
v 0.0384 2.0576 -12.9960
v 0.5710 1.9874 -12.9960
v 1.0672 1.7819 -12.9960
v 1.4933 1.4549 -12.9960
v 1.8203 1.0288 -12.9960
v 2.0259 0.5325 -12.9960
v -1.7871 2.0774 -7.6681
v -1.4639 2.0774 -8.0893
v -1.0427 2.0774 -8.4125
v -1.0427 -2.0774 -8.4125
v -1.4639 -2.0774 -8.0893
v -1.7871 -2.0774 -7.6681
v -1.9902 -2.0774 -7.1777
v -1.9902 2.0774 -7.1777
v -2.0191 0.0000 -12.9960
v -0.4941 -1.9874 -12.9960
v -0.9903 -1.7819 -12.9960
v -1.4165 -1.4549 -12.9960
v -1.7435 -1.0288 -12.9960
v -1.9490 -0.5325 -12.9960
v -2.0595 -2.0774 -6.6514
v -1.9902 -2.0774 -6.1251
v -1.7871 -2.0774 -5.6346
v -1.4639 -2.0774 -5.2134
v -1.7871 2.0774 -5.6346
v -1.4639 2.0774 -5.2134
v -1.9490 0.5325 -12.9960
v -1.7435 1.0288 -12.9960
v -1.4165 1.4549 -12.9960
v -0.9903 1.7819 -12.9960
v -0.4941 1.9874 -12.9960
v -1.9490 0.5325 -44.0075
v -1.7435 1.0288 -44.0075
v -2.0848 2.1233 -12.9960
v -1.4629 2.6004 -12.9960
v -1.4165 1.4549 -44.0075
v -0.7387 2.9004 -12.9960
v -0.9903 1.7819 -44.0075
v -0.4941 1.9874 -44.0075
v 0.0384 3.0027 -12.9960
v 0.0384 2.0576 -44.0075
v -0.6195 2.4553 -44.0075
v 0.0384 2.5419 -44.0075
v -1.2325 2.2014 -44.0075
v -1.7590 1.7974 -44.0075
v -2.0191 0.0000 -44.0075
v -2.1629 1.2710 -44.0075
v -2.0848 -2.1233 -12.9960
v -2.1629 -1.2710 -44.0075
v -1.9490 -0.5325 -44.0075
v -2.4169 -0.6579 -44.0075
v -2.4169 0.6579 -44.0075
v -2.1629 1.2710 -13.5044
v -1.7590 1.7974 -13.5044
v -1.2325 2.2014 -13.5044
v -0.6195 2.4553 -13.5044
v 0.0384 2.5419 -13.5044
v 0.6963 2.4553 -44.0075
v 0.6963 2.4553 -13.5044
v 0.5710 1.9874 -44.0075
v 0.8156 2.9004 -12.9960
v 1.0672 1.7819 -44.0075
v 1.3094 2.2014 -44.0075
v 1.3094 2.2014 -13.5044
v 0.8156 2.9004 -13.5044
v 0.0384 3.0027 -13.5044
v -0.7387 2.9004 -13.5044
v -1.4629 2.6004 -13.5044
v -2.0848 2.1233 -13.5044
v -2.4169 0.6579 -13.5044
v -2.5035 0.0000 -44.0075
v -2.4169 -0.6579 -13.5044
v -2.5035 0.0000 -13.5044
v -2.5620 1.5014 -13.5044
v 1.5398 2.6004 -13.5044
v 1.5398 2.6004 -12.9960
v 0.5710 -1.9874 -44.0075
v 0.0384 -2.0575 -44.0075
v 0.8156 -2.9004 -12.9960
v 1.0672 -1.7819 -44.0075
v 1.5398 -2.6004 -12.9960
v 1.4933 1.4549 -44.0075
v 1.8203 1.0288 -44.0075
v 2.1617 2.1233 -12.9960
v 2.1617 2.1233 -13.5044
v 1.8358 1.7974 -13.5044
v 2.2398 1.2710 -13.5044
v 2.6389 1.5014 -13.5044
v 2.6389 1.5014 -12.9960
v 2.0960 0.0000 -12.9960
v 2.1617 -2.1233 -12.9960
v 2.6389 -1.5014 -12.9960
v 2.0259 0.5325 -44.0075
v 1.4933 -1.4549 -44.0075
v 0.6963 -2.4553 -44.0075
v 1.3094 -2.2014 -44.0075
v 0.0384 -2.5419 -44.0075
v -0.4941 -1.9874 -44.0075
v 0.0384 -3.0027 -12.9960
v -0.6195 -2.4553 -44.0075
v -0.9903 -1.7819 -44.0075
v 0.6963 -2.4553 -13.5044
v 0.0384 -2.5419 -13.5044
v 1.3094 -2.2014 -13.5044
v 1.8358 -1.7974 -44.0075
v 1.8358 -1.7974 -13.5044
v 1.8203 -1.0288 -44.0075
v 2.0960 0.0000 -44.0075
v 2.2398 1.2710 -44.0075
v 2.2398 -1.2710 -44.0075
v 2.0259 -0.5325 -44.0075
v 1.8358 1.7974 -44.0075
v 2.4937 0.6579 -44.0075
v 2.4937 0.6579 -13.5044
v 2.4937 -0.6579 -44.0075
v 2.2398 -1.2710 -13.5044
v 1.5398 -2.6004 -13.5044
v 2.1617 -2.1233 -13.5044
v 2.6389 -1.5014 -13.5044
v 0.8156 -2.9004 -13.5044
v 0.0384 -3.0027 -13.5044
v -0.6195 -2.4553 -13.5044
v -0.7387 -2.9004 -13.5044
v -1.2325 -2.2014 -44.0075
v -1.2325 -2.2014 -13.5044
v -1.4629 -2.6004 -13.5044
v -0.7387 -2.9004 -12.9960
v -1.4629 -2.6004 -12.9960
v -2.0848 -2.1233 -13.5044
v -1.7590 -1.7974 -13.5044
v -1.7590 -1.7974 -44.0075
v -1.7435 -1.0288 -44.0075
v -1.4165 -1.4549 -44.0075
v -2.1629 -1.2710 -13.5044
v -2.5620 -1.5014 -13.5044
v -2.5620 -1.5014 -12.9960
v -2.5620 1.5014 -12.9960
v -2.8620 0.7772 -12.9960
v -2.8620 -0.7772 -12.9960
v -2.8620 -0.7772 -13.5044
v -2.8620 0.7772 -13.5044
v -2.9643 0.0000 -13.5044
v -2.9643 0.0000 -12.9960
v 2.4937 -0.6579 -13.5044
v 2.5804 0.0000 -13.5044
v 2.9388 0.7772 -13.5044
v 2.9388 -0.7772 -13.5044
v 2.5804 0.0000 -44.0075
v 2.9388 0.7772 -12.9960
v 3.0412 0.0000 -13.5044
v 3.0412 0.0000 -12.9960
v 2.9388 -0.7772 -12.9960
v -0.0260 4.0671 3.8364
v -1.0647 1.7991 44.0075
v -1.0647 1.7991 12.7927
v -1.4949 1.4690 12.7927
v 0.7387 4.0671 -9.3659
v 0.0113 -4.0671 -9.4617
v 0.0113 4.0671 -9.4617
v 0.7387 -4.0671 -9.3659
v -0.7160 4.0671 -9.3659
v -1.3938 4.0671 -9.0851
v 1.4165 4.0671 -9.0851
v -0.7160 -4.0671 -9.3659
v -1.3938 -4.0671 -9.0851
v -1.9758 4.0671 -8.6385
v -1.9758 -4.0671 -8.6385
v 0.0113 4.0671 -8.7157
v 1.9985 4.0671 -8.6385
v 1.4165 -4.0671 -9.0851
v -2.4224 4.0671 -8.0565
v -2.4224 -4.0671 -8.0565
v 0.0113 -4.0671 -8.7157
v -0.5229 -4.0671 -8.6453
v -1.0208 -4.0671 -8.4391
v -0.5229 4.0671 -8.6453
v -1.0208 4.0671 -8.4391
v 0.5456 4.0671 -8.6453
v 0.5456 -4.0671 -8.6453
v 1.0435 4.0671 -8.4391
v 2.4451 4.0671 -8.0565
v 1.9985 -4.0671 -8.6385
v 2.4451 -4.0671 -8.0565
v -1.4483 4.0671 -8.1111
v -1.4483 -4.0671 -8.1111
v -2.7032 4.0671 -7.3787
v -2.7032 -4.0671 -7.3787
v -1.7764 -4.0671 -7.6835
v -1.7764 4.0671 -7.6835
v -1.9826 -4.0671 -7.1857
v -2.7989 4.0671 -6.6514
v -2.7989 -4.0671 -6.6514
v -1.9826 4.0671 -7.1857
v -2.0530 -4.0671 -6.6514
v -2.7032 4.0671 -5.9240
v -2.7032 -4.0671 -5.9240
v -2.0530 4.0671 -6.6514
v -1.9826 -4.0671 -6.1171
v -2.4224 4.0671 -5.2462
v -2.4224 -4.0671 -5.2462
v -1.7764 -4.0671 -5.6192
v -1.9826 4.0671 -6.1171
v -1.7764 4.0671 -5.6192
v -1.4483 -4.0671 -5.1917
v -1.9758 4.0671 -4.6642
v -1.9758 -4.0671 -4.6642
v -1.4483 4.0671 -5.1917
v -1.0208 4.0671 -4.8636
v -1.0208 -4.0671 -4.8636
v -1.3938 -4.0671 -4.2176
v -0.5229 -4.0671 -4.6574
v -0.5229 4.0671 -4.6574
v -1.3938 4.0671 -4.2176
v 0.0113 4.0671 -4.5871
v 0.0113 -4.0671 -4.5871
v -0.7160 -4.0671 -3.9368
v 1.4165 -4.0671 -4.2176
v -0.7160 4.0671 -3.9368
v 1.4165 4.0671 -4.2176
v 0.5456 4.0671 -4.6574
v 0.5456 -4.0671 -4.6574
v 1.9985 -4.0671 -4.6642
v 0.7387 4.0671 -3.9368
v 0.7387 -4.0671 -3.9368
v 0.0113 -4.0671 -3.8411
v 0.0113 4.0671 -3.8411
v 1.9985 4.0671 -4.6642
v 1.0435 4.0671 -4.8636
v 1.0435 -4.0671 -4.8636
v 2.4451 4.0671 -5.2462
v 2.4451 -4.0671 -5.2462
v 1.4710 -4.0671 -5.1917
v 1.4710 4.0671 -5.1917
v 1.7991 -4.0671 -5.6192
v 2.7259 4.0671 -5.9240
v 2.7259 -4.0671 -5.9240
v 1.7991 4.0671 -5.6192
v 2.0053 -4.0671 -6.1171
v 2.8216 4.0671 -6.6514
v 2.8216 -4.0671 -6.6514
v 2.0053 4.0671 -6.1171
v 2.0756 -4.0671 -6.6514
v 2.7259 4.0671 -7.3787
v 2.7259 -4.0671 -7.3787
v 2.0053 -4.0671 -7.1857
v 2.0053 4.0671 -7.1857
v 2.0756 4.0671 -6.6514
v 1.7991 -4.0671 -7.6835
v 1.7991 4.0671 -7.6835
v 1.4710 -4.0671 -8.1111
v 1.0435 -4.0671 -8.4391
v 1.4710 4.0671 -8.1111
v 0.3807 3.0942 -0.7044
v 0.1846 2.0774 -0.7857
v 0.1846 3.0942 -0.7857
v 0.3807 2.0774 -0.7044
v 0.5492 3.0942 -0.5752
v -0.4327 3.0942 -0.7044
v -0.2293 3.0942 -0.3522
v -0.1312 3.0942 -0.3928
v -0.0260 3.0942 -0.4067
v 0.3669 3.0942 -0.1053
v 0.3807 3.0942 -0.0000
v 0.3262 3.0942 -0.2034
v 0.2616 3.0942 -0.2876
v 0.1774 3.0942 -0.3522
v 0.0793 3.0942 -0.3928
v 0.3807 3.0942 0.7044
v -0.0260 2.0774 -0.8134
v -0.2365 3.0942 -0.7857
v -0.0260 3.0942 -0.8134
v -0.4327 2.0774 -0.7044
v -0.3136 3.0942 -0.2876
v -0.3782 3.0942 -0.2034
v -0.4188 3.0942 -0.1053
v -0.4327 3.0942 -0.0000
v -0.6011 3.0942 -0.5752
v -0.4327 3.0942 0.7044
v -0.6011 2.0774 -0.5752
v -0.1312 2.0774 -0.3928
v -0.2293 2.0774 -0.3522
v -0.0260 2.0774 -0.4067
v 0.0793 2.0774 -0.3928
v 0.1774 2.0774 -0.3522
v 0.2616 2.0774 -0.2876
v 0.3262 2.0774 -0.2034
v 0.3669 2.0774 -0.1053
v 0.3807 2.0774 -0.0000
v 0.3669 3.0942 0.1053
v -0.4188 2.0774 -0.1053
v -0.4327 2.0774 -0.0000
v -0.3782 2.0774 -0.2034
v -0.3136 2.0774 -0.2876
v -0.4188 3.0942 0.1053
v -0.4188 2.0774 0.1053
v 0.3669 2.0774 0.1053
v 0.3262 3.0942 0.2034
v 0.3262 2.0774 0.2034
v -0.3782 2.0774 0.2034
v -0.3782 3.0942 0.2034
v -0.3136 2.0774 0.2876
v 0.2616 2.0774 0.2876
v 0.2616 3.0942 0.2876
v 0.1774 2.0774 0.3522
v 0.1774 3.0942 0.3522
v -0.2293 2.0774 0.3522
v -0.2293 3.0942 0.3522
v -0.3136 3.0942 0.2876
v -0.1312 3.0942 0.3928
v -0.1312 2.0774 0.3928
v 0.0793 2.0774 0.3928
v 0.0793 3.0942 0.3928
v -0.0260 2.0774 0.4067
v -0.0260 3.0942 0.4067
v -0.7304 3.0942 -0.4067
v -0.8117 3.0942 -0.2105
v -0.8394 3.0942 -0.0000
v -0.8117 3.0942 0.2105
v -0.7304 3.0942 0.4067
v -0.6011 3.0942 0.5752
v -0.4327 2.0774 0.7044
v -0.2365 2.0774 0.7857
v -0.2365 3.0942 0.7857
v 0.6785 3.0942 -0.4067
v 0.7597 3.0942 -0.2105
v 0.7874 3.0942 -0.0000
v 0.7597 3.0942 0.2105
v 0.6785 3.0942 0.4067
v 0.5492 3.0942 0.5752
v 0.5492 2.0774 0.5752
v 0.3807 2.0774 0.7044
v 0.1846 3.0942 0.7857
v -0.0260 2.0774 0.8134
v -0.0260 3.0942 0.8134
v 0.1846 2.0774 0.7857
v 0.6785 2.0774 0.4067
v 0.7597 2.0774 0.2105
v 0.7874 2.0774 -0.0000
v 0.7597 2.0774 -0.2105
v 0.6785 2.0774 -0.4067
v 0.5492 2.0774 -0.5752
v -0.6011 2.0774 0.5752
v -0.7304 2.0774 0.4067
v -0.8117 2.0774 0.2105
v -0.8394 2.0774 -0.0000
v -0.8117 2.0774 -0.2105
v -0.7304 2.0774 -0.4067
v -0.2365 2.0774 -0.7857
f 1 2 3
f 2 1 4
f 3 5 1
f 1 6 4
f 6 1 5
f 2 4 7
f 7 8 2
f 2 9 3
f 9 2 8
f 5 3 9
f 9 10 5
f 5 10 11
f 5 11 6
f 12 4 6
f 6 11 12
f 7 4 13
f 13 4 14
f 14 4 15
f 4 12 15
f 7 16 17
f 16 7 13
f 17 18 7
f 8 7 18
f 19 8 20
f 8 19 9
f 20 8 18
f 19 10 9
f 21 22 10
f 21 10 19
f 10 23 11
f 23 10 24
f 22 24 10
f 12 11 25
f 23 25 11
f 26 12 27
f 12 26 15
f 12 25 27
f 14 15 28
f 28 15 29
f 29 15 26
f 30 14 31
f 14 30 13
f 28 31 14
f 32 33 13
f 13 33 16
f 13 30 32
f 17 16 34
f 35 16 33
f 16 35 34
f 17 34 36
f 17 36 37
f 17 38 39
f 38 17 37
f 18 17 39
f 20 18 39
f 20 39 40
f 20 41 19
f 41 20 42
f 20 43 42
f 43 20 40
f 19 44 21
f 44 19 41
f 22 21 45
f 21 46 45
f 46 21 44
f 24 22 47
f 45 47 22
f 47 41 24
f 24 41 42
f 24 42 23
f 47 44 41
f 44 47 46
f 47 45 46
f 25 23 48
f 23 42 49
f 23 50 48
f 50 23 49
f 27 25 51
f 48 51 25
f 52 27 53
f 27 52 26
f 27 51 53
f 29 26 54
f 54 26 52
f 54 52 55
f 55 52 56
f 53 56 52
f 56 53 57
f 53 51 58
f 53 58 57
f 59 58 51
f 51 48 59
f 48 50 60
f 48 60 59
f 58 59 61
f 59 60 61
f 57 58 62
f 61 62 58
f 63 57 64
f 57 63 56
f 57 62 64
f 55 56 65
f 65 56 63
f 66 54 55
f 55 67 66
f 67 55 68
f 68 55 65
f 69 29 54
f 54 66 69
f 29 69 70
f 71 29 70
f 29 71 28
f 31 28 71
f 65 63 72
f 65 73 67
f 73 65 72
f 72 63 74
f 74 63 75
f 64 75 63
f 75 64 76
f 64 62 76
f 76 62 77
f 78 77 62
f 62 61 78
f 61 60 78
f 77 78 79
f 78 60 79
f 76 77 80
f 80 77 81
f 79 81 77
f 82 76 80
f 76 82 75
f 74 75 83
f 83 75 82
f 84 72 74
f 74 85 84
f 85 74 83
f 72 84 73
f 83 82 86
f 86 85 83
f 86 82 87
f 88 82 80
f 82 88 87
f 80 81 88
f 88 81 89
f 90 81 91
f 81 90 89
f 81 79 91
f 79 60 91
f 91 60 92
f 91 92 93
f 91 93 90
f 94 89 90
f 90 93 95
f 90 95 94
f 88 89 96
f 96 89 97
f 98 97 89
f 98 89 99
f 89 94 99
f 96 87 88
f 86 87 100
f 100 87 101
f 102 101 87
f 102 87 103
f 87 96 103
f 85 86 104
f 100 104 86
f 104 100 105
f 101 105 100
f 102 106 101
f 105 101 107
f 107 101 108
f 106 108 101
f 109 110 102
f 102 110 106
f 102 103 111
f 111 112 102
f 113 102 112
f 102 113 109
f 111 103 114
f 97 103 96
f 103 97 114
f 115 114 97
f 98 115 97
f 116 112 98
f 98 112 115
f 98 99 117
f 92 98 93
f 98 92 116
f 117 93 98
f 93 117 95
f 95 118 119
f 118 95 117
f 94 95 119
f 119 99 94
f 117 99 118
f 99 119 118
f 120 113 116
f 116 113 112
f 92 120 116
f 112 111 115
f 114 115 111
f 121 122 120
f 120 122 113
f 123 121 120
f 120 92 123
f 124 113 122
f 113 124 109
f 124 125 109
f 109 125 110
f 110 126 106
f 126 110 127
f 125 127 110
f 108 106 107
f 107 106 126
f 128 92 108
f 108 92 60
f 60 129 108
f 108 129 130
f 108 130 128
f 128 123 92
f 121 123 131
f 128 131 123
f 132 133 121
f 121 133 122
f 131 132 121
f 134 122 133
f 122 134 124
f 134 135 124
f 124 135 125
f 127 125 136
f 125 137 136
f 137 125 135
f 134 138 135
f 135 139 137
f 139 135 138
f 140 138 134
f 133 140 134
f 140 133 141
f 132 141 133
f 142 143 132
f 132 143 141
f 144 142 132
f 132 131 144
f 145 144 131
f 145 131 128
f 142 144 146
f 145 146 144
f 40 38 142
f 142 38 143
f 146 40 142
f 147 141 143
f 37 143 38
f 143 37 147
f 141 147 140
f 147 148 140
f 140 148 149
f 140 149 138
f 138 150 139
f 150 138 149
f 148 145 149
f 145 151 150
f 151 145 148
f 49 43 145
f 145 43 146
f 150 49 145
f 128 150 145
f 40 146 43
f 40 39 38
f 49 42 43
f 50 49 32
f 152 32 49
f 153 152 49
f 153 49 154
f 154 49 155
f 155 49 156
f 156 49 157
f 157 49 158
f 158 49 159
f 159 49 160
f 160 49 161
f 161 49 162
f 162 49 163
f 163 49 150
f 128 163 150
f 164 165 163
f 165 166 163
f 163 166 164
f 128 162 163
f 167 168 162
f 167 162 169
f 170 162 168
f 162 170 169
f 128 161 162
f 161 171 160
f 171 161 172
f 173 172 161
f 128 173 161
f 160 174 159
f 174 160 171
f 159 175 158
f 175 159 174
f 175 157 158
f 176 156 157
f 157 175 176
f 177 155 156
f 156 176 177
f 50 177 176
f 50 176 175
f 50 175 174
f 50 174 171
f 50 171 172
f 50 172 169
f 172 173 178
f 178 60 172
f 172 60 169
f 169 170 167
f 50 169 165
f 169 60 68
f 164 179 165
f 166 165 179
f 50 165 67
f 180 181 164
f 181 179 164
f 164 166 180
f 182 180 166
f 182 183 166
f 166 183 179
f 179 181 183
f 184 185 181
f 184 181 180
f 185 183 181
f 180 182 184
f 186 184 182
f 186 187 182
f 182 187 167
f 182 167 188
f 182 188 183
f 189 168 167
f 167 170 187
f 189 188 167
f 190 191 170
f 190 170 184
f 184 170 168
f 191 187 170
f 184 168 185
f 184 186 190
f 192 185 168
f 168 189 192
f 192 193 185
f 183 185 188
f 193 188 185
f 188 193 194
f 189 194 188
f 195 192 189
f 195 194 189
f 196 193 192
f 192 195 196
f 197 198 193
f 197 193 196
f 193 199 194
f 199 193 198
f 200 199 194
f 200 194 195
f 200 196 195
f 196 200 197
f 201 198 197
f 200 201 197
f 201 202 198
f 198 203 199
f 203 198 202
f 204 203 199
f 204 199 200
f 201 200 204
f 205 202 201
f 204 205 201
f 206 207 202
f 206 202 205
f 202 208 203
f 208 202 207
f 209 208 203
f 209 203 210
f 210 203 204
f 205 204 210
f 210 206 205
f 211 207 206
f 206 210 209
f 209 211 206
f 211 212 207
f 207 213 208
f 213 207 212
f 214 213 208
f 214 208 209
f 211 209 214
f 215 212 211
f 214 215 211
f 215 216 212
f 212 217 213
f 217 212 216
f 218 217 213
f 218 213 214
f 215 214 218
f 219 216 215
f 218 219 215
f 220 221 216
f 220 216 219
f 216 222 217
f 222 216 221
f 223 222 217
f 223 217 224
f 224 217 218
f 219 218 224
f 223 219 224
f 219 223 220
f 225 221 220
f 226 220 223
f 220 226 225
f 227 228 221
f 227 221 229
f 229 221 225
f 228 222 221
f 222 228 230
f 231 230 222
f 231 222 232
f 232 222 226
f 226 222 223
f 232 225 226
f 225 232 229
f 229 233 227
f 233 229 234
f 229 232 235
f 229 235 236
f 236 237 229
f 229 237 234
f 238 228 227
f 227 239 238
f 239 227 231
f 233 231 227
f 238 240 228
f 240 230 228
f 230 240 241
f 239 241 230
f 239 230 231
f 231 233 242
f 232 242 231
f 237 235 232
f 242 232 237
f 235 237 236
f 243 244 235
f 243 235 245
f 244 246 235
f 235 246 245
f 247 234 237
f 242 237 247
f 233 234 248
f 234 247 248
f 233 248 249
f 233 250 242
f 250 233 249
f 242 247 250
f 251 248 247
f 250 247 251
f 249 248 252
f 248 251 252
f 249 252 253
f 249 253 254
f 249 255 250
f 255 249 254
f 250 251 256
f 250 256 255
f 253 251 256
f 251 253 252
f 254 253 257
f 256 257 253
f 254 257 258
f 254 259 255
f 259 254 258
f 255 256 260
f 255 260 259
f 257 256 260
f 258 257 261
f 260 261 257
f 258 261 262
f 258 262 263
f 258 264 259
f 264 258 263
f 259 260 265
f 259 265 266
f 259 266 264
f 261 260 265
f 265 262 261
f 263 262 267
f 266 267 262
f 262 265 266
f 263 267 268
f 263 269 264
f 269 263 268
f 264 266 270
f 264 270 269
f 267 266 270
f 268 267 271
f 270 271 267
f 268 271 190
f 268 186 269
f 186 268 190
f 269 270 272
f 269 272 186
f 271 270 272
f 190 271 191
f 271 273 191
f 273 271 272
f 186 272 273
f 186 273 187
f 187 191 273
f 245 274 243
f 274 245 275
f 246 275 245
f 276 243 274
f 277 276 274
f 277 274 275
f 278 244 243
f 243 276 278
f 279 278 276
f 277 279 276
f 277 280 281
f 280 277 282
f 283 282 277
f 281 284 277
f 277 284 285
f 277 285 279
f 286 283 277
f 286 277 287
f 287 277 288
f 288 277 289
f 289 277 290
f 290 277 275
f 275 246 290
f 291 290 246
f 244 291 246
f 292 238 244
f 244 238 293
f 293 292 244
f 294 282 244
f 294 244 278
f 282 295 244
f 244 295 291
f 278 279 294
f 279 296 294
f 296 279 285
f 285 297 296
f 297 285 284
f 284 298 297
f 298 284 155
f 299 155 284
f 299 284 281
f 281 300 299
f 300 281 280
f 297 300 280
f 297 280 282
f 298 300 297
f 297 282 296
f 296 282 294
f 282 283 301
f 301 302 282
f 282 302 303
f 282 303 295
f 304 301 283
f 286 304 283
f 302 305 286
f 286 303 302
f 303 286 287
f 305 304 286
f 287 295 303
f 295 287 288
f 289 295 288
f 295 289 291
f 290 291 289
f 301 304 306
f 307 306 304
f 305 307 304
f 306 302 301
f 305 302 308
f 306 308 302
f 308 309 305
f 128 310 305
f 305 310 311
f 305 311 307
f 128 305 309
f 306 307 312
f 307 313 312
f 313 307 311
f 312 308 306
f 309 308 314
f 315 60 308
f 315 308 313
f 313 308 312
f 308 60 314
f 314 316 309
f 128 309 316
f 128 130 317
f 317 318 128
f 128 318 310
f 128 316 319
f 128 319 320
f 128 320 173
f 315 311 310
f 310 321 315
f 321 310 318
f 311 315 313
f 321 60 315
f 129 60 322
f 321 322 60
f 314 60 323
f 323 60 324
f 324 60 325
f 325 60 178
f 316 314 323
f 323 319 316
f 319 325 320
f 325 319 324
f 319 323 324
f 320 178 173
f 178 320 325
f 326 327 322
f 322 327 328
f 322 328 329
f 322 329 330
f 322 330 331
f 322 331 332
f 322 332 129
f 322 333 334
f 333 322 321
f 318 333 321
f 333 318 335
f 318 317 335
f 335 336 333
f 334 333 336
f 337 326 334
f 334 336 338
f 334 338 339
f 334 339 340
f 334 340 337
f 336 335 341
f 341 338 336
f 335 317 341
f 338 341 342
f 341 317 342
f 338 343 339
f 343 338 342
f 339 344 340
f 344 339 343
f 340 345 337
f 345 340 344
f 326 337 346
f 337 347 346
f 347 337 345
f 317 347 345
f 344 317 345
f 343 317 344
f 342 317 343
f 348 152 317
f 348 317 349
f 349 317 350
f 350 317 351
f 351 317 352
f 352 317 353
f 353 317 130
f 152 354 317
f 317 354 355
f 317 355 356
f 317 356 347
f 356 346 347
f 326 346 357
f 346 356 357
f 355 357 356
f 357 355 358
f 355 359 358
f 359 355 354
f 354 360 359
f 360 354 361
f 354 152 361
f 326 358 359
f 326 359 360
f 152 362 326
f 327 326 363
f 363 326 364
f 364 326 365
f 365 326 366
f 366 326 367
f 367 326 362
f 326 357 358
f 326 360 368
f 326 368 50
f 32 326 50
f 326 32 152
f 361 368 360
f 368 361 153
f 361 152 153
f 50 368 369
f 153 369 368
f 50 369 298
f 50 298 177
f 50 67 68
f 298 369 370
f 369 153 154
f 154 370 369
f 298 370 371
f 298 371 300
f 155 177 298
f 370 154 372
f 372 371 370
f 154 155 372
f 372 155 373
f 373 155 299
f 371 372 373
f 299 371 373
f 371 299 300
f 362 152 374
f 374 152 375
f 375 152 376
f 376 152 377
f 377 152 378
f 378 152 348
f 362 379 374
f 380 374 379
f 374 380 375
f 381 374 382
f 374 381 362
f 382 374 375
f 374 367 362
f 367 374 375
f 383 375 380
f 375 383 376
f 382 375 376
f 367 375 366
f 366 375 376
f 383 377 376
f 382 376 384
f 384 376 377
f 366 376 365
f 365 376 377
f 377 383 385
f 385 378 377
f 384 377 378
f 365 377 364
f 364 377 378
f 378 385 386
f 386 348 378
f 384 378 387
f 387 378 348
f 364 378 363
f 363 378 348
f 348 386 388
f 388 349 348
f 387 348 349
f 363 348 327
f 327 348 349
f 385 389 386
f 386 389 390
f 386 390 388
f 383 391 385
f 385 391 389
f 380 391 383
f 379 392 380
f 380 392 391
f 393 394 379
f 379 394 392
f 379 362 393
f 367 393 362
f 381 395 362
f 362 395 367
f 396 394 393
f 397 396 393
f 393 367 397
f 398 399 394
f 398 394 396
f 399 400 394
f 401 394 400
f 394 401 392
f 392 402 391
f 402 392 401
f 391 403 389
f 403 391 402
f 389 404 390
f 404 389 403
f 388 390 405
f 390 406 405
f 406 390 404
f 388 405 407
f 349 388 407
f 407 350 349
f 387 349 408
f 408 349 350
f 327 349 328
f 328 349 350
f 407 405 409
f 350 407 409
f 409 405 410
f 405 411 410
f 411 405 406
f 404 412 406
f 406 412 411
f 403 413 404
f 404 413 412
f 402 414 403
f 403 414 413
f 401 415 402
f 402 415 414
f 400 416 401
f 401 416 415
f 400 399 417
f 417 416 400
f 399 398 418
f 418 417 399
f 396 419 398
f 420 398 419
f 398 420 418
f 417 418 420
f 420 421 417
f 417 421 416
f 381 415 416
f 421 381 416
f 382 414 415
f 415 381 382
f 384 413 414
f 414 382 384
f 387 412 413
f 413 384 387
f 411 412 422
f 408 422 412
f 412 387 408
f 408 350 423
f 422 408 423
f 409 351 350
f 423 350 351
f 328 350 329
f 329 350 351
f 329 424 328
f 425 328 424
f 328 425 327
f 327 426 328
f 328 426 329
f 424 329 427
f 330 427 329
f 329 426 428
f 329 428 330
f 329 351 330
f 351 409 429
f 351 430 352
f 430 351 429
f 423 351 352
f 330 351 352
f 423 352 431
f 423 432 422
f 432 423 431
f 411 422 433
f 433 422 432
f 433 432 434
f 434 432 435
f 432 436 435
f 436 432 431
f 431 352 353
f 431 353 130
f 431 130 437
f 431 437 438
f 431 438 439
f 431 439 436
f 352 440 353
f 440 352 430
f 330 352 331
f 331 352 353
f 331 441 330
f 427 330 441
f 330 428 331
f 442 424 427
f 442 427 443
f 443 427 441
f 444 425 424
f 444 424 442
f 444 445 425
f 445 327 425
f 327 445 363
f 363 446 327
f 327 446 426
f 447 448 445
f 447 445 444
f 448 363 445
f 449 444 442
f 444 449 450
f 450 447 444
f 451 442 443
f 442 451 449
f 443 441 452
f 453 443 452
f 443 453 451
f 452 441 454
f 441 331 454
f 332 454 331
f 331 428 438
f 331 438 332
f 331 353 332
f 440 130 353
f 332 353 130
f 130 455 437
f 455 130 440
f 332 130 129
f 455 129 437
f 129 438 437
f 440 456 455
f 457 458 455
f 457 455 456
f 458 129 455
f 430 459 440
f 440 459 456
f 457 456 460
f 459 434 456
f 456 461 460
f 461 456 434
f 452 458 457
f 457 460 462
f 462 463 457
f 457 453 452
f 453 457 463
f 452 454 458
f 454 332 458
f 129 458 332
f 332 438 129
f 438 464 465
f 464 438 428
f 466 438 465
f 438 466 439
f 428 467 464
f 467 428 426
f 467 451 464
f 464 451 453
f 464 453 465
f 467 449 451
f 468 450 449
f 468 449 467
f 447 450 469
f 468 469 450
f 470 469 468
f 446 470 468
f 426 468 467
f 468 426 446
f 469 471 447
f 471 469 472
f 470 472 469
f 473 472 470
f 474 473 470
f 470 446 474
f 363 474 446
f 365 475 474
f 365 474 364
f 364 474 363
f 473 474 475
f 476 477 473
f 473 477 472
f 475 476 473
f 472 478 471
f 478 472 477
f 478 479 471
f 471 479 480
f 471 480 448
f 471 448 447
f 396 397 478
f 478 397 479
f 481 478 477
f 478 481 396
f 476 481 477
f 482 419 476
f 476 419 481
f 483 476 395
f 476 483 482
f 476 475 395
f 367 395 475
f 367 475 366
f 366 475 365
f 364 480 365
f 479 365 480
f 365 479 366
f 363 448 364
f 480 364 448
f 397 366 479
f 366 397 367
f 484 483 395
f 484 395 381
f 485 486 483
f 485 483 484
f 486 482 483
f 487 421 482
f 482 421 420
f 419 482 420
f 482 486 487
f 419 396 481
f 488 487 489
f 487 488 421
f 490 487 486
f 487 490 489
f 486 485 490
f 484 488 485
f 485 489 490
f 489 485 488
f 381 421 484
f 488 484 421
f 465 453 463
f 465 463 466
f 463 462 491
f 466 463 491
f 466 491 492
f 466 492 435
f 466 435 493
f 466 493 494
f 494 439 466
f 495 491 462
f 491 495 492
f 462 460 495
f 460 492 495
f 492 460 461
f 461 435 492
f 434 435 461
f 435 496 493
f 496 435 436
f 494 493 497
f 493 498 497
f 498 493 496
f 439 494 499
f 497 499 494
f 436 439 499
f 436 499 496
f 496 499 498
f 499 497 498
f 434 459 433
f 429 410 459
f 429 459 430
f 410 433 459
f 433 410 411
f 409 410 429
f 33 32 30
f 238 292 500
f 293 500 292
f 240 238 500
f 293 238 239
f 500 241 240
f 241 500 293
f 241 239 293
f 147 501 148
f 148 502 151
f 502 148 501
f 37 501 147
f 37 36 501
f 501 503 502
f 503 501 36
f 34 503 36
f 503 34 35
f 504 505 506
f 505 504 507
f 508 504 506
f 504 508 509
f 504 509 510
f 510 507 504
f 511 506 505
f 511 507 505
f 506 511 508
f 508 512 509
f 512 508 511
f 510 509 513
f 509 514 513
f 514 509 512
f 510 513 515
f 515 516 510
f 516 517 510
f 507 510 517
f 507 511 512
f 507 512 517
f 517 512 514
f 518 514 519
f 514 518 513
f 517 514 520
f 520 514 521
f 521 514 522
f 522 514 519
f 515 513 523
f 523 513 524
f 524 513 518
f 516 515 525
f 523 520 515
f 526 515 520
f 515 526 525
f 516 525 527
f 516 527 528
f 517 516 529
f 516 530 529
f 530 516 528
f 520 529 517
f 520 523 521
f 529 520 526
f 521 524 522
f 524 521 523
f 522 531 532
f 531 522 524
f 522 519 532
f 533 519 534
f 519 533 518
f 532 519 535
f 535 519 534
f 524 518 531
f 531 518 536
f 536 518 533
f 531 535 532
f 535 531 536
f 536 537 535
f 535 534 537
f 538 534 539
f 534 538 533
f 537 534 539
f 536 533 540
f 540 533 538
f 537 536 540
f 540 541 537
f 537 539 541
f 542 539 543
f 539 542 538
f 541 539 543
f 540 538 544
f 544 538 542
f 541 540 544
f 544 545 541
f 541 543 545
f 546 543 547
f 543 546 542
f 545 543 548
f 548 543 547
f 544 542 549
f 549 542 550
f 550 542 546
f 545 544 549
f 549 548 545
f 550 551 548
f 548 549 550
f 548 547 551
f 552 547 553
f 547 552 546
f 551 547 553
f 550 546 554
f 554 546 552
f 551 550 554
f 555 551 554
f 551 555 556
f 551 553 556
f 557 552 553
f 556 553 558
f 558 553 557
f 554 552 555
f 555 552 559
f 559 552 560
f 552 557 560
f 559 556 555
f 556 559 558
f 561 558 559
f 558 561 562
f 558 557 562
f 563 560 557
f 564 562 557
f 564 557 563
f 560 563 565
f 559 560 561
f 566 561 560
f 566 560 565
f 566 567 561
f 567 562 561
f 562 567 568
f 564 568 562
f 569 566 564
f 564 570 571
f 570 564 566
f 569 568 564
f 564 563 571
f 572 565 563
f 571 563 572
f 565 572 573
f 566 565 570
f 570 565 573
f 574 567 566
f 566 569 574
f 574 575 567
f 575 568 567
f 568 575 576
f 569 576 568
f 577 569 578
f 569 577 574
f 578 579 569
f 569 579 576
f 577 580 574
f 574 580 575
f 580 576 575
f 576 580 579
f 580 581 579
f 578 581 579
f 582 578 583
f 578 582 577
f 583 581 578
f 582 584 577
f 577 584 580
f 581 580 584
f 584 585 581
f 583 585 581
f 586 583 587
f 583 586 582
f 587 585 583
f 586 588 582
f 582 588 584
f 585 584 588
f 588 589 585
f 587 589 585
f 590 587 591
f 587 590 586
f 591 592 587
f 587 592 589
f 590 593 586
f 586 593 594
f 586 594 588
f 589 588 594
f 594 592 589
f 592 594 593
f 593 595 592
f 591 595 592
f 528 591 530
f 591 528 590
f 530 595 591
f 528 596 590
f 590 596 593
f 595 593 596
f 596 597 595
f 530 597 595
f 529 598 530
f 530 598 597
f 597 527 598
f 527 597 599
f 597 596 599
f 528 599 596
f 528 527 599
f 525 598 527
f 598 525 526
f 529 526 598
f 571 573 572
f 573 571 570
f 600 601 602
f 601 600 603
f 604 603 600
f 602 605 600
f 600 605 606
f 600 606 607
f 600 607 608
f 600 609 610
f 609 600 611
f 611 600 612
f 612 600 613
f 613 600 614
f 614 600 608
f 615 604 600
f 616 602 601
f 617 602 618
f 602 617 605
f 602 616 618
f 617 619 605
f 606 605 620
f 620 605 621
f 621 605 622
f 622 605 623
f 624 625 605
f 605 626 624
f 626 605 619
f 627 606 628
f 606 627 607
f 620 628 606
f 629 607 627
f 607 629 608
f 630 608 629
f 608 630 614
f 631 614 630
f 614 631 613
f 632 613 631
f 613 632 612
f 632 611 612
f 633 609 611
f 611 632 633
f 609 633 634
f 634 610 609
f 635 636 610
f 610 634 635
f 636 615 610
f 633 637 634
f 634 637 638
f 634 638 635
f 632 639 633
f 633 639 637
f 631 640 632
f 632 640 639
f 630 628 631
f 631 628 640
f 630 627 628
f 628 620 640
f 620 639 640
f 639 620 621
f 621 637 639
f 637 621 622
f 622 638 637
f 638 622 623
f 625 641 623
f 623 642 638
f 642 623 641
f 635 638 642
f 636 635 643
f 635 642 643
f 643 644 636
f 615 636 644
f 644 643 645
f 643 642 646
f 643 646 645
f 641 646 642
f 641 625 647
f 646 641 647
f 645 646 648
f 647 648 646
f 645 648 649
f 650 645 649
f 645 650 644
f 615 644 650
f 650 651 652
f 651 650 649
f 615 650 652
f 649 648 653
f 649 653 651
f 654 648 655
f 648 654 653
f 648 647 655
f 647 625 655
f 655 625 654
f 656 653 654
f 654 625 656
f 653 656 657
f 651 653 657
f 658 652 651
f 651 657 658
f 652 658 659
f 615 652 659
f 660 659 658
f 658 657 660
f 661 657 656
f 657 661 660
f 656 625 661
f 625 624 662
f 625 662 663
f 625 663 664
f 625 664 665
f 625 665 666
f 625 666 667
f 667 668 625
f 669 625 668
f 625 669 670
f 615 661 625
f 615 625 670
f 659 660 661
f 615 659 661
f 604 615 671
f 671 615 672
f 672 615 673
f 673 615 674
f 674 615 675
f 675 615 676
f 677 615 678
f 615 677 676
f 615 670 679
f 679 678 615
f 680 670 669
f 670 680 681
f 679 670 681
f 681 682 679
f 678 679 682
f 682 681 680
f 677 675 676
f 683 674 675
f 675 677 683
f 684 673 674
f 674 683 684
f 673 684 685
f 685 672 673
f 672 685 686
f 686 671 672
f 687 604 671
f 671 686 687
f 603 604 688
f 604 687 688
f 668 667 689
f 667 690 689
f 690 667 666
f 666 691 690
f 691 666 665
f 665 692 691
f 692 665 664
f 664 693 692
f 663 694 693
f 693 664 663
f 694 663 662
f 662 626 694
f 626 662 624
f 627 630 629
f 619 617 695
f 618 695 617
f 695 618 616
