# riel-base-ttp.obj (EXERSUITE3D, cm)
v 70.500 -9.766 3.189
v -70.500 -9.766 -3.389
v -70.500 -9.766 3.189
v 70.500 -9.766 -3.389
v 70.500 -5.234 -3.389
v -70.500 -5.234 3.189
v -70.500 -5.234 -3.389
v 70.500 -5.234 3.189
v -43.528 -5.000 3.423
v -70.500 -10.000 3.423
v -43.528 -10.000 3.423
v -70.500 -5.000 3.423
v -70.500 -5.000 -3.623
v 70.500 -10.000 -3.623
v -70.500 -10.000 -3.623
v 70.500 -5.000 -3.623
v 70.500 -10.000 3.423
v 70.500 -5.000 3.423
v 60.514 -10.000 3.423
v 60.514 -5.000 3.423
v 35.549 -5.000 3.423
v -23.528 -10.000 3.423
v 35.549 -10.000 3.423
v -23.528 -5.000 3.423
v -25.387 -4.632 3.423
v -27.196 -4.067 3.423
v -28.933 -3.311 3.423
v -30.581 -2.374 3.423
v -32.118 -1.266 3.423
v -33.528 0.000 3.423
v -43.528 10.000 3.423
v -34.794 1.410 3.423
v -35.902 2.947 3.423
v -36.839 4.594 3.423
v -37.595 6.332 3.423
v -38.160 8.141 3.423
v -38.528 10.000 3.423
v -43.528 -10.000 3.623
v -23.528 -10.000 3.623
v -23.528 -5.000 3.623
v -43.528 -5.000 3.623
v -25.387 -4.632 3.623
v -27.196 -4.067 3.623
v -28.933 -3.311 3.623
v -30.581 -2.374 3.623
v -32.118 -1.266 3.623
v -33.528 -0.000 3.623
v -43.528 10.000 3.623
v -34.794 1.410 3.623
v -35.902 2.947 3.623
v -36.839 4.594 3.623
v -37.595 6.332 3.623
v -38.160 8.141 3.623
v -38.528 10.000 3.623
v 37.771 -4.860 3.423
v 39.965 -4.486 3.423
v 42.108 -3.882 3.423
v 44.176 -3.056 3.423
v 46.144 -2.017 3.423
v 47.992 -0.776 3.423
v 49.699 0.654 3.423
v 60.514 10.000 3.423
v 51.245 2.255 3.423
v 52.614 4.011 3.423
v 53.790 5.901 3.423
v 54.760 7.905 3.423
v 55.514 10.000 3.423
v 60.514 10.000 3.623
v 55.514 10.000 3.623
v 54.760 7.905 3.623
v 53.790 5.901 3.623
v 52.614 4.011 3.623
v 51.245 2.255 3.623
v 49.699 0.654 3.623
v 47.992 -0.776 3.623
v 46.144 -2.017 3.623
v 44.176 -3.056 3.623
v 42.108 -3.882 3.623
v 39.965 -4.486 3.623
v 37.771 -4.860 3.623
v 35.549 -5.000 3.623
v 60.514 -5.000 3.623
v 35.549 -10.000 3.623
v 60.514 -10.000 3.623
f 1 2 3
f 2 1 4
f 5 6 7
f 6 5 8
f 6 1 3
f 1 6 8
f 5 2 4
f 2 5 7
f 9 10 11
f 10 9 12
f 13 14 15
f 14 13 16
f 17 1 18
f 1 17 14
f 1 14 4
f 4 14 5
f 18 8 16
f 8 18 1
f 16 8 5
f 16 5 14
f 12 6 10
f 6 12 13
f 6 13 7
f 7 13 2
f 10 3 15
f 3 10 6
f 15 3 2
f 15 2 13
f 18 19 17
f 19 18 20
f 21 22 23
f 22 21 24
f 9 25 24
f 25 9 26
f 26 9 27
f 27 9 28
f 28 9 29
f 29 9 30
f 30 9 31
f 30 31 32
f 32 31 33
f 33 31 34
f 34 31 35
f 35 31 36
f 36 31 37
f 22 38 11
f 38 22 39
f 22 40 39
f 40 22 24
f 9 38 41
f 38 9 11
f 40 38 39
f 38 40 41
f 41 40 42
f 41 42 43
f 41 43 44
f 41 44 45
f 41 45 46
f 41 46 47
f 41 47 48
f 48 47 49
f 48 49 50
f 48 50 51
f 48 51 52
f 48 52 53
f 48 53 54
f 36 54 53
f 54 36 37
f 54 31 48
f 31 54 37
f 31 41 48
f 41 31 9
f 40 25 42
f 25 40 24
f 42 26 43
f 26 42 25
f 43 27 44
f 27 43 26
f 44 28 45
f 28 44 27
f 45 29 46
f 29 45 28
f 46 30 47
f 30 46 29
f 30 49 47
f 49 30 32
f 32 50 49
f 50 32 33
f 33 51 50
f 51 33 34
f 34 52 51
f 52 34 35
f 35 53 52
f 53 35 36
f 9 13 12
f 13 9 16
f 16 9 24
f 16 24 21
f 16 21 20
f 16 20 18
f 55 20 21
f 20 55 56
f 20 56 57
f 20 57 58
f 20 58 59
f 20 59 60
f 20 60 61
f 20 61 62
f 62 61 63
f 62 63 64
f 62 64 65
f 62 65 66
f 62 66 67
f 68 67 69
f 67 68 62
f 67 70 69
f 70 67 66
f 66 71 70
f 71 66 65
f 65 72 71
f 72 65 64
f 64 73 72
f 73 64 63
f 63 74 73
f 74 63 61
f 74 60 75
f 60 74 61
f 75 59 76
f 59 75 60
f 76 58 77
f 58 76 59
f 77 57 78
f 57 77 58
f 78 56 79
f 56 78 57
f 79 55 80
f 55 79 56
f 80 21 81
f 21 80 55
f 20 68 82
f 68 20 62
f 82 83 84
f 83 82 81
f 81 82 80
f 80 82 79
f 79 82 78
f 78 82 77
f 77 82 76
f 76 82 75
f 75 82 74
f 74 82 68
f 74 68 73
f 73 68 72
f 72 68 71
f 71 68 70
f 70 68 69
f 21 83 81
f 83 21 23
f 19 83 23
f 83 19 84
f 19 82 84
f 82 19 20
