# roldana-ttp.obj (EXERSUITE3D, cm)
v 0.826 0.028 3.084
v 0.000 -1.172 3.579
v 0.926 -1.172 3.457
v 0.000 0.028 3.193
v 2.531 -1.172 2.531
v 1.597 0.028 2.765
v 1.789 -1.172 3.099
v 2.258 0.028 2.258
v -0.934 1.172 3.484
v -1.597 0.028 2.765
v -0.826 0.028 3.084
v -1.804 1.172 3.124
v -2.551 1.172 -2.551
v -1.597 0.028 -2.765
v -2.258 0.028 -2.258
v -1.804 1.172 -3.124
v 2.258 0.028 -2.258
v 3.099 -1.172 -1.789
v 2.531 -1.172 -2.531
v 2.765 0.028 -1.597
v -0.826 0.028 -3.084
v -0.000 -1.172 -3.579
v -0.926 -1.172 -3.457
v -0.000 0.028 -3.193
v -2.258 0.028 2.258
v -3.124 1.172 1.804
v -2.765 0.028 1.597
v -2.551 1.172 2.551
v 3.124 1.172 -1.804
v 2.551 1.172 -2.551
v -1.789 -1.172 3.099
v -2.531 -1.172 2.531
v 0.000 1.172 3.607
v 3.084 0.028 0.826
v 3.579 -1.172 -0.000
v 3.193 0.028 -0.000
v 3.457 -1.172 0.926
v 3.457 -1.172 -0.926
v 3.084 0.028 -0.826
v -0.934 1.172 -3.484
v -3.193 0.028 -0.000
v -3.484 1.172 0.934
v -3.607 1.172 -0.000
v -3.084 0.028 0.826
v 1.597 0.028 -2.765
v 1.789 -1.172 -3.099
v -0.926 -1.172 3.457
v -3.579 -1.172 -0.000
v -3.084 0.028 -0.826
v -3.457 -1.172 -0.926
v -3.099 -1.172 1.789
v -3.484 1.172 -0.934
v -3.099 -1.172 -1.789
v -2.531 -1.172 -2.531
v -2.765 0.028 -1.597
v 2.765 0.028 1.597
v 3.099 -1.172 1.789
v 1.804 1.172 -3.124
v 3.484 1.172 -0.934
v 0.926 -1.172 -3.457
v 0.826 0.028 -3.084
v 0.934 1.172 3.484
v -3.124 1.172 -1.804
v 3.484 1.172 0.934
v 3.124 1.172 1.804
v 3.607 1.172 -0.000
v 2.551 1.172 2.551
v 1.804 1.172 3.124
v 0.934 1.172 -3.484
v -0.000 1.172 -3.607
v -3.457 -1.172 0.926
v -1.789 -1.172 -3.099
f 1 2 3
f 2 1 4
f 5 6 7
f 6 5 8
f 9 10 11
f 10 9 12
f 13 14 15
f 14 13 16
f 17 18 19
f 18 17 20
f 21 22 23
f 22 21 24
f 25 26 27
f 26 25 28
f 29 17 30
f 17 29 20
f 31 25 32
f 25 31 10
f 33 11 4
f 11 33 9
f 34 35 36
f 35 34 37
f 20 38 18
f 38 20 39
f 16 21 14
f 21 16 40
f 41 42 43
f 42 41 44
f 45 19 46
f 19 45 17
f 11 31 47
f 31 11 10
f 48 49 50
f 49 48 41
f 51 25 27
f 25 51 32
f 49 43 52
f 43 49 41
f 53 15 54
f 15 53 55
f 56 37 34
f 37 56 57
f 58 17 45
f 17 58 30
f 59 20 29
f 20 59 39
f 50 55 53
f 55 50 49
f 24 60 22
f 60 24 61
f 4 47 2
f 47 4 11
f 62 4 1
f 4 62 33
f 15 63 13
f 63 15 55
f 55 52 63
f 52 55 49
f 61 46 60
f 46 61 45
f 64 56 34
f 56 64 65
f 59 64 66
f 64 59 29
f 64 29 65
f 65 29 30
f 65 30 67
f 67 30 58
f 67 58 68
f 68 58 69
f 68 69 62
f 62 69 70
f 62 70 33
f 33 70 40
f 33 40 9
f 9 40 16
f 9 16 12
f 12 16 28
f 28 16 13
f 28 13 63
f 28 63 26
f 26 63 52
f 26 52 42
f 42 52 43
f 66 34 36
f 34 66 64
f 8 57 56
f 57 8 5
f 71 27 44
f 27 71 51
f 71 41 48
f 41 71 44
f 65 8 56
f 8 65 67
f 15 72 54
f 72 15 14
f 8 68 6
f 68 8 67
f 39 35 38
f 35 39 36
f 27 42 44
f 42 27 26
f 68 1 6
f 1 68 62
f 40 24 21
f 24 40 70
f 66 39 59
f 39 66 36
f 70 61 24
f 61 70 69
f 37 38 35
f 38 37 18
f 18 37 57
f 18 57 19
f 19 57 5
f 19 5 46
f 46 5 7
f 46 7 3
f 46 3 60
f 60 3 2
f 60 2 22
f 22 2 23
f 23 2 47
f 23 47 31
f 23 31 72
f 72 31 32
f 72 32 54
f 54 32 53
f 53 32 51
f 53 51 50
f 50 51 71
f 50 71 48
f 6 3 7
f 3 6 1
f 69 45 61
f 45 69 58
f 10 28 25
f 28 10 12
f 14 23 72
f 23 14 21
