# travesano-frontal-ttp.obj (EXERSUITE3D, cm)
v 36.958 9.998 -2.408
v -36.958 5.002 -2.408
v -36.958 9.998 -2.408
v 36.958 5.002 -2.408
v -51.823 -8.043 -2.408
v -51.958 5.002 -2.408
v -51.958 -9.998 -2.408
v -51.435 -6.121 -2.408
v -50.801 -4.267 -2.408
v -49.931 -2.510 -2.408
v -48.841 -0.881 -2.408
v -47.548 0.592 -2.408
v -46.074 1.885 -2.408
v -44.446 2.975 -2.408
v -42.689 3.845 -2.408
v -40.834 4.479 -2.408
v -38.913 4.867 -2.408
v -59.004 9.998 -2.408
v -59.004 -9.998 -2.408
v -51.958 9.998 -2.408
v 51.958 9.998 -2.608
v 36.958 5.002 -2.608
v 36.958 9.998 -2.608
v 38.933 4.923 -2.608
v 40.880 4.578 -2.608
v 42.763 3.973 -2.608
v 44.546 3.119 -2.608
v 46.198 2.032 -2.608
v 47.688 0.732 -2.608
v 48.988 -0.758 -2.608
v 50.075 -2.410 -2.608
v 50.929 -4.193 -2.608
v 51.534 -6.075 -2.608
v 51.879 -8.022 -2.608
v 51.958 -9.998 -2.608
v 59.004 9.998 -2.608
v 59.004 -9.998 -2.608
v 38.933 4.923 -2.408
v 47.688 0.732 -2.408
v 46.198 2.032 -2.408
v 44.546 3.119 -2.408
v 42.763 3.973 -2.408
v 51.534 -6.075 -2.408
v 51.879 -8.022 -2.408
v 59.004 -9.998 -2.408
v 51.958 -9.998 -2.408
v 59.004 9.998 -2.408
v 40.880 4.578 -2.408
v 51.958 9.998 -2.408
v 50.075 -2.410 -2.408
v 50.929 -4.193 -2.408
v 48.988 -0.758 -2.408
v -40.834 4.479 -2.608
v -38.913 4.867 -2.608
v -51.958 -9.998 -2.608
v -51.823 -8.043 -2.608
v -59.004 -9.998 -2.608
v -50.801 -4.267 -2.608
v -49.931 -2.510 -2.608
v -59.004 9.998 -2.608
v -48.841 -0.881 -2.608
v -47.548 0.592 -2.608
v -51.435 -6.121 -2.608
v -36.958 5.002 -2.608
v -44.446 2.975 -2.608
v -42.689 3.845 -2.608
v -46.074 1.885 -2.608
v -51.958 9.998 -2.608
v -36.958 9.998 -2.608
v -51.958 5.002 2.608
v -51.958 5.195 2.415
v -51.958 9.998 2.608
v -51.958 9.805 2.415
v -51.958 9.805 -2.215
v -51.958 5.195 -2.215
v 51.958 5.195 -2.215
v 51.958 9.805 -2.215
v 51.958 9.998 2.608
v 51.958 5.195 2.415
v 51.958 9.805 2.415
v 51.958 5.002 2.608
f 1 2 3
f 2 1 4
f 5 6 7
f 6 5 8
f 6 8 9
f 6 9 10
f 6 10 11
f 6 11 12
f 6 12 13
f 6 13 14
f 6 14 15
f 6 15 16
f 6 16 17
f 6 17 2
f 7 18 19
f 18 7 20
f 20 7 6
f 21 22 23
f 22 21 24
f 24 21 25
f 25 21 26
f 26 21 27
f 27 21 28
f 28 21 29
f 29 21 30
f 30 21 31
f 31 21 32
f 32 21 33
f 33 21 34
f 34 21 35
f 35 21 36
f 35 36 37
f 38 22 24
f 22 38 4
f 39 28 29
f 28 39 40
f 41 26 27
f 26 41 42
f 1 22 4
f 22 1 23
f 40 27 28
f 27 40 41
f 43 34 44
f 34 43 33
f 45 35 37
f 35 45 46
f 36 45 37
f 45 36 47
f 42 25 26
f 25 42 48
f 49 36 21
f 36 49 47
f 44 35 46
f 35 44 34
f 50 32 51
f 32 50 31
f 39 30 52
f 30 39 29
f 48 24 25
f 24 48 38
f 51 33 43
f 33 51 32
f 52 31 50
f 31 52 30
f 17 53 54
f 53 17 16
f 55 5 7
f 5 55 56
f 7 57 55
f 57 7 19
f 58 10 9
f 10 58 59
f 18 57 19
f 57 18 60
f 61 12 11
f 12 61 62
f 56 8 5
f 8 56 63
f 2 54 64
f 54 2 17
f 59 11 10
f 11 59 61
f 15 65 66
f 65 15 14
f 16 66 53
f 66 16 15
f 13 62 67
f 62 13 12
f 60 20 68
f 20 60 18
f 14 67 65
f 67 14 13
f 64 3 2
f 3 64 69
f 63 9 8
f 9 63 58
f 68 57 60
f 57 68 55
f 55 68 56
f 56 68 63
f 63 68 58
f 58 68 59
f 59 68 61
f 61 68 62
f 62 68 69
f 62 69 67
f 67 69 65
f 65 69 66
f 66 69 53
f 53 69 54
f 54 69 64
f 70 71 6
f 71 70 72
f 71 72 73
f 73 72 74
f 6 75 20
f 75 6 71
f 20 75 74
f 20 74 72
f 76 74 75
f 74 76 77
f 20 69 68
f 69 20 3
f 3 20 72
f 3 72 1
f 1 72 49
f 49 72 78
f 1 21 23
f 21 1 49
f 71 76 75
f 76 71 79
f 80 76 79
f 76 80 77
f 77 73 74
f 73 77 80
f 81 72 70
f 72 81 78
f 73 79 71
f 79 73 80
