# barra-pr.obj (EXERSUITE3D, cm)
v -35.000 3.500 3.500
v -35.000 3.297 3.297
v -35.000 -3.297 3.297
v -35.000 3.500 -3.500
v -35.000 3.297 -3.297
v -35.000 -3.500 -3.500
v -35.000 -3.500 3.500
v -35.000 -3.297 -3.297
v 30.925 3.500 1.620
v 30.916 3.500 -1.775
v 30.906 3.500 1.750
v 30.933 3.500 -1.647
v 30.978 3.500 1.499
v 30.982 3.500 -1.528
v 31.060 3.500 1.396
v 31.060 3.500 -1.426
v 31.165 3.500 1.318
v 31.163 3.500 -1.347
v 31.282 3.500 -1.298
v 31.288 3.500 1.270
v 31.410 3.500 -1.281
v 31.418 3.500 1.255
v 31.538 3.500 -1.298
v 31.549 3.500 1.274
v 31.657 3.500 -1.347
v 31.669 3.500 1.327
v 31.759 3.500 -1.426
v 31.772 3.500 1.409
v 31.838 3.500 -1.528
v 31.850 3.500 1.514
v 31.887 3.500 -1.647
v 31.899 3.500 1.637
v 31.904 3.500 -1.775
v 31.914 3.500 1.767
v -31.862 3.500 2.006
v -31.782 3.500 2.110
v -31.678 3.500 2.190
v -31.557 3.500 2.240
v -31.427 3.500 2.257
v 35.000 3.500 3.500
v -31.912 3.500 1.884
v -31.929 3.500 1.754
v -31.955 3.500 -1.665
v -31.297 3.500 2.240
v -31.175 3.500 2.190
v -31.071 3.500 2.110
v -30.991 3.500 2.006
v -30.941 3.500 1.884
v -30.924 3.500 1.754
v -30.902 3.500 -1.636
v -30.898 3.500 -1.774
v 31.271 3.500 2.243
v 31.150 3.500 2.191
v 31.047 3.500 2.109
v 30.969 3.500 2.003
v 30.921 3.500 1.881
v 31.401 3.500 2.263
v 31.532 3.500 2.248
v 31.654 3.500 2.199
v 31.760 3.500 2.121
v 31.842 3.500 2.018
v 31.894 3.500 1.898
v 35.000 3.500 -3.500
v -31.481 3.500 -2.248
v -31.616 3.500 -2.216
v -31.738 3.500 -2.150
v -31.839 3.500 -2.055
v -31.912 3.500 -1.936
v -31.951 3.500 -1.803
v -31.343 3.500 -2.244
v -31.210 3.500 -2.205
v -31.092 3.500 -2.132
v -30.996 3.500 -2.031
v -30.930 3.500 -1.909
v 31.282 3.500 -2.252
v 31.163 3.500 -2.203
v 31.060 3.500 -2.124
v 30.982 3.500 -2.022
v 30.933 3.500 -1.903
v 31.410 3.500 -2.269
v 31.538 3.500 -2.252
v 31.657 3.500 -2.203
v 31.759 3.500 -2.124
v 31.838 3.500 -2.022
v 31.887 3.500 -1.903
v -31.923 3.500 -1.530
v -31.912 3.500 1.624
v -31.857 3.500 -1.408
v -31.862 3.500 1.503
v -31.782 3.500 1.399
v -31.762 3.500 -1.307
v -31.678 3.500 1.319
v -31.644 3.500 -1.234
v -31.557 3.500 1.269
v -31.511 3.500 -1.195
v -31.427 3.500 1.251
v -31.372 3.500 -1.191
v -31.297 3.500 1.269
v -31.237 3.500 -1.223
v -31.175 3.500 1.319
v -31.115 3.500 -1.289
v -31.071 3.500 1.399
v -31.014 3.500 -1.385
v -30.991 3.500 1.503
v -30.942 3.500 -1.503
v -30.941 3.500 1.624
v 30.917 -3.500 -1.635
v 30.904 -3.500 1.739
v 30.900 -3.500 -1.766
v 30.923 -3.500 1.609
v 30.968 -3.500 -1.513
v 30.974 -3.500 1.488
v 31.049 -3.500 -1.408
v 31.056 -3.500 1.385
v 31.154 -3.500 -1.327
v 31.161 -3.500 1.306
v 31.276 -3.500 -1.276
v 31.282 -3.500 1.257
v 31.407 -3.500 -1.259
v 31.413 -3.500 1.242
v 31.538 -3.500 -1.276
v 31.542 -3.500 1.260
v 31.660 -3.500 -1.327
v 31.663 -3.500 1.312
v 31.765 -3.500 -1.408
v 31.766 -3.500 1.393
v 31.846 -3.500 -1.513
v 31.845 -3.500 1.498
v 31.894 -3.500 1.620
v 31.897 -3.500 -1.635
v 31.910 -3.500 1.750
v 31.914 -3.500 -1.766
v -31.907 -3.500 -1.747
v -31.912 -3.500 1.753
v -31.892 -3.500 -1.874
v -31.845 -3.500 -1.992
v -31.768 -3.500 -2.094
v -31.668 -3.500 -2.173
v -31.551 -3.500 -2.223
v -31.425 -3.500 -2.241
v 35.000 -3.500 -3.500
v -31.298 -3.500 -2.226
v -31.180 -3.500 -2.178
v -31.078 -3.500 -2.102
v -30.999 -3.500 -2.002
v -30.949 -3.500 -1.884
v -30.931 -3.500 -1.758
v -30.926 -3.500 1.736
v 31.276 -3.500 -2.256
v 31.154 -3.500 -2.205
v 31.049 -3.500 -2.124
v 30.968 -3.500 -2.019
v 30.917 -3.500 -1.897
v 31.407 -3.500 -2.273
v 31.538 -3.500 -2.256
v 31.660 -3.500 -2.205
v 31.765 -3.500 -2.124
v 31.846 -3.500 -2.019
v 31.897 -3.500 -1.897
v -31.411 -3.500 2.238
v 35.000 -3.500 3.500
v -31.539 -3.500 2.223
v -31.659 -3.500 2.176
v -31.762 -3.500 2.099
v -31.842 -3.500 1.998
v -31.893 -3.500 1.880
v -31.284 -3.500 2.219
v -31.165 -3.500 2.167
v -31.065 -3.500 2.087
v -30.988 -3.500 1.984
v -30.941 -3.500 1.864
v 31.271 -3.500 2.228
v 31.151 -3.500 2.177
v 31.048 -3.500 2.096
v 30.969 -3.500 1.991
v 30.920 -3.500 1.869
v 31.401 -3.500 2.247
v 31.532 -3.500 2.231
v 31.653 -3.500 2.182
v 31.758 -3.500 2.104
v 31.839 -3.500 2.001
v 31.891 -3.500 1.880
v -31.898 -3.500 1.625
v -31.889 -3.500 -1.621
v -31.851 -3.500 1.505
v -31.839 -3.500 -1.504
v -31.774 -3.500 1.402
v -31.761 -3.500 -1.404
v -31.673 -3.500 1.322
v -31.659 -3.500 -1.327
v -31.555 -3.500 1.270
v -31.540 -3.500 -1.280
v -31.428 -3.500 1.251
v -31.414 -3.500 -1.264
v -31.300 -3.500 1.266
v -31.288 -3.500 -1.283
v -31.180 -3.500 1.313
v -31.170 -3.500 -1.333
v -31.077 -3.500 1.390
v -31.070 -3.500 -1.411
v -30.996 -3.500 1.491
v -30.994 -3.500 -1.513
v -30.945 -3.500 1.609
v -30.946 -3.500 -1.632
v 35.000 -3.297 3.297
v 35.000 -3.297 -3.297
v 35.000 3.297 -3.297
v 35.000 3.297 3.297
v -31.898 -3.297 1.625
v -31.907 -3.297 -1.747
v -31.912 -3.297 1.753
v -31.889 -3.297 -1.621
v -31.851 -3.297 1.505
v -31.839 -3.297 -1.504
v -31.774 -3.297 1.402
v -31.761 -3.297 -1.404
v -31.673 -3.297 1.322
v -31.659 -3.297 -1.327
v -31.555 -3.297 1.270
v -31.540 -3.297 -1.280
v -31.428 -3.297 1.251
v -31.414 -3.297 -1.264
v -31.300 -3.297 1.266
v -31.288 -3.297 -1.283
v -31.180 -3.297 1.313
v -31.170 -3.297 -1.333
v -31.077 -3.297 1.390
v -31.070 -3.297 -1.411
v -30.996 -3.297 1.491
v -30.994 -3.297 -1.513
v -30.945 -3.297 1.609
v -30.946 -3.297 -1.632
v -30.931 -3.297 -1.758
v -30.926 -3.297 1.736
v -31.842 -3.297 1.998
v -31.762 -3.297 2.099
v -31.659 -3.297 2.176
v -31.539 -3.297 2.223
v -31.411 -3.297 2.238
v -31.893 -3.297 1.880
v -31.284 -3.297 2.219
v -31.165 -3.297 2.167
v -31.065 -3.297 2.087
v -30.988 -3.297 1.984
v -30.941 -3.297 1.864
v 31.271 -3.297 2.228
v 31.151 -3.297 2.177
v 31.048 -3.297 2.096
v 30.969 -3.297 1.991
v 30.920 -3.297 1.869
v 30.904 -3.297 1.739
v 30.900 -3.297 -1.766
v 31.401 -3.297 2.247
v 31.532 -3.297 2.231
v 31.653 -3.297 2.182
v 31.758 -3.297 2.104
v 31.839 -3.297 2.001
v 31.891 -3.297 1.880
v 31.910 -3.297 1.750
v 31.914 -3.297 -1.766
v -31.425 -3.297 -2.241
v -31.551 -3.297 -2.223
v -31.668 -3.297 -2.173
v -31.768 -3.297 -2.094
v -31.845 -3.297 -1.992
v -31.892 -3.297 -1.874
v -31.298 -3.297 -2.226
v -31.180 -3.297 -2.178
v -31.078 -3.297 -2.102
v -30.999 -3.297 -2.002
v -30.949 -3.297 -1.884
v 31.276 -3.297 -2.256
v 31.154 -3.297 -2.205
v 31.049 -3.297 -2.124
v 30.968 -3.297 -2.019
v 30.917 -3.297 -1.897
v 31.407 -3.297 -2.273
v 31.538 -3.297 -2.256
v 31.660 -3.297 -2.205
v 31.765 -3.297 -2.124
v 31.846 -3.297 -2.019
v 31.897 -3.297 -1.897
v 30.917 -3.297 -1.635
v 30.923 -3.297 1.609
v 30.968 -3.297 -1.513
v 30.974 -3.297 1.488
v 31.049 -3.297 -1.408
v 31.056 -3.297 1.385
v 31.154 -3.297 -1.327
v 31.161 -3.297 1.306
v 31.276 -3.297 -1.276
v 31.282 -3.297 1.257
v 31.407 -3.297 -1.259
v 31.413 -3.297 1.242
v 31.538 -3.297 -1.276
v 31.542 -3.297 1.260
v 31.660 -3.297 -1.327
v 31.663 -3.297 1.312
v 31.765 -3.297 -1.408
v 31.766 -3.297 1.393
v 31.846 -3.297 -1.513
v 31.845 -3.297 1.498
v 31.894 -3.297 1.620
v 31.897 -3.297 -1.635
v -31.951 3.297 -1.803
v -31.955 3.297 -1.665
v -31.912 3.297 -1.936
v -31.839 3.297 -2.055
v -31.738 3.297 -2.150
v -31.616 3.297 -2.216
v -31.481 3.297 -2.248
v -31.343 3.297 -2.244
v -31.210 3.297 -2.205
v -31.092 3.297 -2.132
v -30.996 3.297 -2.031
v -30.930 3.297 -1.909
v -30.898 3.297 -1.774
v 31.282 3.297 -2.252
v 31.163 3.297 -2.203
v 31.060 3.297 -2.124
v 30.982 3.297 -2.022
v 30.933 3.297 -1.903
v 30.916 3.297 -1.775
v 30.906 3.297 1.750
v 31.410 3.297 -2.269
v 31.538 3.297 -2.252
v 31.657 3.297 -2.203
v 31.759 3.297 -2.124
v 31.838 3.297 -2.022
v 31.887 3.297 -1.903
v 31.904 3.297 -1.775
v 31.914 3.297 1.767
v -31.427 3.297 2.257
v -31.557 3.297 2.240
v -31.678 3.297 2.190
v -31.782 3.297 2.110
v -31.862 3.297 2.006
v -31.912 3.297 1.884
v -31.929 3.297 1.754
v -31.297 3.297 2.240
v -31.175 3.297 2.190
v -31.071 3.297 2.110
v -30.991 3.297 2.006
v -30.941 3.297 1.884
v -30.924 3.297 1.754
v -30.902 3.297 -1.636
v 31.271 3.297 2.243
v 31.150 3.297 2.191
v 31.047 3.297 2.109
v 30.969 3.297 2.003
v 30.921 3.297 1.881
v 31.401 3.297 2.263
v 31.532 3.297 2.248
v 31.654 3.297 2.199
v 31.760 3.297 2.121
v 31.842 3.297 2.018
v 31.894 3.297 1.898
v 30.925 3.297 1.620
v 30.933 3.297 -1.647
v 30.978 3.297 1.499
v 30.982 3.297 -1.528
v 31.060 3.297 1.396
v 31.060 3.297 -1.426
v 31.165 3.297 1.318
v 31.163 3.297 -1.347
v 31.282 3.297 -1.298
v 31.288 3.297 1.270
v 31.410 3.297 -1.281
v 31.418 3.297 1.255
v 31.538 3.297 -1.298
v 31.549 3.297 1.274
v 31.657 3.297 -1.347
v 31.669 3.297 1.327
v 31.759 3.297 -1.426
v 31.772 3.297 1.409
v 31.838 3.297 -1.528
v 31.850 3.297 1.514
v 31.887 3.297 -1.647
v 31.899 3.297 1.637
v -31.923 3.297 -1.530
v -31.912 3.297 1.624
v -31.857 3.297 -1.408
v -31.862 3.297 1.503
v -31.782 3.297 1.399
v -31.762 3.297 -1.307
v -31.678 3.297 1.319
v -31.644 3.297 -1.234
v -31.557 3.297 1.269
v -31.511 3.297 -1.195
v -31.427 3.297 1.251
v -31.372 3.297 -1.191
v -31.297 3.297 1.269
v -31.237 3.297 -1.223
v -31.175 3.297 1.319
v -31.115 3.297 -1.289
v -31.071 3.297 1.399
v -31.014 3.297 -1.385
v -30.991 3.297 1.503
v -30.942 3.297 -1.503
v -30.941 3.297 1.624
f 1 2 3
f 2 1 4
f 2 4 5
f 5 4 6
f 7 3 6
f 3 7 1
f 6 3 8
f 6 8 5
f 9 10 11
f 10 9 12
f 12 9 13
f 12 13 14
f 14 13 15
f 14 15 16
f 16 15 17
f 16 17 18
f 18 17 19
f 19 17 20
f 19 20 21
f 21 20 22
f 21 22 23
f 23 22 24
f 23 24 25
f 25 24 26
f 25 26 27
f 27 26 28
f 27 28 29
f 29 28 30
f 29 30 31
f 31 30 32
f 31 32 33
f 33 32 34
f 1 35 4
f 35 1 36
f 36 1 37
f 37 1 38
f 38 1 39
f 39 1 40
f 4 35 41
f 4 41 42
f 4 42 43
f 39 40 44
f 44 40 45
f 45 40 46
f 46 40 47
f 47 40 48
f 48 40 49
f 49 40 50
f 50 40 51
f 51 40 52
f 51 52 53
f 51 53 54
f 51 54 55
f 51 55 56
f 51 56 11
f 52 40 57
f 57 40 58
f 58 40 59
f 59 40 60
f 60 40 61
f 61 40 62
f 62 40 34
f 34 40 63
f 4 64 63
f 64 4 65
f 65 4 66
f 66 4 67
f 67 4 68
f 68 4 69
f 69 4 43
f 63 64 70
f 63 70 71
f 63 71 72
f 63 72 73
f 63 73 74
f 63 74 51
f 63 51 75
f 75 51 76
f 76 51 77
f 77 51 78
f 78 51 79
f 79 51 10
f 10 51 11
f 63 75 80
f 63 80 81
f 63 81 82
f 63 82 83
f 63 83 84
f 63 84 85
f 63 85 33
f 63 33 34
f 42 86 43
f 86 42 87
f 86 87 88
f 88 87 89
f 88 89 90
f 88 90 91
f 91 90 92
f 91 92 93
f 93 92 94
f 93 94 95
f 95 94 96
f 95 96 97
f 97 96 98
f 97 98 99
f 99 98 100
f 99 100 101
f 101 100 102
f 101 102 103
f 103 102 104
f 103 104 105
f 105 104 106
f 105 106 50
f 50 106 49
f 107 108 109
f 108 107 110
f 110 107 111
f 110 111 112
f 112 111 113
f 112 113 114
f 114 113 115
f 114 115 116
f 116 115 117
f 116 117 118
f 118 117 119
f 118 119 120
f 120 119 121
f 120 121 122
f 122 121 123
f 122 123 124
f 124 123 125
f 124 125 126
f 126 125 127
f 126 127 128
f 128 127 129
f 129 127 130
f 129 130 131
f 131 130 132
f 6 133 134
f 133 6 135
f 135 6 136
f 136 6 137
f 137 6 138
f 138 6 139
f 139 6 140
f 140 6 141
f 140 141 142
f 142 141 143
f 143 141 144
f 144 141 145
f 145 141 146
f 146 141 147
f 147 141 148
f 148 141 149
f 148 149 150
f 148 150 151
f 148 151 152
f 148 152 153
f 148 153 109
f 149 141 154
f 154 141 155
f 155 141 156
f 156 141 157
f 157 141 158
f 158 141 159
f 159 141 132
f 7 160 161
f 160 7 162
f 162 7 163
f 163 7 164
f 164 7 165
f 165 7 6
f 165 6 166
f 166 6 134
f 161 160 167
f 161 167 168
f 161 168 169
f 161 169 170
f 161 170 171
f 161 171 148
f 161 148 172
f 172 148 173
f 173 148 174
f 174 148 175
f 175 148 176
f 176 148 108
f 108 148 109
f 161 172 177
f 161 177 178
f 161 178 179
f 161 179 180
f 161 180 181
f 161 181 182
f 161 182 131
f 161 131 132
f 161 132 141
f 133 183 134
f 183 133 184
f 183 184 185
f 185 184 186
f 185 186 187
f 187 186 188
f 187 188 189
f 189 188 190
f 189 190 191
f 191 190 192
f 191 192 193
f 193 192 194
f 193 194 195
f 195 194 196
f 195 196 197
f 197 196 198
f 197 198 199
f 199 198 200
f 199 200 201
f 201 200 202
f 201 202 203
f 203 202 204
f 203 204 147
f 203 147 148
f 40 7 161
f 7 40 1
f 6 63 141
f 63 6 4
f 161 205 40
f 205 161 141
f 205 141 206
f 206 141 207
f 40 208 63
f 208 40 205
f 63 208 207
f 63 207 141
f 209 210 211
f 210 209 212
f 212 209 213
f 212 213 214
f 214 213 215
f 214 215 216
f 216 215 217
f 216 217 218
f 218 217 219
f 218 219 220
f 220 219 221
f 220 221 222
f 222 221 223
f 222 223 224
f 224 223 225
f 224 225 226
f 226 225 227
f 226 227 228
f 228 227 229
f 228 229 230
f 230 229 231
f 230 231 232
f 232 231 233
f 233 231 234
f 3 235 8
f 235 3 236
f 236 3 237
f 237 3 238
f 238 3 239
f 239 3 205
f 8 235 240
f 8 240 211
f 239 205 241
f 241 205 242
f 242 205 243
f 243 205 244
f 244 205 245
f 245 205 234
f 234 205 246
f 234 246 247
f 234 247 248
f 234 248 249
f 234 249 250
f 234 250 251
f 234 251 252
f 246 205 253
f 253 205 254
f 254 205 255
f 255 205 256
f 256 205 257
f 257 205 258
f 258 205 259
f 259 205 260
f 8 261 206
f 261 8 262
f 262 8 263
f 263 8 264
f 264 8 265
f 265 8 266
f 266 8 210
f 210 8 211
f 206 261 267
f 206 267 268
f 206 268 269
f 206 269 270
f 206 270 271
f 206 271 233
f 206 233 234
f 206 234 272
f 272 234 273
f 273 234 274
f 274 234 275
f 275 234 276
f 276 234 252
f 206 272 277
f 206 277 278
f 206 278 279
f 206 279 280
f 206 280 281
f 206 281 282
f 206 282 260
f 206 260 205
f 251 283 252
f 283 251 284
f 283 284 285
f 285 284 286
f 285 286 287
f 287 286 288
f 287 288 289
f 289 288 290
f 289 290 291
f 291 290 292
f 291 292 293
f 293 292 294
f 293 294 295
f 295 294 296
f 295 296 297
f 297 296 298
f 297 298 299
f 299 298 300
f 299 300 301
f 301 300 302
f 301 302 303
f 301 303 304
f 304 303 259
f 304 259 260
f 207 8 206
f 8 207 5
f 5 305 306
f 305 5 307
f 307 5 308
f 308 5 309
f 309 5 310
f 310 5 311
f 311 5 207
f 311 207 312
f 312 207 313
f 313 207 314
f 314 207 315
f 315 207 316
f 316 207 317
f 317 207 318
f 317 318 319
f 317 319 320
f 317 320 321
f 317 321 322
f 317 322 323
f 317 323 324
f 318 207 325
f 325 207 326
f 326 207 327
f 327 207 328
f 328 207 329
f 329 207 330
f 330 207 331
f 331 207 332
f 2 333 208
f 333 2 334
f 334 2 335
f 335 2 336
f 336 2 337
f 337 2 5
f 337 5 338
f 338 5 339
f 339 5 306
f 208 333 340
f 208 340 341
f 208 341 342
f 208 342 343
f 208 343 344
f 208 344 345
f 208 345 346
f 208 346 317
f 208 317 347
f 347 317 348
f 348 317 349
f 349 317 350
f 350 317 351
f 351 317 324
f 208 347 352
f 208 352 353
f 208 353 354
f 208 354 355
f 208 355 356
f 208 356 357
f 208 357 332
f 208 332 207
f 323 358 324
f 358 323 359
f 358 359 360
f 360 359 361
f 360 361 362
f 362 361 363
f 362 363 364
f 364 363 365
f 364 365 366
f 364 366 367
f 367 366 368
f 367 368 369
f 369 368 370
f 369 370 371
f 371 370 372
f 371 372 373
f 373 372 374
f 373 374 375
f 375 374 376
f 375 376 377
f 377 376 378
f 377 378 379
f 379 378 331
f 379 331 332
f 380 339 306
f 339 380 381
f 381 380 382
f 381 382 383
f 383 382 384
f 384 382 385
f 384 385 386
f 386 385 387
f 386 387 388
f 388 387 389
f 388 389 390
f 390 389 391
f 390 391 392
f 392 391 393
f 392 393 394
f 394 393 395
f 394 395 396
f 396 395 397
f 396 397 398
f 398 397 399
f 398 399 400
f 400 399 346
f 400 346 345
f 3 208 205
f 208 3 2
f 26 371 373
f 371 26 24
f 24 369 371
f 369 24 22
f 369 20 367
f 20 369 22
f 20 364 367
f 364 20 17
f 17 362 364
f 362 17 15
f 362 13 360
f 13 362 15
f 360 9 358
f 9 360 13
f 358 11 324
f 11 358 9
f 324 56 351
f 56 324 11
f 351 55 350
f 55 351 56
f 350 54 349
f 54 350 55
f 54 348 349
f 348 54 53
f 348 52 347
f 52 348 53
f 52 352 347
f 352 52 57
f 352 58 353
f 58 352 57
f 58 354 353
f 354 58 59
f 354 60 355
f 60 354 59
f 60 356 355
f 356 60 61
f 61 357 356
f 357 61 62
f 62 332 357
f 332 62 34
f 34 379 332
f 379 34 32
f 32 377 379
f 377 32 30
f 30 375 377
f 375 30 28
f 375 26 373
f 26 375 28
f 322 10 323
f 10 322 79
f 323 12 359
f 12 323 10
f 359 14 361
f 14 359 12
f 361 16 363
f 16 361 14
f 16 365 363
f 365 16 18
f 365 19 366
f 19 365 18
f 19 368 366
f 368 19 21
f 21 370 368
f 370 21 23
f 23 372 370
f 372 23 25
f 25 374 372
f 374 25 27
f 27 376 374
f 376 27 29
f 29 378 376
f 378 29 31
f 31 331 378
f 331 31 33
f 33 330 331
f 330 33 85
f 85 329 330
f 329 85 84
f 84 328 329
f 328 84 83
f 83 327 328
f 327 83 82
f 82 326 327
f 326 82 81
f 81 325 326
f 325 81 80
f 80 318 325
f 318 80 75
f 318 76 319
f 76 318 75
f 76 320 319
f 320 76 77
f 320 78 321
f 78 320 77
f 321 79 322
f 79 321 78
f 298 122 124
f 122 298 296
f 126 298 124
f 298 126 300
f 300 128 302
f 128 300 126
f 302 129 303
f 129 302 128
f 303 131 259
f 131 303 129
f 259 182 258
f 182 259 131
f 258 181 257
f 181 258 182
f 257 180 256
f 180 257 181
f 255 180 179
f 180 255 256
f 254 179 178
f 179 254 255
f 177 254 178
f 254 177 253
f 246 177 172
f 177 246 253
f 247 172 173
f 172 247 246
f 248 173 174
f 173 248 247
f 174 249 248
f 249 174 175
f 175 250 249
f 250 175 176
f 176 251 250
f 251 176 108
f 108 284 251
f 284 108 110
f 110 286 284
f 286 110 112
f 112 288 286
f 288 112 114
f 290 114 116
f 114 290 288
f 118 290 116
f 290 118 292
f 294 118 120
f 118 294 292
f 122 294 120
f 294 122 296
f 107 252 283
f 252 107 109
f 109 276 252
f 276 109 153
f 153 275 276
f 275 153 152
f 152 274 275
f 274 152 151
f 150 274 151
f 274 150 273
f 272 150 149
f 150 272 273
f 277 149 154
f 149 277 272
f 155 277 154
f 277 155 278
f 279 155 156
f 155 279 278
f 157 279 156
f 279 157 280
f 280 158 281
f 158 280 157
f 281 159 282
f 159 281 158
f 282 132 260
f 132 282 159
f 260 130 304
f 130 260 132
f 304 127 301
f 127 304 130
f 301 125 299
f 125 301 127
f 297 125 123
f 125 297 299
f 295 123 121
f 123 295 297
f 293 121 119
f 121 293 295
f 291 119 117
f 119 291 293
f 115 291 117
f 291 115 289
f 287 115 113
f 115 287 289
f 113 285 287
f 285 113 111
f 111 283 285
f 283 111 107
f 50 317 346
f 317 50 51
f 74 317 51
f 317 74 316
f 74 315 316
f 315 74 73
f 73 314 315
f 314 73 72
f 72 313 314
f 313 72 71
f 71 312 313
f 312 71 70
f 312 64 311
f 64 312 70
f 64 310 311
f 310 64 65
f 310 66 309
f 66 310 65
f 66 308 309
f 308 66 67
f 308 68 307
f 68 308 67
f 307 69 305
f 69 307 68
f 305 43 306
f 43 305 69
f 306 86 380
f 86 306 43
f 380 88 382
f 88 380 86
f 382 91 385
f 91 382 88
f 91 387 385
f 387 91 93
f 387 95 389
f 95 387 93
f 95 391 389
f 391 95 97
f 391 99 393
f 99 391 97
f 99 395 393
f 395 99 101
f 395 103 397
f 103 395 101
f 103 399 397
f 399 103 105
f 105 346 399
f 346 105 50
f 390 94 388
f 94 390 96
f 94 386 388
f 386 94 92
f 92 384 386
f 384 92 90
f 384 89 383
f 89 384 90
f 383 87 381
f 87 383 89
f 381 42 339
f 42 381 87
f 339 41 338
f 41 339 42
f 338 35 337
f 35 338 41
f 337 36 336
f 36 337 35
f 36 335 336
f 335 36 37
f 37 334 335
f 334 37 38
f 334 39 333
f 39 334 38
f 39 340 333
f 340 39 44
f 340 45 341
f 45 340 44
f 45 342 341
f 342 45 46
f 46 343 342
f 343 46 47
f 47 344 343
f 344 47 48
f 48 345 344
f 345 48 49
f 49 400 345
f 400 49 106
f 106 398 400
f 398 106 104
f 104 396 398
f 396 104 102
f 102 394 396
f 394 102 100
f 394 98 392
f 98 394 100
f 98 390 392
f 390 98 96
f 167 242 168
f 242 167 241
f 239 167 160
f 167 239 241
f 162 239 160
f 239 162 238
f 237 162 163
f 162 237 238
f 164 237 163
f 237 164 236
f 164 235 236
f 235 164 165
f 165 240 235
f 240 165 166
f 166 211 240
f 211 166 134
f 134 209 211
f 209 134 183
f 183 213 209
f 213 183 185
f 185 215 213
f 215 185 187
f 189 215 187
f 215 189 217
f 219 189 191
f 189 219 217
f 193 219 191
f 219 193 221
f 223 193 195
f 193 223 221
f 225 195 197
f 195 225 223
f 227 197 199
f 197 227 225
f 227 201 229
f 201 227 199
f 229 203 231
f 203 229 201
f 231 148 234
f 148 231 203
f 234 171 245
f 171 234 148
f 245 170 244
f 170 245 171
f 244 169 243
f 169 244 170
f 242 169 168
f 169 242 243
f 192 222 194
f 222 192 220
f 218 192 190
f 192 218 220
f 188 218 190
f 218 188 216
f 188 214 216
f 214 188 186
f 186 212 214
f 212 186 184
f 184 210 212
f 210 184 133
f 133 266 210
f 266 133 135
f 135 265 266
f 265 135 136
f 136 264 265
f 264 136 137
f 263 137 138
f 137 263 264
f 262 138 139
f 138 262 263
f 140 262 139
f 262 140 261
f 267 140 142
f 140 267 261
f 268 142 143
f 142 268 267
f 269 143 144
f 143 269 268
f 269 145 270
f 145 269 144
f 270 146 271
f 146 270 145
f 271 147 233
f 147 271 146
f 233 204 232
f 204 233 147
f 232 202 230
f 202 232 204
f 230 200 228
f 200 230 202
f 226 200 198
f 200 226 228
f 196 226 198
f 226 196 224
f 222 196 194
f 196 222 224
