# tubo-guia-ttp.obj (EXERSUITE3D, cm)
v -1.000 106.896 1.732
v -1.414 -106.896 1.414
v -1.000 -106.896 1.732
v -1.414 106.896 1.414
v -0.518 106.896 1.932
v -0.518 -106.896 1.932
v -1.932 106.896 0.518
v -1.932 106.896 -0.518
v -2.000 106.896 0.000
v -1.732 106.896 1.000
v -1.732 106.896 -1.000
v -1.414 106.896 -1.414
v -1.000 106.896 -1.732
v -0.518 106.896 -1.932
v 0.000 106.896 2.000
v 0.000 106.896 -2.000
v 0.518 106.896 1.932
v 0.518 106.896 -1.932
v 1.000 106.896 1.732
v 1.000 106.896 -1.732
v 1.414 106.896 -1.414
v 1.414 106.896 1.414
v 1.732 106.896 1.000
v 1.732 106.896 -1.000
v 1.932 106.896 0.518
v 1.932 106.896 -0.518
v 2.000 106.896 0.000
v -1.732 -106.896 1.000
v 0.000 -106.896 2.000
v 0.518 -106.896 1.932
v 1.000 -106.896 1.732
v 1.414 -106.896 1.414
v 1.732 -106.896 1.000
v -1.932 -106.896 -0.518
v -1.732 -106.896 -1.000
v -1.932 -106.896 0.518
v -2.000 -106.896 -0.000
v -1.414 -106.896 -1.414
v -1.000 -106.896 -1.732
v -0.518 -106.896 -1.932
v 0.000 -106.896 -2.000
v 0.518 -106.896 -1.932
v 1.000 -106.896 -1.732
v 1.414 -106.896 -1.414
v 1.732 -106.896 -1.000
v 1.932 -106.896 -0.518
v 1.932 -106.896 0.518
v 2.000 -106.896 -0.000
f 1 2 3
f 2 1 4
f 5 3 6
f 3 5 1
f 7 8 9
f 8 7 10
f 8 10 11
f 11 10 4
f 11 4 12
f 12 4 1
f 12 1 13
f 13 1 14
f 14 1 5
f 14 5 15
f 14 15 16
f 16 15 17
f 16 17 18
f 18 17 19
f 18 19 20
f 20 19 21
f 21 19 22
f 21 22 23
f 21 23 24
f 24 23 25
f 24 25 26
f 26 25 27
f 10 2 4
f 2 10 28
f 17 29 30
f 29 17 15
f 19 30 31
f 30 19 17
f 22 31 32
f 31 22 19
f 33 22 32
f 22 33 23
f 11 34 8
f 34 11 35
f 34 36 37
f 36 34 35
f 36 35 28
f 28 35 38
f 28 38 2
f 2 38 39
f 2 39 3
f 3 39 40
f 3 40 6
f 6 40 41
f 6 41 29
f 29 41 42
f 29 42 30
f 30 42 43
f 30 43 31
f 31 43 44
f 31 44 32
f 32 44 45
f 32 45 33
f 33 45 46
f 33 46 47
f 47 46 48
f 12 39 38
f 39 12 13
f 12 35 11
f 35 12 38
f 47 23 33
f 23 47 25
f 48 25 47
f 25 48 27
f 15 6 29
f 6 15 5
f 45 26 46
f 26 45 24
f 20 44 43
f 44 20 21
f 16 42 41
f 42 16 18
f 8 37 9
f 37 8 34
f 14 41 40
f 41 14 16
f 46 27 48
f 27 46 26
f 44 24 45
f 24 44 21
f 13 40 39
f 40 13 14
f 18 43 42
f 43 18 20
f 7 28 10
f 28 7 36
f 9 36 7
f 36 9 37
