ISO-10303-21;
HEADER;
FILE_DESCRIPTION(('Open CASCADE Model'),'2;1');
FILE_NAME('pasador_manija','2000-01-01T00:00:00',('Author'),(
    'Open CASCADE'),'Open CASCADE STEP processor 7.9','cadgen','Unknown'
  );
FILE_SCHEMA(('AUTOMOTIVE_DESIGN { 1 0 10303 214 1 1 1 1 }'));
ENDSEC;
DATA;
#1 = APPLICATION_PROTOCOL_DEFINITION('international standard',
  'automotive_design',2000,#2);
#2 = APPLICATION_CONTEXT(
  'core data for automotive mechanical design processes');
#3 = SHAPE_DEFINITION_REPRESENTATION(#4,#10);
#4 = PRODUCT_DEFINITION_SHAPE('','',#5);
#5 = PRODUCT_DEFINITION('design','',#6,#9);
#6 = PRODUCT_DEFINITION_FORMATION('','',#7);
#7 = PRODUCT('=>[0:1:1:2]','=>[0:1:1:2]','',(#8));
#8 = PRODUCT_CONTEXT('',#2,'mechanical');
#9 = PRODUCT_DEFINITION_CONTEXT('part definition',#2,'design');
#10 = SHAPE_REPRESENTATION('',(#11,#15),#19);
#11 = AXIS2_PLACEMENT_3D('',#12,#13,#14);
#12 = CARTESIAN_POINT('',(0.,0.,0.));
#13 = DIRECTION('',(0.,0.,1.));
#14 = DIRECTION('',(1.,0.,-0.));
#15 = AXIS2_PLACEMENT_3D('',#16,#17,#18);
#16 = CARTESIAN_POINT('',(0.,0.,0.));
#17 = DIRECTION('',(0.,0.,1.));
#18 = DIRECTION('',(1.,0.,0.));
#19 = ( GEOMETRIC_REPRESENTATION_CONTEXT(3) 
GLOBAL_UNCERTAINTY_ASSIGNED_CONTEXT((#23)) GLOBAL_UNIT_ASSIGNED_CONTEXT(
(#20,#21,#22)) REPRESENTATION_CONTEXT('Context #1',
  '3D Context with UNIT and UNCERTAINTY') );
#20 = ( LENGTH_UNIT() NAMED_UNIT(*) SI_UNIT(.MILLI.,.METRE.) );
#21 = ( NAMED_UNIT(*) PLANE_ANGLE_UNIT() SI_UNIT($,.RADIAN.) );
#22 = ( NAMED_UNIT(*) SI_UNIT($,.STERADIAN.) SOLID_ANGLE_UNIT() );
#23 = UNCERTAINTY_MEASURE_WITH_UNIT(LENGTH_MEASURE(1.E-07),#20,
  'distance_accuracy_value','confusion accuracy');
#24 = PRODUCT_RELATED_PRODUCT_CATEGORY('part',$,(#7));
#25 = SHAPE_DEFINITION_REPRESENTATION(#26,#32);
#26 = PRODUCT_DEFINITION_SHAPE('','',#27);
#27 = PRODUCT_DEFINITION('design','',#28,#31);
#28 = PRODUCT_DEFINITION_FORMATION('','',#29);
#29 = PRODUCT('pasador_manija','pasador_manija','',(#30));
#30 = PRODUCT_CONTEXT('',#2,'mechanical');
#31 = PRODUCT_DEFINITION_CONTEXT('part definition',#2,'design');
#32 = ADVANCED_BREP_SHAPE_REPRESENTATION('',(#11,#33),#721);
#33 = MANIFOLD_SOLID_BREP('',#34);
#34 = CLOSED_SHELL('',(#35,#594,#622,#627,#662,#717));
#35 = ADVANCED_FACE('',(#36,#392),#50,.T.);
#36 = FACE_BOUND('',#37,.T.);
#37 = EDGE_LOOP('',(#38,#68,#95,#96,#211,#234,#262,#283,#284));
#38 = ORIENTED_EDGE('',*,*,#39,.F.);
#39 = EDGE_CURVE('',#40,#42,#44,.T.);
#40 = VERTEX_POINT('',#41);
#41 = CARTESIAN_POINT('',(30.,-3.061616997868E-15,-12.5));
#42 = VERTEX_POINT('',#43);
#43 = CARTESIAN_POINT('',(89.,-3.061616997868E-15,-12.5));
#44 = SEAM_CURVE('',#45,(#49,#61),.PCURVE_S1.);
#45 = LINE('',#46,#47);
#46 = CARTESIAN_POINT('',(18.,-3.061616997868E-15,-12.5));
#47 = VECTOR('',#48,1.);
#48 = DIRECTION('',(1.,0.,2.22044604925E-16));
#49 = PCURVE('',#50,#55);
#50 = CYLINDRICAL_SURFACE('',#51,12.5);
#51 = AXIS2_PLACEMENT_3D('',#52,#53,#54);
#52 = CARTESIAN_POINT('',(18.,0.,-2.253752739989E-14));
#53 = DIRECTION('',(1.,0.,2.22044604925E-16));
#54 = DIRECTION('',(2.22044604925E-16,0.,-1.));
#55 = DEFINITIONAL_REPRESENTATION('',(#56),#60);
#56 = LINE('',#57,#58);
#57 = CARTESIAN_POINT('',(0.,-0.));
#58 = VECTOR('',#59,1.);
#59 = DIRECTION('',(0.,1.));
#60 = ( GEOMETRIC_REPRESENTATION_CONTEXT(2) 
PARAMETRIC_REPRESENTATION_CONTEXT() REPRESENTATION_CONTEXT('2D SPACE',''
  ) );
#61 = PCURVE('',#50,#62);
#62 = DEFINITIONAL_REPRESENTATION('',(#63),#67);
#63 = LINE('',#64,#65);
#64 = CARTESIAN_POINT('',(6.28318530718,-0.));
#65 = VECTOR('',#66,1.);
#66 = DIRECTION('',(0.,1.));
#67 = ( GEOMETRIC_REPRESENTATION_CONTEXT(2) 
PARAMETRIC_REPRESENTATION_CONTEXT() REPRESENTATION_CONTEXT('2D SPACE',''
  ) );
#68 = ORIENTED_EDGE('',*,*,#69,.T.);
#69 = EDGE_CURVE('',#40,#40,#70,.T.);
#70 = SURFACE_CURVE('',#71,(#76,#83),.PCURVE_S1.);
#71 = CIRCLE('',#72,12.5);
#72 = AXIS2_PLACEMENT_3D('',#73,#74,#75);
#73 = CARTESIAN_POINT('',(30.,0.,-1.987299214079E-14));
#74 = DIRECTION('',(1.,0.,2.22044604925E-16));
#75 = DIRECTION('',(2.22044604925E-16,0.,-1.));
#76 = PCURVE('',#50,#77);
#77 = DEFINITIONAL_REPRESENTATION('',(#78),#82);
#78 = LINE('',#79,#80);
#79 = CARTESIAN_POINT('',(0.,12.));
#80 = VECTOR('',#81,1.);
#81 = DIRECTION('',(1.,0.));
#82 = ( GEOMETRIC_REPRESENTATION_CONTEXT(2) 
PARAMETRIC_REPRESENTATION_CONTEXT() REPRESENTATION_CONTEXT('2D SPACE',''
  ) );
#83 = PCURVE('',#84,#89);
#84 = PLANE('',#85);
#85 = AXIS2_PLACEMENT_3D('',#86,#87,#88);
#86 = CARTESIAN_POINT('',(30.,0.,1.33226762955E-15));
#87 = DIRECTION('',(1.,0.,2.22044604925E-16));
#88 = DIRECTION('',(2.22044604925E-16,0.,-1.));
#89 = DEFINITIONAL_REPRESENTATION('',(#90),#94);
#90 = CIRCLE('',#91,12.5);
#91 = AXIS2_PLACEMENT_2D('',#92,#93);
#92 = CARTESIAN_POINT('',(2.120525977034E-14,0.));
#93 = DIRECTION('',(1.,0.));
#94 = ( GEOMETRIC_REPRESENTATION_CONTEXT(2) 
PARAMETRIC_REPRESENTATION_CONTEXT() REPRESENTATION_CONTEXT('2D SPACE',''
  ) );
#95 = ORIENTED_EDGE('',*,*,#39,.T.);
#96 = ORIENTED_EDGE('',*,*,#97,.T.);
#97 = EDGE_CURVE('',#42,#98,#100,.T.);
#98 = VERTEX_POINT('',#99);
#99 = CARTESIAN_POINT('',(95.,-1.898202538678E-15,-12.5));
#100 = SURFACE_CURVE('',#101,(#134,#170),.PCURVE_S1.);
#101 = B_SPLINE_CURVE_WITH_KNOTS('',7,(#102,#103,#104,#105,#106,#107,
    #108,#109,#110,#111,#112,#113,#114,#115,#116,#117,#118,#119,#120,
    #121,#122,#123,#124,#125,#126,#127,#128,#129,#130,#131,#132,#133),
  .UNSPECIFIED.,.F.,.F.,(8,6,6,6,6,8),(0.,0.151580939271,0.38600988106,
    0.660376100596,0.848401024869,1.),.UNSPECIFIED.);
#102 = CARTESIAN_POINT('',(89.,-8.881784197001E-16,-12.5));
#103 = CARTESIAN_POINT('',(89.,-0.247398678665,-12.5));
#104 = CARTESIAN_POINT('',(89.023802689023,-0.492552613632,
    -12.49428799848));
#105 = CARTESIAN_POINT('',(89.070628927009,-0.731843262717,-12.483047523
    ));
#106 = CARTESIAN_POINT('',(89.138816311356,-0.96181852482,
    -12.46695441312));
#107 = CARTESIAN_POINT('',(89.225845233148,-1.179368414224,
    -12.44709409163));
#108 = CARTESIAN_POINT('',(89.328344925921,-1.381897726231,
    -12.42478795027));
#109 = CARTESIAN_POINT('',(89.617976803793,-1.854533994783,
    -12.36504795589));
#110 = CARTESIAN_POINT('',(89.823313197408,-2.105263511465,
    -12.32548134123));
#111 = CARTESIAN_POINT('',(90.049851952704,-2.320280272162,
    -12.28604456765));
#112 = CARTESIAN_POINT('',(90.291758684088,-2.501092084196,
    -12.24932840606));
#113 = CARTESIAN_POINT('',(90.544812500462,-2.649340394358,
    -12.2170463771));
#114 = CARTESIAN_POINT('',(90.805948278793,-2.766415750174,
    -12.19036028115));
#115 = CARTESIAN_POINT('',(91.385435958812,-2.954702711136,
    -12.14621782643));
#116 = CARTESIAN_POINT('',(91.705647490881,-3.014603164394,
    -12.13113217001));
#117 = CARTESIAN_POINT('',(92.029481147518,-3.034197624354,
    -12.12598296017));
#118 = CARTESIAN_POINT('',(92.353561063599,-3.013949426138,
    -12.13119824404));
#119 = CARTESIAN_POINT('',(92.67461872151,-2.953579185425,-12.1465635245
    ));
#120 = CARTESIAN_POINT('',(92.988923969262,-2.852093095211,
    -12.17117183901));
#121 = CARTESIAN_POINT('',(93.4989133928,-2.608840618248,-12.22514689384
    ));
#122 = CARTESIAN_POINT('',(93.700887904829,-2.489758397361,
    -12.25058843164));
#123 = CARTESIAN_POINT('',(93.895942570638,-2.349875013075,
    -12.27895137187));
#124 = CARTESIAN_POINT('',(94.082104758936,-2.188415014991,
    -12.30944867926));
#125 = CARTESIAN_POINT('',(94.25683366151,-2.004575856737,
    -12.34101838936));
#126 = CARTESIAN_POINT('',(94.416857956412,-1.797688832572,
    -12.37223303646));
#127 = CARTESIAN_POINT('',(94.671655074094,-1.381897726207,
    -12.42478795027));
#128 = CARTESIAN_POINT('',(94.774154766848,-1.179368414221,
    -12.44709409163));
#129 = CARTESIAN_POINT('',(94.861183688634,-0.961818524841,
    -12.46695441312));
#130 = CARTESIAN_POINT('',(94.929371072989,-0.731843262739,-12.483047523
    ));
#131 = CARTESIAN_POINT('',(94.976197310982,-0.492552613629,
    -12.49428799848));
#132 = CARTESIAN_POINT('',(95.,-0.247398678637,-12.5));
#133 = CARTESIAN_POINT('',(95.,-1.7763568394E-15,-12.5));
#134 = PCURVE('',#50,#135);
#135 = DEFINITIONAL_REPRESENTATION('',(#136),#169);
#136 = B_SPLINE_CURVE_WITH_KNOTS('',7,(#137,#138,#139,#140,#141,#142,
    #143,#144,#145,#146,#147,#148,#149,#150,#151,#152,#153,#154,#155,
    #156,#157,#158,#159,#160,#161,#162,#163,#164,#165,#166,#167,#168),
  .UNSPECIFIED.,.F.,.F.,(8,6,6,6,6,8),(0.,0.151580939271,0.38600988106,
    0.660376100596,0.848401024869,1.),.UNSPECIFIED.);
#137 = CARTESIAN_POINT('',(6.28318530718,71.));
#138 = CARTESIAN_POINT('',(6.263393412886,71.));
#139 = CARTESIAN_POINT('',(6.243781084332,71.023802689023));
#140 = CARTESIAN_POINT('',(6.224625224482,71.070628927009));
#141 = CARTESIAN_POINT('',(6.206190144033,71.138816311356));
#142 = CARTESIAN_POINT('',(6.188718861761,71.225845233149));
#143 = CARTESIAN_POINT('',(6.17242062509,71.328344925921));
#144 = CARTESIAN_POINT('',(6.134308881238,71.617976803793));
#145 = CARTESIAN_POINT('',(6.114011931436,71.823313197408));
#146 = CARTESIAN_POINT('',(6.096530442964,72.049851952704));
#147 = CARTESIAN_POINT('',(6.08177317673,72.291758684089));
#148 = CARTESIAN_POINT('',(6.069636360038,72.544812500462));
#149 = CARTESIAN_POINT('',(6.06003027525,72.805948278793));
#150 = CARTESIAN_POINT('',(6.044558900706,73.385435958812));
#151 = CARTESIAN_POINT('',(6.03961789038,73.705647490881));
#152 = CARTESIAN_POINT('',(6.037996779294,74.029481147518));
#153 = CARTESIAN_POINT('',(6.039669626438,74.353561063599));
#154 = CARTESIAN_POINT('',(6.044653509414,74.67461872151));
#155 = CARTESIAN_POINT('',(6.053006081134,74.988923969262));
#156 = CARTESIAN_POINT('',(6.072939582437,75.4989133928));
#157 = CARTESIAN_POINT('',(6.082680854691,75.700887904829));
#158 = CARTESIAN_POINT('',(6.09409819185,75.895942570638));
#159 = CARTESIAN_POINT('',(6.107241017724,76.082104758936));
#160 = CARTESIAN_POINT('',(6.122159221154,76.25683366151));
#161 = CARTESIAN_POINT('',(6.138892677289,76.416857956412));
#162 = CARTESIAN_POINT('',(6.172420625092,76.671655074094));
#163 = CARTESIAN_POINT('',(6.188718861761,76.774154766848));
#164 = CARTESIAN_POINT('',(6.206190144031,76.861183688634));
#165 = CARTESIAN_POINT('',(6.224625224481,76.929371072989));
#166 = CARTESIAN_POINT('',(6.243781084332,76.976197310982));
#167 = CARTESIAN_POINT('',(6.263393412889,77.));
#168 = CARTESIAN_POINT('',(6.28318530718,77.));
#169 = ( GEOMETRIC_REPRESENTATION_CONTEXT(2) 
PARAMETRIC_REPRESENTATION_CONTEXT() REPRESENTATION_CONTEXT('2D SPACE',''
  ) );
#170 = PCURVE('',#171,#176);
#171 = CYLINDRICAL_SURFACE('',#172,3.);
#172 = AXIS2_PLACEMENT_3D('',#173,#174,#175);
#173 = CARTESIAN_POINT('',(92.,0.,-25.));
#174 = DIRECTION('',(0.,0.,1.));
#175 = DIRECTION('',(1.,0.,0.));
#176 = DEFINITIONAL_REPRESENTATION('',(#177),#210);
#177 = B_SPLINE_CURVE_WITH_KNOTS('',7,(#178,#179,#180,#181,#182,#183,
    #184,#185,#186,#187,#188,#189,#190,#191,#192,#193,#194,#195,#196,
    #197,#198,#199,#200,#201,#202,#203,#204,#205,#206,#207,#208,#209),
  .UNSPECIFIED.,.F.,.F.,(8,6,6,6,6,8),(0.,0.151580939271,0.38600988106,
    0.660376100596,0.848401024869,1.),.UNSPECIFIED.);
#178 = CARTESIAN_POINT('',(3.14159265359,12.5));
#179 = CARTESIAN_POINT('',(3.224058879812,12.5));
#180 = CARTESIAN_POINT('',(3.305776776588,12.505712001516));
#181 = CARTESIAN_POINT('',(3.3864567006,12.516952476996));
#182 = CARTESIAN_POINT('',(3.465787592274,12.533045586873));
#183 = CARTESIAN_POINT('',(3.543399771406,12.552905908369));
#184 = CARTESIAN_POINT('',(3.618813222232,12.575212049724));
#185 = CARTESIAN_POINT('',(3.803586857626,12.634952044108));
#186 = CARTESIAN_POINT('',(3.910610423305,12.674518658769));
#187 = CARTESIAN_POINT('',(4.013483040609,12.713955432344));
#188 = CARTESIAN_POINT('',(4.112972167236,12.750671593936));
#189 = CARTESIAN_POINT('',(4.209805189996,12.782953622898));
#190 = CARTESIAN_POINT('',(4.30464931838,12.809639718842));
#191 = CARTESIAN_POINT('',(4.507752453364,12.853782173568));
#192 = CARTESIAN_POINT('',(4.615435531968,12.868867829982));
#193 = CARTESIAN_POINT('',(4.722261333505,12.874017039829));
#194 = CARTESIAN_POINT('',(4.829028451445,12.868801755955));
#195 = CARTESIAN_POINT('',(4.936565388599,12.8534364755));
#196 = CARTESIAN_POINT('',(5.045691438103,12.828828160985));
#197 = CARTESIAN_POINT('',(5.234035384609,12.77485310616));
#198 = CARTESIAN_POINT('',(5.311890475002,12.749411568353));
#199 = CARTESIAN_POINT('',(5.391382776011,12.721048628125));
#200 = CARTESIAN_POINT('',(5.472871855035,12.690551320732));
#201 = CARTESIAN_POINT('',(5.556743363326,12.65898161064));
#202 = CARTESIAN_POINT('',(5.643414296697,12.627766963535));
#203 = CARTESIAN_POINT('',(5.805964738547,12.575212049721));
#204 = CARTESIAN_POINT('',(5.881378189363,12.552905908369));
#205 = CARTESIAN_POINT('',(5.958990368487,12.533045586876));
#206 = CARTESIAN_POINT('',(6.038321260162,12.516952476996));
#207 = CARTESIAN_POINT('',(6.119001184182,12.505712001514));
#208 = CARTESIAN_POINT('',(6.200719080967,12.5));
#209 = CARTESIAN_POINT('',(6.28318530718,12.5));
#210 = ( GEOMETRIC_REPRESENTATION_CONTEXT(2) 
PARAMETRIC_REPRESENTATION_CONTEXT() REPRESENTATION_CONTEXT('2D SPACE',''
  ) );
#211 = ORIENTED_EDGE('',*,*,#212,.T.);
#212 = EDGE_CURVE('',#98,#213,#215,.T.);
#213 = VERTEX_POINT('',#214);
#214 = CARTESIAN_POINT('',(221.,-1.530808498934E-15,-12.5));
#215 = SEAM_CURVE('',#216,(#220,#227),.PCURVE_S1.);
#216 = LINE('',#217,#218);
#217 = CARTESIAN_POINT('',(18.,-3.061616997868E-15,-12.5));
#218 = VECTOR('',#219,1.);
#219 = DIRECTION('',(1.,0.,2.22044604925E-16));
#220 = PCURVE('',#50,#221);
#221 = DEFINITIONAL_REPRESENTATION('',(#222),#226);
#222 = LINE('',#223,#224);
#223 = CARTESIAN_POINT('',(0.,-0.));
#224 = VECTOR('',#225,1.);
#225 = DIRECTION('',(0.,1.));
#226 = ( GEOMETRIC_REPRESENTATION_CONTEXT(2) 
PARAMETRIC_REPRESENTATION_CONTEXT() REPRESENTATION_CONTEXT('2D SPACE',''
  ) );
#227 = PCURVE('',#50,#228);
#228 = DEFINITIONAL_REPRESENTATION('',(#229),#233);
#229 = LINE('',#230,#231);
#230 = CARTESIAN_POINT('',(6.28318530718,-0.));
#231 = VECTOR('',#232,1.);
#232 = DIRECTION('',(0.,1.));
#233 = ( GEOMETRIC_REPRESENTATION_CONTEXT(2) 
PARAMETRIC_REPRESENTATION_CONTEXT() REPRESENTATION_CONTEXT('2D SPACE',''
  ) );
#234 = ORIENTED_EDGE('',*,*,#235,.F.);
#235 = EDGE_CURVE('',#236,#213,#238,.T.);
#236 = VERTEX_POINT('',#237);
#237 = CARTESIAN_POINT('',(221.,-1.874699728327E-31,12.5));
#238 = SURFACE_CURVE('',#239,(#244,#251),.PCURVE_S1.);
#239 = CIRCLE('',#240,12.5);
#240 = AXIS2_PLACEMENT_3D('',#241,#242,#243);
#241 = CARTESIAN_POINT('',(221.,0.,2.253752739989E-14));
#242 = DIRECTION('',(1.,-0.,2.22044604925E-16));
#243 = DIRECTION('',(2.22044604925E-16,0.,-1.));
#244 = PCURVE('',#50,#245);
#245 = DEFINITIONAL_REPRESENTATION('',(#246),#250);
#246 = LINE('',#247,#248);
#247 = CARTESIAN_POINT('',(0.,203.));
#248 = VECTOR('',#249,1.);
#249 = DIRECTION('',(1.,0.));
#250 = ( GEOMETRIC_REPRESENTATION_CONTEXT(2) 
PARAMETRIC_REPRESENTATION_CONTEXT() REPRESENTATION_CONTEXT('2D SPACE',''
  ) );
#251 = PCURVE('',#252,#257);
#252 = SPHERICAL_SURFACE('',#253,12.5);
#253 = AXIS2_PLACEMENT_3D('',#254,#255,#256);
#254 = CARTESIAN_POINT('',(221.,0.,0.));
#255 = DIRECTION('',(0.,0.,1.));
#256 = DIRECTION('',(1.,0.,-0.));
#257 = DEFINITIONAL_REPRESENTATION('',(#258),#261);
#258 = B_SPLINE_CURVE_WITH_KNOTS('',1,(#259,#260),.UNSPECIFIED.,.F.,.F.,
  (2,2),(3.14159265359,6.28318530718),.PIECEWISE_BEZIER_KNOTS.);
#259 = CARTESIAN_POINT('',(4.712388980385,1.570796326795));
#260 = CARTESIAN_POINT('',(4.712388980385,-1.570796326795));
#261 = ( GEOMETRIC_REPRESENTATION_CONTEXT(2) 
PARAMETRIC_REPRESENTATION_CONTEXT() REPRESENTATION_CONTEXT('2D SPACE',''
  ) );
#262 = ORIENTED_EDGE('',*,*,#263,.F.);
#263 = EDGE_CURVE('',#213,#236,#264,.T.);
#264 = SURFACE_CURVE('',#265,(#270,#277),.PCURVE_S1.);
#265 = CIRCLE('',#266,12.5);
#266 = AXIS2_PLACEMENT_3D('',#267,#268,#269);
#267 = CARTESIAN_POINT('',(221.,0.,2.253752739989E-14));
#268 = DIRECTION('',(1.,-0.,2.22044604925E-16));
#269 = DIRECTION('',(2.22044604925E-16,0.,-1.));
#270 = PCURVE('',#50,#271);
#271 = DEFINITIONAL_REPRESENTATION('',(#272),#276);
#272 = LINE('',#273,#274);
#273 = CARTESIAN_POINT('',(0.,203.));
#274 = VECTOR('',#275,1.);
#275 = DIRECTION('',(1.,0.));
#276 = ( GEOMETRIC_REPRESENTATION_CONTEXT(2) 
PARAMETRIC_REPRESENTATION_CONTEXT() REPRESENTATION_CONTEXT('2D SPACE',''
  ) );
#277 = PCURVE('',#252,#278);
#278 = DEFINITIONAL_REPRESENTATION('',(#279),#282);
#279 = B_SPLINE_CURVE_WITH_KNOTS('',1,(#280,#281),.UNSPECIFIED.,.F.,.F.,
  (2,2),(0.,3.14159265359),.PIECEWISE_BEZIER_KNOTS.);
#280 = CARTESIAN_POINT('',(7.853981633974,-1.570796326795));
#281 = CARTESIAN_POINT('',(7.853981633974,1.570796326795));
#282 = ( GEOMETRIC_REPRESENTATION_CONTEXT(2) 
PARAMETRIC_REPRESENTATION_CONTEXT() REPRESENTATION_CONTEXT('2D SPACE',''
  ) );
#283 = ORIENTED_EDGE('',*,*,#212,.F.);
#284 = ORIENTED_EDGE('',*,*,#285,.T.);
#285 = EDGE_CURVE('',#98,#42,#286,.T.);
#286 = SURFACE_CURVE('',#287,(#320,#356),.PCURVE_S1.);
#287 = B_SPLINE_CURVE_WITH_KNOTS('',7,(#288,#289,#290,#291,#292,#293,
    #294,#295,#296,#297,#298,#299,#300,#301,#302,#303,#304,#305,#306,
    #307,#308,#309,#310,#311,#312,#313,#314,#315,#316,#317,#318,#319),
  .UNSPECIFIED.,.F.,.F.,(8,6,6,6,6,8),(0.,0.151580939167,0.386009880985,
    0.660376100555,0.84840102485,1.),.UNSPECIFIED.);
#288 = CARTESIAN_POINT('',(95.,-3.673940397442E-16,-12.5));
#289 = CARTESIAN_POINT('',(95.,0.24739867884,-12.5));
#290 = CARTESIAN_POINT('',(94.976197310944,0.492552613653,
    -12.49428799847));
#291 = CARTESIAN_POINT('',(94.929371073002,0.731843262584,-12.483047523)
  );
#292 = CARTESIAN_POINT('',(94.861183688708,0.96181852469,-12.46695441314
    ));
#293 = CARTESIAN_POINT('',(94.774154766875,1.179368414241,
    -12.44709409163));
#294 = CARTESIAN_POINT('',(94.671655073987,1.381897726381,
    -12.42478795025));
#295 = CARTESIAN_POINT('',(94.382023196207,1.854533994783,
    -12.36504795589));
#296 = CARTESIAN_POINT('',(94.176686802592,2.105263511465,
    -12.32548134123));
#297 = CARTESIAN_POINT('',(93.950148047297,2.320280272161,
    -12.28604456765));
#298 = CARTESIAN_POINT('',(93.708241315911,2.501092084197,
    -12.24932840606));
#299 = CARTESIAN_POINT('',(93.455187499538,2.649340394357,-12.2170463771
    ));
#300 = CARTESIAN_POINT('',(93.194051721208,2.766415750174,
    -12.19036028115));
#301 = CARTESIAN_POINT('',(92.614564041188,2.954702711136,
    -12.14621782643));
#302 = CARTESIAN_POINT('',(92.294352509117,3.014603164394,
    -12.13113217001));
#303 = CARTESIAN_POINT('',(91.970518852484,3.034197624354,
    -12.12598296017));
#304 = CARTESIAN_POINT('',(91.646438936399,3.013949426137,
    -12.13119824404));
#305 = CARTESIAN_POINT('',(91.325381278492,2.953579185425,-12.1465635245
    ));
#306 = CARTESIAN_POINT('',(91.011076030738,2.852093095211,
    -12.17117183901));
#307 = CARTESIAN_POINT('',(90.5010866072,2.608840618248,-12.22514689384)
  );
#308 = CARTESIAN_POINT('',(90.299112095172,2.489758397361,
    -12.25058843164));
#309 = CARTESIAN_POINT('',(90.104057429359,2.349875013074,
    -12.27895137187));
#310 = CARTESIAN_POINT('',(89.917895241067,2.188415014992,
    -12.30944867926));
#311 = CARTESIAN_POINT('',(89.743166338489,2.004575856736,
    -12.34101838936));
#312 = CARTESIAN_POINT('',(89.583142043588,1.797688832572,
    -12.37223303646));
#313 = CARTESIAN_POINT('',(89.328344925906,1.381897726207,
    -12.42478795027));
#314 = CARTESIAN_POINT('',(89.225845233152,1.179368414221,
    -12.44709409163));
#315 = CARTESIAN_POINT('',(89.138816311366,0.961818524841,
    -12.46695441312));
#316 = CARTESIAN_POINT('',(89.070628927011,0.731843262739,-12.483047523)
  );
#317 = CARTESIAN_POINT('',(89.023802689018,0.492552613629,
    -12.49428799848));
#318 = CARTESIAN_POINT('',(89.,0.247398678637,-12.5));
#319 = CARTESIAN_POINT('',(89.,5.510910596163E-16,-12.5));
#320 = PCURVE('',#50,#321);
#321 = DEFINITIONAL_REPRESENTATION('',(#322),#355);
#322 = B_SPLINE_CURVE_WITH_KNOTS('',7,(#323,#324,#325,#326,#327,#328,
    #329,#330,#331,#332,#333,#334,#335,#336,#337,#338,#339,#340,#341,
    #342,#343,#344,#345,#346,#347,#348,#349,#350,#351,#352,#353,#354),
  .UNSPECIFIED.,.F.,.F.,(8,6,6,6,6,8),(0.,0.151580939167,0.386009880985,
    0.660376100555,0.84840102485,1.),.UNSPECIFIED.);
#323 = CARTESIAN_POINT('',(0.,77.));
#324 = CARTESIAN_POINT('',(1.97918943072E-02,77.));
#325 = CARTESIAN_POINT('',(3.940422284922E-02,76.976197310944));
#326 = CARTESIAN_POINT('',(5.85600826866E-02,76.929371073002));
#327 = CARTESIAN_POINT('',(7.69951631362E-02,76.861183688708));
#328 = CARTESIAN_POINT('',(9.446644542E-02,76.774154766875));
#329 = CARTESIAN_POINT('',(0.110764682102,76.671655073987));
#330 = CARTESIAN_POINT('',(0.148876425941,76.382023196207));
#331 = CARTESIAN_POINT('',(0.169173375743,76.176686802592));
#332 = CARTESIAN_POINT('',(0.186654864216,75.950148047296));
#333 = CARTESIAN_POINT('',(0.20141213045,75.708241315911));
#334 = CARTESIAN_POINT('',(0.213548947141,75.455187499538));
#335 = CARTESIAN_POINT('',(0.22315503193,75.194051721208));
#336 = CARTESIAN_POINT('',(0.238626406473,74.614564041188));
#337 = CARTESIAN_POINT('',(0.2435674168,74.294352509117));
#338 = CARTESIAN_POINT('',(0.245188527885,73.970518852484));
#339 = CARTESIAN_POINT('',(0.243515680741,73.646438936399));
#340 = CARTESIAN_POINT('',(0.238531797765,73.325381278492));
#341 = CARTESIAN_POINT('',(0.230179226046,73.011076030738));
#342 = CARTESIAN_POINT('',(0.210245724743,72.5010866072));
#343 = CARTESIAN_POINT('',(0.200504452489,72.299112095172));
#344 = CARTESIAN_POINT('',(0.18908711533,72.104057429359));
#345 = CARTESIAN_POINT('',(0.175944289456,71.917895241067));
#346 = CARTESIAN_POINT('',(0.161026086026,71.743166338489));
#347 = CARTESIAN_POINT('',(0.14429262989,71.583142043588));
#348 = CARTESIAN_POINT('',(0.110764682088,71.328344925906));
#349 = CARTESIAN_POINT('',(9.446644541847E-02,71.225845233152));
#350 = CARTESIAN_POINT('',(7.699516314839E-02,71.138816311366));
#351 = CARTESIAN_POINT('',(5.856008269897E-02,71.070628927011));
#352 = CARTESIAN_POINT('',(3.94042228473E-02,71.023802689018));
#353 = CARTESIAN_POINT('',(1.979189429098E-02,71.));
#354 = CARTESIAN_POINT('',(0.,71.));
#355 = ( GEOMETRIC_REPRESENTATION_CONTEXT(2) 
PARAMETRIC_REPRESENTATION_CONTEXT() REPRESENTATION_CONTEXT('2D SPACE',''
  ) );
#356 = PCURVE('',#171,#357);
#357 = DEFINITIONAL_REPRESENTATION('',(#358),#391);
#358 = B_SPLINE_CURVE_WITH_KNOTS('',7,(#359,#360,#361,#362,#363,#364,
    #365,#366,#367,#368,#369,#370,#371,#372,#373,#374,#375,#376,#377,
    #378,#379,#380,#381,#382,#383,#384,#385,#386,#387,#388,#389,#390),
  .UNSPECIFIED.,.F.,.F.,(8,6,6,6,6,8),(0.,0.151580939167,0.386009880985,
    0.660376100555,0.84840102485,1.),.UNSPECIFIED.);
#359 = CARTESIAN_POINT('',(0.,12.5));
#360 = CARTESIAN_POINT('',(8.246622628E-02,12.5));
#361 = CARTESIAN_POINT('',(0.164184123006,12.505712001524));
#362 = CARTESIAN_POINT('',(0.244864046968,12.516952476992));
#363 = CARTESIAN_POINT('',(0.324194938638,12.533045586859));
#364 = CARTESIAN_POINT('',(0.401807117817,12.552905908365));
#365 = CARTESIAN_POINT('',(0.477220568701,12.575212049743));
#366 = CARTESIAN_POINT('',(0.661994204036,12.634952044108));
#367 = CARTESIAN_POINT('',(0.769017769716,12.674518658769));
#368 = CARTESIAN_POINT('',(0.871890387019,12.713955432344));
#369 = CARTESIAN_POINT('',(0.971379513646,12.750671593936));
#370 = CARTESIAN_POINT('',(1.068212536406,12.782953622898));
#371 = CARTESIAN_POINT('',(1.16305666479,12.809639718842));
#372 = CARTESIAN_POINT('',(1.366159799774,12.853782173568));
#373 = CARTESIAN_POINT('',(1.473842878378,12.868867829982));
#374 = CARTESIAN_POINT('',(1.580668679915,12.874017039829));
#375 = CARTESIAN_POINT('',(1.687435797856,12.868801755955));
#376 = CARTESIAN_POINT('',(1.794972735008,12.8534364755));
#377 = CARTESIAN_POINT('',(1.904098784513,12.828828160985));
#378 = CARTESIAN_POINT('',(2.092442731019,12.77485310616));
#379 = CARTESIAN_POINT('',(2.170297821411,12.749411568354));
#380 = CARTESIAN_POINT('',(2.249790122422,12.721048628125));
#381 = CARTESIAN_POINT('',(2.331279201444,12.690551320732));
#382 = CARTESIAN_POINT('',(2.415150709736,12.65898161064));
#383 = CARTESIAN_POINT('',(2.501821643107,12.627766963535));
#384 = CARTESIAN_POINT('',(2.664372084957,12.575212049721));
#385 = CARTESIAN_POINT('',(2.739785535774,12.552905908369));
#386 = CARTESIAN_POINT('',(2.817397714898,12.533045586876));
#387 = CARTESIAN_POINT('',(2.896728606573,12.516952476996));
#388 = CARTESIAN_POINT('',(2.977408530592,12.505712001514));
#389 = CARTESIAN_POINT('',(3.059126427377,12.5));
#390 = CARTESIAN_POINT('',(3.14159265359,12.5));
#391 = ( GEOMETRIC_REPRESENTATION_CONTEXT(2) 
PARAMETRIC_REPRESENTATION_CONTEXT() REPRESENTATION_CONTEXT('2D SPACE',''
  ) );
#392 = FACE_BOUND('',#393,.T.);
#393 = EDGE_LOOP('',(#394));
#394 = ORIENTED_EDGE('',*,*,#395,.F.);
#395 = EDGE_CURVE('',#396,#396,#398,.T.);
#396 = VERTEX_POINT('',#397);
#397 = CARTESIAN_POINT('',(95.,-7.347880794884E-16,12.5));
#398 = SURFACE_CURVE('',#399,(#462,#528),.PCURVE_S1.);
#399 = B_SPLINE_CURVE_WITH_KNOTS('',7,(#400,#401,#402,#403,#404,#405,
    #406,#407,#408,#409,#410,#411,#412,#413,#414,#415,#416,#417,#418,
    #419,#420,#421,#422,#423,#424,#425,#426,#427,#428,#429,#430,#431,
    #432,#433,#434,#435,#436,#437,#438,#439,#440,#441,#442,#443,#444,
    #445,#446,#447,#448,#449,#450,#451,#452,#453,#454,#455,#456,#457,
    #458,#459,#460,#461),.UNSPECIFIED.,.T.,.F.,(8,6,6,6,6,6,6,6,6,6,8),(
    0.,7.579948796564E-02,0.16981195061,0.306995061121,0.424209532649,
    0.500000002695,0.575790472731,0.693004944231,0.830188053233,
    0.924200513744,1.),.UNSPECIFIED.);
#400 = CARTESIAN_POINT('',(95.,4.440892098501E-16,12.5));
#401 = CARTESIAN_POINT('',(95.,0.247398678665,12.5));
#402 = CARTESIAN_POINT('',(94.976197310977,0.492552613632,
    12.494287998484));
#403 = CARTESIAN_POINT('',(94.929371072991,0.731843262717,
    12.483047523004));
#404 = CARTESIAN_POINT('',(94.861183688644,0.96181852482,12.466954413127
    ));
#405 = CARTESIAN_POINT('',(94.774154766851,1.179368414224,
    12.447094091631));
#406 = CARTESIAN_POINT('',(94.671655074079,1.381897726231,
    12.424787950276));
#407 = CARTESIAN_POINT('',(94.416857956412,1.797688832571,
    12.372233036465));
#408 = CARTESIAN_POINT('',(94.25683366151,2.004575856738,12.34101838936)
  );
#409 = CARTESIAN_POINT('',(94.082104758935,2.18841501499,12.309448679268
    ));
#410 = CARTESIAN_POINT('',(93.895942570639,2.349875013076,
    12.278951371875));
#411 = CARTESIAN_POINT('',(93.700887904829,2.48975839736,12.250588431647
    ));
#412 = CARTESIAN_POINT('',(93.4989133928,2.608840618248,12.22514689384)
  );
#413 = CARTESIAN_POINT('',(92.988923969262,2.852093095211,
    12.171171839015));
#414 = CARTESIAN_POINT('',(92.674618721509,2.953579185425,12.1465635245)
  );
#415 = CARTESIAN_POINT('',(92.3535610636,3.013949426138,12.131198244045)
  );
#416 = CARTESIAN_POINT('',(92.029481147517,3.034197624354,
    12.125982960171));
#417 = CARTESIAN_POINT('',(91.705647490882,3.014603164394,
    12.131132170018));
#418 = CARTESIAN_POINT('',(91.385435958812,2.954702711136,
    12.146217826432));
#419 = CARTESIAN_POINT('',(90.805948278793,2.766415750174,
    12.190360281158));
#420 = CARTESIAN_POINT('',(90.544812500461,2.649340394357,
    12.217046377102));
#421 = CARTESIAN_POINT('',(90.29175868409,2.501092084197,12.249328406064
    ));
#422 = CARTESIAN_POINT('',(90.049851952703,2.320280272161,
    12.286044567656));
#423 = CARTESIAN_POINT('',(89.823313197409,2.105263511466,
    12.325481341231));
#424 = CARTESIAN_POINT('',(89.617976803793,1.854533994782,
    12.365047955892));
#425 = CARTESIAN_POINT('',(89.328344925921,1.381897726231,
    12.424787950276));
#426 = CARTESIAN_POINT('',(89.225845233148,1.179368414224,
    12.447094091631));
#427 = CARTESIAN_POINT('',(89.138816311356,0.96181852482,12.466954413127
    ));
#428 = CARTESIAN_POINT('',(89.070628927009,0.731843262717,
    12.483047523004));
#429 = CARTESIAN_POINT('',(89.023802689023,0.492552613632,
    12.494287998484));
#430 = CARTESIAN_POINT('',(89.,0.247398678665,12.5));
#431 = CARTESIAN_POINT('',(89.,-0.247398678637,12.5));
#432 = CARTESIAN_POINT('',(89.023802689018,-0.492552613629,
    12.494287998486));
#433 = CARTESIAN_POINT('',(89.070628927011,-0.731843262739,
    12.483047523004));
#434 = CARTESIAN_POINT('',(89.138816311366,-0.961818524841,
    12.466954413124));
#435 = CARTESIAN_POINT('',(89.225845233152,-1.179368414221,
    12.447094091631));
#436 = CARTESIAN_POINT('',(89.328344925906,-1.381897726207,
    12.424787950279));
#437 = CARTESIAN_POINT('',(89.617976803793,-1.854533994783,
    12.365047955892));
#438 = CARTESIAN_POINT('',(89.823313197408,-2.105263511465,
    12.325481341231));
#439 = CARTESIAN_POINT('',(90.049851952704,-2.320280272162,
    12.286044567656));
#440 = CARTESIAN_POINT('',(90.291758684089,-2.501092084196,
    12.249328406064));
#441 = CARTESIAN_POINT('',(90.544812500462,-2.649340394358,
    12.217046377102));
#442 = CARTESIAN_POINT('',(90.805948278792,-2.766415750174,
    12.190360281158));
#443 = CARTESIAN_POINT('',(91.385435955451,-2.954702710044,
    12.146217826688));
#444 = CARTESIAN_POINT('',(91.705647499008,-3.014603167911,
    12.131132169206));
#445 = CARTESIAN_POINT('',(92.029481142254,-3.034197618338,
    12.125982961536));
#446 = CARTESIAN_POINT('',(92.353561059117,-3.013949432911,
    12.131198242523));
#447 = CARTESIAN_POINT('',(92.674618729577,-2.953579180604,
    12.146563525578));
#448 = CARTESIAN_POINT('',(92.988923965725,-2.852093096898,
    12.171171838641));
#449 = CARTESIAN_POINT('',(93.4989133928,-2.608840618248,12.22514689384)
  );
#450 = CARTESIAN_POINT('',(93.700887904829,-2.489758397361,
    12.250588431646));
#451 = CARTESIAN_POINT('',(93.89594257064,-2.349875013075,
    12.278951371875));
#452 = CARTESIAN_POINT('',(94.082104758935,-2.188415014991,
    12.309448679268));
#453 = CARTESIAN_POINT('',(94.256833661511,-2.004575856737,
    12.34101838936));
#454 = CARTESIAN_POINT('',(94.416857956412,-1.797688832572,
    12.372233036465));
#455 = CARTESIAN_POINT('',(94.671655074094,-1.381897726207,
    12.424787950279));
#456 = CARTESIAN_POINT('',(94.774154766848,-1.179368414221,
    12.447094091631));
#457 = CARTESIAN_POINT('',(94.861183688634,-0.961818524841,
    12.466954413124));
#458 = CARTESIAN_POINT('',(94.929371072989,-0.731843262739,
    12.483047523004));
#459 = CARTESIAN_POINT('',(94.976197310982,-0.492552613629,
    12.494287998486));
#460 = CARTESIAN_POINT('',(95.,-0.247398678637,12.5));
#461 = CARTESIAN_POINT('',(95.,4.440892098501E-16,12.5));
#462 = PCURVE('',#50,#463);
#463 = DEFINITIONAL_REPRESENTATION('',(#464),#527);
#464 = B_SPLINE_CURVE_WITH_KNOTS('',7,(#465,#466,#467,#468,#469,#470,
    #471,#472,#473,#474,#475,#476,#477,#478,#479,#480,#481,#482,#483,
    #484,#485,#486,#487,#488,#489,#490,#491,#492,#493,#494,#495,#496,
    #497,#498,#499,#500,#501,#502,#503,#504,#505,#506,#507,#508,#509,
    #510,#511,#512,#513,#514,#515,#516,#517,#518,#519,#520,#521,#522,
    #523,#524,#525,#526),.UNSPECIFIED.,.T.,.F.,(8,6,6,6,6,6,6,6,6,6,8),(
    0.,7.579948796564E-02,0.16981195061,0.306995061121,0.424209532649,
    0.500000002695,0.575790472731,0.693004944231,0.830188053233,
    0.924200513744,1.),.UNSPECIFIED.);
#465 = CARTESIAN_POINT('',(3.14159265359,77.));
#466 = CARTESIAN_POINT('',(3.121800759297,77.));
#467 = CARTESIAN_POINT('',(3.102188430742,76.976197310977));
#468 = CARTESIAN_POINT('',(3.083032570893,76.929371072991));
#469 = CARTESIAN_POINT('',(3.064597490443,76.861183688644));
#470 = CARTESIAN_POINT('',(3.047126208171,76.774154766851));
#471 = CARTESIAN_POINT('',(3.0308279715,76.671655074079));
#472 = CARTESIAN_POINT('',(2.9973000237,76.416857956412));
#473 = CARTESIAN_POINT('',(2.980566567564,76.25683366151));
#474 = CARTESIAN_POINT('',(2.965648364134,76.082104758935));
#475 = CARTESIAN_POINT('',(2.95250553826,75.895942570639));
#476 = CARTESIAN_POINT('',(2.941088201101,75.700887904829));
#477 = CARTESIAN_POINT('',(2.931346928847,75.4989133928));
#478 = CARTESIAN_POINT('',(2.911413427544,74.988923969262));
#479 = CARTESIAN_POINT('',(2.903060855825,74.674618721509));
#480 = CARTESIAN_POINT('',(2.898076972848,74.3535610636));
#481 = CARTESIAN_POINT('',(2.896404125704,74.029481147517));
#482 = CARTESIAN_POINT('',(2.89802523679,73.705647490882));
#483 = CARTESIAN_POINT('',(2.902966247117,73.385435958812));
#484 = CARTESIAN_POINT('',(2.91843762166,72.805948278793));
#485 = CARTESIAN_POINT('',(2.928043706448,72.544812500461));
#486 = CARTESIAN_POINT('',(2.94018052314,72.29175868409));
#487 = CARTESIAN_POINT('',(2.954937789374,72.049851952703));
#488 = CARTESIAN_POINT('',(2.972419277846,71.823313197409));
#489 = CARTESIAN_POINT('',(2.992716227649,71.617976803793));
#490 = CARTESIAN_POINT('',(3.0308279715,71.328344925921));
#491 = CARTESIAN_POINT('',(3.047126208171,71.225845233149));
#492 = CARTESIAN_POINT('',(3.064597490443,71.138816311356));
#493 = CARTESIAN_POINT('',(3.083032570893,71.070628927009));
#494 = CARTESIAN_POINT('',(3.102188430742,71.023802689023));
#495 = CARTESIAN_POINT('',(3.121800759297,71.));
#496 = CARTESIAN_POINT('',(3.161384547881,71.));
#497 = CARTESIAN_POINT('',(3.180996876437,71.023802689018));
#498 = CARTESIAN_POINT('',(3.200152736289,71.070628927011));
#499 = CARTESIAN_POINT('',(3.218587816738,71.138816311366));
#500 = CARTESIAN_POINT('',(3.236059099008,71.225845233152));
#501 = CARTESIAN_POINT('',(3.252357335678,71.328344925906));
#502 = CARTESIAN_POINT('',(3.290469079531,71.617976803793));
#503 = CARTESIAN_POINT('',(3.310766029333,71.823313197408));
#504 = CARTESIAN_POINT('',(3.328247517805,72.049851952704));
#505 = CARTESIAN_POINT('',(3.34300478404,72.291758684089));
#506 = CARTESIAN_POINT('',(3.355141600731,72.544812500462));
#507 = CARTESIAN_POINT('',(3.36474768552,72.805948278792));
#508 = CARTESIAN_POINT('',(3.380219059973,73.385435955451));
#509 = CARTESIAN_POINT('',(3.385160070679,73.705647499008));
#510 = CARTESIAN_POINT('',(3.386781180982,74.029481142254));
#511 = CARTESIAN_POINT('',(3.385108334887,74.353561059117));
#512 = CARTESIAN_POINT('',(3.38012445096,74.674618729577));
#513 = CARTESIAN_POINT('',(3.371771879774,74.988923965725));
#514 = CARTESIAN_POINT('',(3.351838378333,75.4989133928));
#515 = CARTESIAN_POINT('',(3.342097106079,75.700887904829));
#516 = CARTESIAN_POINT('',(3.33067976892,75.895942570639));
#517 = CARTESIAN_POINT('',(3.317536943045,76.082104758935));
#518 = CARTESIAN_POINT('',(3.302618739615,76.25683366151));
#519 = CARTESIAN_POINT('',(3.28588528348,76.416857956412));
#520 = CARTESIAN_POINT('',(3.252357335678,76.671655074094));
#521 = CARTESIAN_POINT('',(3.236059099008,76.774154766848));
#522 = CARTESIAN_POINT('',(3.218587816738,76.861183688634));
#523 = CARTESIAN_POINT('',(3.200152736289,76.929371072989));
#524 = CARTESIAN_POINT('',(3.180996876437,76.976197310982));
#525 = CARTESIAN_POINT('',(3.161384547881,77.));
#526 = CARTESIAN_POINT('',(3.14159265359,77.));
#527 = ( GEOMETRIC_REPRESENTATION_CONTEXT(2) 
PARAMETRIC_REPRESENTATION_CONTEXT() REPRESENTATION_CONTEXT('2D SPACE',''
  ) );
#528 = PCURVE('',#171,#529);
#529 = DEFINITIONAL_REPRESENTATION('',(#530),#593);
#530 = B_SPLINE_CURVE_WITH_KNOTS('',7,(#531,#532,#533,#534,#535,#536,
    #537,#538,#539,#540,#541,#542,#543,#544,#545,#546,#547,#548,#549,
    #550,#551,#552,#553,#554,#555,#556,#557,#558,#559,#560,#561,#562,
    #563,#564,#565,#566,#567,#568,#569,#570,#571,#572,#573,#574,#575,
    #576,#577,#578,#579,#580,#581,#582,#583,#584,#585,#586,#587,#588,
    #589,#590,#591,#592),.UNSPECIFIED.,.F.,.F.,(8,6,6,6,6,6,6,6,6,6,8),(
    0.,7.579948796564E-02,0.16981195061,0.306995061121,0.424209532649,
    0.500000002695,0.575790472731,0.693004944231,0.830188053233,
    0.924200513744,1.),.UNSPECIFIED.);
#531 = CARTESIAN_POINT('',(0.,37.5));
#532 = CARTESIAN_POINT('',(8.246622622181E-02,37.5));
#533 = CARTESIAN_POINT('',(0.164184122999,37.494287998484));
#534 = CARTESIAN_POINT('',(0.24486404701,37.483047523004));
#535 = CARTESIAN_POINT('',(0.324194938685,37.466954413127));
#536 = CARTESIAN_POINT('',(0.401807117816,37.447094091631));
#537 = CARTESIAN_POINT('',(0.477220568642,37.424787950276));
#538 = CARTESIAN_POINT('',(0.639771010483,37.372233036465));
#539 = CARTESIAN_POINT('',(0.726441943854,37.34101838936));
#540 = CARTESIAN_POINT('',(0.810313452145,37.309448679268));
#541 = CARTESIAN_POINT('',(0.891802531168,37.278951371875));
#542 = CARTESIAN_POINT('',(0.971294832178,37.250588431647));
#543 = CARTESIAN_POINT('',(1.049149922571,37.22514689384));
#544 = CARTESIAN_POINT('',(1.237493869077,37.171171839015));
#545 = CARTESIAN_POINT('',(1.346619918581,37.1465635245));
#546 = CARTESIAN_POINT('',(1.454156855734,37.131198244045));
#547 = CARTESIAN_POINT('',(1.560923973675,37.125982960171));
#548 = CARTESIAN_POINT('',(1.667749775212,37.131132170018));
#549 = CARTESIAN_POINT('',(1.775432853816,37.146217826432));
#550 = CARTESIAN_POINT('',(1.9785359888,37.190360281158));
#551 = CARTESIAN_POINT('',(2.073380117184,37.217046377102));
#552 = CARTESIAN_POINT('',(2.170213139943,37.249328406064));
#553 = CARTESIAN_POINT('',(2.269702266571,37.286044567656));
#554 = CARTESIAN_POINT('',(2.372574883874,37.325481341231));
#555 = CARTESIAN_POINT('',(2.479598449554,37.365047955892));
#556 = CARTESIAN_POINT('',(2.664372084948,37.424787950276));
#557 = CARTESIAN_POINT('',(2.739785535773,37.447094091631));
#558 = CARTESIAN_POINT('',(2.817397714905,37.466954413127));
#559 = CARTESIAN_POINT('',(2.89672860658,37.483047523004));
#560 = CARTESIAN_POINT('',(2.977408530591,37.494287998484));
#561 = CARTESIAN_POINT('',(3.059126427368,37.5));
#562 = CARTESIAN_POINT('',(3.224058879802,37.5));
#563 = CARTESIAN_POINT('',(3.305776776587,37.494287998486));
#564 = CARTESIAN_POINT('',(3.386456700607,37.483047523004));
#565 = CARTESIAN_POINT('',(3.465787592282,37.466954413124));
#566 = CARTESIAN_POINT('',(3.543399771406,37.447094091631));
#567 = CARTESIAN_POINT('',(3.618813222223,37.424787950279));
#568 = CARTESIAN_POINT('',(3.803586857626,37.365047955892));
#569 = CARTESIAN_POINT('',(3.910610423306,37.325481341231));
#570 = CARTESIAN_POINT('',(4.013483040609,37.286044567656));
#571 = CARTESIAN_POINT('',(4.112972167236,37.249328406064));
#572 = CARTESIAN_POINT('',(4.209805189995,37.217046377102));
#573 = CARTESIAN_POINT('',(4.30464931838,37.190360281158));
#574 = CARTESIAN_POINT('',(4.507752452186,37.146217826688));
#575 = CARTESIAN_POINT('',(4.615435534757,37.131132169206));
#576 = CARTESIAN_POINT('',(4.722261331806,37.125982961536));
#577 = CARTESIAN_POINT('',(4.829028449693,37.131198242523));
#578 = CARTESIAN_POINT('',(4.936565391574,37.146563525578));
#579 = CARTESIAN_POINT('',(5.045691436796,37.171171838641));
#580 = CARTESIAN_POINT('',(5.234035384609,37.22514689384));
#581 = CARTESIAN_POINT('',(5.311890475002,37.250588431646));
#582 = CARTESIAN_POINT('',(5.391382776011,37.278951371875));
#583 = CARTESIAN_POINT('',(5.472871855035,37.309448679268));
#584 = CARTESIAN_POINT('',(5.556743363326,37.34101838936));
#585 = CARTESIAN_POINT('',(5.643414296697,37.372233036465));
#586 = CARTESIAN_POINT('',(5.805964738547,37.424787950279));
#587 = CARTESIAN_POINT('',(5.881378189363,37.447094091631));
#588 = CARTESIAN_POINT('',(5.958990368487,37.466954413124));
#589 = CARTESIAN_POINT('',(6.038321260162,37.483047523004));
#590 = CARTESIAN_POINT('',(6.119001184182,37.494287998486));
#591 = CARTESIAN_POINT('',(6.200719080967,37.5));
#592 = CARTESIAN_POINT('',(6.28318530718,37.5));
#593 = ( GEOMETRIC_REPRESENTATION_CONTEXT(2) 
PARAMETRIC_REPRESENTATION_CONTEXT() REPRESENTATION_CONTEXT('2D SPACE',''
  ) );
#594 = ADVANCED_FACE('',(#595),#171,.F.);
#595 = FACE_BOUND('',#596,.F.);
#596 = EDGE_LOOP('',(#597,#598,#619,#620,#621));
#597 = ORIENTED_EDGE('',*,*,#395,.F.);
#598 = ORIENTED_EDGE('',*,*,#599,.F.);
#599 = EDGE_CURVE('',#98,#396,#600,.T.);
#600 = SEAM_CURVE('',#601,(#605,#612),.PCURVE_S1.);
#601 = LINE('',#602,#603);
#602 = CARTESIAN_POINT('',(95.,-7.347880794884E-16,-25.));
#603 = VECTOR('',#604,1.);
#604 = DIRECTION('',(0.,0.,1.));
#605 = PCURVE('',#171,#606);
#606 = DEFINITIONAL_REPRESENTATION('',(#607),#611);
#607 = LINE('',#608,#609);
#608 = CARTESIAN_POINT('',(6.28318530718,-0.));
#609 = VECTOR('',#610,1.);
#610 = DIRECTION('',(0.,1.));
#611 = ( GEOMETRIC_REPRESENTATION_CONTEXT(2) 
PARAMETRIC_REPRESENTATION_CONTEXT() REPRESENTATION_CONTEXT('2D SPACE',''
  ) );
#612 = PCURVE('',#171,#613);
#613 = DEFINITIONAL_REPRESENTATION('',(#614),#618);
#614 = LINE('',#615,#616);
#615 = CARTESIAN_POINT('',(0.,-0.));
#616 = VECTOR('',#617,1.);
#617 = DIRECTION('',(0.,1.));
#618 = ( GEOMETRIC_REPRESENTATION_CONTEXT(2) 
PARAMETRIC_REPRESENTATION_CONTEXT() REPRESENTATION_CONTEXT('2D SPACE',''
  ) );
#619 = ORIENTED_EDGE('',*,*,#285,.T.);
#620 = ORIENTED_EDGE('',*,*,#97,.T.);
#621 = ORIENTED_EDGE('',*,*,#599,.T.);
#622 = ADVANCED_FACE('',(#623),#252,.T.);
#623 = FACE_BOUND('',#624,.T.);
#624 = EDGE_LOOP('',(#625,#626));
#625 = ORIENTED_EDGE('',*,*,#263,.T.);
#626 = ORIENTED_EDGE('',*,*,#235,.T.);
#627 = ADVANCED_FACE('',(#628,#659),#84,.T.);
#628 = FACE_BOUND('',#629,.T.);
#629 = EDGE_LOOP('',(#630));
#630 = ORIENTED_EDGE('',*,*,#631,.T.);
#631 = EDGE_CURVE('',#632,#632,#634,.T.);
#632 = VERTEX_POINT('',#633);
#633 = CARTESIAN_POINT('',(30.,-4.163799117101E-15,-17.));
#634 = SURFACE_CURVE('',#635,(#640,#647),.PCURVE_S1.);
#635 = CIRCLE('',#636,17.);
#636 = AXIS2_PLACEMENT_3D('',#637,#638,#639);
#637 = CARTESIAN_POINT('',(30.,0.,1.33226762955E-15));
#638 = DIRECTION('',(1.,-0.,2.22044604925E-16));
#639 = DIRECTION('',(2.22044604925E-16,0.,-1.));
#640 = PCURVE('',#84,#641);
#641 = DEFINITIONAL_REPRESENTATION('',(#642),#646);
#642 = CIRCLE('',#643,17.);
#643 = AXIS2_PLACEMENT_2D('',#644,#645);
#644 = CARTESIAN_POINT('',(0.,0.));
#645 = DIRECTION('',(1.,0.));
#646 = ( GEOMETRIC_REPRESENTATION_CONTEXT(2) 
PARAMETRIC_REPRESENTATION_CONTEXT() REPRESENTATION_CONTEXT('2D SPACE',''
  ) );
#647 = PCURVE('',#648,#653);
#648 = CYLINDRICAL_SURFACE('',#649,17.);
#649 = AXIS2_PLACEMENT_3D('',#650,#651,#652);
#650 = CARTESIAN_POINT('',(18.,0.,-1.33226762955E-15));
#651 = DIRECTION('',(1.,0.,2.22044604925E-16));
#652 = DIRECTION('',(2.22044604925E-16,0.,-1.));
#653 = DEFINITIONAL_REPRESENTATION('',(#654),#658);
#654 = LINE('',#655,#656);
#655 = CARTESIAN_POINT('',(0.,12.));
#656 = VECTOR('',#657,1.);
#657 = DIRECTION('',(1.,0.));
#658 = ( GEOMETRIC_REPRESENTATION_CONTEXT(2) 
PARAMETRIC_REPRESENTATION_CONTEXT() REPRESENTATION_CONTEXT('2D SPACE',''
  ) );
#659 = FACE_BOUND('',#660,.T.);
#660 = EDGE_LOOP('',(#661));
#661 = ORIENTED_EDGE('',*,*,#69,.F.);
#662 = ADVANCED_FACE('',(#663),#648,.T.);
#663 = FACE_BOUND('',#664,.T.);
#664 = EDGE_LOOP('',(#665,#666,#689,#716));
#665 = ORIENTED_EDGE('',*,*,#631,.F.);
#666 = ORIENTED_EDGE('',*,*,#667,.F.);
#667 = EDGE_CURVE('',#668,#632,#670,.T.);
#668 = VERTEX_POINT('',#669);
#669 = CARTESIAN_POINT('',(18.,-4.163799117101E-15,-17.));
#670 = SEAM_CURVE('',#671,(#675,#682),.PCURVE_S1.);
#671 = LINE('',#672,#673);
#672 = CARTESIAN_POINT('',(18.,-4.163799117101E-15,-17.));
#673 = VECTOR('',#674,1.);
#674 = DIRECTION('',(1.,0.,2.22044604925E-16));
#675 = PCURVE('',#648,#676);
#676 = DEFINITIONAL_REPRESENTATION('',(#677),#681);
#677 = LINE('',#678,#679);
#678 = CARTESIAN_POINT('',(6.28318530718,-0.));
#679 = VECTOR('',#680,1.);
#680 = DIRECTION('',(0.,1.));
#681 = ( GEOMETRIC_REPRESENTATION_CONTEXT(2) 
PARAMETRIC_REPRESENTATION_CONTEXT() REPRESENTATION_CONTEXT('2D SPACE',''
  ) );
#682 = PCURVE('',#648,#683);
#683 = DEFINITIONAL_REPRESENTATION('',(#684),#688);
#684 = LINE('',#685,#686);
#685 = CARTESIAN_POINT('',(0.,-0.));
#686 = VECTOR('',#687,1.);
#687 = DIRECTION('',(0.,1.));
#688 = ( GEOMETRIC_REPRESENTATION_CONTEXT(2) 
PARAMETRIC_REPRESENTATION_CONTEXT() REPRESENTATION_CONTEXT('2D SPACE',''
  ) );
#689 = ORIENTED_EDGE('',*,*,#690,.T.);
#690 = EDGE_CURVE('',#668,#668,#691,.T.);
#691 = SURFACE_CURVE('',#692,(#697,#704),.PCURVE_S1.);
#692 = CIRCLE('',#693,17.);
#693 = AXIS2_PLACEMENT_3D('',#694,#695,#696);
#694 = CARTESIAN_POINT('',(18.,0.,-1.33226762955E-15));
#695 = DIRECTION('',(1.,-0.,2.22044604925E-16));
#696 = DIRECTION('',(2.22044604925E-16,0.,-1.));
#697 = PCURVE('',#648,#698);
#698 = DEFINITIONAL_REPRESENTATION('',(#699),#703);
#699 = LINE('',#700,#701);
#700 = CARTESIAN_POINT('',(0.,0.));
#701 = VECTOR('',#702,1.);
#702 = DIRECTION('',(1.,0.));
#703 = ( GEOMETRIC_REPRESENTATION_CONTEXT(2) 
PARAMETRIC_REPRESENTATION_CONTEXT() REPRESENTATION_CONTEXT('2D SPACE',''
  ) );
#704 = PCURVE('',#705,#710);
#705 = PLANE('',#706);
#706 = AXIS2_PLACEMENT_3D('',#707,#708,#709);
#707 = CARTESIAN_POINT('',(18.,0.,-1.33226762955E-15));
#708 = DIRECTION('',(1.,0.,2.22044604925E-16));
#709 = DIRECTION('',(2.22044604925E-16,0.,-1.));
#710 = DEFINITIONAL_REPRESENTATION('',(#711),#715);
#711 = CIRCLE('',#712,17.);
#712 = AXIS2_PLACEMENT_2D('',#713,#714);
#713 = CARTESIAN_POINT('',(0.,0.));
#714 = DIRECTION('',(1.,0.));
#715 = ( GEOMETRIC_REPRESENTATION_CONTEXT(2) 
PARAMETRIC_REPRESENTATION_CONTEXT() REPRESENTATION_CONTEXT('2D SPACE',''
  ) );
#716 = ORIENTED_EDGE('',*,*,#667,.T.);
#717 = ADVANCED_FACE('',(#718),#705,.F.);
#718 = FACE_BOUND('',#719,.F.);
#719 = EDGE_LOOP('',(#720));
#720 = ORIENTED_EDGE('',*,*,#690,.T.);
#721 = ( GEOMETRIC_REPRESENTATION_CONTEXT(3) 
GLOBAL_UNCERTAINTY_ASSIGNED_CONTEXT((#725)) GLOBAL_UNIT_ASSIGNED_CONTEXT
((#722,#723,#724)) REPRESENTATION_CONTEXT('Context #1',
  '3D Context with UNIT and UNCERTAINTY') );
#722 = ( LENGTH_UNIT() NAMED_UNIT(*) SI_UNIT(.MILLI.,.METRE.) );
#723 = ( NAMED_UNIT(*) PLANE_ANGLE_UNIT() SI_UNIT($,.RADIAN.) );
#724 = ( NAMED_UNIT(*) SI_UNIT($,.STERADIAN.) SOLID_ANGLE_UNIT() );
#725 = UNCERTAINTY_MEASURE_WITH_UNIT(LENGTH_MEASURE(1.E-07),#722,
  'distance_accuracy_value','confusion accuracy');
#726 = CONTEXT_DEPENDENT_SHAPE_REPRESENTATION(#727,#729);
#727 = ( REPRESENTATION_RELATIONSHIP('','',#32,#10) 
REPRESENTATION_RELATIONSHIP_WITH_TRANSFORMATION(#728) 
SHAPE_REPRESENTATION_RELATIONSHIP() );
#728 = ITEM_DEFINED_TRANSFORMATION('','',#11,#15);
#729 = PRODUCT_DEFINITION_SHAPE('Placement','Placement of an item',#730
  );
#730 = NEXT_ASSEMBLY_USAGE_OCCURRENCE('1','=>[0:1:1:2]','',#5,#27,$);
#731 = PRODUCT_RELATED_PRODUCT_CATEGORY('part',$,(#29));
ENDSEC;
END-ISO-10303-21;
