ISO-10303-21;
HEADER;
FILE_DESCRIPTION(('Open CASCADE Model'),'2;1');
FILE_NAME('pin_seguro','2000-01-01T00:00:00',('Author'),('Open CASCADE')
  ,'Open CASCADE STEP processor 7.9','cadgen','Unknown');
FILE_SCHEMA(('AUTOMOTIVE_DESIGN { 1 0 10303 214 1 1 1 1 }'));
ENDSEC;
DATA;
#1 = APPLICATION_PROTOCOL_DEFINITION('international standard',
  'automotive_design',2000,#2);
#2 = APPLICATION_CONTEXT(
  'core data for automotive mechanical design processes');
#3 = SHAPE_DEFINITION_REPRESENTATION(#4,#10);
#4 = PRODUCT_DEFINITION_SHAPE('','',#5);
#5 = PRODUCT_DEFINITION('design','',#6,#9);
#6 = PRODUCT_DEFINITION_FORMATION('','',#7);
#7 = PRODUCT('=>[0:1:1:2]','=>[0:1:1:2]','',(#8));
#8 = PRODUCT_CONTEXT('',#2,'mechanical');
#9 = PRODUCT_DEFINITION_CONTEXT('part definition',#2,'design');
#10 = SHAPE_REPRESENTATION('',(#11,#15),#19);
#11 = AXIS2_PLACEMENT_3D('',#12,#13,#14);
#12 = CARTESIAN_POINT('',(0.,0.,0.));
#13 = DIRECTION('',(0.,0.,1.));
#14 = DIRECTION('',(1.,0.,-0.));
#15 = AXIS2_PLACEMENT_3D('',#16,#17,#18);
#16 = CARTESIAN_POINT('',(0.,0.,0.));
#17 = DIRECTION('',(0.,0.,1.));
#18 = DIRECTION('',(1.,0.,0.));
#19 = ( GEOMETRIC_REPRESENTATION_CONTEXT(3) 
GLOBAL_UNCERTAINTY_ASSIGNED_CONTEXT((#23)) GLOBAL_UNIT_ASSIGNED_CONTEXT(
(#20,#21,#22)) REPRESENTATION_CONTEXT('Context #1',
  '3D Context with UNIT and UNCERTAINTY') );
#20 = ( LENGTH_UNIT() NAMED_UNIT(*) SI_UNIT(.MILLI.,.METRE.) );
#21 = ( NAMED_UNIT(*) PLANE_ANGLE_UNIT() SI_UNIT($,.RADIAN.) );
#22 = ( NAMED_UNIT(*) SI_UNIT($,.STERADIAN.) SOLID_ANGLE_UNIT() );
#23 = UNCERTAINTY_MEASURE_WITH_UNIT(LENGTH_MEASURE(1.E-07),#20,
  'distance_accuracy_value','confusion accuracy');
#24 = PRODUCT_RELATED_PRODUCT_CATEGORY('part',$,(#7));
#25 = SHAPE_DEFINITION_REPRESENTATION(#26,#32);
#26 = PRODUCT_DEFINITION_SHAPE('','',#27);
#27 = PRODUCT_DEFINITION('design','',#28,#31);
#28 = PRODUCT_DEFINITION_FORMATION('','',#29);
#29 = PRODUCT('pin_seguro','pin_seguro','',(#30));
#30 = PRODUCT_CONTEXT('',#2,'mechanical');
#31 = PRODUCT_DEFINITION_CONTEXT('part definition',#2,'design');
#32 = SHAPE_REPRESENTATION('',(#11,#33,#1055),#1296);
#33 = MANIFOLD_SOLID_BREP('',#34);
#34 = CLOSED_SHELL('',(#35,#154,#325,#392,#418,#644,#683,#687,#713,#719,
    #855,#922,#982,#1014,#1041,#1045,#1050));
#35 = ADVANCED_FACE('',(#36),#51,.T.);
#36 = FACE_BOUND('',#37,.T.);
#37 = EDGE_LOOP('',(#38,#86,#115));
#38 = ORIENTED_EDGE('',*,*,#39,.T.);
#39 = EDGE_CURVE('',#40,#42,#44,.T.);
#40 = VERTEX_POINT('',#41);
#41 = CARTESIAN_POINT('',(-31.,-30.,-5.));
#42 = VERTEX_POINT('',#43);
#43 = CARTESIAN_POINT('',(-26.,-35.,6.546914373229E-15));
#44 = SURFACE_CURVE('',#45,(#50,#68),.PCURVE_S1.);
#45 = ELLIPSE('',#46,7.071067811865,5.);
#46 = AXIS2_PLACEMENT_3D('',#47,#48,#49);
#47 = CARTESIAN_POINT('',(-31.,-30.,0.));
#48 = DIRECTION('',(-0.707106781187,-0.707106781187,1.570092458684E-16)
  );
#49 = DIRECTION('',(-0.707106781187,0.707106781187,-1.570092458684E-16)
  );
#50 = PCURVE('',#51,#56);
#51 = CYLINDRICAL_SURFACE('',#52,5.);
#52 = AXIS2_PLACEMENT_3D('',#53,#54,#55);
#53 = CARTESIAN_POINT('',(-31.,35.,-7.771561172376E-15));
#54 = DIRECTION('',(0.,-1.,2.22044604925E-16));
#55 = DIRECTION('',(1.,0.,0.));
#56 = DEFINITIONAL_REPRESENTATION('',(#57),#67);
#57 = B_SPLINE_CURVE_WITH_KNOTS('',8,(#58,#59,#60,#61,#62,#63,#64,#65,
    #66),.UNSPECIFIED.,.F.,.F.,(9,9),(1.570796326795,3.14159265359),
  .PIECEWISE_BEZIER_KNOTS.);
#58 = CARTESIAN_POINT('',(4.712388980385,65.));
#59 = CARTESIAN_POINT('',(4.908738521234,65.981747704247));
#60 = CARTESIAN_POINT('',(5.105088062086,66.963495641518));
#61 = CARTESIAN_POINT('',(5.301437602942,67.887566306221));
#62 = CARTESIAN_POINT('',(5.497787143762,68.696293752582));
#63 = CARTESIAN_POINT('',(5.694136684637,69.339090231893));
#64 = CARTESIAN_POINT('',(5.890486225479,69.779696120007));
#65 = CARTESIAN_POINT('',(6.08683576633,70.));
#66 = CARTESIAN_POINT('',(6.28318530718,70.));
#67 = ( GEOMETRIC_REPRESENTATION_CONTEXT(2) 
PARAMETRIC_REPRESENTATION_CONTEXT() REPRESENTATION_CONTEXT('2D SPACE',''
  ) );
#68 = PCURVE('',#69,#74);
#69 = CYLINDRICAL_SURFACE('',#70,5.);
#70 = AXIS2_PLACEMENT_3D('',#71,#72,#73);
#71 = CARTESIAN_POINT('',(-36.,-30.,0.));
#72 = DIRECTION('',(-1.,-0.,-0.));
#73 = DIRECTION('',(0.,1.,0.));
#74 = DEFINITIONAL_REPRESENTATION('',(#75),#85);
#75 = B_SPLINE_CURVE_WITH_KNOTS('',8,(#76,#77,#78,#79,#80,#81,#82,#83,
    #84),.UNSPECIFIED.,.F.,.F.,(9,9),(1.570796326795,3.14159265359),
  .PIECEWISE_BEZIER_KNOTS.);
#76 = CARTESIAN_POINT('',(-4.712388980385,-5.));
#77 = CARTESIAN_POINT('',(-4.516039439535,-5.981747704247));
#78 = CARTESIAN_POINT('',(-4.319689898681,-6.963495641594));
#79 = CARTESIAN_POINT('',(-4.123340357843,-7.887566306017));
#80 = CARTESIAN_POINT('',(-3.926990816955,-8.696293752924));
#81 = CARTESIAN_POINT('',(-3.730641276141,-9.339090231668));
#82 = CARTESIAN_POINT('',(-3.534291735285,-9.779696120069));
#83 = CARTESIAN_POINT('',(-3.337942194439,-10.));
#84 = CARTESIAN_POINT('',(-3.14159265359,-10.));
#85 = ( GEOMETRIC_REPRESENTATION_CONTEXT(2) 
PARAMETRIC_REPRESENTATION_CONTEXT() REPRESENTATION_CONTEXT('2D SPACE',''
  ) );
#86 = ORIENTED_EDGE('',*,*,#87,.F.);
#87 = EDGE_CURVE('',#88,#42,#90,.T.);
#88 = VERTEX_POINT('',#89);
#89 = CARTESIAN_POINT('',(-36.,-35.,6.718550035012E-15));
#90 = SURFACE_CURVE('',#91,(#96,#103),.PCURVE_S1.);
#91 = CIRCLE('',#92,5.);
#92 = AXIS2_PLACEMENT_3D('',#93,#94,#95);
#93 = CARTESIAN_POINT('',(-31.,-35.,7.771561172376E-15));
#94 = DIRECTION('',(0.,-1.,2.22044604925E-16));
#95 = DIRECTION('',(1.,0.,0.));
#96 = PCURVE('',#51,#97);
#97 = DEFINITIONAL_REPRESENTATION('',(#98),#102);
#98 = LINE('',#99,#100);
#99 = CARTESIAN_POINT('',(0.,70.));
#100 = VECTOR('',#101,1.);
#101 = DIRECTION('',(1.,0.));
#102 = ( GEOMETRIC_REPRESENTATION_CONTEXT(2) 
PARAMETRIC_REPRESENTATION_CONTEXT() REPRESENTATION_CONTEXT('2D SPACE',''
  ) );
#103 = PCURVE('',#104,#109);
#104 = PLANE('',#105);
#105 = AXIS2_PLACEMENT_3D('',#106,#107,#108);
#106 = CARTESIAN_POINT('',(-31.,-35.,7.771561172376E-15));
#107 = DIRECTION('',(0.,-1.,2.22044604925E-16));
#108 = DIRECTION('',(1.,0.,0.));
#109 = DEFINITIONAL_REPRESENTATION('',(#110),#114);
#110 = CIRCLE('',#111,5.);
#111 = AXIS2_PLACEMENT_2D('',#112,#113);
#112 = CARTESIAN_POINT('',(0.,0.));
#113 = DIRECTION('',(1.,0.));
#114 = ( GEOMETRIC_REPRESENTATION_CONTEXT(2) 
PARAMETRIC_REPRESENTATION_CONTEXT() REPRESENTATION_CONTEXT('2D SPACE',''
  ) );
#115 = ORIENTED_EDGE('',*,*,#116,.F.);
#116 = EDGE_CURVE('',#40,#88,#117,.T.);
#117 = SURFACE_CURVE('',#118,(#123,#136),.PCURVE_S1.);
#118 = ELLIPSE('',#119,7.071067811865,5.);
#119 = AXIS2_PLACEMENT_3D('',#120,#121,#122);
#120 = CARTESIAN_POINT('',(-31.,-30.,0.));
#121 = DIRECTION('',(-0.707106781187,0.707106781187,-1.570092458684E-16)
  );
#122 = DIRECTION('',(-0.707106781187,-0.707106781187,1.570092458684E-16)
  );
#123 = PCURVE('',#51,#124);
#124 = DEFINITIONAL_REPRESENTATION('',(#125),#135);
#125 = B_SPLINE_CURVE_WITH_KNOTS('',8,(#126,#127,#128,#129,#130,#131,
    #132,#133,#134),.UNSPECIFIED.,.F.,.F.,(9,9),(4.712388980385,
    6.28318530718),.PIECEWISE_BEZIER_KNOTS.);
#126 = CARTESIAN_POINT('',(4.712388980385,65.));
#127 = CARTESIAN_POINT('',(4.516039439535,65.981747704247));
#128 = CARTESIAN_POINT('',(4.319689898683,66.963495641518));
#129 = CARTESIAN_POINT('',(4.123340357837,67.887566306221));
#130 = CARTESIAN_POINT('',(3.92699081697,68.696293752582));
#131 = CARTESIAN_POINT('',(3.730641276141,69.339090231893));
#132 = CARTESIAN_POINT('',(3.534291735285,69.779696120007));
#133 = CARTESIAN_POINT('',(3.337942194439,70.));
#134 = CARTESIAN_POINT('',(3.14159265359,70.));
#135 = ( GEOMETRIC_REPRESENTATION_CONTEXT(2) 
PARAMETRIC_REPRESENTATION_CONTEXT() REPRESENTATION_CONTEXT('2D SPACE',''
  ) );
#136 = PCURVE('',#137,#142);
#137 = CYLINDRICAL_SURFACE('',#138,5.);
#138 = AXIS2_PLACEMENT_3D('',#139,#140,#141);
#139 = CARTESIAN_POINT('',(-36.,-30.,0.));
#140 = DIRECTION('',(-1.,-0.,-0.));
#141 = DIRECTION('',(0.,1.,0.));
#142 = DEFINITIONAL_REPRESENTATION('',(#143),#153);
#143 = B_SPLINE_CURVE_WITH_KNOTS('',8,(#144,#145,#146,#147,#148,#149,
    #150,#151,#152),.UNSPECIFIED.,.F.,.F.,(9,9),(4.712388980385,
    6.28318530718),.PIECEWISE_BEZIER_KNOTS.);
#144 = CARTESIAN_POINT('',(-4.712388980385,-5.));
#145 = CARTESIAN_POINT('',(-4.516039439535,-4.018252295753));
#146 = CARTESIAN_POINT('',(-4.319689898685,-3.03650435841));
#147 = CARTESIAN_POINT('',(-4.123340357828,-2.112433693939));
#148 = CARTESIAN_POINT('',(-3.926990816984,-1.303706247116));
#149 = CARTESIAN_POINT('',(-3.730641276125,-0.660909768297));
#150 = CARTESIAN_POINT('',(-3.534291735289,-0.220303879932));
#151 = CARTESIAN_POINT('',(-3.337942194439,-2.404588367152E-16));
#152 = CARTESIAN_POINT('',(-3.14159265359,0.));
#153 = ( GEOMETRIC_REPRESENTATION_CONTEXT(2) 
PARAMETRIC_REPRESENTATION_CONTEXT() REPRESENTATION_CONTEXT('2D SPACE',''
  ) );
#154 = ADVANCED_FACE('',(#155),#69,.T.);
#155 = FACE_BOUND('',#156,.F.);
#156 = EDGE_LOOP('',(#157,#200,#223,#250,#251,#285,#286));
#157 = ORIENTED_EDGE('',*,*,#158,.T.);
#158 = EDGE_CURVE('',#159,#161,#163,.T.);
#159 = VERTEX_POINT('',#160);
#160 = CARTESIAN_POINT('',(-31.,-30.,5.));
#161 = VERTEX_POINT('',#162);
#162 = CARTESIAN_POINT('',(-26.,-25.,2.163234161989E-15));
#163 = SURFACE_CURVE('',#164,(#169,#182),.PCURVE_S1.);
#164 = ELLIPSE('',#165,7.071067811865,5.);
#165 = AXIS2_PLACEMENT_3D('',#166,#167,#168);
#166 = CARTESIAN_POINT('',(-31.,-30.,0.));
#167 = DIRECTION('',(-0.707106781187,0.707106781187,-1.570092458684E-16)
  );
#168 = DIRECTION('',(-0.707106781187,-0.707106781187,1.570092458684E-16)
  );
#169 = PCURVE('',#69,#170);
#170 = DEFINITIONAL_REPRESENTATION('',(#171),#181);
#171 = B_SPLINE_CURVE_WITH_KNOTS('',8,(#172,#173,#174,#175,#176,#177,
    #178,#179,#180),.UNSPECIFIED.,.F.,.F.,(9,9),(1.570796326795,
    3.14159265359),.PIECEWISE_BEZIER_KNOTS.);
#172 = CARTESIAN_POINT('',(-1.570796326795,-5.));
#173 = CARTESIAN_POINT('',(-1.374446785946,-5.981747704247));
#174 = CARTESIAN_POINT('',(-1.178097245095,-6.963495641597));
#175 = CARTESIAN_POINT('',(-0.981747704249,-7.88756630601));
#176 = CARTESIAN_POINT('',(-0.785398163396,-8.696293752939));
#177 = CARTESIAN_POINT('',(-0.589048622548,-9.339090231646));
#178 = CARTESIAN_POINT('',(-0.392699081698,-9.779696120075));
#179 = CARTESIAN_POINT('',(-0.196349540849,-10.));
#180 = CARTESIAN_POINT('',(-3.445092848398E-16,-10.));
#181 = ( GEOMETRIC_REPRESENTATION_CONTEXT(2) 
PARAMETRIC_REPRESENTATION_CONTEXT() REPRESENTATION_CONTEXT('2D SPACE',''
  ) );
#182 = PCURVE('',#183,#188);
#183 = CYLINDRICAL_SURFACE('',#184,5.);
#184 = AXIS2_PLACEMENT_3D('',#185,#186,#187);
#185 = CARTESIAN_POINT('',(-31.,35.,-7.771561172376E-15));
#186 = DIRECTION('',(0.,-1.,2.22044604925E-16));
#187 = DIRECTION('',(1.,0.,0.));
#188 = DEFINITIONAL_REPRESENTATION('',(#189),#199);
#189 = B_SPLINE_CURVE_WITH_KNOTS('',8,(#190,#191,#192,#193,#194,#195,
    #196,#197,#198),.UNSPECIFIED.,.F.,.F.,(9,9),(1.570796326795,
    3.14159265359),.PIECEWISE_BEZIER_KNOTS.);
#190 = CARTESIAN_POINT('',(1.570796326795,65.));
#191 = CARTESIAN_POINT('',(1.374446785946,64.018252295753));
#192 = CARTESIAN_POINT('',(1.178097245096,63.036504358388));
#193 = CARTESIAN_POINT('',(0.981747704246,62.112433694128));
#194 = CARTESIAN_POINT('',(0.785398163398,61.303706246836));
#195 = CARTESIAN_POINT('',(0.589048622546,60.660909768398));
#196 = CARTESIAN_POINT('',(0.392699081699,60.220303879891));
#197 = CARTESIAN_POINT('',(0.196349540849,60.));
#198 = CARTESIAN_POINT('',(-8.881784197001E-16,60.));
#199 = ( GEOMETRIC_REPRESENTATION_CONTEXT(2) 
PARAMETRIC_REPRESENTATION_CONTEXT() REPRESENTATION_CONTEXT('2D SPACE',''
  ) );
#200 = ORIENTED_EDGE('',*,*,#201,.T.);
#201 = EDGE_CURVE('',#161,#202,#204,.T.);
#202 = VERTEX_POINT('',#203);
#203 = CARTESIAN_POINT('',(-10.,-25.,0.));
#204 = SEAM_CURVE('',#205,(#209,#216),.PCURVE_S1.);
#205 = LINE('',#206,#207);
#206 = CARTESIAN_POINT('',(-36.,-25.,0.));
#207 = VECTOR('',#208,1.);
#208 = DIRECTION('',(1.,0.,0.));
#209 = PCURVE('',#69,#210);
#210 = DEFINITIONAL_REPRESENTATION('',(#211),#215);
#211 = LINE('',#212,#213);
#212 = CARTESIAN_POINT('',(-6.28318530718,0.));
#213 = VECTOR('',#214,1.);
#214 = DIRECTION('',(-0.,-1.));
#215 = ( GEOMETRIC_REPRESENTATION_CONTEXT(2) 
PARAMETRIC_REPRESENTATION_CONTEXT() REPRESENTATION_CONTEXT('2D SPACE',''
  ) );
#216 = PCURVE('',#69,#217);
#217 = DEFINITIONAL_REPRESENTATION('',(#218),#222);
#218 = LINE('',#219,#220);
#219 = CARTESIAN_POINT('',(-0.,0.));
#220 = VECTOR('',#221,1.);
#221 = DIRECTION('',(-0.,-1.));
#222 = ( GEOMETRIC_REPRESENTATION_CONTEXT(2) 
PARAMETRIC_REPRESENTATION_CONTEXT() REPRESENTATION_CONTEXT('2D SPACE',''
  ) );
#223 = ORIENTED_EDGE('',*,*,#224,.T.);
#224 = EDGE_CURVE('',#202,#202,#225,.T.);
#225 = SURFACE_CURVE('',#226,(#231,#238),.PCURVE_S1.);
#226 = CIRCLE('',#227,5.);
#227 = AXIS2_PLACEMENT_3D('',#228,#229,#230);
#228 = CARTESIAN_POINT('',(-10.,-30.,0.));
#229 = DIRECTION('',(1.,0.,0.));
#230 = DIRECTION('',(0.,1.,0.));
#231 = PCURVE('',#69,#232);
#232 = DEFINITIONAL_REPRESENTATION('',(#233),#237);
#233 = LINE('',#234,#235);
#234 = CARTESIAN_POINT('',(-0.,-26.));
#235 = VECTOR('',#236,1.);
#236 = DIRECTION('',(-1.,0.));
#237 = ( GEOMETRIC_REPRESENTATION_CONTEXT(2) 
PARAMETRIC_REPRESENTATION_CONTEXT() REPRESENTATION_CONTEXT('2D SPACE',''
  ) );
#238 = PCURVE('',#239,#244);
#239 = PLANE('',#240);
#240 = AXIS2_PLACEMENT_3D('',#241,#242,#243);
#241 = CARTESIAN_POINT('',(-10.,-30.,3.428682531579E-16));
#242 = DIRECTION('',(1.,0.,0.));
#243 = DIRECTION('',(0.,1.,0.));
#244 = DEFINITIONAL_REPRESENTATION('',(#245),#249);
#245 = CIRCLE('',#246,5.);
#246 = AXIS2_PLACEMENT_2D('',#247,#248);
#247 = CARTESIAN_POINT('',(2.734880265079E-16,-3.428682531579E-16));
#248 = DIRECTION('',(1.,0.));
#249 = ( GEOMETRIC_REPRESENTATION_CONTEXT(2) 
PARAMETRIC_REPRESENTATION_CONTEXT() REPRESENTATION_CONTEXT('2D SPACE',''
  ) );
#250 = ORIENTED_EDGE('',*,*,#201,.F.);
#251 = ORIENTED_EDGE('',*,*,#252,.T.);
#252 = EDGE_CURVE('',#161,#40,#253,.T.);
#253 = SURFACE_CURVE('',#254,(#259,#272),.PCURVE_S1.);
#254 = ELLIPSE('',#255,7.071067811865,5.);
#255 = AXIS2_PLACEMENT_3D('',#256,#257,#258);
#256 = CARTESIAN_POINT('',(-31.,-30.,0.));
#257 = DIRECTION('',(-0.707106781187,0.707106781187,-1.570092458684E-16)
  );
#258 = DIRECTION('',(-0.707106781187,-0.707106781187,1.570092458684E-16)
  );
#259 = PCURVE('',#69,#260);
#260 = DEFINITIONAL_REPRESENTATION('',(#261),#271);
#261 = B_SPLINE_CURVE_WITH_KNOTS('',8,(#262,#263,#264,#265,#266,#267,
    #268,#269,#270),.UNSPECIFIED.,.F.,.F.,(9,9),(3.14159265359,
    4.712388980385),.PIECEWISE_BEZIER_KNOTS.);
#262 = CARTESIAN_POINT('',(-6.28318530718,-10.));
#263 = CARTESIAN_POINT('',(-6.08683576633,-10.));
#264 = CARTESIAN_POINT('',(-5.89048622548,-9.779696120066));
#265 = CARTESIAN_POINT('',(-5.694136684635,-9.339090231693));
#266 = CARTESIAN_POINT('',(-5.497787143776,-8.696293752851));
#267 = CARTESIAN_POINT('',(-5.301437602937,-7.887566306064));
#268 = CARTESIAN_POINT('',(-5.105088062083,-6.963495641585));
#269 = CARTESIAN_POINT('',(-4.908738521234,-5.981747704247));
#270 = CARTESIAN_POINT('',(-4.712388980385,-5.));
#271 = ( GEOMETRIC_REPRESENTATION_CONTEXT(2) 
PARAMETRIC_REPRESENTATION_CONTEXT() REPRESENTATION_CONTEXT('2D SPACE',''
  ) );
#272 = PCURVE('',#183,#273);
#273 = DEFINITIONAL_REPRESENTATION('',(#274),#284);
#274 = B_SPLINE_CURVE_WITH_KNOTS('',8,(#275,#276,#277,#278,#279,#280,
    #281,#282,#283),.UNSPECIFIED.,.F.,.F.,(9,9),(3.14159265359,
    4.712388980385),.PIECEWISE_BEZIER_KNOTS.);
#275 = CARTESIAN_POINT('',(6.28318530718,60.));
#276 = CARTESIAN_POINT('',(6.08683576633,60.));
#277 = CARTESIAN_POINT('',(5.89048622547,60.22030387992));
#278 = CARTESIAN_POINT('',(5.694136684659,60.660909768514));
#279 = CARTESIAN_POINT('',(5.497787143711,61.303706246894));
#280 = CARTESIAN_POINT('',(5.301437602961,62.112433694128));
#281 = CARTESIAN_POINT('',(5.105088062073,63.036504358432));
#282 = CARTESIAN_POINT('',(4.908738521234,64.018252295753));
#283 = CARTESIAN_POINT('',(4.712388980385,65.));
#284 = ( GEOMETRIC_REPRESENTATION_CONTEXT(2) 
PARAMETRIC_REPRESENTATION_CONTEXT() REPRESENTATION_CONTEXT('2D SPACE',''
  ) );
#285 = ORIENTED_EDGE('',*,*,#39,.T.);
#286 = ORIENTED_EDGE('',*,*,#287,.T.);
#287 = EDGE_CURVE('',#42,#159,#288,.T.);
#288 = SURFACE_CURVE('',#289,(#294,#307),.PCURVE_S1.);
#289 = ELLIPSE('',#290,7.071067811865,5.);
#290 = AXIS2_PLACEMENT_3D('',#291,#292,#293);
#291 = CARTESIAN_POINT('',(-31.,-30.,0.));
#292 = DIRECTION('',(-0.707106781187,-0.707106781187,1.570092458684E-16)
  );
#293 = DIRECTION('',(-0.707106781187,0.707106781187,-1.570092458684E-16)
  );
#294 = PCURVE('',#69,#295);
#295 = DEFINITIONAL_REPRESENTATION('',(#296),#306);
#296 = B_SPLINE_CURVE_WITH_KNOTS('',8,(#297,#298,#299,#300,#301,#302,
    #303,#304,#305),.UNSPECIFIED.,.F.,.F.,(9,9),(3.14159265359,
    4.712388980385),.PIECEWISE_BEZIER_KNOTS.);
#297 = CARTESIAN_POINT('',(-3.14159265359,-10.));
#298 = CARTESIAN_POINT('',(-2.94524311274,-10.));
#299 = CARTESIAN_POINT('',(-2.748893571893,-9.779696120073));
#300 = CARTESIAN_POINT('',(-2.552544031037,-9.339090231693));
#301 = CARTESIAN_POINT('',(-2.356194490198,-8.696293752881));
#302 = CARTESIAN_POINT('',(-2.159844949335,-7.887566306035));
#303 = CARTESIAN_POINT('',(-1.963495408494,-6.963495641588));
#304 = CARTESIAN_POINT('',(-1.767145867644,-5.981747704247));
#305 = CARTESIAN_POINT('',(-1.570796326795,-5.));
#306 = ( GEOMETRIC_REPRESENTATION_CONTEXT(2) 
PARAMETRIC_REPRESENTATION_CONTEXT() REPRESENTATION_CONTEXT('2D SPACE',''
  ) );
#307 = PCURVE('',#308,#313);
#308 = CYLINDRICAL_SURFACE('',#309,5.);
#309 = AXIS2_PLACEMENT_3D('',#310,#311,#312);
#310 = CARTESIAN_POINT('',(-31.,35.,-7.771561172376E-15));
#311 = DIRECTION('',(0.,-1.,2.22044604925E-16));
#312 = DIRECTION('',(1.,0.,0.));
#313 = DEFINITIONAL_REPRESENTATION('',(#314),#324);
#314 = B_SPLINE_CURVE_WITH_KNOTS('',8,(#315,#316,#317,#318,#319,#320,
    #321,#322,#323),.UNSPECIFIED.,.F.,.F.,(9,9),(3.14159265359,
    4.712388980385),.PIECEWISE_BEZIER_KNOTS.);
#315 = CARTESIAN_POINT('',(-8.881784197001E-16,70.));
#316 = CARTESIAN_POINT('',(0.196349540849,70.));
#317 = CARTESIAN_POINT('',(0.392699081698,69.779696120124));
#318 = CARTESIAN_POINT('',(0.589048622549,69.339090231282));
#319 = CARTESIAN_POINT('',(0.785398163397,68.696293753223));
#320 = CARTESIAN_POINT('',(0.981747704248,67.887566305581));
#321 = CARTESIAN_POINT('',(1.178097245096,66.963495641699));
#322 = CARTESIAN_POINT('',(1.374446785946,65.981747704247));
#323 = CARTESIAN_POINT('',(1.570796326795,65.));
#324 = ( GEOMETRIC_REPRESENTATION_CONTEXT(2) 
PARAMETRIC_REPRESENTATION_CONTEXT() REPRESENTATION_CONTEXT('2D SPACE',''
  ) );
#325 = ADVANCED_FACE('',(#326),#137,.T.);
#326 = FACE_BOUND('',#327,.F.);
#327 = EDGE_LOOP('',(#328,#364,#391));
#328 = ORIENTED_EDGE('',*,*,#329,.F.);
#329 = EDGE_CURVE('',#330,#40,#332,.T.);
#330 = VERTEX_POINT('',#331);
#331 = CARTESIAN_POINT('',(-36.,-25.,0.));
#332 = SURFACE_CURVE('',#333,(#338,#351),.PCURVE_S1.);
#333 = ELLIPSE('',#334,7.071067811865,5.);
#334 = AXIS2_PLACEMENT_3D('',#335,#336,#337);
#335 = CARTESIAN_POINT('',(-31.,-30.,0.));
#336 = DIRECTION('',(-0.707106781187,-0.707106781187,1.570092458684E-16)
  );
#337 = DIRECTION('',(-0.707106781187,0.707106781187,-1.570092458684E-16)
  );
#338 = PCURVE('',#137,#339);
#339 = DEFINITIONAL_REPRESENTATION('',(#340),#350);
#340 = B_SPLINE_CURVE_WITH_KNOTS('',8,(#341,#342,#343,#344,#345,#346,
    #347,#348,#349),.UNSPECIFIED.,.F.,.F.,(9,9),(0.,1.570796326795),
  .PIECEWISE_BEZIER_KNOTS.);
#341 = CARTESIAN_POINT('',(-6.28318530718,0.));
#342 = CARTESIAN_POINT('',(-6.08683576633,0.));
#343 = CARTESIAN_POINT('',(-5.890486225479,-0.220303879931));
#344 = CARTESIAN_POINT('',(-5.694136684611,-0.660909768304));
#345 = CARTESIAN_POINT('',(-5.497787143773,-1.303706247107));
#346 = CARTESIAN_POINT('',(-5.301437602913,-2.112433693946));
#347 = CARTESIAN_POINT('',(-5.105088062085,-3.036504358408));
#348 = CARTESIAN_POINT('',(-4.908738521234,-4.018252295753));
#349 = CARTESIAN_POINT('',(-4.712388980385,-5.));
#350 = ( GEOMETRIC_REPRESENTATION_CONTEXT(2) 
PARAMETRIC_REPRESENTATION_CONTEXT() REPRESENTATION_CONTEXT('2D SPACE',''
  ) );
#351 = PCURVE('',#183,#352);
#352 = DEFINITIONAL_REPRESENTATION('',(#353),#363);
#353 = B_SPLINE_CURVE_WITH_KNOTS('',8,(#354,#355,#356,#357,#358,#359,
    #360,#361,#362),.UNSPECIFIED.,.F.,.F.,(9,9),(0.,1.570796326795),
  .PIECEWISE_BEZIER_KNOTS.);
#354 = CARTESIAN_POINT('',(3.14159265359,60.));
#355 = CARTESIAN_POINT('',(3.337942194439,60.));
#356 = CARTESIAN_POINT('',(3.534291735284,60.22030387992));
#357 = CARTESIAN_POINT('',(3.730641276146,60.660909768514));
#358 = CARTESIAN_POINT('',(3.926990816977,61.303706246894));
#359 = CARTESIAN_POINT('',(4.12334035785,62.112433694012));
#360 = CARTESIAN_POINT('',(4.31968989868,63.036504358432));
#361 = CARTESIAN_POINT('',(4.516039439535,64.018252295753));
#362 = CARTESIAN_POINT('',(4.712388980385,65.));
#363 = ( GEOMETRIC_REPRESENTATION_CONTEXT(2) 
PARAMETRIC_REPRESENTATION_CONTEXT() REPRESENTATION_CONTEXT('2D SPACE',''
  ) );
#364 = ORIENTED_EDGE('',*,*,#365,.F.);
#365 = EDGE_CURVE('',#88,#330,#366,.T.);
#366 = SURFACE_CURVE('',#367,(#372,#379),.PCURVE_S1.);
#367 = CIRCLE('',#368,5.);
#368 = AXIS2_PLACEMENT_3D('',#369,#370,#371);
#369 = CARTESIAN_POINT('',(-36.,-30.,0.));
#370 = DIRECTION('',(1.,0.,0.));
#371 = DIRECTION('',(0.,1.,0.));
#372 = PCURVE('',#137,#373);
#373 = DEFINITIONAL_REPRESENTATION('',(#374),#378);
#374 = LINE('',#375,#376);
#375 = CARTESIAN_POINT('',(-0.,0.));
#376 = VECTOR('',#377,1.);
#377 = DIRECTION('',(-1.,0.));
#378 = ( GEOMETRIC_REPRESENTATION_CONTEXT(2) 
PARAMETRIC_REPRESENTATION_CONTEXT() REPRESENTATION_CONTEXT('2D SPACE',''
  ) );
#379 = PCURVE('',#380,#385);
#380 = PLANE('',#381);
#381 = AXIS2_PLACEMENT_3D('',#382,#383,#384);
#382 = CARTESIAN_POINT('',(-36.,-30.,3.428682531579E-16));
#383 = DIRECTION('',(1.,0.,0.));
#384 = DIRECTION('',(-0.,1.,0.));
#385 = DEFINITIONAL_REPRESENTATION('',(#386),#390);
#386 = CIRCLE('',#387,5.);
#387 = AXIS2_PLACEMENT_2D('',#388,#389);
#388 = CARTESIAN_POINT('',(0.,-3.428682531579E-16));
#389 = DIRECTION('',(1.,0.));
#390 = ( GEOMETRIC_REPRESENTATION_CONTEXT(2) 
PARAMETRIC_REPRESENTATION_CONTEXT() REPRESENTATION_CONTEXT('2D SPACE',''
  ) );
#391 = ORIENTED_EDGE('',*,*,#116,.F.);
#392 = ADVANCED_FACE('',(#393),#104,.T.);
#393 = FACE_BOUND('',#394,.T.);
#394 = EDGE_LOOP('',(#395,#396));
#395 = ORIENTED_EDGE('',*,*,#87,.T.);
#396 = ORIENTED_EDGE('',*,*,#397,.T.);
#397 = EDGE_CURVE('',#42,#88,#398,.T.);
#398 = SURFACE_CURVE('',#399,(#404,#411),.PCURVE_S1.);
#399 = CIRCLE('',#400,5.);
#400 = AXIS2_PLACEMENT_3D('',#401,#402,#403);
#401 = CARTESIAN_POINT('',(-31.,-35.,7.771561172376E-15));
#402 = DIRECTION('',(0.,-1.,2.22044604925E-16));
#403 = DIRECTION('',(1.,0.,0.));
#404 = PCURVE('',#104,#405);
#405 = DEFINITIONAL_REPRESENTATION('',(#406),#410);
#406 = CIRCLE('',#407,5.);
#407 = AXIS2_PLACEMENT_2D('',#408,#409);
#408 = CARTESIAN_POINT('',(0.,0.));
#409 = DIRECTION('',(1.,0.));
#410 = ( GEOMETRIC_REPRESENTATION_CONTEXT(2) 
PARAMETRIC_REPRESENTATION_CONTEXT() REPRESENTATION_CONTEXT('2D SPACE',''
  ) );
#411 = PCURVE('',#308,#412);
#412 = DEFINITIONAL_REPRESENTATION('',(#413),#417);
#413 = LINE('',#414,#415);
#414 = CARTESIAN_POINT('',(0.,70.));
#415 = VECTOR('',#416,1.);
#416 = DIRECTION('',(1.,0.));
#417 = ( GEOMETRIC_REPRESENTATION_CONTEXT(2) 
PARAMETRIC_REPRESENTATION_CONTEXT() REPRESENTATION_CONTEXT('2D SPACE',''
  ) );
#418 = ADVANCED_FACE('',(#419),#183,.T.);
#419 = FACE_BOUND('',#420,.T.);
#420 = EDGE_LOOP('',(#421,#422,#445,#486,#527,#568,#602,#603,#604,#605)
  );
#421 = ORIENTED_EDGE('',*,*,#158,.T.);
#422 = ORIENTED_EDGE('',*,*,#423,.F.);
#423 = EDGE_CURVE('',#424,#161,#426,.T.);
#424 = VERTEX_POINT('',#425);
#425 = CARTESIAN_POINT('',(-26.,25.,-6.775761922273E-15));
#426 = SEAM_CURVE('',#427,(#431,#438),.PCURVE_S1.);
#427 = LINE('',#428,#429);
#428 = CARTESIAN_POINT('',(-26.,35.,-8.996207971523E-15));
#429 = VECTOR('',#430,1.);
#430 = DIRECTION('',(0.,-1.,2.22044604925E-16));
#431 = PCURVE('',#183,#432);
#432 = DEFINITIONAL_REPRESENTATION('',(#433),#437);
#433 = LINE('',#434,#435);
#434 = CARTESIAN_POINT('',(6.28318530718,-0.));
#435 = VECTOR('',#436,1.);
#436 = DIRECTION('',(0.,1.));
#437 = ( GEOMETRIC_REPRESENTATION_CONTEXT(2) 
PARAMETRIC_REPRESENTATION_CONTEXT() REPRESENTATION_CONTEXT('2D SPACE',''
  ) );
#438 = PCURVE('',#183,#439);
#439 = DEFINITIONAL_REPRESENTATION('',(#440),#444);
#440 = LINE('',#441,#442);
#441 = CARTESIAN_POINT('',(0.,-0.));
#442 = VECTOR('',#443,1.);
#443 = DIRECTION('',(0.,1.));
#444 = ( GEOMETRIC_REPRESENTATION_CONTEXT(2) 
PARAMETRIC_REPRESENTATION_CONTEXT() REPRESENTATION_CONTEXT('2D SPACE',''
  ) );
#445 = ORIENTED_EDGE('',*,*,#446,.T.);
#446 = EDGE_CURVE('',#424,#447,#449,.T.);
#447 = VERTEX_POINT('',#448);
#448 = CARTESIAN_POINT('',(-31.,30.,5.));
#449 = SURFACE_CURVE('',#450,(#455,#468),.PCURVE_S1.);
#450 = ELLIPSE('',#451,7.071067811865,5.);
#451 = AXIS2_PLACEMENT_3D('',#452,#453,#454);
#452 = CARTESIAN_POINT('',(-31.,30.,0.));
#453 = DIRECTION('',(-0.707106781187,-0.707106781187,1.570092458684E-16)
  );
#454 = DIRECTION('',(-0.707106781187,0.707106781187,-1.570092458684E-16)
  );
#455 = PCURVE('',#183,#456);
#456 = DEFINITIONAL_REPRESENTATION('',(#457),#467);
#457 = B_SPLINE_CURVE_WITH_KNOTS('',8,(#458,#459,#460,#461,#462,#463,
    #464,#465,#466),.UNSPECIFIED.,.F.,.F.,(9,9),(3.14159265359,
    4.712388980385),.PIECEWISE_BEZIER_KNOTS.);
#458 = CARTESIAN_POINT('',(-8.881784197001E-16,10.));
#459 = CARTESIAN_POINT('',(0.196349540849,10.));
#460 = CARTESIAN_POINT('',(0.392699081698,9.779696120083));
#461 = CARTESIAN_POINT('',(0.58904862255,9.339090231671));
#462 = CARTESIAN_POINT('',(0.785398163393,8.696293752946));
#463 = CARTESIAN_POINT('',(0.981747704247,7.88756630601));
#464 = CARTESIAN_POINT('',(1.178097245095,6.963495641602));
#465 = CARTESIAN_POINT('',(1.374446785946,5.981747704247));
#466 = CARTESIAN_POINT('',(1.570796326795,5.));
#467 = ( GEOMETRIC_REPRESENTATION_CONTEXT(2) 
PARAMETRIC_REPRESENTATION_CONTEXT() REPRESENTATION_CONTEXT('2D SPACE',''
  ) );
#468 = PCURVE('',#469,#474);
#469 = CYLINDRICAL_SURFACE('',#470,5.);
#470 = AXIS2_PLACEMENT_3D('',#471,#472,#473);
#471 = CARTESIAN_POINT('',(-36.,30.,0.));
#472 = DIRECTION('',(-1.,-0.,-0.));
#473 = DIRECTION('',(0.,1.,0.));
#474 = DEFINITIONAL_REPRESENTATION('',(#475),#485);
#475 = B_SPLINE_CURVE_WITH_KNOTS('',8,(#476,#477,#478,#479,#480,#481,
    #482,#483,#484),.UNSPECIFIED.,.F.,.F.,(9,9),(3.14159265359,
    4.712388980385),.PIECEWISE_BEZIER_KNOTS.);
#476 = CARTESIAN_POINT('',(-3.14159265359,-10.));
#477 = CARTESIAN_POINT('',(-2.94524311274,-10.));
#478 = CARTESIAN_POINT('',(-2.748893571891,-9.779696120079));
#479 = CARTESIAN_POINT('',(-2.552544031036,-9.339090231624));
#480 = CARTESIAN_POINT('',(-2.356194490196,-8.696293752953));
#481 = CARTESIAN_POINT('',(-2.15984494934,-7.887566305992));
#482 = CARTESIAN_POINT('',(-1.963495408494,-6.963495641603));
#483 = CARTESIAN_POINT('',(-1.767145867644,-5.981747704247));
#484 = CARTESIAN_POINT('',(-1.570796326795,-5.));
#485 = ( GEOMETRIC_REPRESENTATION_CONTEXT(2) 
PARAMETRIC_REPRESENTATION_CONTEXT() REPRESENTATION_CONTEXT('2D SPACE',''
  ) );
#486 = ORIENTED_EDGE('',*,*,#487,.F.);
#487 = EDGE_CURVE('',#488,#447,#490,.T.);
#488 = VERTEX_POINT('',#489);
#489 = CARTESIAN_POINT('',(-36.,25.,-3.828568698927E-15));
#490 = SURFACE_CURVE('',#491,(#496,#509),.PCURVE_S1.);
#491 = ELLIPSE('',#492,7.071067811865,5.);
#492 = AXIS2_PLACEMENT_3D('',#493,#494,#495);
#493 = CARTESIAN_POINT('',(-31.,30.,0.));
#494 = DIRECTION('',(-0.707106781187,0.707106781187,-1.570092458684E-16)
  );
#495 = DIRECTION('',(-0.707106781187,-0.707106781187,1.570092458684E-16)
  );
#496 = PCURVE('',#183,#497);
#497 = DEFINITIONAL_REPRESENTATION('',(#498),#508);
#498 = B_SPLINE_CURVE_WITH_KNOTS('',8,(#499,#500,#501,#502,#503,#504,
    #505,#506,#507),.UNSPECIFIED.,.F.,.F.,(9,9),(0.,1.570796326795),
  .PIECEWISE_BEZIER_KNOTS.);
#499 = CARTESIAN_POINT('',(3.14159265359,10.));
#500 = CARTESIAN_POINT('',(2.94524311274,10.));
#501 = CARTESIAN_POINT('',(2.74889357189,9.779696120072));
#502 = CARTESIAN_POINT('',(2.552544031044,9.339090231701));
#503 = CARTESIAN_POINT('',(2.356194490183,8.696293752866));
#504 = CARTESIAN_POINT('',(2.159844949342,7.887566306039));
#505 = CARTESIAN_POINT('',(1.963495408492,6.963495641587));
#506 = CARTESIAN_POINT('',(1.767145867644,5.981747704247));
#507 = CARTESIAN_POINT('',(1.570796326795,5.));
#508 = ( GEOMETRIC_REPRESENTATION_CONTEXT(2) 
PARAMETRIC_REPRESENTATION_CONTEXT() REPRESENTATION_CONTEXT('2D SPACE',''
  ) );
#509 = PCURVE('',#510,#515);
#510 = CYLINDRICAL_SURFACE('',#511,5.);
#511 = AXIS2_PLACEMENT_3D('',#512,#513,#514);
#512 = CARTESIAN_POINT('',(-36.,30.,0.));
#513 = DIRECTION('',(-1.,-0.,-0.));
#514 = DIRECTION('',(0.,1.,0.));
#515 = DEFINITIONAL_REPRESENTATION('',(#516),#526);
#516 = B_SPLINE_CURVE_WITH_KNOTS('',8,(#517,#518,#519,#520,#521,#522,
    #523,#524,#525),.UNSPECIFIED.,.F.,.F.,(9,9),(0.,1.570796326795),
  .PIECEWISE_BEZIER_KNOTS.);
#517 = CARTESIAN_POINT('',(-3.14159265359,0.));
#518 = CARTESIAN_POINT('',(-2.94524311274,0.));
#519 = CARTESIAN_POINT('',(-2.748893571891,-0.220303879931));
#520 = CARTESIAN_POINT('',(-2.552544031033,-0.660909768304));
#521 = CARTESIAN_POINT('',(-2.35619449019,-1.303706247107));
#522 = CARTESIAN_POINT('',(-2.159844949339,-2.112433693946));
#523 = CARTESIAN_POINT('',(-1.963495408493,-3.036504358408));
#524 = CARTESIAN_POINT('',(-1.767145867644,-4.018252295753));
#525 = CARTESIAN_POINT('',(-1.570796326795,-5.));
#526 = ( GEOMETRIC_REPRESENTATION_CONTEXT(2) 
PARAMETRIC_REPRESENTATION_CONTEXT() REPRESENTATION_CONTEXT('2D SPACE',''
  ) );
#527 = ORIENTED_EDGE('',*,*,#528,.F.);
#528 = EDGE_CURVE('',#529,#488,#531,.T.);
#529 = VERTEX_POINT('',#530);
#530 = CARTESIAN_POINT('',(-31.,30.,-5.));
#531 = SURFACE_CURVE('',#532,(#537,#550),.PCURVE_S1.);
#532 = ELLIPSE('',#533,7.071067811865,5.);
#533 = AXIS2_PLACEMENT_3D('',#534,#535,#536);
#534 = CARTESIAN_POINT('',(-31.,30.,0.));
#535 = DIRECTION('',(-0.707106781187,0.707106781187,-1.570092458684E-16)
  );
#536 = DIRECTION('',(-0.707106781187,-0.707106781187,1.570092458684E-16)
  );
#537 = PCURVE('',#183,#538);
#538 = DEFINITIONAL_REPRESENTATION('',(#539),#549);
#539 = B_SPLINE_CURVE_WITH_KNOTS('',8,(#540,#541,#542,#543,#544,#545,
    #546,#547,#548),.UNSPECIFIED.,.F.,.F.,(9,9),(4.712388980385,
    6.28318530718),.PIECEWISE_BEZIER_KNOTS.);
#540 = CARTESIAN_POINT('',(4.712388980385,5.));
#541 = CARTESIAN_POINT('',(4.516039439535,5.981747704247));
#542 = CARTESIAN_POINT('',(4.319689898681,6.963495641601));
#543 = CARTESIAN_POINT('',(4.123340357843,7.887566305988));
#544 = CARTESIAN_POINT('',(3.926990816955,8.696293752982));
#545 = CARTESIAN_POINT('',(3.730641276141,9.339090231639));
#546 = CARTESIAN_POINT('',(3.534291735285,9.779696120077));
#547 = CARTESIAN_POINT('',(3.337942194439,10.));
#548 = CARTESIAN_POINT('',(3.14159265359,10.));
#549 = ( GEOMETRIC_REPRESENTATION_CONTEXT(2) 
PARAMETRIC_REPRESENTATION_CONTEXT() REPRESENTATION_CONTEXT('2D SPACE',''
  ) );
#550 = PCURVE('',#551,#556);
#551 = CYLINDRICAL_SURFACE('',#552,5.);
#552 = AXIS2_PLACEMENT_3D('',#553,#554,#555);
#553 = CARTESIAN_POINT('',(-36.,30.,0.));
#554 = DIRECTION('',(-1.,-0.,-0.));
#555 = DIRECTION('',(0.,1.,0.));
#556 = DEFINITIONAL_REPRESENTATION('',(#557),#567);
#557 = B_SPLINE_CURVE_WITH_KNOTS('',8,(#558,#559,#560,#561,#562,#563,
    #564,#565,#566),.UNSPECIFIED.,.F.,.F.,(9,9),(4.712388980385,
    6.28318530718),.PIECEWISE_BEZIER_KNOTS.);
#558 = CARTESIAN_POINT('',(-4.712388980385,-5.));
#559 = CARTESIAN_POINT('',(-4.516039439535,-4.018252295753));
#560 = CARTESIAN_POINT('',(-4.319689898685,-3.03650435841));
#561 = CARTESIAN_POINT('',(-4.123340357828,-2.112433693939));
#562 = CARTESIAN_POINT('',(-3.926990816984,-1.303706247116));
#563 = CARTESIAN_POINT('',(-3.730641276125,-0.660909768297));
#564 = CARTESIAN_POINT('',(-3.534291735289,-0.220303879932));
#565 = CARTESIAN_POINT('',(-3.337942194439,-2.404588367152E-16));
#566 = CARTESIAN_POINT('',(-3.14159265359,0.));
#567 = ( GEOMETRIC_REPRESENTATION_CONTEXT(2) 
PARAMETRIC_REPRESENTATION_CONTEXT() REPRESENTATION_CONTEXT('2D SPACE',''
  ) );
#568 = ORIENTED_EDGE('',*,*,#569,.T.);
#569 = EDGE_CURVE('',#529,#424,#570,.T.);
#570 = SURFACE_CURVE('',#571,(#576,#589),.PCURVE_S1.);
#571 = ELLIPSE('',#572,7.071067811865,5.);
#572 = AXIS2_PLACEMENT_3D('',#573,#574,#575);
#573 = CARTESIAN_POINT('',(-31.,30.,0.));
#574 = DIRECTION('',(-0.707106781187,-0.707106781187,1.570092458684E-16)
  );
#575 = DIRECTION('',(-0.707106781187,0.707106781187,-1.570092458684E-16)
  );
#576 = PCURVE('',#183,#577);
#577 = DEFINITIONAL_REPRESENTATION('',(#578),#588);
#578 = B_SPLINE_CURVE_WITH_KNOTS('',8,(#579,#580,#581,#582,#583,#584,
    #585,#586,#587),.UNSPECIFIED.,.F.,.F.,(9,9),(1.570796326795,
    3.14159265359),.PIECEWISE_BEZIER_KNOTS.);
#579 = CARTESIAN_POINT('',(4.712388980385,5.));
#580 = CARTESIAN_POINT('',(4.908738521234,5.981747704247));
#581 = CARTESIAN_POINT('',(5.105088062086,6.963495641593));
#582 = CARTESIAN_POINT('',(5.301437602906,7.88756630601));
#583 = CARTESIAN_POINT('',(5.497787143791,8.696293752924));
#584 = CARTESIAN_POINT('',(5.6941366846,9.339090231646));
#585 = CARTESIAN_POINT('',(5.890486225479,9.779696120075));
#586 = CARTESIAN_POINT('',(6.08683576633,10.));
#587 = CARTESIAN_POINT('',(6.28318530718,10.));
#588 = ( GEOMETRIC_REPRESENTATION_CONTEXT(2) 
PARAMETRIC_REPRESENTATION_CONTEXT() REPRESENTATION_CONTEXT('2D SPACE',''
  ) );
#589 = PCURVE('',#469,#590);
#590 = DEFINITIONAL_REPRESENTATION('',(#591),#601);
#591 = B_SPLINE_CURVE_WITH_KNOTS('',8,(#592,#593,#594,#595,#596,#597,
    #598,#599,#600),.UNSPECIFIED.,.F.,.F.,(9,9),(1.570796326795,
    3.14159265359),.PIECEWISE_BEZIER_KNOTS.);
#592 = CARTESIAN_POINT('',(-4.712388980385,-5.));
#593 = CARTESIAN_POINT('',(-4.516039439535,-5.981747704247));
#594 = CARTESIAN_POINT('',(-4.319689898682,-6.963495641591));
#595 = CARTESIAN_POINT('',(-4.123340357841,-7.887566306043));
#596 = CARTESIAN_POINT('',(-3.926990816974,-8.696293752888));
#597 = CARTESIAN_POINT('',(-3.730641276137,-9.339090231668));
#598 = CARTESIAN_POINT('',(-3.534291735286,-9.779696120066));
#599 = CARTESIAN_POINT('',(-3.337942194439,-10.));
#600 = CARTESIAN_POINT('',(-3.14159265359,-10.));
#601 = ( GEOMETRIC_REPRESENTATION_CONTEXT(2) 
PARAMETRIC_REPRESENTATION_CONTEXT() REPRESENTATION_CONTEXT('2D SPACE',''
  ) );
#602 = ORIENTED_EDGE('',*,*,#423,.T.);
#603 = ORIENTED_EDGE('',*,*,#252,.T.);
#604 = ORIENTED_EDGE('',*,*,#329,.F.);
#605 = ORIENTED_EDGE('',*,*,#606,.F.);
#606 = EDGE_CURVE('',#159,#330,#607,.T.);
#607 = SURFACE_CURVE('',#608,(#613,#626),.PCURVE_S1.);
#608 = ELLIPSE('',#609,7.071067811865,5.);
#609 = AXIS2_PLACEMENT_3D('',#610,#611,#612);
#610 = CARTESIAN_POINT('',(-31.,-30.,0.));
#611 = DIRECTION('',(-0.707106781187,-0.707106781187,1.570092458684E-16)
  );
#612 = DIRECTION('',(-0.707106781187,0.707106781187,-1.570092458684E-16)
  );
#613 = PCURVE('',#183,#614);
#614 = DEFINITIONAL_REPRESENTATION('',(#615),#625);
#615 = B_SPLINE_CURVE_WITH_KNOTS('',8,(#616,#617,#618,#619,#620,#621,
    #622,#623,#624),.UNSPECIFIED.,.F.,.F.,(9,9),(4.712388980385,
    6.28318530718),.PIECEWISE_BEZIER_KNOTS.);
#616 = CARTESIAN_POINT('',(1.570796326795,65.));
#617 = CARTESIAN_POINT('',(1.767145867644,64.018252295753));
#618 = CARTESIAN_POINT('',(1.96349540849,63.036504358388));
#619 = CARTESIAN_POINT('',(2.159844949346,62.112433694128));
#620 = CARTESIAN_POINT('',(2.356194490179,61.303706246836));
#621 = CARTESIAN_POINT('',(2.552544031043,60.660909768398));
#622 = CARTESIAN_POINT('',(2.748893571887,60.220303879891));
#623 = CARTESIAN_POINT('',(2.94524311274,60.));
#624 = CARTESIAN_POINT('',(3.14159265359,60.));
#625 = ( GEOMETRIC_REPRESENTATION_CONTEXT(2) 
PARAMETRIC_REPRESENTATION_CONTEXT() REPRESENTATION_CONTEXT('2D SPACE',''
  ) );
#626 = PCURVE('',#627,#632);
#627 = CYLINDRICAL_SURFACE('',#628,5.);
#628 = AXIS2_PLACEMENT_3D('',#629,#630,#631);
#629 = CARTESIAN_POINT('',(-36.,-30.,0.));
#630 = DIRECTION('',(-1.,-0.,-0.));
#631 = DIRECTION('',(0.,1.,0.));
#632 = DEFINITIONAL_REPRESENTATION('',(#633),#643);
#633 = B_SPLINE_CURVE_WITH_KNOTS('',8,(#634,#635,#636,#637,#638,#639,
    #640,#641,#642),.UNSPECIFIED.,.F.,.F.,(9,9),(4.712388980385,
    6.28318530718),.PIECEWISE_BEZIER_KNOTS.);
#634 = CARTESIAN_POINT('',(-1.570796326795,-5.));
#635 = CARTESIAN_POINT('',(-1.374446785946,-4.018252295753));
#636 = CARTESIAN_POINT('',(-1.178097245095,-3.03650435841));
#637 = CARTESIAN_POINT('',(-0.981747704247,-2.112433693939));
#638 = CARTESIAN_POINT('',(-0.785398163397,-1.303706247116));
#639 = CARTESIAN_POINT('',(-0.589048622549,-0.660909768297));
#640 = CARTESIAN_POINT('',(-0.392699081698,-0.220303879932));
#641 = CARTESIAN_POINT('',(-0.196349540849,-2.404588367152E-16));
#642 = CARTESIAN_POINT('',(-2.288475490444E-17,0.));
#643 = ( GEOMETRIC_REPRESENTATION_CONTEXT(2) 
PARAMETRIC_REPRESENTATION_CONTEXT() REPRESENTATION_CONTEXT('2D SPACE',''
  ) );
#644 = ADVANCED_FACE('',(#645),#308,.T.);
#645 = FACE_BOUND('',#646,.T.);
#646 = EDGE_LOOP('',(#647,#648,#649));
#647 = ORIENTED_EDGE('',*,*,#397,.F.);
#648 = ORIENTED_EDGE('',*,*,#287,.T.);
#649 = ORIENTED_EDGE('',*,*,#650,.F.);
#650 = EDGE_CURVE('',#88,#159,#651,.T.);
#651 = SURFACE_CURVE('',#652,(#657,#670),.PCURVE_S1.);
#652 = ELLIPSE('',#653,7.071067811865,5.);
#653 = AXIS2_PLACEMENT_3D('',#654,#655,#656);
#654 = CARTESIAN_POINT('',(-31.,-30.,0.));
#655 = DIRECTION('',(-0.707106781187,0.707106781187,-1.570092458684E-16)
  );
#656 = DIRECTION('',(-0.707106781187,-0.707106781187,1.570092458684E-16)
  );
#657 = PCURVE('',#308,#658);
#658 = DEFINITIONAL_REPRESENTATION('',(#659),#669);
#659 = B_SPLINE_CURVE_WITH_KNOTS('',8,(#660,#661,#662,#663,#664,#665,
    #666,#667,#668),.UNSPECIFIED.,.F.,.F.,(9,9),(0.,1.570796326795),
  .PIECEWISE_BEZIER_KNOTS.);
#660 = CARTESIAN_POINT('',(3.14159265359,70.));
#661 = CARTESIAN_POINT('',(2.94524311274,70.));
#662 = CARTESIAN_POINT('',(2.748893571891,69.779696120066));
#663 = CARTESIAN_POINT('',(2.552544031038,69.339090231399));
#664 = CARTESIAN_POINT('',(2.356194490192,68.69629375299));
#665 = CARTESIAN_POINT('',(2.159844949343,67.887566305813));
#666 = CARTESIAN_POINT('',(1.963495408492,66.963495641641));
#667 = CARTESIAN_POINT('',(1.767145867644,65.981747704247));
#668 = CARTESIAN_POINT('',(1.570796326795,65.));
#669 = ( GEOMETRIC_REPRESENTATION_CONTEXT(2) 
PARAMETRIC_REPRESENTATION_CONTEXT() REPRESENTATION_CONTEXT('2D SPACE',''
  ) );
#670 = PCURVE('',#627,#671);
#671 = DEFINITIONAL_REPRESENTATION('',(#672),#682);
#672 = B_SPLINE_CURVE_WITH_KNOTS('',8,(#673,#674,#675,#676,#677,#678,
    #679,#680,#681),.UNSPECIFIED.,.F.,.F.,(9,9),(0.,1.570796326795),
  .PIECEWISE_BEZIER_KNOTS.);
#673 = CARTESIAN_POINT('',(-3.14159265359,0.));
#674 = CARTESIAN_POINT('',(-2.94524311274,0.));
#675 = CARTESIAN_POINT('',(-2.748893571891,-0.220303879931));
#676 = CARTESIAN_POINT('',(-2.552544031033,-0.660909768304));
#677 = CARTESIAN_POINT('',(-2.356194490183,-1.303706247107));
#678 = CARTESIAN_POINT('',(-2.159844949339,-2.112433693946));
#679 = CARTESIAN_POINT('',(-1.963495408493,-3.036504358408));
#680 = CARTESIAN_POINT('',(-1.767145867644,-4.018252295753));
#681 = CARTESIAN_POINT('',(-1.570796326795,-5.));
#682 = ( GEOMETRIC_REPRESENTATION_CONTEXT(2) 
PARAMETRIC_REPRESENTATION_CONTEXT() REPRESENTATION_CONTEXT('2D SPACE',''
  ) );
#683 = ADVANCED_FACE('',(#684),#239,.T.);
#684 = FACE_BOUND('',#685,.T.);
#685 = EDGE_LOOP('',(#686));
#686 = ORIENTED_EDGE('',*,*,#224,.T.);
#687 = ADVANCED_FACE('',(#688),#380,.F.);
#688 = FACE_BOUND('',#689,.F.);
#689 = EDGE_LOOP('',(#690,#691));
#690 = ORIENTED_EDGE('',*,*,#365,.T.);
#691 = ORIENTED_EDGE('',*,*,#692,.T.);
#692 = EDGE_CURVE('',#330,#88,#693,.T.);
#693 = SURFACE_CURVE('',#694,(#699,#706),.PCURVE_S1.);
#694 = CIRCLE('',#695,5.);
#695 = AXIS2_PLACEMENT_3D('',#696,#697,#698);
#696 = CARTESIAN_POINT('',(-36.,-30.,0.));
#697 = DIRECTION('',(1.,0.,0.));
#698 = DIRECTION('',(0.,1.,0.));
#699 = PCURVE('',#380,#700);
#700 = DEFINITIONAL_REPRESENTATION('',(#701),#705);
#701 = CIRCLE('',#702,5.);
#702 = AXIS2_PLACEMENT_2D('',#703,#704);
#703 = CARTESIAN_POINT('',(0.,-3.428682531579E-16));
#704 = DIRECTION('',(1.,0.));
#705 = ( GEOMETRIC_REPRESENTATION_CONTEXT(2) 
PARAMETRIC_REPRESENTATION_CONTEXT() REPRESENTATION_CONTEXT('2D SPACE',''
  ) );
#706 = PCURVE('',#627,#707);
#707 = DEFINITIONAL_REPRESENTATION('',(#708),#712);
#708 = LINE('',#709,#710);
#709 = CARTESIAN_POINT('',(-0.,0.));
#710 = VECTOR('',#711,1.);
#711 = DIRECTION('',(-1.,0.));
#712 = ( GEOMETRIC_REPRESENTATION_CONTEXT(2) 
PARAMETRIC_REPRESENTATION_CONTEXT() REPRESENTATION_CONTEXT('2D SPACE',''
  ) );
#713 = ADVANCED_FACE('',(#714),#627,.T.);
#714 = FACE_BOUND('',#715,.F.);
#715 = EDGE_LOOP('',(#716,#717,#718));
#716 = ORIENTED_EDGE('',*,*,#692,.F.);
#717 = ORIENTED_EDGE('',*,*,#606,.F.);
#718 = ORIENTED_EDGE('',*,*,#650,.F.);
#719 = ADVANCED_FACE('',(#720),#469,.T.);
#720 = FACE_BOUND('',#721,.F.);
#721 = EDGE_LOOP('',(#722,#763,#786,#813,#814,#853,#854));
#722 = ORIENTED_EDGE('',*,*,#723,.T.);
#723 = EDGE_CURVE('',#447,#724,#726,.T.);
#724 = VERTEX_POINT('',#725);
#725 = CARTESIAN_POINT('',(-26.,35.,-8.996207971523E-15));
#726 = SURFACE_CURVE('',#727,(#732,#745),.PCURVE_S1.);
#727 = ELLIPSE('',#728,7.071067811865,5.);
#728 = AXIS2_PLACEMENT_3D('',#729,#730,#731);
#729 = CARTESIAN_POINT('',(-31.,30.,0.));
#730 = DIRECTION('',(-0.707106781187,0.707106781187,-1.570092458684E-16)
  );
#731 = DIRECTION('',(-0.707106781187,-0.707106781187,1.570092458684E-16)
  );
#732 = PCURVE('',#469,#733);
#733 = DEFINITIONAL_REPRESENTATION('',(#734),#744);
#734 = B_SPLINE_CURVE_WITH_KNOTS('',8,(#735,#736,#737,#738,#739,#740,
    #741,#742,#743),.UNSPECIFIED.,.F.,.F.,(9,9),(1.570796326795,
    3.14159265359),.PIECEWISE_BEZIER_KNOTS.);
#735 = CARTESIAN_POINT('',(-1.570796326795,-5.));
#736 = CARTESIAN_POINT('',(-1.374446785946,-5.981747704247));
#737 = CARTESIAN_POINT('',(-1.178097245096,-6.963495641597));
#738 = CARTESIAN_POINT('',(-0.981747704246,-7.88756630601));
#739 = CARTESIAN_POINT('',(-0.785398163394,-8.696293752939));
#740 = CARTESIAN_POINT('',(-0.589048622546,-9.339090231646));
#741 = CARTESIAN_POINT('',(-0.392699081698,-9.779696120075));
#742 = CARTESIAN_POINT('',(-0.196349540849,-10.));
#743 = CARTESIAN_POINT('',(-3.445092848398E-16,-10.));
#744 = ( GEOMETRIC_REPRESENTATION_CONTEXT(2) 
PARAMETRIC_REPRESENTATION_CONTEXT() REPRESENTATION_CONTEXT('2D SPACE',''
  ) );
#745 = PCURVE('',#746,#751);
#746 = CYLINDRICAL_SURFACE('',#747,5.);
#747 = AXIS2_PLACEMENT_3D('',#748,#749,#750);
#748 = CARTESIAN_POINT('',(-31.,35.,-7.771561172376E-15));
#749 = DIRECTION('',(0.,-1.,2.22044604925E-16));
#750 = DIRECTION('',(1.,0.,0.));
#751 = DEFINITIONAL_REPRESENTATION('',(#752),#762);
#752 = B_SPLINE_CURVE_WITH_KNOTS('',8,(#753,#754,#755,#756,#757,#758,
    #759,#760,#761),.UNSPECIFIED.,.F.,.F.,(9,9),(1.570796326795,
    3.14159265359),.PIECEWISE_BEZIER_KNOTS.);
#753 = CARTESIAN_POINT('',(1.570796326795,5.));
#754 = CARTESIAN_POINT('',(1.374446785946,4.018252295753));
#755 = CARTESIAN_POINT('',(1.178097245096,3.036504358409));
#756 = CARTESIAN_POINT('',(0.981747704248,2.112433693942));
#757 = CARTESIAN_POINT('',(0.785398163394,1.303706247113));
#758 = CARTESIAN_POINT('',(0.589048622549,0.6609097683));
#759 = CARTESIAN_POINT('',(0.392699081698,0.220303879931));
#760 = CARTESIAN_POINT('',(0.196349540849,5.562129806087E-16));
#761 = CARTESIAN_POINT('',(1.898821519315E-15,0.));
#762 = ( GEOMETRIC_REPRESENTATION_CONTEXT(2) 
PARAMETRIC_REPRESENTATION_CONTEXT() REPRESENTATION_CONTEXT('2D SPACE',''
  ) );
#763 = ORIENTED_EDGE('',*,*,#764,.T.);
#764 = EDGE_CURVE('',#724,#765,#767,.T.);
#765 = VERTEX_POINT('',#766);
#766 = CARTESIAN_POINT('',(-10.,35.,0.));
#767 = SEAM_CURVE('',#768,(#772,#779),.PCURVE_S1.);
#768 = LINE('',#769,#770);
#769 = CARTESIAN_POINT('',(-36.,35.,0.));
#770 = VECTOR('',#771,1.);
#771 = DIRECTION('',(1.,0.,0.));
#772 = PCURVE('',#469,#773);
#773 = DEFINITIONAL_REPRESENTATION('',(#774),#778);
#774 = LINE('',#775,#776);
#775 = CARTESIAN_POINT('',(-6.28318530718,0.));
#776 = VECTOR('',#777,1.);
#777 = DIRECTION('',(-0.,-1.));
#778 = ( GEOMETRIC_REPRESENTATION_CONTEXT(2) 
PARAMETRIC_REPRESENTATION_CONTEXT() REPRESENTATION_CONTEXT('2D SPACE',''
  ) );
#779 = PCURVE('',#469,#780);
#780 = DEFINITIONAL_REPRESENTATION('',(#781),#785);
#781 = LINE('',#782,#783);
#782 = CARTESIAN_POINT('',(-0.,0.));
#783 = VECTOR('',#784,1.);
#784 = DIRECTION('',(-0.,-1.));
#785 = ( GEOMETRIC_REPRESENTATION_CONTEXT(2) 
PARAMETRIC_REPRESENTATION_CONTEXT() REPRESENTATION_CONTEXT('2D SPACE',''
  ) );
#786 = ORIENTED_EDGE('',*,*,#787,.T.);
#787 = EDGE_CURVE('',#765,#765,#788,.T.);
#788 = SURFACE_CURVE('',#789,(#794,#801),.PCURVE_S1.);
#789 = CIRCLE('',#790,5.);
#790 = AXIS2_PLACEMENT_3D('',#791,#792,#793);
#791 = CARTESIAN_POINT('',(-10.,30.,0.));
#792 = DIRECTION('',(1.,0.,0.));
#793 = DIRECTION('',(0.,1.,0.));
#794 = PCURVE('',#469,#795);
#795 = DEFINITIONAL_REPRESENTATION('',(#796),#800);
#796 = LINE('',#797,#798);
#797 = CARTESIAN_POINT('',(-0.,-26.));
#798 = VECTOR('',#799,1.);
#799 = DIRECTION('',(-1.,0.));
#800 = ( GEOMETRIC_REPRESENTATION_CONTEXT(2) 
PARAMETRIC_REPRESENTATION_CONTEXT() REPRESENTATION_CONTEXT('2D SPACE',''
  ) );
#801 = PCURVE('',#802,#807);
#802 = PLANE('',#803);
#803 = AXIS2_PLACEMENT_3D('',#804,#805,#806);
#804 = CARTESIAN_POINT('',(-10.,30.,3.428682531579E-16));
#805 = DIRECTION('',(1.,0.,0.));
#806 = DIRECTION('',(0.,1.,0.));
#807 = DEFINITIONAL_REPRESENTATION('',(#808),#812);
#808 = CIRCLE('',#809,5.);
#809 = AXIS2_PLACEMENT_2D('',#810,#811);
#810 = CARTESIAN_POINT('',(2.734880265079E-16,-3.428682531579E-16));
#811 = DIRECTION('',(1.,0.));
#812 = ( GEOMETRIC_REPRESENTATION_CONTEXT(2) 
PARAMETRIC_REPRESENTATION_CONTEXT() REPRESENTATION_CONTEXT('2D SPACE',''
  ) );
#813 = ORIENTED_EDGE('',*,*,#764,.F.);
#814 = ORIENTED_EDGE('',*,*,#815,.T.);
#815 = EDGE_CURVE('',#724,#529,#816,.T.);
#816 = SURFACE_CURVE('',#817,(#822,#835),.PCURVE_S1.);
#817 = ELLIPSE('',#818,7.071067811865,5.);
#818 = AXIS2_PLACEMENT_3D('',#819,#820,#821);
#819 = CARTESIAN_POINT('',(-31.,30.,0.));
#820 = DIRECTION('',(-0.707106781187,0.707106781187,-1.570092458684E-16)
  );
#821 = DIRECTION('',(-0.707106781187,-0.707106781187,1.570092458684E-16)
  );
#822 = PCURVE('',#469,#823);
#823 = DEFINITIONAL_REPRESENTATION('',(#824),#834);
#824 = B_SPLINE_CURVE_WITH_KNOTS('',8,(#825,#826,#827,#828,#829,#830,
    #831,#832,#833),.UNSPECIFIED.,.F.,.F.,(9,9),(3.14159265359,
    4.712388980385),.PIECEWISE_BEZIER_KNOTS.);
#825 = CARTESIAN_POINT('',(-6.28318530718,-10.));
#826 = CARTESIAN_POINT('',(-6.08683576633,-10.));
#827 = CARTESIAN_POINT('',(-5.890486225481,-9.779696120066));
#828 = CARTESIAN_POINT('',(-5.694136684632,-9.339090231693));
#829 = CARTESIAN_POINT('',(-5.497787143782,-8.696293752851));
#830 = CARTESIAN_POINT('',(-5.301437602934,-7.887566306064));
#831 = CARTESIAN_POINT('',(-5.105088062084,-6.963495641585));
#832 = CARTESIAN_POINT('',(-4.908738521234,-5.981747704247));
#833 = CARTESIAN_POINT('',(-4.712388980385,-5.));
#834 = ( GEOMETRIC_REPRESENTATION_CONTEXT(2) 
PARAMETRIC_REPRESENTATION_CONTEXT() REPRESENTATION_CONTEXT('2D SPACE',''
  ) );
#835 = PCURVE('',#836,#841);
#836 = CYLINDRICAL_SURFACE('',#837,5.);
#837 = AXIS2_PLACEMENT_3D('',#838,#839,#840);
#838 = CARTESIAN_POINT('',(-31.,35.,-7.771561172376E-15));
#839 = DIRECTION('',(0.,-1.,2.22044604925E-16));
#840 = DIRECTION('',(1.,0.,0.));
#841 = DEFINITIONAL_REPRESENTATION('',(#842),#852);
#842 = B_SPLINE_CURVE_WITH_KNOTS('',8,(#843,#844,#845,#846,#847,#848,
    #849,#850,#851),.UNSPECIFIED.,.F.,.F.,(9,9),(3.14159265359,
    4.712388980385),.PIECEWISE_BEZIER_KNOTS.);
#843 = CARTESIAN_POINT('',(6.28318530718,0.));
#844 = CARTESIAN_POINT('',(6.08683576633,-5.562129806087E-16));
#845 = CARTESIAN_POINT('',(5.890486225481,0.220303879931));
#846 = CARTESIAN_POINT('',(5.694136684633,0.660909768299));
#847 = CARTESIAN_POINT('',(5.497787143781,1.303706247112));
#848 = CARTESIAN_POINT('',(5.301437602936,2.112433693941));
#849 = CARTESIAN_POINT('',(5.105088062083,3.036504358408));
#850 = CARTESIAN_POINT('',(4.908738521234,4.018252295753));
#851 = CARTESIAN_POINT('',(4.712388980385,5.));
#852 = ( GEOMETRIC_REPRESENTATION_CONTEXT(2) 
PARAMETRIC_REPRESENTATION_CONTEXT() REPRESENTATION_CONTEXT('2D SPACE',''
  ) );
#853 = ORIENTED_EDGE('',*,*,#569,.T.);
#854 = ORIENTED_EDGE('',*,*,#446,.T.);
#855 = ADVANCED_FACE('',(#856),#551,.T.);
#856 = FACE_BOUND('',#857,.F.);
#857 = EDGE_LOOP('',(#858,#894,#921));
#858 = ORIENTED_EDGE('',*,*,#859,.F.);
#859 = EDGE_CURVE('',#860,#529,#862,.T.);
#860 = VERTEX_POINT('',#861);
#861 = CARTESIAN_POINT('',(-36.,35.,0.));
#862 = SURFACE_CURVE('',#863,(#868,#881),.PCURVE_S1.);
#863 = ELLIPSE('',#864,7.071067811865,5.);
#864 = AXIS2_PLACEMENT_3D('',#865,#866,#867);
#865 = CARTESIAN_POINT('',(-31.,30.,0.));
#866 = DIRECTION('',(-0.707106781187,-0.707106781187,1.570092458684E-16)
  );
#867 = DIRECTION('',(-0.707106781187,0.707106781187,-1.570092458684E-16)
  );
#868 = PCURVE('',#551,#869);
#869 = DEFINITIONAL_REPRESENTATION('',(#870),#880);
#870 = B_SPLINE_CURVE_WITH_KNOTS('',8,(#871,#872,#873,#874,#875,#876,
    #877,#878,#879),.UNSPECIFIED.,.F.,.F.,(9,9),(0.,1.570796326795),
  .PIECEWISE_BEZIER_KNOTS.);
#871 = CARTESIAN_POINT('',(-6.28318530718,0.));
#872 = CARTESIAN_POINT('',(-6.08683576633,0.));
#873 = CARTESIAN_POINT('',(-5.890486225479,-0.220303879931));
#874 = CARTESIAN_POINT('',(-5.694136684611,-0.660909768304));
#875 = CARTESIAN_POINT('',(-5.497787143773,-1.303706247107));
#876 = CARTESIAN_POINT('',(-5.301437602913,-2.112433693946));
#877 = CARTESIAN_POINT('',(-5.105088062085,-3.036504358408));
#878 = CARTESIAN_POINT('',(-4.908738521234,-4.018252295753));
#879 = CARTESIAN_POINT('',(-4.712388980385,-5.));
#880 = ( GEOMETRIC_REPRESENTATION_CONTEXT(2) 
PARAMETRIC_REPRESENTATION_CONTEXT() REPRESENTATION_CONTEXT('2D SPACE',''
  ) );
#881 = PCURVE('',#836,#882);
#882 = DEFINITIONAL_REPRESENTATION('',(#883),#893);
#883 = B_SPLINE_CURVE_WITH_KNOTS('',8,(#884,#885,#886,#887,#888,#889,
    #890,#891,#892),.UNSPECIFIED.,.F.,.F.,(9,9),(0.,1.570796326795),
  .PIECEWISE_BEZIER_KNOTS.);
#884 = CARTESIAN_POINT('',(3.14159265359,0.));
#885 = CARTESIAN_POINT('',(3.337942194439,0.));
#886 = CARTESIAN_POINT('',(3.534291735291,0.220303879933));
#887 = CARTESIAN_POINT('',(3.730641276119,0.660909768296));
#888 = CARTESIAN_POINT('',(3.926990816992,1.303706247123));
#889 = CARTESIAN_POINT('',(4.123340357815,2.112433693936));
#890 = CARTESIAN_POINT('',(4.319689898688,3.03650435841));
#891 = CARTESIAN_POINT('',(4.516039439535,4.018252295753));
#892 = CARTESIAN_POINT('',(4.712388980385,5.));
#893 = ( GEOMETRIC_REPRESENTATION_CONTEXT(2) 
PARAMETRIC_REPRESENTATION_CONTEXT() REPRESENTATION_CONTEXT('2D SPACE',''
  ) );
#894 = ORIENTED_EDGE('',*,*,#895,.F.);
#895 = EDGE_CURVE('',#488,#860,#896,.T.);
#896 = SURFACE_CURVE('',#897,(#902,#909),.PCURVE_S1.);
#897 = CIRCLE('',#898,5.);
#898 = AXIS2_PLACEMENT_3D('',#899,#900,#901);
#899 = CARTESIAN_POINT('',(-36.,30.,0.));
#900 = DIRECTION('',(1.,0.,0.));
#901 = DIRECTION('',(0.,1.,0.));
#902 = PCURVE('',#551,#903);
#903 = DEFINITIONAL_REPRESENTATION('',(#904),#908);
#904 = LINE('',#905,#906);
#905 = CARTESIAN_POINT('',(-0.,0.));
#906 = VECTOR('',#907,1.);
#907 = DIRECTION('',(-1.,0.));
#908 = ( GEOMETRIC_REPRESENTATION_CONTEXT(2) 
PARAMETRIC_REPRESENTATION_CONTEXT() REPRESENTATION_CONTEXT('2D SPACE',''
  ) );
#909 = PCURVE('',#910,#915);
#910 = PLANE('',#911);
#911 = AXIS2_PLACEMENT_3D('',#912,#913,#914);
#912 = CARTESIAN_POINT('',(-36.,30.,3.428682531579E-16));
#913 = DIRECTION('',(1.,0.,0.));
#914 = DIRECTION('',(-0.,1.,0.));
#915 = DEFINITIONAL_REPRESENTATION('',(#916),#920);
#916 = CIRCLE('',#917,5.);
#917 = AXIS2_PLACEMENT_2D('',#918,#919);
#918 = CARTESIAN_POINT('',(0.,-3.428682531579E-16));
#919 = DIRECTION('',(1.,0.));
#920 = ( GEOMETRIC_REPRESENTATION_CONTEXT(2) 
PARAMETRIC_REPRESENTATION_CONTEXT() REPRESENTATION_CONTEXT('2D SPACE',''
  ) );
#921 = ORIENTED_EDGE('',*,*,#528,.F.);
#922 = ADVANCED_FACE('',(#923),#510,.T.);
#923 = FACE_BOUND('',#924,.F.);
#924 = EDGE_LOOP('',(#925,#947,#981));
#925 = ORIENTED_EDGE('',*,*,#926,.F.);
#926 = EDGE_CURVE('',#860,#488,#927,.T.);
#927 = SURFACE_CURVE('',#928,(#933,#940),.PCURVE_S1.);
#928 = CIRCLE('',#929,5.);
#929 = AXIS2_PLACEMENT_3D('',#930,#931,#932);
#930 = CARTESIAN_POINT('',(-36.,30.,0.));
#931 = DIRECTION('',(1.,0.,0.));
#932 = DIRECTION('',(0.,1.,0.));
#933 = PCURVE('',#510,#934);
#934 = DEFINITIONAL_REPRESENTATION('',(#935),#939);
#935 = LINE('',#936,#937);
#936 = CARTESIAN_POINT('',(-0.,0.));
#937 = VECTOR('',#938,1.);
#938 = DIRECTION('',(-1.,0.));
#939 = ( GEOMETRIC_REPRESENTATION_CONTEXT(2) 
PARAMETRIC_REPRESENTATION_CONTEXT() REPRESENTATION_CONTEXT('2D SPACE',''
  ) );
#940 = PCURVE('',#910,#941);
#941 = DEFINITIONAL_REPRESENTATION('',(#942),#946);
#942 = CIRCLE('',#943,5.);
#943 = AXIS2_PLACEMENT_2D('',#944,#945);
#944 = CARTESIAN_POINT('',(0.,-3.428682531579E-16));
#945 = DIRECTION('',(1.,0.));
#946 = ( GEOMETRIC_REPRESENTATION_CONTEXT(2) 
PARAMETRIC_REPRESENTATION_CONTEXT() REPRESENTATION_CONTEXT('2D SPACE',''
  ) );
#947 = ORIENTED_EDGE('',*,*,#948,.F.);
#948 = EDGE_CURVE('',#447,#860,#949,.T.);
#949 = SURFACE_CURVE('',#950,(#955,#968),.PCURVE_S1.);
#950 = ELLIPSE('',#951,7.071067811865,5.);
#951 = AXIS2_PLACEMENT_3D('',#952,#953,#954);
#952 = CARTESIAN_POINT('',(-31.,30.,0.));
#953 = DIRECTION('',(-0.707106781187,-0.707106781187,1.570092458684E-16)
  );
#954 = DIRECTION('',(-0.707106781187,0.707106781187,-1.570092458684E-16)
  );
#955 = PCURVE('',#510,#956);
#956 = DEFINITIONAL_REPRESENTATION('',(#957),#967);
#957 = B_SPLINE_CURVE_WITH_KNOTS('',8,(#958,#959,#960,#961,#962,#963,
    #964,#965,#966),.UNSPECIFIED.,.F.,.F.,(9,9),(4.712388980385,
    6.28318530718),.PIECEWISE_BEZIER_KNOTS.);
#958 = CARTESIAN_POINT('',(-1.570796326795,-5.));
#959 = CARTESIAN_POINT('',(-1.374446785946,-4.018252295753));
#960 = CARTESIAN_POINT('',(-1.178097245095,-3.03650435841));
#961 = CARTESIAN_POINT('',(-0.981747704248,-2.112433693939));
#962 = CARTESIAN_POINT('',(-0.785398163396,-1.303706247116));
#963 = CARTESIAN_POINT('',(-0.58904862255,-0.660909768297));
#964 = CARTESIAN_POINT('',(-0.392699081698,-0.220303879932));
#965 = CARTESIAN_POINT('',(-0.196349540849,-2.404588367152E-16));
#966 = CARTESIAN_POINT('',(-2.288475490444E-17,0.));
#967 = ( GEOMETRIC_REPRESENTATION_CONTEXT(2) 
PARAMETRIC_REPRESENTATION_CONTEXT() REPRESENTATION_CONTEXT('2D SPACE',''
  ) );
#968 = PCURVE('',#746,#969);
#969 = DEFINITIONAL_REPRESENTATION('',(#970),#980);
#970 = B_SPLINE_CURVE_WITH_KNOTS('',8,(#971,#972,#973,#974,#975,#976,
    #977,#978,#979),.UNSPECIFIED.,.F.,.F.,(9,9),(4.712388980385,
    6.28318530718),.PIECEWISE_BEZIER_KNOTS.);
#971 = CARTESIAN_POINT('',(1.570796326795,5.));
#972 = CARTESIAN_POINT('',(1.767145867644,4.018252295753));
#973 = CARTESIAN_POINT('',(1.963495408495,3.036504358408));
#974 = CARTESIAN_POINT('',(2.159844949338,2.112433693944));
#975 = CARTESIAN_POINT('',(2.356194490205,1.303706247108));
#976 = CARTESIAN_POINT('',(2.552544031032,0.6609097683));
#977 = CARTESIAN_POINT('',(2.748893571891,0.22030387993));
#978 = CARTESIAN_POINT('',(2.94524311274,2.404588367152E-16));
#979 = CARTESIAN_POINT('',(3.14159265359,0.));
#980 = ( GEOMETRIC_REPRESENTATION_CONTEXT(2) 
PARAMETRIC_REPRESENTATION_CONTEXT() REPRESENTATION_CONTEXT('2D SPACE',''
  ) );
#981 = ORIENTED_EDGE('',*,*,#487,.F.);
#982 = ADVANCED_FACE('',(#983),#746,.T.);
#983 = FACE_BOUND('',#984,.T.);
#984 = EDGE_LOOP('',(#985,#986,#1013));
#985 = ORIENTED_EDGE('',*,*,#723,.T.);
#986 = ORIENTED_EDGE('',*,*,#987,.T.);
#987 = EDGE_CURVE('',#724,#860,#988,.T.);
#988 = SURFACE_CURVE('',#989,(#994,#1001),.PCURVE_S1.);
#989 = CIRCLE('',#990,5.);
#990 = AXIS2_PLACEMENT_3D('',#991,#992,#993);
#991 = CARTESIAN_POINT('',(-31.,35.,-7.771561172376E-15));
#992 = DIRECTION('',(0.,-1.,2.22044604925E-16));
#993 = DIRECTION('',(1.,0.,0.));
#994 = PCURVE('',#746,#995);
#995 = DEFINITIONAL_REPRESENTATION('',(#996),#1000);
#996 = LINE('',#997,#998);
#997 = CARTESIAN_POINT('',(0.,0.));
#998 = VECTOR('',#999,1.);
#999 = DIRECTION('',(1.,0.));
#1000 = ( GEOMETRIC_REPRESENTATION_CONTEXT(2) 
PARAMETRIC_REPRESENTATION_CONTEXT() REPRESENTATION_CONTEXT('2D SPACE',''
  ) );
#1001 = PCURVE('',#1002,#1007);
#1002 = PLANE('',#1003);
#1003 = AXIS2_PLACEMENT_3D('',#1004,#1005,#1006);
#1004 = CARTESIAN_POINT('',(-31.,35.,-7.771561172376E-15));
#1005 = DIRECTION('',(0.,-1.,2.22044604925E-16));
#1006 = DIRECTION('',(1.,0.,0.));
#1007 = DEFINITIONAL_REPRESENTATION('',(#1008),#1012);
#1008 = CIRCLE('',#1009,5.);
#1009 = AXIS2_PLACEMENT_2D('',#1010,#1011);
#1010 = CARTESIAN_POINT('',(0.,0.));
#1011 = DIRECTION('',(1.,0.));
#1012 = ( GEOMETRIC_REPRESENTATION_CONTEXT(2) 
PARAMETRIC_REPRESENTATION_CONTEXT() REPRESENTATION_CONTEXT('2D SPACE',''
  ) );
#1013 = ORIENTED_EDGE('',*,*,#948,.F.);
#1014 = ADVANCED_FACE('',(#1015),#836,.T.);
#1015 = FACE_BOUND('',#1016,.T.);
#1016 = EDGE_LOOP('',(#1017,#1039,#1040));
#1017 = ORIENTED_EDGE('',*,*,#1018,.T.);
#1018 = EDGE_CURVE('',#860,#724,#1019,.T.);
#1019 = SURFACE_CURVE('',#1020,(#1025,#1032),.PCURVE_S1.);
#1020 = CIRCLE('',#1021,5.);
#1021 = AXIS2_PLACEMENT_3D('',#1022,#1023,#1024);
#1022 = CARTESIAN_POINT('',(-31.,35.,-7.771561172376E-15));
#1023 = DIRECTION('',(0.,-1.,2.22044604925E-16));
#1024 = DIRECTION('',(1.,0.,0.));
#1025 = PCURVE('',#836,#1026);
#1026 = DEFINITIONAL_REPRESENTATION('',(#1027),#1031);
#1027 = LINE('',#1028,#1029);
#1028 = CARTESIAN_POINT('',(0.,0.));
#1029 = VECTOR('',#1030,1.);
#1030 = DIRECTION('',(1.,0.));
#1031 = ( GEOMETRIC_REPRESENTATION_CONTEXT(2) 
PARAMETRIC_REPRESENTATION_CONTEXT() REPRESENTATION_CONTEXT('2D SPACE',''
  ) );
#1032 = PCURVE('',#1002,#1033);
#1033 = DEFINITIONAL_REPRESENTATION('',(#1034),#1038);
#1034 = CIRCLE('',#1035,5.);
#1035 = AXIS2_PLACEMENT_2D('',#1036,#1037);
#1036 = CARTESIAN_POINT('',(0.,0.));
#1037 = DIRECTION('',(1.,0.));
#1038 = ( GEOMETRIC_REPRESENTATION_CONTEXT(2) 
PARAMETRIC_REPRESENTATION_CONTEXT() REPRESENTATION_CONTEXT('2D SPACE',''
  ) );
#1039 = ORIENTED_EDGE('',*,*,#815,.T.);
#1040 = ORIENTED_EDGE('',*,*,#859,.F.);
#1041 = ADVANCED_FACE('',(#1042),#802,.T.);
#1042 = FACE_BOUND('',#1043,.T.);
#1043 = EDGE_LOOP('',(#1044));
#1044 = ORIENTED_EDGE('',*,*,#787,.T.);
#1045 = ADVANCED_FACE('',(#1046),#910,.F.);
#1046 = FACE_BOUND('',#1047,.F.);
#1047 = EDGE_LOOP('',(#1048,#1049));
#1048 = ORIENTED_EDGE('',*,*,#895,.T.);
#1049 = ORIENTED_EDGE('',*,*,#926,.T.);
#1050 = ADVANCED_FACE('',(#1051),#1002,.F.);
#1051 = FACE_BOUND('',#1052,.F.);
#1052 = EDGE_LOOP('',(#1053,#1054));
#1053 = ORIENTED_EDGE('',*,*,#987,.T.);
#1054 = ORIENTED_EDGE('',*,*,#1018,.T.);
#1055 = MANIFOLD_SOLID_BREP('',#1056);
#1056 = CLOSED_SHELL('',(#1057,#1145,#1180,#1184,#1239,#1292));
#1057 = ADVANCED_FACE('',(#1058),#1072,.T.);
#1058 = FACE_BOUND('',#1059,.T.);
#1059 = EDGE_LOOP('',(#1060,#1090,#1117,#1118));
#1060 = ORIENTED_EDGE('',*,*,#1061,.T.);
#1061 = EDGE_CURVE('',#1062,#1064,#1066,.T.);
#1062 = VERTEX_POINT('',#1063);
#1063 = CARTESIAN_POINT('',(0.,11.,0.));
#1064 = VERTEX_POINT('',#1065);
#1065 = CARTESIAN_POINT('',(-10.,11.,0.));
#1066 = SEAM_CURVE('',#1067,(#1071,#1083),.PCURVE_S1.);
#1067 = LINE('',#1068,#1069);
#1068 = CARTESIAN_POINT('',(0.,11.,0.));
#1069 = VECTOR('',#1070,1.);
#1070 = DIRECTION('',(-1.,-0.,-0.));
#1071 = PCURVE('',#1072,#1077);
#1072 = CYLINDRICAL_SURFACE('',#1073,11.);
#1073 = AXIS2_PLACEMENT_3D('',#1074,#1075,#1076);
#1074 = CARTESIAN_POINT('',(0.,0.,0.));
#1075 = DIRECTION('',(1.,0.,0.));
#1076 = DIRECTION('',(-0.,1.,0.));
#1077 = DEFINITIONAL_REPRESENTATION('',(#1078),#1082);
#1078 = LINE('',#1079,#1080);
#1079 = CARTESIAN_POINT('',(0.,0.));
#1080 = VECTOR('',#1081,1.);
#1081 = DIRECTION('',(0.,-1.));
#1082 = ( GEOMETRIC_REPRESENTATION_CONTEXT(2) 
PARAMETRIC_REPRESENTATION_CONTEXT() REPRESENTATION_CONTEXT('2D SPACE',''
  ) );
#1083 = PCURVE('',#1072,#1084);
#1084 = DEFINITIONAL_REPRESENTATION('',(#1085),#1089);
#1085 = LINE('',#1086,#1087);
#1086 = CARTESIAN_POINT('',(6.28318530718,0.));
#1087 = VECTOR('',#1088,1.);
#1088 = DIRECTION('',(0.,-1.));
#1089 = ( GEOMETRIC_REPRESENTATION_CONTEXT(2) 
PARAMETRIC_REPRESENTATION_CONTEXT() REPRESENTATION_CONTEXT('2D SPACE',''
  ) );
#1090 = ORIENTED_EDGE('',*,*,#1091,.T.);
#1091 = EDGE_CURVE('',#1064,#1064,#1092,.T.);
#1092 = SURFACE_CURVE('',#1093,(#1098,#1105),.PCURVE_S1.);
#1093 = CIRCLE('',#1094,11.);
#1094 = AXIS2_PLACEMENT_3D('',#1095,#1096,#1097);
#1095 = CARTESIAN_POINT('',(-10.,0.,0.));
#1096 = DIRECTION('',(1.,0.,0.));
#1097 = DIRECTION('',(0.,1.,0.));
#1098 = PCURVE('',#1072,#1099);
#1099 = DEFINITIONAL_REPRESENTATION('',(#1100),#1104);
#1100 = LINE('',#1101,#1102);
#1101 = CARTESIAN_POINT('',(0.,-10.));
#1102 = VECTOR('',#1103,1.);
#1103 = DIRECTION('',(1.,0.));
#1104 = ( GEOMETRIC_REPRESENTATION_CONTEXT(2) 
PARAMETRIC_REPRESENTATION_CONTEXT() REPRESENTATION_CONTEXT('2D SPACE',''
  ) );
#1105 = PCURVE('',#1106,#1111);
#1106 = PLANE('',#1107);
#1107 = AXIS2_PLACEMENT_3D('',#1108,#1109,#1110);
#1108 = CARTESIAN_POINT('',(-10.,-7.458764359306E-16,-4.490371596874E-16
    ));
#1109 = DIRECTION('',(1.,0.,0.));
#1110 = DIRECTION('',(0.,1.,0.));
#1111 = DEFINITIONAL_REPRESENTATION('',(#1112),#1116);
#1112 = CIRCLE('',#1113,11.);
#1113 = AXIS2_PLACEMENT_2D('',#1114,#1115);
#1114 = CARTESIAN_POINT('',(7.458764359306E-16,4.490371596874E-16));
#1115 = DIRECTION('',(1.,0.));
#1116 = ( GEOMETRIC_REPRESENTATION_CONTEXT(2) 
PARAMETRIC_REPRESENTATION_CONTEXT() REPRESENTATION_CONTEXT('2D SPACE',''
  ) );
#1117 = ORIENTED_EDGE('',*,*,#1061,.F.);
#1118 = ORIENTED_EDGE('',*,*,#1119,.F.);
#1119 = EDGE_CURVE('',#1062,#1062,#1120,.T.);
#1120 = SURFACE_CURVE('',#1121,(#1126,#1133),.PCURVE_S1.);
#1121 = CIRCLE('',#1122,11.);
#1122 = AXIS2_PLACEMENT_3D('',#1123,#1124,#1125);
#1123 = CARTESIAN_POINT('',(0.,0.,0.));
#1124 = DIRECTION('',(1.,0.,0.));
#1125 = DIRECTION('',(0.,1.,0.));
#1126 = PCURVE('',#1072,#1127);
#1127 = DEFINITIONAL_REPRESENTATION('',(#1128),#1132);
#1128 = LINE('',#1129,#1130);
#1129 = CARTESIAN_POINT('',(0.,0.));
#1130 = VECTOR('',#1131,1.);
#1131 = DIRECTION('',(1.,0.));
#1132 = ( GEOMETRIC_REPRESENTATION_CONTEXT(2) 
PARAMETRIC_REPRESENTATION_CONTEXT() REPRESENTATION_CONTEXT('2D SPACE',''
  ) );
#1133 = PCURVE('',#1134,#1139);
#1134 = PLANE('',#1135);
#1135 = AXIS2_PLACEMENT_3D('',#1136,#1137,#1138);
#1136 = CARTESIAN_POINT('',(0.,-7.458764359306E-16,-4.490371596874E-16)
  );
#1137 = DIRECTION('',(1.,0.,0.));
#1138 = DIRECTION('',(0.,1.,0.));
#1139 = DEFINITIONAL_REPRESENTATION('',(#1140),#1144);
#1140 = CIRCLE('',#1141,11.);
#1141 = AXIS2_PLACEMENT_2D('',#1142,#1143);
#1142 = CARTESIAN_POINT('',(7.458764359306E-16,4.490371596874E-16));
#1143 = DIRECTION('',(1.,0.));
#1144 = ( GEOMETRIC_REPRESENTATION_CONTEXT(2) 
PARAMETRIC_REPRESENTATION_CONTEXT() REPRESENTATION_CONTEXT('2D SPACE',''
  ) );
#1145 = ADVANCED_FACE('',(#1146,#1149),#1134,.T.);
#1146 = FACE_BOUND('',#1147,.T.);
#1147 = EDGE_LOOP('',(#1148));
#1148 = ORIENTED_EDGE('',*,*,#1119,.T.);
#1149 = FACE_BOUND('',#1150,.T.);
#1150 = EDGE_LOOP('',(#1151));
#1151 = ORIENTED_EDGE('',*,*,#1152,.F.);
#1152 = EDGE_CURVE('',#1153,#1153,#1155,.T.);
#1153 = VERTEX_POINT('',#1154);
#1154 = CARTESIAN_POINT('',(0.,6.,0.));
#1155 = SURFACE_CURVE('',#1156,(#1161,#1168),.PCURVE_S1.);
#1156 = CIRCLE('',#1157,6.);
#1157 = AXIS2_PLACEMENT_3D('',#1158,#1159,#1160);
#1158 = CARTESIAN_POINT('',(0.,0.,0.));
#1159 = DIRECTION('',(1.,0.,0.));
#1160 = DIRECTION('',(0.,1.,0.));
#1161 = PCURVE('',#1134,#1162);
#1162 = DEFINITIONAL_REPRESENTATION('',(#1163),#1167);
#1163 = CIRCLE('',#1164,6.);
#1164 = AXIS2_PLACEMENT_2D('',#1165,#1166);
#1165 = CARTESIAN_POINT('',(7.458764359306E-16,4.490371596874E-16));
#1166 = DIRECTION('',(1.,0.));
#1167 = ( GEOMETRIC_REPRESENTATION_CONTEXT(2) 
PARAMETRIC_REPRESENTATION_CONTEXT() REPRESENTATION_CONTEXT('2D SPACE',''
  ) );
#1168 = PCURVE('',#1169,#1174);
#1169 = CYLINDRICAL_SURFACE('',#1170,6.);
#1170 = AXIS2_PLACEMENT_3D('',#1171,#1172,#1173);
#1171 = CARTESIAN_POINT('',(0.,0.,0.));
#1172 = DIRECTION('',(-1.,-0.,-0.));
#1173 = DIRECTION('',(0.,1.,0.));
#1174 = DEFINITIONAL_REPRESENTATION('',(#1175),#1179);
#1175 = LINE('',#1176,#1177);
#1176 = CARTESIAN_POINT('',(-0.,0.));
#1177 = VECTOR('',#1178,1.);
#1178 = DIRECTION('',(-1.,0.));
#1179 = ( GEOMETRIC_REPRESENTATION_CONTEXT(2) 
PARAMETRIC_REPRESENTATION_CONTEXT() REPRESENTATION_CONTEXT('2D SPACE',''
  ) );
#1180 = ADVANCED_FACE('',(#1181),#1106,.F.);
#1181 = FACE_BOUND('',#1182,.F.);
#1182 = EDGE_LOOP('',(#1183));
#1183 = ORIENTED_EDGE('',*,*,#1091,.T.);
#1184 = ADVANCED_FACE('',(#1185),#1169,.T.);
#1185 = FACE_BOUND('',#1186,.F.);
#1186 = EDGE_LOOP('',(#1187,#1210,#1237,#1238));
#1187 = ORIENTED_EDGE('',*,*,#1188,.T.);
#1188 = EDGE_CURVE('',#1153,#1189,#1191,.T.);
#1189 = VERTEX_POINT('',#1190);
#1190 = CARTESIAN_POINT('',(93.,6.,0.));
#1191 = SEAM_CURVE('',#1192,(#1196,#1203),.PCURVE_S1.);
#1192 = LINE('',#1193,#1194);
#1193 = CARTESIAN_POINT('',(0.,6.,0.));
#1194 = VECTOR('',#1195,1.);
#1195 = DIRECTION('',(1.,0.,0.));
#1196 = PCURVE('',#1169,#1197);
#1197 = DEFINITIONAL_REPRESENTATION('',(#1198),#1202);
#1198 = LINE('',#1199,#1200);
#1199 = CARTESIAN_POINT('',(-0.,0.));
#1200 = VECTOR('',#1201,1.);
#1201 = DIRECTION('',(-0.,-1.));
#1202 = ( GEOMETRIC_REPRESENTATION_CONTEXT(2) 
PARAMETRIC_REPRESENTATION_CONTEXT() REPRESENTATION_CONTEXT('2D SPACE',''
  ) );
#1203 = PCURVE('',#1169,#1204);
#1204 = DEFINITIONAL_REPRESENTATION('',(#1205),#1209);
#1205 = LINE('',#1206,#1207);
#1206 = CARTESIAN_POINT('',(-6.28318530718,0.));
#1207 = VECTOR('',#1208,1.);
#1208 = DIRECTION('',(-0.,-1.));
#1209 = ( GEOMETRIC_REPRESENTATION_CONTEXT(2) 
PARAMETRIC_REPRESENTATION_CONTEXT() REPRESENTATION_CONTEXT('2D SPACE',''
  ) );
#1210 = ORIENTED_EDGE('',*,*,#1211,.T.);
#1211 = EDGE_CURVE('',#1189,#1189,#1212,.T.);
#1212 = SURFACE_CURVE('',#1213,(#1218,#1225),.PCURVE_S1.);
#1213 = CIRCLE('',#1214,6.);
#1214 = AXIS2_PLACEMENT_3D('',#1215,#1216,#1217);
#1215 = CARTESIAN_POINT('',(93.,0.,0.));
#1216 = DIRECTION('',(1.,0.,0.));
#1217 = DIRECTION('',(-0.,1.,0.));
#1218 = PCURVE('',#1169,#1219);
#1219 = DEFINITIONAL_REPRESENTATION('',(#1220),#1224);
#1220 = LINE('',#1221,#1222);
#1221 = CARTESIAN_POINT('',(-0.,-93.));
#1222 = VECTOR('',#1223,1.);
#1223 = DIRECTION('',(-1.,0.));
#1224 = ( GEOMETRIC_REPRESENTATION_CONTEXT(2) 
PARAMETRIC_REPRESENTATION_CONTEXT() REPRESENTATION_CONTEXT('2D SPACE',''
  ) );
#1225 = PCURVE('',#1226,#1231);
#1226 = CONICAL_SURFACE('',#1227,6.,0.785398163397);
#1227 = AXIS2_PLACEMENT_3D('',#1228,#1229,#1230);
#1228 = CARTESIAN_POINT('',(93.,0.,0.));
#1229 = DIRECTION('',(-1.,-0.,-0.));
#1230 = DIRECTION('',(-0.,1.,0.));
#1231 = DEFINITIONAL_REPRESENTATION('',(#1232),#1236);
#1232 = LINE('',#1233,#1234);
#1233 = CARTESIAN_POINT('',(-0.,-0.));
#1234 = VECTOR('',#1235,1.);
#1235 = DIRECTION('',(-1.,-0.));
#1236 = ( GEOMETRIC_REPRESENTATION_CONTEXT(2) 
PARAMETRIC_REPRESENTATION_CONTEXT() REPRESENTATION_CONTEXT('2D SPACE',''
  ) );
#1237 = ORIENTED_EDGE('',*,*,#1188,.F.);
#1238 = ORIENTED_EDGE('',*,*,#1152,.F.);
#1239 = ADVANCED_FACE('',(#1240),#1226,.T.);
#1240 = FACE_BOUND('',#1241,.T.);
#1241 = EDGE_LOOP('',(#1242,#1263,#1264,#1265));
#1242 = ORIENTED_EDGE('',*,*,#1243,.F.);
#1243 = EDGE_CURVE('',#1189,#1244,#1246,.T.);
#1244 = VERTEX_POINT('',#1245);
#1245 = CARTESIAN_POINT('',(95.,4.,0.));
#1246 = SEAM_CURVE('',#1247,(#1251,#1257),.PCURVE_S1.);
#1247 = LINE('',#1248,#1249);
#1248 = CARTESIAN_POINT('',(93.,6.,0.));
#1249 = VECTOR('',#1250,1.);
#1250 = DIRECTION('',(0.707106781187,-0.707106781187,0.));
#1251 = PCURVE('',#1226,#1252);
#1252 = DEFINITIONAL_REPRESENTATION('',(#1253),#1256);
#1253 = B_SPLINE_CURVE_WITH_KNOTS('',1,(#1254,#1255),.UNSPECIFIED.,.F.,
  .F.,(2,2),(0.,2.828427124746),.PIECEWISE_BEZIER_KNOTS.);
#1254 = CARTESIAN_POINT('',(0.,0.));
#1255 = CARTESIAN_POINT('',(0.,-2.));
#1256 = ( GEOMETRIC_REPRESENTATION_CONTEXT(2) 
PARAMETRIC_REPRESENTATION_CONTEXT() REPRESENTATION_CONTEXT('2D SPACE',''
  ) );
#1257 = PCURVE('',#1226,#1258);
#1258 = DEFINITIONAL_REPRESENTATION('',(#1259),#1262);
#1259 = B_SPLINE_CURVE_WITH_KNOTS('',1,(#1260,#1261),.UNSPECIFIED.,.F.,
  .F.,(2,2),(0.,2.828427124746),.PIECEWISE_BEZIER_KNOTS.);
#1260 = CARTESIAN_POINT('',(-6.28318530718,0.));
#1261 = CARTESIAN_POINT('',(-6.28318530718,-2.));
#1262 = ( GEOMETRIC_REPRESENTATION_CONTEXT(2) 
PARAMETRIC_REPRESENTATION_CONTEXT() REPRESENTATION_CONTEXT('2D SPACE',''
  ) );
#1263 = ORIENTED_EDGE('',*,*,#1211,.T.);
#1264 = ORIENTED_EDGE('',*,*,#1243,.T.);
#1265 = ORIENTED_EDGE('',*,*,#1266,.F.);
#1266 = EDGE_CURVE('',#1244,#1244,#1267,.T.);
#1267 = SURFACE_CURVE('',#1268,(#1273,#1280),.PCURVE_S1.);
#1268 = CIRCLE('',#1269,4.);
#1269 = AXIS2_PLACEMENT_3D('',#1270,#1271,#1272);
#1270 = CARTESIAN_POINT('',(95.,0.,0.));
#1271 = DIRECTION('',(1.,0.,0.));
#1272 = DIRECTION('',(-0.,1.,0.));
#1273 = PCURVE('',#1226,#1274);
#1274 = DEFINITIONAL_REPRESENTATION('',(#1275),#1279);
#1275 = LINE('',#1276,#1277);
#1276 = CARTESIAN_POINT('',(-0.,-2.));
#1277 = VECTOR('',#1278,1.);
#1278 = DIRECTION('',(-1.,-0.));
#1279 = ( GEOMETRIC_REPRESENTATION_CONTEXT(2) 
PARAMETRIC_REPRESENTATION_CONTEXT() REPRESENTATION_CONTEXT('2D SPACE',''
  ) );
#1280 = PCURVE('',#1281,#1286);
#1281 = PLANE('',#1282);
#1282 = AXIS2_PLACEMENT_3D('',#1283,#1284,#1285);
#1283 = CARTESIAN_POINT('',(95.,-3.418600331349E-16,-1.70226710729E-17)
  );
#1284 = DIRECTION('',(1.,0.,0.));
#1285 = DIRECTION('',(0.,1.,0.));
#1286 = DEFINITIONAL_REPRESENTATION('',(#1287),#1291);
#1287 = CIRCLE('',#1288,4.);
#1288 = AXIS2_PLACEMENT_2D('',#1289,#1290);
#1289 = CARTESIAN_POINT('',(3.418600331349E-16,1.70226710729E-17));
#1290 = DIRECTION('',(1.,0.));
#1291 = ( GEOMETRIC_REPRESENTATION_CONTEXT(2) 
PARAMETRIC_REPRESENTATION_CONTEXT() REPRESENTATION_CONTEXT('2D SPACE',''
  ) );
#1292 = ADVANCED_FACE('',(#1293),#1281,.T.);
#1293 = FACE_BOUND('',#1294,.T.);
#1294 = EDGE_LOOP('',(#1295));
#1295 = ORIENTED_EDGE('',*,*,#1266,.T.);
#1296 = ( GEOMETRIC_REPRESENTATION_CONTEXT(3) 
GLOBAL_UNCERTAINTY_ASSIGNED_CONTEXT((#1300)) 
GLOBAL_UNIT_ASSIGNED_CONTEXT((#1297,#1298,#1299)) REPRESENTATION_CONTEXT
('Context #1','3D Context with UNIT and UNCERTAINTY') );
#1297 = ( LENGTH_UNIT() NAMED_UNIT(*) SI_UNIT(.MILLI.,.METRE.) );
#1298 = ( NAMED_UNIT(*) PLANE_ANGLE_UNIT() SI_UNIT($,.RADIAN.) );
#1299 = ( NAMED_UNIT(*) SI_UNIT($,.STERADIAN.) SOLID_ANGLE_UNIT() );
#1300 = UNCERTAINTY_MEASURE_WITH_UNIT(LENGTH_MEASURE(1.E-07),#1297,
  'distance_accuracy_value','confusion accuracy');
#1301 = CONTEXT_DEPENDENT_SHAPE_REPRESENTATION(#1302,#1304);
#1302 = ( REPRESENTATION_RELATIONSHIP('','',#32,#10) 
REPRESENTATION_RELATIONSHIP_WITH_TRANSFORMATION(#1303) 
SHAPE_REPRESENTATION_RELATIONSHIP() );
#1303 = ITEM_DEFINED_TRANSFORMATION('','',#11,#15);
#1304 = PRODUCT_DEFINITION_SHAPE('Placement','Placement of an item',
  #1305);
#1305 = NEXT_ASSEMBLY_USAGE_OCCURRENCE('1','=>[0:1:1:2]','',#5,#27,$);
#1306 = PRODUCT_RELATED_PRODUCT_CATEGORY('part',$,(#29));
ENDSEC;
END-ISO-10303-21;
